<?xml version="1.0" encoding="UTF-8" standalone="no"?>
<svg xmlns="http://www.w3.org/2000/svg" width="24" height="24"><path d="M11.803 1.044 C 11.727 1.067,11.592 1.137,11.503 1.199 C 11.413 1.262,10.636 2.021,9.776 2.886 C 8.382 4.288,8.204 4.482,8.146 4.657 C 8.007 5.074,8.116 5.493,8.434 5.766 C 8.626 5.930,8.829 6.000,9.105 5.999 C 9.451 5.998,9.604 5.892,10.370 5.129 L 11.080 4.421 11.080 10.763 C 11.080 17.897,11.057 17.371,11.381 17.694 C 11.877 18.191,12.692 18.052,12.985 17.422 L 13.079 17.220 13.080 10.821 L 13.080 4.423 13.790 5.129 C 14.580 5.915,14.706 5.998,15.100 5.998 C 15.507 5.998,15.846 5.778,16.010 5.406 C 16.107 5.189,16.111 4.839,16.020 4.620 C 15.939 4.427,12.839 1.293,12.570 1.133 C 12.376 1.018,12.023 0.977,11.803 1.044 M5.912 8.045 C 5.231 8.094,4.771 8.206,4.300 8.437 C 3.210 8.973,2.431 9.985,2.202 11.160 C 2.105 11.663,2.081 12.500,2.081 15.500 C 2.081 18.500,2.105 19.337,2.202 19.840 C 2.491 21.327,3.690 22.562,5.131 22.857 C 5.801 22.995,6.373 23.005,12.480 22.989 C 17.976 22.975,18.530 22.968,18.840 22.905 C 19.722 22.727,20.291 22.427,20.899 21.820 C 21.372 21.348,21.661 20.892,21.837 20.341 C 22.059 19.649,22.060 19.623,22.060 15.500 C 22.060 11.377,22.059 11.351,21.837 10.659 C 21.496 9.591,20.536 8.619,19.470 8.262 C 18.909 8.074,18.463 8.030,17.080 8.025 C 15.909 8.020,15.809 8.025,15.664 8.097 C 15.301 8.278,15.102 8.596,15.102 9.000 C 15.102 9.309,15.187 9.509,15.411 9.726 C 15.661 9.969,15.793 9.991,17.100 10.014 C 18.368 10.036,18.671 10.070,18.994 10.226 C 19.306 10.377,19.695 10.758,19.838 11.054 C 20.058 11.508,20.060 11.543,20.060 15.500 C 20.060 19.453,20.058 19.492,19.840 19.943 C 19.694 20.244,19.288 20.645,18.992 20.779 C 18.542 20.983,18.661 20.980,12.080 20.980 C 5.450 20.980,5.611 20.985,5.163 20.768 C 4.849 20.615,4.468 20.229,4.322 19.915 C 4.104 19.447,4.100 19.372,4.100 15.520 C 4.100 11.662,4.106 11.545,4.321 11.085 C 4.468 10.771,4.850 10.384,5.161 10.235 C 5.498 10.073,5.840 10.034,7.160 10.004 C 8.192 9.982,8.399 9.967,8.505 9.910 C 8.872 9.713,9.079 9.384,9.080 8.997 C 9.080 8.577,8.764 8.151,8.369 8.042 C 8.195 7.993,6.601 7.995,5.912 8.045" stroke="none" fill-rule="evenodd"/></svg>