<?xml version="1.0" encoding="UTF-8" standalone="no"?>
<svg xmlns="http://www.w3.org/2000/svg" width="24" height="24"><path d="M7.664 1.063 C 7.436 1.146,7.257 1.297,7.131 1.511 C 7.036 1.672,7.020 1.744,7.020 2.000 C 7.020 2.256,7.036 2.328,7.131 2.489 C 7.192 2.592,7.301 2.723,7.374 2.778 C 7.656 2.993,7.721 3.000,9.425 3.000 L 11.000 3.000 11.000 3.496 L 11.000 3.992 8.850 4.011 C 6.247 4.034,5.936 4.070,5.220 4.430 C 4.566 4.759,4.049 5.218,3.662 5.811 C 3.281 6.396,3.121 6.901,3.042 7.760 C 2.987 8.363,2.986 15.576,3.041 16.194 C 3.121 17.094,3.279 17.600,3.666 18.195 C 3.790 18.385,4.019 18.668,4.176 18.824 C 4.470 19.119,5.013 19.500,5.335 19.638 L 5.520 19.717 5.010 20.742 C 4.508 21.751,4.500 21.772,4.501 22.034 C 4.503 22.351,4.595 22.554,4.835 22.771 C 5.035 22.952,5.370 23.058,5.611 23.019 C 5.852 22.980,6.157 22.804,6.277 22.635 C 6.334 22.556,6.659 21.930,6.999 21.245 L 7.619 20.000 12.000 20.000 L 16.381 20.000 17.001 21.245 C 17.341 21.930,17.666 22.556,17.723 22.635 C 17.843 22.804,18.148 22.980,18.389 23.019 C 18.630 23.058,18.965 22.952,19.165 22.771 C 19.405 22.554,19.497 22.351,19.499 22.034 C 19.500 21.772,19.492 21.751,18.990 20.742 L 18.480 19.717 18.665 19.638 C 19.529 19.267,20.419 18.313,20.723 17.430 C 20.976 16.696,20.974 16.732,20.991 12.380 C 21.007 8.236,20.989 7.593,20.839 6.967 C 20.731 6.514,20.603 6.218,20.338 5.811 C 19.795 4.979,18.920 4.358,18.009 4.160 C 17.453 4.039,16.685 4.001,14.750 4.001 L 13.000 4.000 13.000 3.500 L 13.000 3.000 14.573 3.000 C 16.362 3.000,16.409 2.994,16.701 2.701 C 17.092 2.310,17.092 1.690,16.701 1.299 C 16.384 0.982,16.666 1.000,11.983 1.003 C 8.474 1.005,7.795 1.015,7.664 1.063 M17.460 6.076 C 17.818 6.146,18.109 6.308,18.401 6.599 C 18.700 6.899,18.857 7.188,18.923 7.560 C 18.949 7.710,18.977 8.491,18.989 9.410 L 19.009 11.000 12.000 11.000 L 4.991 11.000 5.011 9.410 C 5.023 8.491,5.051 7.710,5.077 7.560 C 5.166 7.059,5.501 6.578,5.953 6.305 C 6.234 6.135,6.419 6.084,6.913 6.042 C 7.539 5.989,17.173 6.019,17.460 6.076 M18.989 14.590 C 18.977 15.496,18.948 16.292,18.923 16.440 C 18.835 16.940,18.486 17.437,18.031 17.711 C 17.565 17.991,17.810 17.980,12.000 17.980 C 7.190 17.980,6.757 17.975,6.483 17.911 C 5.774 17.745,5.202 17.147,5.077 16.440 C 5.051 16.290,5.023 15.509,5.011 14.590 L 4.991 13.000 12.000 13.000 L 19.010 13.000 18.989 14.590 M8.150 14.041 C 7.722 14.149,7.343 14.465,7.144 14.880 C 7.034 15.111,7.020 15.180,7.020 15.500 C 7.020 15.811,7.035 15.894,7.133 16.104 C 7.276 16.413,7.585 16.721,7.900 16.868 C 8.107 16.965,8.190 16.980,8.500 16.980 C 8.811 16.980,8.894 16.965,9.104 16.867 C 9.413 16.724,9.721 16.415,9.868 16.100 C 9.965 15.893,9.980 15.810,9.980 15.500 C 9.980 15.189,9.965 15.106,9.867 14.896 C 9.725 14.589,9.414 14.278,9.110 14.139 C 8.852 14.022,8.407 13.976,8.150 14.041 M15.150 14.041 C 14.722 14.149,14.343 14.465,14.144 14.880 C 14.034 15.111,14.020 15.180,14.020 15.500 C 14.020 15.811,14.035 15.894,14.133 16.104 C 14.276 16.413,14.585 16.721,14.900 16.868 C 15.107 16.965,15.190 16.980,15.500 16.980 C 15.811 16.980,15.894 16.965,16.104 16.867 C 16.413 16.724,16.721 16.415,16.868 16.100 C 16.965 15.893,16.980 15.810,16.980 15.500 C 16.980 15.189,16.965 15.106,16.867 14.896 C 16.725 14.589,16.414 14.278,16.110 14.139 C 15.852 14.022,15.407 13.976,15.150 14.041 M9.240 21.037 C 9.047 21.097,8.893 21.196,8.752 21.352 C 8.307 21.845,8.480 22.617,9.100 22.906 L 9.300 22.999 12.000 22.999 L 14.700 22.999 14.900 22.906 C 15.672 22.546,15.696 21.510,14.943 21.107 C 14.781 21.020,14.771 21.020,12.060 21.013 C 10.564 21.009,9.295 21.020,9.240 21.037" stroke="none" fill-rule="evenodd"/></svg>