<?xml version="1.0" encoding="UTF-8" standalone="no"?>
<svg id="svg18363" xmlns="http://www.w3.org/2000/svg" viewBox="0 0 12.24 12.24"><defs><style>.cls-1,.cls-2{fill-rule:evenodd;}.cls-2{fill:#f1b843;}</style></defs><path id="path8628" class="cls-1" d="M6.09549.9546a.06626.06626,0,0,0-.06479.06478V2.21651a.06478.06478,0,0,0,.06479.06478h.12416a.06274.06274,0,0,0,.06209-.06478V1.01938A.06414.06414,0,0,0,6.21965.9546ZM4.484.9573V3.06H2.06413a.6069.6069,0,0,0-.60733.60734v5.1421a.60805.60805,0,0,0,.60733.60868H7.20758a.60765.60765,0,0,0,.60734-.60868V3.66737A.6065.6065,0,0,0,7.20758,3.06H4.78769V.9573ZM3.0831.9681l-.633.62758a.045.045,0,0,0,0,.06478l.10527.10527a.04552.04552,0,0,0,.06478,0l.50206-.49936.50342.49531a.04457.04457,0,0,0,.06208,0l.10662-.09987a.04289.04289,0,0,0,0-.06343C3.58984,1.39354,3.36487,1.17072,3.16.9681A.06556.06556,0,0,0,3.0831.9681Zm-.02834.50746A.06466.06466,0,0,0,2.99,1.539V2.73612a.06519.06519,0,0,0,.06478.06478h.12417A.06294.06294,0,0,0,3.241,2.73612V1.539a.06236.06236,0,0,0-.06208-.06343Zm2.54.51556L5.49085,2.095a.045.045,0,0,0,0,.06478l.633.62758a.06458.06458,0,0,0,.07693,0c.20452-.20135.4298-.425.63433-.62893a.045.045,0,0,0,0-.06478l-.10663-.09852a.04392.04392,0,0,0-.06343,0l-.50341.49531-.50207-.49936A.045.045,0,0,0,5.59477,1.99112ZM2.06413,3.36235H7.20758a.3043.3043,0,0,1,.30367.305v5.1421a.30431.30431,0,0,1-.30367.305H2.06413a.30451.30451,0,0,1-.30367-.305V3.66737A.30451.30451,0,0,1,2.06413,3.36235ZM3.376,3.67951a.45685.45685,0,1,0,.45618.45753A.45676.45676,0,0,0,3.376,3.67951Zm2.43069,0a.45685.45685,0,1,0,.45753.45753A.45737.45737,0,0,0,5.80666,3.67951ZM2.69441,4.77a.45152.45152,0,0,0-.45078.45077v1.3024a.221.221,0,0,0,.22269.22h.01215A.22161.22161,0,0,0,2.69981,6.538V5.37465A.04093.04093,0,0,1,2.743,5.33281a.04.04,0,0,1,.04184.04184L2.78753,8.518a.2682.2682,0,1,0,.53581,0V6.754a.04624.04624,0,0,1,.04724-.04859.04573.04573,0,0,1,.04723.04859V8.518a.26884.26884,0,1,0,.53716,0l.00135-3.1433a.04.04,0,0,1,.04184-.04184.04092.04092,0,0,1,.04318.04184V6.538a.22265.22265,0,0,0,.22269.20514h.01215a.22023.22023,0,0,0,.22134-.22V5.22079A.451.451,0,0,0,4.04809,4.77Zm2.67632.004a.44977.44977,0,0,0-.43458.332L4.5893,6.39767a.22745.22745,0,0,0,.43323.13632L5.31,5.47587a.04256.04256,0,0,1,.08233.0216L4.77285,7.78105H5.225V8.518a.26869.26869,0,1,0,.53716.01349V7.77565a.04327.04327,0,0,1,.08637,0v.75579A.26869.26869,0,1,0,6.38566,8.518v-.7369h.45213L6.2183,5.49747a.04322.04322,0,0,1,.08368-.0216L6.5881,6.534a.22757.22757,0,0,0,.43323-.13632l-.34685-1.2916a.44949.44949,0,0,0-.43458-.332Z"/><path class="cls-2" d="M10.58613,11.2854H4.06274a.254.254,0,0,1-.22-.3809l3.255-5.64289a.254.254,0,0,1,.43979-.00039l3.26837,5.64289A.254.254,0,0,1,10.58613,11.2854Z"/><path d="M7.19159,9.30741l.08-.08-.2-.2-.02.02-.4.41a.50732.50732,0,0,0-.17-.03.475.475,0,1,0,.47.48.4666.4666,0,0,0-.03-.17l.26-.26.01995-.02-.00994-.01A.09655.09655,0,0,1,7.19159,9.30741Zm-.45.69995-.16.16h-.21l-.16-.16v-.21l.16-.15h.21l.16.15Z"/><path d="M7.93158,9.27738a.22586.22586,0,0,0-.23005-.05l-.06994-.06.06-.07a.03053.03053,0,0,0,0-.04l-.04-.04s-.04-.03-.06-.01l-.12.12-.25-.24-.69-.69v-.12l-.33-.21-.1.09.22.34h.12l.68.69.25.24-.13.13a.03037.03037,0,0,0,0,.04l.06.06a.03037.03037,0,0,0,.04,0l.06-.05.07.06a.18249.18249,0,0,0,.04.22l.61.61a.19337.19337,0,0,0,.28,0l.13-.13a.19325.19325,0,0,0,0-.28Z"/><path d="M7.56158,8.93736a.08644.08644,0,0,1,.06-.03h.02c.02,0,.06.04.06.04l.28-.27a.46786.46786,0,0,0,.17.03.50091.50091,0,0,0,.12-.02.68185.68185,0,0,0,.1-.04.91969.91969,0,0,0,.08-.05.47509.47509,0,0,0,.1-.1.50318.50318,0,0,0,.08-.27.84018.84018,0,0,0-.03-.18l-.18.18v.1l-.16.16h-.21l-.15-.16v-.21l.15-.16h.08l.18-.18a.41433.41433,0,0,0-.16-.03.39181.39181,0,0,0-.18.04.654.654,0,0,0-.15.1.46805.46805,0,0,0-.15.34.329.329,0,0,0,.04.17l-.41.4-.02.02.2.2Z"/></svg>