<?xml version="1.0" encoding="UTF-8" standalone="no"?>
<svg xmlns="http://www.w3.org/2000/svg" width="24" height="24"><path d="M3.136 2.042 C 2.958 2.059,2.733 2.095,2.636 2.121 C 1.783 2.347,1.188 3.211,1.251 4.131 C 1.270 4.401,1.299 4.505,1.435 4.776 C 1.523 4.954,1.711 5.244,1.851 5.420 C 1.992 5.596,3.541 7.342,5.293 9.300 L 8.480 12.860 8.480 16.440 C 8.480 18.509,8.497 20.163,8.520 20.360 C 8.547 20.598,8.595 20.773,8.679 20.945 C 8.981 21.558,9.678 21.878,10.341 21.708 C 10.643 21.630,14.554 20.070,14.784 19.935 C 15.140 19.727,15.406 19.314,15.481 18.853 C 15.503 18.721,15.520 17.375,15.520 15.740 L 15.520 12.860 18.546 9.480 C 21.924 5.706,22.235 5.348,22.451 4.991 C 22.740 4.514,22.828 3.999,22.702 3.525 C 22.507 2.794,21.975 2.267,21.251 2.090 C 21.003 2.029,20.239 2.023,12.220 2.016 C 7.402 2.013,3.314 2.024,3.136 2.042 M20.594 4.034 C 20.713 4.068,20.946 3.797,17.049 8.151 C 15.370 10.027,13.925 11.664,13.837 11.789 C 13.750 11.913,13.639 12.134,13.590 12.278 C 13.503 12.536,13.502 12.583,13.481 15.438 L 13.460 18.336 11.992 18.923 L 10.523 19.511 10.511 16.026 L 10.499 12.540 10.410 12.280 C 10.360 12.137,10.269 11.939,10.206 11.840 C 10.143 11.741,8.682 10.085,6.959 8.160 C 5.236 6.235,3.711 4.525,3.570 4.360 C 3.325 4.073,3.318 4.059,3.407 4.034 C 3.529 4.000,20.472 4.000,20.594 4.034" stroke="none" fill-rule="evenodd"/></svg>