<?xml version="1.0" encoding="UTF-8" standalone="no"?>
<svg xmlns="http://www.w3.org/2000/svg" width="24" height="24"><path d="M11.260 0.824 C 10.298 0.919,9.708 1.021,8.989 1.218 C 7.637 1.589,6.261 2.284,5.084 3.190 C 4.569 3.586,3.471 4.706,3.073 5.240 C 0.661 8.475,0.129 12.617,1.655 16.292 C 2.228 17.673,2.982 18.787,4.098 19.902 C 5.609 21.414,7.252 22.351,9.280 22.859 C 12.591 23.688,15.991 22.995,18.760 20.926 C 19.366 20.474,20.474 19.366,20.926 18.760 C 23.962 14.695,23.962 9.296,20.926 5.240 C 20.545 4.732,19.475 3.629,19.000 3.256 C 18.130 2.572,16.871 1.858,15.906 1.501 C 15.155 1.224,14.314 1.019,13.420 0.896 C 12.997 0.838,11.592 0.791,11.260 0.824 M13.320 2.901 C 16.978 3.435,19.993 6.136,20.897 9.690 C 21.113 10.538,21.176 11.065,21.176 12.000 C 21.176 12.587,21.156 12.956,21.104 13.300 C 20.650 16.318,18.833 18.843,16.131 20.212 C 15.277 20.645,14.346 20.943,13.340 21.107 C 12.722 21.207,11.278 21.207,10.660 21.107 C 9.654 20.943,8.723 20.645,7.869 20.212 C 5.167 18.843,3.350 16.318,2.896 13.300 C 2.796 12.638,2.796 11.362,2.896 10.700 C 3.394 7.389,5.543 4.674,8.640 3.440 C 9.378 3.146,10.270 2.934,11.160 2.841 C 11.641 2.790,12.777 2.822,13.320 2.901 M13.000 8.324 C 12.169 8.395,11.472 8.781,11.063 9.395 C 10.812 9.773,10.681 10.191,10.651 10.704 L 10.628 11.120 11.554 11.120 L 12.480 11.120 12.480 10.899 C 12.480 10.311,12.929 9.937,13.507 10.045 C 14.001 10.137,14.264 10.698,14.043 11.185 C 13.943 11.406,13.772 11.570,12.088 13.060 L 10.641 14.340 10.640 15.090 L 10.640 15.840 13.300 15.840 L 15.960 15.840 15.960 14.981 L 15.960 14.121 14.772 14.111 L 13.585 14.100 14.342 13.436 C 14.759 13.071,15.208 12.657,15.340 12.515 C 15.781 12.043,15.958 11.573,15.959 10.876 C 15.961 9.977,15.583 9.222,14.902 8.767 C 14.328 8.383,13.787 8.257,13.000 8.324 M3.890 11.050 C 3.903 13.946,3.894 13.841,4.179 14.420 C 4.540 15.152,5.177 15.659,6.022 15.884 C 6.477 16.006,7.365 16.006,7.820 15.885 C 8.664 15.661,9.298 15.161,9.655 14.439 C 9.975 13.790,9.970 13.837,9.989 10.970 L 10.006 8.440 9.084 8.440 L 8.162 8.440 8.151 10.910 L 8.140 13.380 8.047 13.567 C 7.827 14.010,7.422 14.258,6.920 14.256 C 6.407 14.255,6.002 13.997,5.792 13.540 L 5.700 13.340 5.689 10.890 L 5.678 8.440 4.777 8.440 L 3.877 8.440 3.890 11.050 M17.250 8.889 L 16.520 9.331 16.520 10.330 C 16.520 11.165,16.529 11.325,16.576 11.307 C 16.606 11.296,16.896 11.123,17.220 10.923 C 17.543 10.723,17.815 10.560,17.824 10.560 C 17.833 10.560,17.840 11.748,17.840 13.200 L 17.840 15.840 18.740 15.840 L 19.640 15.840 19.640 12.140 L 19.640 8.440 18.810 8.443 L 17.980 8.447 17.250 8.889" stroke="none" fill-rule="evenodd"/></svg>