<?xml version="1.0" encoding="UTF-8" standalone="no"?>
<svg xmlns="http://www.w3.org/2000/svg" width="24" height="24"><path d="M8.340 2.046 C 7.849 2.108,7.317 2.273,6.820 2.517 C 5.374 3.226,4.390 4.510,4.075 6.100 C 4.002 6.468,4.002 7.532,4.075 7.900 C 4.482 9.953,6.047 11.518,8.100 11.925 C 8.468 11.998,9.532 11.998,9.900 11.925 C 11.723 11.564,13.191 10.273,13.753 8.539 C 13.940 7.961,13.980 7.680,13.978 6.960 C 13.976 6.381,13.963 6.247,13.869 5.869 C 13.678 5.104,13.374 4.473,12.926 3.912 C 11.822 2.527,10.090 1.823,8.340 2.046 M14.906 2.263 C 14.657 2.342,14.357 2.635,14.289 2.865 C 14.130 3.400,14.326 3.835,14.873 4.158 C 15.501 4.529,15.959 5.046,16.241 5.702 C 16.554 6.431,16.560 7.509,16.257 8.256 C 16.009 8.865,15.518 9.449,14.971 9.783 C 14.587 10.019,14.457 10.135,14.348 10.340 C 14.228 10.564,14.229 10.996,14.348 11.223 C 14.544 11.593,14.999 11.841,15.371 11.778 C 15.951 11.682,17.068 10.776,17.598 9.973 C 18.196 9.068,18.487 8.095,18.487 7.000 C 18.487 5.310,17.733 3.775,16.417 2.788 C 15.727 2.271,15.323 2.130,14.906 2.263 M9.756 4.097 C 10.093 4.189,10.595 4.447,10.873 4.671 C 11.554 5.219,12.000 6.140,12.000 7.000 C 12.000 8.170,11.225 9.329,10.151 9.766 C 8.642 10.380,6.989 9.734,6.298 8.260 C 6.072 7.779,6.021 7.546,6.021 7.000 C 6.021 6.454,6.072 6.221,6.298 5.740 C 6.716 4.848,7.537 4.215,8.503 4.040 C 8.770 3.991,9.491 4.024,9.756 4.097 M18.664 14.063 C 18.436 14.146,18.257 14.297,18.131 14.511 L 18.020 14.700 18.008 15.850 L 17.995 17.000 16.923 17.000 C 15.764 17.000,15.642 17.018,15.374 17.222 C 15.301 17.277,15.192 17.408,15.131 17.511 C 15.036 17.672,15.020 17.744,15.020 18.000 C 15.020 18.256,15.036 18.328,15.131 18.489 C 15.192 18.592,15.301 18.723,15.374 18.778 C 15.642 18.983,15.764 19.000,16.925 19.000 L 18.000 19.000 18.000 20.070 C 18.000 20.684,18.018 21.204,18.042 21.289 C 18.103 21.509,18.315 21.762,18.531 21.874 C 18.932 22.080,19.390 22.012,19.700 21.702 C 19.979 21.423,20.000 21.309,20.000 20.073 L 20.000 19.000 21.073 19.000 C 22.308 19.000,22.423 18.979,22.701 18.701 C 23.092 18.310,23.092 17.690,22.701 17.299 C 22.423 17.021,22.308 17.000,21.073 17.000 L 20.000 17.000 20.000 15.927 C 20.000 14.692,19.979 14.577,19.701 14.299 C 19.429 14.027,19.018 13.933,18.664 14.063 M8.140 14.263 C 8.074 14.272,7.858 14.300,7.660 14.324 C 6.163 14.512,4.520 15.253,3.162 16.353 C 2.469 16.914,1.410 18.040,1.134 18.508 C 0.862 18.969,1.032 19.588,1.508 19.867 C 1.673 19.964,1.743 19.980,2.000 19.980 C 2.409 19.980,2.576 19.878,2.969 19.390 C 3.863 18.278,4.820 17.488,5.940 16.937 C 7.123 16.356,8.260 16.147,9.512 16.282 C 10.206 16.357,10.765 16.517,11.678 16.901 C 12.183 17.114,12.683 16.965,12.948 16.523 C 13.115 16.245,13.146 16.031,13.062 15.742 C 12.969 15.423,12.773 15.220,12.380 15.038 C 11.651 14.701,10.928 14.479,10.091 14.337 C 9.756 14.279,8.393 14.228,8.140 14.263" stroke="none" fill-rule="evenodd"/></svg>