<?xml version="1.0" encoding="UTF-8" standalone="no"?>
<svg xmlns="http://www.w3.org/2000/svg" width="16" height="16" fill="none"><path stroke="#4562A2" stroke-linecap="round" stroke-width="1.667" d="M14.667 6a1.333 1.333 0 0 0-1.332-1.333h-2.668L4 11.333H2.667A1.333 1.333 0 0 0 2.666 14h2.667L12 7.333h1.333A1.33 1.33 0 0 0 14.667 6Zm-10 0a.667.667 0 1 0 0-1.333.667.667 0 0 0 0 1.333Zm0 4V8.33c0-.182.154-.33.333-.33a.33.33 0 0 1 .333.337v.996L4.667 10ZM8 2.667a.667.667 0 1 0 0-1.334.667.667 0 0 0 0 1.334Zm0 4v-1.67c0-.182.155-.33.333-.33a.33.33 0 0 1 .334.336V6L8 6.667Z"/></svg>