<?xml version="1.0" encoding="utf-8"?>\x3c!--Generator: Adobe Illustrator 25.1.0, SVG Export Plug-In . SVG Version: 6.00 Build 0)--\x3e<svg version="1.1" id="Ebene_1" xmlns="http://www.w3.org/2000/svg" xmlns:xlink="http://www.w3.org/1999/xlink" x="0px" y="0px" viewBox="0 0 365 365" style="enable-background:new 0 0 365 365;" xml:space="preserve"><style type="text/css">.st0{fill:#4562A2;} \t.st1{fill:#2C426D;} \t.st2{fill:#FFFFFF;} \t.st3{fill-rule:evenodd;clip-rule:evenodd;fill:#FFFFFF;}</style><path class="st0" d="M330,365H35c-19.3299675,0-35-15.6700439-35-35V35C0,15.6700335,15.6700335,0,35,0h295 c19.3299561,0,35,15.6700335,35,35v295C365,349.3299561,349.3299561,365,330,365z"/><path class="st1" d="M0,258v72c0,19.3299561,15.6700439,35,35,35h295c19.3299561,0,35-15.6700439,35-35v-72H0z"/><g><path class="st2" d="M48.4697266,328.5947266l-2.3842773-29.3330078l-5.6557617,29.3330078h-6.8208008l-5.9331055-29.3330078 l-2.1069336,29.3330078h-6.8203125l4.1586914-36.9853516h8.7055664l5.6005859,29.6660156l5.3789062-29.6660156h8.7055664 l4.2143555,36.9853516H48.4697266z"/><path class="st2" d="M77.3012695,328.5947266h-8.8720703L57.9492188,291.609375h7.4858398l7.6523438,31.2744141 l7.5966797-31.2744141h7.152832L77.3012695,328.5947266z"/><path class="st2" d="M107.1757812,329.2050781c-11.5893555,0-16.8012695-7.8193359-16.8012695-19.6855469 c0-10.5351562,6.4873047-18.5205078,18.2431641-18.5205078c4.0478516,0,6.9311523,0.4443359,9.2045898,1.2753906 l-1.2753906,5.3789062c-2.2734375-0.8867188-4.7685547-1.3310547-7.5966797-1.3310547 c-7.9291992,0-11.3120117,5.5449219-11.3120117,13.1416016c0,7.8193359,2.2734375,14.5283203,10.3139648,14.5283203 c1.4414062,0,2.605957-0.2773438,3.659668-0.7207031v-10.2587891h-5.434082v-5.2119141h12.0878906v19.4072266 C115.1049805,328.5947266,111.6118164,329.2050781,107.1757812,329.2050781z"/><path class="st2" d="M143.3261719,297.1542969v10.2587891h11.7001953v5.5449219h-11.7001953v15.6367188h-6.9868164V291.609375 h19.6850586v5.5449219H143.3261719z"/><path class="st2" d="M177.0380859,328.5947266l-0.4990234-3.6044922c-1.1088867,2.4951172-3.7705078,4.1035156-7.2084961,4.1035156 c-5.434082,0-7.7075195-3.8261719-7.7075195-8.5947266v-19.1855469h6.5986328v18.5205078 c0,2.4394531,0.9980469,4.3798828,3.7705078,4.3798828c3.1049805,0,4.2695312-3.0498047,4.2695312-5.8222656v-17.078125h6.5986328 v27.28125H177.0380859z"/><path class="st2" d="M205.2607422,328.5947266v-18.5761719c0-2.4394531-1.0537109-4.4912109-3.8818359-4.4912109 c-3.2714844,0-4.4912109,3.2714844-4.4912109,5.9882812v17.0791016h-6.5986328v-27.28125h5.8222656l0.4990234,3.6591797 c1.1650391-2.4951172,3.8818359-4.1582031,7.375-4.1582031c5.4345703,0,7.8740234,3.8808594,7.8740234,8.6494141v19.1308594 H205.2607422z"/><path class="st2" d="M234.4814453,328.5947266l-0.4990234-3.3828125c-1.4970703,2.4951172-3.7148438,3.8818359-7.0976562,3.8818359 c-7.4853516,0-9.1494141-7.5966797-9.1494141-14.4726562c0-7.1533203,2.9394531-13.8066406,10.3691406-13.8066406 c2.6064453,0,4.9912109,1.2753906,5.8779297,3.4931641v-15.1933594h6.5986328v39.4804688H234.4814453z M234.1484375,311.9042969 c0-3.1611328-1.4414062-6.4882812-4.7128906-6.4882812c-4.1591797,0-4.8242188,6.1552734-4.8242188,9.4824219 c0,4.2138672,0.4433594,9.4824219,4.6582031,9.4824219c3.0498047,0,4.8789062-3.1054688,4.8789062-6.4326172V311.9042969z"/><path class="st2" d="M260.6523438,329.09375c-2.9941406,0-5.2128906-1.6083984-6.3212891-3.8261719l-0.4990234,3.3271484 h-5.8222656v-39.4804688h6.5986328v15.4707031c1.3300781-2.4951172,3.7705078-3.7705078,6.7646484-3.7705078 c7.4853516,0,9.4814453,6.8203125,9.4814453,13.8066406C270.8544922,321.6083984,268.3046875,329.09375,260.6523438,329.09375z M259.1552734,305.4716797c-3.3828125,0-4.7138672,3.3828125-4.7138672,6.4326172v6.0996094 c0,3.4931641,1.4423828,6.3769531,4.6025391,6.3769531c4.4365234,0,4.9355469-6.5439453,4.9355469-9.7597656 C263.9794922,311.2382812,263.5908203,305.4716797,259.1552734,305.4716797z"/><path class="st2" d="M292.0351562,328.5947266l-0.4990234-3.6044922c-1.109375,2.4951172-3.7705078,4.1035156-7.2089844,4.1035156 c-5.4335938,0-7.7070312-3.8261719-7.7070312-8.5947266v-19.1855469h6.5986328v18.5205078 c0,2.4394531,0.9980469,4.3798828,3.7705078,4.3798828c3.1044922,0,4.2695312-3.0498047,4.2695312-5.8222656v-17.078125h6.5986328 v27.28125H292.0351562z M281.8876953,296.4335938c-2.1074219,0-3.8261719-1.7744141-3.8261719-3.7705078 s1.71875-3.7705078,3.8261719-3.7705078c2.1064453,0,3.7705078,1.7744141,3.7705078,3.7705078 S283.9941406,296.4335938,281.8876953,296.4335938z M292.7001953,296.4335938 c-2.1621094,0-3.8261719-1.7744141-3.8261719-3.7705078s1.6640625-3.7705078,3.7705078-3.7705078 c2.1630859,0,3.8261719,1.7744141,3.8261719,3.7705078S294.8076172,296.4335938,292.7001953,296.4335938z"/><path class="st2" d="M318.5390625,306.96875c-0.6103516-0.1660156-1.2197266-0.2773438-1.8300781-0.2773438 c-3.9365234,0-4.8242188,3.5488281-4.8242188,6.9873047v14.9160156h-6.5986328v-27.28125h5.9882812l0.5,3.6035156 c1.71875-2.8828125,3.7148438-4.1025391,6.5976562-4.1025391c0.5,0,1.5527344,0.1103516,2.0517578,0.3320312L318.5390625,306.96875 z"/><path class="st2" d="M334.2744141,329.09375c-9.1494141,0-11.7558594-6.9863281-11.7558594-14.5283203 c0-6.8203125,3.6044922-13.7509766,11.7558594-13.7509766c8.4833984-0.0556641,11.7548828,6.7089844,11.7548828,13.7509766 C346.0292969,321.8847656,343.1464844,329.09375,334.2744141,329.09375z M334.2744141,305.4716797 c-4.2695312,0-4.8798828,5.6005859-4.8798828,9.1494141c0,3.6044922,0.4433594,9.7597656,4.8798828,9.7597656 c4.4355469,0,4.8798828-6.0996094,4.8798828-9.7597656C339.1542969,311.0722656,338.5439453,305.4716797,334.2744141,305.4716797z"/></g><g><path class="st2" d="M249.0573425,178.4032745l-7.0916595,0.2121887l0.0084229,4.7518311l7.7245483-0.3384399 c5.8812866,0.3585358,5.0261993,12.4982605-0.5487366,11.9949646l-44.8149261-0.0960541l-0.0505066-8.9682617l-103.803688,9.756134 l-13.1520996-0.1363373l0.0294571,5.2971954l13.7605972-0.074173l102.9873123,9.0070953l-0.0539703-9.7106934l30.3877716,0.1114044 v11.8491669l-4.7719116,3.8957825v20.2209167h12.8852997v-20.2209167l-4.7905426-3.9243011v-11.8084412l11.7255402,0.0430298 C260.8199158,200.1173401,262.1446228,178.7131042,249.0573425,178.4032745z"/><path class="st3" d="M282.9628601,70.6384506c1.320343,0,2.4534302,0.3941116,3.4367981,1.2148132 c0.9775085,0.8199005,1.4601746,1.8367462,1.4601746,3.0348129v34.1408844h1.6416321V78.7930374 c0-1.1815186,0.4925842-2.1983719,1.4680481-3.002327c0.9932556-0.8374557,2.0674133-1.230751,3.2654724-1.230751 c1.3025818,0,2.4516296,0.3932953,3.4289246,1.230751C298.6472473,76.5946655,299,77.6115189,299,78.7930374v76.6825333 h-17.7929688l-4.8971863-12.2714233l-4.428009,12.2714233l-13.8321228,0.2463989l0.2639465-12.5670624 c-1.6416016,0-3.2812042-0.6405029-4.9068451-1.9527893c-1.6317596-1.3124695-3.0840759-3.0023193-4.3295593-5.0697174 c-1.2553864-2.0671997-2.2643585-4.3480988-3.0190735-6.8578339c-0.7724762-2.5105515-1.1490021-4.9058762-1.1490021-7.1859665 V96.7742844c3.584671,0,6.0619507,0.9508591,7.423645,2.8546066c1.3617249,1.9027328,2.0435944,4.0516586,2.0435944,6.4469833 v9.6474686h1.631546V74.8880768c0-1.1980667,0.4927673-2.2149124,1.4682312-3.0348129 c0.9853821-0.8207016,2.1322021-1.2148132,3.4367981-1.2148132c1.2061462,0,2.2800903,0.3941116,3.2576294,1.2148132 c0.9833069,0.8199005,1.4916382,1.8367462,1.4916382,3.0348129v34.1408844h1.4604187V74.8880768 c0-1.1980667,0.4925842-2.2149124,1.4779358-3.0348129c0.9597473-0.8207016,2.1144104-1.2148132,3.4269104-1.2148132 c1.1825256,0,2.2821045,0.3941116,3.2654724,1.2148132c0.977478,0.8199005,1.4680481,1.8367462,1.4680481,3.0348129v34.1408844 h1.4682922V74.8880768c0-1.1980667,0.4925842-2.2149124,1.4779358-3.0348129 C280.6827698,71.0325623,281.7645874,70.6384506,282.9628601,70.6384506"/><g><path class="st3" d="M209.8937988,66.4875107c-2.6736145-2.6585236-5.9040527-3.973896-9.6940155-3.973896h-18.2273865v94.1595001 h18.2273865c3.7899628,0,7.020401-1.260498,9.6940155-3.8054352c2.6448059-2.5414124,3.9738922-5.6877441,3.9738922-9.4896698 V75.7812805C213.867691,72.235054,212.5386047,69.1474457,209.8937988,66.4875107z"/><path class="st3" d="M154.2497101,51.1328392c0-1.7722359-0.8858948-2.6873703-2.6581726-2.6873703h-25.0624008 c-2.0159683,0-3.0172653,0.9151344-3.0172653,2.6873703v11.3807755h-21.6740875v94.1595001h74.0431061V62.5136147h-21.6311798 V51.1328392z M129.2013855,53.7639313h19.3591614v8.7496834h-19.3591614V53.7639313z M162.6286926,76.9250183v26.1906662 H145.915741V76.9250183l8.3339691-6.8346558L162.6286926,76.9250183z"/><path class="st3" d="M68.0823288,66.4875107c-2.8023758,2.659935-4.2021561,5.7767334-4.2021561,9.3215561v67.5689392 c0,3.8019257,1.3997803,6.9756927,4.2021561,9.5206299c2.759819,2.5139771,6.0760345,3.7744751,9.8505173,3.7744751h17.8430176 V62.5136147H77.9328461C74.1583633,62.5136147,70.8421478,63.8564186,68.0823288,66.4875107z"/><path class="st3" d="M151.5915375,77.325264c0,1.7722321,0.8859863,2.6585236,2.6581726,2.6585236 c1.7740021,0,2.6448059-0.8862915,2.6448059-2.6585236c0-1.7739944-0.8708038-2.659935-2.6448059-2.659935 C152.4775238,74.665329,151.5915375,75.5512695,151.5915375,77.325264z"/></g></g></svg>