<?xml version="1.0" encoding="UTF-8" standalone="no"?>
<svg xmlns="http://www.w3.org/2000/svg" width="24" height="24"><path d="M7.664 1.063 C 7.436 1.146,7.257 1.297,7.131 1.511 C 7.024 1.693,7.020 1.724,7.007 2.344 L 6.993 2.988 6.347 3.016 C 5.259 3.064,4.754 3.161,4.228 3.426 C 3.566 3.759,3.051 4.215,2.662 4.811 C 2.281 5.396,2.121 5.901,2.042 6.760 C 1.985 7.383,1.985 18.604,2.042 19.252 C 2.164 20.645,2.736 21.634,3.831 22.350 C 4.400 22.722,4.919 22.884,5.780 22.958 C 6.432 23.014,17.568 23.014,18.220 22.958 C 19.088 22.883,19.596 22.724,20.189 22.339 C 20.867 21.899,21.480 21.136,21.723 20.430 C 21.986 19.665,21.975 19.955,21.991 13.380 C 22.001 9.262,21.992 7.246,21.961 6.856 C 21.888 5.920,21.736 5.422,21.338 4.811 C 20.799 3.984,19.927 3.363,19.020 3.160 C 18.793 3.109,18.353 3.061,17.830 3.031 L 17.000 2.984 17.000 2.419 C 17.000 1.741,16.948 1.546,16.700 1.298 C 16.281 0.879,15.570 0.924,15.212 1.393 C 15.031 1.630,15.000 1.781,15.000 2.430 L 15.000 3.000 12.000 3.000 L 9.000 3.000 9.000 2.427 C 9.000 1.741,8.948 1.546,8.701 1.299 C 8.429 1.027,8.018 0.933,7.664 1.063 M7.000 5.570 C 7.000 6.219,7.031 6.370,7.212 6.607 C 7.570 7.076,8.281 7.121,8.700 6.702 C 8.949 6.454,9.000 6.260,9.000 5.573 L 9.000 5.000 12.000 5.000 L 15.000 5.000 15.000 5.570 C 15.000 6.219,15.031 6.370,15.212 6.607 C 15.570 7.076,16.281 7.121,16.700 6.702 C 16.949 6.453,17.000 6.260,17.000 5.567 L 17.000 4.988 17.590 5.016 C 18.689 5.068,18.954 5.153,19.401 5.599 C 19.701 5.900,19.858 6.190,19.921 6.560 C 19.945 6.703,19.975 7.310,19.988 7.910 L 20.012 9.000 12.000 9.000 L 3.988 9.000 4.012 7.910 C 4.038 6.695,4.073 6.400,4.231 6.083 C 4.446 5.652,4.937 5.232,5.356 5.121 C 5.553 5.068,6.168 5.014,6.670 5.006 L 7.000 5.000 7.000 5.570 M19.988 15.110 C 19.976 18.002,19.957 19.291,19.924 19.460 C 19.829 19.947,19.475 20.443,19.031 20.711 C 18.560 20.994,18.925 20.980,12.000 20.980 C 6.242 20.980,5.758 20.975,5.483 20.911 C 4.785 20.748,4.211 20.156,4.076 19.460 C 4.043 19.290,4.024 18.013,4.012 15.110 L 3.995 11.000 12.000 11.000 L 20.005 11.000 19.988 15.110 M11.560 13.060 C 10.824 13.227,10.328 13.676,10.085 14.396 C 9.983 14.697,9.982 14.711,9.981 16.000 C 9.980 17.269,9.982 17.307,10.077 17.596 C 10.260 18.154,10.592 18.541,11.100 18.784 C 11.997 19.214,13.100 18.918,13.647 18.100 C 13.875 17.760,13.960 17.477,13.960 17.056 C 13.960 16.266,13.597 15.664,12.929 15.347 C 12.671 15.225,12.639 15.220,12.160 15.220 C 11.665 15.220,11.657 15.221,11.370 15.366 L 11.080 15.511 11.081 15.166 C 11.082 14.772,11.159 14.549,11.372 14.326 C 11.715 13.968,12.277 13.913,12.672 14.198 L 12.829 14.313 13.218 13.922 L 13.607 13.531 13.360 13.366 C 13.223 13.275,12.992 13.164,12.846 13.118 C 12.493 13.009,11.903 12.982,11.560 13.060 M5.240 13.619 L 5.240 14.119 6.389 14.129 L 7.537 14.140 6.769 14.775 C 6.346 15.124,6.000 15.419,6.000 15.430 C 6.000 15.454,6.397 16.160,6.449 16.227 C 6.476 16.263,6.518 16.260,6.621 16.217 C 7.176 15.985,7.813 16.425,7.817 17.042 C 7.821 17.604,7.314 18.034,6.759 17.940 C 6.526 17.900,6.240 17.693,6.142 17.492 C 6.097 17.399,6.035 17.323,6.005 17.322 C 5.975 17.321,5.737 17.377,5.477 17.446 L 5.005 17.571 5.078 17.764 C 5.228 18.159,5.607 18.560,6.018 18.759 C 6.440 18.963,7.002 19.018,7.459 18.899 C 8.119 18.727,8.696 18.167,8.858 17.542 C 9.081 16.680,8.702 15.789,7.946 15.397 L 7.681 15.260 8.241 14.699 L 8.800 14.139 8.800 13.629 L 8.800 13.120 7.020 13.120 L 5.240 13.120 5.240 13.619 M15.159 13.250 C 15.159 13.322,15.123 13.974,15.080 14.700 C 15.037 15.426,15.001 16.056,15.001 16.100 C 15.000 16.168,15.071 16.201,15.453 16.313 L 15.906 16.447 16.058 16.344 C 16.588 15.984,17.305 16.171,17.538 16.729 C 17.771 17.286,17.308 17.960,16.692 17.960 C 16.369 17.960,15.925 17.655,15.858 17.386 C 15.833 17.288,15.831 17.287,15.646 17.340 C 15.544 17.370,15.312 17.433,15.130 17.481 C 14.943 17.531,14.800 17.590,14.800 17.618 C 14.800 17.744,15.073 18.191,15.275 18.398 C 16.030 19.166,17.273 19.171,18.088 18.409 C 18.992 17.563,18.844 16.041,17.797 15.428 C 17.339 15.159,16.798 15.131,16.128 15.342 C 16.039 15.370,16.037 15.364,16.057 15.175 C 16.069 15.068,16.089 14.787,16.103 14.550 L 16.128 14.120 17.224 14.120 L 18.320 14.120 18.320 13.620 L 18.320 13.120 16.740 13.120 L 15.160 13.120 15.159 13.250 M12.352 16.236 C 12.659 16.395,12.880 16.725,12.880 17.024 C 12.880 17.804,11.988 18.234,11.405 17.735 C 10.897 17.300,11.009 16.520,11.620 16.236 C 11.832 16.138,12.160 16.138,12.352 16.236" stroke="none" fill-rule="evenodd"/></svg>