<?xml version="1.0" encoding="UTF-8" standalone="no"?>
<svg version="1.0" xmlns="http://www.w3.org/2000/svg" width="300.000000pt" height="387.000000pt" viewBox="0 0 300.000000 387.000000" preserveAspectRatio="xMidYMid meet"><g transform="translate(0.000000,387.000000) scale(0.100000,-0.100000)" fill="#000000" stroke="none"><path d="M1147 3762 c-10 -10 -17 -24 -17 -30 0 -20 -49 -56 -97 -72 -35 -11 -50 -24 -64 -50 -40 -74 -13 -191 47 -206 14 -4 57 -4 96 -1 58 5 75 3 101 -13 60 -37 102 -24 142 44 22 38 25 54 25 140 0 94 -1 99 -32 143 -38 53 -60 63 -132 63 -39 0 -57 -5 -69 -18z m121 -13 c35 -12 75 -68 66 -92 -3 -8 -1 -18 5 -22 6 -3 11 -39 11 -81 0 -62 -4 -81 -25 -114 -29 -46 -61 -52 -108 -21 -24 16 -42 18 -116 13 -84 -4 -89 -3 -105 19 -19 27 -21 106 -5 143 8 17 27 30 60 41 31 11 59 29 78 53 56 68 61 72 85 72 12 0 37 -5 54 -11z"/><path d="M2014 3760 c-17 -6 -72 -32 -122 -60 -50 -27 -95 -50 -101 -50 -6 0 -20 -9 -31 -20 -17 -17 -20 -33 -20 -102 0 -64 -6 -101 -26 -160 l-27 -77 27 -36 c47 -61 159 -101 259 -93 69 6 167 50 167 76 0 11 7 25 15 32 8 7 15 23 15 35 0 12 9 34 21 49 17 22 22 45 26 129 5 90 3 108 -16 153 -27 62 -86 122 -126 128 -17 3 -44 1 -61 -4z m105 -56 c57 -51 74 -102 70 -214 -2 -52 -9 -94 -15 -98 -6 -4 -17 -25 -24 -47 -24 -75 -47 -110 -86 -129 -99 -50 -280 -18 -330 59 -14 22 -13 30 11 97 20 54 25 85 22 118 -3 25 -2 63 1 84 6 34 12 41 45 52 21 7 51 22 66 34 44 31 153 80 178 80 13 0 41 -16 62 -36z"/><path d="M2421 3307 c-41 -21 -60 -58 -70 -137 -5 -41 -15 -93 -22 -116 -16 -52 -7 -85 32 -121 36 -32 59 -80 59 -121 0 -15 13 -48 29 -73 46 -74 129 -99 202 -62 23 12 57 18 104 18 58 0 74 4 94 21 13 12 21 28 19 35 -3 8 10 44 28 80 19 38 37 94 42 130 5 35 17 103 28 150 17 82 17 88 1 113 -24 36 -57 55 -124 71 -70 17 -126 19 -173 5 -23 -7 -50 -7 -80 -1 -85 18 -144 21 -169 8z m178 -38 c14 -6 45 -5 80 2 70 15 155 5 212 -24 63 -32 66 -43 46 -139 -10 -46 -23 -111 -28 -146 -9 -63 -29 -111 -77 -189 -25 -40 -28 -41 -91 -48 -37 -4 -81 -13 -100 -21 -41 -17 -82 -18 -115 -3 -35 16 -74 79 -82 131 -9 55 -25 86 -63 121 -35 32 -40 70 -17 115 7 15 16 60 18 101 5 66 9 77 33 99 25 21 33 23 94 16 36 -4 77 -11 90 -15z"/><path d="M230 2993 c-52 -6 -136 -25 -158 -36 -12 -6 -32 -26 -43 -44 -17 -28 -20 -46 -17 -101 6 -102 29 -140 108 -179 36 -17 72 -32 80 -32 17 -1 44 -135 75 -371 18 -136 26 -187 55 -354 41 -229 70 -467 79 -631 5 -93 12 -178 16 -187 6 -15 1 -18 -29 -18 -21 0 -39 -6 -42 -13 -8 -22 22 -122 37 -122 26 0 27 -18 4 -72 -21 -46 -56 -183 -73 -277 -12 -69 46 -117 142 -118 l44 -1 6 -65 c19 -180 164 -316 365 -342 52 -7 76 -5 125 10 87 27 169 74 208 120 82 96 98 132 98 217 l0 53 41 -6 c23 -4 81 -7 130 -8 l89 -1 0 -60 c0 -114 84 -233 213 -299 130 -67 245 -64 387 10 54 28 125 93 135 123 3 11 10 21 15 21 13 0 50 106 50 143 l0 32 81 -3 c111 -5 211 25 239 71 29 48 27 146 -5 225 -30 74 -30 77 -5 79 33 3 100 90 146 192 15 32 17 33 58 28 l44 -6 21 50 c27 67 36 160 22 234 -19 95 -27 105 -81 105 l-47 0 -22 51 c-11 29 -21 56 -21 62 0 5 -12 30 -27 54 l-28 44 -77 -6 -78 -7 0 62 c0 56 -2 62 -19 57 -20 -5 -19 1 17 98 8 22 20 63 27 90 18 70 40 141 64 205 11 30 20 63 21 73 0 10 16 27 35 38 25 15 38 32 47 61 13 45 6 66 -33 85 -31 16 -581 6 -619 -11 -18 -8 -26 -20 -28 -43 -4 -37 12 -73 32 -73 18 0 28 -27 90 -240 25 -85 66 -253 66 -270 0 -5 -10 -10 -22 -12 -20 -3 -24 -11 -28 -53 l-5 -50 -72 0 c-40 0 -158 2 -263 3 l-190 2 0 30 c0 17 6 46 14 65 8 18 22 71 31 117 10 46 25 103 35 128 9 25 25 90 35 145 9 55 23 120 30 145 7 25 16 68 20 95 9 69 45 186 63 207 8 10 12 25 8 34 -5 14 5 16 102 13 123 -4 123 -4 194 85 55 67 72 119 63 187 -14 101 -65 114 -517 129 -723 24 -1498 40 -1558 33z m955 -44 c1012 -30 1040 -32 1075 -77 37 -46 22 -139 -32 -201 -18 -21 -41 -48 -50 -60 -17 -20 -25 -21 -210 -21 -106 1 -301 10 -433 20 -183 15 -374 21 -804 25 l-564 5 -50 28 c-59 32 -75 65 -76 157 -1 83 15 101 109 125 68 17 104 18 385 14 171 -3 463 -9 650 -15z m315 -365 c96 -8 213 -15 260 -15 115 1 153 -7 145 -28 -12 -29 -46 -165 -59 -236 -34 -178 -76 -365 -89 -396 -7 -19 -20 -65 -27 -104 -7 -38 -21 -92 -31 -118 -11 -26 -19 -59 -19 -72 0 -23 -3 -25 -51 -25 -36 0 -49 -4 -47 -12 3 -7 -10 -35 -27 -63 -56 -87 -80 -197 -80 -365 l0 -146 -55 3 c-30 1 -217 5 -415 8 -456 7 -542 12 -550 34 -4 9 -11 95 -16 191 -9 161 -49 467 -98 745 -11 61 -27 166 -36 235 -9 69 -25 172 -36 230 -21 116 -24 154 -10 145 5 -3 13 0 17 6 10 17 989 4 1224 -17z m1251 -291 c19 -19 2 -62 -29 -74 -32 -12 -547 -8 -574 5 -28 13 -24 64 5 70 46 10 68 11 324 11 187 0 265 -3 274 -12z m-74 -117 c5 -4 -30 -122 -39 -133 -9 -11 -18 -44 -49 -168 -5 -22 -18 -63 -29 -90 -11 -28 -21 -65 -23 -84 l-2 -33 -105 7 c-58 4 -106 8 -107 9 -1 1 -9 35 -17 76 -16 76 -60 234 -96 347 -11 34 -20 66 -20 71 0 7 479 5 487 -2z m-154 -532 c35 -6 37 -8 37 -45 l0 -39 -143 0 c-79 0 -146 2 -148 4 -3 3 -3 23 -1 45 l4 41 107 0 c58 0 123 -3 144 -6z m-858 -94 c4 -6 12 -7 22 -1 9 4 64 7 122 4 58 -2 265 -8 460 -12 401 -9 364 1 402 -100 51 -139 69 -276 51 -395 -12 -76 -83 -215 -114 -224 -10 -2 -18 -11 -18 -18 0 -11 -34 -14 -182 -14 -168 0 -483 14 -534 24 -12 3 -79 6 -149 7 -104 3 -128 6 -133 19 -3 8 -16 30 -29 48 -84 113 -90 351 -13 554 32 85 94 143 115 108z m1082 -37 c22 -33 51 -111 68 -183 7 -30 18 -71 24 -90 15 -46 4 -161 -22 -235 -23 -65 -78 -164 -105 -188 -18 -16 -72 -33 -72 -23 0 4 20 41 45 84 53 92 63 121 71 222 10 115 -24 285 -77 392 -11 21 -19 40 -19 43 0 3 16 5 35 5 26 0 39 -6 52 -27z m193 -249 c15 -78 8 -177 -16 -226 -15 -31 -20 -35 -43 -28 -15 4 -24 13 -22 21 10 34 15 181 8 211 -23 91 -23 88 21 88 l40 0 12 -66z m-1970 -273 c261 -7 484 -14 496 -16 19 -4 50 -52 41 -62 -9 -8 -1064 16 -1090 26 -15 6 -27 17 -27 25 0 8 -3 22 -6 31 -6 15 0 16 52 12 32 -3 273 -10 534 -16z m293 -107 l278 -6 25 -49 c25 -50 32 -56 49 -40 6 4 75 5 155 1 80 -5 249 -14 375 -20 127 -7 283 -10 347 -8 64 3 120 2 125 -1 17 -12 63 -147 68 -201 12 -110 -40 -144 -220 -145 l-99 0 -9 30 c-24 80 -54 133 -97 175 -79 75 -159 107 -290 117 -73 5 -97 2 -152 -16 -36 -12 -80 -32 -97 -46 -44 -32 -120 -137 -138 -193 l-16 -45 -111 6 c-135 8 -153 13 -160 41 -27 110 -105 195 -214 236 -154 58 -301 49 -413 -24 -42 -28 -121 -135 -138 -188 -14 -42 -40 -53 -101 -39 -60 13 -83 37 -77 81 10 74 47 227 65 270 11 25 22 53 26 63 6 18 19 19 274 13 147 -3 392 -9 545 -12z m-288 -164 c94 -16 165 -50 198 -94 15 -19 27 -39 27 -45 0 -6 7 -11 15 -11 22 0 55 -83 62 -156 10 -104 0 -129 -93 -242 -31 -38 -113 -83 -198 -107 -73 -21 -152 -10 -245 36 -148 73 -228 230 -192 375 14 53 88 164 131 194 52 37 180 73 225 64 11 -3 43 -9 70 -14z m1062 -19 c102 -18 188 -70 213 -128 5 -13 16 -23 24 -23 43 0 80 -223 46 -281 -8 -14 -24 -40 -35 -59 -39 -65 -108 -117 -205 -152 -71 -25 -91 -28 -159 -18 -123 17 -243 103 -295 210 -21 42 -26 69 -26 125 0 88 12 124 63 195 54 74 81 96 152 119 98 33 98 32 222 12z"/><path d="M537 2384 c-2 -3 -1 -24 4 -47 44 -222 82 -428 83 -454 1 -24 -3 -33 -18 -37 -63 -16 38 -25 374 -31 405 -7 409 -7 428 -19 17 -10 32 1 32 24 0 11 4 39 10 62 5 24 16 75 24 113 8 39 29 132 47 208 29 127 31 140 16 154 -13 13 -54 18 -214 24 -203 9 -778 10 -786 3z m735 -30 c125 -4 232 -10 238 -14 8 -5 5 -31 -10 -94 -17 -69 -90 -413 -90 -422 0 -2 -14 1 -32 6 -17 5 -108 10 -202 10 -94 0 -248 3 -342 7 l-172 6 -17 91 c-9 50 -30 158 -46 241 -16 82 -27 155 -25 161 6 15 344 19 698 8z"/><path d="M835 504 c-74 -38 -99 -147 -50 -214 68 -92 175 -95 253 -6 35 40 41 83 21 141 -25 68 -156 114 -224 79z m119 -29 c8 -8 21 -15 29 -15 30 0 68 -71 60 -113 -3 -15 -23 -43 -44 -62 -75 -68 -175 -38 -209 62 -13 39 7 91 48 123 30 24 94 27 116 5z"/><path d="M1885 481 c-46 -30 -79 -94 -72 -140 10 -79 77 -141 152 -141 48 0 74 13 123 59 48 48 53 80 23 147 -24 52 -74 84 -143 90 -42 4 -59 1 -83 -15z m125 -26 c7 -8 21 -15 31 -15 24 0 49 -40 56 -87 5 -36 1 -42 -41 -81 -39 -36 -52 -42 -89 -42 -97 0 -159 107 -108 184 11 16 30 35 43 42 32 18 93 17 108 -1z"/></g></svg>