<?xml version="1.0" encoding="UTF-8" standalone="no"?>
<svg xmlns="http://www.w3.org/2000/svg" width="24" height="24"><path d="M5.740 1.045 C 4.645 1.149,3.797 1.742,3.321 2.737 C 3.015 3.376,3.020 3.314,3.020 6.780 L 3.020 9.860 3.109 10.026 C 3.410 10.590,4.159 10.742,4.634 10.336 C 4.935 10.078,4.977 9.951,4.993 9.237 L 5.007 8.613 5.324 8.769 C 5.848 9.027,6.320 9.131,6.980 9.133 C 7.427 9.135,7.611 9.118,7.891 9.048 C 8.587 8.875,9.241 8.514,9.736 8.028 L 10.000 7.769 10.264 8.028 C 10.759 8.514,11.414 8.876,12.109 9.048 C 12.603 9.171,13.397 9.171,13.891 9.048 C 14.586 8.876,15.241 8.514,15.736 8.028 L 16.000 7.769 16.264 8.028 C 16.759 8.514,17.413 8.875,18.109 9.048 C 18.389 9.118,18.573 9.135,19.020 9.133 C 19.682 9.131,20.152 9.027,20.681 8.767 L 21.002 8.609 20.991 13.394 L 20.980 18.180 20.888 18.380 C 20.776 18.622,20.624 18.791,20.450 18.865 C 20.267 18.944,19.511 18.999,18.600 19.000 C 18.171 19.000,17.753 19.019,17.671 19.042 C 17.436 19.107,17.193 19.316,17.070 19.557 C 16.792 20.106,17.064 20.749,17.658 20.946 C 17.833 21.004,17.992 21.009,18.919 20.987 C 20.744 20.944,21.187 20.846,21.829 20.343 C 22.299 19.975,22.682 19.405,22.838 18.840 C 22.996 18.270,23.005 17.819,22.990 10.580 C 22.977 4.036,22.972 3.603,22.905 3.340 C 22.744 2.713,22.318 2.038,21.855 1.676 C 21.340 1.272,20.905 1.107,20.180 1.041 C 19.639 0.991,6.268 0.995,5.740 1.045 M20.400 3.105 C 20.613 3.205,20.758 3.353,20.886 3.600 C 20.972 3.765,20.981 3.839,20.994 4.491 C 21.010 5.303,20.959 5.628,20.750 6.048 C 20.601 6.349,20.191 6.773,19.897 6.929 C 19.332 7.230,18.668 7.230,18.103 6.929 C 17.841 6.789,17.409 6.357,17.269 6.093 C 17.135 5.841,17.000 5.335,17.000 5.081 C 17.000 4.597,16.719 4.182,16.310 4.061 C 16.052 3.984,15.947 3.984,15.684 4.063 C 15.272 4.185,15.000 4.590,15.000 5.081 C 15.000 5.335,14.865 5.841,14.731 6.093 C 14.591 6.357,14.159 6.789,13.897 6.929 C 13.332 7.230,12.668 7.230,12.103 6.929 C 11.841 6.789,11.409 6.357,11.269 6.093 C 11.135 5.841,11.000 5.335,11.000 5.081 C 11.000 4.597,10.719 4.182,10.310 4.061 C 10.052 3.984,9.947 3.984,9.684 4.063 C 9.272 4.185,9.000 4.590,9.000 5.081 C 9.000 5.335,8.865 5.841,8.731 6.093 C 8.591 6.357,8.159 6.789,7.897 6.929 C 7.332 7.230,6.668 7.230,6.103 6.929 C 5.809 6.773,5.399 6.349,5.250 6.048 C 5.041 5.628,4.990 5.303,5.006 4.491 C 5.019 3.839,5.028 3.765,5.114 3.600 C 5.286 3.269,5.490 3.106,5.813 3.041 C 5.905 3.023,9.184 3.011,13.100 3.014 L 20.220 3.020 20.400 3.105 M5.158 11.042 C 4.460 11.147,3.818 11.608,3.507 12.227 C 3.430 12.379,3.231 12.898,3.063 13.381 C 2.896 13.865,2.751 14.282,2.741 14.309 C 2.729 14.343,2.657 14.327,2.492 14.252 C 2.207 14.124,1.817 14.109,1.599 14.219 C 0.948 14.547,0.812 15.336,1.319 15.843 C 1.490 16.014,1.501 16.037,1.448 16.105 C 1.345 16.239,1.171 16.654,1.099 16.940 C 1.038 17.182,1.026 17.470,1.011 19.081 C 0.992 21.148,1.001 21.246,1.250 21.757 C 1.417 22.099,1.887 22.575,2.214 22.733 C 2.643 22.941,2.781 22.968,3.500 22.988 C 4.275 23.010,4.536 22.969,4.989 22.752 C 5.375 22.567,5.861 22.078,6.022 21.711 L 6.140 21.442 8.500 21.442 L 10.860 21.442 10.978 21.711 C 11.137 22.073,11.625 22.568,12.003 22.751 C 12.448 22.966,12.726 23.011,13.500 22.990 C 14.101 22.973,14.211 22.960,14.450 22.871 C 15.032 22.654,15.511 22.246,15.753 21.762 C 15.996 21.276,16.008 21.133,15.989 19.074 C 15.974 17.466,15.962 17.183,15.901 16.940 C 15.821 16.628,15.683 16.292,15.565 16.127 L 15.487 16.018 15.648 15.883 C 16.127 15.481,16.107 14.706,15.608 14.331 C 15.286 14.089,14.917 14.064,14.495 14.257 C 14.339 14.329,14.271 14.343,14.259 14.309 C 14.249 14.282,14.104 13.864,13.937 13.380 C 13.769 12.896,13.562 12.364,13.476 12.199 C 13.217 11.699,12.743 11.306,12.160 11.109 C 11.901 11.022,11.884 11.021,8.640 11.015 C 6.847 11.011,5.280 11.023,5.158 11.042 M11.602 13.041 C 11.645 13.064,11.704 13.131,11.735 13.191 C 11.794 13.304,12.280 14.679,12.280 14.731 C 12.280 14.747,10.579 14.760,8.500 14.760 C 6.421 14.760,4.720 14.747,4.720 14.730 C 4.720 14.690,5.099 13.599,5.206 13.329 C 5.253 13.212,5.328 13.091,5.374 13.059 C 5.446 13.008,5.891 13.000,8.492 13.000 C 10.496 13.000,11.551 13.014,11.602 13.041 M13.446 16.827 C 13.614 16.903,13.847 17.127,13.915 17.279 C 13.968 17.399,13.980 17.680,13.992 19.125 L 14.007 20.829 13.898 20.915 C 13.802 20.990,13.738 21.000,13.355 21.000 C 12.973 21.000,12.910 20.990,12.840 20.920 C 12.796 20.876,12.760 20.792,12.760 20.733 C 12.760 20.361,12.492 19.882,12.168 19.676 C 11.782 19.431,11.880 19.437,8.396 19.449 L 5.220 19.460 5.040 19.555 C 4.769 19.697,4.615 19.824,4.485 20.012 C 4.360 20.195,4.240 20.544,4.240 20.727 C 4.240 20.789,4.204 20.876,4.160 20.920 C 4.090 20.990,4.027 21.000,3.645 21.000 C 3.266 21.000,3.197 20.989,3.105 20.917 L 3.000 20.834 3.001 19.327 C 3.003 17.713,3.029 17.327,3.149 17.166 C 3.292 16.975,3.504 16.836,3.704 16.802 C 4.028 16.746,13.320 16.771,13.446 16.827 M3.960 17.276 C 3.548 17.364,3.224 17.726,3.173 18.157 C 3.126 18.551,3.367 18.972,3.737 19.145 C 3.936 19.237,3.963 19.239,5.140 19.239 C 6.315 19.239,6.344 19.237,6.542 19.145 C 6.980 18.941,7.210 18.444,7.080 17.981 C 7.019 17.761,6.772 17.469,6.545 17.348 C 6.387 17.264,6.332 17.260,5.240 17.253 C 4.613 17.249,4.037 17.259,3.960 17.276 M10.680 17.276 C 10.463 17.322,10.303 17.421,10.130 17.618 C 9.689 18.120,9.861 18.876,10.480 19.157 C 10.648 19.233,10.739 19.238,11.860 19.239 C 13.038 19.239,13.064 19.237,13.263 19.145 C 13.893 18.851,14.024 18.014,13.514 17.534 C 13.223 17.262,13.219 17.261,11.960 17.253 C 11.333 17.249,10.757 17.259,10.680 17.276" stroke="none" fill-rule="evenodd"/></svg>