<?xml version="1.0" encoding="UTF-8" standalone="no"?>
<svg xmlns="http://www.w3.org/2000/svg" width="24" height="24"><path d="M11.069 1.039 C 8.822 1.258,6.868 2.041,5.101 3.432 C 4.640 3.795,3.606 4.863,3.231 5.363 C 2.075 6.906,1.379 8.590,1.093 10.540 C 0.995 11.212,0.995 12.788,1.093 13.460 C 1.379 15.409,2.074 17.091,3.230 18.637 C 3.685 19.244,4.756 20.315,5.363 20.770 C 6.909 21.926,8.591 22.621,10.540 22.907 C 11.212 23.005,12.788 23.005,13.460 22.907 C 15.409 22.621,17.091 21.926,18.637 20.770 C 19.244 20.315,20.315 19.244,20.770 18.637 C 21.926 17.091,22.621 15.409,22.907 13.460 C 22.959 13.104,22.977 12.727,22.977 12.000 C 22.977 11.273,22.959 10.896,22.907 10.540 C 22.621 8.590,21.925 6.906,20.769 5.363 C 20.394 4.863,19.360 3.795,18.899 3.432 C 17.302 2.175,15.548 1.412,13.580 1.120 C 12.946 1.026,11.638 0.984,11.069 1.039 M13.320 3.101 C 14.269 3.244,15.066 3.494,15.944 3.923 C 18.627 5.233,20.448 7.726,20.906 10.720 C 21.003 11.354,21.003 12.646,20.906 13.280 C 20.506 15.891,19.079 18.117,16.880 19.560 C 16.071 20.090,14.874 20.589,13.908 20.797 C 9.860 21.669,5.722 19.656,3.920 15.940 C 3.280 14.621,3.023 13.493,3.023 12.000 C 3.023 10.507,3.280 9.379,3.920 8.060 C 4.794 6.256,6.247 4.803,8.060 3.918 C 9.091 3.415,10.026 3.160,11.340 3.024 C 11.662 2.991,12.911 3.039,13.320 3.101 M8.643 8.069 C 8.291 8.193,8.000 8.614,8.000 9.000 C 8.000 9.080,8.030 9.234,8.066 9.343 C 8.123 9.517,8.276 9.685,9.354 10.770 L 10.577 12.000 9.352 13.230 C 8.196 14.391,8.124 14.472,8.064 14.677 C 7.984 14.948,7.984 15.012,8.064 15.283 C 8.153 15.581,8.419 15.847,8.717 15.936 C 8.988 16.016,9.052 16.016,9.323 15.936 C 9.528 15.876,9.609 15.804,10.770 14.648 L 12.000 13.423 13.230 14.648 C 14.391 15.804,14.472 15.876,14.677 15.936 C 14.948 16.016,15.012 16.016,15.283 15.936 C 15.581 15.847,15.847 15.581,15.936 15.283 C 16.016 15.012,16.016 14.948,15.936 14.677 C 15.876 14.472,15.804 14.391,14.647 13.230 L 13.422 11.999 14.629 10.790 C 15.951 9.464,15.998 9.402,15.998 8.980 C 15.998 8.669,15.903 8.462,15.661 8.249 C 15.449 8.062,15.278 8.000,14.980 8.001 C 14.603 8.002,14.509 8.075,13.210 9.371 L 12.001 10.578 10.770 9.354 C 9.685 8.276,9.517 8.123,9.343 8.066 C 9.102 7.985,8.877 7.986,8.643 8.069" stroke="none" fill-rule="evenodd"/></svg>