<?xml version="1.0" encoding="UTF-8" standalone="no"?>
<svg xmlns="http://www.w3.org/2000/svg" width="16" height="16" fill="none"><path stroke="#4562A2" stroke-linecap="round" stroke-width="1.667" d="M2.665 14h2.668v-2.5h2.883V9.333H11V6.5h2.5M4.667 5a.667.667 0 1 0 0-1.333.667.667 0 0 0 0 1.333Zm0 4V7.33c0-.182.154-.33.333-.33a.33.33 0 0 1 .333.337V9c0 .215-.099.4-.334.4-.234 0-.332-.261-.332-.4ZM8 3.667a.667.667 0 1 0 0-1.334.667.667 0 0 0 0 1.334ZM8.333 7.5c.334 0 .334-.5.334-.5v-.997a.33.33 0 0 0-.334-.336.335.335 0 0 0-.333.33V7s0 .5.333.5Z"/></svg>