<?xml version="1.0" encoding="UTF-8" standalone="no"?>
<svg xmlns="http://www.w3.org/2000/svg" width="24" height="24"><path d="M11.340 1.024 C 11.252 1.033,11.027 1.059,10.840 1.083 C 8.900 1.322,7.027 2.249,5.616 3.667 C 3.375 5.922,2.485 9.220,3.305 12.240 C 3.716 13.759,4.577 15.338,5.897 17.000 C 6.797 18.133,7.542 18.941,9.596 21.009 C 10.881 22.304,11.423 22.824,11.556 22.889 C 11.809 23.014,12.190 23.014,12.443 22.890 C 12.756 22.735,16.377 19.051,17.484 17.760 C 18.290 16.820,19.179 15.578,19.661 14.720 C 21.076 12.200,21.366 9.692,20.535 7.160 C 19.791 4.892,18.118 2.984,15.944 1.923 C 15.066 1.494,14.269 1.244,13.320 1.101 C 12.911 1.039,11.662 0.991,11.340 1.024 M12.686 3.042 C 14.238 3.199,15.639 3.834,16.793 4.902 C 17.783 5.818,18.564 7.202,18.839 8.530 C 19.391 11.183,18.485 13.564,15.712 16.749 C 15.133 17.414,14.249 18.339,13.082 19.500 L 11.997 20.580 10.527 19.100 C 8.989 17.551,8.348 16.855,7.586 15.909 C 5.388 13.180,4.650 10.935,5.159 8.529 C 5.891 5.073,9.165 2.685,12.686 3.042 M11.433 6.040 C 10.843 6.134,10.221 6.380,9.731 6.712 C 8.955 7.240,8.394 8.037,8.130 8.989 C 8.034 9.337,8.022 9.449,8.022 10.000 C 8.022 10.553,8.034 10.663,8.132 11.017 C 8.475 12.256,9.357 13.252,10.520 13.715 C 12.334 14.437,14.462 13.710,15.444 12.033 C 16.503 10.224,15.985 7.878,14.269 6.712 C 13.917 6.473,13.343 6.214,12.958 6.120 C 12.572 6.026,11.783 5.984,11.433 6.040 M12.383 8.043 C 13.185 8.190,13.839 8.872,13.967 9.695 C 14.153 10.894,13.209 12.000,12.000 12.000 C 11.032 12.000,10.183 11.268,10.033 10.305 C 9.933 9.663,10.132 9.061,10.596 8.596 C 11.085 8.108,11.698 7.918,12.383 8.043" stroke="none" fill-rule="evenodd"/></svg>