<?xml version="1.0" encoding="UTF-8" standalone="no"?>
<svg xmlns="http://www.w3.org/2000/svg" width="24" height="24"><path d="M7.775 2.042 C 6.659 2.151,5.839 2.681,5.364 3.600 C 5.180 3.956,5.093 4.288,5.041 4.825 C 5.018 5.061,5.002 8.192,5.001 12.610 L 5.000 20.000 4.447 20.000 C 3.751 20.000,3.554 20.052,3.303 20.303 C 3.120 20.486,3.000 20.763,3.000 21.000 C 3.000 21.402,3.312 21.827,3.690 21.939 C 3.870 21.993,4.860 22.000,12.000 22.000 C 19.140 22.000,20.130 21.993,20.310 21.939 C 20.688 21.827,21.000 21.402,21.000 21.000 C 21.000 20.763,20.880 20.486,20.697 20.303 C 20.446 20.052,20.249 20.000,19.553 20.000 L 19.000 20.000 18.999 12.610 C 18.998 8.192,18.982 5.061,18.959 4.825 C 18.907 4.288,18.820 3.956,18.636 3.600 C 18.351 3.048,17.952 2.649,17.400 2.364 C 17.044 2.180,16.712 2.093,16.175 2.041 C 15.704 1.995,8.250 1.996,7.775 2.042 M16.449 4.113 C 16.656 4.215,16.817 4.383,16.916 4.600 C 16.974 4.726,16.981 5.478,16.991 12.370 L 17.001 20.000 12.001 20.000 L 7.000 20.000 7.000 12.530 C 7.000 7.905,7.015 4.970,7.039 4.824 C 7.108 4.405,7.391 4.109,7.786 4.041 C 7.893 4.023,9.843 4.011,12.120 4.014 L 16.260 4.020 16.449 4.113 M9.240 6.037 C 8.950 6.126,8.686 6.361,8.575 6.626 C 8.545 6.698,8.520 6.867,8.520 7.000 C 8.520 7.133,8.545 7.302,8.575 7.374 C 8.653 7.562,8.866 7.790,9.056 7.892 L 9.220 7.980 12.000 7.980 L 14.780 7.980 14.946 7.891 C 15.153 7.781,15.388 7.510,15.440 7.323 C 15.497 7.119,15.489 6.780,15.425 6.626 C 15.347 6.438,15.134 6.210,14.944 6.108 C 14.780 6.020,14.776 6.020,12.060 6.013 C 10.564 6.009,9.295 6.020,9.240 6.037 M9.240 10.037 C 8.950 10.126,8.686 10.361,8.575 10.626 C 8.545 10.698,8.520 10.867,8.520 11.000 C 8.520 11.133,8.545 11.302,8.575 11.374 C 8.653 11.562,8.866 11.790,9.056 11.892 L 9.220 11.980 12.000 11.980 L 14.780 11.980 14.946 11.891 C 15.153 11.781,15.388 11.510,15.440 11.323 C 15.497 11.119,15.489 10.780,15.425 10.626 C 15.347 10.438,15.134 10.210,14.944 10.108 C 14.780 10.020,14.776 10.020,12.060 10.013 C 10.564 10.009,9.295 10.020,9.240 10.037 M9.240 14.037 C 8.950 14.126,8.686 14.361,8.575 14.626 C 8.545 14.698,8.520 14.867,8.520 15.000 C 8.520 15.133,8.545 15.302,8.575 15.374 C 8.653 15.562,8.866 15.790,9.056 15.892 L 9.220 15.980 12.000 15.980 L 14.780 15.980 14.946 15.891 C 15.153 15.781,15.388 15.510,15.440 15.323 C 15.497 15.119,15.489 14.780,15.425 14.626 C 15.347 14.438,15.134 14.210,14.944 14.108 C 14.780 14.020,14.776 14.020,12.060 14.013 C 10.564 14.009,9.295 14.020,9.240 14.037" stroke="none" fill-rule="evenodd"/></svg>