<?xml version="1.0" encoding="UTF-8" standalone="no"?>
<svg xmlns="http://www.w3.org/2000/svg" width="24" height="24"><path d="M11.667 3.065 C 11.303 3.177,11.000 3.602,11.000 4.000 C 11.000 4.237,11.120 4.514,11.303 4.697 C 11.596 4.990,11.663 5.000,13.325 5.000 C 14.652 5.000,14.756 5.005,14.776 5.070 C 14.787 5.108,15.491 7.525,16.340 10.440 C 17.188 13.355,17.890 15.761,17.898 15.786 C 17.907 15.811,17.836 15.923,17.740 16.035 C 17.536 16.274,17.312 16.638,17.237 16.850 L 17.184 17.000 12.000 17.000 L 6.816 17.000 6.764 16.850 C 6.673 16.591,6.354 16.113,6.111 15.874 C 4.561 14.349,1.936 14.926,1.201 16.953 C 0.899 17.785,0.945 18.541,1.347 19.360 C 1.505 19.683,1.588 19.794,1.897 20.100 C 2.514 20.712,3.150 20.976,4.000 20.976 C 4.852 20.976,5.492 20.710,6.103 20.102 C 6.411 19.796,6.493 19.684,6.643 19.373 L 6.820 19.005 12.002 19.003 L 17.184 19.000 17.236 19.150 C 17.307 19.352,17.604 19.822,17.790 20.024 C 18.518 20.821,19.684 21.167,20.743 20.899 C 20.873 20.866,21.151 20.756,21.360 20.653 C 21.682 20.495,21.796 20.411,22.102 20.103 C 22.709 19.493,22.974 18.856,22.976 18.000 C 22.977 17.441,22.911 17.166,22.653 16.640 C 22.496 16.320,22.410 16.203,22.103 15.897 C 21.797 15.590,21.680 15.504,21.360 15.347 C 20.911 15.126,20.622 15.048,20.115 15.009 L 19.741 14.980 18.190 9.660 C 17.255 6.454,16.590 4.239,16.515 4.087 C 16.277 3.597,15.758 3.194,15.196 3.062 C 14.826 2.974,11.953 2.977,11.667 3.065 M4.512 17.147 C 5.142 17.534,5.154 18.446,4.535 18.839 C 4.060 19.141,3.442 18.992,3.141 18.503 C 3.034 18.329,3.020 18.271,3.020 18.003 C 3.020 17.744,3.036 17.673,3.131 17.511 C 3.339 17.158,3.660 16.988,4.072 17.015 C 4.261 17.027,4.371 17.060,4.512 17.147 M20.512 17.147 C 21.142 17.534,21.154 18.446,20.535 18.839 C 20.060 19.141,19.442 18.992,19.141 18.503 C 19.034 18.329,19.020 18.271,19.020 18.003 C 19.020 17.744,19.036 17.673,19.131 17.511 C 19.339 17.158,19.660 16.988,20.072 17.015 C 20.261 17.027,20.371 17.060,20.512 17.147" stroke="none" fill-rule="evenodd"/></svg>