<?xml version="1.0" encoding="UTF-8" standalone="no"?>
<svg xmlns="http://www.w3.org/2000/svg" width="24" height="24"><path d="M11.069 1.039 C 8.822 1.258,6.868 2.041,5.101 3.432 C 4.640 3.795,3.606 4.863,3.231 5.363 C 2.075 6.906,1.380 8.588,1.093 10.540 C 0.994 11.213,0.995 12.831,1.094 13.480 C 1.395 15.439,2.068 17.072,3.203 18.600 C 3.682 19.245,4.731 20.299,5.360 20.767 C 8.553 23.146,12.607 23.659,16.252 22.145 C 17.070 21.805,17.857 21.351,18.640 20.767 C 19.174 20.369,20.260 19.305,20.647 18.800 C 21.860 17.221,22.577 15.555,22.885 13.600 C 23.006 12.834,23.017 11.290,22.907 10.540 C 22.620 8.588,21.925 6.906,20.769 5.363 C 20.394 4.863,19.360 3.795,18.899 3.432 C 17.302 2.175,15.548 1.412,13.580 1.120 C 12.946 1.026,11.638 0.984,11.069 1.039 M13.318 3.102 C 16.458 3.583,19.078 5.621,20.297 8.531 C 20.541 9.114,20.667 9.522,20.803 10.180 C 21.224 12.205,20.928 14.342,19.974 16.160 C 19.731 16.623,19.250 17.364,19.020 17.631 L 18.872 17.802 18.485 17.430 C 17.671 16.650,16.685 16.174,15.601 16.042 C 15.144 15.986,8.856 15.986,8.399 16.042 C 7.647 16.134,6.838 16.436,6.190 16.867 C 6.034 16.971,5.731 17.224,5.517 17.429 L 5.128 17.802 4.980 17.631 C 4.751 17.366,4.270 16.624,4.025 16.160 C 3.088 14.380,2.783 12.251,3.179 10.249 C 3.822 6.995,6.222 4.347,9.400 3.386 C 9.845 3.251,10.644 3.092,11.120 3.044 C 11.630 2.992,12.802 3.023,13.318 3.102 M11.117 4.582 C 10.151 4.757,9.213 5.241,8.511 5.927 C 6.496 7.896,6.503 11.105,8.525 13.087 C 9.830 14.367,11.795 14.823,13.540 14.252 C 14.028 14.092,14.342 13.940,14.771 13.654 C 15.696 13.039,16.382 12.139,16.738 11.075 C 17.705 8.184,15.863 5.105,12.852 4.580 C 12.429 4.506,11.531 4.507,11.117 4.582 M12.838 6.620 C 13.842 6.933,14.603 7.707,14.886 8.702 C 15.013 9.149,15.014 9.849,14.888 10.292 C 14.414 11.956,12.712 12.868,11.060 12.344 C 10.321 12.109,9.672 11.542,9.305 10.812 C 8.921 10.046,8.921 8.954,9.305 8.188 C 9.448 7.904,9.717 7.534,9.926 7.335 C 10.289 6.989,10.849 6.687,11.331 6.578 C 11.666 6.502,12.538 6.526,12.838 6.620 M15.764 18.092 C 16.305 18.255,16.785 18.542,17.157 18.924 C 17.340 19.111,17.389 19.185,17.357 19.224 C 17.255 19.347,16.394 19.868,15.900 20.105 C 13.409 21.303,10.524 21.295,8.055 20.083 C 7.555 19.838,6.686 19.306,6.626 19.209 C 6.588 19.149,7.057 18.693,7.353 18.502 C 7.674 18.295,8.021 18.145,8.320 18.085 C 8.441 18.061,8.576 18.033,8.620 18.024 C 8.664 18.015,10.239 18.011,12.120 18.016 C 15.209 18.023,15.562 18.030,15.764 18.092" stroke="none" fill-rule="evenodd"/></svg>