<?xml version="1.0" encoding="UTF-8" standalone="no"?>
<svg xmlns="http://www.w3.org/2000/svg" width="24" height="24"><path d="M6.040 2.027 C 5.614 2.050,5.072 2.127,4.795 2.204 C 3.977 2.431,3.161 3.046,2.662 3.811 C 2.281 4.396,2.121 4.901,2.042 5.760 C 1.985 6.383,1.985 17.604,2.042 18.252 C 2.164 19.645,2.736 20.634,3.831 21.350 C 4.400 21.722,4.919 21.884,5.780 21.958 C 6.432 22.014,17.568 22.014,18.220 21.958 C 19.088 21.883,19.596 21.724,20.189 21.339 C 20.867 20.899,21.480 20.136,21.723 19.430 C 21.954 18.760,21.971 18.549,21.990 16.111 C 22.009 13.575,22.013 13.611,21.702 13.300 C 21.234 12.832,20.470 12.935,20.131 13.511 L 20.020 13.700 19.995 15.940 C 19.979 17.349,19.953 18.277,19.923 18.440 C 19.834 18.941,19.486 19.437,19.031 19.711 C 18.560 19.994,18.925 19.980,12.000 19.980 C 5.075 19.980,5.440 19.994,4.969 19.711 C 4.693 19.545,4.371 19.199,4.231 18.918 C 4.017 18.489,4.020 18.583,4.020 12.000 C 4.020 5.420,4.017 5.514,4.231 5.080 C 4.370 4.797,4.797 4.370,5.080 4.231 C 5.201 4.171,5.408 4.102,5.540 4.078 C 5.689 4.050,6.606 4.026,7.960 4.014 C 10.424 3.993,10.407 3.995,10.700 3.702 C 11.092 3.310,11.093 2.691,10.701 2.299 C 10.400 1.998,10.406 1.999,8.203 2.007 C 7.134 2.011,6.161 2.020,6.040 2.027 M14.664 2.063 C 14.436 2.146,14.257 2.297,14.131 2.511 C 14.036 2.672,14.020 2.744,14.020 3.000 C 14.020 3.256,14.036 3.328,14.131 3.489 C 14.192 3.592,14.301 3.723,14.374 3.778 C 14.661 3.997,14.695 4.000,16.715 4.000 L 18.579 4.000 14.853 7.730 C 11.225 11.362,11.125 11.466,11.063 11.677 C 10.984 11.949,10.984 12.013,11.064 12.283 C 11.153 12.581,11.419 12.847,11.717 12.936 C 11.987 13.016,12.051 13.016,12.323 12.937 C 12.534 12.875,12.638 12.775,16.270 9.147 L 20.000 5.421 20.000 7.280 C 20.000 8.438,20.016 9.196,20.042 9.289 C 20.103 9.509,20.315 9.762,20.531 9.874 C 20.932 10.080,21.390 10.012,21.700 9.702 C 22.013 9.389,22.000 9.546,22.000 6.000 C 22.000 2.456,22.013 2.610,21.701 2.299 C 21.389 1.987,21.547 2.000,17.983 2.003 C 15.342 2.005,14.794 2.015,14.664 2.063" stroke="none" fill-rule="evenodd"/></svg>