<?xml version="1.0" encoding="UTF-8" standalone="no"?>
<svg xmlns="http://www.w3.org/2000/svg" width="24" height="24"><path d="M11.260 1.023 C 9.315 1.212,7.691 1.737,6.211 2.655 C 2.568 4.915,0.536 9.177,1.098 13.380 C 1.456 16.057,2.651 18.353,4.620 20.148 C 7.177 22.479,10.770 23.470,14.165 22.779 C 14.671 22.676,14.886 22.537,15.062 22.196 C 15.284 21.766,15.088 21.147,14.654 20.912 C 14.363 20.754,14.222 20.742,13.734 20.834 C 13.069 20.958,12.634 21.000,12.000 21.000 C 11.496 20.999,10.775 20.948,10.736 20.909 C 10.729 20.902,11.078 19.569,11.512 17.947 C 12.271 15.105,12.304 14.997,12.400 14.977 C 12.455 14.965,12.608 14.928,12.740 14.895 C 12.872 14.862,13.017 14.825,13.062 14.814 C 13.128 14.798,13.258 14.922,13.733 15.457 C 14.435 16.248,14.547 16.332,14.922 16.353 C 15.252 16.372,15.417 16.321,15.636 16.135 C 15.881 15.925,15.974 15.718,15.977 15.380 C 15.981 15.014,15.920 14.913,15.225 14.129 C 14.928 13.793,14.674 13.502,14.662 13.483 C 14.650 13.463,14.693 13.313,14.759 13.148 C 14.825 12.984,14.899 12.753,14.924 12.635 C 14.949 12.517,14.972 12.417,14.975 12.414 C 14.978 12.411,16.319 12.134,17.955 11.800 C 20.381 11.303,20.936 11.201,20.964 11.245 C 21.012 11.320,21.008 12.497,20.960 12.940 C 20.938 13.138,20.872 13.543,20.814 13.840 C 20.690 14.473,20.702 14.659,20.888 14.939 C 21.310 15.577,22.252 15.522,22.600 14.839 C 22.686 14.671,22.855 13.869,22.928 13.280 C 23.013 12.592,22.991 11.137,22.885 10.440 C 22.725 9.397,22.439 8.402,22.040 7.512 C 20.485 4.039,17.253 1.628,13.440 1.096 C 13.036 1.039,11.590 0.991,11.260 1.023 M13.013 3.058 C 13.570 3.127,13.955 3.200,13.980 3.239 C 13.989 3.255,13.569 4.553,13.046 6.123 L 12.094 8.978 11.737 9.023 C 11.541 9.048,11.266 9.101,11.127 9.140 L 10.874 9.212 10.762 9.096 C 10.477 8.800,6.840 4.677,6.840 4.650 C 6.840 4.592,7.505 4.191,8.048 3.921 C 9.543 3.179,11.393 2.857,13.013 3.058 M16.640 4.291 C 17.209 4.629,17.875 5.153,18.380 5.659 C 19.098 6.378,19.593 7.068,20.062 8.004 C 20.273 8.425,20.580 9.193,20.549 9.224 C 20.532 9.241,14.682 10.440,14.615 10.440 C 14.587 10.440,14.510 10.362,14.444 10.266 C 14.378 10.170,14.239 10.004,14.135 9.897 L 13.946 9.703 14.916 6.792 L 15.886 3.882 16.093 3.985 C 16.207 4.042,16.453 4.180,16.640 4.291 M7.301 8.207 C 8.379 9.421,9.284 10.447,9.313 10.488 C 9.359 10.552,9.350 10.603,9.247 10.851 C 9.182 11.010,9.106 11.243,9.078 11.368 L 9.028 11.596 8.844 11.634 C 5.748 12.276,3.074 12.807,3.050 12.784 C 2.998 12.731,2.990 11.649,3.038 11.164 C 3.185 9.703,3.706 8.228,4.494 7.049 C 4.797 6.595,5.262 6.000,5.314 6.000 C 5.330 6.000,6.224 6.993,7.301 8.207 M12.322 11.061 C 12.716 11.200,12.956 11.513,12.990 11.933 C 13.073 12.977,11.671 13.409,11.139 12.503 C 10.680 11.718,11.466 10.759,12.322 11.061 M9.550 13.711 C 9.633 13.859,10.086 14.320,10.275 14.450 L 10.370 14.515 9.585 17.444 C 9.153 19.055,8.794 20.379,8.787 20.387 C 8.767 20.406,8.307 20.215,7.982 20.052 C 7.166 19.644,6.320 19.037,5.680 18.402 C 4.947 17.674,4.438 16.977,3.983 16.080 C 3.755 15.631,3.416 14.809,3.448 14.780 C 3.468 14.761,9.295 13.567,9.383 13.563 C 9.438 13.561,9.493 13.609,9.550 13.711 M16.673 16.063 C 16.412 16.143,16.140 16.421,16.061 16.690 C 15.984 16.949,15.984 17.053,16.064 17.322 C 16.124 17.524,16.196 17.607,17.102 18.520 L 18.076 19.500 17.102 20.480 C 16.196 21.393,16.125 21.475,16.064 21.677 C 15.984 21.947,15.984 22.051,16.061 22.310 C 16.144 22.589,16.411 22.856,16.690 22.939 C 16.949 23.016,17.053 23.016,17.323 22.936 C 17.525 22.875,17.607 22.804,18.520 21.898 L 19.500 20.924 20.480 21.898 C 21.393 22.804,21.476 22.876,21.678 22.936 C 21.947 23.016,22.051 23.016,22.310 22.939 C 22.589 22.856,22.856 22.589,22.939 22.310 C 23.016 22.051,23.016 21.947,22.936 21.678 C 22.876 21.476,22.804 21.393,21.898 20.480 L 20.924 19.500 21.898 18.520 C 22.804 17.607,22.875 17.525,22.936 17.323 C 23.016 17.053,23.016 16.949,22.939 16.690 C 22.856 16.411,22.589 16.144,22.310 16.061 C 22.051 15.984,21.947 15.984,21.678 16.064 C 21.476 16.124,21.393 16.196,20.480 17.102 L 19.500 18.076 18.520 17.102 C 17.607 16.196,17.525 16.125,17.323 16.064 C 17.062 15.987,16.921 15.987,16.673 16.063" stroke="none" fill-rule="evenodd"/></svg>