<?xml version="1.0" encoding="UTF-8" standalone="no"?>
<svg version="1.1" id="Ebene_1" xmlns="http://www.w3.org/2000/svg" xmlns:xlink="http://www.w3.org/1999/xlink" x="0px" y="0px" viewBox="0 0 277 267.5" style="enable-background:new 0 0 277 267.5;" xml:space="preserve"><style type="text/css">.st0{opacity:0.18;} \t.st1{fill:#4562A2;} \t.st2{fill:#2C426D;} \t.st3{fill-rule:evenodd;clip-rule:evenodd;fill:#FFFFFF;}</style><g><polygon class="st0" points="277,165 162.8981628,165 59.25,237 183,237"/><polygon class="st0" points="82.5,267.3995056 130,245 77,245"/><path class="st1" d="M150,210H15c-8.2842712,0-15-6.7157288-15-15V15C0,6.7157288,6.7157288,0,15,0h135 c8.2842712,0,15,6.7157288,15,15v180C165,203.2842712,158.2842712,210,150,210z"/><path class="st2" d="M165,80V15c0-8.2843018-6.7157593-15-15-15H15C6.7156982,0,0,6.7156982,0,15v65H165z"/><polygon class="st2" points="112.8108902,215 82.5,267.5 52.1891098,215"/><g><g><path class="st3" d="M107.8027573,118.108078H73.8193817v59.0123901h33.9833755V118.108078L107.8027573,118.108078z M69.8196259,171.4325409l-27.8597946-7.5195007l16.8886261-65.0031281l40.5840759,11.2207642l-0.9866028,3.8013916h13.3959274 v67.2999268H69.8196259V171.4325409L69.8196259,171.4325409L69.8196259,171.4325409z M46.8605728,161.0154724 L46.8605728,161.0154724l14.8089409-56.9973984l32.8229103,9.0746384l-0.2245712,0.870369h-7.5735931l-23.0190544-6.1077194 l-1.0399628,4.0031128l8.4235649,2.1046066h-1.2576828v2.6960907l-7.8723907-2.0748138l-1.0420952,4.0031052l8.9144859,2.3622513 v31.4634171l-4.2338333-1.1922302l-1.0420685,4.0016479l5.2759018,1.4786987v2.818924l-5.9591942-1.6669922l-1.03759,4.0040894 l6.9967842,1.9556427l0.0185013,3.3388519L46.8605728,161.0154724L46.8605728,161.0154724z M89.0751419,169.5318451h16.0663834 v4.144989H89.0751419V169.5318451L89.0751419,169.5318451L89.0751419,169.5318451z M76.5268402,121.0105286h28.6146851v4.1447449 l-28.6146851-0.0012207V121.0105286L76.5268402,121.0105286L76.5268402,121.0105286z M76.5268402,127.9790878h28.6146851 v4.1425552H76.5268402V127.9790878L76.5268402,127.9790878L76.5268402,127.9790878z M89.0751419,162.6634064h16.0663834 v4.1450043H89.0751419V162.6634064L89.0751419,162.6634064z"/></g></g></g></svg>