<?xml version="1.0" encoding="UTF-8" standalone="no"?>
<svg xmlns="http://www.w3.org/2000/svg" width="24" height="24"><path d="M11.280 1.255 C 11.093 1.304,9.176 2.052,7.020 2.916 C 2.704 4.646,2.752 4.623,2.412 5.101 C 2.174 5.435,2.075 5.715,2.051 6.120 C 2.015 6.713,2.181 7.199,2.560 7.610 C 2.666 7.726,3.105 8.081,3.535 8.400 L 4.317 8.980 4.318 9.780 L 4.320 10.581 4.059 10.674 C 3.253 10.964,2.541 11.742,2.335 12.560 C 2.248 12.907,2.249 13.578,2.338 13.920 C 2.566 14.791,3.313 15.556,4.214 15.838 C 4.514 15.932,4.522 15.938,4.564 16.097 C 4.588 16.187,4.704 16.549,4.820 16.902 C 5.928 20.251,8.216 22.488,10.980 22.923 C 11.395 22.989,12.416 22.989,12.800 22.924 C 14.802 22.584,16.489 21.443,17.806 19.540 C 18.407 18.670,19.008 17.403,19.343 16.299 L 19.453 15.938 19.768 15.843 C 20.498 15.622,21.128 15.096,21.451 14.435 C 21.552 14.229,21.656 13.952,21.683 13.820 C 21.750 13.483,21.741 12.867,21.664 12.559 C 21.461 11.743,20.747 10.963,19.941 10.674 L 19.680 10.581 19.682 9.780 L 19.683 8.980 20.465 8.400 C 20.895 8.081,21.334 7.726,21.440 7.610 C 21.819 7.199,21.985 6.713,21.949 6.120 C 21.925 5.715,21.826 5.435,21.588 5.101 C 21.247 4.621,21.305 4.649,16.900 2.888 C 14.700 2.009,12.770 1.260,12.612 1.225 C 12.203 1.133,11.695 1.144,11.280 1.255 M16.079 4.704 C 18.203 5.553,19.946 6.253,19.953 6.260 C 19.965 6.272,18.618 7.298,18.494 7.372 C 18.469 7.387,18.376 7.374,18.287 7.342 C 17.480 7.058,15.509 6.646,14.260 6.502 C 11.629 6.198,8.722 6.479,5.824 7.318 C 5.673 7.362,5.529 7.386,5.504 7.371 C 5.382 7.298,4.035 6.272,4.047 6.260 C 4.054 6.253,5.797 5.553,7.920 4.704 C 11.352 3.332,11.804 3.160,11.999 3.160 C 12.194 3.160,12.641 3.329,16.079 4.704 M13.980 8.476 C 15.105 8.609,16.151 8.813,17.240 9.112 L 17.660 9.227 17.671 9.697 C 17.682 10.132,17.677 10.165,17.611 10.144 C 17.449 10.094,16.066 9.800,15.640 9.725 C 15.138 9.636,14.543 9.552,13.860 9.473 C 13.260 9.403,10.936 9.403,10.280 9.473 C 9.177 9.591,7.978 9.791,6.866 10.043 C 6.583 10.107,6.344 10.160,6.336 10.160 C 6.327 10.160,6.320 9.954,6.320 9.703 C 6.320 9.302,6.329 9.243,6.390 9.224 C 6.429 9.212,6.739 9.132,7.080 9.045 C 8.233 8.750,9.502 8.528,10.520 8.441 C 10.795 8.418,11.101 8.392,11.200 8.383 C 11.662 8.344,13.337 8.400,13.980 8.476 M14.040 11.497 C 14.656 11.574,15.647 11.741,16.036 11.832 L 16.326 11.900 15.878 12.217 C 15.631 12.391,15.364 12.556,15.285 12.585 C 15.171 12.625,14.459 12.637,11.980 12.638 L 8.820 12.639 8.635 12.549 C 8.438 12.454,7.722 11.957,7.721 11.915 C 7.719 11.851,9.723 11.524,10.600 11.444 C 11.225 11.388,13.438 11.422,14.040 11.497 M6.260 13.342 C 6.920 13.816,7.586 14.264,7.740 14.339 C 8.342 14.630,8.132 14.615,11.813 14.630 C 15.540 14.645,15.575 14.643,16.167 14.372 C 16.378 14.276,16.908 13.925,17.710 13.353 C 18.391 12.867,18.971 12.480,19.018 12.480 C 19.185 12.480,19.521 12.684,19.633 12.852 C 19.719 12.982,19.740 13.060,19.739 13.245 C 19.737 13.442,19.719 13.499,19.615 13.628 C 19.424 13.865,19.230 13.952,18.777 14.002 C 18.137 14.073,17.834 14.296,17.697 14.797 C 17.371 15.986,17.168 16.553,16.797 17.308 C 16.352 18.211,15.997 18.721,15.343 19.394 C 14.480 20.281,13.638 20.754,12.580 20.943 C 11.472 21.141,10.226 20.821,9.260 20.089 C 8.712 19.674,8.086 18.985,7.667 18.335 C 7.117 17.483,6.572 16.079,6.322 14.870 C 6.212 14.337,5.878 14.074,5.223 14.002 C 4.769 13.952,4.576 13.866,4.385 13.628 C 4.281 13.499,4.263 13.442,4.261 13.245 C 4.260 12.937,4.392 12.731,4.685 12.585 C 4.801 12.527,4.933 12.480,4.978 12.480 C 5.023 12.480,5.600 12.868,6.260 13.342" stroke="none" fill-rule="evenodd"/></svg>