<?xml version="1.0" encoding="UTF-8" standalone="no"?>
<svg xmlns="http://www.w3.org/2000/svg" width="24" height="24"><path d="M9.900 1.025 C 8.989 1.108,8.416 1.352,7.884 1.884 C 7.240 2.528,7.000 3.249,7.000 4.538 L 7.000 5.000 4.925 5.000 C 2.676 5.000,2.663 5.001,2.374 5.222 C 2.301 5.277,2.192 5.408,2.131 5.511 C 2.036 5.672,2.020 5.744,2.020 6.000 C 2.020 6.256,2.036 6.328,2.131 6.489 C 2.371 6.898,2.631 7.000,3.425 7.000 L 4.000 7.000 4.000 12.890 C 4.001 16.617,4.016 18.953,4.042 19.252 C 4.164 20.645,4.736 21.634,5.831 22.350 C 6.400 22.722,6.919 22.884,7.780 22.958 C 8.421 23.013,15.579 23.013,16.220 22.958 C 17.088 22.883,17.596 22.724,18.189 22.339 C 18.867 21.899,19.480 21.136,19.723 20.430 C 19.987 19.663,19.976 19.980,19.990 13.170 L 20.003 7.000 20.574 7.000 C 21.259 7.000,21.454 6.948,21.701 6.701 C 22.092 6.310,22.092 5.690,21.701 5.299 C 21.400 4.998,21.419 5.000,19.073 5.000 L 17.000 5.000 17.000 4.538 C 17.000 3.920,16.935 3.371,16.817 2.997 C 16.586 2.268,15.887 1.527,15.155 1.238 C 14.658 1.041,14.520 1.031,12.220 1.020 C 11.032 1.015,9.988 1.017,9.900 1.025 M14.374 3.076 C 14.576 3.141,14.862 3.430,14.919 3.626 C 14.943 3.711,14.974 4.054,14.988 4.390 L 15.012 5.000 12.006 5.000 L 9.000 5.000 9.001 4.590 C 9.003 3.986,9.061 3.613,9.180 3.432 C 9.327 3.211,9.545 3.082,9.845 3.042 C 10.255 2.986,14.189 3.016,14.374 3.076 M17.988 13.110 C 17.976 17.595,17.959 19.284,17.925 19.460 C 17.828 19.949,17.475 20.444,17.031 20.711 C 16.572 20.987,16.697 20.980,12.000 20.980 C 8.139 20.980,7.755 20.974,7.483 20.911 C 6.785 20.748,6.213 20.158,6.075 19.460 C 6.040 19.283,6.024 17.606,6.012 13.110 L 5.997 7.000 12.000 7.000 L 18.004 7.000 17.988 13.110 M9.617 10.577 C 9.415 10.665,9.193 10.886,9.094 11.100 L 9.001 11.300 9.001 14.000 L 9.001 16.700 9.094 16.900 C 9.464 17.692,10.536 17.692,10.906 16.900 L 10.999 16.700 10.999 14.000 L 10.999 11.300 10.906 11.100 C 10.804 10.882,10.581 10.662,10.374 10.575 C 10.208 10.505,9.778 10.506,9.617 10.577 M13.617 10.577 C 13.415 10.665,13.193 10.886,13.094 11.100 L 13.001 11.300 13.001 14.000 L 13.001 16.700 13.094 16.900 C 13.464 17.692,14.536 17.692,14.906 16.900 L 14.999 16.700 14.999 14.000 L 14.999 11.300 14.906 11.100 C 14.804 10.882,14.581 10.662,14.374 10.575 C 14.208 10.505,13.778 10.506,13.617 10.577" stroke="none" fill-rule="evenodd"/></svg>