<?xml version="1.0" encoding="UTF-8" standalone="no"?>
<svg xmlns="http://www.w3.org/2000/svg" width="24" height="24"><path d="M5.920 2.041 C 5.428 2.072,4.922 2.162,4.586 2.278 C 3.452 2.668,2.495 3.701,2.202 4.851 C 2.019 5.569,2.020 5.528,2.020 12.000 C 2.020 18.472,2.019 18.431,2.202 19.149 C 2.520 20.398,3.600 21.479,4.846 21.797 C 5.412 21.941,5.733 21.965,7.402 21.988 C 8.867 22.008,9.090 22.003,9.289 21.945 C 9.687 21.829,10.000 21.413,10.000 21.000 C 10.000 20.777,9.880 20.490,9.717 20.321 C 9.422 20.017,9.472 20.025,7.500 19.995 C 5.584 19.967,5.364 19.943,5.005 19.734 C 4.745 19.581,4.443 19.285,4.289 19.030 C 4.006 18.561,4.020 18.925,4.020 12.000 C 4.020 6.260,4.025 5.757,4.089 5.486 C 4.248 4.804,4.797 4.248,5.463 4.095 C 5.683 4.044,6.104 4.026,7.500 4.005 C 9.472 3.975,9.422 3.983,9.717 3.679 C 9.880 3.510,10.000 3.223,10.000 3.000 C 10.000 2.763,9.880 2.486,9.697 2.303 C 9.404 2.010,9.331 1.999,7.743 2.006 C 6.993 2.009,6.173 2.025,5.920 2.041 M15.673 6.063 C 15.412 6.143,15.140 6.421,15.061 6.690 C 14.984 6.949,14.984 7.053,15.064 7.323 C 15.125 7.530,15.203 7.616,16.852 9.270 L 18.577 11.000 13.736 11.000 C 9.518 11.000,8.868 11.008,8.690 11.061 C 8.312 11.173,8.000 11.598,8.000 12.000 C 8.000 12.402,8.312 12.827,8.690 12.939 C 8.868 12.992,9.518 13.000,13.736 13.000 L 18.577 13.000 16.852 14.730 C 15.203 16.384,15.125 16.470,15.064 16.677 C 14.984 16.947,14.984 17.051,15.061 17.310 C 15.144 17.589,15.411 17.856,15.690 17.939 C 15.948 18.016,16.052 18.016,16.323 17.937 C 16.533 17.875,16.623 17.790,19.207 15.207 C 21.790 12.623,21.875 12.533,21.937 12.323 C 21.972 12.203,22.000 12.058,22.000 12.000 C 22.000 11.942,21.972 11.797,21.937 11.677 C 21.875 11.467,21.790 11.377,19.207 8.793 C 16.623 6.210,16.533 6.125,16.323 6.063 C 16.061 5.987,15.920 5.987,15.673 6.063" stroke="none" fill-rule="evenodd"/></svg>