<?xml version="1.0" encoding="UTF-8" standalone="no"?>
<svg xmlns="http://www.w3.org/2000/svg" width="24" height="24"><path d="M4.378 1.058 C 2.674 1.323,1.320 2.686,1.058 4.400 C 0.972 4.968,0.972 19.032,1.058 19.600 C 1.284 21.077,2.308 22.297,3.732 22.785 C 4.373 23.005,4.181 23.000,12.000 23.000 C 19.819 23.000,19.627 23.005,20.268 22.785 C 21.689 22.298,22.717 21.073,22.942 19.600 C 23.028 19.032,23.028 4.968,22.942 4.400 C 22.716 2.923,21.692 1.703,20.268 1.215 C 19.626 0.995,19.826 1.000,11.960 1.004 C 6.366 1.007,4.626 1.019,4.378 1.058 M19.492 3.060 C 19.852 3.153,20.118 3.310,20.404 3.596 C 20.690 3.882,20.847 4.148,20.940 4.508 C 21.030 4.854,21.030 19.146,20.940 19.492 C 20.847 19.852,20.690 20.118,20.404 20.404 C 20.118 20.690,19.852 20.847,19.492 20.940 C 19.146 21.030,4.854 21.030,4.508 20.940 C 4.148 20.847,3.882 20.690,3.596 20.404 C 3.310 20.118,3.153 19.852,3.060 19.492 C 2.970 19.146,2.970 4.854,3.060 4.508 C 3.153 4.148,3.310 3.882,3.596 3.596 C 3.876 3.316,4.146 3.154,4.491 3.062 C 4.815 2.974,19.158 2.972,19.492 3.060 M11.018 3.964 C 10.951 3.983,10.859 4.039,10.813 4.089 C 10.748 4.161,4.662 14.489,4.486 14.827 C 4.419 14.955,4.430 15.163,4.511 15.295 C 4.611 15.460,7.039 16.840,7.230 16.840 C 7.314 16.840,7.511 16.761,7.772 16.622 C 8.753 16.098,9.406 16.199,9.739 16.927 C 9.849 17.166,9.947 17.807,9.902 17.987 C 9.865 18.132,9.945 18.371,10.069 18.488 C 10.130 18.545,10.710 18.890,11.358 19.256 C 12.377 19.830,12.559 19.920,12.709 19.920 C 12.849 19.920,12.907 19.896,13.017 19.790 C 13.176 19.638,19.356 9.136,19.414 8.919 C 19.444 8.808,19.437 8.745,19.381 8.628 C 19.317 8.492,19.193 8.412,18.045 7.760 C 16.634 6.958,16.613 6.951,16.247 7.136 C 15.909 7.308,15.619 7.371,15.264 7.352 C 14.867 7.330,14.682 7.243,14.428 6.960 C 14.205 6.712,14.097 6.438,14.039 5.972 C 14.015 5.779,13.965 5.568,13.927 5.503 C 13.878 5.418,13.605 5.242,12.920 4.852 C 11.251 3.902,11.245 3.899,11.018 3.964 M11.999 6.600 C 12.082 6.658,12.139 6.765,12.219 7.010 C 12.578 8.108,13.324 8.863,14.380 9.200 C 14.814 9.338,15.582 9.357,16.116 9.243 L 16.523 9.156 16.662 9.241 C 16.755 9.299,16.800 9.357,16.800 9.419 C 16.800 9.502,12.354 17.125,12.209 17.290 C 12.136 17.373,11.988 17.382,11.925 17.307 C 11.901 17.277,11.855 17.117,11.823 16.950 C 11.680 16.200,11.416 15.687,10.920 15.193 C 10.618 14.894,10.515 14.820,10.156 14.648 C 9.927 14.538,9.653 14.428,9.546 14.403 C 8.990 14.272,8.283 14.317,7.662 14.524 C 7.253 14.661,7.165 14.660,7.086 14.518 C 7.031 14.419,7.099 14.296,9.261 10.618 C 10.488 8.529,11.535 6.753,11.587 6.670 C 11.697 6.495,11.823 6.474,11.999 6.600" stroke="none" fill-rule="evenodd"/></svg>