<?xml version="1.0" encoding="UTF-8" standalone="no"?>
<svg xmlns="http://www.w3.org/2000/svg" width="24" height="24"><path d="M21.664 5.063 C 21.436 5.146,21.257 5.297,21.131 5.511 L 21.020 5.700 20.996 8.020 C 20.973 10.150,20.965 10.369,20.890 10.700 C 20.644 11.797,20.136 12.382,19.138 12.716 C 18.310 12.993,18.836 12.977,10.510 12.990 L 3.000 13.002 3.000 11.928 C 3.000 10.691,2.979 10.577,2.700 10.298 C 2.390 9.988,1.932 9.920,1.531 10.126 C 1.315 10.238,1.103 10.491,1.042 10.711 C 0.985 10.916,0.985 17.084,1.042 17.289 C 1.103 17.509,1.315 17.762,1.531 17.874 C 1.932 18.080,2.390 18.012,2.700 17.702 C 2.979 17.423,3.000 17.309,3.000 16.073 L 3.000 15.000 12.000 15.000 L 21.000 15.000 21.000 16.070 C 21.000 16.684,21.018 17.204,21.042 17.289 C 21.103 17.509,21.315 17.762,21.531 17.874 C 21.932 18.080,22.390 18.012,22.700 17.702 C 23.022 17.380,23.000 17.844,23.000 11.500 C 23.000 5.157,23.022 5.620,22.701 5.299 C 22.429 5.027,22.018 4.933,21.664 5.063 M18.814 8.599 C 17.553 8.930,16.521 10.199,16.506 11.440 C 16.503 11.701,16.518 11.768,16.620 11.955 C 16.902 12.468,17.409 12.614,18.180 12.403 C 19.458 12.053,20.479 10.800,20.494 9.560 C 20.497 9.299,20.482 9.232,20.380 9.045 C 20.174 8.669,19.895 8.519,19.411 8.522 C 19.240 8.523,18.972 8.558,18.814 8.599 M8.800 9.547 C 8.001 9.630,6.788 9.870,5.500 10.199 C 3.935 10.600,3.817 10.654,3.620 11.057 C 3.526 11.249,3.513 11.317,3.526 11.554 C 3.546 11.907,3.694 12.164,3.978 12.339 L 4.174 12.460 9.500 12.460 L 14.826 12.460 15.022 12.339 C 15.306 12.164,15.454 11.907,15.474 11.554 C 15.487 11.317,15.474 11.249,15.380 11.057 C 15.237 10.764,15.056 10.638,14.527 10.464 C 13.241 10.039,11.694 9.685,10.580 9.561 C 10.244 9.523,9.115 9.515,8.800 9.547" stroke="none" fill-rule="evenodd"/></svg>