<?xml version="1.0" encoding="UTF-8" standalone="no"?>
<svg xmlns="http://www.w3.org/2000/svg" width="24" height="24"><path d="M5.740 1.044 C 3.605 1.252,2.214 2.124,1.437 3.740 C 0.574 5.536,1.026 7.681,2.752 9.980 C 3.102 10.446,3.312 10.697,3.857 11.300 C 4.449 11.956,4.863 12.639,4.937 13.080 C 4.950 13.157,5.068 14.480,5.199 16.020 C 5.330 17.560,5.458 18.963,5.482 19.139 C 5.684 20.586,6.733 22.019,8.016 22.601 C 9.339 23.201,11.126 23.098,12.263 22.355 C 13.134 21.787,13.721 20.903,13.961 19.800 C 14.049 19.397,14.036 19.562,14.264 16.143 L 14.445 13.425 14.551 13.245 C 14.810 12.803,15.244 12.264,16.034 11.403 C 17.701 9.587,18.524 8.234,18.871 6.740 C 18.955 6.380,18.974 6.194,18.976 5.720 C 18.979 4.947,18.873 4.470,18.554 3.822 C 17.921 2.541,16.681 1.613,15.099 1.238 C 14.220 1.029,14.177 1.027,10.000 1.017 C 7.855 1.013,5.938 1.024,5.740 1.044 M14.280 3.095 C 14.775 3.189,15.315 3.369,15.640 3.549 C 15.985 3.740,16.580 4.337,16.751 4.664 C 17.411 5.929,16.730 7.686,14.735 9.858 C 13.276 11.448,12.590 12.437,12.487 13.102 C 12.463 13.255,12.361 14.658,12.261 16.220 C 12.065 19.267,12.039 19.478,11.804 19.971 C 11.593 20.414,11.195 20.746,10.684 20.905 C 10.409 20.990,9.751 21.019,9.406 20.961 C 8.716 20.844,8.101 20.374,7.749 19.693 C 7.648 19.498,7.537 19.221,7.503 19.079 C 7.468 18.936,7.333 17.569,7.201 16.040 C 6.898 12.519,6.928 12.797,6.813 12.400 C 6.560 11.523,6.117 10.823,5.104 9.696 C 4.355 8.863,3.851 8.146,3.482 7.390 C 3.129 6.668,3.030 6.297,3.025 5.680 C 3.019 5.075,3.108 4.751,3.400 4.305 C 3.906 3.536,4.572 3.195,5.900 3.025 C 5.966 3.017,7.793 3.013,9.960 3.017 C 13.568 3.022,13.932 3.029,14.280 3.095 M9.813 4.083 C 9.578 4.128,9.440 4.208,9.256 4.407 C 8.928 4.763,8.300 5.798,8.008 6.461 C 7.424 7.790,7.360 8.703,7.765 9.932 C 8.023 10.715,8.908 12.310,9.302 12.704 C 9.734 13.136,10.421 13.078,10.814 12.577 C 11.505 11.695,12.269 10.092,12.442 9.160 C 12.504 8.826,12.504 8.173,12.442 7.840 C 12.331 7.249,12.008 6.411,11.631 5.740 C 11.337 5.216,10.930 4.608,10.728 4.392 C 10.484 4.131,10.154 4.019,9.813 4.083 M10.196 7.359 C 10.286 7.578,10.390 7.870,10.425 8.009 C 10.514 8.355,10.481 8.884,10.347 9.269 C 10.216 9.641,10.037 10.040,10.000 10.040 C 9.963 10.040,9.784 9.641,9.653 9.269 C 9.519 8.884,9.486 8.355,9.575 8.009 C 9.650 7.715,9.956 6.960,10.000 6.960 C 10.017 6.960,10.105 7.139,10.196 7.359 M16.643 16.069 C 16.291 16.193,16.000 16.614,16.000 17.000 C 16.000 17.080,16.030 17.234,16.066 17.343 C 16.123 17.514,16.259 17.668,17.105 18.521 L 18.079 19.502 17.138 20.441 C 16.186 21.392,16.068 21.542,16.017 21.865 C 15.923 22.461,16.539 23.077,17.135 22.983 C 17.458 22.932,17.608 22.814,18.559 21.862 L 19.498 20.921 20.479 21.897 C 21.394 22.806,21.475 22.876,21.677 22.936 C 21.948 23.016,22.012 23.016,22.283 22.936 C 22.581 22.847,22.847 22.581,22.936 22.283 C 23.016 22.012,23.016 21.948,22.936 21.677 C 22.876 21.475,22.806 21.394,21.897 20.479 L 20.921 19.498 21.862 18.559 C 22.433 17.988,22.832 17.557,22.879 17.460 C 22.999 17.212,23.018 17.001,22.943 16.743 C 22.816 16.307,22.435 16.023,21.981 16.028 C 21.578 16.031,21.450 16.124,20.421 17.156 L 19.502 18.079 18.521 17.105 C 17.668 16.259,17.514 16.123,17.343 16.066 C 17.102 15.985,16.877 15.986,16.643 16.069" stroke="none" fill-rule="evenodd"/></svg>