<?xml version="1.0" encoding="UTF-8" standalone="no"?>
<svg xmlns="http://www.w3.org/2000/svg" width="24" height="24"><path d="M11.080 2.041 C 7.998 2.361,5.307 3.982,3.645 6.520 C 0.520 11.290,2.013 17.698,6.926 20.605 C 9.223 21.964,11.896 22.334,14.546 21.658 C 15.575 21.396,16.598 20.938,17.524 20.323 C 18.644 19.581,19.829 18.407,19.963 17.907 C 20.055 17.567,19.928 17.161,19.655 16.921 C 19.449 16.740,19.284 16.680,18.994 16.680 C 18.617 16.680,18.484 16.766,17.898 17.386 C 17.094 18.237,16.399 18.754,15.449 19.209 C 13.243 20.266,10.679 20.256,8.498 19.181 C 7.583 18.730,6.925 18.249,6.237 17.529 C 5.797 17.069,5.506 16.697,5.200 16.204 C 3.779 13.912,3.615 11.057,4.765 8.600 C 5.385 7.275,6.413 6.097,7.660 5.281 C 8.331 4.842,9.300 4.424,10.080 4.237 C 10.954 4.027,12.003 3.949,12.793 4.035 C 15.595 4.342,17.990 6.024,19.206 8.540 C 19.580 9.315,19.861 10.281,19.944 11.080 L 19.971 11.340 19.614 10.996 C 19.187 10.586,19.010 10.502,18.626 10.527 C 18.117 10.559,17.759 10.917,17.727 11.426 C 17.697 11.896,17.718 11.926,18.955 13.171 C 20.184 14.408,20.280 14.480,20.700 14.480 C 21.120 14.480,21.216 14.408,22.445 13.171 C 23.682 11.926,23.703 11.896,23.673 11.426 C 23.642 10.940,23.288 10.567,22.820 10.528 C 22.517 10.503,22.354 10.542,22.127 10.695 L 21.931 10.827 21.881 10.484 C 21.639 8.826,20.840 7.024,19.757 5.696 C 18.855 4.589,17.689 3.661,16.422 3.041 C 15.456 2.568,14.530 2.279,13.460 2.115 C 12.866 2.024,11.615 1.985,11.080 2.041 M11.673 6.063 C 11.552 6.100,11.421 6.185,11.303 6.303 C 10.988 6.619,10.996 6.529,11.009 9.585 L 11.020 12.260 11.113 12.435 C 11.165 12.531,11.255 12.655,11.313 12.711 C 11.372 12.766,12.131 13.285,13.000 13.864 C 14.735 15.020,14.797 15.051,15.187 14.969 C 15.739 14.853,16.081 14.348,15.969 13.813 C 15.883 13.405,15.822 13.351,14.351 12.368 L 13.000 11.466 13.000 9.180 C 13.000 6.568,13.004 6.611,12.697 6.303 C 12.418 6.024,12.067 5.942,11.673 6.063" stroke="none" fill-rule="evenodd"/></svg>