<?xml version="1.0" encoding="UTF-8" standalone="no"?>
<svg width="24" height="24" viewBox="0 0 24 24" version="1.1" id="svg1" sodipodi:docname="gen-award.svg" inkscape:version="1.3.2 (091e20e, 2023-11-25)" xmlns:inkscape="http://www.inkscape.org/namespaces/inkscape" xmlns:sodipodi="http://sodipodi.sourceforge.net/DTD/sodipodi-0.dtd" xmlns="http://www.w3.org/2000/svg" xmlns:svg="http://www.w3.org/2000/svg"><path d="M9.020 1.057 C 8.455 1.187,8.062 1.415,7.670 1.838 C 7.383 2.148,7.336 2.235,6.915 3.233 C 6.746 3.636,6.578 3.998,6.543 4.037 C 6.507 4.076,6.118 4.257,5.678 4.439 C 5.238 4.621,4.774 4.837,4.649 4.918 C 4.319 5.132,3.952 5.544,3.784 5.888 C 3.565 6.336,3.507 6.620,3.531 7.139 C 3.553 7.633,3.581 7.727,4.016 8.775 C 4.161 9.124,4.280 9.451,4.280 9.502 C 4.280 9.553,4.129 9.961,3.945 10.408 C 3.569 11.323,3.520 11.504,3.520 11.976 C 3.520 12.621,3.739 13.191,4.166 13.657 C 4.501 14.022,4.757 14.176,5.659 14.552 C 6.099 14.735,6.489 14.912,6.525 14.944 C 6.561 14.977,6.649 15.136,6.719 15.297 L 6.846 15.590 6.419 18.805 C 6.035 21.692,5.996 22.040,6.037 22.220 C 6.158 22.747,6.687 23.086,7.204 22.967 C 7.352 22.932,8.032 22.545,9.704 21.542 L 12.000 20.164 14.296 21.542 C 15.968 22.545,16.648 22.932,16.796 22.967 C 17.313 23.086,17.842 22.747,17.963 22.220 C 18.004 22.040,17.965 21.692,17.581 18.805 L 17.154 15.590 17.281 15.297 C 17.351 15.136,17.438 14.978,17.475 14.945 C 17.511 14.912,17.890 14.740,18.318 14.563 C 19.272 14.167,19.454 14.060,19.804 13.686 C 20.263 13.197,20.480 12.649,20.480 11.980 C 20.480 11.513,20.426 11.317,20.039 10.368 C 19.864 9.938,19.720 9.545,19.720 9.496 C 19.720 9.446,19.871 9.039,20.055 8.592 C 20.434 7.671,20.480 7.498,20.480 7.006 C 20.480 6.374,20.254 5.789,19.837 5.343 C 19.485 4.967,19.254 4.829,18.339 4.447 C 17.754 4.203,17.486 4.070,17.434 4.000 C 17.393 3.945,17.234 3.598,17.081 3.228 C 16.723 2.363,16.589 2.116,16.322 1.828 C 15.659 1.111,14.666 0.837,13.755 1.118 C 13.615 1.162,13.195 1.324,12.823 1.479 C 12.396 1.656,12.091 1.760,11.997 1.760 C 11.903 1.760,11.600 1.657,11.174 1.479 C 10.803 1.324,10.383 1.160,10.240 1.116 C 9.904 1.011,9.337 0.983,9.020 1.057 M10.369 3.304 C 11.225 3.661,11.580 3.760,12.000 3.760 C 12.418 3.760,12.767 3.662,13.640 3.300 C 14.744 2.841,14.758 2.847,15.200 3.903 C 15.559 4.761,15.734 5.081,16.003 5.376 C 16.289 5.689,16.588 5.874,17.267 6.159 C 18.243 6.568,18.319 6.606,18.408 6.732 C 18.552 6.934,18.520 7.107,18.188 7.900 C 17.790 8.853,17.746 9.011,17.745 9.500 C 17.745 9.983,17.799 10.180,18.202 11.140 C 18.501 11.852,18.535 12.018,18.427 12.225 C 18.342 12.391,18.289 12.420,17.467 12.758 C 16.657 13.092,16.364 13.256,16.079 13.537 C 15.765 13.845,15.613 14.112,15.244 14.995 C 14.944 15.711,14.882 15.829,14.764 15.909 C 14.689 15.959,14.570 16.000,14.500 16.000 C 14.429 16.000,14.040 15.864,13.636 15.697 C 12.762 15.337,12.415 15.240,12.000 15.240 C 11.583 15.240,11.233 15.338,10.369 15.697 C 9.959 15.867,9.579 16.000,9.505 16.000 C 9.432 16.000,9.311 15.959,9.236 15.908 C 9.118 15.829,9.055 15.709,8.752 14.989 C 8.389 14.123,8.239 13.857,7.952 13.564 C 7.690 13.297,7.375 13.111,6.729 12.840 C 5.741 12.427,5.653 12.381,5.578 12.236 C 5.467 12.021,5.500 11.858,5.800 11.140 C 6.201 10.178,6.255 9.982,6.255 9.500 C 6.255 9.016,6.200 8.817,5.797 7.860 C 5.481 7.107,5.449 6.932,5.593 6.730 C 5.690 6.593,5.723 6.576,6.540 6.240 C 7.342 5.910,7.572 5.783,7.867 5.507 C 8.226 5.172,8.371 4.927,8.756 4.005 C 9.056 3.289,9.118 3.171,9.236 3.091 C 9.311 3.041,9.432 3.000,9.506 3.000 C 9.583 3.000,9.953 3.130,10.369 3.304 M12.823 17.522 C 13.832 17.941,13.978 17.981,14.500 17.975 C 14.821 17.972,15.007 17.949,15.187 17.891 L 15.433 17.811 15.454 17.935 C 15.529 18.372,15.727 20.006,15.708 20.025 C 15.696 20.037,14.994 19.632,14.148 19.125 C 12.588 18.188,12.365 18.080,12.000 18.080 C 11.635 18.080,11.412 18.188,9.852 19.125 C 9.006 19.632,8.305 20.038,8.293 20.026 C 8.275 20.008,8.477 18.333,8.545 17.935 L 8.567 17.811 8.813 17.891 C 9.000 17.952,9.172 17.972,9.520 17.974 C 10.046 17.977,10.227 17.926,11.260 17.485 C 11.619 17.332,11.879 17.245,11.983 17.243 C 12.100 17.241,12.340 17.320,12.823 17.522" stroke="none" fill-rule="evenodd"/></svg>