<?xml version="1.0" encoding="UTF-8" standalone="no"?>
<svg xmlns="http://www.w3.org/2000/svg" width="24" height="24"><path d="M8.429 1.055 C 8.215 1.135,8.028 1.271,7.923 1.423 C 7.792 1.614,7.711 1.913,7.740 2.099 C 7.759 2.223,8.146 3.519,8.359 4.167 L 8.394 4.274 7.527 4.480 C 7.050 4.592,6.588 4.711,6.499 4.742 C 6.318 4.807,6.067 5.033,5.971 5.217 C 5.936 5.285,5.779 6.092,5.622 7.012 L 5.337 8.684 4.859 8.942 C 4.321 9.231,4.153 9.389,4.055 9.700 C 3.993 9.895,3.999 10.083,4.153 13.203 C 4.280 15.780,4.330 16.540,4.379 16.683 C 4.491 17.005,4.692 17.153,5.600 17.582 C 6.051 17.795,6.523 18.021,6.648 18.084 L 6.876 18.199 6.378 19.663 C 5.836 21.256,5.805 21.410,5.955 21.741 C 6.048 21.946,6.254 22.152,6.459 22.245 C 6.749 22.377,6.977 22.346,7.977 22.040 C 8.481 21.886,8.919 21.760,8.950 21.760 C 8.981 21.760,9.549 22.018,10.213 22.334 C 10.877 22.649,11.490 22.930,11.576 22.959 C 11.780 23.026,12.116 22.990,12.312 22.880 L 12.465 22.794 12.643 22.887 C 12.782 22.960,12.881 22.979,13.100 22.977 C 13.370 22.975,13.415 22.959,14.348 22.527 C 14.881 22.281,15.344 22.080,15.378 22.080 C 15.411 22.080,15.637 22.134,15.880 22.200 C 16.123 22.266,16.416 22.320,16.531 22.320 C 16.802 22.319,17.106 22.178,17.274 21.975 C 17.406 21.816,17.520 21.510,17.520 21.316 C 17.520 21.256,17.411 20.859,17.278 20.433 C 17.045 19.690,17.039 19.658,17.110 19.600 C 17.682 19.135,18.224 18.633,18.307 18.491 C 18.451 18.247,18.478 17.877,18.371 17.637 C 18.327 17.540,17.804 16.821,17.208 16.040 C 16.612 15.259,16.137 14.608,16.152 14.593 C 16.167 14.578,16.936 14.105,17.860 13.542 C 19.678 12.433,19.861 12.294,19.959 11.943 C 20.020 11.725,19.993 11.421,19.896 11.232 C 19.859 11.159,19.661 10.862,19.456 10.572 L 19.085 10.044 19.072 8.912 C 19.058 7.555,19.075 7.613,18.506 7.004 L 18.120 6.591 18.119 5.506 C 18.118 4.542,18.110 4.402,18.045 4.260 C 18.002 4.165,17.546 3.642,16.937 2.988 C 15.799 1.769,15.688 1.680,15.299 1.680 C 14.923 1.680,14.776 1.763,14.187 2.303 L 13.644 2.802 13.468 2.625 C 13.292 2.450,13.283 2.446,11.136 1.738 C 9.844 1.312,8.900 1.022,8.780 1.013 C 8.670 1.006,8.512 1.024,8.429 1.055 M11.547 3.978 C 11.582 3.991,11.580 4.052,11.538 4.228 C 11.450 4.598,11.464 4.872,11.584 5.112 C 11.804 5.554,12.135 5.697,12.874 5.672 C 13.260 5.659,13.369 5.641,13.512 5.567 C 13.607 5.517,14.028 5.161,14.448 4.775 L 15.213 4.075 15.302 4.167 C 15.351 4.218,15.554 4.435,15.753 4.649 L 16.114 5.037 16.127 6.149 C 16.142 7.466,16.115 7.376,16.699 8.001 L 17.080 8.409 17.080 9.486 C 17.080 10.695,17.076 10.671,17.383 11.102 C 17.486 11.246,17.563 11.370,17.555 11.377 C 17.547 11.385,16.766 11.864,15.820 12.441 C 14.874 13.018,14.040 13.547,13.966 13.615 C 13.685 13.878,13.579 14.274,13.695 14.625 C 13.742 14.766,14.084 15.246,14.917 16.339 L 16.074 17.857 15.907 17.999 C 15.111 18.672,15.004 18.794,14.914 19.131 C 14.862 19.326,14.862 19.332,15.026 19.950 C 15.040 20.003,15.031 20.040,15.006 20.040 C 14.981 20.040,14.565 20.223,14.081 20.446 L 13.200 20.852 12.970 20.684 C 12.618 20.427,12.427 20.351,12.138 20.353 C 11.881 20.354,11.731 20.408,11.500 20.582 L 11.380 20.673 10.362 20.189 C 9.561 19.808,9.299 19.702,9.133 19.688 C 8.945 19.672,8.697 19.710,8.506 19.783 C 8.459 19.801,8.532 19.541,8.781 18.799 C 8.968 18.244,9.120 17.741,9.120 17.682 C 9.120 17.623,9.092 17.480,9.057 17.364 C 8.946 16.987,8.807 16.890,7.485 16.262 C 6.840 15.955,6.304 15.685,6.296 15.662 C 6.283 15.626,6.040 10.879,6.040 10.660 C 6.040 10.599,6.130 10.531,6.408 10.383 C 6.859 10.141,7.046 9.976,7.150 9.730 C 7.197 9.619,7.334 8.917,7.480 8.040 C 7.618 7.215,7.744 6.526,7.759 6.508 C 7.775 6.491,8.281 6.359,8.883 6.216 C 9.486 6.072,10.037 5.927,10.108 5.893 C 10.321 5.792,10.548 5.512,10.622 5.260 C 10.701 4.987,10.691 4.919,10.457 4.177 C 10.360 3.867,10.280 3.604,10.280 3.592 C 10.280 3.575,11.291 3.883,11.547 3.978" stroke="none" fill-rule="evenodd"/></svg>