<?xml version="1.0" encoding="UTF-8" standalone="no"?>
<svg xmlns="http://www.w3.org/2000/svg" width="24" height="24"><path d="M6.040 1.027 C 5.614 1.050,5.072 1.127,4.795 1.204 C 3.977 1.431,3.161 2.046,2.662 2.811 C 2.281 3.396,2.121 3.901,2.042 4.760 C 1.983 5.407,1.985 15.600,2.044 16.253 C 2.148 17.395,2.468 18.112,3.201 18.840 C 3.389 19.027,3.645 19.243,3.769 19.320 L 3.995 19.460 4.007 20.660 L 4.020 21.860 4.144 22.120 C 4.301 22.450,4.550 22.699,4.880 22.856 L 5.140 22.980 6.655 22.992 C 8.092 23.004,8.185 23.000,8.443 22.922 C 8.895 22.784,9.225 22.471,9.402 22.011 C 9.482 21.805,9.493 21.685,9.511 20.890 L 9.530 20.000 12.000 20.000 L 14.470 20.000 14.489 20.890 C 14.507 21.685,14.518 21.805,14.598 22.011 C 14.775 22.471,15.105 22.784,15.557 22.922 C 15.815 23.000,15.908 23.004,17.345 22.992 L 18.860 22.980 19.120 22.856 C 19.450 22.699,19.699 22.450,19.856 22.120 L 19.980 21.860 19.993 20.660 L 20.005 19.460 20.229 19.320 C 20.353 19.243,20.608 19.027,20.797 18.840 C 21.537 18.110,21.857 17.387,21.956 16.227 C 22.015 15.540,22.016 5.403,21.958 4.760 C 21.910 4.232,21.806 3.751,21.665 3.404 C 21.426 2.817,20.830 2.090,20.288 1.724 C 19.642 1.289,19.054 1.107,18.069 1.040 C 17.568 1.006,6.645 0.994,6.040 1.027 M18.460 3.075 C 18.780 3.138,19.089 3.298,19.346 3.533 C 19.601 3.765,19.840 4.145,19.869 4.362 L 19.891 4.520 11.995 4.510 L 4.100 4.500 4.114 4.400 C 4.160 4.067,4.564 3.540,4.953 3.305 C 5.234 3.135,5.419 3.084,5.913 3.042 C 6.548 2.988,18.175 3.019,18.460 3.075 M20.000 8.760 L 20.000 11.000 12.000 11.000 L 4.000 11.000 4.000 8.760 L 4.000 6.520 12.000 6.520 L 20.000 6.520 20.000 8.760 M19.989 14.590 C 19.977 15.496,19.948 16.292,19.923 16.440 C 19.835 16.940,19.486 17.437,19.031 17.711 C 18.560 17.994,18.925 17.980,12.000 17.980 C 6.242 17.980,5.758 17.975,5.483 17.911 C 4.774 17.745,4.202 17.147,4.077 16.440 C 4.051 16.290,4.023 15.509,4.011 14.590 L 3.991 13.000 12.000 13.000 L 20.010 13.000 19.989 14.590 M6.122 14.583 C 5.887 14.685,5.723 14.836,5.613 15.052 C 5.363 15.541,5.546 16.105,6.045 16.381 L 6.260 16.500 7.220 16.500 C 7.931 16.500,8.220 16.486,8.335 16.445 C 8.696 16.318,8.999 15.886,8.999 15.500 C 8.999 15.128,8.725 14.721,8.374 14.575 C 8.177 14.492,6.315 14.499,6.122 14.583 M15.617 14.577 C 15.271 14.727,15.001 15.133,15.001 15.500 C 15.001 15.886,15.304 16.318,15.665 16.445 C 15.780 16.486,16.069 16.500,16.780 16.500 C 17.641 16.500,17.754 16.492,17.880 16.425 C 18.137 16.288,18.261 16.171,18.379 15.956 C 18.659 15.441,18.427 14.814,17.869 14.581 C 17.669 14.498,15.807 14.494,15.617 14.577 M6.803 20.000 L 7.480 20.000 7.480 20.500 L 7.480 21.000 6.740 21.000 L 6.000 21.000 6.000 20.476 C 6.000 20.014,6.008 19.954,6.063 19.976 C 6.098 19.989,6.431 20.000,6.803 20.000 M18.000 20.480 L 18.000 21.000 17.260 21.000 L 16.520 21.000 16.520 20.501 L 16.520 20.002 17.230 19.990 C 17.620 19.983,17.953 19.974,17.970 19.969 C 17.987 19.964,18.000 20.194,18.000 20.480" stroke="none" fill-rule="evenodd"/></svg>