<?xml version="1.0" encoding="UTF-8" standalone="no"?>
<svg xmlns="http://www.w3.org/2000/svg" width="24" height="24"><path d="M11.700 4.058 C 11.612 4.087,11.036 4.391,10.420 4.735 L 9.300 5.360 6.478 5.360 L 3.656 5.360 3.444 5.465 C 3.321 5.527,3.187 5.634,3.123 5.722 C 2.981 5.919,1.122 9.329,1.055 9.517 C 0.938 9.844,1.025 10.245,1.269 10.495 C 1.497 10.730,1.687 10.808,2.089 10.831 L 2.440 10.851 2.440 14.421 L 2.440 17.991 2.291 18.019 C 1.823 18.107,1.481 18.521,1.480 19.003 C 1.480 19.426,1.799 19.852,2.197 19.959 C 2.301 19.987,5.481 19.997,12.085 19.990 C 21.360 19.980,21.827 19.977,21.964 19.908 C 22.589 19.597,22.735 18.786,22.255 18.305 C 22.115 18.166,21.905 18.056,21.708 18.019 L 21.560 17.991 21.560 14.421 L 21.560 10.851 21.911 10.831 C 22.313 10.808,22.503 10.730,22.731 10.495 C 22.975 10.244,23.062 9.844,22.945 9.515 C 22.887 9.354,21.142 6.138,20.935 5.812 C 20.844 5.667,20.738 5.566,20.592 5.482 L 20.380 5.361 17.540 5.360 L 14.700 5.360 13.580 4.735 C 12.964 4.392,12.381 4.086,12.284 4.055 C 12.069 3.988,11.911 3.989,11.700 4.058 M13.027 6.720 C 14.118 7.327,15.410 8.162,15.585 8.375 C 15.653 8.457,15.729 8.593,15.754 8.677 C 15.787 8.787,15.800 10.095,15.800 13.415 L 15.800 18.000 15.360 18.000 L 14.920 18.000 14.920 16.047 C 14.920 13.874,14.915 13.829,14.661 13.532 C 14.583 13.441,14.434 13.325,14.330 13.274 L 14.140 13.180 12.000 13.180 L 9.860 13.180 9.673 13.272 C 9.569 13.323,9.422 13.435,9.345 13.520 C 9.086 13.806,9.080 13.865,9.080 16.047 L 9.080 18.000 8.640 18.000 L 8.200 18.000 8.200 13.410 C 8.200 10.555,8.215 8.767,8.239 8.680 C 8.310 8.426,8.519 8.237,9.294 7.729 C 10.178 7.149,11.952 6.149,12.040 6.182 C 12.073 6.195,12.517 6.437,13.027 6.720 M6.633 7.390 C 6.626 7.407,6.563 7.537,6.493 7.680 C 6.358 7.958,6.261 8.290,6.217 8.630 L 6.190 8.840 4.931 8.840 L 3.672 8.840 3.770 8.670 C 3.824 8.576,4.007 8.244,4.178 7.930 L 4.487 7.360 5.567 7.360 C 6.161 7.360,6.641 7.373,6.633 7.390 M19.822 7.930 C 19.993 8.244,20.176 8.576,20.230 8.670 L 20.328 8.840 19.069 8.840 L 17.810 8.840 17.783 8.630 C 17.738 8.284,17.641 7.956,17.497 7.662 C 17.421 7.510,17.360 7.379,17.360 7.372 C 17.360 7.366,17.844 7.360,18.437 7.360 L 19.513 7.360 19.822 7.930 M11.405 7.543 C 11.094 7.627,10.662 7.866,10.416 8.091 C 9.829 8.627,9.545 9.484,9.696 10.260 C 9.879 11.196,10.612 11.943,11.541 12.140 C 12.053 12.248,12.516 12.186,13.034 11.940 C 13.442 11.746,13.889 11.299,14.094 10.880 C 14.662 9.721,14.220 8.342,13.091 7.749 C 12.938 7.668,12.707 7.575,12.578 7.541 C 12.285 7.465,11.692 7.466,11.405 7.543 M12.237 9.577 C 12.413 9.764,12.323 10.127,12.088 10.178 C 11.917 10.216,11.764 10.140,11.700 9.987 C 11.635 9.830,11.658 9.696,11.772 9.570 C 11.887 9.444,12.115 9.447,12.237 9.577 M6.200 14.420 L 6.200 18.000 5.320 18.000 L 4.440 18.000 4.440 14.420 L 4.440 10.840 5.320 10.840 L 6.200 10.840 6.200 14.420 M19.560 14.420 L 19.560 18.000 18.680 18.000 L 17.800 18.000 17.800 14.420 L 17.800 10.840 18.680 10.840 L 19.560 10.840 19.560 14.420 M12.920 16.580 L 12.920 18.000 12.020 18.000 L 11.120 18.000 11.120 16.580 L 11.120 15.160 12.020 15.160 L 12.920 15.160 12.920 16.580" stroke="none" fill-rule="evenodd"/></svg>