<?xml version="1.0" encoding="UTF-8" standalone="no"?>
<svg xmlns:dc="http://purl.org/dc/elements/1.1/" xmlns:cc="http://creativecommons.org/ns#" xmlns:rdf="http://www.w3.org/1999/02/22-rdf-syntax-ns#" xmlns:svg="http://www.w3.org/2000/svg" xmlns="http://www.w3.org/2000/svg" xmlns:sodipodi="http://sodipodi.sourceforge.net/DTD/sodipodi-0.dtd" xmlns:inkscape="http://www.inkscape.org/namespaces/inkscape" version="1.1" id="Ebene_1" x="0px" y="0px" viewBox="0 0 110.80001 147.8" enable-background="new 0 0 240.9 154.5" xml:space="preserve" sodipodi:docname="red_exclaim_arrow_down.svg" width="110.8" height="147.8" inkscape:version="0.92.4 (5da689c313, 2019-01-14)"><metadata id="metadata843"><rdf:RDF><cc:Work rdf:about=""><dc:format>image/svg+xml</dc:format><dc:type rdf:resource="http://purl.org/dc/dcmitype/StillImage"/></cc:Work></rdf:RDF></metadata><defs id="defs841"/><sodipodi:namedview pagecolor="#ffffff" bordercolor="#666666" borderopacity="1" objecttolerance="10" gridtolerance="10" guidetolerance="10" inkscape:pageopacity="0" inkscape:pageshadow="2" inkscape:window-width="1920" inkscape:window-height="1001" id="namedview839" showgrid="false" showguides="true" inkscape:zoom="5.0767955" inkscape:cx="47.071011" inkscape:cy="38.498215" inkscape:window-x="-9" inkscape:window-y="-9" inkscape:window-maximized="1" inkscape:current-layer="Ebene_1"/><polyline points="96,126 145.8,126 121,150.9" id="polyline830" style="fill:#010202" transform="translate(-65.5,-3.0999985)"/><circle cx="55.400002" cy="55.400002" r="55.400002" id="circle832" style="fill:#d60000"/><g enable-background="new" id="g836" transform="translate(-65.5,-3.0999985)"><path d="m 114,93.6 c 0,-2.9 0.7,-5.1 2.3,-6.6 1.5,-1.5 3.5,-2.2 6.1,-2.2 2.7,0 4.8,0.7 6.4,2.2 1.5,1.5 2.2,3.7 2.2,6.6 0,2.9 -0.7,5 -2.3,6.6 -1.5,1.5 -3.7,2.3 -6.3,2.3 -2.6,0 -4.6,-0.8 -6.1,-2.3 -1.5,-1.6 -2.3,-3.8 -2.3,-6.6 z m 1.3,-74.5 h 14.4 V 57.7 L 127,76.8 h -8.8 l -2.9,-19.2 c 0,0 0,-38.5 0,-38.5 z" id="path834" inkscape:connector-curvature="0" style="fill:#ffffff"/></g></svg>