<?xml version="1.0" encoding="UTF-8" standalone="no"?>
<svg width="24" height="24" viewBox="0 0 24 24" version="1.1" id="svg1" sodipodi:docname="gen-alarm-clock.svg" inkscape:version="1.3.2 (091e20e, 2023-11-25)" xmlns:inkscape="http://www.inkscape.org/namespaces/inkscape" xmlns:sodipodi="http://sodipodi.sourceforge.net/DTD/sodipodi-0.dtd" xmlns="http://www.w3.org/2000/svg" xmlns:svg="http://www.w3.org/2000/svg"><path d="M4.640 2.068 C 4.488 2.121,4.209 2.380,2.829 3.755 C 1.684 4.895,1.172 5.432,1.112 5.556 C 0.696 6.415,1.585 7.304,2.444 6.888 C 2.568 6.828,3.104 6.316,4.245 5.171 C 5.698 3.712,5.876 3.519,5.935 3.343 C 6.064 2.954,5.979 2.577,5.701 2.299 C 5.423 2.021,5.027 1.935,4.640 2.068 M18.643 2.069 C 18.291 2.193,18.000 2.614,18.000 3.000 C 18.000 3.080,18.029 3.234,18.065 3.343 C 18.124 3.519,18.302 3.712,19.755 5.171 C 20.896 6.316,21.432 6.828,21.556 6.888 C 22.415 7.304,23.304 6.415,22.888 5.556 C 22.828 5.432,22.316 4.896,21.171 3.755 C 19.712 2.302,19.519 2.124,19.343 2.065 C 19.101 1.985,18.876 1.986,18.643 2.069 M11.320 4.025 C 9.112 4.227,7.177 5.118,5.652 6.632 C 3.549 8.721,2.594 11.774,3.167 14.580 C 3.408 15.767,4.044 17.152,4.823 18.189 C 4.942 18.348,5.040 18.491,5.040 18.507 C 5.040 18.523,4.611 18.969,4.086 19.498 C 3.258 20.333,3.123 20.486,3.066 20.657 C 2.936 21.045,3.020 21.422,3.299 21.701 C 3.578 21.980,3.955 22.064,4.343 21.934 C 4.514 21.877,4.667 21.742,5.502 20.914 C 6.031 20.389,6.477 19.960,6.493 19.960 C 6.509 19.960,6.652 20.058,6.811 20.177 C 8.342 21.326,10.259 22.000,12.000 22.000 C 13.738 22.000,15.661 21.325,17.189 20.177 C 17.348 20.058,17.491 19.960,17.507 19.960 C 17.523 19.960,17.969 20.389,18.498 20.914 C 19.333 21.742,19.486 21.877,19.657 21.934 C 20.045 22.064,20.422 21.980,20.701 21.701 C 20.980 21.422,21.064 21.045,20.934 20.657 C 20.877 20.486,20.742 20.333,19.914 19.498 C 19.389 18.969,18.960 18.523,18.960 18.507 C 18.960 18.491,19.058 18.348,19.177 18.189 C 20.329 16.655,21.000 14.739,21.000 12.986 C 21.000 8.563,17.715 4.763,13.320 4.101 C 12.908 4.039,11.676 3.992,11.320 4.025 M13.120 6.095 C 15.602 6.511,17.633 8.165,18.537 10.508 C 18.846 11.308,18.976 12.045,18.976 13.000 C 18.976 13.950,18.846 14.693,18.542 15.481 C 17.486 18.216,14.889 20.004,11.981 19.999 C 8.531 19.993,5.628 17.479,5.075 14.020 C 5.009 13.607,5.009 12.393,5.075 11.980 C 5.482 9.431,7.134 7.379,9.519 6.458 C 10.069 6.246,10.623 6.120,11.440 6.024 C 11.704 5.992,12.780 6.038,13.120 6.095 M11.664 8.063 C 11.436 8.146,11.257 8.297,11.131 8.511 L 11.020 8.700 11.009 10.916 C 10.999 12.894,11.005 13.153,11.064 13.336 C 11.124 13.519,11.246 13.657,12.255 14.671 C 13.436 15.859,13.558 15.956,13.922 15.991 C 14.347 16.032,14.797 15.743,14.934 15.340 C 15.017 15.095,15.018 14.907,14.934 14.657 C 14.877 14.486,14.744 14.334,13.934 13.518 L 13.000 12.576 13.000 10.715 C 13.000 8.605,12.999 8.597,12.701 8.299 C 12.429 8.027,12.018 7.933,11.664 8.063" stroke="none" fill-rule="evenodd"/></svg>