<?xml version="1.0" encoding="UTF-8" standalone="no"?>
<svg width="24" height="24" viewBox="0 0 24 24" version="1.1" xmlns="http://www.w3.org/2000/svg"><path d="M6.692 2.044 C 5.910 2.114,5.252 2.345,4.681 2.752 C 4.299 3.024,4.095 3.221,3.829 3.579 C 3.347 4.227,3.121 4.850,3.042 5.748 C 3.016 6.052,3.001 8.866,3.000 13.663 C 3.000 21.944,2.980 21.366,3.272 21.667 C 3.490 21.892,3.690 21.977,4.000 21.979 C 4.190 21.980,4.304 21.957,4.422 21.895 C 4.511 21.848,5.056 21.466,5.633 21.045 C 6.211 20.624,6.698 20.280,6.716 20.280 C 6.735 20.280,7.180 20.624,7.705 21.044 C 8.230 21.464,8.730 21.844,8.815 21.888 C 9.045 22.005,9.340 22.023,9.572 21.934 C 9.678 21.893,10.267 21.494,10.882 21.047 L 12.000 20.234 13.118 21.047 C 13.733 21.494,14.322 21.893,14.428 21.934 C 14.660 22.023,14.955 22.005,15.185 21.888 C 15.270 21.844,15.770 21.464,16.295 21.044 C 16.820 20.624,17.265 20.280,17.284 20.280 C 17.302 20.280,17.789 20.624,18.367 21.045 C 18.944 21.466,19.489 21.848,19.578 21.895 C 19.696 21.957,19.810 21.980,20.000 21.979 C 20.310 21.977,20.510 21.892,20.728 21.667 C 21.020 21.366,21.000 21.944,21.000 13.663 C 20.999 8.866,20.984 6.052,20.958 5.748 C 20.879 4.850,20.653 4.227,20.171 3.579 C 19.904 3.221,19.700 3.022,19.320 2.753 C 18.719 2.328,18.106 2.117,17.252 2.042 C 16.688 1.993,7.249 1.994,6.692 2.044 M17.491 4.090 C 18.200 4.235,18.764 4.798,18.910 5.506 C 18.967 5.786,18.976 6.547,18.989 12.432 L 19.003 19.044 18.572 18.729 C 17.789 18.157,17.729 18.118,17.540 18.054 C 17.315 17.977,17.035 18.000,16.813 18.114 C 16.729 18.157,16.230 18.536,15.705 18.956 C 15.180 19.376,14.735 19.720,14.716 19.720 C 14.698 19.720,14.211 19.376,13.633 18.955 C 13.056 18.534,12.511 18.152,12.422 18.105 C 12.198 17.988,11.802 17.988,11.578 18.105 C 11.489 18.152,10.944 18.534,10.367 18.955 C 9.789 19.376,9.302 19.720,9.284 19.720 C 9.265 19.720,8.820 19.376,8.295 18.956 C 7.770 18.536,7.271 18.157,7.187 18.114 C 6.965 18.000,6.685 17.977,6.460 18.054 C 6.271 18.118,6.211 18.157,5.428 18.729 L 4.997 19.044 5.011 12.432 C 5.027 5.180,5.019 5.428,5.263 5.011 C 5.519 4.575,5.991 4.201,6.391 4.118 C 6.862 4.020,7.474 4.010,12.260 4.018 C 16.572 4.026,17.218 4.035,17.491 4.090 M15.180 7.059 C 15.092 7.092,15.011 7.119,15.001 7.119 C 14.990 7.120,14.086 8.015,12.991 9.109 L 11.001 11.098 10.270 10.371 C 9.816 9.919,9.483 9.620,9.391 9.582 C 9.207 9.505,8.802 9.502,8.626 9.575 C 8.437 9.654,8.209 9.866,8.109 10.056 C 7.988 10.285,7.988 10.716,8.108 10.940 C 8.231 11.170,10.421 13.340,10.609 13.418 C 10.799 13.497,11.200 13.498,11.391 13.418 C 11.595 13.334,16.289 8.648,16.401 8.417 C 16.495 8.223,16.507 7.823,16.425 7.626 C 16.346 7.436,16.133 7.208,15.947 7.113 C 15.736 7.006,15.387 6.981,15.180 7.059" stroke="none" fill-rule="evenodd"/></svg>