<?xml version="1.0" encoding="UTF-8" standalone="no"?>
<svg xmlns="http://www.w3.org/2000/svg" width="24" height="24"><path d="M14.673 2.060 C 14.310 2.177,14.000 2.611,14.000 3.000 C 14.000 3.223,14.120 3.510,14.283 3.679 C 14.578 3.983,14.528 3.975,16.500 4.005 C 18.453 4.034,18.643 4.055,19.030 4.289 C 19.285 4.443,19.581 4.745,19.734 5.006 C 19.794 5.108,19.873 5.324,19.911 5.486 C 19.975 5.757,19.980 6.260,19.980 12.000 C 19.980 18.925,19.994 18.561,19.711 19.030 C 19.557 19.285,19.255 19.581,18.995 19.734 C 18.636 19.943,18.416 19.967,16.500 19.995 C 14.528 20.025,14.578 20.017,14.283 20.321 C 14.120 20.490,14.000 20.777,14.000 21.000 C 14.000 21.413,14.313 21.829,14.711 21.945 C 14.910 22.003,15.133 22.008,16.598 21.988 C 18.267 21.965,18.588 21.941,19.154 21.797 C 20.400 21.479,21.480 20.398,21.798 19.149 C 21.981 18.431,21.980 18.472,21.980 12.000 C 21.980 5.528,21.981 5.569,21.798 4.851 C 21.480 3.602,20.400 2.521,19.154 2.203 C 18.578 2.057,18.274 2.035,16.560 2.017 C 15.120 2.003,14.831 2.009,14.673 2.060 M9.673 6.063 C 9.412 6.143,9.140 6.421,9.061 6.690 C 8.984 6.949,8.984 7.053,9.064 7.323 C 9.125 7.530,9.203 7.616,10.852 9.270 L 12.577 11.000 7.736 11.000 C 3.518 11.000,2.868 11.008,2.690 11.061 C 2.312 11.173,2.000 11.598,2.000 12.000 C 2.000 12.402,2.312 12.827,2.690 12.939 C 2.868 12.992,3.518 13.000,7.736 13.000 L 12.577 13.000 10.852 14.730 C 9.203 16.384,9.125 16.470,9.064 16.677 C 8.984 16.947,8.984 17.051,9.061 17.310 C 9.144 17.589,9.411 17.856,9.690 17.939 C 9.948 18.016,10.052 18.016,10.323 17.937 C 10.533 17.875,10.623 17.790,13.207 15.207 C 15.790 12.623,15.875 12.533,15.937 12.323 C 15.972 12.203,16.000 12.058,16.000 12.000 C 16.000 11.942,15.972 11.797,15.937 11.677 C 15.875 11.467,15.790 11.377,13.207 8.793 C 10.623 6.210,10.533 6.125,10.323 6.063 C 10.061 5.987,9.920 5.987,9.673 6.063" stroke="none" fill-rule="evenodd"/></svg>