<?xml version="1.0" encoding="utf-8"?>\x3c!--Generator: Adobe Illustrator 25.1.0, SVG Export Plug-In . SVG Version: 6.00 Build 0)--\x3e<svg version="1.1" id="Ebene_1" xmlns="http://www.w3.org/2000/svg" xmlns:xlink="http://www.w3.org/1999/xlink" x="0px" y="0px" viewBox="0 0 277 267.5" style="enable-background:new 0 0 277 267.5;" xml:space="preserve"><style type="text/css">.st0{opacity:0.18;} \t.st1{fill:#FFB800;} \t.st2{fill:#4562A2;} \t.st3{fill:#2C426D;} \t.st4{fill-rule:evenodd;clip-rule:evenodd;} \t.st5{fill-rule:evenodd;clip-rule:evenodd;fill:#FFB800;}</style><g><polygon class="st0" points="277,165 162.8981628,165 59.25,237 183,237"/><polygon class="st0" points="82.5,267.3995056 130,245 77,245"/><path class="st1" d="M150,210H15c-8.2842712,0-15-6.7157288-15-15V15C0,6.7157288,6.7157288,0,15,0h135 c8.2842712,0,15,6.7157288,15,15v180C165,203.2842712,158.2842712,210,150,210z"/><path class="st2" d="M165,80V15c0-8.2843018-6.7157593-15-15-15H15C6.7156982,0,0,6.7156982,0,15v65H165z"/><polygon class="st3" points="112.8108902,215 82.5,267.5 52.1891098,215"/><g><circle class="st4" cx="110.8683472" cy="142.3955231" r="42.1316566"/><circle class="st4" cx="58.1316566" cy="142.3955231" r="42.1316566"/><path class="st5" d="M127.6323395,171.6187897v-9.0818024h-6.8791885v-30.4838562H96.6666107v9.0788422h6.8842773v21.405014 h-6.8842773v9.0818024H127.6323395 M121.7850037,116.568924c0-5.67733-4.6457443-10.3203888-10.3230743-10.3203888 c-5.6746445,0-10.3201218,4.6430588-10.3201218,10.3203888s4.6454773,10.3228073,10.3201218,10.3228073 C117.1392593,126.8917313,121.7850037,122.246254,121.7850037,116.568924z"/><g><path class="st5" d="M78.7461395,123.5763702H53.6149597v42.3810272h25.1311798V123.5763702L78.7461395,123.5763702z M50.6570854,161.8724976l-20.6027107-5.4002991l12.4893761-46.6834106l30.0124931,8.0584335l-0.7296066,2.7300568h9.9064713 v48.3329086H50.6570854V161.8724976L50.6570854,161.8724976L50.6570854,161.8724976z M33.6785393,154.3912506 L33.6785393,154.3912506l10.9514236-40.9339218l24.2729988,6.5171432l-0.166069,0.6250763h-5.6007805l-17.0229149-4.3863907 l-0.7690659,2.8749161l6.2293434,1.5114746h-0.9300728v1.9362564l-5.821743-1.4900742l-0.7706451,2.8749161l6.5923882,1.6965027 v22.596138l-3.1309814-0.8562317l-0.7706223,2.8738708l3.9016037,1.0619659v2.0244751l-4.4069099-1.1971893l-0.7673111,2.8756256 l5.174221,1.40448l0.0136833,2.3978729L33.6785393,154.3912506L33.6785393,154.3912506z M64.8968048,160.5074615h11.8813171 v2.9768219H64.8968048V160.5074615L64.8968048,160.5074615L64.8968048,160.5074615z M55.6171608,125.66082h21.1609612v2.9766464 l-21.1609612-0.0008698V125.66082L55.6171608,125.66082L55.6171608,125.66082z M55.6171608,130.665451h21.1609612v2.9750671 H55.6171608V130.665451L55.6171608,130.665451L55.6171608,130.665451z M64.8968048,155.5747528h11.8813171v2.9768066H64.8968048 V155.5747528L64.8968048,155.5747528z"/></g></g></g></svg>