<?xml version="1.0" encoding="UTF-8" standalone="no"?>
<svg version="1.1" id="Ebene_1" xmlns="http://www.w3.org/2000/svg" xmlns:xlink="http://www.w3.org/1999/xlink" x="0px" y="0px" viewBox="0 0 365 365" style="enable-background:new 0 0 365 365;" xml:space="preserve"><style type="text/css">.st0{fill:#4562A2;} \t.st1{fill:#2C426D;} \t.st2{fill:#FFFFFF;}</style><path class="st0" d="M330,365H35c-19.3299675,0-35-15.6700439-35-35V35C0,15.6700335,15.6700335,0,35,0h295 c19.3299561,0,35,15.6700335,35,35v295C365,349.3299561,349.3299561,365,330,365z"/><path class="st1" d="M0,258v72c0,19.3299561,15.6700439,35,35,35h295c19.3299561,0,35-15.6700439,35-35v-72H0z"/><g><path class="st2" d="M60.7456055,328.5947266l-2.3842773-29.3330078l-5.6557617,29.3330078h-6.8208008l-5.9331055-29.3330078 l-2.1069336,29.3330078h-6.8203125l4.1586914-36.9853516h8.7055664l5.6005859,29.6660156l5.3789062-29.6660156h8.7055664 l4.2143555,36.9853516H60.7456055z"/><path class="st2" d="M89.5771484,328.5947266h-8.8720703L70.2250977,291.609375h7.4858398l7.6523438,31.2744141 l7.5966797-31.2744141h7.152832L89.5771484,328.5947266z"/><path class="st2" d="M119.4516602,329.2050781c-11.5893555,0-16.8012695-7.8193359-16.8012695-19.6855469 c0-10.5351562,6.4873047-18.5205078,18.2431641-18.5205078c4.0478516,0,6.9311523,0.4443359,9.2045898,1.2753906 l-1.2753906,5.3789062c-2.2734375-0.8867188-4.7685547-1.3310547-7.5966797-1.3310547 c-7.9291992,0-11.3120117,5.5449219-11.3120117,13.1416016c0,7.8193359,2.2734375,14.5283203,10.3139648,14.5283203 c1.4418945,0,2.605957-0.2773438,3.659668-0.7207031v-10.2587891h-5.434082v-5.2119141h12.0883789v19.4072266 C127.3808594,328.5947266,123.8876953,329.2050781,119.4516602,329.2050781z"/><path class="st2" d="M180.2768555,328.5947266l-2.3842773-29.3330078l-5.6557617,29.3330078h-6.8208008l-5.9331055-29.3330078 l-2.1069336,29.3330078h-6.8203125l4.1586914-36.9853516h8.7055664l5.6005859,29.6660156l5.3789062-29.6660156h8.7055664 l4.2143555,36.9853516H180.2768555z"/><path class="st2" d="M208.2763672,328.5947266l-0.4990234-3.6044922c-1.1083984,2.4951172-3.7705078,4.1035156-7.2080078,4.1035156 c-5.4345703,0-7.7080078-3.8261719-7.7080078-8.5947266v-19.1855469h6.5986328v18.5205078 c0,2.4394531,0.9980469,4.3798828,3.7705078,4.3798828c3.1054688,0,4.2695312-3.0498047,4.2695312-5.8222656v-17.078125h6.5986328 v27.28125H208.2763672z"/><path class="st2" d="M226.5742188,329.09375c-2.3291016,0-4.6582031-0.2773438-6.8759766-1.0537109l1.2753906-4.8242188 c1.71875,0.9980469,3.7705078,1.2197266,5.7666016,1.2197266c2.4951172,0,3.9921875-1.1640625,3.9921875-3.7705078 c0-5.3232422-10.4794922-2.7724609-10.4794922-11.7001953c0-6.1542969,4.7128906-8.1503906,10.1474609-8.1503906 c2.2177734,0,4.2695312,0.1660156,6.3759766,0.8867188l-1.2753906,4.6025391 c-1.5517578-0.6650391-3.3261719-0.8876953-5.0458984-0.8876953c-2.0517578,0-3.7148438,0.9433594-3.7148438,3.1611328 c0,5.1572266,10.6464844,3.1054688,10.6464844,11.5332031C237.3867188,326.7089844,232.4521484,329.09375,226.5742188,329.09375z"/><path class="st2" d="M248.1425781,316.5615234c0,4.6582031,2.0517578,7.7636719,6.9863281,7.7636719 c1.9960938,0,4.2695312-0.4990234,6.0439453-1.3310547l1.109375,4.7128906 c-2.4951172,1.0537109-6.0439453,1.3867188-8.7060547,1.3867188c-8.6503906,0-12.1435547-6.7646484-12.1435547-14.5283203 c0-6.7089844,3.2714844-13.6962891,11.0898438-13.6962891c8.3183594,0.0556641,10.8134766,6.0449219,10.8134766,13.2529297 v2.4394531H248.1425781z M252.5224609,305.25c-3.4931641,0-4.3798828,4.2138672-4.3798828,6.9316406h8.7607422 C256.9033203,309.2978516,256.2382812,305.25,252.5224609,305.25z"/><path class="st2" d="M284.3496094,328.5947266l-0.4990234-3.6044922c-1.1083984,2.4951172-3.7705078,4.1035156-7.2080078,4.1035156 c-5.4345703,0-7.7080078-3.8261719-7.7080078-8.5947266v-19.1855469h6.5986328v18.5205078 c0,2.4394531,0.9980469,4.3798828,3.7705078,4.3798828c3.1054688,0,4.2695312-3.0498047,4.2695312-5.8222656v-17.078125h6.5986328 v27.28125H284.3496094z"/><path class="st2" d="M325.6035156,328.5947266v-18.7421875c0-2.3847656-0.9980469-4.3251953-3.4941406-4.3251953 c-2.9384766,0-3.9365234,3.1054688-3.9365234,5.8222656v17.2451172h-6.5429688v-18.7421875 c0-2.6064453-0.9980469-4.3251953-3.4931641-4.3251953c-2.8837891,0-3.9375,3.2158203-3.9375,5.9335938v17.1337891h-6.5986328 v-27.28125h5.8222656l0.4990234,3.6591797c1.109375-2.4951172,3.6601562-4.1582031,6.8759766-4.1582031 c4.3251953,0,6.0439453,2.2177734,6.9316406,4.1582031c0.9980469-2.3291016,3.3818359-4.1582031,7.0419922-4.1582031 c5.1015625,0,7.4306641,3.7705078,7.4306641,8.5390625v19.2412109H325.6035156z"/></g><g><rect x="158.733017" y="171.0630951" class="st2" width="48.8047943" height="34.1760406"/><path class="st2" d="M278,135v70h6.0855408h51.8678894H339v-70H278z M315,141h14v21h-14V141z M329,176v20h-14v-20H329z M289,141h12 v21h-12V141z M301,176v20h-12v-20H301z"/><path class="st2" d="M26,135v70h5.1896992h51.8679047H87v-70H26z M62,141h14v21H62V141z M76,176v20H62v-20H76z M36,141h12v21H36 V141z M48,176v20H36v-20H48z"/><path class="st2" d="M183,83.2391434l-89,30.5V205h60v-38h58v38h60v-91.2608566L183,83.2391434z M126,122.8087997 C134,123.7708435,137.9524231,129,139.0701447,135H126V122.8087997z M122,196h-14v-20h14V196z M122,162h-14v-23h14V162z M122,135 h-14.2411957C108.9196472,129,116,123.3539276,122,122.7072678V135z M140,196h-14v-20h14V196z M140,162h-14v-23h14V162z M196,114.2282715C203,118.3737564,209.1954041,126,210.2780762,135H196V114.2282715z M170,162h-15v-23h15V162z M170,135 h-15.2616272C155.8210297,126,163,118.3737564,170,114.2282715V135z M192,162h-18.294693H174v-23h7.8295441H192V162z M192,135h-18 v-22.3691177C177,111.7059174,179.3213654,111,182.4045868,111h0.1036377h0.1036224 C185.6950836,111,189,111.7059174,192,112.6308823V135z M211,162h-15v-23h15V162z M244,122.7072678 C250,123.3539276,256.0968018,129,257.2576294,135H244V122.7072678z M240,196h-14v-20h14V196z M240,162h-14v-23h14V162z M240,135 h-14.0536957C227.0640259,129,233,123.7708435,240,122.8087997V135z M258,196h-14v-20h14V196z M258,162h-14v-23h14V162z"/></g></svg>