<?xml version="1.0" encoding="UTF-8" standalone="no"?>
<svg xmlns="http://www.w3.org/2000/svg" width="24" height="24"><path d="M18.940 1.066 C 18.293 1.170,17.668 1.459,17.175 1.884 C 17.062 1.981,16.308 2.744,15.500 3.580 C 14.614 4.495,13.996 5.104,13.945 5.111 C 13.898 5.117,12.024 4.696,9.780 4.175 C 5.898 3.274,5.681 3.228,5.300 3.228 C 4.842 3.228,4.578 3.304,4.229 3.536 C 3.954 3.718,2.496 5.199,2.325 5.469 C 1.672 6.502,2.049 7.784,3.161 8.309 C 3.347 8.397,4.702 8.869,6.170 9.358 C 7.639 9.847,8.840 10.259,8.840 10.274 C 8.840 10.288,8.295 10.845,7.629 11.511 L 6.418 12.721 5.319 12.597 C 4.576 12.513,4.091 12.478,3.820 12.487 C 3.455 12.500,3.392 12.515,3.100 12.653 C 2.817 12.788,2.710 12.875,2.167 13.413 C 1.829 13.747,1.472 14.132,1.374 14.269 C 0.937 14.875,0.885 15.622,1.231 16.320 C 1.428 16.717,1.737 16.967,3.426 18.096 L 5.009 19.154 6.034 20.690 C 6.598 21.535,7.137 22.318,7.232 22.431 C 7.856 23.175,9.007 23.347,9.800 22.814 C 10.080 22.626,11.156 21.570,11.340 21.303 C 11.516 21.046,11.644 20.689,11.670 20.378 C 11.681 20.234,11.636 19.642,11.558 18.925 L 11.426 17.714 12.648 16.492 L 13.870 15.270 14.640 17.585 C 15.794 21.053,15.865 21.228,16.274 21.610 C 16.637 21.950,17.094 22.121,17.637 22.119 C 18.319 22.116,18.605 21.946,19.649 20.923 C 20.502 20.088,20.714 19.819,20.840 19.412 C 21.006 18.872,21.017 18.933,19.959 14.348 C 19.430 12.057,19.003 10.161,19.009 10.135 C 19.015 10.109,19.696 9.379,20.523 8.514 C 22.246 6.710,22.216 6.744,22.434 6.406 C 23.145 5.302,23.133 3.742,22.404 2.639 C 21.932 1.925,21.207 1.391,20.395 1.159 C 20.103 1.075,19.231 1.019,18.940 1.066 M20.140 3.157 C 20.439 3.304,20.728 3.599,20.864 3.897 C 21.068 4.344,21.018 4.932,20.742 5.340 C 20.667 5.450,19.895 6.284,19.025 7.193 C 18.155 8.102,17.389 8.928,17.323 9.028 C 17.083 9.390,17.022 9.613,17.022 10.120 C 17.023 10.579,17.026 10.593,17.977 14.694 L 18.932 18.807 18.285 19.454 C 17.768 19.970,17.630 20.088,17.600 20.040 C 17.579 20.007,17.046 18.432,16.415 16.540 C 15.785 14.648,15.242 13.046,15.210 12.980 C 14.992 12.536,14.497 12.321,14.014 12.459 C 13.783 12.526,13.756 12.551,11.848 14.453 C 10.740 15.558,9.848 16.480,9.758 16.614 C 9.536 16.945,9.431 17.301,9.433 17.720 C 9.434 17.907,9.489 18.537,9.556 19.120 L 9.678 20.180 9.204 20.655 L 8.730 21.129 7.639 19.497 C 7.039 18.600,6.473 17.792,6.380 17.703 C 6.288 17.613,5.499 17.065,4.626 16.484 C 3.754 15.903,3.040 15.413,3.040 15.397 C 3.040 15.380,3.231 15.166,3.464 14.923 C 3.792 14.581,3.913 14.480,3.994 14.479 C 4.052 14.478,4.628 14.536,5.273 14.607 C 6.631 14.755,6.800 14.746,7.320 14.494 C 7.604 14.356,7.723 14.246,9.571 12.405 C 11.676 10.308,11.720 10.256,11.720 9.862 C 11.719 9.532,11.652 9.367,11.426 9.141 L 11.220 8.935 7.650 7.743 C 5.686 7.088,4.071 6.537,4.060 6.520 C 4.049 6.502,4.325 6.196,4.674 5.839 C 5.166 5.335,5.324 5.196,5.384 5.213 C 5.426 5.226,7.305 5.663,9.560 6.184 C 13.189 7.023,13.699 7.132,14.000 7.132 C 14.398 7.133,14.744 7.031,15.066 6.819 C 15.182 6.744,15.983 5.952,16.886 5.020 C 17.774 4.105,18.582 3.304,18.681 3.240 C 19.103 2.968,19.689 2.935,20.140 3.157" stroke="none" fill-rule="evenodd"/></svg>