<?xml version="1.0" encoding="UTF-8" standalone="no"?>
<svg xmlns="http://www.w3.org/2000/svg" width="24" height="24"><path d="M4.378 1.058 C 2.674 1.323,1.320 2.686,1.058 4.400 C 0.972 4.968,0.972 19.032,1.058 19.600 C 1.284 21.077,2.308 22.297,3.732 22.785 C 4.373 23.005,4.181 23.000,12.000 23.000 C 19.819 23.000,19.627 23.005,20.268 22.785 C 21.689 22.298,22.717 21.073,22.942 19.600 C 23.028 19.032,23.028 4.968,22.942 4.400 C 22.716 2.923,21.692 1.703,20.268 1.215 C 19.626 0.995,19.826 1.000,11.960 1.004 C 6.366 1.007,4.626 1.019,4.378 1.058 M19.492 3.060 C 19.852 3.153,20.118 3.310,20.404 3.596 C 20.690 3.882,20.847 4.148,20.940 4.508 C 21.030 4.854,21.030 19.146,20.940 19.492 C 20.847 19.852,20.690 20.118,20.404 20.404 C 20.118 20.690,19.852 20.847,19.492 20.940 C 19.146 21.030,4.854 21.030,4.508 20.940 C 4.148 20.847,3.882 20.690,3.596 20.404 C 3.310 20.118,3.153 19.852,3.060 19.492 C 2.970 19.146,2.970 4.854,3.060 4.508 C 3.153 4.148,3.310 3.882,3.596 3.596 C 3.876 3.316,4.146 3.154,4.491 3.062 C 4.815 2.974,19.158 2.972,19.492 3.060 M7.860 7.549 C 7.590 7.586,7.090 7.728,6.772 7.858 C 5.800 8.254,4.982 9.018,4.500 9.980 C 3.853 11.272,3.846 12.693,4.479 13.985 C 4.936 14.916,5.753 15.703,6.679 16.105 C 7.242 16.348,7.675 16.444,8.320 16.468 C 8.992 16.492,9.432 16.432,9.987 16.240 C 10.633 16.016,11.136 15.701,11.670 15.185 L 12.000 14.866 12.330 15.185 C 12.512 15.360,12.750 15.568,12.860 15.646 C 13.392 16.026,14.074 16.310,14.730 16.424 C 15.270 16.519,16.131 16.482,16.628 16.344 C 17.629 16.067,18.437 15.535,19.040 14.755 C 20.301 13.123,20.301 10.878,19.042 9.248 C 18.435 8.463,17.635 7.934,16.636 7.658 C 16.131 7.518,15.273 7.481,14.730 7.576 C 13.809 7.736,13.043 8.129,12.349 8.796 L 11.999 9.133 11.669 8.815 C 11.488 8.640,11.250 8.432,11.140 8.354 C 10.615 7.979,9.928 7.691,9.296 7.580 C 8.977 7.525,8.162 7.507,7.860 7.549 M9.283 9.625 C 9.780 9.779,10.283 10.160,10.600 10.620 L 10.724 10.800 9.727 10.800 C 9.179 10.800,8.634 10.818,8.515 10.840 C 8.256 10.889,8.024 11.042,7.862 11.273 C 7.763 11.414,7.740 11.492,7.727 11.724 C 7.707 12.069,7.782 12.289,7.991 12.498 C 8.277 12.785,8.243 12.779,9.632 12.792 L 10.884 12.804 10.857 12.892 C 10.733 13.293,10.286 13.829,9.825 14.126 C 9.443 14.373,9.026 14.487,8.498 14.488 C 8.111 14.489,8.013 14.474,7.716 14.372 C 7.529 14.308,7.275 14.188,7.151 14.106 C 6.847 13.904,6.448 13.472,6.289 13.172 C 5.911 12.461,5.911 11.539,6.289 10.828 C 6.447 10.531,6.846 10.097,7.142 9.900 C 7.749 9.498,8.545 9.395,9.283 9.625 M16.302 9.637 C 16.705 9.772,17.003 9.969,17.327 10.312 C 17.913 10.934,18.133 11.788,17.921 12.616 C 17.814 13.033,17.630 13.365,17.327 13.688 C 17.001 14.033,16.707 14.226,16.284 14.372 C 15.987 14.474,15.889 14.489,15.502 14.488 C 15.139 14.487,15.002 14.469,14.737 14.384 C 14.000 14.149,13.362 13.529,13.112 12.808 C 13.034 12.579,13.020 12.460,13.020 12.000 C 13.020 11.378,13.091 11.100,13.357 10.690 C 14.006 9.685,15.189 9.262,16.302 9.637" stroke="none" fill-rule="evenodd"/></svg>