<?xml version="1.0" encoding="UTF-8" standalone="no"?>
<svg xmlns="http://www.w3.org/2000/svg" width="24" height="24"><path fill-rule="evenodd" d="M1 12C1 6.513 5.293 2 10.667 2c1.766 0 3.424.491 4.848 1.347a1 1 0 1 1-1.03 1.714A7.4 7.4 0 0 0 10.667 4C6.467 4 3 7.546 3 12s3.468 8 7.667 8c1.39 0 2.693-.385 3.818-1.061a1 1 0 1 1 1.03 1.714A9.4 9.4 0 0 1 10.667 22C5.293 22 1 17.487 1 12m16.293-4.707a1 1 0 0 1 1.414 0l4 4a1 1 0 0 1 0 1.414l-4 4a1 1 0 0 1-1.414-1.414L19.586 13H9a1 1 0 1 1 0-2h10.586l-2.293-2.293a1 1 0 0 1 0-1.414" clip-rule="evenodd"/></svg>