<?xml version="1.0" encoding="UTF-8" standalone="no"?>
<svg width="24" height="24" viewBox="0 0 24 24" version="1.1" id="svg1" sodipodi:docname="gen-speedometer-03.svg" inkscape:version="1.3.2 (091e20e, 2023-11-25)" xmlns:inkscape="http://www.inkscape.org/namespaces/inkscape" xmlns:sodipodi="http://sodipodi.sourceforge.net/DTD/sodipodi-0.dtd" xmlns="http://www.w3.org/2000/svg" xmlns:svg="http://www.w3.org/2000/svg"><path d="M11.069 1.039 C 8.416 1.297,6.084 2.388,4.236 4.236 C 2.536 5.936,1.489 8.019,1.115 10.444 C 0.987 11.273,0.987 12.727,1.115 13.556 C 1.489 15.981,2.536 18.064,4.236 19.764 C 5.936 21.464,8.022 22.513,10.444 22.885 C 11.272 23.012,12.728 23.012,13.556 22.885 C 15.976 22.513,18.065 21.463,19.764 19.764 C 21.182 18.346,22.155 16.647,22.642 14.738 C 23.611 10.940,22.532 7.004,19.764 4.236 C 18.069 2.541,15.955 1.477,13.576 1.120 C 12.946 1.026,11.640 0.984,11.069 1.039 M13.460 3.116 C 15.364 3.442,17.013 4.290,18.361 5.639 C 19.734 7.012,20.582 8.685,20.906 10.660 C 20.961 10.992,20.979 11.321,20.979 12.000 C 20.979 12.679,20.961 13.008,20.906 13.340 C 20.582 15.315,19.734 16.988,18.361 18.361 C 16.988 19.734,15.315 20.582,13.340 20.906 C 13.008 20.961,12.679 20.979,12.000 20.979 C 11.321 20.979,10.992 20.961,10.660 20.906 C 8.685 20.582,7.012 19.734,5.639 18.361 C 4.266 16.988,3.418 15.315,3.094 13.340 C 2.992 12.721,2.992 11.279,3.094 10.660 C 3.418 8.685,4.266 7.012,5.639 5.639 C 7.144 4.134,9.024 3.253,11.220 3.025 C 11.636 2.981,12.995 3.037,13.460 3.116 M11.220 4.044 C 8.239 4.351,5.693 6.265,4.583 9.033 C 4.290 9.761,4.124 10.451,4.041 11.274 C 3.985 11.839,3.989 12.069,4.061 12.310 C 4.173 12.688,4.598 13.000,5.000 13.000 C 5.238 13.000,5.514 12.880,5.697 12.696 C 5.922 12.472,5.984 12.268,6.015 11.660 C 6.169 8.620,8.620 6.169,11.660 6.015 C 12.268 5.984,12.472 5.922,12.696 5.697 C 12.880 5.514,13.000 5.238,13.000 5.000 C 13.000 4.763,12.880 4.486,12.697 4.303 C 12.406 4.012,12.081 3.955,11.220 4.044 M16.080 6.601 C 15.947 6.662,15.445 7.138,14.152 8.430 L 12.403 10.176 12.227 10.088 C 12.020 9.985,11.909 9.980,11.564 10.062 C 10.557 10.299,9.867 11.302,10.032 12.290 C 10.176 13.153,10.847 13.824,11.710 13.968 C 12.698 14.133,13.701 13.443,13.938 12.436 C 14.020 12.091,14.015 11.980,13.912 11.773 L 13.825 11.597 15.587 9.829 C 17.549 7.860,17.504 7.917,17.473 7.426 C 17.452 7.093,17.298 6.832,17.023 6.662 C 16.762 6.501,16.354 6.474,16.080 6.601" stroke="none" fill-rule="evenodd"/></svg>