<?xml version="1.0" encoding="UTF-8" standalone="no"?>
<svg xmlns="http://www.w3.org/2000/svg" width="24" height="24"><path d="M15.609 1.059 C 15.193 1.177,14.918 1.392,14.647 1.812 C 14.443 2.129,9.621 10.827,9.310 11.440 C 9.025 12.000,8.963 12.276,9.035 12.665 C 9.166 13.374,9.669 13.858,10.380 13.959 C 10.767 14.014,21.291 14.013,21.640 13.959 C 22.340 13.849,22.836 13.364,22.965 12.665 C 23.027 12.326,22.974 12.015,22.787 11.623 C 22.607 11.245,17.557 2.129,17.351 1.809 C 17.028 1.307,16.617 1.052,16.080 1.017 C 15.921 1.007,15.738 1.023,15.609 1.059 M18.360 7.705 C 19.647 10.028,20.706 11.945,20.713 11.965 C 20.721 11.985,18.730 12.000,16.000 12.000 C 13.335 12.000,11.279 11.985,11.287 11.965 C 11.324 11.866,15.983 3.481,16.000 3.481 C 16.011 3.481,17.073 5.382,18.360 7.705 M15.667 6.065 C 15.399 6.147,15.145 6.408,15.063 6.684 C 14.989 6.932,14.974 8.086,15.042 8.329 C 15.105 8.557,15.316 8.803,15.555 8.928 C 16.087 9.206,16.743 8.939,16.939 8.365 C 17.025 8.114,17.025 6.978,16.939 6.690 C 16.856 6.411,16.589 6.144,16.310 6.061 C 16.061 5.987,15.919 5.988,15.667 6.065 M2.260 7.055 C 1.781 7.173,1.372 7.516,1.147 7.991 L 1.020 8.260 1.020 12.240 L 1.020 16.220 1.110 16.440 C 1.293 16.890,1.631 17.215,2.110 17.406 C 2.330 17.493,2.399 17.497,3.670 17.512 L 5.000 17.527 5.000 19.515 C 5.000 21.635,5.009 21.745,5.204 22.127 C 5.321 22.358,5.603 22.647,5.832 22.772 C 6.193 22.968,6.414 23.000,7.420 23.000 C 8.701 23.000,8.914 22.938,9.430 22.416 C 9.805 22.036,9.880 21.987,10.012 22.037 C 10.068 22.058,10.247 22.207,10.409 22.368 C 10.979 22.932,11.210 23.000,12.540 23.000 C 13.559 23.000,13.785 22.971,14.127 22.796 C 14.358 22.679,14.647 22.397,14.772 22.168 C 14.993 21.762,15.000 21.676,15.000 19.514 L 15.000 17.524 16.610 17.512 C 18.393 17.499,18.389 17.499,18.675 17.228 C 19.103 16.822,19.096 16.148,18.659 15.765 C 18.377 15.517,18.403 15.520,16.576 15.520 L 14.909 15.520 14.714 15.321 C 14.516 15.121,14.248 15.000,14.000 15.000 C 13.765 15.000,13.474 15.124,13.299 15.299 C 12.994 15.604,13.000 15.543,13.000 18.447 L 13.000 21.000 12.428 21.000 L 11.857 21.000 11.678 20.815 C 11.455 20.583,10.984 20.270,10.699 20.163 C 10.238 19.991,9.564 19.993,9.144 20.168 C 8.850 20.291,8.451 20.563,8.222 20.797 L 8.023 21.000 7.512 21.000 L 7.000 21.000 7.000 16.500 C 7.000 12.802,7.009 12.000,7.053 12.000 C 7.082 12.000,7.198 11.973,7.310 11.939 C 7.688 11.827,8.000 11.402,8.000 11.000 C 8.000 10.762,7.880 10.486,7.696 10.303 C 7.405 10.011,7.298 9.993,5.911 10.008 C 4.742 10.020,4.737 10.020,4.539 10.122 C 3.727 10.540,3.891 11.765,4.786 11.965 L 5.000 12.013 5.000 13.766 L 5.000 15.520 4.000 15.520 L 3.000 15.520 3.000 12.260 L 3.000 9.000 5.850 9.000 L 8.700 8.999 8.900 8.906 C 9.672 8.546,9.696 7.510,8.943 7.107 L 8.780 7.020 5.620 7.013 C 3.237 7.008,2.411 7.018,2.260 7.055 M15.578 9.595 C 15.375 9.688,15.109 9.987,15.047 10.192 C 14.942 10.545,15.013 10.873,15.255 11.148 C 15.464 11.385,15.670 11.478,15.991 11.479 C 16.284 11.480,16.448 11.421,16.655 11.239 C 16.888 11.034,16.978 10.829,16.978 10.500 C 16.978 10.290,16.956 10.179,16.891 10.056 C 16.791 9.866,16.563 9.654,16.374 9.575 C 16.185 9.496,15.774 9.507,15.578 9.595" stroke="none" fill-rule="evenodd"/></svg>