<?xml version="1.0" encoding="UTF-8" standalone="no"?>
<svg xmlns="http://www.w3.org/2000/svg" width="24" height="24"><path d="M7.411 4.059 C 6.919 4.169,6.390 4.539,6.116 4.966 C 6.033 5.096,5.822 5.645,5.538 6.475 C 5.207 7.441,5.076 7.775,5.035 7.761 C 5.005 7.751,4.502 7.736,3.917 7.728 C 3.025 7.717,2.812 7.725,2.597 7.781 C 1.801 7.986,1.176 8.652,1.040 9.440 C 1.011 9.613,1.000 10.308,1.008 11.520 C 1.020 13.305,1.022 13.345,1.113 13.600 C 1.361 14.298,1.963 14.832,2.670 14.981 C 2.991 15.049,4.511 15.062,4.841 15.000 C 4.958 14.978,5.061 14.968,5.071 14.978 C 5.081 14.987,5.277 15.595,5.506 16.328 C 5.736 17.060,5.973 17.759,6.032 17.879 C 6.195 18.211,6.599 18.599,6.960 18.772 C 7.407 18.985,7.615 19.007,9.042 18.991 C 10.210 18.978,10.319 18.971,10.563 18.889 C 11.166 18.687,11.702 18.145,11.891 17.542 L 11.980 17.260 11.980 11.500 L 11.980 5.740 11.891 5.458 C 11.702 4.856,11.167 4.313,10.563 4.111 C 10.316 4.028,10.220 4.022,8.980 4.013 C 7.973 4.006,7.601 4.017,7.411 4.059 M14.131 4.059 C 13.410 4.220,12.771 4.839,12.578 5.565 C 12.493 5.886,12.493 17.114,12.578 17.435 C 12.784 18.207,13.462 18.829,14.243 18.961 C 14.729 19.042,15.075 18.945,15.310 18.659 C 15.455 18.484,15.520 18.279,15.520 18.000 C 15.520 17.471,15.230 17.107,14.738 17.018 C 14.651 17.002,14.558 16.972,14.530 16.950 C 14.458 16.893,14.456 6.120,14.528 6.048 C 14.563 6.013,14.846 6.000,15.549 6.000 C 16.520 6.000,16.522 6.000,16.560 6.090 C 16.582 6.140,16.806 6.843,17.060 7.653 L 17.520 9.126 17.520 9.983 L 17.520 10.840 18.500 10.840 L 19.480 10.840 19.481 10.330 C 19.481 10.050,19.496 9.797,19.514 9.769 C 19.538 9.730,19.716 9.721,20.263 9.729 L 20.980 9.740 20.980 11.380 L 20.980 13.020 20.285 13.031 C 19.816 13.038,19.573 13.027,19.536 12.997 C 19.498 12.965,19.479 12.817,19.471 12.486 L 19.460 12.020 18.500 12.020 L 17.540 12.020 17.517 12.900 C 17.494 13.745,17.488 13.796,17.367 14.177 C 17.161 14.821,17.201 15.126,17.534 15.458 C 17.681 15.605,17.794 15.680,17.930 15.717 C 18.413 15.852,18.927 15.622,19.123 15.183 L 19.194 15.024 20.107 15.035 C 21.163 15.048,21.442 15.008,21.872 14.781 C 22.339 14.536,22.700 14.114,22.888 13.595 C 22.978 13.345,22.980 13.305,22.992 11.520 C 23.000 10.308,22.989 9.613,22.960 9.440 C 22.823 8.641,22.178 7.964,21.379 7.778 C 21.160 7.728,20.913 7.717,20.140 7.727 L 19.174 7.740 18.778 6.480 C 18.417 5.328,18.365 5.194,18.180 4.920 C 17.934 4.557,17.529 4.247,17.126 4.112 C 16.877 4.029,16.780 4.022,15.620 4.013 C 14.680 4.006,14.320 4.017,14.131 4.059 M9.980 11.500 L 9.980 16.980 8.915 16.991 C 8.094 16.999,7.842 16.990,7.811 16.951 C 7.789 16.923,7.543 16.170,7.265 15.277 L 6.760 13.654 6.760 12.851 C 6.760 12.156,6.752 12.045,6.697 12.024 C 6.662 12.011,6.195 12.000,5.659 12.000 C 4.924 12.000,4.677 12.012,4.652 12.050 C 4.635 12.078,4.611 12.307,4.600 12.560 L 4.580 13.020 3.800 13.020 L 3.020 13.020 3.020 11.380 L 3.020 9.740 3.810 9.729 L 4.600 9.718 4.600 10.216 C 4.600 10.490,4.611 10.742,4.624 10.777 C 4.646 10.832,4.779 10.840,5.704 10.840 L 6.760 10.840 6.760 9.963 L 6.760 9.086 7.265 7.593 C 7.543 6.772,7.789 6.077,7.811 6.049 C 7.842 6.010,8.094 6.001,8.915 6.009 L 9.980 6.020 9.980 11.500 M16.673 16.063 C 16.412 16.143,16.140 16.421,16.061 16.690 C 15.984 16.949,15.984 17.053,16.064 17.322 C 16.124 17.524,16.196 17.607,17.102 18.520 L 18.076 19.500 17.102 20.480 C 16.196 21.393,16.125 21.475,16.064 21.677 C 15.984 21.947,15.984 22.051,16.061 22.310 C 16.144 22.589,16.411 22.856,16.690 22.939 C 16.949 23.016,17.053 23.016,17.323 22.936 C 17.525 22.875,17.607 22.804,18.520 21.898 L 19.500 20.924 20.480 21.898 C 21.393 22.804,21.476 22.876,21.678 22.936 C 21.947 23.016,22.051 23.016,22.310 22.939 C 22.589 22.856,22.856 22.589,22.939 22.310 C 23.016 22.051,23.016 21.947,22.936 21.678 C 22.876 21.476,22.804 21.393,21.898 20.480 L 20.924 19.500 21.898 18.520 C 22.804 17.607,22.875 17.525,22.936 17.323 C 23.016 17.053,23.016 16.949,22.939 16.690 C 22.856 16.411,22.589 16.144,22.310 16.061 C 22.051 15.984,21.947 15.984,21.678 16.064 C 21.476 16.124,21.393 16.196,20.480 17.102 L 19.500 18.076 18.520 17.102 C 17.607 16.196,17.525 16.125,17.323 16.064 C 17.062 15.987,16.921 15.987,16.673 16.063" stroke="none" fill-rule="evenodd"/></svg>