<?xml version="1.0" encoding="UTF-8" standalone="no"?>
<svg xmlns="http://www.w3.org/2000/svg" width="24" height="24"><g><path fill-rule="evenodd" d="M7.06 6v2h8V6zm-2-.9A1.1 1.1 0 0 1 6.16 4h9.8a1.1 1.1 0 0 1 1.1 1.1v3.8a1.1 1.1 0 0 1-1.1 1.1h-9.8a1.1 1.1 0 0 1-1.1-1.1z" clip-rule="evenodd"/><path d="m4.002 3 .056 18H6.06a1 1 0 1 1 0 2H3.366c-.72 0-1.304-.583-1.306-1.303L2 2.311A1.307 1.307 0 0 1 3.307 1h15.455c.721 0 1.306.585 1.306 1.307V13a1 1 0 1 1-2 0V3z"/><path fill-rule="evenodd" d="M15.076 11.002a1 1 0 0 1 .857.486l5.985 9.998A1 1 0 0 1 21.06 23h-12a1 1 0 0 1-.857-1.515l6.015-9.999a1 1 0 0 1 .858-.484M10.83 21h8.467l-4.223-7.055z" clip-rule="evenodd"/><path d="M14.063 16.503a1 1 0 0 1 2 0v1a1 1 0 1 1-2 0zM14.057 19.795a1 1 0 0 1 1-1h.006a1 1 0 1 1 0 2h-.006a1 1 0 0 1-1-1"/></g></svg>