<?xml version="1.0" encoding="UTF-8" standalone="no"?>
<svg xmlns="http://www.w3.org/2000/svg" width="24" height="24"><path d="M19.640 5.068 C 19.483 5.121,18.796 5.793,14.230 10.354 L 9.000 15.579 6.790 13.371 C 4.424 11.008,4.418 11.002,4.020 11.001 C 3.722 11.000,3.551 11.062,3.339 11.249 C 3.097 11.462,3.002 11.669,3.001 11.982 C 2.999 12.429,2.954 12.377,5.829 15.245 C 8.219 17.629,8.478 17.876,8.657 17.935 C 8.906 18.017,9.093 18.017,9.343 17.935 C 9.524 17.876,9.988 17.423,15.171 12.245 C 19.285 8.135,20.825 6.573,20.887 6.444 C 21.285 5.627,20.509 4.771,19.640 5.068" stroke="none" fill-rule="evenodd"/></svg>