<?xml version="1.0" encoding="UTF-8" standalone="no"?>
<svg xmlns="http://www.w3.org/2000/svg" width="24" height="24"><path d="M9.842 1.044 C 9.363 1.137,8.892 1.517,8.668 1.989 C 8.549 2.241,8.540 2.290,8.540 2.680 C 8.541 3.073,8.549 3.117,8.672 3.369 C 9.298 4.653,11.103 4.653,11.728 3.369 C 11.850 3.118,11.859 3.072,11.859 2.680 C 11.860 2.290,11.851 2.241,11.732 1.989 C 11.391 1.270,10.630 0.889,9.842 1.044 M8.360 4.836 C 8.078 4.913,4.352 6.471,4.181 6.583 C 4.124 6.621,4.028 6.734,3.968 6.836 L 3.860 7.020 3.860 8.520 L 3.860 10.020 3.971 10.209 C 4.295 10.759,5.105 10.759,5.429 10.209 L 5.540 10.020 5.553 8.952 C 5.567 7.887,5.567 7.884,5.663 7.788 C 5.743 7.708,7.031 7.174,7.061 7.209 C 7.066 7.215,6.578 9.668,5.976 12.660 C 5.375 15.652,4.882 18.136,4.881 18.180 C 4.879 18.368,4.978 18.588,5.135 18.745 C 5.572 19.183,6.372 19.028,6.576 18.467 C 6.610 18.375,6.938 16.968,7.305 15.340 C 7.672 13.712,7.986 12.365,8.003 12.346 C 8.029 12.316,9.599 13.266,9.800 13.434 C 9.878 13.499,9.877 13.508,9.696 14.360 C 9.488 15.336,9.485 15.485,9.669 15.713 C 9.851 15.939,10.057 16.039,10.342 16.039 C 10.775 16.041,11.189 15.747,11.260 15.388 C 11.274 15.317,11.421 14.730,11.587 14.081 C 11.801 13.243,11.882 12.859,11.868 12.752 C 11.832 12.482,11.709 12.349,11.190 12.016 C 10.920 11.844,10.473 11.556,10.195 11.375 L 9.690 11.048 9.927 9.854 C 10.057 9.197,10.172 8.636,10.182 8.606 C 10.194 8.572,10.341 8.686,10.587 8.919 C 11.414 9.701,12.427 10.237,13.532 10.476 C 14.168 10.614,14.437 10.578,14.648 10.326 C 14.970 9.945,14.873 9.342,14.445 9.059 C 14.360 9.002,14.092 8.904,13.848 8.840 C 12.966 8.609,12.421 8.306,11.838 7.722 C 11.506 7.389,11.382 7.222,10.879 6.420 C 10.530 5.863,10.223 5.421,10.101 5.300 C 9.631 4.832,8.993 4.662,8.360 4.836 M14.000 15.000 L 14.000 17.000 11.000 17.000 L 8.000 17.000 8.000 19.000 L 8.000 21.000 5.425 21.000 C 2.631 21.000,2.668 20.997,2.374 21.222 C 2.301 21.277,2.192 21.408,2.131 21.511 C 2.036 21.672,2.020 21.744,2.020 22.000 C 2.020 22.256,2.036 22.328,2.131 22.489 C 2.192 22.592,2.301 22.723,2.374 22.778 C 2.675 23.008,2.538 23.000,6.425 23.000 L 10.000 23.000 10.000 21.000 L 10.000 19.000 13.000 19.000 L 16.000 19.000 16.000 17.000 L 16.000 15.000 18.533 15.000 C 21.463 15.000,21.366 15.010,21.701 14.666 C 21.918 14.444,22.000 14.247,22.000 13.955 C 21.999 13.586,21.677 13.152,21.326 13.046 C 21.213 13.013,20.191 13.000,17.585 13.000 L 14.000 13.000 14.000 15.000" stroke="none" fill-rule="evenodd"/></svg>