<?xml version="1.0" encoding="UTF-8" standalone="no"?>
<svg xmlns="http://www.w3.org/2000/svg" width="16" height="16" fill="none"><path fill="#fff" fill-rule="evenodd" d="M4.025 14.913.05 8l3.975-6.913h7.95L15.95 8l-3.975 6.913h-7.95" clip-rule="evenodd"/><path fill="#933588" fill-rule="evenodd" d="M4.277 14.406.555 8l3.722-6.406h7.445L15.445 8l-3.723 6.406H4.277" clip-rule="evenodd"/><path fill="#fff" d="M5.682 8.352c.006.22-.043.437-.142.632-.09.171-.22.317-.38.428a1.688 1.688 0 0 1-.54.245c-.205.054-.415.08-.626.08-.194 0-.386-.007-.579-.02a2.488 2.488 0 0 1-.567-.106l.013-.782c.135.063.278.109.425.134.147.028.296.043.446.045.101 0 .202-.008.303-.024a.796.796 0 0 0 .27-.09.538.538 0 0 0 .194-.185.558.558 0 0 0 .077-.304.474.474 0 0 0-.13-.355 1.192 1.192 0 0 0-.32-.212 4.025 4.025 0 0 0-.415-.166 1.592 1.592 0 0 1-.415-.212 1.117 1.117 0 0 1-.32-.358c-.085-.148-.128-.348-.128-.6-.006-.203.04-.405.133-.586.088-.163.21-.304.357-.414.152-.114.324-.198.507-.249.192-.056.391-.083.59-.083.186 0 .372.011.556.034.186.022.37.058.551.106l-.191.755a1.798 1.798 0 0 0-.383-.116 2.224 2.224 0 0 0-.4-.036c-.085 0-.168.007-.251.023a.606.606 0 0 0-.208.08.405.405 0 0 0-.142.155.536.536 0 0 0-.053.252.425.425 0 0 0 .134.331c.097.086.208.156.326.209.13.06.271.12.425.179.152.058.295.136.426.232.134.1.245.228.326.375.09.154.134.355.134.603h-.003M6.5 9.664v-4.42h2.57v.754H7.562v1.015h1.391v.742h-1.39v1.147H9.15v.762H6.5M12.032 9.664h-1.306l-1.24-4.42h1.122l.79 3.552.792-3.553h1.081l-1.24 4.42M3.18 10.591a.217.217 0 0 1-.086.181.273.273 0 0 1-.09.045.395.395 0 0 1-.105.014c-.03 0-.058 0-.086-.004a.422.422 0 0 1-.083-.018v-.116a.391.391 0 0 0 .203.025.142.142 0 0 0 .05-.02.097.097 0 0 0 .034-.036.12.12 0 0 0 .013-.059.096.096 0 0 0-.023-.068.186.186 0 0 0-.055-.039.65.65 0 0 0-.073-.03.276.276 0 0 1-.073-.036.187.187 0 0 1-.056-.063.251.251 0 0 1 0-.207.199.199 0 0 1 .06-.07.259.259 0 0 1 .085-.04.38.38 0 0 1 .101-.014.617.617 0 0 1 .162.022l-.029.112a.328.328 0 0 0-.177-.02.096.096 0 0 0-.04.015.079.079 0 0 0-.028.032.112.112 0 0 0-.01.053.09.09 0 0 0 .022.065c.017.017.036.03.057.04a.768.768 0 0 0 .073.03.32.32 0 0 1 .074.04.196.196 0 0 1 .056.062.2.2 0 0 1 .024.104M3.667 10.807a.198.198 0 0 1-.066.016.742.742 0 0 1-.077.005.244.244 0 0 1-.118-.026.204.204 0 0 1-.075-.07.274.274 0 0 1-.039-.096.534.534 0 0 1-.011-.11c0-.037.005-.073.016-.107a.246.246 0 0 1 .246-.176c.022 0 .044 0 .066.004a.243.243 0 0 1 .056.014l-.024.096a.157.157 0 0 0-.045-.011l-.044-.003a.111.111 0 0 0-.064.017.122.122 0 0 0-.04.045.208.208 0 0 0-.02.06.405.405 0 0 0 .002.142.19.19 0 0 0 .021.064c.01.019.025.035.043.045a.132.132 0 0 0 .07.016.184.184 0 0 0 .04-.005.138.138 0 0 0 .04-.015l.023.1v-.005M4.074 10.817v-.386a.11.11 0 0 0-.02-.065.073.073 0 0 0-.063-.027.078.078 0 0 0-.045.012.086.086 0 0 0-.028.03.118.118 0 0 0-.016.038.207.207 0 0 0-.004.045v.355h-.135v-.822H3.9v.327a.145.145 0 0 1 .056-.062.172.172 0 0 1 .089-.022c.025 0 .05.004.072.014a.146.146 0 0 1 .081.096c.006.022.01.046.01.07v.397h-.134M4.395 10.817v-.467h-.076v-.1h.212v.566h-.136m.145-.747a.078.078 0 0 1-.025.058.089.089 0 0 1-.12 0 .078.078 0 0 1-.018-.089.078.078 0 0 1 .018-.026.089.089 0 0 1 .12 0 .077.077 0 0 1 .025.057M4.976 10.476a.366.366 0 0 0-.004-.045.16.16 0 0 0-.013-.047.093.093 0 0 0-.027-.036.077.077 0 0 0-.045-.014.068.068 0 0 0-.044.015.107.107 0 0 0-.028.036.18.18 0 0 0-.014.047.295.295 0 0 0-.004.045l.179-.001m-.181.09a.186.186 0 0 0 .033.116.13.13 0 0 0 .11.045.292.292 0 0 0 .126-.028l.023.098a.338.338 0 0 1-.09.022.68.68 0 0 1-.09.007.257.257 0 0 1-.116-.024.207.207 0 0 1-.077-.066.28.28 0 0 1-.045-.096.447.447 0 0 1 0-.219.29.29 0 0 1 .04-.09.207.207 0 0 1 .175-.09.233.233 0 0 1 .107.023.19.19 0 0 1 .069.06c.018.027.03.058.037.09.007.034.01.07.01.105v.051l-.312-.005M5.536 10.817v-.386a.116.116 0 0 0-.019-.066.068.068 0 0 0-.061-.027.077.077 0 0 0-.045.011.096.096 0 0 0-.029.03.148.148 0 0 0-.016.04.213.213 0 0 0-.005.045v.354h-.136v-.568h.122l.01.076a.143.143 0 0 1 .059-.063.181.181 0 0 1 .094-.023c.025 0 .05.004.073.014a.15.15 0 0 1 .08.096c.007.022.01.046.01.07v.397h-.137M6.114 10.476a.368.368 0 0 0-.004-.045.16.16 0 0 0-.013-.047.093.093 0 0 0-.027-.036.075.075 0 0 0-.045-.014.068.068 0 0 0-.044.015.107.107 0 0 0-.028.036.18.18 0 0 0-.014.047.294.294 0 0 0-.004.045l.179-.001m-.182.09a.186.186 0 0 0 .034.116.13.13 0 0 0 .11.045.288.288 0 0 0 .126-.028l.022.098a.33.33 0 0 1-.089.022.68.68 0 0 1-.089.007.258.258 0 0 1-.115-.024.207.207 0 0 1-.077-.066.28.28 0 0 1-.045-.096.447.447 0 0 1-.001-.219.29.29 0 0 1 .04-.09.207.207 0 0 1 .176-.09.23.23 0 0 1 .107.023.196.196 0 0 1 .069.06c.018.027.03.058.036.09.008.034.011.07.011.105v.051l-.315-.005M6.674 10.817v-.386a.116.116 0 0 0-.019-.066.068.068 0 0 0-.061-.027.077.077 0 0 0-.045.011.096.096 0 0 0-.029.03.148.148 0 0 0-.016.04.213.213 0 0 0-.005.045v.354h-.136v-.568h.12l.01.076a.143.143 0 0 1 .058-.063.181.181 0 0 1 .095-.023c.025 0 .05.004.073.014a.15.15 0 0 1 .08.096c.006.022.01.046.01.07v.397h-.135M7.251 10.476a.367.367 0 0 0-.003-.045.173.173 0 0 0-.013-.047.099.099 0 0 0-.028-.036.076.076 0 0 0-.046-.014.068.068 0 0 0-.045.015.113.113 0 0 0-.028.036.179.179 0 0 0-.014.047.293.293 0 0 0-.004.045l.181-.001m-.18.09a.19.19 0 0 0 .033.116.134.134 0 0 0 .11.045.294.294 0 0 0 .126-.028l.023.098a.346.346 0 0 1-.09.023.696.696 0 0 1-.09.006.257.257 0 0 1-.115-.024.213.213 0 0 1-.078-.066.28.28 0 0 1-.044-.096.447.447 0 0 1-.002-.219.282.282 0 0 1 .041-.09.204.204 0 0 1 .175-.089.231.231 0 0 1 .107.023.192.192 0 0 1 .07.06c.017.027.03.057.036.09.007.034.011.07.011.105v.05l-.314-.005M7.776 10.368a.151.151 0 0 0-.038-.006.09.09 0 0 0-.05.013.095.095 0 0 0-.03.033.14.14 0 0 0-.015.045.343.343 0 0 0-.004.052v.31h-.137v-.565h.124l.01.075a.179.179 0 0 1 .06-.065.145.145 0 0 1 .077-.02h.021a.095.095 0 0 1 .021.005l-.039.121v.002M8.232 10.641a.195.195 0 0 1-.017.087.165.165 0 0 1-.049.058.198.198 0 0 1-.07.032.384.384 0 0 1-.087.01.351.351 0 0 1-.142-.022l.026-.1a.15.15 0 0 0 .057.02c.02.003.042.004.062.004a.092.092 0 0 0 .061-.018.077.077 0 0 0 .022-.06.06.06 0 0 0-.016-.045.159.159 0 0 0-.04-.027.87.87 0 0 0-.053-.023.212.212 0 0 1-.052-.028.145.145 0 0 1-.04-.045.15.15 0 0 1-.016-.074.169.169 0 0 1 .018-.08.139.139 0 0 1 .044-.053.192.192 0 0 1 .066-.028.354.354 0 0 1 .08-.008.323.323 0 0 1 .132.018l-.026.096a.196.196 0 0 0-.05-.015.455.455 0 0 0-.054-.004.094.094 0 0 0-.055.015.057.057 0 0 0-.022.05.057.057 0 0 0 .016.043.137.137 0 0 0 .04.028.786.786 0 0 0 .054.024.238.238 0 0 1 .053.03.15.15 0 0 1 .04.044.138.138 0 0 1 .017.071h.001M8.613 10.567a.128.128 0 0 0-.03-.007.301.301 0 0 0-.045-.003.083.083 0 0 0-.07.028.103.103 0 0 0-.023.066c0 .022.005.043.017.06a.063.063 0 0 0 .054.024.096.096 0 0 0 .088-.054.082.082 0 0 0 .007-.035v-.079h.002m.015.25-.01-.067a.176.176 0 0 1-.06.057.166.166 0 0 1-.083.02.162.162 0 0 1-.124-.044.175.175 0 0 1-.042-.124.18.18 0 0 1 .016-.078.162.162 0 0 1 .045-.057.189.189 0 0 1 .068-.035.323.323 0 0 1 .14-.008l.036.006v-.063a.08.08 0 0 0-.025-.065.109.109 0 0 0-.07-.02.38.38 0 0 0-.067.006.233.233 0 0 0-.067.023l-.023-.095a.292.292 0 0 1 .09-.026.777.777 0 0 1 .093-.006.224.224 0 0 1 .15.044.147.147 0 0 1 .05.118v.311c0 .018 0 .035.003.053l.007.052-.127-.002M9.176 10.814a.19.19 0 0 1-.05.011c-.018 0-.04.003-.064.003-.093 0-.14-.052-.14-.156v-.322h-.08v-.1h.08v-.129l.137-.039v.166h.109v.102h-.109v.289a.127.127 0 0 0 .013.068.048.048 0 0 0 .045.019h.026a.07.07 0 0 0 .025-.006l.01.093h-.002M9.23 10.817v-.09l.23-.376h-.216v-.1h.369v.09l-.23.373h.236v.103H9.23M9.976 10.817h-.145l-.17-.567h.146l.1.438.1-.438h.14l-.17.567M10.522 10.476a.37.37 0 0 0-.004-.045.162.162 0 0 0-.013-.047.093.093 0 0 0-.027-.036.076.076 0 0 0-.047-.014.068.068 0 0 0-.044.015.107.107 0 0 0-.028.036.166.166 0 0 0-.014.047.304.304 0 0 0-.004.045l.18-.001m-.181.09a.19.19 0 0 0 .033.116.135.135 0 0 0 .111.045.295.295 0 0 0 .125-.028l.023.098a.339.339 0 0 1-.09.023.68.68 0 0 1-.088.006.261.261 0 0 1-.116-.024.213.213 0 0 1-.077-.066.285.285 0 0 1-.045-.096.448.448 0 0 1-.001-.219.3.3 0 0 1 .04-.09.205.205 0 0 1 .176-.089.23.23 0 0 1 .107.023.2.2 0 0 1 .105.15.5.5 0 0 1 .011.105v.05l-.314-.005M11.046 10.368a.152.152 0 0 0-.038-.006.089.089 0 0 0-.05.013.096.096 0 0 0-.03.033.14.14 0 0 0-.016.045.297.297 0 0 0-.004.052v.31h-.137v-.565h.124l.01.075a.186.186 0 0 1 .06-.065.144.144 0 0 1 .077-.02h.021a.094.094 0 0 1 .021.005l-.038.121v.002M11.464 10.817l-.154-.274v.274h-.135v-.82h.135v.479l.15-.226h.147l-.174.248.185.319h-.154M11.977 10.476a.372.372 0 0 0-.003-.045.174.174 0 0 0-.013-.047.097.097 0 0 0-.028-.036.076.076 0 0 0-.047-.014.068.068 0 0 0-.044.015.108.108 0 0 0-.028.036.198.198 0 0 0-.014.047.293.293 0 0 0-.004.045l.181-.001m-.18.09a.189.189 0 0 0 .033.116.13.13 0 0 0 .11.045.296.296 0 0 0 .125-.028l.023.098a.33.33 0 0 1-.089.022.682.682 0 0 1-.091.007.257.257 0 0 1-.115-.024.215.215 0 0 1-.077-.066.29.29 0 0 1-.045-.096.467.467 0 0 1-.001-.219.3.3 0 0 1 .04-.09.207.207 0 0 1 .175-.09.232.232 0 0 1 .108.023.19.19 0 0 1 .068.06.24.24 0 0 1 .037.09c.008.034.012.07.011.105v.051l-.313-.005M12.539 10.817v-.386a.114.114 0 0 0-.019-.065.074.074 0 0 0-.064-.027.08.08 0 0 0-.073.041.13.13 0 0 0-.015.04.204.204 0 0 0-.005.044v.355h-.136v-.822h.136v.327a.144.144 0 0 1 .056-.062.173.173 0 0 1 .09-.022.148.148 0 0 1 .153.11c.006.022.01.046.01.07v.397h-.133M13.101 10.368a.15.15 0 0 0-.037-.006.09.09 0 0 0-.05.013.096.096 0 0 0-.03.033.139.139 0 0 0-.016.045.342.342 0 0 0-.004.052v.31h-.138v-.565h.124l.01.075a.183.183 0 0 1 .06-.065.143.143 0 0 1 .077-.02h.02a.096.096 0 0 1 .022.005l-.039.121.001.002"/></svg>