<?xml version="1.0" encoding="UTF-8" standalone="no"?>
<svg xmlns="http://www.w3.org/2000/svg" width="24" height="24"><path d="M11.069 1.039 C 8.822 1.258,6.868 2.041,5.101 3.432 C 4.640 3.795,3.606 4.863,3.231 5.363 C 2.075 6.906,1.379 8.590,1.093 10.540 C 0.995 11.212,0.995 12.788,1.093 13.460 C 1.379 15.409,2.074 17.091,3.230 18.637 C 3.685 19.244,4.756 20.315,5.363 20.770 C 6.909 21.926,8.591 22.621,10.540 22.907 C 11.212 23.005,12.788 23.005,13.460 22.907 C 15.409 22.621,17.091 21.926,18.637 20.770 C 19.244 20.315,20.315 19.244,20.770 18.637 C 21.926 17.091,22.621 15.409,22.907 13.460 C 22.959 13.104,22.977 12.727,22.977 12.000 C 22.977 11.273,22.959 10.896,22.907 10.540 C 22.621 8.590,21.925 6.906,20.769 5.363 C 20.394 4.863,19.360 3.795,18.899 3.432 C 17.302 2.175,15.548 1.412,13.580 1.120 C 12.946 1.026,11.638 0.984,11.069 1.039 M13.280 3.062 C 16.487 3.510,19.196 5.659,20.414 8.721 C 20.822 9.746,21.014 10.797,21.014 12.000 C 21.014 13.512,20.705 14.810,20.027 16.140 C 18.865 18.420,16.649 20.170,14.160 20.773 C 13.351 20.969,12.922 21.017,12.000 21.017 C 11.078 21.017,10.650 20.969,9.840 20.773 C 8.621 20.478,7.297 19.821,6.329 19.031 C 4.542 17.575,3.390 15.544,3.055 13.258 C 2.959 12.607,2.959 11.393,3.055 10.742 C 3.391 8.451,4.577 6.367,6.348 4.956 C 7.785 3.810,9.492 3.142,11.380 2.985 C 11.753 2.954,12.818 2.997,13.280 3.062 M6.336 7.842 C 4.949 8.023,4.019 8.985,3.844 10.420 C 3.788 10.881,3.787 13.216,3.843 13.627 C 3.983 14.661,4.517 15.437,5.380 15.863 C 5.858 16.099,6.241 16.175,6.819 16.150 C 7.586 16.116,8.201 15.845,8.739 15.302 C 9.350 14.686,9.595 13.970,9.510 13.052 C 9.414 12.023,8.788 11.212,7.810 10.850 C 7.596 10.771,7.440 10.746,7.060 10.731 C 6.547 10.711,6.294 10.750,5.885 10.916 L 5.670 11.003 5.688 10.691 C 5.702 10.461,5.734 10.327,5.812 10.174 C 6.152 9.509,7.005 9.358,7.611 9.855 C 7.709 9.935,7.803 10.000,7.821 10.000 C 7.839 10.000,8.139 9.717,8.487 9.372 L 9.120 8.743 8.970 8.590 C 8.394 8.000,7.365 7.708,6.336 7.842 M10.200 8.010 C 10.200 8.037,10.146 8.987,10.080 10.120 C 10.014 11.253,9.961 12.225,9.961 12.280 C 9.961 12.375,9.997 12.391,10.670 12.591 C 11.061 12.707,11.393 12.802,11.408 12.801 C 11.424 12.800,11.537 12.730,11.660 12.644 C 12.261 12.222,13.009 12.373,13.332 12.980 C 13.448 13.198,13.447 13.596,13.331 13.820 C 12.999 14.456,12.219 14.583,11.718 14.082 C 11.579 13.942,11.518 13.842,11.478 13.688 C 11.449 13.573,11.409 13.480,11.390 13.480 C 11.351 13.480,9.668 13.928,9.646 13.944 C 9.614 13.968,9.820 14.519,9.951 14.760 C 10.122 15.073,10.643 15.603,10.967 15.793 C 11.702 16.224,12.744 16.280,13.536 15.932 C 14.555 15.483,15.192 14.612,15.266 13.563 C 15.344 12.463,14.795 11.457,13.868 11.000 C 13.320 10.730,12.650 10.648,12.084 10.781 C 11.944 10.815,11.819 10.833,11.808 10.822 C 11.797 10.811,11.805 10.554,11.824 10.251 L 11.860 9.700 13.310 9.690 L 14.760 9.679 14.760 8.820 L 14.760 7.960 12.480 7.960 C 10.683 7.960,10.200 7.971,10.200 8.010 M17.280 9.840 L 17.280 10.760 16.360 10.760 L 15.440 10.760 15.440 11.520 L 15.440 12.280 16.360 12.280 L 17.280 12.280 17.280 13.200 L 17.280 14.120 18.020 14.120 L 18.760 14.120 18.760 13.200 L 18.760 12.280 19.680 12.280 L 20.600 12.280 20.600 11.520 L 20.600 10.760 19.680 10.760 L 18.760 10.760 18.760 9.840 L 18.760 8.920 18.020 8.920 L 17.280 8.920 17.280 9.840 M7.111 12.503 C 7.858 12.875,7.859 13.903,7.113 14.284 C 6.638 14.526,6.038 14.322,5.771 13.829 C 5.675 13.651,5.675 13.149,5.771 12.971 C 6.044 12.466,6.628 12.262,7.111 12.503" stroke="none" fill-rule="evenodd"/></svg>