<?xml version="1.0" encoding="UTF-8" standalone="no"?>
<svg xmlns="http://www.w3.org/2000/svg" width="24" height="24"><path d="M5.040 3.027 C 4.614 3.050,4.072 3.127,3.795 3.204 C 2.589 3.538,1.497 4.649,1.186 5.860 C 1.003 6.572,1.000 6.654,1.000 11.857 C 1.001 14.917,1.016 16.959,1.042 17.252 C 1.164 18.645,1.736 19.634,2.831 20.350 C 3.400 20.722,3.919 20.884,4.780 20.958 C 5.425 21.013,18.569 21.014,19.194 20.959 C 19.444 20.937,19.786 20.891,19.954 20.856 C 21.352 20.570,22.570 19.352,22.856 17.954 C 22.986 17.323,22.999 16.736,22.999 11.820 C 22.999 7.206,22.994 6.871,22.924 6.440 C 22.883 6.187,22.827 5.899,22.800 5.800 C 22.597 5.045,21.975 4.192,21.286 3.724 C 20.647 3.290,20.054 3.107,19.069 3.040 C 18.567 3.006,5.649 2.994,5.040 3.027 M19.460 5.075 C 19.819 5.146,20.109 5.308,20.401 5.599 C 20.658 5.857,20.851 6.178,20.893 6.420 C 20.914 6.540,20.885 6.561,16.801 9.420 C 14.539 11.004,12.577 12.359,12.441 12.430 C 12.261 12.524,12.140 12.560,12.000 12.560 C 11.860 12.560,11.739 12.524,11.559 12.430 C 11.423 12.359,9.461 11.004,7.199 9.420 C 3.104 6.553,3.086 6.540,3.108 6.420 C 3.185 6.014,3.658 5.435,4.080 5.233 C 4.298 5.129,4.693 5.051,5.120 5.026 C 5.241 5.019,8.463 5.016,12.280 5.020 C 17.464 5.026,19.281 5.039,19.460 5.075 M5.450 10.637 C 6.589 11.433,7.520 12.092,7.520 12.100 C 7.520 12.109,6.867 12.706,6.070 13.427 C 5.272 14.147,4.256 15.068,3.810 15.471 L 3.000 16.206 3.000 12.559 L 3.000 8.913 3.190 9.051 C 3.294 9.127,4.311 9.840,5.450 10.637 M20.990 14.372 L 20.980 16.185 18.740 14.160 C 17.508 13.046,16.500 12.122,16.500 12.105 C 16.500 12.089,17.508 11.369,18.740 10.505 L 20.980 8.934 20.990 10.747 C 20.996 11.744,20.996 13.376,20.990 14.372 M9.800 13.684 C 10.791 14.376,11.214 14.540,12.000 14.540 C 12.795 14.540,13.179 14.390,14.206 13.678 L 14.773 13.284 14.924 13.412 C 15.008 13.482,16.281 14.629,17.754 15.960 L 20.433 18.380 20.338 18.481 C 20.172 18.656,19.823 18.839,19.517 18.911 C 19.241 18.975,18.707 18.980,12.000 18.980 C 5.293 18.980,4.759 18.975,4.483 18.911 C 4.176 18.839,3.828 18.656,3.662 18.481 L 3.568 18.380 6.391 15.832 C 7.944 14.431,9.234 13.296,9.257 13.310 C 9.281 13.324,9.525 13.492,9.800 13.684" stroke="none" fill-rule="evenodd"/></svg>