<?xml version="1.0" encoding="UTF-8" standalone="no"?>
<svg version="1.1" id="Ebene_1" xmlns="http://www.w3.org/2000/svg" xmlns:xlink="http://www.w3.org/1999/xlink" x="0px" y="0px" viewBox="0 0 277 267.5" style="enable-background:new 0 0 277 267.5;" xml:space="preserve"><style type="text/css">.st0{opacity:0.18;} \t.st1{fill:#FFB800;} \t.st2{fill:#4562A2;} \t.st3{fill:#2C426D;} \t.st4{fill-rule:evenodd;clip-rule:evenodd;} \t.st5{fill-rule:evenodd;clip-rule:evenodd;stroke:#4562A2;stroke-width:0.3934429;stroke-miterlimit:22.9256001;} \t.st6{fill-rule:evenodd;clip-rule:evenodd;stroke:#FFB800;stroke-width:0.3934429;stroke-miterlimit:22.9256001;}</style><g><polygon class="st0" points="277,165 162.8981628,165 59.25,237 183,237"/><polygon class="st0" points="82.5,267.3995056 130,245 77,245"/><path class="st1" d="M150,210H15c-8.2842712,0-15-6.7157288-15-15V15C0,6.7157288,6.7157288,0,15,0h135 c8.2842712,0,15,6.7157288,15,15v180C165,203.2842712,158.2842712,210,150,210z"/><path class="st2" d="M165,80V15c0-8.2843018-6.7157593-15-15-15H15C6.7156982,0,0,6.7156982,0,15v65H165z"/><polygon class="st3" points="112.8108902,215 82.5,267.5 52.1891098,215"/><g><path class="st4" d="M124.5089111,128.0096436c5.6089478,0,10.1574707-4.5550537,10.1574707-10.1639404 c0-5.6083984-4.5485229-10.1502686-10.1574707-10.1502686c-5.6082764,0-10.1567383,4.5418701-10.1567383,10.1502686 C114.3521729,123.4545898,118.9006348,128.0096436,124.5089111,128.0096436z"/><path class="st4" d="M104.3039551,176h0.2697144C107.1821289,176,109,173.7640381,110,171.2075195V145.368042 c0-0.6420898,0.2324219-0.9505615,0.7080688-0.9505615c0.4690552,0,0.819458,0.307312,0.819458,0.9494019L111.5048218,198H123 v-22.0129395c0-0.725708,0.4921875-1.092041,1.000061-1.0664062C124.5072632,174.8950195,125,175.2613525,125,175.9870605V198 h12.2791748l0.0614624-52.6331177c0-0.6420898,0.3638916-0.9499817,0.8329468-0.9499817 c0.4624634,0,0.826416,0.3090515,0.826416,0.9511414v25.8394775C139,173.7640381,141.6304932,176,144.225769,176h0.2697144 C147.225647,176,149,173.5654297,149,170.8411865v-28.8907471C149,136.4250488,144.9579468,132,139.4391479,132h-30.0663452 C103.8480835,132,99,136.4250488,99,141.9504395v28.8907471C99,173.5654297,101.5803833,176,104.3039551,176z"/><g><path class="st5" d="M81.7493896,169.2474823c5.4431534,0,5.4431534-8.0704956,0-8.0704956H14.6841106v8.0704956H81.7493896z"/><path class="st6" d="M91.7462845,140.8931885c-0.2169418-2.8353424-2.8318787-4.7972717-5.4449768-4.5803375 l-14.8422928,1.5280457l-8.9269638-13.9582901c-2.8309669-4.1446304-6.532608-6.763031-11.5408096-6.763031 c-2.8309669,0-5.6610222,1.0921707-7.8391685,2.8353424c-0.2171211,0.2187576-13.7173138,11.341713-13.7173138,11.341713 c-0.6537342,0.6546478-1.0894356,1.5262299-1.5253201,2.3978271c-0.4349728,1.3090973-0.4349728,2.838974,0.4358845,3.9275055 l9.5814266,14.3941803c1.5234985,1.9637451,4.3544846,2.3996429,6.3147583,1.0903473 c1.9593849-1.3072815,2.3943558-3.9256897,1.0887108-6.1065674l-6.9684944-10.2511902l1.0885239-0.8717651l7.1856155,10.4683075 c1.7431717,2.6184082,1.0885277,6.3255157-1.5236778,8.0705109c-2.8309517,1.7449799-6.5326118,1.0903473-8.2748718-1.5280609 l-3.2659416-5.0162201l-2.3950825,9.3777924h26.7825527l3.4837723-14.8298798l2.6129341,3.7089233 c1.088707,1.9601135,3.2668533,2.3978119,5.2262344,2.3978119l18.1082077-1.9621124 C90.0031128,146.3452759,92.1821671,143.7286987,91.7462845,140.8931885z"/><path class="st5" d="M71.241188,107.3059082c0-5.4530106-4.3546677-10.0324326-10.0156937-10.0324326 c-5.6619186,0-10.2342529,4.579422-10.2342529,10.0324326c0,5.6708603,4.5723343,10.2511902,10.2342529,10.2511902 C66.8865204,117.5570984,71.241188,112.9767685,71.241188,107.3059082z"/></g></g></g></svg>