<?xml version="1.0" encoding="UTF-8" standalone="no"?>
<svg xmlns="http://www.w3.org/2000/svg" width="24" height="24"><path d="M10.220 2.043 C 8.382 2.228,7.175 3.001,6.130 4.661 C 5.906 5.017,5.532 5.847,5.384 6.315 C 5.057 7.356,4.988 8.091,4.983 10.640 C 4.980 12.471,4.999 12.831,5.164 13.960 C 5.277 14.737,5.407 15.351,5.725 16.616 C 6.113 18.155,6.277 18.585,6.752 19.300 C 7.219 20.004,7.623 20.408,8.073 20.620 C 8.210 20.685,8.238 20.715,8.218 20.780 C 8.163 20.960,8.154 21.279,8.200 21.419 C 8.265 21.618,8.464 21.836,8.660 21.925 C 8.810 21.994,9.010 21.998,12.000 21.998 C 14.990 21.998,15.190 21.994,15.340 21.925 C 15.536 21.836,15.735 21.618,15.800 21.419 C 15.848 21.274,15.838 20.925,15.782 20.794 C 15.761 20.742,15.810 20.698,16.007 20.594 C 16.345 20.416,16.880 19.880,17.195 19.404 C 17.684 18.666,17.916 18.062,18.298 16.528 C 18.672 15.026,18.810 14.295,18.949 13.080 C 19.007 12.573,19.019 12.158,19.014 10.800 C 19.006 8.732,18.955 7.745,18.822 7.099 C 18.570 5.874,18.004 4.697,17.217 3.762 C 16.443 2.844,15.524 2.324,14.263 2.092 C 13.878 2.021,10.807 1.984,10.220 2.043 M14.260 3.818 C 15.083 4.026,15.707 4.490,16.241 5.288 C 16.811 6.140,17.142 7.049,17.237 8.020 C 17.304 8.704,17.336 11.786,17.283 12.460 C 17.238 13.046,17.107 14.060,17.046 14.300 C 17.011 14.434,16.971 14.465,15.419 15.511 C 14.552 16.095,14.429 16.166,14.152 16.237 C 13.168 16.489,10.832 16.469,9.781 16.200 C 9.453 16.116,9.470 16.126,7.926 15.067 C 7.349 14.670,6.979 14.391,6.958 14.334 C 6.911 14.210,6.771 13.175,6.721 12.580 C 6.639 11.602,6.704 8.236,6.817 7.599 C 6.956 6.817,7.259 6.050,7.690 5.391 C 8.325 4.421,8.967 3.971,9.990 3.782 C 10.237 3.736,10.671 3.727,12.140 3.736 C 13.744 3.746,14.016 3.756,14.260 3.818 M11.300 5.025 C 10.882 5.068,10.279 5.175,10.042 5.248 C 9.144 5.523,8.505 6.181,8.279 7.064 C 8.167 7.503,8.179 7.820,8.341 8.611 C 8.594 9.853,8.665 10.046,9.003 10.416 C 9.382 10.831,9.705 10.977,10.567 11.125 C 11.020 11.203,11.238 11.217,12.020 11.215 C 12.828 11.214,13.008 11.201,13.500 11.112 C 13.808 11.056,14.160 10.972,14.282 10.925 C 14.719 10.758,15.197 10.278,15.364 9.840 C 15.494 9.499,15.800 7.957,15.800 7.645 C 15.800 7.019,15.520 6.359,15.061 5.900 C 14.455 5.296,13.645 5.048,12.180 5.021 C 11.784 5.014,11.388 5.015,11.300 5.025 M13.258 6.818 C 13.807 6.945,14.080 7.216,14.080 7.637 C 14.080 7.848,13.825 9.118,13.757 9.245 C 13.708 9.336,13.550 9.383,13.000 9.468 C 12.389 9.562,11.545 9.553,10.868 9.447 C 10.587 9.403,10.330 9.345,10.299 9.319 C 10.228 9.260,10.191 9.130,10.040 8.408 C 9.872 7.606,9.886 7.367,10.115 7.106 C 10.252 6.949,10.601 6.831,11.180 6.745 C 11.469 6.702,12.987 6.756,13.258 6.818 M9.237 12.695 C 9.031 12.768,8.919 12.856,8.794 13.043 C 8.646 13.262,8.614 13.502,8.698 13.747 C 8.734 13.853,8.893 14.191,9.052 14.498 C 9.369 15.112,9.487 15.241,9.810 15.326 C 10.321 15.461,10.840 15.041,10.840 14.494 C 10.840 14.311,10.797 14.198,10.502 13.609 C 10.219 13.044,10.139 12.916,10.009 12.826 C 9.743 12.642,9.500 12.600,9.237 12.695 M14.380 12.658 C 14.358 12.666,14.290 12.684,14.229 12.698 C 13.992 12.750,13.804 12.988,13.474 13.654 C 13.131 14.346,13.093 14.523,13.222 14.831 C 13.452 15.382,14.222 15.515,14.626 15.074 C 14.754 14.933,15.315 13.788,15.344 13.606 C 15.393 13.298,15.165 12.884,14.860 12.729 C 14.771 12.683,14.442 12.635,14.380 12.658 M8.680 17.609 C 9.276 17.951,10.379 18.120,11.996 18.120 C 13.280 18.119,14.190 18.015,14.874 17.790 C 15.170 17.693,15.370 17.587,15.844 17.275 C 16.172 17.059,16.440 16.899,16.440 16.919 C 16.440 16.939,16.393 17.105,16.335 17.288 C 16.144 17.893,15.692 18.681,15.376 18.958 C 15.292 19.032,15.124 19.139,15.002 19.196 L 14.780 19.300 12.020 19.285 C 9.400 19.271,9.249 19.267,9.050 19.193 C 8.539 19.002,7.991 18.255,7.679 17.323 C 7.613 17.128,7.560 16.948,7.560 16.923 C 7.560 16.899,7.771 17.020,8.030 17.192 C 8.289 17.365,8.581 17.553,8.680 17.609" stroke="none" fill-rule="evenodd"/></svg>