<?xml version="1.0" encoding="UTF-8" standalone="no"?>
<svg xmlns="http://www.w3.org/2000/svg" width="24" height="24"><path d="M8.340 3.046 C 7.849 3.108,7.317 3.273,6.820 3.517 C 5.374 4.226,4.390 5.510,4.075 7.100 C 4.002 7.468,4.002 8.532,4.075 8.900 C 4.482 10.953,6.047 12.518,8.100 12.925 C 8.468 12.998,9.532 12.998,9.900 12.925 C 11.723 12.564,13.191 11.273,13.753 9.539 C 13.940 8.961,13.980 8.680,13.978 7.960 C 13.976 7.381,13.963 7.247,13.869 6.869 C 13.678 6.104,13.374 5.473,12.926 4.912 C 11.822 3.527,10.090 2.823,8.340 3.046 M14.906 3.263 C 14.657 3.342,14.357 3.635,14.289 3.865 C 14.130 4.400,14.326 4.835,14.873 5.158 C 15.501 5.529,15.959 6.046,16.241 6.702 C 16.554 7.431,16.560 8.509,16.257 9.256 C 16.009 9.865,15.518 10.449,14.971 10.783 C 14.587 11.019,14.457 11.135,14.348 11.340 C 14.228 11.564,14.229 11.996,14.348 12.223 C 14.544 12.593,14.999 12.841,15.371 12.778 C 15.951 12.682,17.068 11.776,17.598 10.973 C 18.196 10.068,18.487 9.095,18.487 8.000 C 18.487 6.310,17.733 4.775,16.417 3.788 C 15.727 3.271,15.323 3.130,14.906 3.263 M9.756 5.097 C 10.093 5.189,10.595 5.447,10.873 5.671 C 11.554 6.219,12.000 7.140,12.000 8.000 C 12.000 9.170,11.225 10.329,10.151 10.766 C 8.642 11.380,6.989 10.734,6.298 9.260 C 6.072 8.779,6.021 8.546,6.021 8.000 C 6.021 7.454,6.072 7.221,6.298 6.740 C 6.716 5.848,7.537 5.215,8.503 5.040 C 8.770 4.991,9.491 5.024,9.756 5.097 M8.140 15.263 C 8.074 15.272,7.858 15.300,7.660 15.324 C 6.163 15.512,4.520 16.253,3.162 17.353 C 2.469 17.914,1.410 19.040,1.134 19.508 C 0.862 19.969,1.032 20.588,1.508 20.867 C 1.673 20.964,1.743 20.980,2.000 20.980 C 2.409 20.980,2.576 20.878,2.969 20.390 C 3.863 19.278,4.820 18.488,5.940 17.937 C 8.335 16.759,10.849 17.073,13.120 18.834 C 13.556 19.172,14.255 19.872,14.652 20.369 C 15.008 20.814,15.207 20.954,15.533 20.988 C 16.259 21.063,16.814 20.366,16.579 19.675 C 16.471 19.357,15.624 18.372,14.909 17.732 C 13.435 16.412,11.881 15.636,10.119 15.339 C 9.760 15.279,8.405 15.226,8.140 15.263 M16.715 15.813 C 16.227 15.995,15.963 16.389,16.012 16.861 C 16.056 17.294,16.231 17.491,16.848 17.806 C 18.035 18.411,19.231 19.392,20.098 20.473 C 20.350 20.786,20.566 20.928,20.869 20.978 C 21.298 21.050,21.808 20.718,21.936 20.283 C 22.063 19.851,21.991 19.628,21.552 19.098 C 20.652 18.010,19.595 17.092,18.440 16.398 C 17.528 15.850,17.050 15.688,16.715 15.813" stroke="none" fill-rule="evenodd"/></svg>