<?xml version="1.0" encoding="utf-8"?>\x3c!--Generator: Adobe Illustrator 25.1.0, SVG Export Plug-In . SVG Version: 6.00 Build 0)--\x3e<svg version="1.1" id="Ebene_1" xmlns="http://www.w3.org/2000/svg" xmlns:xlink="http://www.w3.org/1999/xlink" x="0px" y="0px" viewBox="0 0 277 267.5" style="enable-background:new 0 0 277 267.5;" xml:space="preserve"><style type="text/css">.st0{opacity:0.18;} \t.st1{fill:#4562A2;} \t.st2{fill:#2C426D;} \t.st3{fill:#FFFFFF;} \t.st4{fill-rule:evenodd;clip-rule:evenodd;fill:#FFFFFF;}</style><g><polygon class="st0" points="277,165 162.8981628,165 59.25,237 183,237"/><polygon class="st0" points="82.5,267.3995056 130,245 77,245"/><path class="st1" d="M150,210H15c-8.2842712,0-15-6.7157288-15-15V15C0,6.7157288,6.7157288,0,15,0h135 c8.2842712,0,15,6.7157288,15,15v180C165,203.2842712,158.2842712,210,150,210z"/><path class="st2" d="M165,80V15c0-8.2843018-6.7157593-15-15-15H15C6.7156982,0,0,6.7156982,0,15v65H165z"/><polygon class="st2" points="112.8108902,215 82.5,267.5 52.1891098,215"/><g><path class="st3" d="M118.7455902,163.4561615l-3.7028198,0.1107941l0.0043945,2.4811096l4.0332794-0.176712 c3.0708389,0.1871948,2.6243668,6.5258026-0.2865143,6.2630157l-23.399559-0.0501556l-0.0263672-4.682663l-54.1997986,5.0940399 l-6.8672028-0.0711823l0.0153809,2.7658539l7.1849213-0.0387115l53.7735367,4.7029266l-0.0281754-5.0703125l15.8665924,0.0581818 v6.1868744l-2.4916,2.0341339V193.62146h6.7279053v-10.5581055l-2.5013199-2.0490112v-6.1656342l6.122345,0.0224609 C124.8872681,174.7938843,125.5789566,163.6179352,118.7455902,163.4561615z"/><path class="st4" d="M136.4489288,102.9268036c0.6894073,0,1.2810364,0.20578,1.7944794,0.6343002 c0.5104065,0.4281006,0.7624207,0.9590378,0.7624207,1.5845871v17.8262405h0.8571472v-15.7873154 c0-0.6169128,0.2572021-1.14785,0.7665405-1.5676193c0.5186005-0.4372711,1.0794678-0.6426239,1.7050171-0.6426239 c0.68013,0,1.2800903,0.2053528,1.7903748,0.6426239c0.513443,0.4197693,0.6976166,0.9507065,0.6976166,1.5676193v40.0388336 h-9.2903748l-2.5570068-6.4073792l-2.312027,6.4073792l-7.2222748,0.1286469l0.1378174-6.5617371 c-0.8571472,0-1.7132339-0.3344269-2.5620499-1.0196075c-0.8519974-0.6853027-1.6103058-1.567627-2.2606201-2.6470947 c-0.6554794-1.079361-1.1823044-2.2703094-1.5763779-3.5807343c-0.4033356-1.3108521-0.5999298-2.5615387-0.5999298-3.7520599 v-13.2175598c1.8716965,0,3.1651688,0.4964828,3.8761597,1.4904938c0.7110062,0.9934921,1.0670395,2.1155319,1.0670395,3.3662186 v5.0373001h0.8518906v-21.3216248c0-0.6255493,0.2572861-1.1564865,0.7666245-1.5845871 c0.5144958-0.4285202,1.1132889-0.6343002,1.7944794-0.6343002c0.6297684,0,1.1905212,0.20578,1.7009277,0.6343002 c0.5134277,0.4281006,0.7788467,0.9590378,0.7788467,1.5845871v17.8262405h0.7625275v-17.8262405 c0-0.6255493,0.2572021-1.1564865,0.771698-1.5845871c0.5011139-0.4285202,1.1040192-0.6343002,1.7893066-0.6343002 c0.6174469,0,1.1915741,0.20578,1.7050323,0.6343002c0.510376,0.4281006,0.7665253,0.9590378,0.7665253,1.5845871v17.8262405 h0.7666321v-17.8262405c0-0.6255493,0.2572021-1.1564865,0.771698-1.5845871 C135.2584076,103.1325836,135.8232727,102.9268036,136.4489288,102.9268036"/><g><path class="st4" d="M98.2968369,105.0207443c-1.3959961-1.3881149-3.0827255-2.0749207-5.0616074-2.0749207h-9.5172043 v49.1642075h9.5172043c1.9788818,0,3.6656113-0.6581573,5.0616074-1.986969 c1.3809509-1.3269653,2.0749207-2.9697876,2.0749207-4.9549103v-35.2947845 C100.3717575,108.0217514,99.6777878,106.4095993,98.2968369,105.0207443z"/><path class="st4" d="M69.2429733,97.0034943c0-0.925354-0.4625626-1.4031754-1.3879318-1.4031754H54.7690201 c-1.0526085,0-1.575428,0.4778214-1.575428,1.4031754v5.9423294H41.8767395v49.1642075h38.6606827v-49.1642075H69.2429733 V97.0034943z M56.164299,98.3772888h10.1081543v4.5685349H56.164299V98.3772888z M73.6179581,110.4705582v13.6751251h-8.7264633 v-13.6751251l4.3514786-3.5686264L73.6179581,110.4705582z"/><path class="st4" d="M24.2517509,105.0207443c-1.4632244,1.388855-2.1941032,3.0162506-2.1941032,4.8671341v35.2802734 c0,1.9851227,0.7308788,3.6422729,2.1941032,4.9710693c1.4410038,1.3126526,3.1725235,1.9708099,5.143322,1.9708099h9.3165092 v-49.1642075h-9.3165092C27.4242744,102.9458237,25.6927547,103.6469498,24.2517509,105.0207443z"/><path class="st4" d="M67.8550415,110.6795349c0,0.925354,0.4626007,1.3881226,1.3879318,1.3881226 c0.9262695,0,1.3809509-0.4627686,1.3809509-1.3881226c0-0.9262619-0.4546814-1.3888474-1.3809509-1.3888474 C68.3176422,109.2906876,67.8550415,109.753273,67.8550415,110.6795349z"/></g></g></g></svg>