<?xml version="1.0" encoding="UTF-8" standalone="no"?>
<svg xmlns="http://www.w3.org/2000/svg" width="24" height="24"><path d="M11.664 4.063 C 11.436 4.146,11.257 4.297,11.131 4.511 L 11.020 4.700 11.009 10.639 L 10.999 16.578 8.289 13.871 C 6.208 11.791,5.538 11.145,5.400 11.083 C 5.203 10.994,4.905 10.977,4.675 11.041 C 4.482 11.094,4.166 11.377,4.075 11.578 C 3.966 11.819,3.976 12.176,4.099 12.422 C 4.175 12.575,5.021 13.442,7.829 16.245 C 11.282 19.693,11.471 19.874,11.674 19.940 C 11.935 20.024,12.200 20.006,12.444 19.887 C 12.571 19.826,13.620 18.800,16.245 16.171 C 19.561 12.850,19.876 12.523,19.935 12.343 C 20.063 11.953,19.979 11.577,19.701 11.299 C 19.423 11.021,19.047 10.936,18.657 11.065 C 18.478 11.124,18.212 11.377,15.730 13.854 L 13.000 16.579 13.000 10.716 C 13.000 4.131,13.023 4.621,12.701 4.299 C 12.429 4.027,12.018 3.933,11.664 4.063" stroke="none" fill-rule="evenodd"/></svg>