<?xml version="1.0" encoding="UTF-8" standalone="no"?>
<svg xmlns="http://www.w3.org/2000/svg" width="24" height="24"><path d="M5.697 2.041 C 4.559 2.120,3.842 2.411,3.146 3.078 C 2.542 3.655,2.235 4.252,2.075 5.160 C 2.011 5.526,1.978 14.699,2.038 15.580 C 2.100 16.502,2.235 16.988,2.585 17.551 C 2.813 17.918,3.282 18.399,3.630 18.620 L 3.879 18.780 3.880 19.640 C 3.880 20.113,3.899 20.614,3.922 20.753 C 4.006 21.270,4.275 21.627,4.752 21.853 L 5.020 21.980 6.542 21.980 L 8.064 21.980 8.370 21.829 C 8.827 21.603,9.063 21.289,9.157 20.780 C 9.180 20.651,9.200 20.261,9.200 19.913 L 9.200 19.280 11.270 19.279 C 13.579 19.278,13.509 19.286,13.793 18.996 C 14.015 18.771,14.059 18.655,14.059 18.300 C 14.059 17.945,14.010 17.816,13.792 17.598 C 13.500 17.306,13.709 17.322,10.120 17.319 C 6.652 17.317,5.555 17.285,5.200 17.179 C 4.765 17.048,4.359 16.702,4.178 16.307 C 4.040 16.005,4.001 15.540,4.000 14.190 L 4.000 13.000 11.495 13.000 L 18.989 13.000 19.014 13.180 C 19.048 13.430,19.168 13.646,19.366 13.816 C 19.616 14.030,19.970 14.098,20.323 14.000 C 20.510 13.948,20.781 13.713,20.891 13.506 L 20.980 13.340 20.980 9.460 C 20.980 5.470,20.973 5.258,20.818 4.655 C 20.745 4.373,20.533 3.912,20.355 3.650 C 20.166 3.373,19.737 2.938,19.454 2.735 C 18.996 2.407,18.465 2.200,17.760 2.075 C 17.455 2.022,6.427 1.990,5.697 2.041 M17.713 4.092 C 18.019 4.175,18.285 4.325,18.492 4.532 C 18.660 4.700,18.880 5.026,18.880 5.108 C 18.880 5.151,17.541 5.160,11.500 5.160 C 6.303 5.160,4.120 5.147,4.120 5.117 C 4.120 4.966,4.484 4.512,4.745 4.339 C 5.016 4.159,5.218 4.089,5.600 4.044 C 5.765 4.025,8.501 4.012,11.680 4.016 C 17.003 4.023,17.480 4.029,17.713 4.092 M19.000 9.080 L 19.000 11.000 11.500 11.000 L 4.000 11.000 4.000 9.080 L 4.000 7.160 11.500 7.160 L 19.000 7.160 19.000 9.080 M5.960 14.212 C 5.764 14.274,5.418 14.629,5.364 14.824 C 5.194 15.437,5.538 16.012,6.143 16.124 C 6.278 16.149,6.705 16.161,7.158 16.153 C 8.031 16.137,8.174 16.102,8.428 15.840 C 8.631 15.632,8.698 15.457,8.698 15.140 C 8.697 14.711,8.510 14.420,8.120 14.243 C 7.955 14.168,7.864 14.162,7.020 14.165 C 6.470 14.167,6.044 14.186,5.960 14.212 M14.673 15.063 C 14.412 15.143,14.140 15.421,14.061 15.690 C 13.984 15.949,13.984 16.053,14.064 16.322 C 14.124 16.524,14.196 16.607,15.102 17.520 L 16.076 18.500 15.102 19.480 C 14.196 20.393,14.125 20.475,14.064 20.677 C 13.984 20.947,13.984 21.051,14.061 21.310 C 14.144 21.589,14.411 21.856,14.690 21.939 C 14.949 22.016,15.053 22.016,15.323 21.936 C 15.525 21.875,15.607 21.804,16.520 20.898 L 17.500 19.924 18.480 20.898 C 19.393 21.804,19.476 21.876,19.678 21.936 C 19.947 22.016,20.051 22.016,20.310 21.939 C 20.589 21.856,20.856 21.589,20.939 21.310 C 21.016 21.051,21.016 20.947,20.936 20.678 C 20.876 20.476,20.804 20.393,19.898 19.480 L 18.924 18.500 19.898 17.520 C 20.804 16.607,20.875 16.525,20.936 16.323 C 21.016 16.053,21.016 15.949,20.939 15.690 C 20.856 15.411,20.589 15.144,20.310 15.061 C 20.051 14.984,19.947 14.984,19.678 15.064 C 19.476 15.124,19.393 15.196,18.480 16.102 L 17.500 17.076 16.520 16.102 C 15.607 15.196,15.525 15.125,15.323 15.064 C 15.062 14.987,14.921 14.987,14.673 15.063 M7.192 19.650 L 7.203 20.000 6.542 20.000 L 5.880 20.000 5.880 19.639 L 5.880 19.278 6.530 19.289 L 7.180 19.300 7.192 19.650" stroke="none" fill-rule="evenodd"/></svg>