<?xml version="1.0" encoding="UTF-8" standalone="no"?>
<svg xmlns="http://www.w3.org/2000/svg" width="24" height="24"><path d="M11.069 1.039 C 8.822 1.258,6.868 2.041,5.101 3.432 C 4.640 3.795,3.606 4.863,3.231 5.363 C 2.075 6.906,1.379 8.590,1.093 10.540 C 0.995 11.212,0.995 12.788,1.093 13.460 C 1.379 15.409,2.074 17.091,3.230 18.637 C 3.685 19.244,4.756 20.315,5.363 20.770 C 6.909 21.926,8.591 22.621,10.540 22.907 C 11.212 23.005,12.788 23.005,13.460 22.907 C 15.409 22.621,17.091 21.926,18.637 20.770 C 19.244 20.315,20.315 19.244,20.770 18.637 C 21.926 17.091,22.621 15.409,22.907 13.460 C 22.959 13.104,22.977 12.727,22.977 12.000 C 22.977 11.273,22.959 10.896,22.907 10.540 C 22.621 8.590,21.925 6.906,20.769 5.363 C 20.394 4.863,19.360 3.795,18.899 3.432 C 17.302 2.175,15.548 1.412,13.580 1.120 C 12.946 1.026,11.638 0.984,11.069 1.039 M13.320 3.101 C 14.269 3.244,15.066 3.494,15.944 3.923 C 18.627 5.233,20.448 7.726,20.906 10.720 C 21.003 11.354,21.003 12.646,20.906 13.280 C 20.506 15.891,19.079 18.117,16.880 19.560 C 16.071 20.090,14.874 20.589,13.908 20.797 C 9.860 21.669,5.722 19.656,3.920 15.940 C 3.280 14.621,3.023 13.493,3.023 12.000 C 3.023 10.507,3.280 9.379,3.920 8.060 C 4.794 6.256,6.247 4.803,8.060 3.918 C 9.091 3.415,10.026 3.160,11.340 3.024 C 11.662 2.991,12.911 3.039,13.320 3.101 M16.240 8.035 C 16.185 8.053,16.086 8.096,16.020 8.131 C 15.954 8.166,14.694 9.402,13.220 10.877 C 11.746 12.353,10.523 13.560,10.502 13.560 C 10.480 13.560,9.904 13.005,9.221 12.327 C 7.879 10.994,7.888 11.000,7.453 11.000 C 6.752 11.000,6.271 11.804,6.597 12.430 C 6.639 12.513,7.409 13.313,8.307 14.208 C 10.057 15.954,10.111 15.998,10.500 15.999 C 10.916 16.000,10.852 16.057,14.246 12.654 C 17.620 9.271,17.494 9.412,17.494 9.000 C 17.494 8.629,17.281 8.284,16.946 8.113 C 16.771 8.024,16.399 7.983,16.240 8.035" stroke="none" fill-rule="evenodd"/></svg>