<?xml version="1.0" encoding="UTF-8" standalone="no"?>
<svg xmlns="http://www.w3.org/2000/svg" width="16" height="16" fill="none"><path fill="#005262" d="M15.774.227H.227v15.547h15.547V.227Z"/><path fill="#005262" d="M15.546.453v15.093H.453V.453h15.093ZM16 0H0v16h16z"/><path fill="#fff" d="M15.774.227H.227v7.547h15.547V.227Z"/><path fill="#005262" d="M15.546.453v7.093H.453V.453h15.093ZM16 0H0v8h16z"/><path fill="#005262" d="M5.72 6.872a1.973 1.973 0 0 1-.16-.325 6.011 6.011 0 0 0-.14-.337l-.36-.82a1.261 1.261 0 0 0-.172-.278.357.357 0 0 0-.294-.128h-.19v1.89h-.862V2.355h1.375c.203 0 .392.021.57.064.175.043.327.112.457.207.128.094.23.217.304.37.075.151.112.332.112.545 0 .198-.03.37-.091.51-.06.143-.14.263-.234.36-.094.098-.2.175-.318.23-.117.057-.23.1-.34.125a.606.606 0 0 1 .367.2c.091.106.16.218.21.335l.412.928.146.328c.048.105.102.211.166.315h-.961.003m-.243-3.291c0-.208-.063-.355-.189-.44-.126-.087-.296-.128-.512-.128h-.378v1.334h.324c.241 0 .428-.065.558-.2.13-.133.195-.321.195-.565l.002-.001M9.14 6.872l-.06-.44a.787.787 0 0 1-.331.366 1.07 1.07 0 0 1-.549.135c-.166 0-.309-.027-.427-.082a.812.812 0 0 1-.291-.224.925.925 0 0 1-.17-.336 1.482 1.482 0 0 1-.054-.41V3.539h.806V5.8c0 .149.034.275.1.38.068.103.188.154.36.154.094 0 .174-.02.24-.064a.518.518 0 0 0 .16-.166.678.678 0 0 0 .092-.227c.018-.083.027-.168.027-.255V3.536h.807v3.333h-.71v.003M12.319 2.653l-.159-.021a1.395 1.395 0 0 0-.16-.006c-.1.004-.171.044-.213.118a.552.552 0 0 0-.064.282v.515h.57v.603h-.57v2.73h-.806v-2.73h-.482v-.603h.482v-.562c0-.302.082-.533.243-.691.162-.158.411-.237.746-.237a2.147 2.147 0 0 1 .548.069l-.136.534v-.001"/><path fill="#fff" d="M4.214 9.773v3.77h-.84v-3.77h-.96v-.687h2.762v.687h-.962M7.77 13.542l-.287-1.128H6.15l-.287 1.128h-.854l1.267-4.45h1.107l1.268 4.45h-.88M6.81 9.7l-.514 2.095H7.33l-.52-2.095M11.22 13.542l-.828-1.755-.787 1.755h-.888l1.233-2.275-1.073-2.174h.888l.713 1.593.64-1.593h.861l-1.067 2.115 1.227 2.334h-.92M12.746 13.542v-4.45h.84v4.45h-.84"/></svg>