<?xml version="1.0" encoding="UTF-8" standalone="no"?>
<svg xmlns="http://www.w3.org/2000/svg" width="24" height="24"><path d="M11.069 1.039 C 8.822 1.258,6.868 2.041,5.101 3.432 C 4.640 3.795,3.606 4.863,3.231 5.363 C 2.075 6.906,1.379 8.590,1.093 10.540 C 0.995 11.212,0.995 12.788,1.093 13.460 C 1.379 15.409,2.074 17.091,3.230 18.637 C 3.685 19.244,4.756 20.315,5.363 20.770 C 6.909 21.926,8.591 22.621,10.540 22.907 C 11.212 23.005,12.788 23.005,13.460 22.907 C 15.409 22.621,17.091 21.926,18.637 20.770 C 19.244 20.315,20.315 19.244,20.770 18.637 C 21.926 17.091,22.621 15.409,22.907 13.460 C 22.959 13.104,22.977 12.727,22.977 12.000 C 22.977 11.273,22.959 10.896,22.907 10.540 C 22.621 8.590,21.925 6.906,20.769 5.363 C 20.394 4.863,19.360 3.795,18.899 3.432 C 17.302 2.175,15.548 1.412,13.580 1.120 C 12.946 1.026,11.638 0.984,11.069 1.039 M12.427 7.093 C 13.171 7.478,13.193 8.513,12.465 8.887 C 11.814 9.222,11.000 8.729,11.000 8.000 C 11.000 7.615,11.288 7.197,11.643 7.066 C 11.857 6.988,12.249 7.001,12.427 7.093 M12.340 11.066 C 12.593 11.153,12.847 11.407,12.934 11.660 C 12.992 11.831,13.000 12.108,13.000 14.000 C 13.000 16.427,13.003 16.399,12.701 16.701 C 12.310 17.092,11.690 17.092,11.299 16.701 C 10.997 16.399,11.000 16.427,11.000 14.000 C 11.000 11.572,10.997 11.601,11.300 11.298 C 11.577 11.020,11.957 10.936,12.340 11.066" stroke="none" fill-rule="evenodd"/></svg>