<?xml version="1.0" encoding="UTF-8" standalone="no"?>
<svg xmlns="http://www.w3.org/2000/svg" width="16" height="16" fill="none"><path fill="#4562A2" d="M5.333 12H6a.646.646 0 0 0 .475-.192.643.643 0 0 0 .192-.475v-2a.646.646 0 0 0 .475-.192.642.642 0 0 0 .191-.474v-1c0-.367-.13-.681-.392-.942A1.281 1.281 0 0 0 6 6.333h-.667c-.366 0-.68.131-.942.392A1.281 1.281 0 0 0 4 7.667v1c0 .189.064.347.192.475a.642.642 0 0 0 .475.191v2c0 .19.064.348.192.476a.643.643 0 0 0 .474.191m.334-6.333c.233 0 .43-.081.592-.242a.802.802 0 0 0 .241-.592c0-.233-.08-.43-.242-.592A.802.802 0 0 0 5.667 4c-.234 0-.431.08-.592.242a.802.802 0 0 0-.242.591c0 .234.081.431.242.592a.802.802 0 0 0 .592.242m3.6 1.666H11.4a.324.324 0 0 0 .3-.175.296.296 0 0 0-.017-.341l-1.066-1.7c-.023-.034-.117-.084-.284-.15a.384.384 0 0 0-.158.033.283.283 0 0 0-.125.117l-1.067 1.7a.297.297 0 0 0-.016.342.323.323 0 0 0 .3.174m1.066 3.7a.388.388 0 0 0 .159-.033.275.275 0 0 0 .125-.117l1.066-1.7a.297.297 0 0 0 .017-.342.323.323 0 0 0-.3-.174H9.267a.324.324 0 0 0-.3.175.296.296 0 0 0 .016.341l1.067 1.7c.022.034.117.084.283.15m-7 2.967c-.366 0-.68-.13-.942-.392A1.281 1.281 0 0 1 2 12.667V3.333c0-.366.13-.68.392-.942.261-.261.575-.391.941-.391h9.334c.366 0 .68.13.942.392.261.261.391.575.391.941v9.334c0 .366-.13.68-.392.942a1.282 1.282 0 0 1-.941.391H3.333m0-1.333h9.334V3.333H3.333v9.334"/></svg>