<?xml version="1.0" encoding="UTF-8" standalone="no"?>
<svg xmlns:dc="http://purl.org/dc/elements/1.1/" xmlns:cc="http://creativecommons.org/ns#" xmlns:rdf="http://www.w3.org/1999/02/22-rdf-syntax-ns#" xmlns:svg="http://www.w3.org/2000/svg" xmlns="http://www.w3.org/2000/svg" xmlns:sodipodi="http://sodipodi.sourceforge.net/DTD/sodipodi-0.dtd" xmlns:inkscape="http://www.inkscape.org/namespaces/inkscape" width="225.7847mm" height="225.77777mm" viewBox="0 0 800.02452 799.99997" id="svg4164" version="1.1" inkscape:version="0.91 r13725" sodipodi:docname="product-icon-schiff.svg"><defs id="defs4166"/><sodipodi:namedview id="base" pagecolor="#ffffff" bordercolor="#666666" borderopacity="1.0" inkscape:pageopacity="0.0" inkscape:pageshadow="2" inkscape:zoom="0.35" inkscape:cx="-550.57057" inkscape:cy="-397.00053" inkscape:document-units="px" inkscape:current-layer="layer1" showgrid="false" fit-margin-top="0" fit-margin-left="0" fit-margin-right="0" fit-margin-bottom="0" inkscape:window-width="2560" inkscape:window-height="1378" inkscape:window-x="-8" inkscape:window-y="-8" inkscape:window-maximized="1"/><metadata id="metadata4169"><rdf:RDF><cc:Work rdf:about=""><dc:format>image/svg+xml</dc:format><dc:type rdf:resource="http://purl.org/dc/dcmitype/StillImage"/><dc:title/></cc:Work></rdf:RDF></metadata><g inkscape:label="Layer 1" inkscape:groupmode="layer" id="layer1" transform="translate(-231.28486,664.63832)"><path style="fill:#000080;fill-opacity:1" d="m 231.66145,-264.63833 0,-400 399.63655,0 399.6348,0 0,400 0,400 -399.6348,0 -399.63655,0 0,-400 z M 384.66667,40.899056 c 25.25043,-20.312 55.47478,-40.26677951 76.13217,-50.2650395 5.27652,-2.5530405 13.51826,-5.7860905 18.58609,-7.2886905 7.81913,-2.31827 10.13913,-2.70435 16.39304,-2.71653 8.87652,0 14.09044,1.28696 24.04522,6.01913 8.52696,4.0539205 26.01217,13.89392049 39.10087,22.0017405 12.13391,7.5182595 29.40174,16.7850495 36.61043,19.6493895 10.65218,4.23131 18.6487,5.87131 30.66261,6.28696 23.4887,0.81739 37.4452,-3.93043 70.6139,-23.99896 23.5548,-14.2504295 46.6261,-26.09217 55.7983,-28.64 3.1095,-0.86956 7.2382,-1.30434 12.0226,-1.30434 6.3635,0 8.3652,0.33043 15.8156,2.67826 14.8574,4.66435 30.0696,12.2400005 50.2383,25.0173905 13.0278,8.2539095 38.3878,27.0476495 47.2504,35.0163495 l 3.6244,3.257388 1.7391,-2.066088 c 0.9565,-1.13043 8.6609,-10.26261 17.1217,-20.28174 8.4609,-10.01809 15.3861,-18.4232995 15.3879,-18.6737395 0.01,-0.92174 -25.6331,-20.9026105 -36.5061,-28.4365205 -40.0313,-27.73391 -68.647,-42.25913 -94.7739,-48.1113 -9.9235,-2.22261 -27.1635,-2.36696 -38.1131,-0.33044 -16.7913,3.13913 -34.3895,11.04696 -63.2678,28.42435 -32.6365,19.64174 -41.3739,23.73913 -51.8504,24.32 -10.1148,0.55652 -16.89394,-1.99478 -37.52351,-14.14957 -5.41043,-3.18782 -14.75478,-8.69565 -20.76347,-12.23652 -14.95479,-8.81217 -34.28,-18.68 -42.65566,-21.77913 -11.90608,-4.40695 -20.37565,-5.84869 -34.57739,-5.88695 -13.97391,0 -19.10782,0.8 -33.16522,5.39478 -21.88869,7.16348 -43.25217,18.39304 -73.93913,38.86261 -19.36347,12.91826 -45.81391,32.8139105 -45.37565,34.1304305 0.27826,0.83478 33.61565,40.5798275 34.08348,40.6354795 0.2087,0 3.48,-2.46261 7.28522,-5.52522 z M 633.4823,-75.512074 c 7.5652,-2.12 44.5461,-20.0313 73.5896,-35.641736 79.4696,-42.71478 136.593,-87.11304 163.1113,-126.77704 13.3948,-20.03322 19.4087,-38.17861 19.3965,-58.5153 l -0.01,-10.08592 -34.5496,-10.89339 -34.5478,-10.89182 -0.4174,-2.22244 c -0.6435,-3.52643 -23.7061,-148.84713 -24.5061,-154.42052 -1.0608,-7.35809 -4.3739,-13.73478 -10.1008,-19.3967 -5.2974,-5.23443 -9.9722,-8.04626 -16.5148,-9.9266 -3.6713,-1.06087 -9.3044,-1.31131 -37.7722,-1.66435 l -33.4539,-0.42783 -2.3844,-7.28591 c -1.3217,-4.00696 -6.1895,-19.00748 -10.8417,-33.33304 l -8.4557,-26.04731 -44.3113,0 -44.313,0 -11.28696,33.33322 -11.28522,33.33304 -33.07478,0.42783 c -35.80522,0.4713 -37.58435,0.64869 -45.12522,4.75704 -7.65217,4.1647 -14.50434,12.03409 -17.05217,19.58661 -0.67826,2.00417 -7.07478,39.10991 -14.21913,82.45965 -7.14609,43.34818 -13.16696,79.09948 -13.38261,79.44731 -0.22609,0.35304 -16.47478,5.70017 -36.13391,11.89408 l -35.74261,11.26331 -0.009,9.19287 c -0.0139,18.71704 4.99653,35.40208 16.12348,53.65061 12.41565,20.3633 39.84348,48.36347 68.81913,70.25217 24.76,18.70435 59.33913,40.87478 89.54957,57.41043 22.44695,12.2887 50.82782,26.855656 61.56521,31.599996 5.81044,2.56696 12.20522,5.42957 14.20696,6.36 8.57216,3.98261 8.24346,3.91827 13.11476,2.55305 z m 62.5113,-309.087996 -66.4522,-22.21408 -64.6643,21.87808 c -35.56348,12.03409 -64.71478,21.81044 -64.77739,21.72644 0,-0.13913 2.08348,-13.59618 4.7687,-30.02609 2.68521,-16.43009 6.78434,-41.59461 9.10956,-55.92017 l 4.22783,-26.04731 113.5252,0 113.5252,0 0.4174,2.36835 c 0.2435,1.29739 4.1809,25.80991 8.7809,54.46261 4.6,28.6527 8.5513,52.99635 8.7809,54.09861 0.2434,1.10435 0.1739,1.97774 -0.1913,1.94522 -0.3305,0 -30.5079,-10.0534 -67.0557,-22.27166 z" id="path4138-1-4-4" inkscape:connector-curvature="0"/></g></svg>