<?xml version="1.0" encoding="utf-8"?>\x3c!--Generator: Adobe Illustrator 25.1.0, SVG Export Plug-In . SVG Version: 6.00 Build 0)--\x3e<svg version="1.1" id="Ebene_1" xmlns="http://www.w3.org/2000/svg" xmlns:xlink="http://www.w3.org/1999/xlink" x="0px" y="0px" viewBox="0 0 277 267.5" style="enable-background:new 0 0 277 267.5;" xml:space="preserve"><style type="text/css">.st0{opacity:0.18;enable-background:new    ;} \t.st1{fill:#4562A2;} \t.st2{fill:#2C426D;} \t.st3{fill-rule:evenodd;clip-rule:evenodd;fill:#FFFFFF;}</style><g><g id="Ebene_1_1_"><polygon class="st0" points="277,165 162.8999939,165 59.25,237 183,237"/><polygon class="st0" points="82.5,267.3999939 130,245 77,245"/><path class="st1" d="M15,0h135c8.2842712,0,15,6.7157288,15,15v180c0,8.2842712-6.7157288,15-15,15H15 c-8.2842712,0-15-6.7157288-15-15V15C0,6.7157288,6.7157288,0,15,0z"/><path class="st2" d="M165,80V15c0-8.2842712-6.7157288-15-15-15H15C6.7157288,0,0,6.7157288,0,15v65H165z"/><polygon class="st2" points="112.8099976,215 82.5,267.5 52.1899986,215"/><path class="st3" d="M98.8799973,118.1100006h-34v59h34V118.1100006z M60.8799973,171.4299927l-27.8600006-7.5200043 l16.8899994-65L90.5,110.1299973l-1,3.8000031h13.4000015v67.3000107h-42v-9.8000031L60.8799973,171.4299927z M37.8799973,161.019989L37.8799973,161.019989l14.8100014-57l32.8300056,9.0699997l-0.2300034,0.8700027h-7.5200043 l-23-6.0999985l-1,4l8.4199982,2.0999985h-1.3099976v2.6999969l-7.8800011-2.0800018l-1,4l8.920002,2.3600006v31.4600067 l-4.2399979-1.1900024l-1,4L60.8799973,156.75v2.8200073l-6-1.6699982l-1,4l7,1.9499969v3.3399963l-23-6.1300049V161.019989z M80.0999985,169.5299835h16.0699997v4.1499939H80.1500015v-4.1499939H80.0999985z M67.5999985,121.0099945h28.6200027v4.1499939 H67.5999985v-4.1399994V121.0099945z M67.5999985,128.0099945h28.6200027v4.1399994H67.5999985V128.0099945z M80.1500015,162.6900024h16.0699997v4.1499939H80.1500015V162.6900024z"/><polygon class="st3" points="130.9799957,128.4600067 134.3600006,139.1199951 145.25,139.1300049 136.4499969,145.7400055 139.8000031,156.4100037 130.9799957,149.8300018 122.1600037,156.4100037 125.5,145.7400055 116.6999969,139.1300049 127.5899963,139.1199951"/></g></g></svg>