<?xml version="1.0" encoding="UTF-8" standalone="no"?>
<svg viewBox="0 0 800 800" width="800" height="800" xmlns="http://www.w3.org/2000/svg"><path d="M 800.002 400 C 800.002 179.411 620.565 0 399.996 0 C 179.418 0 -0.003 179.412 -0.003 400 C -0.003 620.563 179.418 800.001 399.996 800.001 C 620.565 800.001 800.002 620.563 800.002 400" style="fill: rgb(29, 29, 27);"/><path fill="#FABA00" d="M 583.116 528.402 C 553.782 608.394 508.445 662.634 493.324 659.95 C 482.667 657.286 471.992 644.848 463.098 623.515 C 435.557 644.848 409.779 658.186 395.539 658.186 C 381.317 658.186 355.558 644.848 328.888 623.515 C 319.991 644.848 308.433 657.286 297.771 659.95 C 283.551 662.634 237.327 608.394 207.994 528.402 L 48.881 528.402 L 48.881 478.628 L 192.886 478.628 C 191.103 468.844 189.331 459.07 187.552 448.403 C 172.441 355.96 198.219 282.175 223.106 239.514 L 258.659 139.955 L 285.329 180.847 C 315.549 163.07 353.776 152.404 395.539 152.404 C 437.339 152.404 475.556 163.071 506.663 180.847 L 532.451 139.955 L 568.004 239.514 C 592.882 282.175 618.67 355.96 604.439 448.403 C 602.666 459.07 600.002 468.844 598.219 478.628 L 751.118 478.628 L 751.118 528.402 M 395.539 176.401 C 305.774 176.401 228.439 231.514 228.439 303.516 C 228.439 375.514 305.774 430.626 395.539 430.626 C 485.33 430.626 562.658 375.513 562.658 303.516 C 562.658 231.513 485.33 176.401 395.539 176.401 Z M 395.539 413.741 C 310.216 413.741 245.328 362.184 245.328 303.515 C 245.328 244.846 310.216 193.295 395.539 193.295 C 480.886 193.295 545.781 244.846 545.781 303.515 C 545.781 362.184 480.885 413.741 395.539 413.741 Z M 298.668 478.627 C 298.668 467.071 281.77 467.071 281.77 478.627 L 281.77 531.958 C 281.77 542.625 298.668 542.625 298.668 531.958 L 298.668 478.627 Z M 325.323 233.29 C 302.213 233.29 282.665 251.958 282.665 275.959 C 282.665 299.959 302.213 318.623 325.323 318.623 C 349.328 318.623 368.887 299.959 368.887 275.959 C 368.887 251.959 349.328 233.29 325.323 233.29 Z M 325.323 304.406 C 310.216 304.406 297.771 291.959 297.771 275.959 C 297.771 260.852 310.216 248.408 325.323 248.408 C 341.327 248.408 353.776 260.852 353.776 275.959 C 353.776 291.959 341.327 304.406 325.323 304.406 Z M 333.325 478.627 C 333.325 467.071 315.55 467.071 315.55 478.627 L 315.55 531.958 C 315.55 542.625 333.325 542.625 333.325 531.958 L 333.325 478.627 Z M 334.221 266.185 C 334.221 254.623 317.323 254.623 317.323 266.185 L 317.323 285.739 C 317.323 297.293 334.221 297.293 334.221 285.739 L 334.221 266.185 Z M 367.105 478.627 C 367.105 467.071 350.228 467.071 350.228 478.627 L 350.228 531.958 C 350.228 542.625 367.105 542.625 367.105 531.958 L 367.105 478.627 Z M 367.997 315.072 C 354.657 327.513 395.539 387.961 395.539 387.961 C 395.539 387.961 436.439 327.513 423.999 315.072 C 401.785 292.844 389.327 292.844 367.997 315.072 Z M 440.884 479.52 C 440.884 467.961 423.999 467.961 423.999 479.52 L 423.999 532.85 C 423.999 543.515 440.884 543.515 440.884 532.85 L 440.884 479.52 Z M 432.875 267.957 C 422.217 267.07 420.435 283.962 431.992 284.847 L 485.33 288.403 C 496.888 289.295 497.77 272.4 486.213 271.513 L 432.875 267.957 Z M 475.556 479.52 C 475.556 467.961 458.671 467.961 458.671 479.52 L 458.671 532.85 C 458.671 543.515 475.556 543.515 475.556 532.85 L 475.556 479.52 Z M 509.327 479.52 C 509.327 467.961 492.441 467.961 492.441 479.52 L 492.441 532.85 C 492.441 543.515 509.327 543.515 509.327 532.85 L 509.327 479.52 Z" style=""/></svg>