<?xml version="1.0" encoding="UTF-8" standalone="no"?>
<svg xmlns="http://www.w3.org/2000/svg" width="24" height="24"><path d="M3.760 2.042 C 3.314 2.082,2.967 2.175,2.643 2.341 C 2.288 2.523,2.187 2.595,1.907 2.867 C 1.398 3.363,1.127 3.934,1.043 4.691 C 0.984 5.224,0.984 15.776,1.043 16.309 C 1.067 16.521,1.130 16.834,1.183 17.003 C 1.432 17.791,2.209 18.568,2.997 18.817 C 3.486 18.971,3.944 19.000,5.928 19.001 C 7.901 19.002,8.387 19.029,8.800 19.157 C 9.173 19.273,9.662 19.574,9.940 19.858 C 10.072 19.993,10.387 20.407,10.640 20.777 C 10.893 21.148,11.154 21.524,11.220 21.614 C 11.442 21.911,11.919 22.070,12.265 21.960 C 12.584 21.860,12.698 21.745,13.181 21.032 C 13.440 20.652,13.750 20.217,13.870 20.067 C 14.233 19.613,14.764 19.272,15.354 19.112 C 15.641 19.034,15.810 19.027,18.040 18.998 C 19.518 18.979,20.496 18.951,20.620 18.924 C 21.434 18.743,22.065 18.307,22.526 17.605 C 22.760 17.250,22.899 16.831,22.957 16.309 C 23.016 15.776,23.016 5.224,22.957 4.691 C 22.899 4.169,22.760 3.750,22.526 3.395 C 22.071 2.703,21.436 2.260,20.660 2.092 C 20.284 2.011,17.333 1.974,16.215 2.036 C 15.005 2.103,14.472 2.207,13.857 2.497 C 13.306 2.757,12.904 3.046,12.430 3.525 L 12.000 3.959 11.570 3.525 C 11.096 3.046,10.694 2.757,10.143 2.497 C 9.547 2.216,8.997 2.104,7.888 2.040 C 7.118 1.995,4.264 1.996,3.760 2.042 M7.832 4.040 C 8.504 4.081,8.963 4.155,9.228 4.266 C 9.634 4.435,10.183 4.887,10.447 5.271 C 10.791 5.769,10.899 6.170,10.960 7.168 C 10.995 7.755,11.020 18.080,10.986 18.080 C 10.978 18.080,10.821 17.978,10.636 17.854 C 10.059 17.466,9.469 17.226,8.762 17.093 C 8.484 17.041,7.980 17.025,6.080 17.005 L 3.740 16.980 3.550 16.886 C 3.336 16.781,3.142 16.568,3.070 16.360 C 3.007 16.174,2.976 5.431,3.038 4.923 C 3.105 4.373,3.349 4.108,3.845 4.043 C 4.212 3.996,7.063 3.994,7.832 4.040 M20.374 4.076 C 20.584 4.144,20.862 4.430,20.928 4.646 C 21.002 4.892,21.005 16.098,20.931 16.340 C 20.863 16.562,20.675 16.776,20.450 16.886 L 20.260 16.980 17.920 17.004 C 16.014 17.024,15.517 17.041,15.238 17.093 C 14.530 17.227,13.940 17.466,13.364 17.854 C 13.179 17.978,13.022 18.080,13.014 18.080 C 12.980 18.080,13.005 7.755,13.040 7.168 C 13.081 6.496,13.155 6.037,13.266 5.772 C 13.456 5.315,13.907 4.793,14.374 4.490 C 15.033 4.060,15.512 4.004,18.380 4.018 C 19.713 4.024,20.262 4.040,20.374 4.076" stroke="none" fill-rule="evenodd"/></svg>