<?xml version="1.0" encoding="UTF-8" standalone="no"?>
<svg xmlns="http://www.w3.org/2000/svg" width="24" height="24"><path d="M4.378 3.058 C 2.674 3.323,1.320 4.686,1.058 6.400 C 0.972 6.965,0.972 17.035,1.058 17.600 C 1.322 19.329,2.671 20.678,4.400 20.942 C 4.968 21.028,19.032 21.028,19.600 20.942 C 21.326 20.678,22.678 19.326,22.942 17.600 C 23.028 17.035,23.028 6.965,22.942 6.400 C 22.716 4.923,21.692 3.703,20.268 3.215 C 19.626 2.995,19.826 3.000,11.960 3.004 C 6.366 3.007,4.626 3.019,4.378 3.058 M19.492 5.060 C 19.852 5.153,20.118 5.310,20.404 5.596 C 20.690 5.882,20.847 6.148,20.940 6.508 C 21.030 6.852,21.030 17.148,20.940 17.492 C 20.847 17.852,20.690 18.118,20.404 18.404 C 20.118 18.690,19.852 18.847,19.492 18.940 C 19.146 19.030,4.854 19.030,4.508 18.940 C 4.148 18.847,3.882 18.690,3.596 18.404 C 3.310 18.118,3.153 17.852,3.060 17.492 C 2.970 17.148,2.970 6.852,3.060 6.508 C 3.153 6.148,3.310 5.882,3.596 5.596 C 3.876 5.316,4.146 5.154,4.491 5.062 C 4.815 4.974,19.158 4.972,19.492 5.060 M3.800 12.020 L 3.800 15.440 4.440 15.440 L 5.080 15.440 5.080 12.020 L 5.080 8.600 4.440 8.600 L 3.800 8.600 3.800 12.020 M8.020 10.198 C 7.364 10.304,6.925 10.544,6.662 10.940 C 6.339 11.426,6.321 12.088,6.619 12.519 C 6.826 12.817,7.361 13.091,8.140 13.298 C 8.360 13.356,8.679 13.449,8.849 13.505 C 9.321 13.659,9.465 13.887,9.282 14.188 C 9.155 14.395,8.991 14.460,8.600 14.458 C 8.311 14.456,8.229 14.440,8.052 14.349 C 7.832 14.235,7.669 14.055,7.596 13.846 C 7.572 13.777,7.531 13.720,7.506 13.719 C 7.374 13.718,6.295 13.895,6.264 13.923 C 6.208 13.975,6.385 14.463,6.548 14.710 C 6.810 15.104,7.258 15.388,7.800 15.503 C 8.139 15.575,8.907 15.574,9.253 15.501 C 10.148 15.311,10.649 14.736,10.649 13.898 C 10.649 13.064,10.243 12.708,8.856 12.324 C 8.462 12.215,8.073 12.097,7.992 12.063 C 7.678 11.931,7.596 11.706,7.781 11.486 C 7.918 11.323,8.112 11.266,8.455 11.289 C 8.896 11.318,9.210 11.519,9.268 11.811 C 9.288 11.908,9.306 11.921,9.395 11.903 C 9.453 11.891,9.716 11.844,9.980 11.798 C 10.648 11.683,10.612 11.699,10.580 11.526 C 10.477 10.970,9.906 10.441,9.217 10.265 C 8.923 10.190,8.287 10.154,8.020 10.198 M13.313 10.202 C 12.530 10.310,11.910 10.791,11.640 11.499 C 11.603 11.597,11.607 11.599,12.175 11.779 C 12.489 11.879,12.759 11.960,12.773 11.960 C 12.788 11.960,12.800 11.936,12.800 11.907 C 12.800 11.787,13.084 11.524,13.302 11.443 C 13.551 11.350,13.997 11.332,14.260 11.405 C 14.461 11.461,14.656 11.666,14.710 11.877 C 14.759 12.070,14.851 12.035,13.914 12.180 C 12.437 12.409,11.859 12.688,11.567 13.312 C 11.470 13.518,11.460 13.585,11.460 14.000 C 11.460 14.419,11.470 14.479,11.569 14.681 C 11.739 15.029,11.928 15.220,12.266 15.387 C 12.552 15.528,12.592 15.537,13.035 15.553 C 13.309 15.562,13.597 15.550,13.730 15.522 C 14.046 15.456,14.401 15.270,14.660 15.033 L 14.880 14.832 14.880 15.136 L 14.880 15.440 15.440 15.440 L 16.000 15.440 16.000 13.568 C 16.000 12.006,15.990 11.657,15.938 11.458 C 15.730 10.661,15.089 10.245,13.978 10.187 C 13.759 10.175,13.460 10.182,13.313 10.202 M19.660 10.321 C 19.177 10.389,18.747 10.621,18.534 10.929 L 18.420 11.094 18.409 10.707 L 18.397 10.320 17.819 10.320 L 17.240 10.320 17.240 12.880 L 17.240 15.440 17.898 15.440 L 18.556 15.440 18.568 13.910 L 18.580 12.380 18.694 12.148 C 18.915 11.698,19.362 11.461,19.941 11.487 L 20.240 11.500 20.240 10.910 C 20.240 10.436,20.229 10.320,20.185 10.320 C 20.155 10.320,20.078 10.313,20.015 10.304 C 19.952 10.295,19.792 10.303,19.660 10.321 M14.720 13.293 C 14.720 13.633,14.619 13.903,14.408 14.129 C 14.146 14.409,13.893 14.529,13.517 14.551 C 12.989 14.583,12.700 14.386,12.700 13.994 C 12.700 13.833,12.720 13.784,12.835 13.665 C 13.029 13.465,13.293 13.365,14.020 13.217 C 14.372 13.145,14.673 13.085,14.690 13.083 C 14.707 13.081,14.720 13.176,14.720 13.293" stroke="none" fill-rule="evenodd"/></svg>