<?xml version="1.0" encoding="UTF-8" standalone="no"?>
<svg xmlns="http://www.w3.org/2000/svg" width="24" height="24"><path d="M4.378 1.058 C 2.674 1.323,1.320 2.686,1.058 4.400 C 0.972 4.968,0.972 19.032,1.058 19.600 C 1.284 21.077,2.308 22.297,3.732 22.785 C 4.373 23.005,4.181 23.000,12.000 23.000 C 19.819 23.000,19.627 23.005,20.268 22.785 C 21.689 22.298,22.717 21.073,22.942 19.600 C 23.028 19.032,23.028 4.968,22.942 4.400 C 22.716 2.923,21.692 1.703,20.268 1.215 C 19.626 0.995,19.826 1.000,11.960 1.004 C 6.366 1.007,4.626 1.019,4.378 1.058 M19.492 3.060 C 19.852 3.153,20.118 3.310,20.404 3.596 C 20.690 3.882,20.847 4.148,20.940 4.508 C 21.030 4.854,21.030 19.146,20.940 19.492 C 20.847 19.852,20.690 20.118,20.404 20.404 C 20.118 20.690,19.852 20.847,19.492 20.940 C 19.146 21.030,4.854 21.030,4.508 20.940 C 4.148 20.847,3.882 20.690,3.596 20.404 C 3.310 20.118,3.153 19.852,3.060 19.492 C 2.970 19.146,2.970 4.854,3.060 4.508 C 3.153 4.148,3.310 3.882,3.596 3.596 C 3.876 3.316,4.146 3.154,4.491 3.062 C 4.815 2.974,19.158 2.972,19.492 3.060 M5.000 9.756 L 5.000 14.520 5.960 14.520 L 6.919 14.520 6.930 13.010 L 6.940 11.500 7.760 11.476 C 8.211 11.463,8.691 11.431,8.827 11.405 C 9.948 11.190,10.781 10.564,11.241 9.591 C 11.441 9.168,11.492 8.842,11.471 8.107 C 11.454 7.505,11.444 7.437,11.329 7.130 C 11.169 6.702,10.967 6.373,10.669 6.055 C 10.218 5.573,9.676 5.282,8.912 5.112 C 8.576 5.037,8.371 5.028,6.770 5.011 L 5.000 4.992 5.000 9.756 M8.191 6.841 C 8.615 6.910,8.875 7.030,9.110 7.264 C 9.724 7.878,9.714 8.667,9.084 9.250 C 8.888 9.431,8.793 9.486,8.514 9.575 C 8.218 9.670,8.109 9.684,7.560 9.691 L 6.940 9.700 6.930 8.250 L 6.919 6.800 7.430 6.800 C 7.710 6.800,8.053 6.819,8.191 6.841 M13.675 10.063 C 13.459 10.129,13.181 10.381,13.094 10.587 C 13.062 10.665,13.018 10.884,12.997 11.074 C 12.939 11.589,12.769 11.922,12.345 12.345 C 11.922 12.769,11.589 12.939,11.074 12.997 C 10.644 13.045,10.491 13.108,10.283 13.321 C 10.120 13.490,10.000 13.777,10.000 14.000 C 10.000 14.238,10.120 14.514,10.304 14.697 C 10.548 14.942,10.809 15.020,11.251 14.981 C 13.135 14.817,14.817 13.135,14.981 11.251 C 15.020 10.809,14.942 10.548,14.697 10.304 C 14.418 10.025,14.067 9.942,13.675 10.063 M16.280 10.035 C 15.987 10.131,15.728 10.355,15.626 10.600 C 15.594 10.677,15.555 10.893,15.541 11.080 C 15.481 11.856,15.337 12.381,15.017 13.001 C 14.692 13.631,14.259 14.149,13.715 14.559 C 12.950 15.135,12.236 15.405,11.264 15.485 C 10.679 15.532,10.580 15.561,10.364 15.745 C 10.115 15.959,10.022 16.163,10.022 16.500 C 10.022 16.829,10.112 17.034,10.345 17.239 C 10.575 17.441,10.709 17.480,11.169 17.480 C 12.202 17.479,13.493 17.089,14.429 16.493 C 15.975 15.510,17.036 13.975,17.403 12.190 C 17.505 11.692,17.548 10.925,17.485 10.698 C 17.430 10.495,17.200 10.222,16.996 10.118 C 16.823 10.030,16.434 9.985,16.280 10.035 M18.673 10.063 C 18.265 10.189,18.000 10.608,18.000 11.129 C 18.000 12.628,17.333 14.413,16.329 15.599 C 15.985 16.005,15.338 16.584,14.920 16.859 C 13.848 17.565,12.729 17.923,11.400 17.984 C 11.125 17.997,10.807 18.033,10.693 18.064 C 10.316 18.167,10.000 18.594,10.000 19.000 C 10.000 19.238,10.120 19.514,10.304 19.697 C 10.568 19.961,10.794 20.019,11.432 19.985 C 13.504 19.874,15.298 19.199,16.750 17.985 C 18.585 16.449,19.732 14.238,19.957 11.800 C 20.043 10.873,19.996 10.602,19.697 10.303 C 19.418 10.024,19.067 9.942,18.673 10.063" stroke="none" fill-rule="evenodd"/></svg>