<?xml version="1.0" encoding="UTF-8" standalone="no"?>
<svg xmlns="http://www.w3.org/2000/svg" width="24" height="24"><path d="M2.580 3.047 C 1.846 3.187,1.185 3.863,1.041 4.620 C 1.008 4.795,0.999 6.604,1.009 11.260 L 1.021 17.660 1.132 18.038 C 1.574 19.546,2.717 20.610,4.226 20.917 C 4.628 20.999,4.709 21.000,12.011 21.000 C 19.997 21.000,19.693 21.008,20.340 20.787 C 21.487 20.396,22.396 19.487,22.787 18.340 C 22.996 17.728,23.000 17.643,23.000 14.097 C 23.000 11.847,22.986 10.737,22.956 10.592 C 22.797 9.830,22.138 9.181,21.383 9.043 C 21.233 9.016,20.411 9.000,19.153 9.000 L 17.160 9.000 17.160 6.947 C 17.160 5.656,17.144 4.807,17.117 4.657 C 17.051 4.293,16.824 3.857,16.564 3.598 C 16.309 3.343,15.861 3.102,15.525 3.040 C 15.240 2.987,2.859 2.994,2.580 3.047 M15.169 11.390 L 15.180 17.780 15.290 18.131 C 15.351 18.325,15.453 18.599,15.518 18.741 L 15.635 19.000 10.219 19.000 C 6.420 19.000,4.741 18.987,4.592 18.956 C 3.830 18.797,3.181 18.138,3.043 17.383 C 3.013 17.219,3.000 15.261,3.000 11.073 L 3.000 5.000 9.079 5.000 L 15.159 5.000 15.169 11.390 M4.664 6.063 C 4.436 6.146,4.257 6.297,4.131 6.511 L 4.020 6.700 4.020 8.500 L 4.020 10.300 4.131 10.489 C 4.192 10.592,4.301 10.723,4.374 10.778 C 4.677 11.009,4.484 11.000,8.998 11.000 C 13.663 11.000,13.384 11.018,13.701 10.701 C 13.995 10.407,14.000 10.371,14.000 8.500 C 14.000 6.629,13.995 6.593,13.701 6.299 C 13.384 5.982,13.666 6.000,8.983 6.003 C 5.474 6.005,4.795 6.015,4.664 6.063 M12.000 8.500 L 12.000 9.000 9.000 9.000 L 6.000 9.000 6.000 8.500 L 6.000 8.000 9.000 8.000 L 12.000 8.000 12.000 8.500 M20.998 14.150 C 20.996 16.994,20.989 17.326,20.927 17.563 C 20.753 18.229,20.212 18.763,19.532 18.940 C 18.549 19.197,17.479 18.566,17.222 17.579 C 17.169 17.376,17.160 16.897,17.160 14.172 L 17.160 11.000 19.080 11.000 L 21.000 11.000 20.998 14.150 M4.664 12.063 C 4.436 12.146,4.257 12.297,4.131 12.511 C 4.036 12.672,4.020 12.744,4.020 13.000 C 4.020 13.256,4.036 13.328,4.131 13.489 C 4.192 13.592,4.301 13.723,4.374 13.778 C 4.677 14.009,4.484 14.000,8.998 14.000 C 13.663 14.000,13.384 14.018,13.701 13.701 C 14.092 13.310,14.092 12.690,13.701 12.299 C 13.384 11.982,13.666 12.000,8.983 12.003 C 5.474 12.005,4.795 12.015,4.664 12.063 M4.664 15.063 C 4.436 15.146,4.257 15.297,4.131 15.511 C 4.036 15.672,4.020 15.744,4.020 16.000 C 4.020 16.256,4.036 16.328,4.131 16.489 C 4.192 16.592,4.301 16.723,4.374 16.778 C 4.677 17.009,4.484 17.000,8.998 17.000 C 13.663 17.000,13.384 17.018,13.701 16.701 C 14.092 16.310,14.092 15.690,13.701 15.299 C 13.384 14.982,13.666 15.000,8.983 15.003 C 5.474 15.005,4.795 15.015,4.664 15.063" stroke="none" fill-rule="evenodd"/></svg>