<?xml version="1.0" encoding="UTF-8" standalone="no"?>
<svg xmlns="http://www.w3.org/2000/svg" width="24" height="24"><path d="M4.378 1.058 C 2.674 1.323,1.320 2.686,1.058 4.400 C 0.972 4.968,0.972 19.032,1.058 19.600 C 1.284 21.077,2.308 22.297,3.732 22.785 C 4.373 23.005,4.181 23.000,12.000 23.000 C 19.819 23.000,19.627 23.005,20.268 22.785 C 21.689 22.298,22.717 21.073,22.942 19.600 C 23.028 19.032,23.028 4.968,22.942 4.400 C 22.716 2.923,21.692 1.703,20.268 1.215 C 19.626 0.995,19.826 1.000,11.960 1.004 C 6.366 1.007,4.626 1.019,4.378 1.058 M19.492 3.060 C 19.852 3.153,20.118 3.310,20.404 3.596 C 20.690 3.882,20.847 4.148,20.940 4.508 C 21.030 4.854,21.030 19.146,20.940 19.492 C 20.847 19.852,20.690 20.118,20.404 20.404 C 20.118 20.690,19.852 20.847,19.492 20.940 C 19.146 21.030,4.854 21.030,4.508 20.940 C 4.148 20.847,3.882 20.690,3.596 20.404 C 3.310 20.118,3.153 19.852,3.060 19.492 C 2.970 19.146,2.970 4.854,3.060 4.508 C 3.153 4.148,3.310 3.882,3.596 3.596 C 3.876 3.316,4.146 3.154,4.491 3.062 C 4.815 2.974,19.158 2.972,19.492 3.060 M11.667 7.065 C 11.303 7.177,11.000 7.602,11.000 8.000 C 11.000 8.402,11.312 8.827,11.690 8.939 C 11.948 9.016,12.099 9.016,12.325 8.939 C 12.892 8.746,13.161 8.099,12.896 7.568 C 12.664 7.102,12.184 6.906,11.667 7.065 M11.667 11.065 C 11.399 11.147,11.145 11.408,11.063 11.684 C 10.970 11.994,10.969 16.001,11.061 16.310 C 11.173 16.688,11.598 17.000,12.000 17.000 C 12.237 17.000,12.514 16.880,12.697 16.697 C 13.002 16.391,13.000 16.411,13.000 14.000 C 13.000 11.589,13.002 11.609,12.697 11.303 C 12.416 11.022,12.067 10.942,11.667 11.065" stroke="none" fill-rule="evenodd"/></svg>