<?xml version="1.0" encoding="UTF-8" standalone="no"?>
<svg xmlns="http://www.w3.org/2000/svg" width="24" height="24"><path d="M8.785 3.063 C 8.228 3.198,7.709 3.613,7.475 4.110 C 7.401 4.267,6.705 6.586,5.804 9.680 L 4.259 14.980 3.885 15.009 C 3.378 15.048,3.089 15.126,2.640 15.347 C 2.320 15.504,2.203 15.590,1.897 15.897 C 1.590 16.203,1.504 16.320,1.347 16.640 C 1.090 17.163,1.024 17.441,1.024 18.000 C 1.023 18.851,1.290 19.492,1.898 20.103 C 2.204 20.411,2.318 20.495,2.640 20.653 C 2.849 20.756,3.127 20.866,3.257 20.899 C 4.353 21.176,5.531 20.805,6.272 19.950 C 6.461 19.731,6.690 19.359,6.763 19.150 L 6.816 19.000 11.998 19.003 L 17.180 19.005 17.357 19.373 C 17.507 19.685,17.588 19.794,17.897 20.100 C 18.509 20.707,19.136 20.969,19.980 20.971 C 20.875 20.974,21.603 20.658,22.204 20.008 C 23.721 18.366,22.933 15.695,20.753 15.094 C 20.404 14.998,19.596 14.998,19.247 15.094 C 18.717 15.240,18.251 15.511,17.864 15.898 C 17.639 16.123,17.323 16.602,17.236 16.850 L 17.184 17.000 12.000 17.000 L 6.816 17.000 6.763 16.850 C 6.688 16.638,6.464 16.274,6.260 16.035 C 6.164 15.923,6.093 15.811,6.102 15.786 C 6.110 15.761,6.812 13.355,7.660 10.440 C 8.509 7.525,9.213 5.109,9.224 5.070 C 9.244 5.005,9.348 5.000,10.675 5.000 C 12.337 5.000,12.404 4.990,12.697 4.697 C 12.880 4.514,13.000 4.237,13.000 4.000 C 13.000 3.598,12.688 3.173,12.310 3.061 C 12.022 2.975,9.141 2.977,8.785 3.063 M16.643 3.069 C 16.291 3.193,16.000 3.614,16.000 4.000 C 16.000 4.080,16.030 4.234,16.066 4.343 C 16.123 4.514,16.259 4.668,17.105 5.521 L 18.079 6.502 17.138 7.441 C 16.186 8.392,16.068 8.542,16.017 8.865 C 15.923 9.461,16.539 10.077,17.135 9.983 C 17.458 9.932,17.608 9.814,18.559 8.862 L 19.498 7.921 20.479 8.897 C 21.394 9.806,21.475 9.876,21.677 9.936 C 21.948 10.016,22.012 10.016,22.283 9.936 C 22.581 9.847,22.847 9.581,22.936 9.283 C 23.016 9.012,23.016 8.948,22.936 8.677 C 22.876 8.475,22.806 8.394,21.897 7.479 L 20.921 6.498 21.862 5.559 C 22.915 4.508,23.001 4.388,22.999 3.982 C 22.998 3.669,22.903 3.462,22.661 3.249 C 22.449 3.062,22.279 3.001,21.978 3.000 C 21.617 3.000,21.466 3.112,20.441 4.138 L 19.502 5.079 18.521 4.105 C 17.668 3.259,17.514 3.123,17.343 3.066 C 17.102 2.985,16.877 2.986,16.643 3.069 M4.512 17.147 C 5.142 17.534,5.154 18.446,4.535 18.839 C 4.060 19.141,3.442 18.992,3.141 18.503 C 3.034 18.329,3.020 18.271,3.020 18.003 C 3.020 17.744,3.036 17.673,3.131 17.511 C 3.339 17.158,3.660 16.988,4.072 17.015 C 4.261 17.027,4.371 17.060,4.512 17.147 M20.512 17.147 C 21.142 17.534,21.154 18.446,20.535 18.839 C 20.060 19.141,19.442 18.992,19.141 18.503 C 19.034 18.329,19.020 18.271,19.020 18.003 C 19.020 17.744,19.036 17.673,19.131 17.511 C 19.339 17.158,19.660 16.988,20.072 17.015 C 20.261 17.027,20.371 17.060,20.512 17.147" stroke="none" fill-rule="evenodd"/></svg>