<?xml version="1.0" encoding="UTF-8" standalone="no"?>
<svg xmlns:dc="http://purl.org/dc/elements/1.1/" xmlns:cc="http://creativecommons.org/ns#" xmlns:rdf="http://www.w3.org/1999/02/22-rdf-syntax-ns#" xmlns:svg="http://www.w3.org/2000/svg" xmlns="http://www.w3.org/2000/svg" xmlns:xlink="http://www.w3.org/1999/xlink" xmlns:sodipodi="http://sodipodi.sourceforge.net/DTD/sodipodi-0.dtd" xmlns:inkscape="http://www.inkscape.org/namespaces/inkscape" width="23.706667mm" height="18.584173mm" viewBox="0 0 84.000001 65.849432" id="svg8449" version="1.1" inkscape:version="0.91 r13725" sodipodi:docname="Ente_Badebus_Sonne.svg"><defs id="defs8451"><radialGradient gradientUnits="userSpaceOnUse" gradientTransform="matrix(1,0,0,0.47161576,122.7366,-2864.1168)" r="115.66247" fy="355.0658" fx="1390.475" cy="355.0658" cx="1390.475" id="radialGradient8845-9-4-2-6" xlink:href="#linearGradient8839" inkscape:collect="always"/><linearGradient id="linearGradient8839" inkscape:collect="always"><stop id="stop8841" offset="0" style="stop-color:#fdde48;stop-opacity:1"/><stop id="stop8843" offset="1" style="stop-color:#fdcf43;stop-opacity:0;"/></linearGradient><radialGradient gradientUnits="userSpaceOnUse" gradientTransform="matrix(1,0,0,1.0326608,440.58592,1542.704)" r="75.089096" fy="235.87996" fx="1883.2136" cy="235.87996" cx="1883.2136" id="radialGradient8811-06-1-4" xlink:href="#linearGradient8805" inkscape:collect="always"/><linearGradient id="linearGradient8805" inkscape:collect="always"><stop id="stop8807" offset="0" style="stop-color:#cb8628;stop-opacity:1"/><stop id="stop8809" offset="1" style="stop-color:#c57b28;stop-opacity:0;"/></linearGradient><radialGradient gradientUnits="userSpaceOnUse" gradientTransform="matrix(-1,0,0,1.0326608,4555.7318,1515.0981)" r="75.089096" fy="244.1803" fx="1894.6422" cy="244.1803" cx="1894.6422" id="radialGradient8811-4-5-6-9" xlink:href="#linearGradient8805" inkscape:collect="always"/><radialGradient gradientUnits="userSpaceOnUse" gradientTransform="matrix(1,0,0,1.4585153,1105.4247,1495.7505)" r="115.66247" fy="378.59045" fx="1416.7389" cy="378.59045" cx="1416.7389" id="radialGradient8845-4-8-2" xlink:href="#linearGradient8839" inkscape:collect="always"/><radialGradient gradientUnits="userSpaceOnUse" gradientTransform="matrix(1,0,0,0.51528388,131.8279,-2460.4088)" r="115.66247" fy="429.56036" fx="1380.3734" cy="429.56036" cx="1380.3734" id="radialGradient8845-9-8-4-6-39" xlink:href="#linearGradient8839" inkscape:collect="always"/><filter height="1.711" y="-0.35549998" width="1.1805714" x="-0.090285718" id="filter8503-7-30-0-0" style="color-interpolation-filters:sRGB" inkscape:collect="always"><feGaussianBlur id="feGaussianBlur8505-5-6-6-1" stdDeviation="2.3940615" inkscape:collect="always"/></filter><radialGradient gradientUnits="userSpaceOnUse" gradientTransform="matrix(1,0,0,0.51289629,0,-535.52786)" r="37.565552" fy="-1110.3694" fx="1763.5975" cy="-1110.3694" cx="1763.5975" id="radialGradient8927-4-4-7" xlink:href="#linearGradient8921" inkscape:collect="always"/><linearGradient id="linearGradient8921" inkscape:collect="always"><stop id="stop8923" offset="0" style="stop-color:#f9d4d2;stop-opacity:1;"/><stop id="stop8925" offset="1" style="stop-color:#f9d4d2;stop-opacity:0;"/></linearGradient><filter height="1.711" y="-0.35549998" width="1.1805714" x="-0.090285718" id="filter8503-7-3-4-4-7" style="color-interpolation-filters:sRGB" inkscape:collect="always"><feGaussianBlur id="feGaussianBlur8505-5-9-22-6-21" stdDeviation="2.3940615" inkscape:collect="always"/></filter><linearGradient inkscape:collect="always" xlink:href="#linearGradient9967" id="linearGradient34691" gradientUnits="userSpaceOnUse" gradientTransform="translate(3384.7026,2317.5307)" x1="-923.55231" y1="-893.20618" x2="-916.66101" y2="-688.92047"/><linearGradient id="linearGradient9967" inkscape:collect="always"><stop id="stop9969" offset="0" style="stop-color:#cf2f48;stop-opacity:1"/><stop style="stop-color:#a9202a;stop-opacity:1;" offset="0.38405073" id="stop9977"/><stop style="stop-color:#9a1a1f;stop-opacity:1" offset="0.53894168" id="stop9975"/><stop id="stop9979" offset="0.71234852" style="stop-color:#b71d29;stop-opacity:1;"/><stop id="stop9971" offset="1" style="stop-color:#e8223a;stop-opacity:1"/></linearGradient></defs><sodipodi:namedview id="base" pagecolor="#ffffff" bordercolor="#666666" borderopacity="1.0" inkscape:pageopacity="0.0" inkscape:pageshadow="2" inkscape:zoom="0.35" inkscape:cx="-805.55482" inkscape:cy="-264.90854" inkscape:document-units="px" inkscape:current-layer="layer1" showgrid="false" fit-margin-top="0" fit-margin-left="0" fit-margin-right="0" fit-margin-bottom="0" inkscape:window-width="2560" inkscape:window-height="1378" inkscape:window-x="-8" inkscape:window-y="-8" inkscape:window-maximized="1"/><metadata id="metadata8454"><rdf:RDF><cc:Work rdf:about=""><dc:format>image/svg+xml</dc:format><dc:type rdf:resource="http://purl.org/dc/dcmitype/StillImage"/><dc:title/></cc:Work></rdf:RDF></metadata><g inkscape:label="Layer 1" inkscape:groupmode="layer" id="layer1" transform="translate(-521.9834,-201.60424)"><g transform="matrix(0.56,0,0,0.56,460.55521,-139.30864)" id="g5903-9-0-6"><path inkscape:connector-curvature="0" id="path504-3-2-4-5" style="fill:#4f6fb6;fill-opacity:1;fill-rule:nonzero;stroke:none" d="m 109.69319,717.61208 c 0,0 35.7507,6.23152 59.8575,-3.49828 20.6316,-8.32743 31.8414,-13.82722 51.1123,-11.47999 25.8452,3.14908 39.0302,15.96202 39.0302,15.96202 0,0 -15.787,-9.4896 -48.6518,-8.19969 -20.7454,0.81434 -44.6065,14.75957 -68.221,13.44746 -19.1833,-1.06566 -33.1272,-6.23152 -33.1272,-6.23152"/><g id="g10401-24-0-77" transform="matrix(0.09314269,0,0,0.09314269,-56.808826,506.496)"><path style="fill:#4f6fb6;fill-opacity:1" d="m 2955.482,2202.3741 c -1.0811,2.1225 -2.122,4.052 -3.082,5.6933 0.96,-1.6413 2.001,-3.5707 3.082,-5.6933 z m -3.082,5.6933 c -1.4401,2.4621 -2.6977,4.2778 -3.6309,5.129 0.9332,-0.8512 2.1909,-2.6669 3.6309,-5.129 z m -4.1348,5.7168 c -0.7064,0.8907 -1.9578,2.6075 -3.2051,4.4122 1.2473,-1.8047 2.4987,-3.5215 3.2051,-4.4122 z m -3.2051,4.4122 c -1.2472,1.8047 -2.73,3.78 -3.7656,5.039 1.0357,-1.2588 2.5184,-3.2343 3.7656,-5.039 z m -852.33,4.2714 c 0.8505,1.9405 1.1822,4.174 1.5449,8.0137 0.4332,4.5865 0.7869,10.8906 0.7969,14.0078 0.01,5.2043 0.5443,6.1794 6.5703,11.9278 13.0085,12.4092 24.1984,21.4889 30.3222,24.6054 3.4321,1.7466 7.6047,4.6371 9.2715,6.4239 1.6667,1.7868 4.0635,3.25 5.3262,3.25 2.6443,0 13.2158,4.7496 14.2324,6.3945 0.3755,0.6076 1.7811,1.1055 3.1231,1.1055 1.3419,0 5.1051,1.1895 8.3632,2.6445 12.9124,5.7663 14.8308,6.567 20.7246,8.6426 3.361,1.1836 7.0297,2.9369 8.1543,3.8964 1.1246,0.9595 5.42,2.3801 9.545,3.1583 4.125,0.7781 9.4687,2.0059 11.875,2.7285 2.4062,0.7225 6.9062,1.9784 10,2.789 3.0937,0.8106 6.75,1.9338 8.125,2.4981 2.7994,1.1487 7.3754,2.3409 23.75,6.1836 6.1875,1.452 13.2187,3.1265 15.625,3.7207 7.4907,1.8496 15.3293,3.5182 23.125,4.9218 16.8704,3.0375 40.4963,7.7562 48.125,9.6133 4.4687,1.0878 13.4687,2.4431 20,3.0098 6.5312,0.5667 15.25,1.5863 19.375,2.2676 4.125,0.6814 21.5625,1.8933 38.75,2.6933 17.1875,0.8 38.5625,1.8858 47.5,2.4121 42.0569,2.4765 124.7891,0.7828 176.25,-3.6093 8.25,-0.7042 18.6562,-1.5423 23.125,-1.8614 11.7516,-0.839 40.5075,-5.4491 63.75,-10.2207 5.1562,-1.0585 12.1875,-2.4242 15.625,-3.0351 3.4375,-0.611 8.5,-1.6805 11.25,-2.377 2.75,-0.6965 8.6899,-1.2808 13.1992,-1.2969 5.2326,-0.019 9.0763,-0.6939 10.625,-1.8652 1.3881,-1.05 5.2019,-1.852 8.914,-1.875 3.5688,-0.022 6.8369,-0.6015 7.2618,-1.289 0.4249,-0.6875 2.5679,-1.2691 4.7617,-1.2911 2.1938,-0.022 5.0795,-0.8657 6.414,-1.875 1.3345,-1.0094 3.9383,-1.8339 5.7852,-1.8339 1.8469,0 4.0582,-0.8437 4.9141,-1.875 0.8558,-1.0312 2.7521,-1.8941 4.2148,-1.9161 1.4627,-0.022 3.7514,-0.8657 5.0859,-1.875 1.3345,-1.0094 3.7369,-1.8339 5.338,-1.8339 1.601,0 5.076,-1.3683 7.7227,-3.0391 2.6467,-1.6707 6.9653,-3.4401 9.5957,-3.9336 2.6305,-0.4934 8.0149,-2.5021 11.9668,-4.4629 3.952,-1.9607 7.5102,-3.5644 7.9062,-3.5644 0.396,0 2.9473,-1.4062 5.67,-3.125 2.7226,-1.7187 5.5836,-3.125 6.3574,-3.125 0.7738,0 3.0785,-1.4062 5.1211,-3.125 2.0425,-1.7187 4.9014,-3.125 6.3534,-3.125 3.2416,0 24.4157,-21.6827 25.5371,-26.1504 1.1485,-4.5753 1.0957,-18.9368 -0.086,-23.3985 -0.5134,-1.9384 -0.5861,-3.1106 0.1894,-4.5761 l -0.4765,-0.012 c -10.0475,9.5919 -19.1888,9.2817 -42.2441,29.3946 -14.7189,9.3676 -57.8062,28.8734 -83.7501,37.916 -19.7006,6.8665 -60.6162,16.6904 -84.375,20.2578 -5.1562,0.7742 -11.3437,1.8934 -13.75,2.4863 -8.6707,2.1364 -74.9402,8.6848 -100.5683,9.9375 -33.3749,1.6315 -84.1522,1.6298 -122.5567,0 -33.1863,-1.4117 -91.6639,-6.953 -118.75,-11.2519 -4.125,-0.6546 -16.5,-2.6115 -27.5,-4.3496 -59.3534,-9.3781 -97.8885,-19.3148 -140.625,-36.2598 -34.6449,-13.7368 -60.9907,-28.6407 -88.9844,-50.3399 -5.5979,-4.2948 -9.4032,-8.3191 -13.4921,-13.1328 z m 847.4121,2.086 c -0.3208,0.3631 -0.6191,0.7378 -0.8418,1.0859 0.2226,-0.3479 0.5214,-0.723 0.8418,-1.0859 z m -1.3125,2.1758 c 0,0.1175 -0.1439,0.3829 -0.4043,0.7617 0.2604,-0.3787 0.4043,-0.6442 0.4043,-0.7617 z m -0.4043,0.7617 c -0.4011,0.5833 -1.1326,1.4814 -1.9825,2.4765 0.8502,-0.9953 1.5813,-1.8932 1.9825,-2.4765 z" id="path8357-2-1-7-9" inkscape:connector-curvature="0" sodipodi:nodetypes="cccccccccccccscsccscssssccscscssscssscscscccsscssscscccssssscscccssssccsscccccccccccc"/><path style="fill:#f0be29;fill-opacity:1" d="m 2441.4818,1179.5372 -7.6523,4.211 c -4.2087,2.3164 -7.9336,4.574 -8.2774,5.0156 -0.3437,0.4416 -2.5937,2.1541 -5,3.8066 -2.4062,1.6525 -4.6562,3.34 -5,3.75 -0.3437,0.41 -2.5937,2.0975 -5,3.75 -2.4062,1.6525 -4.6562,3.3401 -5,3.75 -1.0744,1.2811 -11.1775,6.8632 -30.625,16.9219 -10.3125,5.3339 -19.0313,10.0373 -19.375,10.4512 -0.3438,0.4138 -3.1563,2.1298 -6.25,3.8144 -3.0938,1.6845 -6.1875,3.5224 -6.875,4.084 -0.6875,0.5616 -4.9063,3.7448 -9.375,7.0742 -10.6797,7.9568 -24.1121,21.5064 -30.205,30.4668 -2.6881,3.9531 -5.4968,7.1875 -6.2422,7.1875 -2.5124,0 -38.0684,27.5948 -40.1953,31.1953 -1.5621,2.6444 -2.1075,6.5217 -2.1075,14.9981 0,12.8671 1.0705,15.871 9.0899,25.5176 l 5.0605,6.0878 -1.5527,8.2872 c -3.0503,16.2978 -13.7042,46.7767 -17.5352,50.164 -0.3888,0.3438 -2.331,3.7188 -4.3164,7.5 -1.9855,3.7813 -4.285,7.7188 -5.1113,8.75 -0.8262,1.0313 -3.1755,4.9688 -5.2207,8.75 -2.0451,3.7813 -4.8649,8.8438 -6.2656,11.25 -8.0065,13.7534 -9.3297,16.2562 -14.8692,28.125 -2.567,5.5 -5.1057,11.9688 -5.6406,14.375 -0.535,2.4063 -1.569,6.625 -2.2988,9.375 -8.0611,30.3743 -8.102,61.1674 -0.1231,92.0236 6.1789,23.8956 9.4891,31.8889 20.918,50.5078 8.0023,13.0366 8.7535,13.959 23.4902,28.8476 12.1023,12.2271 17.1713,16.0824 34.375,26.1367 4.4687,2.6116 9.5312,5.6778 11.25,6.8145 1.7187,1.1367 8.6848,4.7542 15.4786,8.0391 19.2809,9.3225 21.7266,13.1752 13.8828,21.8574 -5.3023,5.869 -8.0348,6.9656 -22.1973,8.9101 -8.882,1.2195 -13.5066,2.7485 -24.375,8.0606 -13.4249,6.5616 -18.6209,8.9601 -26.2266,12.1074 -2.2344,0.9245 -4.0625,2.0383 -4.0625,2.4746 0,0.4363 -1.8282,1.5198 -4.0625,2.4082 -2.2344,0.8885 -8.7191,4.3324 -14.4121,7.6524 -5.6929,3.3199 -11.1773,6.0351 -12.1875,6.0351 -1.0101,0 -1.8379,0.4413 -1.8379,0.9805 0,0.5393 -1.679,1.9726 -3.7324,3.1855 -6.5403,3.8635 -24.2204,17.6101 -30.666,23.8438 -7.8401,7.5823 -13.0098,10.8803 -22.4766,14.3398 -6.0253,2.2018 -9.0326,4.3908 -15.2988,11.1328 -4.2899,4.6157 -7.8025,9.0495 -7.8125,9.8516 -0.01,0.802 -0.4402,1.6458 -0.9609,1.875 -0.5208,0.2291 -2.9114,2.9332 -5.3125,6.0098 -5.0164,6.4275 -9.7913,11.888 -21.2716,24.3222 -11.5455,12.5049 -26.1204,29.7534 -30.998,36.6836 -2.2847,3.246 -6.2222,8.3856 -8.75,11.4219 -2.5279,3.0364 -5.288,6.9739 -6.1348,8.75 -0.8467,1.7762 -3.6772,6.6035 -6.291,10.7285 -5.1317,8.0988 -17.795,32.6616 -17.795,34.5176 0,0.6243 -1.0654,3.5192 -2.3691,6.4336 -11.3523,25.377 -15.7291,38.2852 -18.4844,54.5195 -2.8776,16.9548 -1.2815,24.5191 9.6738,45.8281 5.8639,11.4058 8.9733,19.0835 9.9336,24.5274 1.2595,7.1396 2.9562,14.9174 9.3614,42.9238 1.1006,4.8125 2.5377,9.7281 3.1934,10.9219 0.6557,1.1938 1.1914,3.3031 1.1914,4.6875 0,1.3843 0.5625,2.5156 1.25,2.5156 0.6875,0 1.25,0.852 1.25,1.8926 0,3.1049 1.7844,5.9111 12.5644,19.7617 8.2746,10.6315 10.4354,13.2059 18.2012,21.6817 2.2727,2.4806 3.5682,4.0743 4.3848,5.9375 4.0889,4.8137 7.8943,8.838 13.4922,13.1328 27.9937,21.6991 54.3395,36.603 88.9844,50.3398 42.7365,16.945 81.2716,26.8817 140.625,36.2598 11,1.7381 23.375,3.695 27.5,4.3496 27.0861,4.2989 85.5637,9.8402 118.75,11.2519 38.4045,1.6298 89.1817,1.6315 122.5566,0 25.6281,-1.2527 91.8977,-7.8011 100.5684,-9.9375 2.4063,-0.5929 8.5938,-1.7121 13.75,-2.4863 23.7588,-3.5674 64.6744,-13.3913 84.375,-20.2578 25.9439,-9.0426 69.0311,-28.5484 83.75,-37.916 23.0554,-20.1129 32.1966,-19.8026 42.2441,-29.3945 l 0.4765,0.01 c 0.6348,-1.199 1.8257,-2.5904 3.8985,-4.791 2.8207,-2.9945 5.1289,-5.8306 5.1289,-6.3008 0,-0.4703 0.7215,-1.5973 1.6035,-2.5058 0.882,-0.9085 2.9639,-3.6211 4.6269,-6.0274 1.663,-2.4062 3.3322,-4.6562 3.709,-5 4.9771,-4.5396 19.1641,-36.496 21.2168,-47.7929 3.3672,-18.5305 5.5872,-27.0155 9.041,-34.5489 6.6424,-14.488 7.3898,-16.2982 9.2266,-22.3515 2.333,-7.6883 2.2938,-15.1001 -0.1367,-25.9317 -4.3125,-19.2192 -4.6524,-20.5956 -8.4805,-34.375 -2.7756,-9.9908 -9.6284,-30.4177 -10.6933,-31.875 -0.5023,-0.6875 -1.6781,-3.7812 -2.6133,-6.875 -0.9352,-3.0937 -2.0683,-6.1875 -2.5196,-6.875 -0.4513,-0.6875 -2.1271,-4.625 -3.7226,-8.75 -1.5955,-4.125 -7.9561,-17.625 -14.1348,-30 -6.1786,-12.375 -11.8551,-23.7612 -12.6152,-25.3027 -0.7601,-1.5415 -1.8047,-2.8025 -2.3203,-2.8125 -0.5156,-0.01 -0.9375,-0.5813 -0.9375,-1.2813 0,-0.6999 -2.25,-4.9773 -5,-9.5039 -2.75,-4.5266 -5,-8.4548 -5,-8.7304 0,-0.888 -17.255,-26.0335 -19.6387,-28.6192 -1.2676,-1.375 -3.676,-4.4687 -5.3535,-6.875 -1.6774,-2.4062 -3.7794,-5.126 -4.6719,-6.0449 -0.8924,-0.9189 -3.1608,-3.7314 -5.041,-6.25 -1.8802,-2.5186 -4.6855,-5.9797 -6.2324,-7.6914 -1.5469,-1.7117 -2.8125,-3.5269 -2.8125,-4.0332 0,-1.7979 -37.1993,-38.2043 -48.1973,-47.1699 -6.1476,-5.0117 -13.7089,-10.3098 -16.8027,-11.7735 -3.0937,-1.4638 -5.9062,-3.0126 -6.25,-3.4414 -0.3437,-0.4289 -5.125,-3.1042 -10.625,-5.9453 -5.5,-2.8411 -10.8437,-5.7296 -11.875,-6.4199 -1.0312,-0.6903 -6.0937,-3.5659 -11.25,-6.3887 -18.7124,-10.2441 -23.1476,-12.717 -24.375,-13.5957 -6.719,-4.8105 -21.5856,-11.3441 -29.5586,-12.9902 -11.6678,-2.4089 -15.3228,-4.4365 -21.4043,-11.8692 -8.1731,-9.9891 -14.3965,-18.7379 -15.4355,-21.6992 -0.4222,-1.2031 -1.2638,-2.1875 -1.8711,-2.1875 -0.6073,0 -1.1055,-0.7365 -1.1055,-1.6386 0,-0.9022 -1.125,-3.9706 -2.5,-6.8165 -4.4247,-9.1582 -4.1506,-9.6755 15.7676,-29.8847 22.7437,-23.0759 39.1629,-41.9155 39.2109,-44.9922 0.013,-0.8021 0.4434,-1.6458 0.959,-1.875 2.7417,-1.2185 19.0625,-32.4019 19.0625,-36.4219 0,-0.8908 0.4595,-2.1555 1.0195,-2.8086 0.5601,-0.6531 2.0438,-5.3035 3.2989,-10.334 2.0067,-8.0433 2.1933,-12.6417 1.5488,-38.125 -0.4207,-16.6332 -1.4931,-32.9725 -2.5176,-38.3536 -3.5131,-18.4524 -11.3791,-38.3057 -22.291,-56.2558 -3.736,-6.1458 -10.563,-15.8283 -12.334,-17.4942 -0.3654,-0.3437 -2.6039,-3.1562 -4.9746,-6.25 -2.3707,-3.0937 -4.6053,-5.9062 -4.9668,-6.25 -1.3347,-1.2691 -19.6853,-23.4112 -26.6445,-32.1504 -3.953,-4.9641 -9.3329,-13.4016 -11.9571,-18.75 -8.1754,-16.663 -8.1728,-16.6517 -6.3867,-27.6504 1.4719,-9.0635 1.379,-10.7053 -1.2246,-21.5664 -1.5501,-6.4662 -3.676,-13.5957 -4.7226,-15.8418 -2.0088,-4.311 -13.3607,-15.291 -15.8086,-15.291 -0.7921,0 -2.8721,-1.3276 -4.6231,-2.9512 -1.7509,-1.6235 -4.404,-3.6055 -5.8965,-4.4042 -1.4924,-0.7988 -5.7306,-5.5181 -9.4179,-10.4864 -6.9982,-9.4294 -22.0895,-25.0971 -29.6016,-30.7344 -2.4062,-1.8056 -4.6562,-3.6104 -5,-4.0097 -3.9145,-4.5467 -41.6655,-26.1641 -45.6914,-26.1641 -0.9943,0 -1.8086,-0.5625 -1.8086,-1.25 0,-0.6875 -1.1313,-1.25 -2.5156,-1.25 -1.3843,0 -3.4937,-0.5489 -4.6875,-1.2207 -1.1938,-0.6718 -6.5891,-2.6567 -11.9883,-4.4101 -6.3963,-2.0773 -11.8404,-4.8703 -15.625,-8.0176 -11.7174,-9.7444 -21.9756,-13.4012 -43.1562,-15.3809 l -16.0977,-1.5039 z" id="path8357-4-9-6-2-8" inkscape:connector-curvature="0"/><ellipse style="opacity:1;fill:url(#radialGradient8845-9-4-2-6);fill-opacity:1;fill-rule:evenodd;stroke:none;stroke-width:3;stroke-linecap:round;stroke-linejoin:round;stroke-miterlimit:4;stroke-dasharray:none;stroke-dashoffset:0;stroke-opacity:1" id="path8837-3-7-7-7" cx="1539.4753" cy="-2684.5403" rx="115.66247" ry="59.599007" transform="matrix(0,1,-1,0,0,0)"/><g transform="translate(3386.9272,2320.4292)" id="g8648-4-7-3-1"><path style="fill:#233660" d="m -1081.8405,-917.39008 c -5.8716,-1.68718 -10.5096,-7.1054 -17.2153,-20.11129 -3.8091,-7.38779 -7.327,-14.83859 -7.8176,-16.55734 -0.4905,-1.71875 -2.2886,-5.55857 -3.9957,-8.53294 -2.9445,-5.13033 -3.222,-5.301 -5.4056,-3.32482 -3.4218,3.09669 -6.3961,1.44364 -11.5883,-6.44064 -4.5481,-6.90627 -4.6425,-7.29456 -4.6345,-19.06324 0.01,-9.32185 0.4965,-12.75085 2.1875,-15.30515 2.992,-4.5193 28.554,-24.682 40.2736,-31.7668 17.056,-10.3108 33.4598,-15.3212 55.6557,-16.9998 22.2353,-1.6816 35.10623,-0.7836 53.13029,3.7066 l 14.3804,3.5824 24.3696,-1.4955 c 23.8255,-1.4621 24.593,-1.5958 34.3697,-5.9895 13.0695,-5.8734 28.5041,-8.1941 57.5,-8.6454 26.2279,-0.4082 38.708,1.1785 53.5143,6.8039 11.1702,4.2438 28.2529,14.2579 37.8483,22.1871 3.3504,2.7686 6.8291,5.0338 7.7305,5.0338 2.5518,0 13.5819,10.9019 15.8359,15.652 2.0955,4.4158 6.9513,25.32884 6.939,29.8848 -0.011,3.98212 -2.4789,11.96319 -3.6997,11.96319 -0.5991,0 -2.4007,-3.39747 -4.0037,-7.54996 -3.1743,-8.22273 -3.2311,-8.25674 -15.1217,-9.05196 -4.6291,-0.3096 -7.6529,0.0551 -8.4534,1.01975 -0.6855,0.82596 -3.1559,8.8703 -5.4898,17.87628 -4.7718,18.41319 -9.4634,28.81094 -15.3327,33.98124 -4.7337,4.16994 -14.1188,5.58038 -31.5778,4.74565 -11.3503,-0.54266 -15.0642,-2.00494 -15.0642,-5.93121 0,-1.15725 -1.4153,-4.0415 -3.1451,-6.40944 -5.7996,-7.93912 -27.395,-28.98219 -35.8242,-34.908 -8.685,-6.10564 -23.8215,-13.18185 -36.5984,-17.10945 -7.3507,-2.2596 -7.5129,-2.4111 -13.125,-12.25519 -3.1374,-5.5033 -7.0818,-10.7051 -8.8073,-11.6148 -2.1773,-1.148 -7.1953,-1.5311 -16.5471,-1.2634 -15.9487,0.4565 -16.3062,0.6975 -22.1661,14.9471 -2.1717,5.2808 -4.6153,10.13469 -5.4302,10.78639 -0.8149,0.65169 -5.1378,2.47128 -9.6066,4.04355 -4.4687,1.57226 -8.9687,3.54486 -10,4.38355 -1.0312,0.8387 -4.9028,3.0426 -8.60346,4.89756 -13.27113,6.6522 -37.22273,33.10764 -49.06793,54.19749 -2.6817,4.77465 -4.9923,7.18309 -8.1616,8.5073 -4.6021,1.92289 -22.9716,3.35607 -27.2518,2.12618 z" id="path8629-8-0-4-5" inkscape:connector-curvature="0"/><path sodipodi:nodetypes="sssccscscssssscccsssscsccssscsssscscsssssssscssssssssscssscssscsssssssscssccssssccsscsscssssssssssssssssssccccccssscccccsscscsscccccsccccscsccccccsccccsccssssssccccssccsssssccscssssscscscscsscscssscssscccsscccccccccscccccsccssssssssssccscssccscssssssscccsssssscsssccccssssccsssccsccscsscscccsccccccccccsscscccsccssccsssc" inkscape:connector-curvature="0" id="path8359-2-2-7-6" d="m -1081.5532,-917.87353 c -1.7187,-0.3123 -4.8269,-1.85557 -6.907,-3.42948 -3.9248,-2.96967 -5.4689,-5.74407 -17.8335,-32.04218 -4.0741,-8.66522 -7.9807,-16.10922 -8.6813,-16.54221 -0.7116,-0.43984 -1.603,0.85869 -2.0197,2.94245 -0.4103,2.05134 -1.2787,3.72971 -1.9298,3.72971 -1.7118,0 -9.6321,-9.55394 -11.9236,-14.38292 -1.3376,-2.81862 -1.9551,-7.78865 -1.9551,-15.73524 l 0,-11.6153 6.5625,-6.3216 c 12.9071,-12.4332 35.4695,-28.3743 45.9375,-32.4565 3.0938,-1.2065 7.5938,-3.0485 10,-4.0934 8.4242,-3.6582 9.4372,-3.9995 17.7728,-5.9882 12.4921,-2.9803 47.1173,-3.1649 60.97726,-0.3251 5.8438,1.1974 12.0313,2.8242 13.75,3.6152 4.567,2.1018 57.44599,1.4573 59.99869,-0.7312 2.49319,-2.1376 14.66702,-7.6539 19.37635,-8.78 17.63074,-4.2161 64.3908,-6.1073 77.88398,-3.15 15.85822,3.4756 18.90748,4.3371 26.65051,7.5301 10.66505,4.3979 29.10172,15.2588 35.15661,20.7105 2.58011,2.3231 5.17464,4.2237 5.76562,4.2237 1.88659,0 10.27928,7.2547 8.91773,7.7086 -1.46695,0.4889 -0.27814,8.5414 1.26101,8.5414 1.60194,0 2.31577,-4.8472 0.79434,-5.3939 -0.78639,-0.2826 -1.09811,-0.8756 -0.6927,-1.3179 0.95655,-1.0434 5.45005,2.9496 6.49794,5.7743 0.44632,1.2031 0.26665,2.1875 -0.39927,2.1875 -0.66592,0 -1.21077,-0.9375 -1.21077,-2.0833 0,-2.4236 -1.61031,-1.2213 -2.00979,1.5004 -0.14891,1.0147 0.24238,1.5277 0.86952,1.1401 0.62714,-0.3876 1.14027,0.7347 1.14027,2.494 0,2.0301 0.69485,3.1988 1.9018,3.1988 4.2142,0 7.77814,17.62427 5.64336,27.90741 -0.80485,3.87693 -1.93286,7.33913 -2.5067,7.69378 -0.57384,0.35466 -2.32552,-3.48569 -3.89262,-8.53412 l -2.84929,-9.17892 -5.486,-0.20751 c -3.0173,-0.11413 -7.73029,-0.71177 -10.47333,-1.32808 -5.97795,-1.34316 -5.73345,-1.78767 -11.10501,20.18931 -4.1271,16.88542 -9.65942,29.41244 -14.95874,33.87152 -3.04105,2.55887 -5.59866,3.26418 -14.53651,4.00871 -10.46255,0.87152 -25.66317,0.14112 -29.75706,-1.42985 -2.6908,-1.03256 -2.49241,-3.74155 0.42359,-5.78399 2.29657,-1.6086 2.24098,-1.75539 -1.25,-3.30065 -2.00943,-0.88946 -3.6593,-2.27317 -3.66642,-3.07492 -0.007,-0.80175 -1.47238,-2.58273 -3.2562,-3.95773 -4.5213,-3.48512 -8.92473,-7.75729 -15.48087,-15.01934 -8.43295,-9.34095 -20.76489,-18.02922 -35.99638,-25.36068 -7.56662,-3.64209 -9.27033,-5.01604 -9.85693,-7.94907 -0.39005,-1.95027 -1.1797,-3.54587 -1.75476,-3.54587 -0.57507,0 -1.65143,-2.25 -2.39193,-5 -0.7405,-2.75 -1.92037,-5 -2.62195,-5 -0.70158,0 -0.99151,-0.4597 -0.64429,-1.0215 0.34722,-0.5618 -0.22306,-3.5012 -1.26728,-6.5321 -1.28029,-3.716 -1.46185,-5.6562 -0.55753,-5.9577 0.73757,-0.2458 1.34105,-1.3181 1.34105,-2.3828 0,-1.0647 1.17087,-3.8303 2.60195,-6.1458 2.98039,-4.8224 2.41344,-5.4638 -1.30325,-1.4744 l -2.5487,2.7357 0,-2.7357 c 0,-3.1723 -1.88187,-3.6494 -2.99126,-0.7584 -1.937,5.0477 -0.5817,15.134 3.26155,24.2727 0.72281,1.7187 1.86707,4.5312 2.5428,6.25 0.67572,1.7187 1.72546,4.1017 2.33275,5.2955 2.56135,5.03506 1.4873,5.72486 -5.45834,3.50557 -6.33859,-2.02532 -6.7389,-2.43217 -11.73271,-11.92417 -2.84363,-5.4051 -6.18552,-10.5697 -7.42641,-11.4771 -1.57514,-1.1518 -6.83489,-1.6498 -17.4244,-1.6498 -18.04692,0 -18.23132,0.1203 -23.70192,15.4503 -3.697,10.35997 -4.8108,11.38031 -15.9646,14.62512 -4.2593,1.23913 -4.2967,0.56832 -0.7699,-13.82542 1.4318,-5.8438 2.8803,-13.0156 3.2188,-15.9375 0.5513,-4.7593 0.342,-5.3125 -2.0105,-5.3125 -1.4442,0 -2.6259,0.5957 -2.6259,1.3238 0,0.7281 0.5237,1.0002 1.1637,0.6046 2.0264,-1.2524 2.6422,1.4691 0.6976,3.0831 -1.1716,0.9723 -1.8613,3.7506 -1.8613,7.498 0,5.8817 -2.3644,15.59306 -5.6886,23.36477 -1.249,2.92005 -3.6394,4.94375 -8.858,7.49903 -7.86676,3.85196 -18.65496,13.71862 -29.96806,27.40816 -4.0482,4.89859 -9.3291,11.27461 -11.7354,14.16895 -2.4062,2.89434 -4.8919,6.48016 -5.5238,7.96849 -5.2907,12.46209 -5.694,12.81441 -17.6012,15.37831 -7.502,1.61538 -13.503,1.86144 -19.375,0.79446 z m -6.875,-19.09171 c -2.1625,-4.1819 -4.375,-4.94045 -4.375,-1.5 0,2.6463 2.3097,5.25 4.6571,5.25 1.3135,0 1.255,-0.77769 -0.2821,-3.75 z m 269.3751,-3.75 c 0,-0.6875 -0.5625,-1.25 -1.25,-1.25 -0.6875,0 -1.25,0.5625 -1.25,1.25 0,0.6875 0.5625,1.25 1.25,1.25 0.6875,0 1.25,-0.5625 1.25,-1.25 z m 14.89584,-0.79434 c 1.10685,-0.96836 -9.40459,-0.22015 -11.77084,0.83787 -1.63265,0.73 -0.11475,0.8576 4.375,0.36781 3.78125,-0.41251 7.10937,-0.95506 7.39584,-1.20568 z m 24.26926,-12.64316 c 1.62055,-2.57812 3.85851,-7.5 4.97326,-10.9375 4.28864,-13.22466 6.06588,-44.76026 3.19169,-56.63386 -1.79531,-7.4167 -4.37261,-10.5015 -2.81227,-3.3661 1.66568,7.6172 1.38491,46.15479 -0.35158,48.25505 -0.79349,0.9597 -2.31924,5.11991 -3.39056,9.24491 -2.57188,9.90265 -4.67419,14.2247 -7.33814,15.08611 -2.97439,0.9618 -2.77151,3.03889 0.29683,3.03889 1.51361,0 3.63558,-1.83155 5.43077,-4.6875 z m -323.4099,-14.97396 c -0.4154,-0.41536 -0.7108,0.32292 -0.6566,1.64062 0.06,1.45619 0.3562,1.75238 0.7552,0.75522 0.3611,-0.90235 0.3167,-1.98048 -0.099,-2.39584 z m -1.8907,-10.54713 c -0.7307,-2.09616 -1.6988,-8.25051 -2.1513,-13.67631 -0.4525,-5.4258 -1.3043,-9.86506 -1.893,-9.86506 -0.5886,0 -1.0703,1.3325 -1.0703,2.9612 0,3.57034 3.482,24.15125 4.6803,27.66376 0.8026,2.35273 0.8797,2.32998 1.3079,-0.38619 0.2503,-1.5874 -0.1428,-4.60122 -0.8736,-6.6974 z m 72.8317,0.84859 c 0.3926,-1.02301 0.3121,-1.80015 -0.1787,-1.72697 -4.6735,0.69658 -5.4246,-2.03887 -0.8734,-3.18114 3.6083,-0.90562 8.1058,-4.4223 8.1058,-6.338 0,-0.71529 1.4063,-2.35657 3.125,-3.64729 1.7188,-1.29074 3.125,-3.30692 3.125,-4.48042 0,-2.47494 4.7432,-8.28954 6.3861,-7.82864 0.6127,0.1719 1.1139,-1.375 1.1139,-3.4375 0,-2.5631 0.6168,-3.75 1.9488,-3.75 1.0718,0 1.6376,-0.5036 1.2572,-1.119 -0.3804,-0.6155 0.1541,-1.4436 1.1878,-1.8402 1.0337,-0.3967 1.7336,-1.4145 1.5553,-2.2617 -0.1782,-0.8472 0.4986,-1.566 1.5042,-1.5972 1.0055,-0.031 2.3525,-1.885 2.9934,-4.1194 0.7757,-2.7049 1.94006,-4.0625 3.48426,-4.0625 2.9204,0 3.2259,-5.6345 0.3649,-6.7324 -1.0748,-0.4124 -1.6012,-1.3211 -1.1697,-2.0193 1.1176,-1.8082 -4.74946,-3.8186 -5.91946,-2.0284 -0.6772,1.0361 -0.9234,1.0326 -0.9375,-0.013 -0.01,-0.7801 -2.9723,-1.7762 -6.5817,-2.2135 -7.6524,-0.9271 -34.2835,2.1031 -36.3121,4.1317 -1.4124,1.4123 -0.1719,1.3333 10.2397,-0.6521 2.7438,-0.5232 3.9627,-0.3597 3.454,0.4634 -0.4323,0.6995 -3.7514,1.6423 -7.3758,2.0951 -3.6244,0.4529 -7.3481,1.2921 -8.275,1.8649 -2.628,1.6242 0.2835,2.6535 4.3413,1.5348 1.9885,-0.5483 5.0217,-0.6312 6.7404,-0.1843 l 3.125,0.8124 -3.125,1.0817 c -1.7187,0.5949 -3.8834,1.215 -4.8104,1.378 -1.742,0.3062 -8.1944,7.4586 -8.4708,9.3898 -0.086,0.6003 -0.2352,1.7947 -0.3316,2.654 -0.1227,1.0919 -0.5293,1.0028 -1.3504,-0.2957 -1.0084,-1.595 -1.502,-1.5064 -3.4835,0.625 -3.3079,3.5581 -3.1604,11.9953 0.2448,14.0014 1.4173,0.835 1.9333,1.5381 1.1467,1.5625 -2.4431,0.076 -1.3389,6.29243 1.1177,6.29341 1.2032,4.9e-4 2.1875,0.84464 2.1875,1.87589 0,1.03125 0.7938,1.875 1.7639,1.875 2.1478,0 8.2361,7.00114 8.2361,9.47091 0,1.06437 1.2555,1.77909 3.125,1.77909 1.7188,0 3.125,0.5625 3.125,1.25 0,1.95758 3.4008,1.46321 4.1963,-0.61 z m -9.7822,-5.57684 c -0.8164,-1.32098 7.7518,-3.31397 8.9776,-2.08821 0.4262,0.42628 -0.4437,0.77505 -1.9333,0.77505 -1.4896,0 -2.7084,0.5625 -2.7084,1.25 0,1.58921 -3.3625,1.63819 -4.3359,0.0631 z m 11.8359,-7.48938 c 0,-0.72808 0.5625,-1.32378 1.25,-1.32378 0.6875,0 1.25,0.24805 1.25,0.55123 0,0.30317 -0.5625,0.89887 -1.25,1.32377 -0.6875,0.4249 -1.25,0.17685 -1.25,-0.55122 z m -1.25,-46.26764 c 1.6812,-1.1367 16.1578,-1.9596 14.8959,-0.8467 -0.2865,0.2526 -4.1771,0.8317 -8.6459,1.2869 -5.6558,0.5761 -7.5552,0.4424 -6.25,-0.4402 z m 205.0001,57.44386 c 0,-0.6875 -0.5625,-1.25 -1.25,-1.25 -0.6875,0 -1.25,0.5625 -1.25,1.25 0,0.6875 0.5625,1.25 1.25,1.25 0.6875,0 1.25,-0.5625 1.25,-1.25 z m -12.24893,-2.09832 c -0.98831,-0.39618 0.16499,-1.60977 2.94655,-3.1006 4.56529,-2.44685 6.53427,-2.40107 4.97878,0.11575 -0.45318,0.73323 -1.66769,1.33316 -2.69894,1.33316 -1.03125,0 -1.54255,0.53794 -1.1362,1.19541 0.83371,1.34898 4.50123,0.30355 6.0664,-1.72924 0.71746,-0.93181 1.22619,-0.86425 1.66666,0.22133 1.03782,2.55766 2.74633,1.77167 2.03787,-0.9375 -0.46703,-1.78591 -0.0384,-2.5 1.50076,-2.5 1.45109,0 1.9068,-0.64555 1.39579,-1.97724 -0.41731,-1.08746 -0.75874,-2.28134 -0.75874,-2.65304 0,-0.3717 -0.84375,0.0244 -1.875,0.88029 -1.08074,0.89694 -1.875,1.01843 -1.875,0.28679 0,-1.76329 3.50645,-2.94214 4.40874,-1.4822 1.2498,2.02222 3.40697,1.32111 2.57843,-0.83803 -0.42917,-1.11838 -0.13922,-2.80588 0.64432,-3.75 1.07785,-1.29871 1.00941,-2.21686 -0.28113,-3.77192 -1.51631,-1.827 -1.39449,-1.9564 1.09694,-1.1657 2.04417,0.6488 2.8027,0.3875 2.8027,-0.9655 0,-1.0203 -0.70313,-2.1129 -1.5625,-2.428 -1.22203,-0.4481 -1.23357,-0.9223 -0.053,-2.1762 1.22667,-1.3028 1.87078,-1.3034 3.4375,0 1.59161,1.3209 1.92797,1.2729 1.92797,-0.2755 0,-1.0316 -1.26562,-2.7358 -2.8125,-3.7872 -2.57365,-1.7493 -2.6236,-1.9871 -0.58826,-2.8003 2.13231,-0.852 2.13231,-0.9569 0,-2.5397 -1.86374,-1.3834 -1.97395,-2.061 -0.68002,-4.1809 1.34537,-2.2041 1.2649,-2.4297 -0.625,-1.752 -1.19307,0.4279 -1.75222,0.3182 -1.24257,-0.2437 0.50967,-0.5619 0.26459,-1.8194 -0.54461,-2.7944 -1.13924,-1.3727 -1.09569,-2.0049 0.19299,-2.8014 1.00789,-0.6229 1.31941,-1.9272 0.78987,-3.3072 -0.69138,-1.8017 -1.09268,-1.9254 -1.91738,-0.591 -1.26204,2.0426 -3.82249,0.7263 -3.82249,-1.9646 0,-1.2424 -0.70043,-1.6662 -1.95674,-1.1841 -1.51803,0.5825 -1.77302,0.172 -1.13733,-1.8308 1.08131,-3.4069 -2.21523,-6.9806 -6.61558,-7.1718 -1.87845,-0.082 -7.0716,-0.6071 -11.54035,-1.1676 -7.11601,-0.8927 -14.2627,-1.0392 -23.2018,-0.4757 -1.41724,0.089 -3.66724,1.1631 -5,2.386 -1.33276,1.2229 -3.3368,2.0391 -4.45341,1.8136 -2.27727,-0.4597 -4.15859,2.9669 -2.2698,4.1342 0.66868,0.4133 0.89217,1.2751 0.49662,1.9151 -0.39554,0.64 -0.0788,1.1636 0.70394,1.1636 0.9478,0 1.13719,1.3568 0.56708,4.0625 -0.69973,3.3208 -0.55812,3.7772 0.77568,2.5 2.47508,-2.3701 4.88169,-1.8716 4.88169,1.0113 0,1.4155 -0.5625,2.2261 -1.25,1.8012 -0.6875,-0.4249 -1.25,-0.21 -1.25,0.4775 0,1.9219 2.9135,3.282 3.4679,1.6188 0.70532,-2.116 2.7821,-1.8146 2.7821,0.4037 0,1.0509 -1.11528,1.875 -2.53743,1.875 -2.48722,0 -2.48153,0.076 0.28732,3.8206 1.78382,2.4127 3.61432,3.6142 4.96745,3.2603 1.56685,-0.4097 2.24551,0.3272 2.52518,2.7419 0.23045,1.9896 1.50043,3.7926 3.19498,4.5361 1.54687,0.6786 2.8125,1.663 2.8125,2.1875 0,0.5244 0.84375,0.9535 1.875,0.9535 1.03125,0 1.88361,0.7032 1.89414,1.5625 0.0128,1.0417 0.42305,0.9375 1.23086,-0.3125 1.07709,-1.6666 1.2303,-1.6666 1.37896,0 0.092,1.0313 0.076,2.5781 -0.0356,3.43751 -0.11163,0.85938 0.94675,1.5625 2.35188,1.5625 1.40514,0 2.5548,0.6004 2.5548,1.33424 0,0.76539 -1.06586,0.99594 -2.5,0.54076 -2.05687,-0.65282 -2.5,-0.22462 -2.5,2.41576 0,3.16148 1.8746,4.46044 2.73069,1.89219 0.29433,-0.88299 1.46156,-0.92425 3.54166,-0.1252 2.69134,1.03385 2.81265,1.30904 0.91515,2.07579 -4.64572,1.87726 -1.01431,8.02727 4.6875,7.93855 0.6875,-0.0113 0.51923,-0.31239 -0.37392,-0.67041 z m -0.87607,-5.40168 c 0.4249,-0.6875 1.30185,-1.25 1.94877,-1.25 0.64693,0 1.17623,0.5625 1.17623,1.25 0,0.6875 -0.87695,1.25 -1.94877,1.25 -1.07183,0 -1.60113,-0.5625 -1.17623,-1.25 z m 26.875,-4.48882 c 0,-0.23799 -0.84375,-0.109 -1.875,0.28678 -1.03125,0.39574 -1.875,1.2907 -1.875,1.98883 0,0.73164 0.79426,0.61015 1.875,-0.28679 1.03125,-0.85586 1.875,-1.75084 1.875,-1.98882 z m 79.50745,-9.99174 c -0.37345,-0.9732 -1.96226,-1.7608 -3.53073,-1.7503 -2.29968,0.015 -2.48876,0.2537 -0.97672,1.2309 1.66666,1.077 1.66666,1.2248 0,1.3295 -1.28683,0.081 -1.38485,0.3156 -0.3125,0.7483 0.85937,0.3468 1.5625,1.31487 1.5625,2.15132 0,0.83647 0.70312,2.23139 1.5625,3.09985 1.25466,1.26792 1.64244,0.92697 1.96821,-1.73058 0.22315,-1.82029 0.10013,-4.10589 -0.27326,-5.07899 z m -244.05539,-28.6444 c 0.4894,-1.2753 -0.067,-1.875 -1.7413,-1.875 -1.354,0 -2.4608,0.8433 -2.4608,1.875 0,1.0313 0.7836,1.875 1.7413,1.875 0.9577,0 2.065,-0.8437 2.4608,-1.875 z m -59.82716,-13.2597 c 5.4274,-0.8915 16.0142,-1.1782 27.8795,-0.755 16.02496,0.5716 18.90096,0.4069 17.72116,-1.0147 -0.7746,-0.9333 -2.211,-1.389 -3.1919,-1.0125 -1.0049,0.3856 -1.7837,-0.056 -1.7837,-1.0118 0,-0.9944 -1.4223,-1.7351 -3.4375,-1.79 -1.89066,-0.052 -9.62506,-0.4774 -17.18756,-0.9462 -13.119,-0.8132 -26.875,0.6974 -26.875,2.9513 0,0.4887 -2.5231,1.1729 -5.6069,1.5205 -5.9171,0.6669 -12.4327,4.0587 -11.3043,5.8845 0.3676,0.5948 3.9012,0.3006 7.8523,-0.6537 3.9512,-0.9544 11.1214,-2.382 15.9339,-3.1724 z m 183.02094,-5.6631 c 1.08464,-0.9416 -14.38503,-0.2285 -16.77084,0.773 -1.47723,0.6201 1.33542,0.7691 6.875,0.3642 5.15625,-0.3768 9.60937,-0.8886 9.89584,-1.1372 z m 17.60416,0.734 c -3.09375,-0.5504 -8.15625,-0.9581 -11.25,-0.9058 l -5.625,0.095 5.625,0.8746 c 3.09375,0.4809 8.15625,0.8886 11.25,0.9058 l 5.625,0.031 -5.625,-1.0009 z m 20,-3.5443 c 0,-0.6095 -1.54688,-1.4186 -3.4375,-1.7981 -1.89063,-0.3795 -5.96875,-1.3329 -9.0625,-2.1186 -10.788,-2.7401 -14.57429,-2.8875 -15.45144,-0.6017 -0.44367,1.1562 -0.57676,2.4733 -0.29577,2.9268 0.281,0.4536 5.2047,1.0137 10.94156,1.2446 5.73686,0.231 10.66502,0.6528 10.95149,0.9375 1.00753,1.0014 6.35416,0.5045 6.35416,-0.5905 z m -35.71132,-1.8798 c 5.51071,-0.1485 7.10186,-2.8991 2.58632,-4.4709 -3.37684,-1.1755 -27.10673,1.9901 -32.18144,4.2931 -3.77797,1.7145 -3.04802,1.7917 10.22011,1.0806 7.85877,-0.4212 16.57752,-0.8275 19.37501,-0.9028 z m 116.50928,44.8629 c -0.39572,-1.0313 -0.17465,-1.875 0.49127,-1.875 0.66592,0 1.21077,0.8437 1.21077,1.875 0,1.0312 -0.22107,1.875 -0.49126,1.875 -0.2702,0 -0.81504,-0.8438 -1.21078,-1.875 z" style="fill:#000000"/></g><path style="fill:url(#radialGradient8811-06-1-4);fill-opacity:1;fill-rule:evenodd;stroke:none;stroke-width:1px;stroke-linecap:butt;stroke-linejoin:miter;stroke-opacity:1" d="m 2329.5712,1729.6186 c 14.5834,20.6428 22.0609,45.7267 15.1522,79.802 -8.6964,27.9875 -20.9269,51.4175 -52.5279,73.7412 l -93.9442,-45.4569 14.1422,-43.4366 c 21.3079,-11.2556 29.3188,-19.7119 66.67,-34.3451 13.4631,-8.4462 26.246,-8.7295 39.2787,-12.0099 12.2517,-8.3042 11.4718,-13.2298 11.229,-18.2947 z" id="path8803-445-4-8" inkscape:connector-curvature="0" sodipodi:nodetypes="cccccccc"/><path style="fill:url(#radialGradient8811-4-5-6-9);fill-opacity:1;fill-rule:evenodd;stroke:none;stroke-width:1px;stroke-linecap:butt;stroke-linejoin:miter;stroke-opacity:1" d="m 2666.7465,1702.0127 c -14.5834,20.6428 -22.0609,45.7267 -15.1522,79.802 10.1767,28.2874 21.2829,52.1018 52.5279,73.7412 l 93.9442,-45.4569 -26.6428,-25.2538 c -20.2787,-10.5817 -38.5778,-25.1224 -61.8718,-29.6733 -12.6729,-0.3415 -23.9824,-18.1503 -32.9562,-30.9359 z" id="path8803-4-5-4-4" inkscape:connector-curvature="0" sodipodi:nodetypes="cccccccc"/><ellipse style="opacity:1;fill:url(#radialGradient8845-4-8-2);fill-opacity:1;fill-rule:evenodd;stroke:none;stroke-width:3;stroke-linecap:round;stroke-linejoin:round;stroke-miterlimit:4;stroke-dasharray:none;stroke-dashoffset:0;stroke-opacity:1" id="path8837-5-2-9" cx="2522.1636" cy="2047.9304" rx="115.66247" ry="168.69548"/><ellipse style="opacity:1;fill:url(#radialGradient8845-9-8-4-6-39);fill-opacity:1;fill-rule:evenodd;stroke:none;stroke-width:3;stroke-linecap:round;stroke-linejoin:round;stroke-miterlimit:4;stroke-dasharray:none;stroke-dashoffset:0;stroke-opacity:1" id="path8837-3-5-9-0-6" cx="1548.5668" cy="-2265.3269" rx="115.66247" ry="59.599007" transform="matrix(0,1,-1,0,0,0)"/><g id="g8944-8-2-67" transform="translate(698.58048,2750.865)"><path sodipodi:nodetypes="ccccccccc" inkscape:connector-curvature="0" id="path8641-1-8-8-6" d="m 1786.104,-1042.7738 c 47.0406,2.512 89.8201,-13.9143 128.2893,-49.4975 64.3282,-61.5143 68.0659,-108.2035 68.5679,-141.4213 -6.4696,-60.4748 -52.9163,-68.7665 -81.6999,-82.8325 -75.3626,-115.7365 -112.85,-115.1417 -151.5228,-118.1879 -80.0524,8.7265 -115.1924,66.4483 -136.3706,139.4011 -48.9839,22.776 -55.8815,54.4303 -59.8336,87.5261 3.1271,56.4357 48.7148,97.4572 94.1788,128.6465 41.9143,28.8919 87.5839,31.2541 138.3909,36.3655 z" style="fill:#d53527;fill-opacity:1;fill-rule:evenodd;stroke:none;stroke-width:1px;stroke-linecap:butt;stroke-linejoin:miter;stroke-opacity:1"/><path sodipodi:nodetypes="cccccccc" inkscape:connector-curvature="0" id="path8435-2-6-0-0" d="m 1649.7334,-1200.3576 c 35.692,-38.3858 32.4932,-87.3782 57.0736,-109.6016 18.8562,-17.1725 71.5525,-20.203 95.4594,-5.0507 27.9476,19.698 49.8342,65.1548 85.863,90.4086 -12.4586,17.5094 -23.907,32.9984 -37.3757,52.528 -22.8968,21.7183 -33.1666,29.2944 -86.8731,27.7792 -55.5584,3.3671 -66.6701,4.2089 -84.8528,-17.6777 z" style="fill:#a51c21;fill-opacity:1;fill-rule:evenodd;stroke:#a61d21;stroke-width:1px;stroke-linecap:butt;stroke-linejoin:miter;stroke-opacity:1"/><ellipse ry="8.0812206" rx="31.819805" cy="-1411.4795" cx="1752.7689" id="path8437-5-20-8-9" style="opacity:1;fill:#f9d4d2;fill-opacity:1;fill-rule:evenodd;stroke:none;stroke-width:3;stroke-linecap:round;stroke-linejoin:round;stroke-miterlimit:4;stroke-dasharray:none;stroke-dashoffset:0;stroke-opacity:1;filter:url(#filter8503-7-30-0-0)"/><ellipse transform="matrix(1.3498364,0,0,0.91907298,-605.92534,-89.175385)" ry="8.0812206" rx="31.819805" cy="-1101.9235" cx="1765.7142" id="path8437-5-2-0-6-7" style="opacity:1;fill:url(#radialGradient8927-4-4-7);fill-opacity:1;fill-rule:evenodd;stroke:none;stroke-width:3;stroke-linecap:round;stroke-linejoin:round;stroke-miterlimit:4;stroke-dasharray:none;stroke-dashoffset:0;stroke-opacity:1;filter:url(#filter8503-7-3-4-4-7)"/></g><path sodipodi:nodetypes="cccccccc" inkscape:connector-curvature="0" id="path8435-3-9-7" d="m 2346.0892,1547.6089 c 35.692,-38.3858 32.4932,-87.3782 57.0736,-109.6015 18.8562,-17.1726 71.5525,-20.2031 95.4594,-5.0508 27.9476,19.698 49.8342,65.1549 85.863,90.4087 -12.4585,17.5093 -23.9069,32.9983 -37.3756,52.5279 -22.8968,21.7183 -33.1667,29.2944 -86.8732,27.7792 -55.5583,3.3672 -66.67,4.209 -84.8528,-17.6777 z" style="fill:url(#linearGradient34691);fill-opacity:1;fill-rule:evenodd;stroke:none;stroke-width:1px;stroke-linecap:butt;stroke-linejoin:miter;stroke-opacity:1"/></g><path inkscape:transform-center-y="-2.6415229" inkscape:transform-center-x="0.032353649" transform="matrix(0.605115,0.01110593,-0.01110593,0.605115,-1012.0805,84.257497)" d="m 2081.1176,891.98939 c -2.2256,1.69135 11.7533,22.32943 9.3011,23.67015 -2.4522,1.34071 -12.233,-21.5623 -14.8566,-20.60049 -2.6236,0.96181 4.674,24.73192 1.9372,25.29386 -2.7368,0.56194 -5.3935,-24.23252 -8.1834,-24.08688 -2.7898,0.14564 -2.8153,25.06163 -5.5959,24.7885 -2.7807,-0.27313 1.9537,-24.64321 -0.7563,-25.33032 -2.71,-0.6871 -10.0768,23.03443 -12.655,21.95484 -2.5783,-1.07959 9.1837,-22.95516 6.7973,-24.41104 -2.3864,-1.45589 -16.3847,19.10668 -18.5276,17.31166 -2.1429,-1.79501 15.5837,-19.33383 13.7278,-21.42421 -1.8558,-2.09038 -21.3756,13.44353 -22.8997,11.10054 -1.5241,-2.34298 20.5408,-13.85488 19.3859,-16.3988 -1.155,-2.54392 -24.3361,6.54282 -25.0967,3.85296 -0.7606,-2.68986 23.746,-7.21715 23.3947,-9.98922 -0.3513,-2.77207 -25.1692,-0.88245 -25.1016,-3.67737 0.068,-2.79492 24.82,0.14199 25.2975,-2.61045 0.4775,-2.75244 -23.8553,-8.31881 -22.9748,-10.9704 0.8805,-2.65159 23.673,7.42885 24.9459,4.94094 1.2728,-2.4879 -20.2904,-15.01611 -18.6608,-17.28738 1.6296,-2.27127 20.3944,14.10937 22.3413,12.10353 1.9469,-2.00583 -14.9879,-20.26591 -12.7644,-21.95941 2.2234,-1.6935 15.3524,19.50244 17.805,18.16075 2.4526,-1.34168 -8.3327,-23.84057 -5.7102,-24.80275 2.6225,-0.96218 8.9211,23.1764 11.659,22.61893 2.7379,-0.55747 -0.8822,-25.20695 1.9098,-25.34925 2.792,-0.1423 1.6142,24.76615 4.3951,25.03854 2.7809,0.2724 6.5724,-24.38403 9.282,-23.69795 2.7096,0.68609 -5.6605,24.13635 -3.0845,25.21717 2.576,1.08081 13.4129,-21.39702 15.7989,-19.94363 2.3859,1.45338 -12.4966,21.42166 -10.3519,23.21383 2.1448,1.79217 19.0933,-16.40454 20.9451,-14.31321 1.8519,2.09132 -18.2991,16.75837 -16.7778,19.10426 1.5213,2.34589 23.1331,-10.09132 24.2892,-7.54626 1.1561,2.54506 -22.4562,10.62354 -21.6947,13.3136 0.7616,2.69006 25.1044,-2.87803 25.4549,-0.10527 0.3506,2.77277 -24.5695,3.59916 -24.6328,6.39258 -0.063,2.79342 24.7849,4.68728 24.3016,7.43895 -0.4834,2.75168 -24.5231,-3.82963 -25.4063,-1.17807 -0.8831,2.65155 22.3088,11.76361 21.0365,14.25109 -1.2724,2.48749 -22.3055,-10.93028 -23.9338,-8.65869 -1.6283,2.27159 17.8692,17.80957 15.9225,19.81466 -1.9466,2.00508 -18.0379,-16.93163 -20.2635,-15.24029 z" inkscape:randomized="0.001" inkscape:rounded="0.11" inkscape:flatsided="false" sodipodi:arg2="1.0699746" sodipodi:arg1="0.92037491" sodipodi:r2="46.241108" sodipodi:r1="21.27091" sodipodi:cy="875.05585" sodipodi:cx="2068.2039" sodipodi:sides="21" id="path138872-0-0-0-7-3-7-5" style="opacity:1;fill:#f0be29;fill-opacity:1;stroke:none;stroke-width:6.60920048;stroke-linecap:round;stroke-linejoin:round;stroke-miterlimit:4;stroke-dasharray:none;stroke-opacity:1" sodipodi:type="star"/></g></g></svg>