<?xml version="1.0" encoding="UTF-8" standalone="no"?>
<svg id="Ebene_1" data-name="Ebene 1" xmlns="http://www.w3.org/2000/svg" viewBox="0 0 23 23"><defs><style>.cls-1{fill:#aeb2b5;}.cls-2{isolation:isolate;}.cls-3{fill:#fff;}</style></defs><circle class="cls-1" cx="11.5" cy="11.54" r="11.5"/><g class="cls-2"><path class="cls-3" d="M10,15.4a5.55,5.55,0,0,1,.11-1.91A5.85,5.85,0,0,1,10.61,12a5.65,5.65,0,0,1,.76-1.12c.29-.33.56-.67.81-1a5.71,5.71,0,0,0,.65-1,3,3,0,0,0,.25-1.2,1.94,1.94,0,0,0-.4-1.31,1.65,1.65,0,0,0-1.31-.5,3.93,3.93,0,0,0-1.3.25,3.87,3.87,0,0,0-1.19.69L7.76,4.69a7.81,7.81,0,0,1,1.75-.93,6.87,6.87,0,0,1,2.42-.38,4.2,4.2,0,0,1,3,1A3.85,3.85,0,0,1,16,7.35a6.1,6.1,0,0,1-.27,1.89,5.27,5.27,0,0,1-.66,1.37,7.59,7.59,0,0,1-.87,1.05,7.9,7.9,0,0,0-.85,1,4.88,4.88,0,0,0-.67,1.18,4.06,4.06,0,0,0-.27,1.6S10,15.4,10,15.4Zm-.37,3.38a1.82,1.82,0,0,1,.46-1.32A1.58,1.58,0,0,1,11.29,17a1.77,1.77,0,0,1,1.29.46A1.76,1.76,0,0,1,13,18.78a1.91,1.91,0,0,1-.45,1.33,1.72,1.72,0,0,1-1.27.48,1.68,1.68,0,0,1-1.24-.48A1.87,1.87,0,0,1,9.61,18.78Z"/></g></svg>