<?xml version="1.0" encoding="UTF-8" standalone="no"?>
<svg width="21" height="20" viewBox="0 0 21 20" fill="none" xmlns="http://www.w3.org/2000/svg"><rect x="0.5" width="20" height="20" rx="4" fill="#2D2B29"/><path fill-rule="evenodd" clip-rule="evenodd" d="M6.75 2.5C6.75 2.08579 7.08579 1.75 7.5 1.75H13.5C13.9142 1.75 14.25 2.08579 14.25 2.5C14.25 2.91421 13.9142 3.25 13.5 3.25H11.25V4L12.931 4C13.5347 3.99999 14.033 3.99998 14.4389 4.03315C14.8604 4.06759 15.248 4.14151 15.612 4.32698C16.1765 4.6146 16.6354 5.07354 16.923 5.63803C17.1085 6.00203 17.1824 6.38956 17.2169 6.81113C17.25 7.21702 17.25 7.71529 17.25 8.31901V11.681C17.25 12.2847 17.25 12.783 17.2169 13.1889C17.1824 13.6104 17.1085 13.998 16.923 14.362C16.6354 14.9265 16.1765 15.3854 15.612 15.673C15.5279 15.7159 15.4425 15.7528 15.3558 15.7846L16.0458 17.1646C16.2311 17.5351 16.0809 17.9856 15.7104 18.1708C15.3399 18.3561 14.8894 18.2059 14.7042 17.8354L13.7842 15.9954C13.5267 16 13.2429 16 12.931 16H8.06901C7.75705 16 7.47325 16 7.21581 15.9954L6.29582 17.8354C6.11058 18.2059 5.66007 18.3561 5.28959 18.1708C4.91911 17.9856 4.76894 17.5351 4.95418 17.1646L5.64418 15.7846C5.55746 15.7528 5.47212 15.7159 5.38803 15.673C4.82354 15.3854 4.3646 14.9265 4.07698 14.362C3.89151 13.998 3.81759 13.6104 3.78315 13.1889C3.74998 12.783 3.74999 12.2847 3.75 11.681V8.31903C3.74999 7.7153 3.74998 7.21703 3.78315 6.81113C3.81759 6.38956 3.89151 6.00203 4.07698 5.63803C4.3646 5.07354 4.82354 4.6146 5.38803 4.32698C5.75203 4.14151 6.13956 4.06759 6.56113 4.03315C6.96703 3.99998 7.4653 3.99999 8.06903 4L9.75 4V3.25H7.5C7.08579 3.25 6.75 2.91421 6.75 2.5ZM8.1 5.5C7.45757 5.5 7.02085 5.50058 6.68328 5.52816C6.35447 5.55503 6.18631 5.60372 6.06902 5.66349C5.78677 5.8073 5.5573 6.03677 5.41349 6.31901C5.35372 6.43631 5.30503 6.60447 5.27816 6.93328C5.25058 7.27085 5.25 7.70757 5.25 8.35V9.25H15.75V8.35C15.75 7.70757 15.7494 7.27085 15.7218 6.93328C15.695 6.60447 15.6463 6.43631 15.5865 6.31901C15.4427 6.03677 15.2132 5.8073 14.931 5.66349C14.8137 5.60372 14.6455 5.55503 14.3167 5.52816C13.9792 5.50058 13.5424 5.5 12.9 5.5H8.1ZM15.75 10.75H5.25V11.65C5.25 12.2924 5.25058 12.7292 5.27816 13.0667C5.30503 13.3955 5.35372 13.5637 5.41349 13.681C5.5573 13.9632 5.78677 14.1927 6.06902 14.3365C6.18631 14.3963 6.35447 14.445 6.68328 14.4718C7.02085 14.4994 7.45757 14.5 8.1 14.5H12.9C13.5424 14.5 13.9792 14.4994 14.3167 14.4718C14.6455 14.445 14.8137 14.3963 14.931 14.3365C15.2132 14.1927 15.4427 13.9632 15.5865 13.681C15.6463 13.5637 15.695 13.3955 15.7218 13.0667C15.7494 12.7292 15.75 12.2924 15.75 11.65V10.75ZM6.75 12.625C6.75 12.0037 7.25368 11.5 7.875 11.5C8.49632 11.5 9 12.0037 9 12.625C9 13.2463 8.49632 13.75 7.875 13.75C7.25368 13.75 6.75 13.2463 6.75 12.625ZM12 12.625C12 12.0037 12.5037 11.5 13.125 11.5C13.7463 11.5 14.25 12.0037 14.25 12.625C14.25 13.2463 13.7463 13.75 13.125 13.75C12.5037 13.75 12 13.2463 12 12.625ZM7.875 17.5C7.875 17.0858 8.21079 16.75 8.625 16.75H12.375C12.7892 16.75 13.125 17.0858 13.125 17.5C13.125 17.9142 12.7892 18.25 12.375 18.25H8.625C8.21079 18.25 7.875 17.9142 7.875 17.5Z" fill="white"/></svg>