<?xml version="1.0" encoding="UTF-8" standalone="no"?>
<svg xmlns="http://www.w3.org/2000/svg" width="24" height="24"><path d="M11.420 1.241 C 11.205 1.309,3.731 5.419,3.018 5.861 C 2.680 6.071,2.367 6.391,2.224 6.673 C 1.995 7.124,2.001 6.977,2.001 12.000 C 2.001 17.086,1.992 16.889,2.248 17.370 C 2.517 17.875,2.535 17.886,6.740 20.227 C 10.791 22.482,11.186 22.695,11.478 22.784 C 11.712 22.855,12.288 22.855,12.523 22.784 C 12.809 22.697,13.097 22.541,17.220 20.248 C 21.469 17.884,21.482 17.876,21.752 17.370 C 22.008 16.889,21.999 17.086,21.999 12.000 C 21.999 6.979,22.005 7.124,21.777 6.674 C 21.657 6.438,21.374 6.121,21.136 5.957 C 21.045 5.895,19.138 4.826,16.897 3.581 C 14.284 2.129,12.732 1.290,12.568 1.239 C 12.234 1.136,11.747 1.137,11.420 1.241 M12.340 7.066 C 12.593 7.153,12.847 7.407,12.934 7.660 C 12.992 7.831,13.000 8.108,13.000 10.000 C 13.000 12.427,13.003 12.399,12.701 12.701 C 12.310 13.092,11.690 13.092,11.299 12.701 C 10.997 12.399,11.000 12.427,11.000 10.000 C 11.000 7.572,10.997 7.601,11.300 7.298 C 11.577 7.020,11.957 6.936,12.340 7.066 M12.427 15.093 C 13.171 15.478,13.193 16.513,12.465 16.887 C 11.814 17.222,11.000 16.729,11.000 16.000 C 11.000 15.615,11.288 15.197,11.643 15.066 C 11.857 14.988,12.249 15.001,12.427 15.093" stroke="none" fill-rule="evenodd"/></svg>