<?xml version="1.0" encoding="UTF-8" standalone="no"?>
<svg id="svg18363" xmlns="http://www.w3.org/2000/svg" viewBox="0 0 12.24 12.24"><defs><style>.cls-1{fill-rule:evenodd;}.cls-2{fill:#99ba43;}.cls-3{fill:#fff;}</style></defs><path id="path8628" class="cls-1" d="M6.48984.9546a.06626.06626,0,0,0-.06479.06478V2.21651a.06478.06478,0,0,0,.06479.06478H6.614a.06273.06273,0,0,0,.06208-.06478V1.01938A.06414.06414,0,0,0,6.614.9546ZM4.87837.9573V3.06H2.45848a.60691.60691,0,0,0-.60734.60734v5.1421a.60806.60806,0,0,0,.60734.60868H7.60193a.60765.60765,0,0,0,.60734-.60868V3.66737A.6065.6065,0,0,0,7.60193,3.06H5.182V.9573ZM3.47745.9681l-.633.62758a.045.045,0,0,0,0,.06478l.10528.10527a.04552.04552,0,0,0,.06478,0l.50206-.49936L4.02,1.76168a.04457.04457,0,0,0,.06208,0l.10662-.09987a.04289.04289,0,0,0,0-.06343c-.20452-.20484-.42949-.42766-.63433-.63028A.06556.06556,0,0,0,3.47745.9681Zm-.02834.50746a.06466.06466,0,0,0-.06478.06343V2.73612a.06519.06519,0,0,0,.06478.06478h.12417a.06294.06294,0,0,0,.06208-.06478V1.539a.06236.06236,0,0,0-.06208-.06343Zm2.54.51556L5.8852,2.095a.045.045,0,0,0,0,.06478l.633.62758a.06458.06458,0,0,0,.07693,0c.20452-.20135.4298-.425.63432-.62893a.045.045,0,0,0,0-.06478l-.10662-.09852a.04392.04392,0,0,0-.06343,0L6.556,2.49048,6.0539,1.99112A.045.045,0,0,0,5.98912,1.99112ZM2.45848,3.36235H7.60193a.3043.3043,0,0,1,.30367.305v5.1421a.30431.30431,0,0,1-.30367.305H2.45848a.30451.30451,0,0,1-.30367-.305V3.66737A.30451.30451,0,0,1,2.45848,3.36235Zm1.31184.31716A.45685.45685,0,1,0,4.2265,4.137.45676.45676,0,0,0,3.77032,3.67951Zm2.43069,0a.45685.45685,0,1,0,.45753.45753A.45737.45737,0,0,0,6.201,3.67951ZM3.08876,4.77a.45152.45152,0,0,0-.45078.45077v1.3024a.221.221,0,0,0,.22269.22h.01215A.22161.22161,0,0,0,3.09416,6.538V5.37465a.04093.04093,0,0,1,.04319-.04184.04.04,0,0,1,.04183.04184l.0027,3.1433a.2682.2682,0,1,0,.53581,0V6.754a.04624.04624,0,0,1,.04724-.04859.04573.04573,0,0,1,.04723.04859V8.518a.26884.26884,0,1,0,.53716,0l.00135-3.1433a.04.04,0,0,1,.04183-.04184.04093.04093,0,0,1,.04319.04184V6.538a.22265.22265,0,0,0,.22269.20514h.01215a.22024.22024,0,0,0,.22134-.22V5.22079A.451.451,0,0,0,4.44244,4.77Zm2.67632.004a.44977.44977,0,0,0-.43458.332l-.34686,1.2916a.22746.22746,0,0,0,.43324.13632l.28747-1.05812a.04256.04256,0,0,1,.08233.0216L5.16719,7.78105h.45213V8.518a.26869.26869,0,1,0,.53716.01349V7.77565a.04327.04327,0,0,1,.08637,0v.75579A.26869.26869,0,1,0,6.78,8.518v-.7369h.45212L6.61265,5.49747a.04322.04322,0,0,1,.08368-.0216L6.98245,6.534a.22757.22757,0,0,0,.43323-.13632l-.34685-1.2916a.44949.44949,0,0,0-.43458-.332Z"/><path class="cls-2" d="M10.46246,8.04444a.03129.03129,0,0,0-.00385-.05078l-.52533-.31983.33447-.51623a.03139.03139,0,0,0-.01855-.04749l-.59637-.15069.1676-.5918a.03146.03146,0,0,0-.0318-.04l-.61426.0318L9.16,5.74445a.03135.03135,0,0,0-.04212-.02875L8.54028,5.927l-.19489-.58338a.03146.03146,0,0,0-.04877-.015l-.48968.37225-.35822-.5a.03133.03133,0,0,0-.051,0l-.35816.5L6.5498,5.32862a.03141.03141,0,0,0-.04871.015L6.30615,5.927,5.72851,5.7157a.0314.0314,0,0,0-.04212.02875l-.01428.615-.61432-.0318a.03144.03144,0,0,0-.03173.04l.16754.5918-.59632.15069a.03138.03138,0,0,0-.01861.04749l.33447.51623-.52533.31983a.03129.03129,0,0,0-.00378.05078l.4718.39459-.40772.46051a.03145.03145,0,0,0,.01136.0498l.56713.23792-.2539.56024a.03143.03143,0,0,0,.02551.04419l.61212.06024-.07745.61017a.03135.03135,0,0,0,.03735.03467l.60272-.123.10578.606a.03138.03138,0,0,0,.0459.02216l.53979-.295.2796.54773a.03142.03142,0,0,0,.05048.00769l.42871-.441.42877.441a.03137.03137,0,0,0,.05042-.00769l.27972-.54773.53968.295a.03139.03139,0,0,0,.04595-.02216l.10578-.60589.60272.12286a.0314.0314,0,0,0,.03742-.03467l-.07752-.61017.61206-.06024a.03141.03141,0,0,0,.02551-.04419l-.2539-.56024.5672-.23792a.03148.03148,0,0,0,.01135-.0498l-.40765-.46045Z"/><polygon class="cls-3" points="9.081 7.597 8.553 7.069 7.032 8.589 6.294 7.85 5.765 8.379 6.504 9.117 6.502 9.119 7.03 9.648 7.032 9.645 7.035 9.648 7.563 9.119 7.561 9.117 9.081 7.597"/></svg>