<?xml version="1.0" encoding="UTF-8" standalone="no"?>
<svg xmlns="http://www.w3.org/2000/svg" width="24" height="24"><path d="M18.200 1.063 C 17.778 1.154,17.457 1.336,17.117 1.677 C 16.623 2.170,16.412 2.712,16.452 3.380 C 16.477 3.805,16.584 4.142,16.798 4.469 C 17.443 5.456,18.674 5.793,19.728 5.271 C 20.033 5.120,20.531 4.635,20.692 4.333 C 20.837 4.060,20.960 3.568,20.960 3.260 C 20.960 2.953,20.837 2.461,20.692 2.187 C 20.529 1.879,20.035 1.407,19.711 1.248 C 19.231 1.013,18.720 0.950,18.200 1.063 M10.090 6.084 C 9.431 6.194,8.757 6.688,8.462 7.278 C 8.412 7.378,8.283 7.694,8.176 7.980 C 8.010 8.421,7.980 8.542,7.980 8.780 C 7.980 9.275,8.224 9.566,8.789 9.748 C 9.148 9.863,9.413 9.856,9.668 9.726 C 9.930 9.592,10.088 9.375,10.321 8.828 L 10.538 8.320 11.785 8.320 L 13.033 8.320 11.955 10.737 C 10.781 13.368,10.732 13.506,10.779 14.040 C 10.863 15.019,11.517 15.826,12.480 16.143 C 12.681 16.210,12.944 16.218,15.573 16.238 L 18.447 16.260 18.563 16.391 L 18.680 16.521 18.680 18.733 C 18.680 21.279,18.677 21.248,18.995 21.566 C 19.135 21.707,19.239 21.769,19.417 21.821 C 19.724 21.910,20.154 21.887,20.385 21.768 C 20.597 21.659,20.853 21.369,20.913 21.168 C 20.947 21.054,20.960 20.241,20.960 18.212 C 20.960 15.554,20.956 15.397,20.881 15.103 C 20.770 14.670,20.628 14.427,20.281 14.076 C 19.953 13.744,19.570 13.527,19.168 13.444 C 19.042 13.418,18.476 13.400,17.774 13.400 C 16.844 13.400,16.596 13.389,16.612 13.350 C 16.623 13.322,17.066 12.351,17.595 11.191 C 18.124 10.030,18.585 8.975,18.619 8.845 C 18.880 7.837,18.356 6.739,17.395 6.282 C 17.205 6.191,16.948 6.105,16.800 6.082 C 16.479 6.031,10.395 6.034,10.090 6.084 M9.300 11.046 C 8.891 11.091,8.222 11.256,7.849 11.404 C 6.004 12.137,4.692 13.611,4.199 15.506 C 3.369 18.700,5.297 21.966,8.506 22.801 C 11.442 23.564,14.461 22.009,15.596 19.151 C 15.807 18.619,16.000 17.648,16.000 17.122 L 16.000 17.000 15.006 17.000 L 14.012 17.000 13.986 17.332 C 13.876 18.764,12.928 20.089,11.601 20.665 C 11.006 20.922,10.739 20.974,10.000 20.974 C 9.450 20.974,9.288 20.960,9.029 20.888 C 7.573 20.488,6.512 19.426,6.111 17.967 C 5.988 17.522,5.988 16.478,6.111 16.033 C 6.576 14.341,7.988 13.143,9.668 13.014 L 10.000 12.988 10.000 11.994 L 10.000 11.000 9.810 11.005 C 9.705 11.008,9.476 11.026,9.300 11.046" stroke="none" fill-rule="evenodd"/></svg>