<?xml version="1.0" encoding="UTF-8" standalone="no"?>
<svg xmlns="http://www.w3.org/2000/svg" width="24" height="23"><path d="M8.834 2.043 C 6.461 2.337,4.564 4.122,4.095 6.501 C 3.998 6.994,3.998 8.006,4.095 8.499 C 4.317 9.626,4.823 10.581,5.621 11.379 C 6.419 12.177,7.374 12.683,8.501 12.905 C 8.994 13.002,10.006 13.002,10.499 12.905 C 12.207 12.568,13.623 11.506,14.402 9.976 C 14.807 9.180,14.976 8.453,14.976 7.500 C 14.976 6.547,14.807 5.820,14.402 5.024 C 13.627 3.502,12.192 2.422,10.520 2.102 C 10.102 2.022,9.245 1.992,8.834 2.043 M15.600 2.563 C 15.212 2.739,15.024 3.030,15.022 3.460 C 15.019 3.916,15.177 4.143,15.713 4.455 C 16.371 4.837,16.809 5.305,17.140 5.980 C 17.586 6.888,17.603 8.032,17.185 8.938 C 16.877 9.603,16.383 10.152,15.759 10.520 C 15.196 10.853,15.052 11.026,15.011 11.423 C 14.980 11.728,15.059 11.967,15.267 12.199 C 15.491 12.449,15.707 12.535,16.049 12.513 C 16.489 12.485,17.150 12.081,17.826 11.427 C 18.306 10.964,18.654 10.491,18.922 9.940 C 19.324 9.113,19.489 8.403,19.489 7.500 C 19.489 6.630,19.330 5.921,18.957 5.124 C 18.491 4.128,17.554 3.154,16.588 2.660 C 16.290 2.508,16.200 2.480,16.008 2.481 C 15.866 2.481,15.712 2.512,15.600 2.563 M8.820 15.025 C 6.414 15.220,4.176 16.301,2.296 18.177 C 1.563 18.908,1.134 19.439,1.054 19.715 C 0.945 20.091,1.042 20.446,1.333 20.728 C 1.634 21.020,1.038 21.000,9.500 21.000 C 17.962 21.000,17.366 21.020,17.667 20.728 C 17.958 20.445,18.056 20.089,17.945 19.716 C 17.860 19.434,17.475 18.954,16.741 18.218 C 15.001 16.475,13.018 15.427,10.840 15.102 C 10.425 15.040,9.208 14.993,8.820 15.025 M17.715 15.813 C 17.361 15.945,17.144 16.164,17.039 16.496 C 16.939 16.812,17.059 17.257,17.306 17.485 C 17.369 17.543,17.625 17.694,17.876 17.822 C 19.019 18.402,20.088 19.271,21.007 20.368 C 21.435 20.879,21.630 21.001,22.018 20.999 C 22.331 20.998,22.538 20.903,22.751 20.661 C 22.938 20.449,23.000 20.278,22.999 19.980 C 22.998 19.704,22.903 19.519,22.537 19.078 C 21.643 18.002,20.586 17.087,19.440 16.398 C 18.528 15.850,18.050 15.688,17.715 15.813" stroke="none" fill-rule="evenodd"/></svg>