<?xml version="1.0" encoding="UTF-8" standalone="no"?>
<svg xmlns="http://www.w3.org/2000/svg" width="24" height="24"><path d="M10.105 4.042 C 9.062 4.137,8.328 4.514,7.735 5.257 C 7.327 5.769,7.118 6.305,7.041 7.040 C 6.988 7.549,6.988 16.451,7.041 16.960 C 7.144 17.939,7.541 18.695,8.250 19.260 C 8.776 19.679,9.314 19.887,10.062 19.959 C 10.588 20.010,19.412 20.010,19.938 19.959 C 20.927 19.863,21.689 19.466,22.260 18.750 C 22.679 18.224,22.887 17.686,22.959 16.938 C 23.010 16.412,23.010 7.588,22.959 7.062 C 22.886 6.305,22.675 5.766,22.245 5.235 C 21.897 4.804,21.375 4.421,20.891 4.240 C 20.313 4.024,20.403 4.027,15.240 4.018 C 12.611 4.013,10.300 4.024,10.105 4.042 M4.667 6.065 C 4.542 6.103,4.412 6.186,4.299 6.298 C 3.981 6.617,4.000 6.246,4.000 12.000 C 4.000 16.454,4.008 17.132,4.061 17.310 C 4.173 17.688,4.598 18.000,5.000 18.000 C 5.402 18.000,5.827 17.688,5.939 17.310 C 5.992 17.132,6.000 16.454,6.000 12.000 C 6.000 6.243,6.020 6.627,5.697 6.303 C 5.416 6.022,5.067 5.942,4.667 6.065 M19.751 6.040 C 20.295 6.098,20.598 6.279,20.813 6.675 C 20.902 6.838,20.930 6.960,20.964 7.328 C 21.021 7.960,20.991 16.843,20.931 17.054 C 20.817 17.453,20.442 17.830,20.062 17.928 C 19.766 18.004,10.234 18.004,9.938 17.928 C 9.558 17.830,9.184 17.454,9.069 17.054 C 9.008 16.841,8.979 7.817,9.038 7.268 C 9.064 7.029,9.111 6.816,9.160 6.720 C 9.367 6.315,9.701 6.095,10.189 6.044 C 10.641 5.996,19.301 5.993,19.751 6.040 M1.667 8.065 C 1.399 8.147,1.145 8.408,1.063 8.684 C 0.970 8.997,0.968 14.998,1.061 15.310 C 1.173 15.688,1.598 16.000,2.000 16.000 C 2.237 16.000,2.514 15.880,2.697 15.697 C 3.012 15.382,3.000 15.525,3.000 12.000 C 3.000 8.475,3.012 8.618,2.697 8.303 C 2.416 8.022,2.067 7.942,1.667 8.065 M14.667 8.065 C 14.399 8.147,14.145 8.408,14.063 8.684 C 13.984 8.949,13.984 9.052,14.064 9.320 C 14.122 9.515,14.195 9.603,14.851 10.267 L 15.574 11.000 13.734 11.000 C 11.623 11.000,11.594 11.004,11.299 11.299 C 11.124 11.474,11.000 11.765,11.000 12.000 C 11.000 12.237,11.120 12.514,11.303 12.697 C 11.605 12.998,11.618 13.000,13.736 13.000 L 15.577 13.000 14.893 13.690 C 14.121 14.469,14.030 14.606,14.030 14.985 C 14.030 15.559,14.445 15.970,15.025 15.970 C 15.441 15.970,15.507 15.917,17.271 14.146 C 18.798 12.614,18.875 12.530,18.936 12.323 C 19.016 12.051,19.016 11.950,18.937 11.677 C 18.876 11.469,18.802 11.389,17.207 9.793 C 15.611 8.198,15.531 8.124,15.323 8.063 C 15.060 7.987,14.921 7.987,14.667 8.065" stroke="none" fill-rule="evenodd"/></svg>