<?xml version="1.0" encoding="UTF-8" standalone="no"?>
<svg xmlns="http://www.w3.org/2000/svg" width="24" height="24"><path d="M7.040 1.027 C 6.614 1.050,6.072 1.127,5.795 1.204 C 4.977 1.431,4.161 2.046,3.662 2.811 C 3.281 3.396,3.121 3.901,3.042 4.760 C 2.985 5.386,2.985 18.601,3.042 19.252 C 3.164 20.645,3.736 21.634,4.831 22.350 C 5.400 22.722,5.919 22.884,6.780 22.958 C 7.427 23.014,16.573 23.014,17.220 22.958 C 18.088 22.883,18.596 22.724,19.189 22.339 C 19.867 21.899,20.480 21.136,20.723 20.430 C 20.990 19.656,20.976 20.069,20.991 12.380 C 21.001 7.544,20.992 5.248,20.961 4.856 C 20.888 3.920,20.736 3.422,20.338 2.811 C 19.795 1.979,18.920 1.358,18.009 1.160 C 17.805 1.115,17.382 1.061,17.069 1.040 C 16.569 1.006,7.639 0.994,7.040 1.027 M17.460 3.076 C 17.818 3.146,18.109 3.308,18.401 3.599 C 18.710 3.909,18.859 4.191,18.929 4.600 C 18.969 4.836,18.980 6.415,18.980 12.000 C 18.980 19.661,18.985 19.486,18.769 19.918 C 18.629 20.199,18.307 20.545,18.031 20.711 C 17.565 20.991,17.810 20.980,12.000 20.980 C 6.190 20.980,6.435 20.991,5.969 20.711 C 5.693 20.545,5.371 20.199,5.231 19.918 C 5.015 19.486,5.020 19.661,5.020 12.000 C 5.020 4.379,5.016 4.518,5.223 4.092 C 5.432 3.661,5.949 3.218,6.360 3.120 C 6.470 3.094,6.726 3.058,6.930 3.041 C 7.546 2.989,17.179 3.020,17.460 3.076 M7.664 6.063 C 7.436 6.146,7.257 6.297,7.131 6.511 C 7.036 6.672,7.020 6.744,7.020 7.000 C 7.020 7.256,7.036 7.328,7.131 7.489 C 7.192 7.592,7.301 7.723,7.374 7.778 C 7.677 8.009,7.484 8.000,11.998 8.000 C 16.663 8.000,16.384 8.018,16.701 7.701 C 17.092 7.310,17.092 6.690,16.701 6.299 C 16.384 5.982,16.666 6.000,11.983 6.003 C 8.474 6.005,7.795 6.015,7.664 6.063 M7.664 10.063 C 7.436 10.146,7.257 10.297,7.131 10.511 C 7.036 10.672,7.020 10.744,7.020 11.000 C 7.020 11.256,7.036 11.328,7.131 11.489 C 7.192 11.592,7.301 11.723,7.374 11.778 C 7.672 12.006,7.578 12.000,10.998 12.000 C 14.545 12.000,14.390 12.013,14.701 11.701 C 15.092 11.310,15.092 10.690,14.701 10.299 C 14.389 9.987,14.547 10.000,10.983 10.003 C 8.342 10.005,7.794 10.015,7.664 10.063 M7.664 14.063 C 7.436 14.146,7.257 14.297,7.131 14.511 C 7.036 14.672,7.020 14.744,7.020 15.000 C 7.020 15.256,7.036 15.328,7.131 15.489 C 7.260 15.709,7.437 15.854,7.678 15.939 C 7.941 16.032,10.064 16.028,10.340 15.934 C 10.709 15.808,11.000 15.396,11.000 15.000 C 11.000 14.604,10.709 14.192,10.340 14.066 C 10.073 13.975,7.910 13.973,7.664 14.063" stroke="none" fill-rule="evenodd"/></svg>