<?xml version="1.0" encoding="UTF-8" standalone="no"?>
<svg xmlns:dc="http://purl.org/dc/elements/1.1/" xmlns:cc="http://creativecommons.org/ns#" xmlns:rdf="http://www.w3.org/1999/02/22-rdf-syntax-ns#" xmlns:svg="http://www.w3.org/2000/svg" xmlns="http://www.w3.org/2000/svg" xmlns:xlink="http://www.w3.org/1999/xlink" xmlns:sodipodi="http://sodipodi.sourceforge.net/DTD/sodipodi-0.dtd" xmlns:inkscape="http://www.inkscape.org/namespaces/inkscape" width="28.585436mm" height="22.402287mm" viewBox="0 0 101.28698 79.37818" id="svg8449" version="1.1" inkscape:version="0.91 r13725" sodipodi:docname="Ente_Badebus_Regen.svg"><defs id="defs8451"><linearGradient id="linearGradient8839" inkscape:collect="always"><stop id="stop8841" offset="0" style="stop-color:#fdde48;stop-opacity:1"/><stop id="stop8843" offset="1" style="stop-color:#fdcf43;stop-opacity:0;"/></linearGradient><linearGradient id="linearGradient8805" inkscape:collect="always"><stop id="stop8807" offset="0" style="stop-color:#cb8628;stop-opacity:1"/><stop id="stop8809" offset="1" style="stop-color:#c57b28;stop-opacity:0;"/></linearGradient><linearGradient id="linearGradient8921" inkscape:collect="always"><stop id="stop8923" offset="0" style="stop-color:#f9d4d2;stop-opacity:1;"/><stop id="stop8925" offset="1" style="stop-color:#f9d4d2;stop-opacity:0;"/></linearGradient><linearGradient id="linearGradient9967" inkscape:collect="always"><stop id="stop9969" offset="0" style="stop-color:#cf2f48;stop-opacity:1"/><stop style="stop-color:#a9202a;stop-opacity:1;" offset="0.38405073" id="stop9977"/><stop style="stop-color:#9a1a1f;stop-opacity:1" offset="0.53894168" id="stop9975"/><stop id="stop9979" offset="0.71234852" style="stop-color:#b71d29;stop-opacity:1;"/><stop id="stop9971" offset="1" style="stop-color:#e8223a;stop-opacity:1"/></linearGradient><radialGradient gradientUnits="userSpaceOnUse" gradientTransform="matrix(0.09314269,0,0,0.04392756,517.92802,-1119.7092)" r="115.66247" fy="355.0658" fx="1390.475" cy="355.0658" cx="1390.475" id="radialGradient8845-9-1-4-7" xlink:href="#linearGradient8839" inkscape:collect="always"/><radialGradient gradientUnits="userSpaceOnUse" gradientTransform="matrix(0.09314269,0,0,0.0961848,893.97504,650.1876)" r="75.089096" fy="235.87996" fx="1883.2136" cy="235.87996" cx="1883.2136" id="radialGradient8811-0-4-5" xlink:href="#linearGradient8805" inkscape:collect="always"/><radialGradient gradientUnits="userSpaceOnUse" gradientTransform="matrix(-0.09314269,0,0,0.0961848,1277.2708,647.61631)" r="75.089096" fy="244.1803" fx="1894.6422" cy="244.1803" cx="1894.6422" id="radialGradient8811-4-3-7-5" xlink:href="#linearGradient8805" inkscape:collect="always"/><radialGradient gradientUnits="userSpaceOnUse" gradientTransform="matrix(0.09314269,0,0,0.13585004,955.89991,645.81423)" r="115.66247" fy="378.59045" fx="1416.7389" cy="378.59045" cx="1416.7389" id="radialGradient8845-0-3-8" xlink:href="#linearGradient8839" inkscape:collect="always"/><radialGradient gradientUnits="userSpaceOnUse" gradientTransform="matrix(0.09314269,0,0,0.04799493,518.77481,-1082.1068)" r="115.66247" fy="429.56036" fx="1380.3734" cy="429.56036" cx="1380.3734" id="radialGradient8845-9-8-6-6-16" xlink:href="#linearGradient8839" inkscape:collect="always"/><filter height="1.711" y="-0.35549998" width="1.1805714" x="-0.090285718" id="filter8503-7-7-07-77" style="color-interpolation-filters:sRGB" inkscape:collect="always"><feGaussianBlur id="feGaussianBlur8505-5-8-1-8" stdDeviation="2.3940615" inkscape:collect="always"/></filter><radialGradient gradientUnits="userSpaceOnUse" gradientTransform="matrix(1,0,0,0.51289629,0,-535.52786)" r="37.565552" fy="-1110.3694" fx="1763.5975" cy="-1110.3694" cx="1763.5975" id="radialGradient8927-3-7-4" xlink:href="#linearGradient8921" inkscape:collect="always"/><filter height="1.711" y="-0.35549998" width="1.1805714" x="-0.090285718" id="filter8503-7-3-7-8-3" style="color-interpolation-filters:sRGB" inkscape:collect="always"><feGaussianBlur id="feGaussianBlur8505-5-9-0-36-8" stdDeviation="2.3940615" inkscape:collect="always"/></filter><linearGradient inkscape:collect="always" xlink:href="#linearGradient9967" id="linearGradient6265-8" gradientUnits="userSpaceOnUse" gradientTransform="matrix(0.09314269,0,0,0.09314269,1168.198,722.35704)" x1="-923.55231" y1="-893.20618" x2="-916.66101" y2="-688.92047"/></defs><sodipodi:namedview id="base" pagecolor="#ffffff" bordercolor="#666666" borderopacity="1.0" inkscape:pageopacity="0.0" inkscape:pageshadow="2" inkscape:zoom="0.35" inkscape:cx="-760.62562" inkscape:cy="80.494844" inkscape:document-units="px" inkscape:current-layer="layer1" showgrid="false" fit-margin-top="0" fit-margin-left="0" fit-margin-right="0" fit-margin-bottom="0" inkscape:window-width="2560" inkscape:window-height="1378" inkscape:window-x="-8" inkscape:window-y="-8" inkscape:window-maximized="1"/><metadata id="metadata8454"><rdf:RDF><cc:Work rdf:about=""><dc:format>image/svg+xml</dc:format><dc:type rdf:resource="http://purl.org/dc/dcmitype/StillImage"/><dc:title/></cc:Work></rdf:RDF></metadata><g inkscape:label="Layer 1" inkscape:groupmode="layer" id="layer1" transform="translate(-477.0542,-533.47887)"><g transform="matrix(0.56,0,0,0.56,-93.832034,206.09474)" id="g6087-5-5"><path inkscape:connector-curvature="0" id="path504-3-4-5-58" style="fill:#4f6fb6;fill-opacity:1;fill-rule:nonzero;stroke:none" d="m 1019.4397,717.61208 c 0,0 35.7507,6.23152 59.8575,-3.49828 20.6316,-8.32743 31.8414,-13.82722 51.1123,-11.47999 25.8452,3.14908 39.0302,15.96202 39.0302,15.96202 0,0 -15.787,-9.4896 -48.6518,-8.19969 -20.7454,0.81434 -44.6065,14.75957 -68.221,13.44746 -19.1833,-1.06566 -33.1272,-6.23152 -33.1272,-6.23152"/><path d="m 1036.6041,607.05331 16.2208,34.93131 53.0529,26.56251 66.0395,5.73184 28.392,-24.64143 -26.5814,-34.74432 -81.7878,-23.8414 -55.336,16.00149 z" style="fill:#800000;fill-opacity:1;fill-rule:nonzero;stroke:none" id="path76-2-9-5-65" inkscape:connector-curvature="0"/><path sodipodi:nodetypes="ccccccccc" inkscape:connector-curvature="0" id="path28-3-7-50-79" d="m 1131.9918,586.10474 -29.1248,97.63209 c -0.5188,-0.10656 -0.9412,-0.097 -1.1251,0.0788 l -4.4128,11.97632 c -0.547,2.88691 2.6582,3.55544 3.9757,1.2881 l 4.2401,-11.76309 c -0.5666,-0.81332 -0.1856,-0.4986 -0.9856,-0.95546 l 29.1572,-97.74218 z" style="fill:#2b1100;fill-opacity:1;fill-rule:nonzero;stroke:none"/><path d="m 1036.6041,607.05331 29.7768,-2.39445 57.1033,3.02851 58.5384,23.32555 18.2867,18.62462 -21.3015,-35.81061 -52.1454,-26.84012 -57.8707,-2.37229 -32.3876,22.43879 z" style="fill:#d51845;fill-opacity:1;fill-rule:nonzero;stroke:none" id="path88-5-4-89-3" inkscape:connector-curvature="0"/><path sodipodi:nodetypes="cccccccccccccscsccscssssccscscssscssscscscccsscssscscccssssscscccssssccsscccccccccccc" inkscape:connector-curvature="0" id="path8357-2-7-0-5" d="m 1128.2192,711.63105 c -0.1007,0.19769 -0.1976,0.37741 -0.287,0.53029 0.089,-0.15288 0.1863,-0.33259 0.287,-0.53029 z m -0.287,0.53029 c -0.1342,0.22932 -0.2513,0.39844 -0.3382,0.47773 0.087,-0.0793 0.204,-0.24841 0.3382,-0.47773 z m -0.3852,0.53248 c -0.066,0.083 -0.1823,0.24287 -0.2985,0.41096 0.1162,-0.16809 0.2327,-0.328 0.2985,-0.41096 z m -0.2985,0.41096 c -0.1162,0.16809 -0.2543,0.35208 -0.3507,0.46935 0.096,-0.11725 0.2345,-0.30126 0.3507,-0.46935 z m -79.3883,0.39785 c 0.079,0.18074 0.1101,0.38878 0.1439,0.74642 0.04,0.4272 0.073,1.01438 0.074,1.30472 9e-4,0.48474 0.051,0.57557 0.612,1.11099 1.2116,1.15582 2.2539,2.00153 2.8243,2.29181 0.3197,0.16268 0.7083,0.43191 0.8636,0.59834 0.1552,0.16643 0.3784,0.30271 0.496,0.30271 0.2463,0 1.231,0.4424 1.3257,0.59561 0.035,0.0566 0.1659,0.10296 0.2909,0.10296 0.125,0 0.4755,0.1108 0.779,0.24632 1.2027,0.53709 1.3813,0.61167 1.9303,0.805 0.3131,0.11024 0.6548,0.27355 0.7595,0.36292 0.1048,0.0894 0.5048,0.22169 0.8891,0.29417 0.3842,0.0725 0.8819,0.18683 1.106,0.25414 0.2242,0.0673 0.6433,0.18427 0.9315,0.25977 0.2881,0.0755 0.6287,0.18012 0.7567,0.23268 0.2608,0.107 0.687,0.21804 2.2122,0.57596 0.5763,0.13524 1.2312,0.29121 1.4553,0.34656 0.6977,0.17227 1.4278,0.32769 2.154,0.45843 1.5713,0.28292 3.7719,0.72243 4.4825,0.89541 0.4162,0.10132 1.2545,0.22755 1.8628,0.28034 0.6083,0.0528 1.4204,0.14775 1.8046,0.21121 0.3843,0.0635 2.0084,0.17634 3.6093,0.25086 1.6009,0.0745 3.5918,0.17565 4.4243,0.22467 3.9173,0.23067 11.6232,0.0729 16.4164,-0.33618 0.7684,-0.0656 1.7377,-0.14366 2.1539,-0.17338 1.0946,-0.0782 3.773,-0.50754 5.9379,-0.95198 0.4802,-0.0986 1.1352,-0.2258 1.4553,-0.2827 0.3202,-0.0569 0.7917,-0.15653 1.0479,-0.2214 0.2561,-0.0649 0.8094,-0.1193 1.2294,-0.1208 0.4874,-0.002 0.8454,-0.0646 0.9896,-0.17373 0.1293,-0.0978 0.4846,-0.1725 0.8303,-0.17464 0.3324,-0.002 0.6368,-0.056 0.6764,-0.12006 0.04,-0.064 0.2392,-0.11821 0.4435,-0.12026 0.2043,-0.002 0.4731,-0.0806 0.5974,-0.17464 0.1243,-0.094 0.3669,-0.17081 0.5389,-0.17081 0.172,0 0.378,-0.0786 0.4577,-0.17465 0.08,-0.096 0.2563,-0.17642 0.3926,-0.17847 0.1362,-0.002 0.3494,-0.0806 0.4737,-0.17464 0.1243,-0.094 0.348,-0.17081 0.4972,-0.17081 0.1491,0 0.4728,-0.12745 0.7193,-0.28307 0.2465,-0.15562 0.6488,-0.32042 0.8938,-0.36639 0.245,-0.046 0.7465,-0.23305 1.1146,-0.41569 0.3681,-0.18262 0.6995,-0.33199 0.7364,-0.33199 0.037,0 0.2745,-0.13098 0.5281,-0.29107 0.2536,-0.16009 0.5201,-0.29108 0.5921,-0.29108 0.072,0 0.2868,-0.13097 0.477,-0.29107 0.1903,-0.16008 0.4566,-0.29107 0.5918,-0.29107 0.3019,0 2.2742,-2.01958 2.3786,-2.43572 0.107,-0.42615 0.1021,-1.76382 -0.01,-2.17939 -0.048,-0.18055 -0.055,-0.28973 0.018,-0.42624 l -0.044,-10e-4 c -0.9359,0.89341 -1.7873,0.86452 -3.9348,2.73789 -1.3709,0.87252 -5.3842,2.68935 -7.8007,3.5316 -1.835,0.63956 -5.6459,1.55459 -7.8589,1.88686 -0.4803,0.0721 -1.0566,0.17636 -1.2807,0.23158 -0.8076,0.19899 -6.9801,0.80893 -9.3672,0.92561 -3.1086,0.15196 -7.8382,0.1518 -11.4153,0 -3.091,-0.13149 -8.5378,-0.64762 -11.0607,-1.04803 -0.3842,-0.061 -1.5368,-0.24324 -2.5614,-0.40514 -5.5283,-0.8735 -9.1176,-1.79903 -13.0982,-3.37733 -3.2269,-1.27948 -5.6808,-2.66767 -8.2882,-4.68879 -0.5214,-0.40003 -0.8759,-0.77487 -1.2567,-1.22323 z m 78.9302,0.19429 c -0.03,0.0338 -0.058,0.0687 -0.078,0.10115 0.021,-0.0324 0.049,-0.0673 0.078,-0.10115 z m -0.1222,0.20266 c 0,0.0109 -0.013,0.0357 -0.038,0.071 0.024,-0.0353 0.038,-0.06 0.038,-0.071 z m -0.038,0.071 c -0.037,0.0543 -0.1055,0.13798 -0.1846,0.23067 0.079,-0.0927 0.1473,-0.17634 0.1846,-0.23067 z" style="fill:#4f6fb6;fill-opacity:1"/><path inkscape:connector-curvature="0" id="path8357-4-9-8-1-9" d="m 1080.3439,616.36127 -0.7128,0.39222 c -0.392,0.21576 -0.739,0.42604 -0.771,0.46717 -0.032,0.0411 -0.2416,0.20064 -0.4657,0.35456 -0.2241,0.15391 -0.4337,0.31109 -0.4657,0.34928 -0.032,0.0382 -0.2416,0.19537 -0.4657,0.34929 -0.2241,0.15391 -0.4337,0.3111 -0.4657,0.34928 -0.1001,0.11933 -1.0411,0.63926 -2.8525,1.57615 -0.9606,0.49682 -1.7726,0.9349 -1.8047,0.97345 -0.032,0.0385 -0.2939,0.19838 -0.5821,0.35529 -0.2882,0.1569 -0.5763,0.32808 -0.6404,0.38039 -0.064,0.0523 -0.4569,0.3488 -0.8732,0.65891 -0.9947,0.74112 -2.2458,2.00317 -2.8133,2.83776 -0.2504,0.3682 -0.512,0.66947 -0.5815,0.66947 -0.234,0 -3.5458,2.57025 -3.7439,2.90561 -0.1455,0.24631 -0.1963,0.60745 -0.1963,1.39696 0,1.19848 0.1,1.47827 0.8467,2.37678 l 0.4713,0.56704 -0.1446,0.77189 c -0.2841,1.51802 -1.2764,4.3569 -1.6333,4.67241 -0.036,0.032 -0.2171,0.34638 -0.402,0.69857 -0.1849,0.3522 -0.3991,0.71895 -0.4761,0.815 -0.077,0.0961 -0.2957,0.4628 -0.4862,0.81499 -0.1905,0.3522 -0.4532,0.82374 -0.5836,1.04786 -0.7458,1.28103 -0.869,1.51415 -1.385,2.61964 -0.2391,0.51228 -0.4756,1.1148 -0.5254,1.33892 -0.05,0.22413 -0.1461,0.61707 -0.2141,0.87322 -0.7508,2.82914 -0.7546,5.69729 -0.011,8.57132 0.5756,2.2257 0.8839,2.97022 1.9484,4.70443 0.7454,1.21427 0.8153,1.30018 2.1879,2.68695 1.1273,1.13886 1.5994,1.49796 3.2018,2.43444 0.4162,0.24325 0.8878,0.52885 1.0479,0.63472 0.1601,0.10588 0.8089,0.44282 1.4417,0.74878 1.7959,0.86833 2.0237,1.22718 1.2931,2.03586 -0.4939,0.54666 -0.7484,0.6488 -2.0675,0.82991 -0.8273,0.11359 -1.2581,0.256 -2.2704,0.75079 -1.2504,0.61116 -1.7344,0.83457 -2.4428,1.12771 -0.2081,0.0861 -0.3784,0.18986 -0.3784,0.23049 0,0.0406 -0.1703,0.14156 -0.3784,0.22431 -0.2081,0.0828 -0.8121,0.40353 -1.3424,0.71277 -0.5302,0.30922 -1.0411,0.56212 -1.1352,0.56212 -0.094,0 -0.1711,0.0411 -0.1711,0.0913 0,0.0502 -0.1564,0.18373 -0.3477,0.2967 -0.6092,0.35986 -2.2559,1.64026 -2.8563,2.22088 -0.7302,0.70624 -1.2118,1.01342 -2.0935,1.33565 -0.5612,0.20508 -0.8413,0.40897 -1.425,1.03694 -0.3996,0.42991 -0.7267,0.84289 -0.7277,0.9176 -9e-4,0.0747 -0.041,0.1533 -0.089,0.17464 -0.049,0.0213 -0.2712,0.27321 -0.4948,0.55977 -0.4672,0.59868 -0.912,1.10728 -1.9813,2.26544 -1.0754,1.16474 -2.4329,2.77131 -2.8872,3.41681 -0.2128,0.30234 -0.5796,0.78105 -0.815,1.06386 -0.2355,0.28282 -0.4926,0.64957 -0.5714,0.815 -0.079,0.16544 -0.3425,0.61507 -0.586,0.99928 -0.478,0.75435 -1.6575,3.04219 -1.6575,3.21507 0,0.0581 -0.099,0.32778 -0.2206,0.59924 -1.0574,2.36368 -1.4651,3.56598 -1.7217,5.07809 -0.2681,1.57922 -0.1194,2.28378 0.901,4.26855 0.5462,1.06237 0.8358,1.77749 0.9253,2.28455 0.1173,0.665 0.2753,1.38945 0.8719,3.99804 0.1025,0.44825 0.2364,0.9061 0.2974,1.01729 0.061,0.1112 0.111,0.30766 0.111,0.43661 0,0.12894 0.052,0.23431 0.1164,0.23431 0.064,0 0.1165,0.0794 0.1165,0.17628 0,0.2892 0.1662,0.55058 1.1703,1.84066 0.7707,0.99025 0.9719,1.23003 1.6953,2.01949 0.2117,0.23105 0.3323,0.37949 0.4084,0.55304 0.3808,0.44836 0.7353,0.82319 1.2567,1.22322 2.6074,2.02111 5.0613,3.4093 8.2882,4.68879 3.9806,1.5783 7.5699,2.50383 13.0982,3.37733 1.0246,0.16189 2.1772,0.34416 2.5614,0.40513 2.5229,0.40042 7.9697,0.91655 11.0607,1.04804 3.5771,0.1518 8.3067,0.15196 11.4153,0 2.3871,-0.11668 8.5596,-0.72662 9.3672,-0.92561 0.2241,-0.0552 0.8004,-0.15947 1.2807,-0.23158 2.213,-0.33228 6.024,-1.2473 7.8589,-1.88687 2.4165,-0.84225 6.4298,-2.65907 7.8007,-3.53159 2.1475,-1.87337 2.9989,-1.84447 3.9348,-2.73789 l 0.044,9.4e-4 c 0.059,-0.11168 0.1701,-0.24128 0.3632,-0.44625 0.2627,-0.27892 0.4777,-0.54308 0.4777,-0.58688 0,-0.0438 0.067,-0.14877 0.1493,-0.23339 0.082,-0.0846 0.2761,-0.33728 0.431,-0.56141 0.1549,-0.22412 0.3104,-0.43369 0.3455,-0.46571 0.4635,-0.42283 1.7849,-3.39934 1.9761,-4.45156 0.3137,-1.72598 0.5204,-2.5163 0.8421,-3.21798 0.6187,-1.34945 0.6884,-1.51806 0.8594,-2.08188 0.2173,-0.71611 0.2137,-1.40646 -0.013,-2.41535 -0.4017,-1.79013 -0.4333,-1.91833 -0.7899,-3.20178 -0.2585,-0.93057 -0.8968,-2.83318 -0.996,-2.96892 -0.047,-0.064 -0.1563,-0.35219 -0.2434,-0.64036 -0.087,-0.28815 -0.1927,-0.57632 -0.2347,-0.64035 -0.042,-0.064 -0.1981,-0.43079 -0.3467,-0.815 -0.1486,-0.38421 -0.7411,-1.64164 -1.3166,-2.79428 -0.5755,-1.15264 -1.1042,-2.21318 -1.175,-2.35676 -0.071,-0.14358 -0.1681,-0.26104 -0.2161,-0.26197 -0.048,-9.3e-4 -0.087,-0.0541 -0.087,-0.11934 0,-0.0652 -0.2096,-0.4636 -0.4657,-0.88522 -0.2562,-0.42162 -0.4658,-0.7875 -0.4658,-0.81317 0,-0.0827 -1.6071,-2.42483 -1.8292,-2.66567 -0.118,-0.12807 -0.3423,-0.41623 -0.4986,-0.64036 -0.1562,-0.22412 -0.352,-0.47745 -0.4351,-0.56304 -0.083,-0.0856 -0.2945,-0.34755 -0.4696,-0.58214 -0.1751,-0.23459 -0.4364,-0.55696 -0.5805,-0.7164 -0.1441,-0.15943 -0.2619,-0.3285 -0.2619,-0.37566 0,-0.16746 -3.4649,-3.55845 -4.4893,-4.39353 -0.5726,-0.4668 -1.2769,-0.96028 -1.565,-1.09662 -0.2882,-0.13634 -0.5501,-0.2806 -0.5822,-0.32054 -0.032,-0.0399 -0.4773,-0.28913 -0.9896,-0.55376 -0.5123,-0.26463 -1.01,-0.53367 -1.1061,-0.59797 -0.096,-0.0643 -0.5676,-0.33213 -1.0478,-0.59506 -1.743,-0.95416 -2.1561,-1.18449 -2.2704,-1.26634 -0.6258,-0.44806 -2.0105,-1.05662 -2.7532,-1.20994 -1.0867,-0.22437 -1.4272,-0.41323 -1.9936,-1.10553 -0.7613,-0.93041 -1.3409,-1.7453 -1.4377,-2.02112 -0.039,-0.11206 -0.1177,-0.20375 -0.1743,-0.20375 -0.057,0 -0.103,-0.0686 -0.103,-0.15262 0,-0.084 -0.1047,-0.36983 -0.2328,-0.63491 -0.4121,-0.85302 -0.3866,-0.9012 1.4686,-2.78354 2.1184,-2.14935 3.6478,-3.90412 3.6522,-4.1907 0,-0.0747 0.041,-0.15329 0.089,-0.17464 0.2553,-0.11349 1.7755,-3.018 1.7755,-3.39243 0,-0.083 0.043,-0.20077 0.095,-0.2616 0.052,-0.0608 0.1904,-0.49398 0.3073,-0.96254 0.1869,-0.74917 0.2043,-1.17748 0.1443,-3.55106 -0.039,-1.54926 -0.1391,-3.07115 -0.2345,-3.57236 -0.3272,-1.71871 -1.0599,-3.5679 -2.0763,-5.23982 -0.3479,-0.57243 -0.9838,-1.47429 -1.1488,-1.62945 -0.034,-0.032 -0.2425,-0.29398 -0.4633,-0.58215 -0.2208,-0.28815 -0.429,-0.55012 -0.4627,-0.58214 -0.1243,-0.11821 -1.8335,-2.18058 -2.4817,-2.99457 -0.3682,-0.46237 -0.8693,-1.24826 -1.1137,-1.74643 -0.7615,-1.55204 -0.7612,-1.55098 -0.5949,-2.57543 0.1371,-0.8442 0.1285,-0.99712 -0.114,-2.00875 -0.1444,-0.60228 -0.3424,-1.26634 -0.4399,-1.47555 -0.1871,-0.40154 -1.2445,-1.42425 -1.4725,-1.42425 -0.074,0 -0.2675,-0.12365 -0.4306,-0.27488 -0.1631,-0.15122 -0.4102,-0.33583 -0.5492,-0.41022 -0.139,-0.0744 -0.5338,-0.51397 -0.8772,-0.97673 -0.6518,-0.87828 -2.0575,-2.33761 -2.7572,-2.86268 -0.2241,-0.16818 -0.4337,-0.33629 -0.4657,-0.37348 -0.3646,-0.42349 -3.8808,-2.43699 -4.2558,-2.43699 -0.093,0 -0.1685,-0.0524 -0.1685,-0.11643 0,-0.064 -0.1053,-0.11643 -0.2343,-0.11643 -0.1289,0 -0.3254,-0.0511 -0.4366,-0.1137 -0.1112,-0.0626 -0.6137,-0.24745 -1.1166,-0.41077 -0.5958,-0.19348 -1.1029,-0.45363 -1.4554,-0.74678 -1.0914,-0.90762 -2.0468,-1.24822 -4.0197,-1.43262 l -1.4993,-0.14007 z" style="fill:#f0be29;fill-opacity:1"/><ellipse transform="matrix(0,1,-1,0,0,0)" ry="5.5512118" rx="10.773113" cy="-1102.983" cx="649.8869" id="path8837-3-3-6-8" style="opacity:1;fill:url(#radialGradient8845-9-1-4-7);fill-opacity:1;fill-rule:evenodd;stroke:none;stroke-width:3;stroke-linecap:round;stroke-linejoin:round;stroke-miterlimit:4;stroke-dasharray:none;stroke-dashoffset:0;stroke-opacity:1"/><path style="fill:#233660" d="m 1067.6397,637.17884 c -0.5469,-0.15715 -0.9789,-0.66182 -1.6035,-1.87322 -0.3548,-0.68812 -0.6825,-1.38211 -0.7282,-1.54219 -0.046,-0.16009 -0.2131,-0.51774 -0.3721,-0.79479 -0.2743,-0.47785 -0.3001,-0.49375 -0.5035,-0.30968 -0.3187,0.28844 -0.5958,0.13447 -1.0794,-0.5999 -0.4236,-0.64327 -0.4324,-0.67943 -0.4317,-1.7756 10e-4,-0.86826 0.046,-1.18765 0.2038,-1.42556 0.2787,-0.42094 2.6596,-2.29895 3.7512,-2.95885 1.5886,-0.96037 3.1165,-1.42705 5.1839,-1.5834 2.0711,-0.15663 3.2699,-0.073 4.9487,0.34524 l 1.3394,0.33367 2.2699,-0.13929 c 2.2191,-0.13619 2.2906,-0.14864 3.2013,-0.55788 1.2173,-0.54706 2.6549,-0.76322 5.3557,-0.80526 2.4429,-0.038 3.6053,0.10977 4.9844,0.63374 1.0405,0.39528 2.6316,1.32802 3.5253,2.06656 0.3121,0.25788 0.6361,0.46887 0.7201,0.46887 0.2376,0 1.265,1.01543 1.475,1.45787 0.1951,0.4113 0.6474,2.35919 0.6463,2.78355 -10e-4,0.3709 -0.2309,1.11428 -0.3446,1.11428 -0.056,0 -0.2236,-0.31645 -0.3729,-0.70322 -0.2957,-0.76589 -0.301,-0.76906 -1.4085,-0.84313 -0.4312,-0.0288 -0.7128,0.005 -0.7874,0.095 -0.064,0.0769 -0.2939,0.82621 -0.5113,1.66505 -0.4445,1.71505 -0.8815,2.68353 -1.4281,3.1651 -0.441,0.3884 -1.3151,0.51978 -2.9413,0.44203 -1.0572,-0.0506 -1.4031,-0.18675 -1.4031,-0.55245 0,-0.10779 -0.1318,-0.37644 -0.293,-0.597 -0.5401,-0.73947 -2.5516,-2.69947 -3.3367,-3.25142 -0.809,-0.5687 -2.2188,-1.22779 -3.4089,-1.59362 -0.6847,-0.21047 -0.6998,-0.22458 -1.2225,-1.14148 -0.2922,-0.51259 -0.6596,-0.9971 -0.8203,-1.08184 -0.2028,-0.10692 -0.6702,-0.14261 -1.5413,-0.11767 -1.4855,0.0425 -1.5188,0.065 -2.0646,1.39221 -0.2022,0.49187 -0.4299,0.94397 -0.5058,1.00467 -0.076,0.0607 -0.4785,0.23019 -0.8947,0.37663 -0.4163,0.14645 -0.8354,0.33018 -0.9315,0.4083 -0.096,0.0781 -0.4566,0.28339 -0.8013,0.45617 -1.2361,0.6196 -3.467,3.08373 -4.5703,5.0481 -0.2498,0.44472 -0.465,0.66905 -0.7602,0.79239 -0.4287,0.17911 -2.1397,0.3126 -2.5383,0.19804 z" id="path8629-8-5-3-10" inkscape:connector-curvature="0"/><path sodipodi:nodetypes="sssccscscssssscccsssscsccssscsssscscsssssssscssssssssscssscssscsssssssscssccssssccsscsscssssssssssssssssssccccccssscccccsscscsscccccsccccscsccccccsccccsccssssssccccssccsssssccscssssscscscscsscscssscssscccsscccccccccscccccsccssssssssssccscssccscssssssscccsssssscsssccccssssccsssccsccscsscscccsccccccccccsscscccsccssccsssc" inkscape:connector-curvature="0" id="path8359-2-1-6-5" d="m 1067.6664,637.13381 c -0.1601,-0.0291 -0.4496,-0.17283 -0.6433,-0.31943 -0.3656,-0.2766 -0.5094,-0.53502 -1.6611,-2.9845 -0.3794,-0.8071 -0.7433,-1.50045 -0.8086,-1.54078 -0.066,-0.041 -0.1493,0.08 -0.1881,0.27407 -0.038,0.19106 -0.1191,0.34739 -0.1797,0.34739 -0.1595,0 -0.8972,-0.88988 -1.1106,-1.33966 -0.1246,-0.26254 -0.1821,-0.72546 -0.1821,-1.46562 l 0,-1.08189 0.6112,-0.58881 c 1.2022,-1.15806 3.3037,-2.64285 4.2788,-3.02308 0.2881,-0.11238 0.7073,-0.28395 0.9314,-0.38127 0.7846,-0.34074 0.879,-0.37253 1.6554,-0.55776 1.1635,-0.27759 4.3886,-0.29479 5.6796,-0.0303 0.5443,0.11153 1.1206,0.26305 1.2807,0.33673 0.4254,0.19577 5.3507,0.13574 5.5884,-0.0681 0.2322,-0.1991 1.3662,-0.7129 1.8048,-0.81779 1.6422,-0.3927 5.9975,-0.56885 7.2543,-0.2934 1.4771,0.32373 1.7611,0.40397 2.4823,0.70138 0.9934,0.40963 2.7106,1.42124 3.2746,1.92903 0.2403,0.21638 0.482,0.3934 0.537,0.3934 0.1757,0 0.9575,0.67573 0.8306,0.718 -0.1366,0.0455 -0.026,0.79557 0.1175,0.79557 0.1492,0 0.2157,-0.45148 0.074,-0.5024 -0.073,-0.0263 -0.1023,-0.0816 -0.064,-0.12275 0.089,-0.0972 0.5076,0.27473 0.6052,0.53783 0.042,0.11206 0.025,0.20375 -0.037,0.20375 -0.062,0 -0.1128,-0.0873 -0.1128,-0.19404 0,-0.22574 -0.15,-0.11376 -0.1872,0.13975 -0.014,0.0945 0.023,0.14229 0.081,0.10619 0.058,-0.0361 0.1062,0.0684 0.1062,0.2323 0,0.18909 0.065,0.29794 0.1772,0.29794 0.3925,0 0.7245,1.64157 0.5256,2.59937 -0.075,0.36111 -0.18,0.68359 -0.2335,0.71662 -0.053,0.033 -0.2166,-0.32466 -0.3625,-0.79489 l -0.2654,-0.85495 -0.511,-0.0193 c -0.281,-0.0106 -0.72,-0.0663 -0.9755,-0.1237 -0.5568,-0.1251 -0.5341,-0.1665 -1.0344,1.88049 -0.3844,1.57275 -0.8997,2.73955 -1.3933,3.15489 -0.2832,0.23834 -0.5214,0.30403 -1.3539,0.37338 -0.9746,0.0812 -2.3904,0.0131 -2.7717,-0.13318 -0.2506,-0.0962 -0.2321,-0.3485 0.04,-0.53874 0.2139,-0.14983 0.2087,-0.1635 -0.1165,-0.30743 -0.1871,-0.0829 -0.3408,-0.21173 -0.3415,-0.28641 -6e-4,-0.0747 -0.1371,-0.24056 -0.3033,-0.36863 -0.4211,-0.32461 -0.8312,-0.72254 -1.4419,-1.39894 -0.7855,-0.87004 -1.9341,-1.67929 -3.3528,-2.36216 -0.7048,-0.33924 -0.8635,-0.46721 -0.9181,-0.7404 -0.036,-0.18166 -0.1099,-0.33027 -0.1634,-0.33027 -0.054,0 -0.1539,-0.20958 -0.2228,-0.46572 -0.069,-0.25614 -0.1789,-0.46571 -0.2442,-0.46571 -0.065,0 -0.092,-0.0428 -0.06,-0.0951 0.032,-0.0523 -0.021,-0.32611 -0.118,-0.60841 -0.1192,-0.34612 -0.1361,-0.52684 -0.052,-0.55492 0.069,-0.0229 0.1249,-0.12277 0.1249,-0.22194 0,-0.0992 0.109,-0.35676 0.2423,-0.57244 0.2776,-0.44917 0.2248,-0.50891 -0.1213,-0.13733 l -0.2374,0.25481 0,-0.25481 c 0,-0.29547 -0.1753,-0.33991 -0.2787,-0.0706 -0.1804,0.47016 -0.054,1.40963 0.3038,2.26083 0.067,0.16008 0.1739,0.42205 0.2369,0.58214 0.063,0.16009 0.1607,0.38204 0.2173,0.49324 0.2385,0.46898 0.1385,0.53323 -0.5084,0.32652 -0.5904,-0.18865 -0.6277,-0.22654 -1.0929,-1.11065 -0.2648,-0.50345 -0.5761,-0.98449 -0.6917,-1.06901 -0.1467,-0.10728 -0.6366,-0.15367 -1.6229,-0.15367 -1.681,0 -1.6981,0.0112 -2.2077,1.43908 -0.3443,0.96496 -0.4481,1.06 -1.487,1.36223 -0.3967,0.11541 -0.4002,0.0529 -0.072,-1.28774 0.1334,-0.54431 0.2683,-1.21231 0.2998,-1.48446 0.051,-0.44329 0.032,-0.49482 -0.1872,-0.49482 -0.1346,0 -0.2446,0.0555 -0.2446,0.1233 0,0.0678 0.049,0.0932 0.1084,0.0563 0.1887,-0.11666 0.2461,0.13683 0.065,0.28716 -0.1091,0.0906 -0.1733,0.34934 -0.1733,0.69839 0,0.54783 -0.2203,1.45238 -0.5299,2.17625 -0.1163,0.27199 -0.339,0.46048 -0.825,0.69848 -0.7328,0.35879 -1.7376,1.27779 -2.7913,2.55287 -0.3771,0.45627 -0.869,1.05015 -1.0931,1.31974 -0.2241,0.26959 -0.4557,0.60358 -0.5145,0.74221 -0.4928,1.16075 -0.5304,1.19356 -1.6394,1.43237 -0.6988,0.15046 -1.2577,0.17338 -1.8047,0.074 z m -0.6403,-1.77825 c -0.2015,-0.38952 -0.4075,-0.46017 -0.4075,-0.13972 0,0.24649 0.2151,0.489 0.4337,0.489 0.1224,0 0.1169,-0.0724 -0.026,-0.34928 z m 25.0903,-0.34929 c 0,-0.064 -0.052,-0.11643 -0.1164,-0.11643 -0.064,0 -0.1165,0.0524 -0.1165,0.11643 0,0.064 0.052,0.11643 0.1165,0.11643 0.064,0 0.1164,-0.0524 0.1164,-0.11643 z m 1.3874,-0.074 c 0.1031,-0.0902 -0.8759,-0.0205 -1.0963,0.078 -0.1521,0.068 -0.011,0.0799 0.4075,0.0343 0.3522,-0.0384 0.6621,-0.089 0.6888,-0.1123 z m 2.2605,-1.17762 c 0.151,-0.24014 0.3594,-0.69857 0.4633,-1.01875 0.3994,-1.23178 0.5649,-4.16909 0.2972,-5.27503 -0.1672,-0.69081 -0.4072,-0.97814 -0.2619,-0.31353 0.1551,0.70949 0.129,4.29898 -0.033,4.49461 -0.074,0.0894 -0.216,0.47688 -0.3158,0.86109 -0.2395,0.92236 -0.4353,1.32493 -0.6835,1.40516 -0.277,0.0896 -0.2581,0.28305 0.028,0.28305 0.141,0 0.3386,-0.17059 0.5058,-0.4366 z m -30.1232,-1.39472 c -0.039,-0.0387 -0.066,0.0301 -0.061,0.15281 0.01,0.13564 0.033,0.16323 0.07,0.0704 0.034,-0.0841 0.029,-0.18447 -0.01,-0.22316 z m -0.1761,-0.98239 c -0.068,-0.19524 -0.1583,-0.76847 -0.2004,-1.27384 -0.042,-0.50538 -0.1215,-0.91886 -0.1763,-0.91886 -0.055,0 -0.1,0.12411 -0.1,0.27581 0,0.33255 0.3243,2.24951 0.4359,2.57668 0.075,0.21914 0.082,0.21702 0.1218,-0.036 0.023,-0.14786 -0.013,-0.42857 -0.081,-0.62382 z m 6.7837,0.079 c 0.037,-0.0953 0.029,-0.16767 -0.017,-0.16085 -0.4353,0.0649 -0.5053,-0.18991 -0.081,-0.2963 0.3361,-0.0843 0.755,-0.41191 0.755,-0.59034 0,-0.0666 0.131,-0.2195 0.2911,-0.33972 0.1601,-0.12022 0.291,-0.30801 0.291,-0.41732 0,-0.23052 0.4418,-0.77211 0.5949,-0.72918 0.057,0.016 0.1037,-0.12807 0.1037,-0.32017 0,-0.23874 0.057,-0.34929 0.1815,-0.34929 0.1,0 0.1526,-0.0469 0.1171,-0.10423 -0.035,-0.0573 0.014,-0.13446 0.1107,-0.1714 0.096,-0.037 0.1614,-0.13175 0.1448,-0.21066 -0.017,-0.0789 0.046,-0.14586 0.1401,-0.14877 0.094,-0.003 0.2192,-0.17557 0.2788,-0.38369 0.072,-0.25194 0.1808,-0.37839 0.3246,-0.37839 0.272,0 0.3004,-0.52481 0.034,-0.62707 -0.1001,-0.0384 -0.1492,-0.12305 -0.109,-0.18809 0.1041,-0.16842 -0.4424,-0.35567 -0.5513,-0.18893 -0.063,0.0965 -0.086,0.0962 -0.087,-10e-4 -9e-4,-0.0727 -0.2768,-0.16544 -0.613,-0.20617 -0.7128,-0.0863 -3.1933,0.19589 -3.3822,0.38484 -0.1316,0.13154 -0.016,0.12419 0.9538,-0.0607 0.2555,-0.0487 0.369,-0.0335 0.3217,0.0432 -0.04,0.0652 -0.3494,0.15297 -0.687,0.19515 -0.3376,0.0422 -0.6845,0.12035 -0.7708,0.1737 -0.2448,0.15128 0.026,0.24715 0.4044,0.14295 0.1852,-0.0511 0.4677,-0.0588 0.6278,-0.0172 l 0.2911,0.0757 -0.2911,0.10075 c -0.1601,0.0554 -0.3617,0.11317 -0.4481,0.12835 -0.1622,0.0285 -0.7632,0.69471 -0.789,0.87459 -0.01,0.0559 -0.022,0.16716 -0.031,0.2472 -0.011,0.1017 -0.049,0.0934 -0.1258,-0.0275 -0.094,-0.14856 -0.1399,-0.14031 -0.3245,0.0582 -0.3081,0.33141 -0.2944,1.11728 0.023,1.30413 0.132,0.0778 0.1801,0.14326 0.1068,0.14554 -0.2275,0.007 -0.1247,0.58609 0.1041,0.58618 0.1121,5e-5 0.2038,0.0787 0.2038,0.17473 0,0.096 0.074,0.17464 0.1643,0.17464 0.2,0 0.7671,0.6521 0.7671,0.88215 0,0.0991 0.1169,0.1657 0.2911,0.1657 0.1601,0 0.291,0.0524 0.291,0.11643 0,0.18234 0.3168,0.13629 0.3909,-0.0568 z m -0.9111,-0.51944 c -0.076,-0.12304 0.722,-0.30867 0.8362,-0.1945 0.04,0.0397 -0.041,0.0722 -0.1801,0.0722 -0.1388,0 -0.2523,0.0524 -0.2523,0.11643 0,0.14802 -0.3132,0.15258 -0.4038,0.006 z m 1.1024,-0.69758 c 0,-0.0678 0.052,-0.1233 0.1164,-0.1233 0.064,0 0.1164,0.0231 0.1164,0.0513 0,0.0282 -0.052,0.0837 -0.1164,0.1233 -0.064,0.0396 -0.1164,0.0165 -0.1164,-0.0513 z m -0.1164,-4.30949 c 0.1566,-0.10588 1.5049,-0.18252 1.3874,-0.0789 -0.027,0.0235 -0.3891,0.0775 -0.8053,0.11987 -0.5268,0.0537 -0.7037,0.0412 -0.5821,-0.041 z m 19.0942,5.35047 c 0,-0.064 -0.052,-0.11642 -0.1164,-0.11642 -0.064,0 -0.1164,0.0524 -0.1164,0.11642 0,0.064 0.052,0.11643 0.1164,0.11643 0.064,0 0.1164,-0.0524 0.1164,-0.11643 z m -1.1409,-0.19544 c -0.092,-0.0369 0.015,-0.14994 0.2745,-0.2888 0.4252,-0.2279 0.6086,-0.22364 0.4637,0.0108 -0.042,0.0683 -0.1553,0.12418 -0.2514,0.12418 -0.096,0 -0.1437,0.0501 -0.1058,0.11134 0.078,0.12565 0.4193,0.0283 0.565,-0.16106 0.067,-0.0868 0.1142,-0.0805 0.1553,0.0206 0.097,0.23823 0.2558,0.16502 0.1898,-0.0873 -0.043,-0.16634 0,-0.23286 0.1398,-0.23286 0.1351,0 0.1776,-0.0601 0.13,-0.18416 -0.039,-0.10129 -0.071,-0.21249 -0.071,-0.24711 0,-0.0346 -0.079,0.002 -0.1746,0.082 -0.1007,0.0835 -0.1747,0.0949 -0.1747,0.0267 0,-0.16424 0.3266,-0.27404 0.4107,-0.13805 0.1164,0.18835 0.3173,0.12305 0.2401,-0.0781 -0.04,-0.10417 -0.013,-0.26135 0.06,-0.34929 0.1004,-0.12096 0.094,-0.20648 -0.026,-0.35132 -0.1413,-0.17017 -0.1299,-0.18223 0.1021,-0.10858 0.1904,0.0604 0.2611,0.0361 0.2611,-0.0899 0,-0.095 -0.065,-0.1968 -0.1456,-0.22615 -0.1138,-0.0417 -0.1149,-0.0859 0,-0.2027 0.1143,-0.12134 0.1743,-0.1214 0.3202,0 0.1482,0.12304 0.1796,0.11857 0.1796,-0.0257 0,-0.0961 -0.1179,-0.25482 -0.262,-0.35275 -0.2397,-0.16293 -0.2444,-0.18508 -0.055,-0.26082 0.1986,-0.0794 0.1986,-0.0891 0,-0.23656 -0.1736,-0.12885 -0.1839,-0.19197 -0.063,-0.38942 0.1253,-0.20529 0.1178,-0.22631 -0.058,-0.16319 -0.1111,0.0399 -0.1632,0.0296 -0.1157,-0.0227 0.047,-0.0523 0.025,-0.16947 -0.051,-0.26028 -0.1061,-0.12786 -0.1021,-0.18674 0.018,-0.26093 0.094,-0.058 0.1229,-0.17951 0.073,-0.30804 -0.064,-0.16782 -0.1017,-0.17934 -0.1786,-0.055 -0.1175,0.19025 -0.356,0.0676 -0.356,-0.18299 0,-0.11572 -0.065,-0.15519 -0.1823,-0.11029 -0.1413,0.0543 -0.1651,0.016 -0.1059,-0.17052 0.1007,-0.31733 -0.2063,-0.6502 -0.6162,-0.66801 -0.1749,-0.008 -0.6586,-0.0565 -1.0749,-0.10875 -0.6628,-0.0832 -1.3284,-0.0968 -2.1611,-0.0443 -0.132,0.008 -0.3415,0.10834 -0.4657,0.22224 -0.1241,0.11391 -0.3108,0.18993 -0.4148,0.16893 -0.2121,-0.0428 -0.3873,0.27634 -0.2114,0.38507 0.062,0.0385 0.083,0.11876 0.046,0.17837 -0.037,0.0596 -0.01,0.10838 0.065,0.10838 0.088,0 0.106,0.12638 0.053,0.3784 -0.065,0.3093 -0.052,0.35181 0.072,0.23285 0.2305,-0.22075 0.4547,-0.17432 0.4547,0.0942 0,0.13184 -0.052,0.20734 -0.1164,0.16777 -0.064,-0.0396 -0.1165,-0.0196 -0.1165,0.0445 0,0.17901 0.2714,0.3057 0.3231,0.15078 0.066,-0.19709 0.2591,-0.16901 0.2591,0.0376 0,0.0979 -0.1039,0.17465 -0.2364,0.17465 -0.2316,0 -0.2311,0.007 0.027,0.35586 0.1662,0.22472 0.3367,0.33663 0.4627,0.30367 0.1459,-0.0382 0.2091,0.0305 0.2352,0.25539 0.021,0.18531 0.1397,0.35325 0.2976,0.4225 0.1441,0.0632 0.2619,0.1549 0.2619,0.20375 0,0.0489 0.079,0.0888 0.1747,0.0888 0.096,0 0.1754,0.0655 0.1764,0.14554 0,0.097 0.039,0.0873 0.1147,-0.0291 0.1003,-0.15523 0.1145,-0.15523 0.1284,0 0.01,0.0961 0.01,0.24013 0,0.32018 -0.01,0.0801 0.088,0.14554 0.219,0.14554 0.1309,0 0.238,0.0559 0.238,0.12427 0,0.0713 -0.099,0.0928 -0.2329,0.0504 -0.1915,-0.0608 -0.2328,-0.0209 -0.2328,0.22501 0,0.29447 0.1746,0.41546 0.2543,0.17624 0.027,-0.0822 0.1362,-0.0861 0.3299,-0.0117 0.2507,0.0963 0.262,0.12193 0.085,0.19335 -0.4327,0.17485 -0.094,0.74768 0.4367,0.73941 0.064,-0.001 0.048,-0.0291 -0.035,-0.0624 z m -0.082,-0.50313 c 0.04,-0.064 0.1213,-0.11642 0.1815,-0.11642 0.06,0 0.1096,0.0524 0.1096,0.11642 0,0.064 -0.082,0.11643 -0.1815,0.11643 -0.1,0 -0.1492,-0.0524 -0.1096,-0.11643 z m 2.5032,-0.4181 c 0,-0.0222 -0.079,-0.0102 -0.1746,0.0267 -0.096,0.0369 -0.1747,0.12022 -0.1747,0.18525 0,0.0681 0.074,0.0568 0.1747,-0.0267 0.096,-0.0797 0.1746,-0.16308 0.1746,-0.18525 z m 7.4056,-0.93065 c -0.035,-0.0906 -0.1828,-0.16401 -0.3289,-0.16303 -0.2142,10e-4 -0.2318,0.0236 -0.091,0.11465 0.1553,0.10031 0.1553,0.11408 0,0.12383 -0.1198,0.008 -0.129,0.0294 -0.029,0.0697 0.08,0.0323 0.1456,0.12247 0.1456,0.20038 0,0.0779 0.065,0.20784 0.1455,0.28873 0.1169,0.1181 0.153,0.0863 0.1833,-0.16119 0.021,-0.16955 0.01,-0.38244 -0.025,-0.47307 z m -22.732,-2.66802 c 0.046,-0.11879 -0.01,-0.17464 -0.1622,-0.17464 -0.1261,0 -0.2292,0.0785 -0.2292,0.17464 0,0.0961 0.073,0.17464 0.1622,0.17464 0.089,0 0.1923,-0.0786 0.2292,-0.17464 z m -5.5725,-1.23504 c 0.5056,-0.083 1.4916,-0.10975 2.5968,-0.0703 1.4926,0.0532 1.7605,0.0379 1.6506,-0.0945 -0.072,-0.0869 -0.2059,-0.12937 -0.2973,-0.0943 -0.094,0.0359 -0.1661,-0.005 -0.1661,-0.0942 0,-0.0926 -0.1325,-0.16161 -0.3202,-0.16672 -0.1761,-0.005 -0.8965,-0.0445 -1.6009,-0.0881 -1.222,-0.0757 -2.5032,0.065 -2.5032,0.2749 0,0.0455 -0.235,0.10924 -0.5223,0.14162 -0.5511,0.0621 -1.158,0.37804 -1.0529,0.5481 0.034,0.0554 0.3634,0.028 0.7314,-0.0609 0.368,-0.0889 1.0359,-0.22186 1.4841,-0.29548 z m 17.0471,-0.52748 c 0.101,-0.0877 -1.3399,-0.0213 -1.5621,0.072 -0.1376,0.0578 0.1244,0.0716 0.6404,0.0339 0.4802,-0.0351 0.895,-0.0828 0.9217,-0.10592 z m 1.6397,0.0684 c -0.2882,-0.0513 -0.7597,-0.0892 -1.0479,-0.0844 l -0.5239,0.009 0.5239,0.0815 c 0.2882,0.0448 0.7597,0.0828 1.0479,0.0844 l 0.5239,0.003 -0.5239,-0.0932 z m 1.8628,-0.33013 c 0,-0.0568 -0.144,-0.13213 -0.3201,-0.16748 -0.1761,-0.0353 -0.556,-0.12415 -0.8441,-0.19733 -1.0049,-0.25522 -1.3575,-0.26895 -1.4392,-0.056 -0.041,0.1077 -0.054,0.23037 -0.028,0.27261 0.026,0.0422 0.4848,0.0944 1.0192,0.11593 0.5343,0.0215 0.9933,0.0608 1.02,0.0873 0.094,0.0933 0.5918,0.047 0.5918,-0.055 z m -3.3262,-0.17509 c 0.5133,-0.0138 0.6615,-0.27003 0.2409,-0.41643 -0.3145,-0.10949 -2.5248,0.18536 -2.9975,0.39987 -0.3519,0.15969 -0.2839,0.16688 0.952,0.10065 0.7319,-0.0392 1.544,-0.0771 1.8046,-0.0841 z m 10.852,4.17865 c -0.037,-0.0961 -0.016,-0.17464 0.046,-0.17464 0.062,0 0.1128,0.0786 0.1128,0.17464 0,0.096 -0.021,0.17464 -0.046,0.17464 -0.025,0 -0.076,-0.0786 -0.1128,-0.17464 z" style="fill:#000000"/><path sodipodi:nodetypes="cccccccc" inkscape:connector-curvature="0" id="path8803-44-0-9" d="m 1069.9202,667.59733 c 1.3583,1.92272 2.0548,4.25911 1.4113,7.43297 -0.81,2.60683 -1.9492,4.78917 -4.8926,6.86846 l -8.7502,-4.23398 1.3173,-4.0458 c 1.9846,-1.04838 2.7308,-1.83602 6.2098,-3.199 1.254,-0.7867 2.4446,-0.81309 3.6585,-1.11863 1.1412,-0.77348 1.0685,-1.23226 1.0459,-1.70402 z" style="fill:url(#radialGradient8811-0-4-5);fill-opacity:1;fill-rule:evenodd;stroke:none;stroke-width:1px;stroke-linecap:butt;stroke-linejoin:miter;stroke-opacity:1"/><path sodipodi:nodetypes="cccccccc" inkscape:connector-curvature="0" id="path8803-4-7-7-8" d="m 1101.3256,665.02604 c -1.3583,1.92273 -2.0548,4.25911 -1.4113,7.43297 0.9479,2.63477 1.9824,4.85291 4.8926,6.86846 l 8.7502,-4.23398 -2.4816,-2.35221 c -1.8888,-0.9856 -3.5932,-2.33996 -5.7629,-2.76385 -1.1804,-0.0318 -2.2338,-1.69057 -3.0696,-2.88145 z" style="fill:url(#radialGradient8811-4-3-7-5);fill-opacity:1;fill-rule:evenodd;stroke:none;stroke-width:1px;stroke-linecap:butt;stroke-linejoin:miter;stroke-opacity:1"/><ellipse ry="15.71275" rx="10.773113" cy="697.24573" cx="1087.8588" id="path8837-8-9-2" style="opacity:1;fill:url(#radialGradient8845-0-3-8);fill-opacity:1;fill-rule:evenodd;stroke:none;stroke-width:3;stroke-linecap:round;stroke-linejoin:round;stroke-miterlimit:4;stroke-dasharray:none;stroke-dashoffset:0;stroke-opacity:1"/><ellipse transform="matrix(0,1,-1,0,0,0)" ry="5.5512118" rx="10.773113" cy="-1063.9363" cx="650.7337" id="path8837-3-5-8-6-69" style="opacity:1;fill:url(#radialGradient8845-9-8-6-6-16);fill-opacity:1;fill-rule:evenodd;stroke:none;stroke-width:3;stroke-linecap:round;stroke-linejoin:round;stroke-miterlimit:4;stroke-dasharray:none;stroke-dashoffset:0;stroke-opacity:1"/><path sodipodi:nodetypes="ccccccccc" inkscape:connector-curvature="0" id="path8641-1-6-6-0" d="m 1084.3679,665.59221 c 4.3815,0.23398 8.3661,-1.29601 11.9492,-4.61033 5.9917,-5.7296 6.3398,-10.07836 6.3866,-13.17236 -0.6026,-5.63278 -4.9288,-6.40509 -7.6098,-7.71524 -7.0194,-10.78001 -10.5111,-10.72461 -14.1132,-11.00834 -7.4563,0.81281 -10.7293,6.18918 -12.7019,12.9842 -4.5625,2.12141 -5.205,5.06978 -5.5731,8.15241 0.2913,5.25657 4.5374,9.07743 8.7721,11.98248 3.904,2.69107 8.1578,2.91109 12.8901,3.38718 z" style="fill:#d53527;fill-opacity:1;fill-rule:evenodd;stroke:none;stroke-width:1px;stroke-linecap:butt;stroke-linejoin:miter;stroke-opacity:1"/><path sodipodi:nodetypes="cccccccc" inkscape:connector-curvature="0" id="path8435-2-7-7-8" d="m 1071.666,650.91443 c 3.3244,-3.57535 3.0265,-8.13864 5.3159,-10.20858 1.7564,-1.5995 6.6646,-1.88177 8.8914,-0.47044 2.6031,1.83473 4.6417,6.06869 7.9975,8.4209 -1.1604,1.63087 -2.2268,3.07356 -3.4813,4.8926 -2.1326,2.0229 -3.0892,2.72856 -8.0916,2.58743 -5.1748,0.31362 -6.2098,0.39203 -7.9034,-1.64655 z" style="fill:#a51c21;fill-opacity:1;fill-rule:evenodd;stroke:#a61d21;stroke-width:0.09314269px;stroke-linecap:butt;stroke-linejoin:miter;stroke-opacity:1"/><ellipse transform="matrix(0.09314269,0,0,0.09314269,918.00535,762.71897)" ry="8.0812206" rx="31.819805" cy="-1411.4795" cx="1752.7689" id="path8437-5-21-1-5" style="opacity:1;fill:#f9d4d2;fill-opacity:1;fill-rule:evenodd;stroke:none;stroke-width:3;stroke-linecap:round;stroke-linejoin:round;stroke-miterlimit:4;stroke-dasharray:none;stroke-dashoffset:0;stroke-opacity:1;filter:url(#filter8503-7-7-07-77)"/><ellipse transform="matrix(0.12572739,0,0,0.08560493,861.56783,754.41293)" ry="8.0812206" rx="31.819805" cy="-1101.9235" cx="1765.7142" id="path8437-5-2-2-7-4" style="opacity:1;fill:url(#radialGradient8927-3-7-4);fill-opacity:1;fill-rule:evenodd;stroke:none;stroke-width:3;stroke-linecap:round;stroke-linejoin:round;stroke-miterlimit:4;stroke-dasharray:none;stroke-dashoffset:0;stroke-opacity:1;filter:url(#filter8503-7-3-7-8-3)"/><path style="fill:url(#linearGradient6265-8);fill-opacity:1;fill-rule:evenodd;stroke:none;stroke-width:1px;stroke-linecap:butt;stroke-linejoin:miter;stroke-opacity:1" d="m 1071.4587,650.64446 c 3.3245,-3.57536 3.0265,-8.13864 5.316,-10.20858 1.7563,-1.5995 6.6646,-1.88177 8.8914,-0.47045 2.6031,1.83473 4.6417,6.06871 7.9975,8.42091 -1.1604,1.63087 -2.2268,3.07355 -3.4813,4.89259 -2.1326,2.0229 -3.0892,2.72856 -8.0916,2.58743 -5.1748,0.31363 -6.2098,0.39204 -7.9034,-1.64655 z" id="path8435-1-89-3" inkscape:connector-curvature="0" sodipodi:nodetypes="cccccccc"/></g></g></svg>