<?xml version="1.0" encoding="UTF-8" standalone="no"?>
<svg xmlns="http://www.w3.org/2000/svg" width="24" height="24"><path d="M11.571 1.696 C 11.171 1.827,10.919 2.042,10.671 2.468 C 10.597 2.595,10.026 3.735,9.403 5.000 C 8.780 6.265,8.259 7.312,8.245 7.327 C 8.231 7.341,7.095 7.517,5.720 7.717 C 4.345 7.918,3.076 8.110,2.900 8.145 C 2.087 8.305,1.596 8.842,1.587 9.580 C 1.583 9.936,1.641 10.133,1.839 10.429 C 1.938 10.577,2.673 11.323,3.808 12.429 C 4.805 13.399,5.688 14.263,5.770 14.349 L 5.921 14.504 5.474 17.082 C 4.959 20.046,4.934 20.316,5.126 20.727 C 5.451 21.420,6.216 21.758,6.920 21.521 C 7.284 21.398,10.987 19.450,11.173 19.283 C 11.685 18.823,11.604 18.041,11.009 17.691 C 10.848 17.596,10.776 17.580,10.520 17.580 L 10.220 17.580 8.707 18.374 C 7.875 18.811,7.187 19.160,7.177 19.151 C 7.168 19.141,7.341 18.082,7.563 16.797 C 8.019 14.152,8.023 14.107,7.804 13.661 C 7.689 13.429,7.498 13.229,5.920 11.693 C 4.954 10.753,4.167 9.979,4.172 9.974 C 4.177 9.970,5.180 9.820,6.401 9.642 C 9.045 9.256,8.999 9.264,9.293 9.109 C 9.703 8.892,9.762 8.796,10.911 6.470 C 11.496 5.288,11.986 4.320,12.000 4.320 C 12.015 4.320,12.500 5.278,13.077 6.449 C 13.655 7.620,14.183 8.649,14.251 8.734 C 14.412 8.938,14.638 9.098,14.898 9.196 C 15.029 9.245,15.993 9.404,17.464 9.620 C 18.759 9.810,19.824 9.971,19.830 9.977 C 19.836 9.983,19.489 10.327,19.058 10.740 C 18.177 11.587,18.072 11.734,18.072 12.122 C 18.072 12.519,18.300 12.877,18.660 13.044 C 18.875 13.144,19.247 13.142,19.470 13.041 C 19.694 12.939,21.943 10.756,22.162 10.427 C 22.359 10.133,22.417 9.935,22.413 9.580 C 22.405 8.900,21.934 8.333,21.240 8.168 C 21.141 8.144,19.872 7.951,18.420 7.739 C 16.968 7.527,15.769 7.341,15.755 7.327 C 15.741 7.312,15.220 6.265,14.597 5.000 C 13.974 3.735,13.402 2.594,13.327 2.464 C 13.124 2.117,12.943 1.936,12.652 1.793 C 12.436 1.687,12.337 1.663,12.066 1.653 C 11.865 1.645,11.675 1.662,11.571 1.696 M16.664 14.063 C 16.436 14.146,16.257 14.297,16.131 14.511 L 16.020 14.700 16.008 15.850 L 15.995 17.000 14.923 17.000 C 13.764 17.000,13.642 17.018,13.374 17.222 C 13.301 17.277,13.192 17.408,13.131 17.511 C 13.036 17.672,13.020 17.744,13.020 18.000 C 13.020 18.256,13.036 18.328,13.131 18.489 C 13.192 18.592,13.301 18.723,13.374 18.778 C 13.642 18.983,13.764 19.000,14.925 19.000 L 16.000 19.000 16.000 20.070 C 16.000 20.684,16.018 21.204,16.042 21.289 C 16.103 21.509,16.315 21.762,16.531 21.874 C 16.932 22.080,17.390 22.012,17.700 21.702 C 17.979 21.423,18.000 21.309,18.000 20.073 L 18.000 19.000 19.073 19.000 C 20.308 19.000,20.423 18.979,20.701 18.701 C 21.092 18.310,21.092 17.690,20.701 17.299 C 20.423 17.021,20.308 17.000,19.073 17.000 L 18.000 17.000 18.000 15.927 C 18.000 14.692,17.979 14.577,17.701 14.299 C 17.429 14.027,17.018 13.933,16.664 14.063" stroke="none" fill-rule="evenodd"/></svg>