<?xml version="1.0" encoding="UTF-8" standalone="no"?>
<svg width="24" height="24" viewBox="0 0 24 24" version="1.1" id="svg1" sodipodi:docname="gen-clock-minus.svg" inkscape:version="1.3.2 (091e20e, 2023-11-25)" xmlns:inkscape="http://www.inkscape.org/namespaces/inkscape" xmlns:sodipodi="http://sodipodi.sourceforge.net/DTD/sodipodi-0.dtd" xmlns="http://www.w3.org/2000/svg" xmlns:svg="http://www.w3.org/2000/svg"><path d="M11.069 1.039 C 8.416 1.297,6.084 2.388,4.236 4.236 C 2.536 5.936,1.489 8.019,1.115 10.444 C 0.987 11.273,0.987 12.727,1.115 13.556 C 1.489 15.981,2.536 18.064,4.236 19.764 C 6.219 21.747,8.781 22.867,11.600 22.984 C 12.281 23.012,13.287 22.950,13.582 22.861 C 13.825 22.788,14.015 22.637,14.149 22.409 C 14.244 22.248,14.260 22.176,14.260 21.920 C 14.260 21.663,14.244 21.593,14.147 21.428 C 14.085 21.323,13.961 21.183,13.871 21.118 C 13.609 20.929,13.461 20.906,12.829 20.962 C 10.135 21.201,7.540 20.262,5.639 18.361 C 4.266 16.988,3.418 15.315,3.094 13.340 C 2.992 12.721,2.992 11.279,3.094 10.660 C 3.418 8.685,4.266 7.012,5.639 5.639 C 7.012 4.266,8.685 3.418,10.660 3.094 C 11.279 2.992,12.721 2.992,13.340 3.094 C 15.315 3.418,16.988 4.266,18.361 5.639 C 19.735 7.012,20.593 8.707,20.904 10.660 C 20.977 11.114,21.001 12.192,20.960 13.100 C 20.942 13.497,20.948 13.556,21.026 13.700 C 21.140 13.909,21.342 14.100,21.536 14.181 C 21.728 14.261,22.105 14.264,22.289 14.187 C 22.481 14.107,22.711 13.895,22.803 13.713 C 22.960 13.406,23.040 12.140,22.962 11.200 C 22.738 8.484,21.655 6.127,19.764 4.236 C 18.069 2.541,15.955 1.477,13.576 1.120 C 12.946 1.026,11.640 0.984,11.069 1.039 M11.667 5.065 C 11.399 5.147,11.145 5.408,11.063 5.684 C 10.970 5.995,10.968 11.998,11.060 12.308 C 11.175 12.696,11.244 12.740,13.400 13.820 C 14.578 14.409,15.439 14.817,15.552 14.838 C 16.145 14.950,16.675 14.538,16.713 13.934 C 16.733 13.618,16.654 13.388,16.456 13.184 C 16.353 13.078,15.874 12.818,14.658 12.210 L 13.000 11.380 13.000 8.637 C 13.000 5.517,13.009 5.615,12.697 5.303 C 12.416 5.022,12.067 4.942,11.667 5.065 M15.667 18.065 C 15.303 18.177,15.000 18.602,15.000 19.000 C 15.000 19.402,15.312 19.827,15.690 19.939 C 15.997 20.030,22.003 20.030,22.310 19.939 C 22.688 19.827,23.000 19.402,23.000 19.000 C 23.000 18.598,22.688 18.173,22.310 18.061 C 22.008 17.971,15.960 17.975,15.667 18.065" stroke="none" fill-rule="evenodd"/></svg>