<?xml version="1.0" encoding="UTF-8" standalone="no"?>
<svg xmlns="http://www.w3.org/2000/svg" width="24" height="24"><path d="M7.339 1.115 C 7.251 1.155,7.117 1.249,7.043 1.323 C 6.501 1.865,6.779 2.837,7.520 2.996 C 7.632 3.020,8.026 3.040,8.396 3.040 L 9.068 3.040 9.309 3.550 C 9.442 3.831,9.539 4.072,9.525 4.087 C 9.490 4.126,6.950 5.523,6.939 5.510 C 6.934 5.505,6.856 5.379,6.766 5.231 L 6.602 4.962 6.771 4.913 C 6.995 4.846,7.326 4.517,7.391 4.295 C 7.557 3.735,7.274 3.177,6.743 3.019 C 6.501 2.947,4.917 2.936,4.600 3.004 C 4.050 3.122,3.702 3.744,3.886 4.284 C 3.912 4.359,4.085 4.672,4.271 4.980 C 4.457 5.288,4.616 5.552,4.625 5.566 C 4.633 5.580,4.572 5.576,4.490 5.557 C 4.407 5.538,4.149 5.521,3.916 5.521 C 3.092 5.519,2.462 5.778,1.876 6.359 C 1.325 6.905,1.054 7.496,1.011 8.241 C 0.962 9.098,1.250 9.853,1.859 10.463 C 2.188 10.792,2.571 11.031,3.020 11.186 C 3.309 11.286,3.394 11.297,3.900 11.298 C 4.374 11.300,4.503 11.286,4.740 11.210 C 5.538 10.954,6.175 10.413,6.520 9.700 C 6.752 9.219,6.815 8.940,6.818 8.367 L 6.820 7.875 8.620 6.881 L 10.420 5.888 10.571 6.185 L 10.722 6.483 10.537 6.743 C 9.407 8.325,10.159 10.579,12.020 11.186 C 12.480 11.337,13.138 11.362,13.593 11.246 C 14.644 10.981,15.432 10.215,15.728 9.172 C 15.841 8.773,15.850 8.108,15.747 7.720 C 15.535 6.919,14.988 6.219,14.281 5.844 C 13.861 5.622,13.582 5.552,13.002 5.525 L 12.465 5.500 11.558 3.613 C 11.059 2.575,10.595 1.655,10.526 1.567 C 10.456 1.480,10.310 1.351,10.201 1.280 C 9.852 1.057,9.736 1.040,8.564 1.041 C 7.620 1.042,7.482 1.050,7.339 1.115 M4.271 7.582 C 4.876 7.835,5.010 8.681,4.512 9.101 C 4.325 9.258,4.155 9.320,3.911 9.319 C 3.638 9.318,3.412 9.213,3.234 9.006 C 2.851 8.558,2.954 7.932,3.460 7.637 C 3.694 7.501,4.024 7.479,4.271 7.582 M13.271 7.582 C 13.876 7.835,14.010 8.681,13.512 9.101 C 13.325 9.258,13.155 9.320,12.911 9.319 C 12.638 9.318,12.412 9.213,12.234 9.006 C 11.851 8.558,11.954 7.932,12.460 7.637 C 12.694 7.501,13.024 7.479,13.271 7.582 M15.672 11.056 C 15.258 11.204,14.725 11.707,14.388 12.269 C 14.000 12.916,13.622 14.073,13.521 14.928 C 13.479 15.284,13.461 15.337,13.296 15.588 C 12.820 16.309,12.380 17.379,11.573 19.780 C 11.033 21.387,10.996 21.515,11.014 21.734 C 11.074 22.469,11.907 22.877,12.535 22.479 C 12.637 22.414,12.772 22.280,12.835 22.182 C 12.898 22.081,13.104 21.528,13.300 20.931 C 14.218 18.129,14.697 16.976,15.184 16.396 C 15.396 16.145,15.492 15.905,15.488 15.641 C 15.482 15.230,15.662 14.210,15.759 14.107 C 15.776 14.089,15.859 14.240,15.945 14.442 C 16.115 14.847,16.320 15.113,16.542 15.218 C 16.621 15.256,16.868 15.312,17.092 15.344 C 17.714 15.431,18.199 15.697,18.387 16.055 C 18.544 16.355,18.734 16.491,19.597 16.919 C 20.060 17.150,20.440 17.348,20.440 17.359 C 20.440 17.371,20.354 17.439,20.249 17.510 C 20.068 17.633,20.040 17.640,19.691 17.640 C 19.190 17.640,18.462 17.539,18.094 17.419 C 17.686 17.286,17.510 17.291,17.202 17.445 C 16.910 17.591,16.752 17.801,16.675 18.147 L 16.627 18.363 16.951 19.332 C 17.331 20.463,17.582 21.399,17.637 21.886 C 17.681 22.278,17.738 22.441,17.902 22.636 C 18.153 22.933,18.699 23.050,19.060 22.885 C 19.269 22.790,19.543 22.488,19.597 22.294 C 19.699 21.924,19.615 21.265,19.338 20.268 C 19.260 19.986,19.186 19.731,19.175 19.702 C 19.159 19.659,19.284 19.645,19.807 19.632 C 20.420 19.617,20.479 19.608,20.762 19.495 C 21.170 19.332,21.472 19.126,21.892 18.723 C 22.301 18.330,22.584 17.962,22.803 17.538 C 22.934 17.285,22.960 17.197,22.960 16.997 C 22.960 16.865,22.932 16.691,22.898 16.609 C 22.767 16.294,22.606 16.186,21.280 15.519 C 20.023 14.887,20.020 14.885,19.829 14.643 C 19.429 14.135,18.703 13.674,18.002 13.482 C 17.839 13.438,17.692 13.387,17.677 13.370 C 17.661 13.354,17.492 12.971,17.300 12.520 C 17.108 12.069,16.905 11.613,16.847 11.506 C 16.631 11.104,16.104 10.902,15.672 11.056" stroke="none" fill-rule="evenodd"/></svg>