<?xml version="1.0" encoding="utf-8"?>\x3c!--Generator: Adobe Illustrator 25.1.0, SVG Export Plug-In . SVG Version: 6.00 Build 0)--\x3e<svg version="1.1" id="Ebene_1" xmlns="http://www.w3.org/2000/svg" xmlns:xlink="http://www.w3.org/1999/xlink" x="0px" y="0px" viewBox="0 0 365 365" style="enable-background:new 0 0 365 365;" xml:space="preserve"><style type="text/css">.st0{fill:#4562A2;} \t.st1{fill:#2C426D;} \t.st2{fill:#FFFFFF;} \t.st3{fill-rule:evenodd;clip-rule:evenodd;fill:#FFFFFF;stroke:#4562A2;stroke-width:1.0801721;stroke-miterlimit:10;}</style><path class="st0" d="M330,365H35c-19.3299675,0-35-15.6700439-35-35V35C0,15.6700335,15.6700335,0,35,0h295 c19.3299561,0,35,15.6700335,35,35v295C365,349.3299561,349.3299561,365,330,365z"/><path class="st1" d="M0,258v72c0,19.3299561,15.6700439,35,35,35h295c19.3299561,0,35-15.6700439,35-35v-72H0z"/><g><path class="st2" d="M39.6743164,297.265625v31.3291016H32.6875V297.265625h-7.9848633v-5.7119141h22.956543v5.7119141H39.6743164z"/><path class="st2" d="M53.590332,328.5947266v-22.4570312h-3.659668v-4.8242188h10.2583008v27.28125H53.590332z M56.5292969,296.5996094c-2.2734375,0-4.1030273-1.7744141-4.1030273-3.9365234c0-2.1630859,1.8295898-3.9375,4.1030273-3.9375 s4.1035156,1.7744141,4.1035156,3.9375C60.6328125,294.8251953,58.8027344,296.5996094,56.5292969,296.5996094z"/><path class="st2" d="M77.987793,329.09375c-9.2045898,0-11.7553711-7.3193359-11.7553711-14.5283203 c0-7.1523438,4.2695312-13.7509766,12.6982422-13.7509766c2.1625977,0,4.3803711,0.2773438,5.8774414,0.8867188 l-1.1640625,4.6582031c-1.3310547-0.5546875-2.7172852-0.6660156-4.3251953-0.6660156 c-4.9350586,0-6.2104492,4.7695312-6.2104492,8.8720703c0,5.3232422,1.3305664,9.6484375,6.7646484,9.6484375 c1.2202148,0,2.7172852-0.2773438,3.8818359-0.9423828l1.1640625,4.8242188 C83.2001953,328.8720703,80.4277344,329.09375,77.987793,329.09375z"/><path class="st2" d="M103.5375977,328.5947266l-7.4301758-13.1972656v13.1972656h-6.5429688v-39.4804688h6.5429688v23.0673828 l7.2084961-10.8681641h7.1533203l-8.4287109,11.921875l8.9829102,15.359375H103.5375977z"/><path class="st2" d="M119.605957,316.5615234c0,4.6582031,2.0517578,7.7636719,6.9868164,7.7636719 c1.9960938,0,4.2695312-0.4990234,6.0439453-1.3310547l1.1088867,4.7128906 c-2.4951172,1.0537109-6.0439453,1.3867188-8.7055664,1.3867188c-8.6503906,0-12.1435547-6.7646484-12.1435547-14.5283203 c0-6.7089844,3.2714844-13.6962891,11.0898438-13.6962891c8.3178711,0.0556641,10.8129883,6.0449219,10.8129883,13.2529297 v2.4394531H119.605957z M123.9863281,305.25c-3.4931641,0-4.3803711,4.2138672-4.3803711,6.9316406h8.7612305 C128.3671875,309.2978516,127.7016602,305.25,123.9863281,305.25z"/><path class="st2" d="M148.4379883,329.09375c-4.546875,0-6.7651367-2.4394531-6.7651367-7.4853516v-15.4707031h-3.8813477 v-4.8242188h3.8813477v-6.1552734l6.5986328-1.8857422v7.9853516h5.2680664v4.8798828h-5.2680664v13.9179688 c0,3.1044922,0.7763672,4.2138672,2.7172852,4.2138672c0.9980469,0,1.5527344,0,2.4951172-0.3330078l0.4438477,4.4921875 C152.4306641,328.9824219,150.7670898,329.09375,148.4379883,329.09375z"/><path class="st2" d="M157.309082,315.2314453v-5.3232422h13.7519531v5.3232422H157.309082z"/><path class="st2" d="M188.4707031,314.0117188h-3.6601562v14.5830078h-7.0419922V291.609375h11.3125 c6.9306641,0,11.6992188,4.1582031,11.6992188,11.1455078 C200.7802734,309.6308594,195.8457031,314.0117188,188.4707031,314.0117188z M188.0830078,297.1542969h-3.3271484v11.3671875 H187.75c3.7148438,0,5.8222656-1.8847656,5.8222656-5.7666016 C193.5722656,299.3164062,191.6865234,297.1542969,188.0830078,297.1542969z"/><path class="st2" d="M218.8994141,328.5947266l-0.4990234-3.2158203c-1.5527344,2.3837891-3.8261719,3.7148438-6.8759766,3.7148438 c-5.3232422,0-8.0400391-3.1054688-8.0400391-8.1513672c0-5.6552734,4.2695312-8.7050781,10.4804688-8.7050781 c1.9404297,0,3.2158203,0.2763672,4.2138672,0.4433594v-3.0498047c0-2.828125-1.71875-4.1035156-4.6025391-4.1035156 c-1.9960938,0-4.6025391,0.4433594-6.4873047,1.4414062l-1.109375-4.6025391 c2.6621094-1.2197266,6.0439453-1.5517578,8.9277344-1.5517578c6.3769531,0,9.6484375,2.9941406,9.6484375,7.7626953v14.9716797 c0,1.6630859,0.2773438,3.3828125,0.4990234,5.0458984H218.8994141z M218.1787109,316.5615234 c-0.7207031-0.2763672-1.9404297-0.4990234-3.5488281-0.4990234c-3.1054688,0-4.4912109,2.1630859-4.4912109,4.546875 c0,2.3291016,0.9980469,4.0488281,3.4375,4.0488281c2.4951172,0,4.6025391-1.8300781,4.6025391-4.2705078V316.5615234z"/><path class="st2" d="M245.2373047,306.96875c-0.6103516-0.1660156-1.2197266-0.2773438-1.8300781-0.2773438 c-3.9365234,0-4.8242188,3.5488281-4.8242188,6.9873047v14.9160156h-6.5986328v-27.28125h5.9882812l0.4990234,3.6035156 c1.7197266-2.8828125,3.7158203-4.1025391,6.5986328-4.1025391c0.4990234,0,1.5527344,0.1103516,2.0517578,0.3320312 L245.2373047,306.96875z"/><path class="st2" d="M259.3759766,329.09375c-4.546875,0-6.765625-2.4394531-6.765625-7.4853516v-15.4707031h-3.8808594v-4.8242188 h3.8808594v-6.1552734l6.5986328-1.8857422v7.9853516h5.2685547v4.8798828h-5.2685547v13.9179688 c0,3.1044922,0.7763672,4.2138672,2.7177734,4.2138672c0.9980469,0,1.5527344,0,2.4951172-0.3330078l0.4433594,4.4921875 C263.3681641,328.9824219,261.7050781,329.09375,259.3759766,329.09375z"/><path class="st2" d="M284.6601562,328.5947266v-18.5761719c0-2.4394531-1.0537109-4.4912109-3.8818359-4.4912109 c-3.2714844,0-4.4912109,3.2714844-4.4912109,5.9882812v17.0791016h-6.5986328v-27.28125h5.8222656l0.4990234,3.6591797 c1.1650391-2.4951172,3.8818359-4.1582031,7.375-4.1582031c5.4345703,0,7.8740234,3.8808594,7.8740234,8.6494141v19.1308594 H284.6601562z"/><path class="st2" d="M303.8447266,316.5615234c0,4.6582031,2.0517578,7.7636719,6.9863281,7.7636719 c1.9960938,0,4.2695312-0.4990234,6.0439453-1.3310547l1.109375,4.7128906 c-2.4951172,1.0537109-6.0439453,1.3867188-8.7060547,1.3867188c-8.6503906,0-12.1435547-6.7646484-12.1435547-14.5283203 c0-6.7089844,3.2714844-13.6962891,11.0898438-13.6962891c8.3183594,0.0556641,10.8134766,6.0449219,10.8134766,13.2529297 v2.4394531H303.8447266z M308.2246094,305.25c-3.4931641,0-4.3798828,4.2138672-4.3798828,6.9316406h8.7607422 C312.6054688,309.2978516,311.9404297,305.25,308.2246094,305.25z"/><path class="st2" d="M338,306.96875c-0.6103516-0.1660156-1.2197266-0.2773438-1.8300781-0.2773438 c-3.9365234,0-4.8242188,3.5488281-4.8242188,6.9873047v14.9160156h-6.5986328v-27.28125h5.9882812l0.4990234,3.6035156 c1.7197266-2.8828125,3.7158203-4.1025391,6.5986328-4.1025391c0.4990234,0,1.5527344,0.1103516,2.0517578,0.3320312L338,306.96875 z"/></g><g><path class="st3" d="M242.6927338,86.9887314h-80.1800537v135.2149963h80.1800537V86.9887314L242.6927338,86.9887314z M153.0756989,209.1710052l-65.732132-17.2294312L127.1904297,43l95.7536621,25.7101288l-2.327774,8.7101135h31.6062164 v154.2042389h-99.1468353V209.1710052L153.0756989,209.1710052L153.0756989,209.1710052z M98.9063263,185.3023834 L98.9063263,185.3023834l34.9400787-130.598053l77.4420471,20.7927094l-0.5298462,1.994278h-17.8690643L138.578598,63.4967003 l-2.4536591,9.1723137l19.8744659,4.8222961h-2.9673462v6.1775436l-18.5740509-4.7540207l-2.4587097,9.1723099 l21.0327606,5.4126282v72.0921021l-9.9892883-2.731781l-2.4586334,9.1689606l12.4479218,3.3881378v6.4590149l-14.0600891-3.8195648 l-2.4480743,9.1745453l16.5081635,4.4809723l0.0436401,7.6502991L98.9063263,185.3023834L98.9063263,185.3023834z M198.5069733,204.8159332h37.9068604v9.4974213h-37.9068604V204.8159332L198.5069733,204.8159332L198.5069733,204.8159332z M168.9006195,93.6391068h67.5132141v9.4968567l-67.5132141-0.0027924V93.6391068L168.9006195,93.6391068L168.9006195,93.6391068z M168.9006195,109.606163h67.5132141v9.4918289h-67.5132141V109.606163L168.9006195,109.606163L168.9006195,109.606163z M198.5069733,189.0783081h37.9068604v9.4974213h-37.9068604V189.0783081L198.5069733,189.0783081z"/></g></svg>