<?xml version="1.0" encoding="UTF-8" standalone="no"?>
<svg version="1.1" id="Ebene_1" xmlns="http://www.w3.org/2000/svg" xmlns:xlink="http://www.w3.org/1999/xlink" x="0px" y="0px" width="309.7px" height="78.5px" viewBox="0 0 309.7 78.5" enable-background="new 0 0 309.7 78.5" xml:space="preserve"><g><path fill="#4562A2" d="M82.3,0.7c-10.7,2.9-37,11-37,19.9c0,14.9,29.6,22.3,41.3,24.2L53.1,78.5c0,0-5.3-2.1-8.5-3.6 C26.5,66.8,0,51,0,34C0,10.1,66.7,1.5,84.9,0C84.9,0,82.8,0.5,82.3,0.7z"/><polygon fill="#4562A2" points="171.5,44.5 191.2,44.5 191.2,2.3 171.9,2.3 152.4,22.7 152.4,2.3 131.7,2.3 90,44.5 115.8,44.5 134,23.7 134,44.5 152,44.5 171.5,23.5"/><polygon fill="#4562A2" points="260.2,2.3 236.1,2.3 219,28.3 219,2.3 200,2.3 200,44.5 226.6,44.5"/><path fill="#4562A2" d="M309.7,14.7V2.3h-14.5c-8.1,0-19.9,1.8-26.8,5.4c-6.9,3.6-12.8,8.9-16.7,15.9c-2,3.6-3.6,8.1-3.6,11.9 c0,6,4.3,9,11.2,9h50.4V21.9h-19.1v10.9h-16.6c-2.5,0-3.9-0.8-3.9-2.8c0-1.2,0.2-2.1,0.6-3.3c2.3-6.7,10.9-12,22-12H309.7z"/></g></svg>