<?xml version="1.0" standalone="no"?><!DOCTYPE svg PUBLIC "-//W3C//DTD SVG 20010904//EN"  "http://www.w3.org/TR/2001/REC-SVG-20010904/DTD/svg10.dtd"><svg version="1.0" xmlns="http://www.w3.org/2000/svg" width="300.000000pt" height="387.000000pt" viewBox="0 0 300.000000 387.000000" preserveAspectRatio="xMidYMid meet"><g transform="translate(0.000000,387.000000) scale(0.100000,-0.100000)" fill="#000000" stroke="none"><path d="M1720 3843 c-110 -18 -170 -66 -170 -134 0 -32 -7 -46 -36 -76 -71 -70 -80 -159 -23 -215 24 -24 35 -28 86 -28 48 0 63 4 88 26 37 32 56 40 122 49 29 4 57 13 63 20 6 7 16 37 22 67 11 50 10 58 -10 90 -14 23 -22 52 -22 81 0 64 -13 91 -53 110 -19 10 -37 16 -39 16 -1 -1 -14 -4 -28 -6z m53 -34 c32 -17 37 -29 35 -80 -1 -33 5 -58 21 -85 18 -30 21 -47 17 -77 -11 -64 -22 -77 -67 -77 -44 0 -97 -19 -136 -50 -34 -26 -113 -28 -135 -2 -44 50 -34 115 27 174 39 37 45 49 45 84 0 55 23 81 90 104 65 23 75 24 103 9z"/><path d="M2317 3632 c-26 -29 -62 -35 -117 -21 -58 15 -97 2 -136 -45 -25 -29 -26 -35 -21 -115 4 -68 1 -95 -13 -131 -26 -66 -15 -107 35 -141 73 -50 148 -61 225 -34 23 8 59 15 79 15 43 0 75 20 135 82 54 57 70 102 71 198 0 63 -4 80 -23 107 -59 84 -193 132 -235 85z m150 -45 c57 -41 83 -84 83 -140 0 -72 -18 -134 -41 -140 -11 -3 -26 -21 -34 -40 -18 -44 -63 -77 -104 -77 -18 0 -58 -9 -89 -19 -64 -22 -94 -19 -174 17 -67 29 -76 54 -50 131 18 52 19 70 11 120 -11 69 -2 99 37 130 29 22 59 26 96 12 34 -13 111 2 135 26 18 18 27 20 58 13 21 -5 53 -19 72 -33z"/><path d="M2522 3107 c-40 -23 -75 -87 -80 -144 -4 -48 -8 -56 -48 -88 -55 -46 -71 -95 -53 -165 12 -48 12 -50 -23 -107 -40 -65 -63 -128 -59 -157 4 -28 52 -96 67 -96 19 0 18 39 0 46 -8 3 -22 17 -31 30 -14 22 -14 28 0 72 9 26 26 61 38 77 47 63 52 81 38 135 -18 71 -8 102 50 151 45 38 49 44 49 86 0 57 32 116 74 135 53 24 108 5 183 -65 35 -34 71 -74 80 -91 22 -43 53 -76 74 -76 9 0 29 -14 43 -31 22 -26 26 -40 26 -97 0 -89 -24 -129 -125 -209 -44 -35 -104 -87 -133 -115 l-53 -52 -247 -4 c-282 -5 -312 -11 -312 -62 0 -38 16 -70 34 -70 16 0 51 -81 71 -160 7 -30 24 -95 38 -145 13 -49 30 -115 37 -145 7 -30 15 -60 17 -67 3 -7 -7 -13 -24 -15 -26 -3 -28 -7 -33 -53 l-5 -50 -40 2 c-22 1 -140 5 -262 9 l-223 7 0 24 c0 13 6 39 14 58 8 18 22 71 31 117 10 46 24 99 32 118 8 19 25 89 38 155 14 66 36 170 49 230 14 61 30 133 36 160 6 28 15 58 20 67 6 10 10 25 10 33 0 12 17 15 93 15 50 0 99 -5 107 -10 12 -7 28 5 73 53 75 80 89 108 95 188 4 62 3 68 -24 98 -50 56 -124 62 -1179 92 -427 12 -917 8 -985 -8 -29 -7 -55 -22 -73 -43 -28 -31 -29 -35 -25 -119 2 -49 10 -99 18 -116 17 -33 94 -80 148 -91 22 -4 33 -13 36 -28 16 -81 48 -292 61 -401 9 -71 20 -150 25 -175 41 -194 89 -554 100 -740 5 -91 12 -177 16 -193 6 -24 4 -27 -19 -27 -29 0 -58 -24 -52 -43 2 -7 9 -32 15 -55 8 -31 15 -42 25 -38 27 10 27 -15 1 -77 -34 -82 -70 -233 -69 -292 0 -62 46 -95 137 -98 40 -2 45 -5 50 -31 3 -16 6 -44 6 -63 0 -47 50 -141 103 -194 100 -98 259 -147 373 -114 113 33 208 93 248 159 10 17 22 33 27 36 19 13 39 84 39 141 0 54 2 60 17 55 9 -4 67 -10 129 -13 l111 -6 5 -62 c10 -122 93 -232 223 -296 65 -32 177 -53 223 -43 92 20 216 86 254 134 60 77 69 91 83 131 8 23 15 57 15 75 l0 34 88 0 c197 0 274 55 257 185 -4 32 -18 86 -31 121 -19 52 -21 64 -9 64 29 0 139 143 160 209 6 20 13 22 53 19 l46 -3 23 65 c24 70 29 155 13 230 -18 80 -27 90 -82 90 -26 0 -48 1 -48 3 0 17 -52 141 -71 169 l-24 37 -75 -2 -75 -2 -3 58 c-3 53 -5 57 -23 52 -17 -6 -19 -4 -10 12 12 21 52 150 76 243 9 36 23 79 31 95 8 17 21 55 29 85 8 30 22 60 31 65 41 25 55 43 61 78 6 42 -15 77 -48 77 -24 0 -31 14 -16 32 7 9 57 52 112 95 55 44 107 89 117 99 34 39 50 101 46 174 -4 78 -21 104 -88 138 -21 10 -44 34 -59 60 -27 50 -112 136 -155 159 -40 21 -126 27 -154 10z m-1397 -148 c1007 -27 1081 -32 1116 -77 24 -31 26 -110 3 -155 -9 -18 -30 -45 -45 -61 -16 -17 -29 -33 -29 -38 0 -4 -10 -12 -21 -19 -33 -17 -395 -11 -659 11 -221 18 -863 29 -1185 21 -129 -4 -131 -3 -192 27 -55 28 -62 36 -77 78 -24 70 -21 137 7 169 22 25 93 50 167 57 51 5 502 -1 915 -13z m389 -370 c126 -10 262 -19 304 -19 55 0 73 -3 70 -12 -13 -35 -65 -266 -103 -458 -9 -47 -27 -119 -40 -160 -13 -41 -29 -104 -36 -140 -6 -36 -20 -87 -30 -113 -11 -26 -19 -57 -19 -67 0 -17 -7 -20 -51 -20 -42 0 -50 -3 -45 -16 3 -9 -5 -29 -19 -48 -57 -75 -100 -267 -93 -421 l5 -101 -86 3 c-47 1 -239 5 -426 8 -187 3 -377 8 -422 11 l-82 6 -10 67 c-5 36 -12 124 -16 195 -5 121 -45 424 -81 616 -16 87 -35 220 -54 370 -6 47 -20 134 -31 193 -12 60 -19 109 -17 110 1 1 12 8 23 15 32 20 962 6 1259 -19z m1200 -279 c40 -15 34 -68 -9 -84 -32 -12 -524 -8 -562 5 -27 9 -33 16 -33 40 0 16 1 30 3 31 2 1 305 11 494 16 45 1 93 -2 107 -8z m-54 -132 c0 -18 -25 -96 -43 -138 -8 -19 -23 -64 -32 -100 -9 -36 -29 -105 -45 -154 -17 -48 -27 -92 -24 -97 3 -5 -44 -9 -110 -9 -97 0 -114 2 -110 15 10 25 -74 353 -123 483 -4 9 48 12 241 12 190 0 246 -3 246 -12z m-202 -524 l92 -7 0 -38 0 -39 -150 0 -150 0 0 45 0 45 58 0 c33 0 100 -3 150 -6z m-805 -96 c3 -9 8 -10 15 -3 10 9 293 5 572 -8 52 -3 158 -5 235 -6 l140 -1 28 -65 c49 -116 62 -179 62 -320 0 -90 -4 -141 -14 -165 -25 -60 -85 -160 -98 -160 -7 0 -16 -7 -21 -16 -8 -15 -40 -16 -308 -11 -164 3 -346 10 -404 16 -58 6 -143 11 -190 12 l-85 3 -36 55 c-21 31 -44 80 -53 110 -36 122 -10 371 51 486 35 67 93 107 106 73z m1074 -35 c39 -59 92 -240 100 -335 4 -52 0 -84 -17 -140 -34 -115 -110 -233 -162 -251 -30 -11 -28 8 9 69 59 97 73 141 80 238 9 135 -27 317 -78 402 -21 35 -17 44 22 44 20 0 34 -8 46 -27z m192 -233 c16 -74 13 -178 -7 -230 -15 -39 -21 -45 -42 -42 -14 2 -26 5 -27 6 -1 1 3 42 9 92 9 76 8 98 -6 146 -22 76 -21 78 23 78 39 0 39 0 50 -50z m-2264 -289 c61 -4 260 -9 444 -10 314 -2 381 -7 381 -30 0 -5 3 -17 6 -25 6 -15 -29 -16 -397 -11 -479 6 -697 14 -705 26 -3 6 -9 23 -14 40 l-9 30 92 -6 c51 -4 142 -10 202 -14z m230 -101 c83 0 259 -3 393 -7 l243 -6 19 -36 c32 -60 37 -66 52 -55 14 11 209 4 438 -15 69 -6 230 -11 358 -11 224 0 232 -1 232 -20 0 -10 9 -43 21 -71 11 -29 23 -80 26 -113 7 -78 -14 -109 -90 -131 -53 -15 -206 -23 -225 -11 -6 3 -14 21 -18 38 -15 69 -54 143 -89 167 -19 13 -35 27 -35 31 0 11 -74 46 -135 65 -28 8 -84 18 -126 21 -63 6 -87 3 -140 -15 -35 -11 -78 -30 -95 -40 -42 -25 -122 -131 -144 -189 l-18 -47 -82 -3 c-96 -3 -190 13 -190 33 0 7 -13 42 -28 77 -32 69 -82 118 -163 156 -55 27 -166 52 -230 52 -53 0 -178 -40 -216 -70 -38 -29 -111 -132 -126 -176 -18 -50 -34 -58 -92 -50 -60 9 -99 45 -92 84 20 114 42 199 70 271 l32 83 150 -6 c83 -4 218 -6 300 -6z m140 -186 c69 -23 125 -63 144 -101 9 -18 22 -33 28 -33 19 0 49 -68 62 -141 14 -74 3 -138 -29 -174 -10 -11 -24 -32 -31 -46 -46 -86 -222 -168 -337 -156 -31 3 -84 20 -126 40 -117 56 -188 143 -208 257 -15 90 1 152 62 235 56 77 73 91 155 122 51 20 73 23 145 18 47 -2 108 -12 135 -21z m985 -5 c111 -17 205 -73 225 -131 4 -10 12 -18 19 -18 21 0 56 -93 63 -164 8 -92 -6 -129 -91 -232 -36 -43 -175 -112 -243 -120 -99 -12 -248 49 -321 132 -56 63 -82 128 -82 204 0 84 12 120 65 195 57 80 73 93 147 121 70 26 122 29 218 13z"/><path d="M571 2392 c-7 -5 -22 -7 -33 -4 -25 6 -26 8 38 -313 31 -154 36 -215 17 -215 -7 0 -13 -7 -13 -15 0 -12 21 -15 118 -17 64 -1 176 -2 247 -4 346 -5 440 -9 447 -18 14 -21 27 11 52 134 48 236 76 357 90 391 4 9 -1 22 -13 33 -23 21 -18 21 -571 31 -223 4 -370 3 -379 -3z m741 -31 c103 -4 190 -10 193 -12 2 -3 -4 -34 -14 -70 -11 -35 -25 -91 -32 -124 -6 -33 -17 -85 -24 -115 -7 -30 -19 -90 -26 -132 -7 -42 -16 -75 -20 -72 -4 2 -99 6 -210 9 -398 10 -530 17 -534 29 -7 26 -36 171 -60 301 -15 77 -28 147 -31 156 -3 9 5 20 18 27 27 13 454 14 740 3z"/><path d="M817 511 c-79 -52 -98 -136 -47 -213 36 -55 73 -72 139 -66 53 5 103 39 135 90 20 33 20 53 -1 104 -33 80 -161 128 -226 85z m122 -29 c3 -5 15 -11 25 -13 26 -5 55 -47 62 -90 5 -31 2 -39 -32 -72 -72 -70 -133 -70 -194 0 -49 55 -34 142 32 180 25 14 97 11 107 -5z"/><path d="M1875 494 c-35 -18 -73 -71 -82 -114 -9 -46 37 -132 82 -153 56 -27 115 -22 162 12 74 54 89 100 58 175 -30 71 -151 116 -220 80z m132 -39 c54 -26 73 -56 73 -110 0 -27 -8 -40 -40 -68 -23 -19 -54 -37 -71 -41 -62 -12 -132 41 -145 109 -11 59 49 135 107 135 15 0 49 -11 76 -25z"/></g></svg>