<?xml version="1.0" encoding="UTF-8" standalone="no"?>
<svg xmlns="http://www.w3.org/2000/svg" width="24" height="24"><path d="M6.640 3.068 C 6.486 3.121,6.152 3.437,4.329 5.255 C 2.930 6.649,2.171 7.435,2.121 7.540 C 2.000 7.790,1.982 7.999,2.060 8.265 C 2.151 8.581,2.410 8.844,2.717 8.936 C 2.988 9.016,3.052 9.016,3.323 8.936 C 3.528 8.876,3.609 8.804,4.770 7.648 L 6.000 6.423 6.000 13.281 C 6.000 17.883,6.014 20.189,6.042 20.289 C 6.103 20.509,6.315 20.762,6.531 20.874 C 6.932 21.080,7.390 21.012,7.700 20.702 C 8.025 20.377,8.000 20.991,8.000 13.284 L 8.000 6.423 9.230 7.648 C 10.391 8.804,10.472 8.876,10.677 8.936 C 10.948 9.016,11.012 9.016,11.283 8.936 C 11.590 8.844,11.849 8.581,11.940 8.265 C 12.018 7.999,12.000 7.790,11.879 7.540 C 11.829 7.435,11.070 6.650,9.671 5.255 C 7.747 3.336,7.521 3.124,7.343 3.065 C 7.102 2.986,6.878 2.986,6.640 3.068 M16.664 3.063 C 16.436 3.146,16.257 3.297,16.131 3.511 L 16.020 3.700 16.010 10.639 L 15.999 17.577 14.810 16.393 C 14.021 15.608,13.560 15.178,13.442 15.119 C 13.195 14.996,12.840 14.994,12.590 15.115 C 12.081 15.362,11.875 15.951,12.121 16.460 C 12.171 16.565,12.930 17.350,14.329 18.745 C 16.253 20.664,16.479 20.876,16.657 20.935 C 16.766 20.971,16.920 21.000,17.000 21.000 C 17.080 21.000,17.234 20.971,17.343 20.935 C 17.521 20.876,17.747 20.664,19.671 18.745 C 21.070 17.350,21.829 16.565,21.879 16.460 C 22.125 15.951,21.919 15.362,21.410 15.115 C 21.160 14.994,20.805 14.996,20.558 15.119 C 20.439 15.178,19.985 15.602,19.190 16.393 L 18.000 17.579 18.000 10.717 C 18.000 3.011,18.025 3.623,17.701 3.299 C 17.429 3.027,17.018 2.933,16.664 3.063" stroke="none" fill-rule="evenodd"/></svg>