<?xml version="1.0" encoding="UTF-8" standalone="no"?>
<svg xmlns="http://www.w3.org/2000/svg" width="24" height="24"><path d="M10.380 2.453 C 9.890 2.578,9.405 2.993,9.238 3.429 C 8.848 4.446,9.460 5.510,10.539 5.689 C 11.213 5.800,11.965 5.385,12.272 4.730 C 12.369 4.524,12.380 4.454,12.380 4.059 C 12.380 3.644,12.372 3.603,12.252 3.359 C 11.986 2.819,11.460 2.459,10.880 2.421 C 10.701 2.410,10.499 2.422,10.380 2.453 M9.528 6.340 C 9.258 6.416,9.428 6.319,7.402 7.548 C 6.382 8.167,5.599 8.669,5.513 8.758 C 5.246 9.035,5.245 9.073,5.477 10.659 C 5.661 11.922,5.692 12.077,5.791 12.237 C 6.065 12.681,6.714 12.729,7.087 12.334 C 7.321 12.086,7.326 11.968,7.153 10.760 C 7.037 9.946,7.030 9.849,7.083 9.740 C 7.127 9.648,7.285 9.539,7.759 9.272 C 8.099 9.080,8.380 8.927,8.385 8.932 C 8.390 8.936,8.326 10.296,8.242 11.954 L 8.091 14.968 7.916 15.140 C 7.819 15.235,7.327 15.693,6.823 16.157 L 5.906 17.000 4.803 17.001 C 3.604 17.001,3.352 17.031,2.880 17.226 C 1.984 17.595,1.351 18.329,1.074 19.320 C 0.998 19.593,1.010 20.407,1.095 20.720 C 1.383 21.779,2.204 22.586,3.300 22.888 C 3.605 22.972,3.696 22.976,5.220 22.976 C 6.573 22.977,6.878 22.966,7.198 22.907 C 8.122 22.737,9.051 22.290,9.720 21.695 C 9.841 21.588,11.770 19.813,14.008 17.750 L 18.077 14.000 19.128 13.999 C 20.294 13.997,20.594 13.962,21.087 13.770 C 21.967 13.428,22.625 12.698,22.888 11.772 C 23.012 11.334,23.012 10.666,22.888 10.228 C 22.554 9.054,21.593 8.218,20.373 8.039 C 19.863 7.965,17.070 8.009,16.680 8.098 C 15.868 8.282,15.182 8.596,14.550 9.072 L 14.160 9.365 13.776 9.183 C 13.074 8.851,12.780 8.588,11.751 7.373 C 11.188 6.709,10.979 6.526,10.624 6.389 C 10.352 6.285,9.811 6.260,9.528 6.340 M11.933 10.033 C 12.061 10.130,12.311 10.293,12.488 10.395 C 12.666 10.497,12.804 10.599,12.796 10.620 C 12.782 10.658,11.507 11.845,11.499 11.828 C 11.497 11.824,11.517 11.415,11.544 10.920 C 11.572 10.425,11.595 9.969,11.597 9.908 C 11.600 9.779,11.596 9.777,11.933 10.033 M20.420 10.107 C 20.768 10.295,21.000 10.653,21.000 11.000 C 21.000 11.347,20.768 11.705,20.420 11.893 C 20.265 11.977,20.210 11.980,18.777 11.992 L 17.294 12.004 12.977 15.987 C 10.603 18.178,8.528 20.084,8.367 20.222 C 8.034 20.509,7.568 20.754,7.100 20.888 C 6.792 20.977,6.724 20.980,5.280 20.980 C 3.935 20.980,3.765 20.973,3.631 20.910 C 2.827 20.532,2.791 19.491,3.569 19.103 L 3.776 19.000 5.227 19.000 L 6.677 19.000 6.954 18.750 C 7.105 18.613,9.132 16.745,11.456 14.600 C 13.966 12.284,15.798 10.624,15.966 10.512 C 16.266 10.313,16.794 10.101,17.135 10.043 C 17.248 10.023,17.997 10.010,18.800 10.014 C 20.215 10.020,20.265 10.023,20.420 10.107" stroke="none" fill-rule="evenodd"/></svg>