<?xml version="1.0" encoding="UTF-8" standalone="no"?>
<svg version="1.1" id="Ebene_1" xmlns="http://www.w3.org/2000/svg" xmlns:xlink="http://www.w3.org/1999/xlink" x="0px" y="0px" viewBox="0 0 369.603 317.48" enable-background="new 0 0 369.603 317.48" xml:space="preserve"><g><polygon fill-rule="evenodd" clip-rule="evenodd" fill="#FFFFFF" points="93.153,317.48 1.504,158.74 93.153,0 276.45,0 368.099,158.74 276.45,317.48"/><polygon fill-rule="evenodd" clip-rule="evenodd" fill="#96368B" stroke="#96368B" points="98.367,308.453 11.929,158.74 98.367,9.026 271.236,9.026 357.672,158.74 271.236,308.453"/><path fill="#FFFFFF" d="M134.233,166.611c0,5.558-1.067,10.291-3.2,14.213c-2.133,3.918-4.986,7.119-8.558,9.597 c-3.572,2.481-7.641,4.318-12.204,5.51c-4.564,1.19-9.276,1.788-14.141,1.788c-4.365,0-8.729-0.154-13.095-0.449 c-4.365-0.296-8.633-1.089-12.801-2.38l0.3-17.562c2.877,1.388,6.075,2.406,9.599,3.051c3.522,0.645,6.871,0.965,10.047,0.965 c2.281,0,4.562-0.175,6.845-0.519c2.282-0.348,4.317-1.019,6.101-2.01c1.786-0.992,3.251-2.38,4.392-4.168 c1.141-1.785,1.712-4.069,1.712-6.847c0-3.47-0.968-6.125-2.902-7.963c-1.934-1.833-4.34-3.423-7.219-4.761 c-2.876-1.338-6.002-2.581-9.375-3.722c-3.374-1.138-6.498-2.728-9.377-4.762c-2.876-2.035-5.283-4.71-7.219-8.035 c-1.934-3.325-2.903-7.814-2.903-13.472c0-5.058,1.017-9.45,3.052-13.169c2.034-3.724,4.712-6.822,8.038-9.302 c3.323-2.483,7.145-4.342,11.459-5.582c4.317-1.243,8.757-1.859,13.322-1.859c4.266,0,8.456,0.244,12.575,0.745 c4.117,0.495,8.261,1.287,12.428,2.381l-4.316,16.964c-2.779-1.188-5.657-2.056-8.632-2.603c-2.977-0.547-6.005-0.82-9.08-0.82 c-1.983,0-3.871,0.175-5.655,0.521c-1.786,0.347-3.349,0.944-4.689,1.787c-1.34,0.842-2.406,2.008-3.199,3.496 c-0.795,1.492-1.19,3.377-1.19,5.659c0,3.172,0.992,5.655,2.975,7.44c1.985,1.787,4.44,3.348,7.368,4.686 c2.925,1.342,6.127,2.68,9.599,4.021c3.473,1.338,6.672,3.073,9.6,5.21c2.926,2.133,5.383,4.936,7.367,8.407 C133.24,156.538,134.233,161.054,134.233,166.611L134.233,166.611z"/><polygon fill="#FFFFFF" points="152.689,196.078 152.689,96.807 210.729,96.807 210.729,113.776 176.65,113.776 176.65,136.547 208.054,136.547 208.054,153.216 176.65,153.216 176.65,178.964 212.517,178.964 212.517,196.078 152.689,196.078"/><polygon fill="#FFFFFF" points="277.557,196.078 248.085,196.078 220.107,96.807 245.409,96.807 263.267,176.582 281.131,96.807 305.536,96.807 277.557,196.078"/><path fill="#FFFFFF" d="M77.762,216.906c0,0.931-0.177,1.73-0.53,2.403c-0.354,0.674-0.828,1.227-1.422,1.668 c-0.596,0.44-1.277,0.763-2.044,0.972c-0.768,0.207-1.565,0.309-2.391,0.309c-0.656,0-1.304-0.033-1.941-0.102 c-0.636-0.07-1.258-0.201-1.861-0.392l0.052-2.612c0.499,0.243,1.034,0.415,1.603,0.521c0.569,0.101,1.131,0.154,1.681,0.154 c0.448,0,0.88-0.038,1.292-0.114c0.415-0.08,0.786-0.223,1.114-0.43c0.327-0.209,0.585-0.481,0.775-0.828 c0.191-0.343,0.284-0.783,0.284-1.315c0-0.656-0.168-1.162-0.502-1.519c-0.337-0.352-0.755-0.645-1.255-0.878 c-0.501-0.231-1.048-0.45-1.642-0.659c-0.597-0.204-1.144-0.485-1.642-0.838c-0.5-0.354-0.919-0.824-1.255-1.412 c-0.337-0.588-0.504-1.378-0.504-2.382c0-0.878,0.167-1.632,0.504-2.263c0.336-0.628,0.785-1.144,1.344-1.549 c0.562-0.405,1.203-0.707,1.927-0.904c0.725-0.201,1.484-0.299,2.276-0.299c0.622,0,1.234,0.043,1.835,0.127 c0.605,0.089,1.207,0.208,1.812,0.366l-0.646,2.506c-0.449-0.188-0.906-0.328-1.371-0.411c-0.464-0.089-0.95-0.131-1.449-0.131 c-0.414,0-0.803,0.029-1.164,0.091c-0.361,0.058-0.672,0.175-0.931,0.352c-0.258,0.17-0.464,0.406-0.62,0.71 c-0.155,0.299-0.233,0.692-0.233,1.177c0,0.639,0.171,1.132,0.518,1.484c0.344,0.357,0.771,0.652,1.28,0.895 c0.507,0.24,1.06,0.469,1.654,0.684c0.594,0.216,1.147,0.507,1.655,0.869c0.509,0.36,0.936,0.83,1.279,1.407 C77.59,215.139,77.762,215.921,77.762,216.906L77.762,216.906z"/><path fill="#FFFFFF" d="M88.754,221.74c-0.395,0.189-0.891,0.318-1.485,0.375c-0.594,0.062-1.178,0.092-1.747,0.092 c-1.068,0-1.957-0.192-2.663-0.583c-0.707-0.387-1.269-0.901-1.683-1.539c-0.414-0.639-0.708-1.363-0.879-2.173 c-0.172-0.809-0.258-1.638-0.258-2.481c0-0.829,0.123-1.631,0.373-2.403c0.252-0.778,0.622-1.466,1.114-2.06 c0.49-0.597,1.108-1.069,1.849-1.422c0.742-0.355,1.603-0.531,2.586-0.531c0.5,0,0.996,0.034,1.488,0.104 c0.491,0.068,0.91,0.175,1.254,0.314l-0.543,2.171c-0.31-0.138-0.628-0.224-0.957-0.26c-0.328-0.034-0.682-0.052-1.061-0.052 c-0.569,0-1.043,0.124-1.422,0.377c-0.38,0.246-0.677,0.571-0.894,0.97c-0.215,0.396-0.366,0.841-0.451,1.33 c-0.086,0.491-0.13,0.981-0.13,1.463c0,0.622,0.049,1.203,0.142,1.745c0.096,0.542,0.26,1.021,0.492,1.437 c0.233,0.414,0.552,0.736,0.957,0.97s0.926,0.35,1.564,0.35c0.294,0,0.6-0.036,0.919-0.105c0.32-0.07,0.616-0.184,0.894-0.337 L88.754,221.74L88.754,221.74z"/><path fill="#FFFFFF" d="M97.936,221.973v-8.662c0-0.569-0.14-1.058-0.426-1.466c-0.285-0.405-0.762-0.605-1.435-0.605 c-0.379,0-0.704,0.088-0.97,0.26c-0.267,0.171-0.483,0.39-0.647,0.659c-0.164,0.266-0.28,0.564-0.348,0.89 c-0.069,0.328-0.104,0.648-0.104,0.96v7.965h-3.076v-18.414h3.076v7.346c0.293-0.588,0.715-1.05,1.268-1.386 c0.552-0.336,1.232-0.505,2.044-0.505c0.638,0,1.185,0.106,1.643,0.322c0.457,0.219,0.835,0.506,1.137,0.868 c0.302,0.36,0.526,0.787,0.673,1.278c0.146,0.493,0.22,1.016,0.22,1.566v8.925H97.936L97.936,221.973z"/><path fill="#FFFFFF" d="M105.178,221.973v-10.474h-1.706v-2.25h4.786v12.724H105.178L105.178,221.973z M108.463,205.214 c0,0.498-0.184,0.929-0.556,1.289c-0.371,0.364-0.822,0.547-1.358,0.547c-0.534,0-0.986-0.183-1.357-0.547 c-0.371-0.36-0.557-0.791-0.557-1.289c0-0.5,0.186-0.931,0.557-1.297c0.372-0.358,0.824-0.542,1.357-0.542 c0.536,0,0.988,0.184,1.358,0.542C108.279,204.284,108.463,204.714,108.463,205.214L108.463,205.214z"/><path fill="#FFFFFF" d="M118.292,214.317c0-0.328-0.025-0.681-0.078-1.061c-0.051-0.379-0.149-0.732-0.297-1.056 c-0.145-0.328-0.351-0.598-0.62-0.807c-0.268-0.204-0.617-0.311-1.047-0.311c-0.414,0-0.749,0.109-1.009,0.325 c-0.258,0.216-0.466,0.488-0.621,0.812c-0.155,0.328-0.262,0.682-0.323,1.064c-0.06,0.376-0.091,0.724-0.091,1.032H118.292 L118.292,214.317z M114.205,216.359c0,1.086,0.255,1.961,0.764,2.628c0.508,0.665,1.339,0.996,2.495,0.996 c0.466,0,0.948-0.059,1.449-0.168c0.5-0.112,0.956-0.263,1.369-0.457l0.521,2.2c-0.588,0.243-1.256,0.411-2.005,0.506 c-0.751,0.095-1.437,0.143-2.056,0.143c-1.017,0-1.886-0.183-2.6-0.542c-0.717-0.362-1.299-0.854-1.747-1.478 c-0.448-0.62-0.779-1.339-0.995-2.16c-0.215-0.819-0.324-1.685-0.324-2.597c0-0.778,0.1-1.551,0.297-2.316 c0.2-0.766,0.504-1.451,0.918-2.056c0.414-0.602,0.95-1.09,1.604-1.463c0.656-0.372,1.44-0.553,2.354-0.553 c0.965,0,1.772,0.166,2.418,0.503c0.648,0.334,1.163,0.781,1.552,1.345c0.388,0.561,0.663,1.21,0.827,1.952 c0.164,0.741,0.247,1.536,0.247,2.379v1.138H114.205L114.205,216.359z"/><path fill="#FFFFFF" d="M130.94,221.973v-8.662c0-0.569-0.137-1.062-0.414-1.478c-0.275-0.413-0.741-0.618-1.397-0.618 c-0.378,0-0.704,0.083-0.969,0.258c-0.267,0.171-0.483,0.39-0.647,0.656c-0.163,0.269-0.284,0.573-0.363,0.907 c-0.077,0.337-0.115,0.66-0.115,0.972v7.965h-3.079v-12.724h2.716l0.233,1.706c0.275-0.588,0.711-1.058,1.304-1.41 c0.597-0.355,1.308-0.531,2.136-0.531c0.637,0,1.184,0.106,1.642,0.322c0.457,0.219,0.835,0.506,1.137,0.868 c0.302,0.36,0.526,0.787,0.672,1.278c0.146,0.493,0.221,1.016,0.221,1.566v8.925H130.94L130.94,221.973z"/><path fill="#FFFFFF" d="M143.976,214.317c0-0.328-0.026-0.681-0.077-1.061c-0.052-0.379-0.153-0.732-0.3-1.056 c-0.145-0.328-0.354-0.598-0.619-0.807c-0.267-0.204-0.617-0.311-1.047-0.311c-0.415,0-0.75,0.109-1.009,0.325 c-0.259,0.216-0.467,0.488-0.62,0.812c-0.157,0.328-0.263,0.682-0.325,1.064c-0.058,0.376-0.092,0.724-0.092,1.032H143.976 L143.976,214.317z M139.888,216.359c0,1.086,0.256,1.961,0.763,2.628c0.51,0.665,1.341,0.996,2.498,0.996 c0.467,0,0.948-0.059,1.447-0.168c0.502-0.112,0.959-0.263,1.374-0.457l0.514,2.2c-0.583,0.243-1.254,0.411-2.002,0.506 c-0.751,0.095-1.436,0.143-2.056,0.143c-1.02,0-1.884-0.183-2.6-0.542c-0.717-0.362-1.298-0.854-1.747-1.478 c-0.446-0.62-0.778-1.339-0.995-2.16c-0.216-0.819-0.323-1.685-0.323-2.597c0-0.778,0.099-1.551,0.297-2.316 c0.197-0.766,0.504-1.451,0.917-2.056c0.415-0.602,0.948-1.09,1.604-1.463c0.656-0.372,1.44-0.553,2.354-0.553 c0.967,0,1.772,0.166,2.418,0.503c0.645,0.334,1.162,0.781,1.552,1.345c0.387,0.561,0.665,1.21,0.829,1.952 c0.164,0.741,0.244,1.536,0.244,2.379v1.138H139.888L139.888,216.359z"/><path fill="#FFFFFF" d="M156.622,221.973v-8.662c0-0.569-0.139-1.062-0.412-1.478c-0.277-0.413-0.744-0.618-1.396-0.618 c-0.38,0-0.704,0.083-0.97,0.258c-0.271,0.171-0.485,0.39-0.649,0.656c-0.164,0.269-0.284,0.573-0.361,0.907 c-0.077,0.337-0.117,0.66-0.117,0.972v7.965h-3.077v-12.724h2.715l0.233,1.706c0.273-0.588,0.711-1.058,1.306-1.41 c0.594-0.355,1.304-0.531,2.133-0.531c0.638,0,1.184,0.106,1.644,0.322c0.456,0.219,0.834,0.506,1.137,0.868 c0.299,0.36,0.526,0.787,0.671,1.278c0.147,0.493,0.219,1.016,0.219,1.566v8.925H156.622L156.622,221.973z"/><path fill="#FFFFFF" d="M169.66,214.317c0-0.328-0.025-0.681-0.08-1.061c-0.047-0.379-0.149-0.732-0.295-1.056 c-0.146-0.328-0.354-0.598-0.62-0.807c-0.266-0.204-0.616-0.311-1.05-0.311c-0.412,0-0.748,0.109-1.006,0.325 c-0.259,0.216-0.466,0.488-0.624,0.812c-0.154,0.328-0.263,0.682-0.321,1.064c-0.062,0.376-0.091,0.724-0.091,1.032H169.66 L169.66,214.317z M165.574,216.359c0,1.086,0.255,1.961,0.762,2.628c0.51,0.665,1.342,0.996,2.498,0.996 c0.463,0,0.948-0.059,1.447-0.168c0.499-0.112,0.959-0.263,1.371-0.457l0.518,2.2c-0.587,0.243-1.254,0.411-2.005,0.506 c-0.748,0.095-1.434,0.143-2.057,0.143c-1.017,0-1.884-0.183-2.599-0.542c-0.715-0.362-1.298-0.854-1.746-1.478 c-0.449-0.62-0.781-1.339-0.996-2.16c-0.216-0.819-0.321-1.685-0.321-2.597c0-0.778,0.098-1.551,0.294-2.316 c0.197-0.766,0.504-1.451,0.919-2.056c0.416-0.602,0.948-1.09,1.604-1.463c0.656-0.372,1.441-0.553,2.353-0.553 c0.966,0,1.771,0.166,2.421,0.503c0.646,0.334,1.163,0.781,1.549,1.345c0.39,0.561,0.667,1.21,0.828,1.952 c0.164,0.741,0.248,1.536,0.248,2.379v1.138H165.574L165.574,216.359z"/><path fill="#FFFFFF" d="M181.506,211.886c-0.31-0.085-0.594-0.129-0.854-0.129c-0.466,0-0.837,0.095-1.126,0.285 c-0.284,0.188-0.51,0.441-0.685,0.75c-0.171,0.31-0.288,0.656-0.35,1.048c-0.059,0.387-0.087,0.78-0.087,1.177v6.956h-3.081 v-12.724h2.797l0.233,1.68c0.394-0.674,0.839-1.159,1.331-1.461c0.492-0.304,1.072-0.454,1.746-0.454 c0.12,0,0.281,0.017,0.478,0.038c0.197,0.029,0.357,0.065,0.478,0.115L181.506,211.886L181.506,211.886z"/><path fill="#FFFFFF" d="M191.801,218.017c0,0.773-0.131,1.426-0.401,1.951c-0.27,0.524-0.627,0.958-1.086,1.293 c-0.46,0.336-0.992,0.578-1.606,0.727c-0.612,0.146-1.26,0.219-1.952,0.219c-0.55,0-1.092-0.036-1.628-0.102 c-0.532-0.075-1.057-0.2-1.576-0.39l0.595-2.252c0.393,0.242,0.827,0.398,1.294,0.468c0.462,0.064,0.929,0.102,1.395,0.102 c0.582,0,1.041-0.143,1.369-0.426c0.328-0.284,0.49-0.73,0.49-1.334c0-0.413-0.118-0.741-0.357-0.981 c-0.242-0.241-0.547-0.45-0.904-0.622c-0.366-0.175-0.76-0.341-1.18-0.506c-0.422-0.163-0.813-0.375-1.177-0.645 c-0.361-0.267-0.663-0.612-0.904-1.037c-0.241-0.421-0.361-0.976-0.361-1.668c0-0.722,0.127-1.327,0.386-1.809 c0.259-0.482,0.602-0.87,1.036-1.164c0.43-0.294,0.93-0.506,1.499-0.634c0.57-0.127,1.176-0.194,1.81-0.194 c0.517,0,1.02,0.028,1.501,0.079c0.482,0.05,0.979,0.163,1.475,0.338l-0.6,2.143c-0.357-0.153-0.744-0.263-1.143-0.323 c-0.41-0.059-0.81-0.091-1.203-0.091c-0.488,0-0.896,0.121-1.232,0.35c-0.337,0.233-0.503,0.608-0.503,1.128 c0,0.396,0.115,0.718,0.363,0.955c0.24,0.243,0.547,0.453,0.913,0.635c0.37,0.181,0.772,0.355,1.203,0.53 c0.437,0.172,0.837,0.391,1.203,0.66c0.37,0.266,0.678,0.602,0.917,1.007C191.677,216.829,191.801,217.361,191.801,218.017 L191.801,218.017z"/><path fill="#FFFFFF" d="M200.389,216.359c-0.175-0.066-0.399-0.126-0.677-0.163c-0.27-0.044-0.598-0.067-0.977-0.067 c-0.731,0-1.256,0.214-1.59,0.645c-0.345,0.431-0.503,0.922-0.503,1.472c0,0.556,0.124,1.008,0.37,1.362 c0.248,0.353,0.656,0.528,1.227,0.528c0.591,0,1.094-0.19,1.515-0.569c0.425-0.381,0.635-0.852,0.635-1.422V216.359 L200.389,216.359z M200.725,221.973l-0.233-1.499c-0.366,0.551-0.809,0.979-1.334,1.28c-0.525,0.304-1.154,0.452-1.876,0.452 c-1.237,0-2.171-0.337-2.806-1.011c-0.629-0.669-0.94-1.603-0.94-2.791c0-0.653,0.115-1.237,0.355-1.747 c0.25-0.506,0.578-0.934,1.001-1.28c0.421-0.343,0.934-0.601,1.538-0.776c0.606-0.172,1.268-0.258,1.989-0.258 c0.452,0,0.831,0.024,1.138,0.074c0.315,0.056,0.592,0.1,0.831,0.133v-1.422c0-0.656-0.188-1.142-0.567-1.448 c-0.379-0.313-0.911-0.465-1.582-0.465c-0.461,0-0.97,0.049-1.525,0.151c-0.553,0.106-1.049,0.277-1.501,0.52l-0.518-2.148 c0.618-0.292,1.306-0.485,2.049-0.583c0.735-0.092,1.444-0.141,2.113-0.141c1.504,0,2.625,0.322,3.378,0.972 c0.751,0.645,1.128,1.528,1.128,2.651v6.983c0,0.394,0.023,0.788,0.075,1.176c0.051,0.39,0.102,0.78,0.16,1.177H200.725 L200.725,221.973z"/><path fill="#FFFFFF" d="M213.085,221.896c-0.343,0.134-0.715,0.223-1.123,0.26c-0.402,0.032-0.882,0.051-1.437,0.051 c-2.1,0-3.149-1.164-3.149-3.492v-7.215h-1.815v-2.25h1.815v-2.873l3.075-0.878v3.725h2.45v2.276h-2.45v6.488 c0,0.727,0.097,1.236,0.293,1.526c0.204,0.294,0.525,0.438,0.97,0.438c0.248,0,0.443-0.003,0.597-0.01 c0.153-0.006,0.343-0.056,0.568-0.142L213.085,221.896L213.085,221.896z"/><polygon fill="#FFFFFF" points="214.332,221.973 214.332,219.952 219.502,211.524 214.639,211.524 214.639,209.249 222.964,209.249 222.964,211.29 217.767,219.672 223.095,219.672 223.095,221.973 214.332,221.973"/><polygon fill="#FFFFFF" points="231.167,221.973 227.88,221.973 224.028,209.249 227.339,209.249 229.613,219.074 231.868,209.249 235.017,209.249 231.167,221.973"/><path fill="#FFFFFF" d="M243.477,214.317c0-0.328-0.022-0.681-0.072-1.061c-0.051-0.379-0.153-0.732-0.301-1.056 c-0.145-0.328-0.355-0.598-0.618-0.807c-0.27-0.204-0.62-0.311-1.05-0.311c-0.416,0-0.751,0.109-1.007,0.325 c-0.263,0.216-0.467,0.488-0.619,0.812c-0.161,0.328-0.27,0.682-0.33,1.064c-0.057,0.376-0.088,0.724-0.088,1.032H243.477 L243.477,214.317z M239.392,216.359c0,1.086,0.257,1.961,0.759,2.628c0.51,0.665,1.343,0.996,2.503,0.996 c0.466,0,0.947-0.059,1.443-0.168c0.503-0.112,0.963-0.263,1.369-0.457l0.52,2.2c-0.585,0.243-1.254,0.411-2.007,0.506 c-0.742,0.095-1.428,0.143-2.047,0.143c-1.021,0-1.891-0.183-2.604-0.542c-0.715-0.362-1.3-0.854-1.752-1.478 c-0.443-0.62-0.771-1.339-0.99-2.16c-0.219-0.819-0.322-1.685-0.322-2.597c0-0.778,0.097-1.551,0.293-2.316 c0.203-0.766,0.511-1.451,0.919-2.056c0.416-0.602,0.948-1.09,1.604-1.463c0.656-0.372,1.443-0.553,2.356-0.553 c0.968,0,1.771,0.166,2.421,0.503c0.642,0.334,1.159,0.781,1.553,1.345c0.385,0.561,0.663,1.21,0.822,1.952 c0.169,0.741,0.25,1.536,0.25,2.379v1.138H239.392L239.392,216.359z"/><path fill="#FFFFFF" d="M255.326,211.886c-0.313-0.085-0.598-0.129-0.854-0.129c-0.467,0-0.838,0.095-1.123,0.285 c-0.293,0.188-0.518,0.441-0.692,0.75c-0.168,0.31-0.284,0.656-0.343,1.048c-0.067,0.387-0.095,0.78-0.095,1.177v6.956h-3.077 v-12.724h2.793l0.233,1.68c0.4-0.674,0.844-1.159,1.334-1.461c0.488-0.304,1.072-0.454,1.741-0.454 c0.125,0,0.284,0.017,0.482,0.038c0.197,0.029,0.357,0.065,0.482,0.115L255.326,211.886L255.326,211.886z"/><polygon fill="#FFFFFF" points="264.739,221.973 261.274,215.819 261.274,221.973 258.221,221.973 258.221,203.559 261.274,203.559 261.274,214.317 264.638,209.249 267.97,209.249 264.039,214.808 268.232,221.973 264.739,221.973"/><path fill="#FFFFFF" d="M276.326,214.317c0-0.328-0.022-0.681-0.073-1.061c-0.053-0.379-0.153-0.732-0.299-1.056 c-0.148-0.328-0.358-0.598-0.62-0.807c-0.27-0.204-0.621-0.311-1.05-0.311c-0.415,0-0.751,0.109-1.006,0.325 c-0.263,0.216-0.469,0.488-0.629,0.812c-0.151,0.328-0.254,0.682-0.319,1.064c-0.059,0.376-0.088,0.724-0.088,1.032H276.326 L276.326,214.317z M272.242,216.359c0,1.086,0.256,1.961,0.759,2.628c0.509,0.665,1.34,0.996,2.501,0.996 c0.459,0,0.948-0.059,1.443-0.168c0.502-0.112,0.963-0.263,1.371-0.457l0.517,2.2c-0.583,0.243-1.254,0.411-2.005,0.506 c-0.744,0.095-1.429,0.143-2.057,0.143c-1.013,0-1.881-0.183-2.596-0.542c-0.714-0.362-1.298-0.854-1.75-1.478 c-0.444-0.62-0.772-1.339-0.991-2.16c-0.212-0.819-0.321-1.685-0.321-2.597c0-0.778,0.095-1.551,0.292-2.316 c0.204-0.766,0.509-1.451,0.919-2.056c0.415-0.602,0.947-1.09,1.603-1.463c0.656-0.372,1.444-0.553,2.355-0.553 c0.963,0,1.772,0.166,2.421,0.503c0.642,0.334,1.159,0.781,1.546,1.345c0.394,0.561,0.671,1.21,0.831,1.952 c0.168,0.741,0.248,1.536,0.248,2.379v1.138H272.242L272.242,216.359z"/><path fill="#FFFFFF" d="M288.997,221.973v-8.662c0-0.569-0.137-1.058-0.421-1.466c-0.286-0.405-0.766-0.605-1.438-0.605 c-0.379,0-0.698,0.088-0.968,0.26c-0.27,0.171-0.481,0.39-0.649,0.659c-0.16,0.266-0.276,0.564-0.352,0.89 c-0.065,0.328-0.101,0.648-0.101,0.96v7.965h-3.077v-18.414h3.077v7.346c0.292-0.588,0.715-1.05,1.27-1.386 c0.554-0.336,1.232-0.505,2.041-0.505c0.642,0,1.188,0.106,1.641,0.322c0.458,0.219,0.837,0.506,1.145,0.868 c0.298,0.36,0.525,0.787,0.671,1.278c0.147,0.493,0.219,1.016,0.219,1.566v8.925H288.997L288.997,221.973z"/><path fill="#FFFFFF" d="M301.701,211.886c-0.313-0.085-0.598-0.129-0.853-0.129c-0.467,0-0.838,0.095-1.123,0.285 c-0.284,0.188-0.518,0.441-0.686,0.75c-0.175,0.31-0.291,0.656-0.35,1.048c-0.067,0.387-0.095,0.78-0.095,1.177v6.956h-3.077 v-12.724h2.793l0.233,1.68c0.4-0.674,0.844-1.159,1.334-1.461c0.488-0.304,1.072-0.454,1.741-0.454 c0.124,0,0.284,0.017,0.482,0.038c0.197,0.029,0.357,0.065,0.481,0.115L301.701,211.886L301.701,211.886z"/></g></svg>