<?xml version="1.0" encoding="UTF-8" standalone="no"?>
<svg xmlns="http://www.w3.org/2000/svg" width="24" height="24"><path d="M11.390 1.598 C 10.937 1.743,10.626 2.006,10.253 2.562 C 9.957 3.003,1.225 18.101,1.016 18.534 C 0.908 18.758,0.811 19.032,0.773 19.226 C 0.716 19.516,0.716 19.576,0.771 19.848 C 0.856 20.265,1.008 20.563,1.288 20.862 C 1.566 21.159,1.860 21.322,2.312 21.428 C 2.605 21.496,3.091 21.500,12.000 21.500 C 20.909 21.500,21.395 21.496,21.688 21.428 C 22.140 21.322,22.434 21.159,22.712 20.862 C 22.994 20.560,23.147 20.258,23.230 19.839 C 23.284 19.562,23.284 19.502,23.226 19.216 C 23.189 19.035,23.085 18.743,22.983 18.532 C 22.774 18.100,14.042 3.001,13.747 2.562 C 13.369 1.999,13.060 1.740,12.596 1.596 C 12.274 1.495,11.708 1.496,11.390 1.598 M12.340 8.066 C 12.593 8.153,12.847 8.407,12.934 8.660 C 12.992 8.831,13.000 9.108,13.000 11.000 C 13.000 13.427,13.003 13.399,12.701 13.701 C 12.310 14.092,11.690 14.092,11.299 13.701 C 10.997 13.399,11.000 13.427,11.000 11.000 C 11.000 8.572,10.997 8.601,11.300 8.298 C 11.577 8.020,11.957 7.936,12.340 8.066 M12.427 16.093 C 13.171 16.478,13.193 17.513,12.465 17.887 C 11.814 18.222,11.000 17.729,11.000 17.000 C 11.000 16.615,11.288 16.197,11.643 16.066 C 11.857 15.988,12.249 16.001,12.427 16.093" stroke="none" fill-rule="evenodd"/></svg>