<?xml version="1.0" encoding="UTF-8" standalone="no"?>
<svg xmlns="http://www.w3.org/2000/svg" width="24" height="24"><path d="M11.643 4.069 C 11.291 4.193,11.000 4.614,11.000 5.000 C 11.000 5.080,11.029 5.234,11.065 5.343 C 11.124 5.522,11.377 5.788,13.854 8.270 L 16.579 11.000 10.714 11.000 C 4.323 11.000,4.681 10.987,4.374 11.222 C 4.301 11.277,4.192 11.408,4.131 11.511 C 4.036 11.672,4.020 11.744,4.020 12.000 C 4.020 12.256,4.036 12.328,4.131 12.489 C 4.192 12.592,4.301 12.723,4.374 12.778 C 4.681 13.013,4.323 13.000,10.714 13.000 L 16.579 13.000 13.853 15.730 C 11.213 18.374,11.125 18.467,11.063 18.677 C 10.984 18.949,10.984 19.013,11.064 19.283 C 11.156 19.590,11.419 19.849,11.735 19.940 C 12.001 20.018,12.210 20.000,12.460 19.879 C 12.567 19.828,13.821 18.599,16.245 16.171 C 19.693 12.718,19.874 12.529,19.940 12.326 C 20.024 12.065,20.006 11.800,19.887 11.556 C 19.826 11.429,18.800 10.380,16.171 7.755 C 12.850 4.439,12.523 4.124,12.343 4.065 C 12.101 3.985,11.876 3.987,11.643 4.069" stroke="none" fill-rule="evenodd"/></svg>