<?xml version="1.0" encoding="UTF-8" standalone="no"?>
<svg xmlns="http://www.w3.org/2000/svg" width="24" height="24"><g><path fill-rule="evenodd" d="M5.161 3H18.84c.527 0 .982 0 1.356.03.395.033.789.104 1.167.297a3 3 0 0 1 1.311 1.311c.193.378.264.772.296 1.167.031.375.031.83.031 1.356V8.5a1 1 0 0 1-1 1 2.5 2.5 0 0 0 0 5 1 1 0 0 1 1 1v1.339c0 .527 0 .982-.03 1.356-.033.395-.104.789-.297 1.167a3 3 0 0 1-1.311 1.311c-.378.193-.772.264-1.167.296-.375.031-.83.031-1.356.031H5.16c-.527 0-.981 0-1.356-.03-.395-.033-.789-.104-1.167-.297a3 3 0 0 1-1.311-1.311c-.193-.378-.264-.772-.296-1.167C1 17.82 1 17.365 1 16.838V15.5a1 1 0 0 1 1-1 2.5 2.5 0 0 0 0-5 1 1 0 0 1-1-1V7.161c0-.527 0-.981.03-1.356.033-.395.104-.789.297-1.167a3 3 0 0 1 1.311-1.311c.378-.193.772-.264 1.167-.296C4.18 3 4.635 3 5.161 3M3.968 5.024c-.272.022-.373.06-.422.085a1 1 0 0 0-.437.437c-.025.05-.063.15-.085.422C3 6.25 3 6.623 3 7.2v.412a4.502 4.502 0 0 1 0 8.777v.411c0 .577 0 .949.024 1.232.022.272.06.372.085.422a1 1 0 0 0 .437.437c.05.025.15.063.422.085C4.25 19 4.623 19 5.2 19h13.6c.577 0 .949 0 1.232-.024.272-.022.372-.06.422-.085a1 1 0 0 0 .437-.437c.025-.05.063-.15.085-.422C21 17.75 21 17.377 21 16.8v-.412a4.502 4.502 0 0 1 0-8.776V7.2c0-.577 0-.949-.024-1.232-.022-.272-.06-.373-.085-.422a1 1 0 0 0-.437-.437c-.05-.025-.15-.063-.422-.085C19.75 5 19.377 5 18.8 5H5.2c-.577 0-.949 0-1.232.024" clip-rule="evenodd"/><path d="M8 17V7h3.16q.114 0 .474.007.36.006.691.049 1.18.146 2 .84t1.248 1.764T16 12t-.427 2.34-1.248 1.764-2 .84a7 7 0 0 1-.691.05l-.475.006zm1.871-1.778h1.288q.183 0 .495-.007.312-.014.563-.062a1.78 1.78 0 0 0 1.037-.611q.407-.48.597-1.153A5 5 0 0 0 14.047 12a4.9 4.9 0 0 0-.203-1.424 3 3 0 0 0-.603-1.139 1.8 1.8 0 0 0-1.024-.59 3 3 0 0 0-.563-.062 23 23 0 0 0-.495-.007H9.871z"/></g></svg>