<?xml version="1.0" encoding="UTF-8" standalone="no"?>
<svg xmlns="http://www.w3.org/2000/svg" width="32" height="32" viewBox="0 0 32 32" fill="none"><rect x="0.695557" y="0.695312" width="30.6095" height="30.6095" rx="12.3913" fill="#2D2B29"/><path fill-rule="evenodd" clip-rule="evenodd" d="M11.1304 0H20.8696C27.0168 0 32 4.98324 32 11.1304V20.8696C32 27.0168 27.0168 32 20.8696 32H11.1304C4.98324 32 0 27.0168 0 20.8696V11.1304C0 4.98324 4.98324 0 11.1304 0ZM30.6081 11.1297C30.602 5.75348 26.2452 1.39668 20.869 1.39062H11.1297C5.75348 1.39668 1.39668 5.75348 1.39062 11.1297V20.869C1.39668 26.2452 5.75348 30.602 11.1297 30.6081H20.869C26.2452 30.602 30.602 26.2452 30.6081 20.869V11.1297Z" fill="white"/><path d="M4.87305 19.5469V12.4639H7.58451C8.09637 12.4639 8.52176 12.5446 8.8607 12.706C9.20193 12.8651 9.45671 13.0829 9.62502 13.3596C9.79564 13.6363 9.88095 13.9499 9.88095 14.3003C9.88095 14.5885 9.82562 14.8352 9.71494 15.0404C9.60427 15.2433 9.45556 15.4082 9.2688 15.535C9.08204 15.6618 8.87338 15.7529 8.64281 15.8082V15.8774C8.89413 15.8912 9.13507 15.9685 9.36564 16.1091C9.59851 16.2475 9.78873 16.4434 9.93629 16.6971C10.0839 16.9507 10.1576 17.2573 10.1576 17.617C10.1576 17.9836 10.0689 18.3133 9.89133 18.6062C9.71379 18.8967 9.44633 19.1261 9.08896 19.2944C8.73158 19.4627 8.28197 19.5469 7.74014 19.5469H4.87305ZM6.15615 18.4747H7.53609C8.00183 18.4747 8.33731 18.386 8.54251 18.2084C8.75002 18.0286 8.85378 17.798 8.85378 17.5167C8.85378 17.3069 8.8019 17.1179 8.69815 16.9495C8.59439 16.7789 8.44683 16.6452 8.25546 16.5484C8.06409 16.4492 7.83583 16.3996 7.57068 16.3996H6.15615V18.4747ZM6.15615 15.4762H7.42542C7.64676 15.4762 7.8462 15.4359 8.02374 15.3552C8.20128 15.2722 8.34077 15.1557 8.44222 15.0059C8.54597 14.8537 8.59785 14.6738 8.59785 14.4663C8.59785 14.192 8.50101 13.966 8.30734 13.7885C8.11597 13.6109 7.83122 13.5222 7.45309 13.5222H6.15615V15.4762Z" fill="white"/><path d="M12.5524 19.6541C12.2158 19.6541 11.9126 19.5941 11.6428 19.4742C11.3754 19.352 11.1632 19.1722 11.0065 18.9347C10.852 18.6972 10.7747 18.4044 10.7747 18.0563C10.7747 17.7565 10.8301 17.5087 10.9407 17.3127C11.0514 17.1167 11.2024 16.9599 11.3938 16.8423C11.5852 16.7247 11.8008 16.636 12.0405 16.576C12.2826 16.5138 12.5328 16.4688 12.791 16.4411C13.1023 16.4089 13.3548 16.38 13.5484 16.3547C13.7421 16.327 13.8828 16.2855 13.9704 16.2302C14.0603 16.1725 14.1053 16.0838 14.1053 15.9639V15.9431C14.1053 15.6826 14.028 15.4808 13.8735 15.3379C13.7191 15.1949 13.4966 15.1235 13.2061 15.1235C12.8994 15.1235 12.6562 15.1903 12.4763 15.324C12.2988 15.4578 12.1789 15.6157 12.1166 15.7979L10.9477 15.6319C11.0399 15.3091 11.1921 15.0393 11.4042 14.8226C11.6163 14.6035 11.8757 14.4398 12.1823 14.3315C12.489 14.2208 12.8279 14.1654 13.1991 14.1654C13.4551 14.1654 13.7098 14.1954 13.9635 14.2554C14.2171 14.3153 14.4488 14.4145 14.6586 14.5528C14.8684 14.6888 15.0368 14.8744 15.1636 15.1096C15.2927 15.3448 15.3572 15.6388 15.3572 15.9915V19.5469H14.1537V18.8171H14.1122C14.0361 18.9647 13.9289 19.103 13.7905 19.2321C13.6545 19.359 13.4827 19.4616 13.2752 19.54C13.07 19.616 12.8291 19.6541 12.5524 19.6541ZM12.8775 18.7341C13.1288 18.7341 13.3467 18.6846 13.5312 18.5854C13.7156 18.484 13.8574 18.3502 13.9566 18.1842C14.058 18.0182 14.1087 17.8372 14.1087 17.6412V17.0153C14.0695 17.0475 14.0027 17.0775 13.9081 17.1052C13.8159 17.1328 13.7122 17.157 13.5969 17.1778C13.4816 17.1986 13.3675 17.217 13.2545 17.2331C13.1415 17.2493 13.0435 17.2631 12.9605 17.2746C12.7737 17.3 12.6066 17.3415 12.459 17.3991C12.3115 17.4568 12.195 17.5375 12.1097 17.6412C12.0244 17.7427 11.9817 17.8741 11.9817 18.0355C11.9817 18.2661 12.0659 18.4402 12.2342 18.5577C12.4025 18.6753 12.617 18.7341 12.8775 18.7341Z" fill="white"/><path d="M17.6733 16.4342V19.5469H16.4214V12.4639H17.6457V15.1373H17.7079C17.8324 14.8375 18.0249 14.6012 18.2855 14.4283C18.5483 14.2531 18.8827 14.1654 19.2884 14.1654C19.6574 14.1654 19.979 14.2427 20.2534 14.3972C20.5277 14.5516 20.7399 14.7776 20.8897 15.075C21.0419 15.3725 21.118 15.7356 21.118 16.1645V19.5469H19.866V16.3581C19.866 16.0008 19.7738 15.7229 19.5893 15.5246C19.4072 15.324 19.1513 15.2237 18.8216 15.2237C18.6002 15.2237 18.4019 15.2722 18.2267 15.369C18.0538 15.4635 17.9177 15.6007 17.8186 15.7806C17.7217 15.9604 17.6733 16.1783 17.6733 16.4342Z" fill="white"/><path d="M23.4514 16.4342V19.5469H22.1994V14.2346H23.396V15.1373H23.4583C23.5805 14.8399 23.7753 14.6035 24.0428 14.4283C24.3125 14.2531 24.6457 14.1654 25.0423 14.1654C25.4089 14.1654 25.7282 14.2438 26.0003 14.4006C26.2747 14.5574 26.4868 14.7845 26.6367 15.082C26.7888 15.3794 26.8638 15.7402 26.8615 16.1645V19.5469H25.6095V16.3581C25.6095 16.0031 25.5173 15.7252 25.3328 15.5246C25.1506 15.324 24.8982 15.2237 24.5754 15.2237C24.3563 15.2237 24.1615 15.2722 23.9909 15.369C23.8226 15.4635 23.69 15.6007 23.5932 15.7806C23.4986 15.9604 23.4514 16.1783 23.4514 16.4342Z" fill="white"/></svg>