<?xml version="1.0" encoding="UTF-8" standalone="no"?>
<svg xmlns="http://www.w3.org/2000/svg" width="24" height="24"><path d="M11.418 1.361 C 11.284 1.404,11.068 1.507,10.938 1.592 C 10.480 1.888,3.097 7.657,2.840 7.920 C 2.426 8.342,2.160 8.857,2.057 9.438 C 1.987 9.829,1.975 18.695,2.043 19.309 C 2.151 20.274,2.593 20.999,3.395 21.526 C 4.046 21.954,4.485 22.010,7.020 21.993 L 8.860 21.980 9.120 21.856 C 9.450 21.699,9.699 21.450,9.856 21.120 L 9.980 20.860 9.991 16.930 L 10.002 13.000 12.000 13.000 L 13.998 13.000 14.009 16.930 L 14.020 20.860 14.144 21.120 C 14.301 21.450,14.550 21.699,14.880 21.856 L 15.140 21.980 16.980 21.993 C 18.989 22.007,19.493 21.978,19.998 21.818 C 20.790 21.568,21.568 20.792,21.816 20.005 C 21.993 19.443,22.000 19.232,22.000 14.354 C 22.000 9.355,22.002 9.415,21.786 8.880 C 21.634 8.504,21.443 8.211,21.160 7.919 C 20.905 7.656,13.533 1.896,13.063 1.592 C 12.586 1.284,11.945 1.194,11.418 1.361 M15.800 6.223 C 17.879 7.841,19.631 9.213,19.694 9.272 C 19.756 9.331,19.846 9.452,19.894 9.540 L 19.980 9.700 19.980 14.440 C 19.980 18.067,19.968 19.218,19.931 19.340 C 19.863 19.562,19.675 19.776,19.450 19.886 C 19.262 19.979,19.246 19.980,17.630 19.993 L 16.000 20.006 15.999 16.433 C 15.999 12.557,15.998 12.541,15.778 12.093 C 15.567 11.660,15.141 11.295,14.635 11.112 L 14.380 11.020 12.000 11.020 L 9.620 11.020 9.365 11.112 C 8.859 11.295,8.433 11.660,8.222 12.093 C 8.002 12.541,8.001 12.557,8.001 16.433 L 8.000 20.006 6.370 19.993 C 4.754 19.980,4.738 19.979,4.550 19.886 C 4.325 19.776,4.137 19.562,4.069 19.340 C 4.032 19.218,4.020 18.067,4.020 14.440 L 4.020 9.700 4.106 9.540 C 4.154 9.452,4.244 9.331,4.306 9.272 C 4.440 9.145,11.970 3.282,12.000 3.282 C 12.011 3.282,13.721 4.605,15.800 6.223" stroke="none" fill-rule="evenodd"/></svg>