<?xml version="1.0" encoding="UTF-8" standalone="no"?>
<svg width="24" height="24" viewBox="0 0 24 24" version="1.1" id="svg1" sodipodi:docname="gen-hourglass.svg" inkscape:version="1.3.2 (091e20e, 2023-11-25)" xmlns:inkscape="http://www.inkscape.org/namespaces/inkscape" xmlns:sodipodi="http://sodipodi.sourceforge.net/DTD/sodipodi-0.dtd" xmlns="http://www.w3.org/2000/svg" xmlns:svg="http://www.w3.org/2000/svg"><path d="M5.420 1.056 C 4.746 1.220,4.183 1.809,4.040 2.500 C 3.950 2.930,4.050 4.197,4.246 5.120 C 4.494 6.293,4.963 7.491,5.559 8.480 C 6.130 9.427,6.558 9.955,7.676 11.090 L 8.572 12.000 7.676 12.910 C 6.558 14.045,6.130 14.573,5.559 15.520 C 4.635 17.052,4.104 18.844,4.016 20.720 C 3.994 21.193,4.002 21.347,4.055 21.555 C 4.237 22.261,4.731 22.759,5.428 22.940 C 5.773 23.030,18.227 23.030,18.572 22.940 C 19.269 22.759,19.763 22.261,19.945 21.555 C 19.998 21.347,20.006 21.193,19.984 20.720 C 19.896 18.844,19.365 17.052,18.441 15.520 C 17.870 14.573,17.442 14.045,16.324 12.910 L 15.428 12.001 16.324 11.090 C 17.446 9.950,17.872 9.425,18.441 8.480 C 19.365 6.948,19.896 5.156,19.984 3.280 C 20.005 2.811,19.998 2.652,19.946 2.451 C 19.763 1.741,19.272 1.242,18.578 1.061 C 18.372 1.007,17.572 1.000,11.982 1.003 C 7.125 1.006,5.573 1.018,5.420 1.056 M17.960 3.232 C 17.960 3.478,17.872 4.234,17.801 4.600 C 17.605 5.610,17.174 6.725,16.640 7.598 C 16.244 8.246,15.862 8.701,14.856 9.720 C 14.303 10.281,13.793 10.830,13.724 10.940 C 13.341 11.545,13.341 12.455,13.724 13.060 C 13.793 13.170,14.303 13.719,14.856 14.280 C 15.862 15.299,16.244 15.754,16.640 16.402 C 17.174 17.275,17.605 18.390,17.801 19.400 C 17.872 19.766,17.960 20.522,17.960 20.768 L 17.960 21.000 12.000 21.000 L 6.040 21.000 6.040 20.768 C 6.040 20.479,6.133 19.722,6.221 19.301 C 6.508 17.920,7.112 16.617,7.971 15.527 C 8.104 15.358,8.649 14.779,9.182 14.240 C 9.715 13.701,10.208 13.170,10.277 13.060 C 10.659 12.454,10.659 11.546,10.277 10.940 C 10.208 10.830,9.715 10.299,9.182 9.760 C 8.649 9.221,8.104 8.642,7.971 8.473 C 7.112 7.383,6.508 6.080,6.221 4.699 C 6.133 4.278,6.040 3.521,6.040 3.232 L 6.040 3.000 12.000 3.000 L 17.960 3.000 17.960 3.232" stroke="none" fill-rule="evenodd"/></svg>