<?xml version="1.0" encoding="UTF-8" standalone="no"?>
<svg xmlns="http://www.w3.org/2000/svg" width="24" height="24"><path d="M11.340 1.024 C 11.252 1.033,11.027 1.059,10.840 1.083 C 8.900 1.322,7.027 2.249,5.616 3.667 C 3.375 5.922,2.485 9.220,3.305 12.240 C 3.716 13.759,4.577 15.338,5.897 17.000 C 6.797 18.133,7.542 18.941,9.596 21.009 C 10.881 22.304,11.423 22.824,11.556 22.889 C 11.809 23.014,12.190 23.014,12.443 22.890 C 12.756 22.735,16.377 19.051,17.484 17.760 C 18.290 16.820,19.179 15.578,19.661 14.720 C 21.076 12.200,21.366 9.692,20.535 7.160 C 19.791 4.892,18.118 2.984,15.944 1.923 C 15.066 1.494,14.269 1.244,13.320 1.101 C 12.911 1.039,11.662 0.991,11.340 1.024 M12.756 7.097 C 13.641 7.339,14.433 8.030,14.766 8.849 C 15.483 10.610,14.445 12.554,12.581 12.938 C 11.838 13.092,10.987 12.928,10.356 12.509 C 9.181 11.729,8.706 10.253,9.202 8.925 C 9.556 7.976,10.471 7.227,11.503 7.040 C 11.770 6.991,12.491 7.024,12.756 7.097" stroke="none" fill-rule="evenodd"/></svg>