<?xml version="1.0" encoding="UTF-8" standalone="no"?>
<svg xmlns="http://www.w3.org/2000/svg" width="16" height="16" fill="none"><g clip-path="url(#a)"><path fill="#00586A" d="M8 16c4.4 0 8-3.6 8-8s-3.6-8-8-8-8 3.6-8 8 3.6 8 8 8"/><path fill="#fff" d="M5.3 9.2c0-.8-.6-1.2-1.3-1.3.6-.2 1-.6 1-1.3 0-1-.8-1.4-1.7-1.4H1.6v5.6h1.9c1 0 1.8-.6 1.8-1.6M4 6.7c0 .5-.3.8-.8.8h-.6V6h.6c.5 0 .8.2.8.7m.2 2.4c0 .5-.3.9-.8.9h-.8V8.3h.7c.5 0 .9.3.9.8M10.3 8.8V5.2h-1v3.5c0 .7-.2 1.3-1 1.3s-1-.6-1-1.3V5.2h-1v3.6c0 1.3.7 2.1 2 2.1s2-.8 2-2.1M14.7 9.2c0-1.9-2.3-1.3-2.3-2.5 0-.6.4-.8 1-.8.3 0 .6.1.9.2l.2-.8c-.4-.1-.8-.2-1.2-.2-1 0-2 .5-2 1.6 0 2 2.2 1.2 2.2 2.5 0 .7-.6.9-1.1.9-.4 0-.8-.1-1.1-.2v.9c.4.1.8.2 1.2.2 1.2-.1 2.2-.6 2.2-1.8"/></g><defs><clipPath id="a"><path fill="#fff" d="M0 0h16v16H0z"/></clipPath></defs></svg>