<?xml version="1.0" encoding="UTF-8" standalone="no"?>
<svg id="svg18363" xmlns="http://www.w3.org/2000/svg" viewBox="0 0 12.24 12.24"><defs><style>.cls-1{fill:#222;}.cls-2{fill:#99ba43;}.cls-3{fill:#fff;}</style></defs><path id="path9517" class="cls-1" d="M8.3985,1.11973,4.96769,4.309a1.66337,1.66337,0,0,1-.218.17675V3.70512a.65585.65585,0,0,0-.19736-.47525A.63655.63655,0,0,0,4.082,3.02858H3.99363a.68929.68929,0,0,0-.67752.67654v.9986a1.71656,1.71656,0,0,0-.79634.62843,1.6853,1.6853,0,0,0-.11684,1.77137,1.79772,1.79772,0,0,0,.52728.61174H1.45636v.35349H4.78309V7.71526H3.93668a1.35705,1.35705,0,0,1-.70011-.18951A1.416,1.416,0,0,1,2.725,7.01417a1.35451,1.35451,0,0,1-.18852-.70011A1.37306,1.37306,0,0,1,2.725,5.60512a1.39516,1.39516,0,0,1,1.21169-.69225h.39473a1.18677,1.18677,0,0,0,.84543-.35447L8.3985,1.55472Zm-4.36461.58032a.55954.55954,0,0,0-.55969.55941v.00028a.55954.55954,0,0,0,.5594.55969h.00029A.55955.55955,0,0,0,4.59358,2.26V2.25974a.55954.55954,0,0,0-.55941-.55969Z"/><path class="cls-2" d="M10.77313,7.91755a.03135.03135,0,0,0-.00385-.05085L10.244,7.54688l.33448-.51618a.03136.03136,0,0,0-.01856-.04748L9.9635,6.83246l.1676-.59179a.03141.03141,0,0,0-.0318-.03992L9.485,6.23249,9.4707,5.61756a.03131.03131,0,0,0-.04211-.02875l-.57764.2113-.19489-.58337a.03144.03144,0,0,0-.04876-.01508l-.48969.37226-.35821-.5a.03134.03134,0,0,0-.051,0l-.35815.5-.48975-.37226a.03139.03139,0,0,0-.0487.01508l-.195.58337-.57764-.2113a.03136.03136,0,0,0-.04211.02875l-.01428.61493-.61432-.03174a.03139.03139,0,0,0-.03174.03992l.16754.59179L4.908,6.98322a.03135.03135,0,0,0-.01862.04748l.33447.51618-.52533.31982a.03135.03135,0,0,0-.00378.05085l.4718.39453-.40771.46057a.0314.0314,0,0,0,.01135.04974l.56714.238-.25391.56024a.03138.03138,0,0,0,.02551.04413L5.721,9.725l-.07746.61017a.03134.03134,0,0,0,.03736.03467l.60272-.12293.10577.606a.03134.03134,0,0,0,.0459.02215l.5398-.295.2796.54779a.0314.0314,0,0,0,.05047.00763l.42871-.441.42878.441a.03135.03135,0,0,0,.05041-.00763L8.4928,10.58l.53967.295a.03137.03137,0,0,0,.046-.02215l.10577-.6059.60272.12287a.03138.03138,0,0,0,.03742-.03467L9.74682,9.725l.61206-.06024a.03135.03135,0,0,0,.02552-.04413l-.25391-.56024.5672-.238a.03143.03143,0,0,0,.01135-.04974l-.40765-.46045Z"/><polygon class="cls-3" points="9.392 7.47 8.863 6.942 7.343 8.462 6.605 7.723 6.076 8.252 6.815 8.99 6.813 8.992 7.341 9.521 7.343 9.518 7.345 9.521 7.874 8.992 7.872 8.99 9.392 7.47"/></svg>