<?xml version="1.0" encoding="UTF-8" standalone="no"?>
<svg id="svg18363" xmlns="http://www.w3.org/2000/svg" viewBox="0 0 12.24 12.24"><defs><style>.cls-1{fill:#222;}.cls-2{fill:#f1b843;fill-rule:evenodd;}</style></defs><path id="path9517" class="cls-1" d="M8.28787,1.07174,4.85706,4.261a1.66337,1.66337,0,0,1-.218.17675V3.65712a.65584.65584,0,0,0-.19736-.47524.63651.63651,0,0,0-.47034-.2013H3.883a.6893.6893,0,0,0-.67752.67654v.99861a1.71654,1.71654,0,0,0-.79633.62843A1.68528,1.68528,0,0,0,2.2923,7.05553a1.7976,1.7976,0,0,0,.52729.61173H1.34573v.35349H4.67246V7.66726H3.82605a1.357,1.357,0,0,1-.70011-.18951,1.41576,1.41576,0,0,1-.51157-.51157,1.35442,1.35442,0,0,1-.18853-.70011,1.373,1.373,0,0,1,.18853-.70894,1.39513,1.39513,0,0,1,1.21168-.69225h.39473a1.18677,1.18677,0,0,0,.84543-.35447L8.28787,1.50673Zm-4.36461.58031a.55955.55955,0,0,0-.55969.55941v.00028a.55955.55955,0,0,0,.55941.5597h.00028A.55956.55956,0,0,0,4.483,2.212V2.21174a.55955.55955,0,0,0-.55941-.55969Z"/><path class="cls-2" d="M10.6399,11.18656H4.11651a.254.254,0,0,1-.22-.38089l3.255-5.64289a.254.254,0,0,1,.43979-.00039l3.26837,5.64289A.254.254,0,0,1,10.6399,11.18656Z"/><path d="M7.24536,9.20858l.08-.08-.2-.2-.02.02-.4.41a.50726.50726,0,0,0-.17-.03.475.475,0,1,0,.47.48.46658.46658,0,0,0-.03-.17l.26-.26.02-.02-.00995-.01A.09654.09654,0,0,1,7.24536,9.20858Zm-.45.7-.16.16h-.21l-.16-.16v-.21l.16-.15h.21l.16.15Z"/><path d="M7.98535,9.17855a.2258.2258,0,0,0-.23-.05l-.06995-.06.06-.07a.03051.03051,0,0,0,0-.04l-.04-.04s-.04-.03-.06-.01l-.12.12-.25-.24-.69-.69v-.12l-.33-.21-.1.09.22.34h.12l.68.69.25.24-.13.13a.03035.03035,0,0,0,0,.04l.06.06a.03035.03035,0,0,0,.04,0l.06-.05.07.06a.18248.18248,0,0,0,.04.22l.61.61a.19338.19338,0,0,0,.28,0l.13-.13a.19327.19327,0,0,0,0-.28Z"/><path d="M7.61536,8.83852a.0864.0864,0,0,1,.06-.03h.02c.02,0,.06.04.06.04l.28-.27a.46781.46781,0,0,0,.17.03.501.501,0,0,0,.12-.02.68178.68178,0,0,0,.1-.04.92069.92069,0,0,0,.08-.05.47509.47509,0,0,0,.1-.1.50328.50328,0,0,0,.08-.27.84007.84007,0,0,0-.03-.18l-.18.18v.1l-.16.16h-.21l-.15-.16v-.21l.15-.16h.08l.18-.18a.41434.41434,0,0,0-.16-.03.39177.39177,0,0,0-.18.04.65406.65406,0,0,0-.15.1.46812.46812,0,0,0-.15.34.32884.32884,0,0,0,.04.17l-.41.4-.02.02.2.2Z"/></svg>