<?xml version="1.0" encoding="UTF-8" standalone="no"?>
<svg xmlns="http://www.w3.org/2000/svg" width="24" height="24"><path d="M14.260 1.044 C 11.871 1.293,9.785 2.759,8.718 4.940 C 8.164 6.073,7.926 7.322,8.033 8.550 C 8.114 9.493,8.321 10.248,8.718 11.060 C 9.421 12.496,10.503 13.578,11.940 14.282 C 13.072 14.836,14.322 15.074,15.550 14.967 C 16.495 14.885,17.251 14.679,18.060 14.281 C 19.500 13.574,20.574 12.500,21.281 11.060 C 21.836 9.931,22.074 8.679,21.967 7.450 C 21.885 6.505,21.679 5.749,21.281 4.940 C 20.573 3.500,19.498 2.423,18.060 1.718 C 16.885 1.141,15.569 0.908,14.260 1.044 M4.480 2.028 C 3.917 2.122,3.346 2.480,3.011 2.951 C 2.460 3.722,2.456 4.778,3.000 5.553 C 3.809 6.704,5.422 6.849,6.424 5.860 C 6.845 5.445,7.119 4.814,7.119 4.260 C 7.119 3.984,7.007 3.551,6.856 3.245 C 6.438 2.395,5.415 1.871,4.480 2.028 M16.083 3.115 C 17.749 3.496,19.103 4.684,19.692 6.280 C 19.920 6.898,19.978 7.248,19.978 8.000 C 19.978 8.751,19.920 9.101,19.692 9.720 C 19.443 10.396,19.111 10.925,18.603 11.456 C 17.900 12.188,16.999 12.691,16.000 12.905 C 15.525 13.007,14.475 13.007,14.000 12.905 C 12.502 12.583,11.229 11.609,10.538 10.254 C 10.342 9.870,10.162 9.343,10.075 8.900 C 10.003 8.533,10.003 7.467,10.075 7.100 C 10.268 6.116,10.710 5.261,11.397 4.544 C 12.180 3.728,13.160 3.220,14.300 3.042 C 14.679 2.983,15.685 3.024,16.083 3.115 M14.667 4.065 C 14.542 4.103,14.412 4.186,14.299 4.298 C 14.000 4.598,14.000 4.599,14.000 6.947 L 14.000 8.999 15.201 9.900 C 15.861 10.396,16.469 10.837,16.552 10.881 C 17.244 11.241,18.088 10.654,17.984 9.884 C 17.930 9.484,17.850 9.395,16.889 8.669 L 16.000 7.998 16.000 6.446 C 16.000 4.650,15.993 4.599,15.697 4.303 C 15.416 4.022,15.067 3.942,14.667 4.065 M4.000 6.939 C 3.555 7.040,3.099 7.293,2.780 7.616 C 2.457 7.944,2.270 8.270,2.161 8.697 C 2.091 8.970,2.079 9.253,2.038 11.629 C 1.980 15.002,2.007 15.590,2.243 16.220 C 2.356 16.520,2.719 16.898,3.040 17.049 C 3.583 17.304,3.452 17.295,6.728 17.310 L 9.716 17.323 9.729 19.691 C 9.741 21.764,9.751 22.084,9.809 22.254 C 9.918 22.576,10.052 22.740,10.308 22.866 C 10.522 22.971,10.575 22.980,11.000 22.979 C 11.413 22.979,11.483 22.968,11.687 22.873 C 11.990 22.732,12.138 22.527,12.199 22.168 C 12.230 21.980,12.240 21.049,12.231 19.060 C 12.218 16.258,12.217 16.216,12.130 15.959 C 11.866 15.174,11.219 14.554,10.462 14.361 C 10.175 14.287,10.020 14.280,8.716 14.280 L 7.285 14.280 7.269 11.790 C 7.251 9.112,7.252 9.126,7.029 8.514 C 6.749 7.741,6.203 7.215,5.440 6.982 C 5.130 6.887,4.336 6.864,4.000 6.939" stroke="none" fill-rule="evenodd"/></svg>