<?xml version="1.0" encoding="UTF-8" standalone="no"?>
<svg xmlns="http://www.w3.org/2000/svg" width="24" height="24"><path d="M5.643 8.069 C 5.291 8.193,5.000 8.614,5.000 9.000 C 5.000 9.080,5.029 9.234,5.065 9.343 C 5.124 9.523,5.405 9.816,8.255 12.671 C 10.509 14.929,11.429 15.826,11.556 15.887 C 11.800 16.006,12.065 16.024,12.326 15.940 C 12.529 15.874,12.701 15.710,15.671 12.745 C 18.083 10.338,18.825 9.575,18.901 9.422 C 19.024 9.176,19.034 8.819,18.925 8.578 C 18.834 8.377,18.518 8.094,18.325 8.041 C 18.095 7.977,17.797 7.994,17.600 8.083 C 17.462 8.145,16.792 8.791,14.710 10.871 L 12.000 13.579 9.270 10.855 C 6.788 8.377,6.522 8.124,6.343 8.065 C 6.101 7.985,5.876 7.986,5.643 8.069" stroke="none" fill-rule="evenodd"/></svg>