<?xml version="1.0" encoding="UTF-8" standalone="no"?>
<svg xmlns="http://www.w3.org/2000/svg" width="24" height="24"><path d="M11.664 4.063 C 11.436 4.146,11.257 4.297,11.131 4.511 L 11.020 4.700 11.009 7.850 L 10.998 11.000 7.924 11.000 C 4.585 11.000,4.672 10.995,4.374 11.222 C 4.301 11.277,4.192 11.408,4.131 11.511 C 4.036 11.672,4.020 11.744,4.020 12.000 C 4.020 12.256,4.036 12.328,4.131 12.489 C 4.192 12.592,4.301 12.723,4.374 12.778 C 4.672 13.005,4.584 13.000,7.925 13.000 L 11.000 13.000 11.000 16.070 C 11.000 18.061,11.015 19.192,11.042 19.289 C 11.103 19.509,11.315 19.762,11.531 19.874 C 11.932 20.080,12.390 20.012,12.700 19.702 C 13.012 19.390,13.000 19.537,13.000 16.073 L 13.000 13.000 16.073 13.000 C 19.536 13.000,19.390 13.012,19.701 12.701 C 20.092 12.310,20.092 11.690,19.701 11.299 C 19.390 10.988,19.536 11.000,16.073 11.000 L 13.000 11.000 13.000 7.927 C 13.000 4.464,13.012 4.610,12.701 4.299 C 12.429 4.027,12.018 3.933,11.664 4.063" stroke="none" fill-rule="evenodd"/></svg>