<?xml version="1.0" encoding="UTF-8" standalone="no"?>
<svg xmlns="http://www.w3.org/2000/svg" width="16" height="16" fill="none"><g clip-path="url(#a)"><path fill="#2A63A9" d="M13 16H3c-1.7 0-3-1.3-3-3V3c0-1.7 1.3-3 3-3h10c1.7 0 3 1.3 3 3v10c0 1.7-1.3 3-3 3"/><path fill="#fff" d="M8 13.5c-1.3 0-2.7-.3-3.5-1.5-.7-1-.9-2.1-.9-3.3V2.5h2.7v7c0 .7.2 1.5.9 1.8.6.2 1.5.1 1.9-.5.5-.9.4-1.9.4-2.8V2.5h2.7v7.3c0 1.3-.6 2.8-1.9 3.4-.6.2-1.4.3-2.3.3"/></g><defs><clipPath id="a"><path fill="#fff" d="M0 0h16v16H0z"/></clipPath></defs></svg>