<?xml version="1.0" encoding="UTF-8" standalone="no"?>
<svg xmlns="http://www.w3.org/2000/svg" width="24" height="24"><path d="M5.643 5.069 C 5.291 5.193,5.000 5.614,5.000 6.000 C 5.000 6.080,5.029 6.234,5.065 6.343 C 5.124 6.522,5.377 6.788,7.854 9.270 L 10.579 12.000 7.853 14.730 C 5.213 17.374,5.125 17.467,5.063 17.677 C 4.984 17.949,4.984 18.013,5.064 18.283 C 5.153 18.581,5.419 18.847,5.717 18.936 C 5.987 19.016,6.051 19.016,6.323 18.937 C 6.533 18.875,6.626 18.787,9.270 16.147 L 12.000 13.421 14.730 16.147 C 17.374 18.787,17.467 18.875,17.677 18.937 C 17.949 19.016,18.013 19.016,18.283 18.936 C 18.581 18.847,18.847 18.581,18.936 18.283 C 19.016 18.013,19.016 17.949,18.937 17.677 C 18.875 17.467,18.787 17.374,16.147 14.730 L 13.421 12.000 16.129 9.290 C 18.209 7.208,18.855 6.538,18.917 6.400 C 19.022 6.168,19.025 5.799,18.925 5.578 C 18.834 5.377,18.518 5.094,18.325 5.041 C 18.095 4.977,17.797 4.994,17.600 5.083 C 17.462 5.145,16.792 5.791,14.710 7.871 L 12.000 10.579 9.270 7.855 C 6.788 5.377,6.522 5.124,6.343 5.065 C 6.101 4.985,5.876 4.986,5.643 5.069" stroke="none" fill-rule="evenodd"/></svg>