<?xml version="1.0" encoding="UTF-8" standalone="no"?>
<svg xmlns="http://www.w3.org/2000/svg" width="24" height="24"><path d="M11.460 2.025 C 10.509 2.129,9.569 2.486,8.793 3.039 C 8.350 3.355,7.722 4.002,7.429 4.444 C 7.215 4.766,6.840 5.497,6.840 5.591 C 6.840 5.646,6.889 5.637,4.950 5.939 C 3.778 6.121,3.235 6.221,3.127 6.277 C 2.946 6.369,2.733 6.599,2.655 6.786 C 2.584 6.955,2.584 7.365,2.655 7.534 C 2.782 7.837,3.104 8.091,3.426 8.142 C 3.526 8.158,4.084 8.088,5.008 7.943 C 5.794 7.821,6.456 7.720,6.478 7.720 C 6.501 7.720,6.520 7.799,6.520 7.895 C 6.520 8.164,6.629 8.738,6.763 9.172 C 7.162 10.467,8.141 11.646,9.400 12.348 C 9.749 12.543,10.324 12.756,10.811 12.871 C 11.212 12.966,11.339 12.977,12.000 12.977 C 12.661 12.977,12.788 12.966,13.189 12.871 C 14.225 12.626,15.054 12.178,15.795 11.462 C 16.910 10.384,17.490 9.028,17.490 7.500 C 17.490 6.039,16.971 4.756,15.954 3.699 C 15.152 2.867,14.140 2.313,13.033 2.100 C 12.702 2.037,11.765 1.992,11.460 2.025 M12.881 4.117 C 13.268 4.219,13.880 4.494,13.830 4.543 C 13.808 4.565,9.426 5.242,9.387 5.229 C 9.326 5.209,9.546 4.979,9.850 4.747 C 10.333 4.377,10.897 4.132,11.472 4.040 C 11.813 3.986,12.534 4.025,12.881 4.117 M15.358 6.514 C 15.498 7.031,15.521 7.723,15.417 8.232 C 15.191 9.330,14.366 10.317,13.316 10.745 C 12.957 10.892,12.400 10.999,12.000 10.999 C 11.600 10.999,11.043 10.892,10.684 10.745 C 9.634 10.317,8.809 9.330,8.583 8.232 C 8.531 7.976,8.494 7.404,8.530 7.398 C 9.286 7.270,15.101 6.368,15.188 6.365 C 15.305 6.360,15.321 6.374,15.358 6.514 M11.200 15.025 C 7.980 15.256,5.119 16.553,2.715 18.871 C 2.106 19.459,2.020 19.598,2.020 20.000 C 2.020 20.256,2.036 20.328,2.131 20.489 C 2.385 20.920,2.864 21.096,3.342 20.933 C 3.498 20.880,3.646 20.762,4.079 20.343 C 5.253 19.207,6.388 18.446,7.800 17.849 C 10.441 16.731,13.559 16.731,16.200 17.849 C 17.603 18.443,18.737 19.201,19.900 20.324 C 20.187 20.602,20.482 20.860,20.555 20.898 C 20.756 21.001,21.077 21.022,21.301 20.946 C 21.558 20.858,21.736 20.715,21.869 20.489 C 21.964 20.328,21.980 20.256,21.980 20.000 C 21.980 19.598,21.894 19.459,21.285 18.871 C 20.163 17.790,19.025 16.986,17.700 16.340 C 16.325 15.669,15.050 15.287,13.560 15.100 C 13.072 15.039,11.639 14.993,11.200 15.025" stroke="none" fill-rule="evenodd"/></svg>