<?xml version="1.0" encoding="UTF-8" standalone="no"?>
<svg xmlns:dc="http://purl.org/dc/elements/1.1/" xmlns:cc="http://creativecommons.org/ns#" xmlns:rdf="http://www.w3.org/1999/02/22-rdf-syntax-ns#" xmlns:svg="http://www.w3.org/2000/svg" xmlns="http://www.w3.org/2000/svg" version="1.1" id="svg8449" viewBox="0 0 55.502756 52.425222" height="14.795563mm" width="15.664111mm"><defs id="defs8451"/><metadata id="metadata8454"><rdf:RDF><cc:Work rdf:about=""><dc:format>image/svg+xml</dc:format><dc:type rdf:resource="http://purl.org/dc/dcmitype/StillImage"/><dc:title/></cc:Work></rdf:RDF></metadata><g transform="translate(-515.18852,-66.812373)" id="layer1"><g id="g8978-3-6-1-3-1-5" transform="translate(-1955.7257,-2982.6719)"><path style="fill:#1a1a1a;fill-opacity:1;fill-rule:nonzero;stroke:#ffffff;stroke-width:7.70905876;stroke-miterlimit:4;stroke-dasharray:none" d="m 2493.949,3054.0068 c -2.9305,0.1938 -5.7266,1.0857 -7.448,2.665 -0.7221,0.6633 -1.2091,1.3157 -1.6012,1.9674 -0.1567,0.038 -0.2742,0.057 -0.4818,0.1154 -0.6283,0.1744 -0.4104,0.4337 0.09,0.6324 -0.4371,0.987 -0.5961,1.9709 -0.5771,2.9561 -0.2416,0.055 -0.5373,0.1005 -0.9688,0.1005 -2.0814,0 -2.5111,10e-4 -5.1042,-0.5623 -2.1652,-0.4694 -2.8038,0.3696 -2.9913,0.9136 -0.4693,1.3367 1.026,3.0456 2.6801,3.8645 0.8383,0.4143 2.0039,0.6941 3.1921,0.8884 -0.2415,0.078 -0.4818,0.1616 -0.7028,0.2459 -1.4796,0.5633 -3.6497,2.1919 -3.6086,3.8946 0.026,0.5211 0.2518,1.4686 1.7417,1.9573 1.4534,0.4793 3.6251,0.6717 5.7065,-1.1443 0.039,-0.034 0.072,-0.043 0.1105,-0.075 -1.1211,1.8424 -3.2964,2.7701 -5.7466,4.8281 -3.5382,2.9719 -5.374,11.2026 2.1331,15.7897 7.5069,4.5869 13.7651,5.8399 22.5249,4.5872 8.7595,-1.2494 17.6866,-9.1746 17.6866,-9.1746 0,0 0.1593,-0.1845 0.3916,-0.5119 0.2313,-0.3273 0.5358,-0.7971 0.8131,-1.3701 0.5543,-1.1461 1.0093,-2.7033 0.6272,-4.3415 -0.1567,-0.6699 -0.7115,-1.3319 -1.5207,-1.9021 -0.2696,-0.1901 -0.5676,-0.3716 -0.8883,-0.537 -1.2826,-0.662 -2.9285,-1.0991 -4.5972,-1.0991 -3.3375,0 -15.2781,0 -14.8862,-4.7179 0.3947,-4.7198 8.262,-5.5305 4.8534,-15.0766 -1.2849,-3.6035 -6.544,-5.2168 -11.4282,-4.8935 z" id="path568-7-1-4-24-9-3-7-2-2-6-7-4"/><g transform="matrix(3.2415544,0,0,3.2415544,-27181.013,5489.1482)" id="g31186-3-3-7-6-3-5-6-8-0-5"><path d="m 9149.6595,-744.06013 c -1.0915,0.91674 -1.6578,3.45627 0.6581,4.87133 2.3158,1.41506 4.2462,1.80153 6.9485,1.41506 2.7023,-0.38547 5.4555,-2.83012 5.4555,-2.83012 0,0 0.8019,-0.90876 0.5662,-1.91938 -0.1288,-0.55124 -1.1324,-1.0925 -2.162,-1.0925 -1.0296,0 -4.7126,0 -4.5917,-1.45501 0.1218,-1.45601 2.5475,-1.70566 1.4959,-4.65063 -0.6341,-1.77857 -4.4069,-1.98728 -5.823,-0.68806 -1.4151,1.30022 -0.5253,2.50757 -0.5253,3.88268 0,1.37512 -0.9307,1.54988 -2.0222,2.46663" style="fill:#ffcb26;fill-opacity:1;fill-rule:nonzero;stroke:none" id="path568-7-1-3-1-3-4-4-3-5-4-1"/><path d="m 9149.6595,-744.06013 c -1.0915,0.91674 -1.6578,3.45627 0.6581,4.87133 2.3158,1.41506 4.2462,1.80153 6.9485,1.41506 2.7023,-0.38547 5.4555,-2.83012 5.4555,-2.83012 0,0 0.8019,-0.90876 0.5662,-1.91938 -0.1288,-0.55124 -1.1324,-1.0925 -2.162,-1.0925 -1.0296,0 -4.7126,0 -4.5917,-1.45501 0.1218,-1.45601 2.5475,-1.70566 1.4959,-4.65063 -0.6341,-1.77857 -4.4069,-1.98728 -5.823,-0.68806 -1.4151,1.30022 -0.5253,2.50757 -0.5253,3.88268 0,1.37512 -0.9307,1.54988 -2.0222,2.46663 z" style="fill:none;stroke:#232020;stroke-width:0.65909773;stroke-linecap:butt;stroke-linejoin:miter;stroke-miterlimit:4;stroke-dasharray:none;stroke-opacity:1" id="path572-3-2-1-1-6-4-9-4-8-5-8"/><path d="m 9154.1548,-748.85127 c 0.2936,0 0.2357,-0.0849 0.4714,-0.23568 0.2886,-0.18375 0.2596,-0.51929 0.071,-0.63713 -0.1618,-0.10086 -0.4604,-0.0469 -0.6132,-0.0469 -0.1108,0 -0.3295,-0.011 -0.4244,-0.024 -0.3535,-0.0469 -0.737,-0.025 -0.755,0.0709 -0.036,0.18475 0.9198,0.19174 0.9198,0.30658 0,0.28062 0.037,0.56623 0.3305,0.56623" style="fill:#232020;fill-opacity:1;fill-rule:nonzero;stroke:none" id="path576-9-0-0-1-4-5-6-1-8-4-7-5"/><path d="m 9152.7442,-749.4882 c -0.026,-0.2916 0.1178,-0.028 -0.2597,-0.27862 0.028,0.019 -0.3156,-0.028 -0.4004,-0.0519 -0.1588,-0.0439 -0.2647,-0.019 -0.5193,0.0519 -0.3416,0.0949 0.099,0.27862 0.4713,0.27862 0.062,0 0.03,0.33654 0.071,0.34453 0.1478,0.026 0.6611,-0.0759 0.6372,-0.34453" style="fill:#232020;fill-opacity:1;fill-rule:nonzero;stroke:none" id="path580-5-4-5-9-5-1-2-6-7-57-6"/><path d="m 9151.8145,-748.89052 c 0.6302,-0.0969 1.0766,-0.0359 1.3632,0.18475 0.2926,0.22469 0.3275,0.55124 0.3445,0.70803 0.043,0.20572 0.078,0.2197 0.1917,0.26663 0.1179,0.0479 0.2946,0.11984 0.4095,0.34853 0.1847,0.37049 -0.2327,0.78392 -0.6012,1.14842 -0.094,0.0919 -0.1778,0.17476 -0.2307,0.23968 -0.1718,0.20971 -0.4254,0.16177 -0.6301,0.12383 -0.3126,-0.0579 -0.7151,-0.13182 -1.2633,0.34452 -0.6421,0.56024 -1.3122,0.50132 -1.7606,0.35352 -0.4594,-0.15079 -0.5333,-0.44339 -0.5373,-0.60417 -0.013,-0.52528 0.6571,-1.0276 1.1135,-1.20136 0.068,-0.026 0.1408,-0.0519 0.2157,-0.0759 -0.3665,-0.0599 -0.725,-0.1468 -0.9836,-0.27463 -0.5103,-0.25265 -0.9727,-0.77993 -0.8279,-1.19237 0.058,-0.16777 0.2557,-0.42641 0.9237,-0.28161 0.7999,0.17376 0.9328,0.17376 1.5749,0.17376 0.4204,0 0.5113,-0.12283 0.5123,-0.12483 l 0.05,-0.1408 0.1358,0.004 z" style="fill:#e3243c;fill-opacity:1;fill-rule:nonzero;stroke:none" id="path584-7-1-1-3-8-7-3-59-7-6-9"/><path d="m 9151.8145,-748.89052 c 0.6302,-0.0969 1.0766,-0.0359 1.3632,0.18475 0.2926,0.22469 0.3275,0.55124 0.3445,0.70803 0.043,0.20572 0.078,0.2197 0.1917,0.26663 0.1179,0.0479 0.2946,0.11984 0.4095,0.34853 0.1847,0.37049 -0.2327,0.78392 -0.6012,1.14842 -0.094,0.0919 -0.1778,0.17476 -0.2307,0.23968 -0.1718,0.20971 -0.4254,0.16177 -0.6301,0.12383 -0.3126,-0.0579 -0.7151,-0.13182 -1.2633,0.34452 -0.6421,0.56024 -1.3122,0.50132 -1.7606,0.35352 -0.4594,-0.15079 -0.5333,-0.44339 -0.5373,-0.60417 -0.013,-0.52528 0.6571,-1.0276 1.1135,-1.20136 0.068,-0.026 0.1408,-0.0519 0.2157,-0.0759 -0.3665,-0.0599 -0.725,-0.1468 -0.9836,-0.27463 -0.5103,-0.25265 -0.9727,-0.77993 -0.8279,-1.19237 0.058,-0.16777 0.2557,-0.42641 0.9237,-0.28161 0.7999,0.17376 0.9328,0.17376 1.5749,0.17376 0.4204,0 0.5113,-0.12283 0.5123,-0.12483 l 0.05,-0.1408 0.1358,0.004 z" style="fill:none;stroke:#232020;stroke-width:0.49931642;stroke-linecap:butt;stroke-linejoin:miter;stroke-miterlimit:4;stroke-dasharray:none;stroke-opacity:1" id="path588-9-3-5-6-3-6-5-8-2-5-10"/></g></g></g></svg>