<?xml version="1.0" standalone="no"?><!DOCTYPE svg PUBLIC "-//W3C//DTD SVG 20010904//EN"  "http://www.w3.org/TR/2001/REC-SVG-20010904/DTD/svg10.dtd"><svg version="1.0" xmlns="http://www.w3.org/2000/svg" width="300.000000pt" height="369.000000pt" viewBox="0 0 300.000000 369.000000" preserveAspectRatio="xMidYMid meet"><g transform="translate(0.000000,369.000000) scale(0.100000,-0.100000)" fill="#000000" stroke="none"><path d="M251 2327 c-180 -12 -218 -42 -228 -180 -5 -66 -3 -81 21 -132 15 -34 34 -59 45 -62 11 -3 18 -10 15 -16 -3 -9 180 -11 733 -8 468 2 880 -2 1126 -10 l387 -12 0 -26 c-1 -175 -22 -900 -26 -914 -6 -18 -27 -18 -547 -13 -674 6 -1363 21 -1399 31 l-28 7 0 157 c1 86 5 282 9 436 5 155 7 293 4 308 -6 31 -30 31 -25 1 1 -10 -3 -218 -9 -461 l-13 -443 -43 0 -43 0 0 -50 c0 -39 3 -50 16 -50 13 0 15 7 9 40 -7 39 -6 40 22 40 17 0 33 -3 36 -7 4 -3 40 -7 79 -8 40 -1 287 -7 548 -14 648 -16 1223 -23 1353 -15 82 5 107 9 107 20 0 10 -7 13 -25 8 l-25 -6 5 173 c3 96 8 312 11 480 l6 306 77 7 c42 3 78 11 79 16 2 6 10 10 18 10 7 0 26 24 41 53 24 45 28 63 27 132 0 44 -5 89 -12 101 -6 11 -33 32 -60 47 -87 47 -174 55 -622 57 -1307 5 -1566 4 -1669 -3z m2151 -36 c39 -5 90 -21 120 -38 50 -27 52 -30 65 -89 13 -57 12 -65 -8 -119 -12 -32 -34 -69 -48 -83 l-26 -24 -455 7 c-250 4 -790 8 -1200 9 l-745 2 -34 65 c-30 58 -32 70 -27 122 8 75 37 132 73 142 15 4 68 10 118 14 147 10 2092 3 2167 -8z"/><path d="M673 1748 l-73 -10 0 -46 c0 -26 -1 -141 -2 -257 l-3 -210 173 -3 c159 -3 175 -2 187 15 11 14 14 61 13 218 0 110 2 214 6 231 12 52 -10 64 -114 64 -49 0 -94 2 -102 4 -7 2 -46 -1 -85 -6z m270 -29 c1 -2 1 -111 -1 -243 l-4 -239 -60 7 c-34 3 -105 6 -158 6 l-98 0 4 218 c1 119 3 225 4 234 0 12 11 18 43 21 47 5 267 2 270 -4z"/><path d="M1193 1743 l-43 -4 0 -47 c0 -26 -2 -142 -4 -258 l-5 -212 172 -4 c165 -5 173 -4 189 16 16 19 18 43 16 221 -1 110 1 214 5 230 13 55 2 60 -150 61 -76 1 -157 -1 -180 -3z m260 -23 l50 0 -7 -42 c-4 -23 -7 -132 -6 -242 l0 -199 -82 6 c-46 4 -117 7 -160 7 l-76 0 3 226 c1 124 6 229 11 234 12 12 87 18 158 14 32 -2 81 -4 109 -4z"/><path d="M1767 1730 c-32 -4 -60 -9 -62 -11 -2 -2 -6 -118 -8 -257 l-5 -252 22 -1 c11 -1 90 -3 175 -5 137 -3 156 -2 167 14 11 13 13 61 12 212 -1 107 1 214 6 237 6 35 5 43 -11 51 -25 14 -226 22 -296 12z m275 -262 c-2 -134 -5 -243 -5 -244 -1 0 -72 2 -159 4 l-156 4 3 222 c2 121 4 226 4 233 1 16 34 20 186 22 l130 1 -3 -242z"/><path d="M2414 923 c4 -21 10 -47 13 -57 5 -19 -8 -19 -623 -13 -346 4 -658 11 -692 16 -35 5 -190 10 -345 10 -155 0 -330 3 -389 7 -78 5 -108 4 -108 -5 0 -6 5 -11 10 -11 15 0 12 -21 -13 -86 -13 -32 -34 -108 -47 -167 -23 -105 -23 -110 -6 -142 19 -35 65 -55 128 -55 l35 0 7 -62 c17 -147 113 -258 272 -312 123 -42 310 11 391 109 78 95 93 129 93 208 l0 50 31 -7 c17 -3 74 -6 125 -6 l94 0 0 -55 c0 -175 206 -347 399 -333 180 13 361 175 361 323 l0 32 83 1 c171 3 247 42 247 126 l0 26 245 0 c135 0 245 4 245 9 0 12 -264 24 -349 15 -38 -3 -85 -4 -104 0 -31 6 -36 11 -46 51 -6 24 -11 46 -11 49 0 3 119 5 265 3 210 -2 266 0 270 11 2 7 -3 16 -11 19 -9 3 -120 4 -248 1 -127 -3 -245 -4 -262 -1 -28 4 -35 12 -53 60 -27 70 -26 81 4 89 23 6 24 9 19 62 -6 61 -10 72 -26 72 -6 0 -8 -14 -4 -37z m-1264 -84 c41 -5 331 -11 644 -13 l570 -3 23 -69 c13 -38 32 -89 42 -114 29 -68 36 -142 17 -178 -22 -42 -107 -72 -206 -72 -74 0 -100 8 -100 31 0 10 -12 48 -27 85 -46 111 -150 175 -320 197 -70 9 -90 8 -145 -8 -34 -10 -81 -29 -103 -43 -47 -29 -121 -128 -142 -189 l-15 -43 -94 5 c-122 6 -164 14 -164 31 0 8 -13 42 -28 77 -48 104 -149 166 -313 190 -66 9 -86 8 -141 -7 -96 -27 -140 -57 -197 -137 -27 -39 -53 -84 -56 -99 -7 -34 -36 -42 -101 -28 -67 15 -73 34 -47 167 12 60 34 138 50 174 l28 67 375 -6 c206 -2 409 -9 450 -15z m-327 -149 c88 -14 161 -51 194 -99 15 -22 33 -40 40 -41 15 0 49 -91 58 -157 7 -53 -16 -153 -35 -153 -5 0 -11 -9 -15 -19 -17 -54 -121 -125 -229 -156 -189 -55 -426 117 -426 311 0 78 18 129 70 198 47 63 72 81 144 106 58 21 116 24 199 10z m1015 -20 c100 -17 202 -83 202 -129 0 -6 7 -11 15 -11 8 0 25 -19 37 -42 18 -35 22 -60 22 -133 1 -88 0 -92 -37 -147 -54 -82 -121 -128 -234 -161 -101 -30 -261 20 -339 105 -77 86 -107 205 -74 303 14 42 80 138 115 167 37 32 176 70 220 61 11 -2 44 -8 73 -13z"/><path d="M683 479 c-43 -27 -77 -98 -68 -141 21 -95 113 -151 197 -119 42 16 108 88 108 118 -1 45 -35 108 -71 131 -51 31 -126 36 -166 11z m137 -30 c63 -33 88 -99 55 -146 -24 -34 -79 -63 -120 -63 -29 0 -44 7 -70 33 -57 57 -59 112 -4 166 37 38 80 41 139 10z"/><path d="M1691 458 c-72 -49 -88 -132 -40 -203 58 -84 163 -85 237 -1 75 86 13 208 -114 222 -41 5 -55 2 -83 -18z m136 -29 c31 -15 48 -31 58 -56 22 -52 19 -65 -24 -107 -31 -30 -49 -39 -85 -43 -43 -5 -48 -3 -86 35 -33 33 -40 46 -40 80 0 32 7 48 34 76 40 43 77 47 143 15z"/></g></svg>