<?xml version="1.0" encoding="UTF-8" standalone="no"?>
<svg xmlns="http://www.w3.org/2000/svg" width="24" height="24"><path d="M11.360 0.841 C 10.107 1.015,9.099 1.526,8.237 2.425 C 7.673 3.013,7.314 3.607,7.061 4.374 C 6.488 6.105,6.874 8.040,8.060 9.390 C 8.705 10.124,9.463 10.634,10.359 10.935 C 10.690 11.046,10.686 11.051,10.200 11.119 C 10.013 11.145,9.617 11.229,9.321 11.304 C 6.883 11.928,4.762 13.625,3.602 15.880 C 3.343 16.385,3.294 16.512,2.276 19.311 C 1.317 21.949,1.322 21.933,1.495 22.300 C 1.676 22.680,2.001 22.892,2.401 22.890 C 2.805 22.887,3.155 22.655,3.314 22.284 C 3.358 22.183,3.781 21.033,4.255 19.729 C 5.307 16.835,5.396 16.636,6.002 15.820 C 6.354 15.346,6.642 15.034,7.048 14.691 C 8.065 13.828,9.282 13.274,10.600 13.072 C 11.061 13.001,12.944 13.002,13.400 13.073 C 15.711 13.431,17.656 14.846,18.662 16.900 C 18.781 17.142,19.267 18.411,19.742 19.720 C 20.218 21.029,20.642 22.183,20.686 22.284 C 20.845 22.655,21.195 22.887,21.599 22.890 C 21.999 22.892,22.324 22.680,22.505 22.300 C 22.678 21.933,22.683 21.949,21.724 19.311 C 20.706 16.512,20.657 16.385,20.398 15.880 C 19.539 14.211,18.104 12.795,16.407 11.944 C 15.670 11.574,14.573 11.227,13.800 11.119 C 13.314 11.051,13.309 11.046,13.641 10.935 C 14.400 10.682,15.045 10.279,15.644 9.682 C 16.413 8.917,16.876 8.056,17.106 6.960 C 17.216 6.440,17.206 5.506,17.086 4.963 C 16.862 3.954,16.431 3.131,15.747 2.412 C 15.038 1.666,13.998 1.094,12.993 0.900 C 12.593 0.822,11.720 0.791,11.360 0.841 M12.560 2.857 C 14.231 3.161,15.380 4.708,15.169 6.370 C 15.006 7.661,14.176 8.655,12.920 9.064 C 12.612 9.164,12.525 9.174,12.000 9.174 C 11.475 9.174,11.388 9.164,11.080 9.064 C 9.822 8.654,8.996 7.664,8.831 6.370 C 8.563 4.266,10.463 2.476,12.560 2.857" stroke="none" fill-rule="evenodd"/></svg>