<?xml version="1.0" encoding="UTF-8" standalone="no"?>
<svg xmlns="http://www.w3.org/2000/svg" width="24" height="24"><path d="M1.643 2.067 C 1.256 2.208,0.968 2.666,1.009 3.074 C 1.027 3.249,7.561 21.168,7.721 21.480 C 8.009 22.041,8.813 22.169,9.269 21.726 C 9.557 21.446,9.575 21.374,9.603 20.320 C 9.638 19.056,9.751 18.558,10.070 18.261 C 10.326 18.022,11.019 17.948,11.990 18.058 C 12.782 18.146,12.988 18.100,13.291 17.765 C 13.497 17.536,13.576 17.243,13.540 16.836 C 13.524 16.661,13.524 16.339,13.540 16.119 L 13.569 15.720 16.374 18.507 C 18.175 20.296,19.265 21.349,19.418 21.448 C 19.786 21.687,20.137 21.781,20.640 21.776 C 21.335 21.769,21.863 21.536,22.354 21.020 C 23.296 20.027,23.201 18.614,22.107 17.346 C 21.995 17.217,21.836 17.068,21.752 17.015 C 21.259 16.704,20.624 16.853,20.333 17.348 C 20.236 17.513,20.220 17.582,20.221 17.840 C 20.222 18.192,20.262 18.283,20.580 18.647 C 20.820 18.921,21.000 19.239,21.000 19.390 C 21.000 19.650,20.744 19.853,20.529 19.764 C 20.467 19.738,19.187 18.487,17.683 16.983 L 14.949 14.249 15.444 14.225 C 15.717 14.212,16.120 14.205,16.340 14.209 C 16.786 14.218,16.927 14.177,17.169 13.965 C 17.445 13.722,17.487 13.563,17.501 12.702 C 17.515 11.861,17.577 11.442,17.733 11.134 C 17.847 10.910,17.916 10.842,18.149 10.724 C 18.466 10.565,18.816 10.511,19.720 10.484 C 20.493 10.460,20.596 10.449,20.743 10.372 C 21.107 10.179,21.355 9.738,21.305 9.371 C 21.270 9.116,21.092 8.812,20.902 8.682 C 20.798 8.610,17.442 7.403,11.500 5.299 C 4.381 2.778,2.210 2.024,2.040 2.015 C 1.907 2.007,1.750 2.028,1.643 2.067 M12.700 7.847 C 14.878 8.618,16.665 9.254,16.672 9.260 C 16.679 9.266,16.593 9.364,16.482 9.478 C 16.094 9.876,15.826 10.370,15.671 10.971 C 15.609 11.210,15.564 11.315,15.530 11.302 C 15.461 11.275,8.715 6.523,8.640 6.448 C 8.587 6.395,8.589 6.392,8.660 6.417 C 8.704 6.433,10.522 7.077,12.700 7.847 M10.320 10.092 C 12.157 11.387,13.664 12.458,13.669 12.473 C 13.674 12.488,13.578 12.544,13.455 12.597 C 12.758 12.899,12.191 13.461,11.918 14.120 C 11.868 14.241,11.814 14.355,11.799 14.372 C 11.784 14.390,10.632 12.878,9.239 11.012 C 7.846 9.147,6.678 7.585,6.643 7.543 C 6.558 7.439,6.511 7.407,10.320 10.092 M7.956 12.640 C 10.253 15.716,10.472 16.022,10.390 16.045 C 10.341 16.059,10.158 16.101,9.985 16.140 C 9.811 16.178,9.506 16.291,9.305 16.391 C 9.009 16.537,8.877 16.635,8.609 16.906 C 8.416 17.100,8.270 17.219,8.259 17.190 C 8.202 17.031,5.462 9.542,5.396 9.360 C 5.337 9.201,5.331 9.157,5.373 9.200 C 5.405 9.233,6.568 10.781,7.956 12.640" stroke="none" fill-rule="evenodd"/></svg>