<?xml version="1.0" encoding="UTF-8" standalone="no"?>
<svg xmlns="http://www.w3.org/2000/svg" width="24" height="24"><g><path fill-rule="evenodd" d="M5.161 3H18.84c.527 0 .982 0 1.356.03.395.033.789.104 1.167.297a3 3 0 0 1 1.311 1.311c.193.378.264.772.296 1.167.031.375.031.83.031 1.356V8.5a1 1 0 0 1-1 1 2.5 2.5 0 0 0 0 5 1 1 0 0 1 1 1v1.339c0 .527 0 .982-.03 1.356-.033.395-.104.789-.297 1.167a3 3 0 0 1-1.311 1.311c-.378.193-.772.264-1.167.296-.375.031-.83.031-1.356.031H5.16c-.527 0-.981 0-1.356-.03-.395-.033-.789-.104-1.167-.297a3 3 0 0 1-1.311-1.311c-.193-.378-.264-.772-.296-1.167C1 17.82 1 17.365 1 16.838V15.5a1 1 0 0 1 1-1 2.5 2.5 0 0 0 0-5 1 1 0 0 1-1-1V7.161c0-.527 0-.981.03-1.356.033-.395.104-.789.297-1.167a3 3 0 0 1 1.311-1.311c.378-.193.772-.264 1.167-.296C4.18 3 4.635 3 5.161 3M3.968 5.024c-.272.022-.373.06-.422.085a1 1 0 0 0-.437.437c-.025.05-.063.15-.085.422C3 6.25 3 6.623 3 7.2v.412a4.502 4.502 0 0 1 0 8.777v.411c0 .577 0 .949.024 1.232.022.272.06.372.085.422a1 1 0 0 0 .437.437c.05.025.15.063.422.085C4.25 19 4.623 19 5.2 19h13.6c.577 0 .949 0 1.232-.024.272-.022.372-.06.422-.085a1 1 0 0 0 .437-.437c.025-.05.063-.15.085-.422C21 17.75 21 17.377 21 16.8v-.412a4.502 4.502 0 0 1 0-8.776V7.2c0-.577 0-.949-.024-1.232-.022-.272-.06-.373-.085-.422a1 1 0 0 0-.437-.437c-.05-.025-.15-.063-.422-.085C19.75 5 19.377 5 18.8 5H5.2c-.577 0-.949 0-1.232.024" clip-rule="evenodd"/><path d="M9.138 16.177a.832.832 0 0 1-1.199-1.154l6.917-7.193a.836.836 0 1 1 1.204 1.16zm5.554.823q-.635 0-1.16-.32a2.5 2.5 0 0 1-.833-.867 2.4 2.4 0 0 1-.314-1.213q0-.654.32-1.2.321-.547.846-.873.525-.327 1.141-.327.635 0 1.16.327.527.32.834.866.315.54.314 1.207 0 .667-.314 1.213-.308.54-.833.867-.526.32-1.16.32m0-1.533q.225 0 .41-.12a.9.9 0 0 0 .308-.314.85.85 0 0 0 .116-.433.8.8 0 0 0-.116-.427.9.9 0 0 0-.307-.32.773.773 0 0 0-.827 0 .9.9 0 0 0-.302.32.8.8 0 0 0-.115.427q0 .234.115.433a.94.94 0 0 0 .302.314q.192.12.416.12M9.308 11.8q-.635 0-1.16-.32a2.46 2.46 0 0 1-.84-.867A2.43 2.43 0 0 1 7 9.4q0-.654.32-1.2.32-.547.847-.873Q8.692 7 9.307 7q.635 0 1.154.327.526.32.84.866.315.54.314 1.207 0 .667-.314 1.213-.314.54-.84.867-.519.32-1.153.32m0-1.533a.74.74 0 0 0 .41-.12.9.9 0 0 0 .308-.314.85.85 0 0 0 .115-.433.902.902 0 0 0-.423-.747.772.772 0 0 0-.827 0 .9.9 0 0 0-.301.32.852.852 0 0 0 0 .86.94.94 0 0 0 .301.314q.192.12.417.12"/></g></svg>