<?xml version="1.0" encoding="UTF-8" standalone="no"?>
<svg xmlns="http://www.w3.org/2000/svg" width="24" height="24"><path d="M11.550 1.123 C 11.248 1.195,5.166 3.492,4.740 3.696 C 4.039 4.031,3.593 4.467,3.294 5.107 C 3.015 5.705,3.026 5.554,3.009 9.120 C 2.999 11.299,3.009 12.482,3.039 12.780 C 3.212 14.490,3.994 16.259,5.303 17.900 C 5.720 18.422,7.134 19.848,7.700 20.316 C 8.887 21.298,10.672 22.488,11.342 22.744 C 11.739 22.895,12.261 22.895,12.659 22.743 C 13.415 22.455,15.435 21.075,16.600 20.051 C 17.257 19.474,18.253 18.451,18.695 17.900 C 19.989 16.288,20.788 14.487,20.958 12.806 C 21.015 12.241,21.014 6.391,20.957 5.973 C 20.866 5.308,20.574 4.727,20.091 4.250 C 19.842 4.004,19.722 3.923,19.308 3.722 C 18.836 3.492,12.779 1.202,12.430 1.121 C 12.224 1.074,11.756 1.075,11.550 1.123 M15.104 4.234 C 16.796 4.869,18.279 5.438,18.400 5.498 C 18.672 5.635,18.783 5.734,18.894 5.940 C 18.980 6.099,18.980 6.117,18.993 9.120 C 19.007 12.360,18.993 12.707,18.814 13.440 C 18.268 15.683,16.250 18.096,13.260 20.081 C 12.620 20.505,12.065 20.840,12.000 20.840 C 11.937 20.840,11.206 20.399,10.655 20.028 C 9.582 19.306,8.730 18.610,7.880 17.760 C 6.149 16.028,5.217 14.329,5.039 12.580 C 5.009 12.283,4.998 11.156,5.007 9.120 C 5.020 6.117,5.020 6.099,5.106 5.940 C 5.212 5.744,5.326 5.637,5.560 5.516 C 5.743 5.421,11.904 3.088,11.984 3.083 C 12.008 3.081,13.412 3.599,15.104 4.234 M15.180 8.059 C 15.092 8.092,15.011 8.119,15.001 8.119 C 14.990 8.120,14.086 9.015,12.991 10.110 L 11.000 12.099 10.270 11.371 C 9.809 10.911,9.485 10.620,9.391 10.581 C 9.200 10.502,8.799 10.503,8.609 10.582 C 8.270 10.723,8.001 11.130,8.001 11.500 C 8.001 11.883,8.091 12.001,9.346 13.245 C 10.580 14.470,10.606 14.489,11.000 14.489 C 11.414 14.489,11.326 14.565,13.914 11.986 C 15.716 10.191,16.349 9.536,16.408 9.405 C 16.567 9.057,16.491 8.601,16.228 8.326 C 15.960 8.047,15.514 7.933,15.180 8.059" stroke="none" fill-rule="evenodd"/></svg>