<?xml version="1.0" encoding="UTF-8" standalone="no"?>
<svg xmlns="http://www.w3.org/2000/svg" width="24" height="24"><path fill-rule="evenodd" d="M2.15 11.25C2.15 5.81 6.56 1.4 12 1.4c5.44 0 9.85 4.41 9.85 9.85v6.5c0 1.317-.595 2.5-1.7 3.047-.195.097-.367.17-.51.232l-.01.005-.03.013-.113.048a67.287 67.287 0 0 1-1.69.698 27.76 27.76 0 0 1-1.454.534 8.96 8.96 0 0 1-.64.187c-.177.044-.398.09-.603.088-.373-.001-1.447-.138-2.336-.258a176.532 176.532 0 0 1-1.635-.229l-.148-.021a.85.85 0 0 1 .246-1.683l.146.022a173.326 173.326 0 0 0 1.618.226c.96.13 1.885.242 2.116.244-.004 0-.003 0 .003-.001.017-.003.075-.01.188-.039.138-.033.312-.085.515-.151.22-.073.464-.16.716-.253a3.345 3.345 0 0 1-1.379-2.709v-2a3.35 3.35 0 0 1 5-2.916V11.25a8.15 8.15 0 0 0-16.3 0v1.584a3.35 3.35 0 0 1 5 2.916v2a3.35 3.35 0 1 1-6.7 0v-6.5m1.7 6.5a1.65 1.65 0 1 0 3.3 0v-2a1.65 1.65 0 0 0-3.3 0v2m16.3-2a1.65 1.65 0 0 0-3.3 0v2a1.65 1.65 0 0 0 3.3 0z" clip-rule="evenodd"/></svg>