<?xml version="1.0" encoding="UTF-8" standalone="no"?>
<svg xmlns="http://www.w3.org/2000/svg" width="24" height="24"><path d="M11.280 2.023 C 11.203 2.032,10.969 2.059,10.760 2.083 C 8.342 2.359,5.978 3.639,4.370 5.540 C 2.343 7.939,1.570 11.126,2.263 14.232 C 3.004 17.554,5.530 20.360,8.764 21.452 C 11.191 22.272,13.791 22.147,16.127 21.099 C 18.803 19.898,20.877 17.470,21.627 14.660 C 21.703 14.374,21.774 14.116,21.783 14.086 C 21.795 14.048,21.851 14.077,21.965 14.180 C 22.220 14.410,22.440 14.491,22.760 14.473 C 23.281 14.444,23.640 14.090,23.673 13.574 C 23.703 13.104,23.682 13.074,22.445 11.829 C 21.216 10.592,21.120 10.520,20.700 10.520 C 20.280 10.520,20.184 10.592,18.955 11.829 C 17.718 13.074,17.697 13.104,17.727 13.574 C 17.760 14.090,18.119 14.444,18.640 14.473 C 18.988 14.493,19.200 14.402,19.521 14.096 C 19.813 13.818,19.818 13.844,19.598 14.500 C 19.296 15.400,18.805 16.296,18.208 17.033 C 16.195 19.517,12.896 20.562,9.820 19.691 C 8.543 19.329,7.455 18.703,6.468 17.761 C 5.750 17.075,5.258 16.401,4.817 15.500 C 3.994 13.816,3.792 11.942,4.234 10.080 C 4.411 9.337,4.853 8.315,5.281 7.660 C 6.275 6.140,7.742 5.000,9.440 4.427 C 11.938 3.585,14.628 4.004,16.747 5.565 C 17.496 6.117,18.190 6.863,18.792 7.766 C 19.045 8.145,19.101 8.204,19.288 8.294 C 19.593 8.440,19.754 8.459,20.026 8.380 C 20.341 8.289,20.605 8.029,20.696 7.723 C 20.731 7.603,20.760 7.464,20.760 7.414 C 20.760 7.221,20.618 6.921,20.299 6.440 C 18.702 4.031,16.183 2.480,13.220 2.080 C 12.885 2.035,11.522 1.995,11.280 2.023 M11.673 6.063 C 11.552 6.100,11.421 6.185,11.303 6.303 C 10.988 6.619,10.996 6.529,11.009 9.585 L 11.020 12.260 11.113 12.435 C 11.165 12.531,11.255 12.655,11.313 12.711 C 11.372 12.766,12.131 13.285,13.000 13.864 C 14.735 15.020,14.797 15.051,15.187 14.969 C 15.739 14.853,16.081 14.348,15.969 13.813 C 15.883 13.405,15.822 13.351,14.351 12.368 L 13.000 11.466 13.000 9.180 C 13.000 6.568,13.004 6.611,12.697 6.303 C 12.418 6.024,12.067 5.942,11.673 6.063" stroke="none" fill-rule="evenodd"/></svg>