<?xml version="1.0" encoding="UTF-8" standalone="no"?>
<svg xmlns="http://www.w3.org/2000/svg" width="16" height="16" fill="none"><path fill="#4562A2" d="M12.337 12.493 5.83 13.936l.144.651a.667.667 0 0 1-.507.795l-.65.145a.667.667 0 0 1-.796-.507l-.144-.65-.65.144L2.07 9.307l-.651.144-.577-2.604.65-.144-.432-1.953a1.333 1.333 0 0 1 1.013-1.59l9.112-2.02a1.333 1.333 0 0 1 1.59 1.013l.433 1.953.651-.144.577 2.603-.65.144 1.154 5.207-.651.144.144.651a.667.667 0 0 1-.506.796l-.651.144a.667.667 0 0 1-.795-.507l-.145-.65M2.363 4.462 3.66 10.32l9.112-2.02-1.298-5.858-9.112 2.02m1.587 7.16.288 1.301 2.604-.577-.289-1.302-2.603.577m6.508-1.444.289 1.302 2.603-.577-.288-1.302-2.604.577"/></svg>