<?xml version="1.0" encoding="UTF-8" standalone="no"?>
<svg xmlns="http://www.w3.org/2000/svg" width="22" height="23" viewBox="0 0 22 23"><path d="M8.669 1.030 C 8.139 1.092,7.660 1.331,7.240 1.742 C 6.945 2.031,6.748 2.354,6.607 2.781 C 6.529 3.018,6.515 3.129,6.515 3.502 C 6.515 3.878,6.529 3.984,6.611 4.235 C 6.747 4.645,6.942 4.962,7.245 5.261 C 7.544 5.558,7.807 5.725,8.172 5.852 C 9.088 6.170,10.076 5.944,10.762 5.257 C 11.954 4.065,11.652 2.083,10.156 1.286 C 9.753 1.071,9.172 0.971,8.669 1.030 M9.261 3.076 C 9.389 3.154,9.497 3.351,9.497 3.508 C 9.497 3.755,9.252 3.997,9.002 3.997 C 8.642 3.997,8.396 3.583,8.563 3.260 C 8.685 3.026,9.030 2.935,9.261 3.076 M8.251 6.822 C 7.175 7.104,6.345 7.950,6.086 9.030 C 6.017 9.317,6.014 9.472,6.014 12.248 L 6.013 15.164 5.266 15.786 C 4.854 16.128,4.462 16.428,4.395 16.452 C 4.316 16.480,4.003 16.497,3.520 16.498 C 2.701 16.501,2.423 16.532,2.042 16.664 C 1.187 16.961,0.443 17.710,0.167 18.552 C 0.030 18.970,-0.013 19.290,0.012 19.707 C 0.040 20.153,0.107 20.417,0.297 20.825 C 0.683 21.650,1.384 22.230,2.307 22.487 C 2.569 22.560,2.689 22.565,4.362 22.578 C 5.469 22.587,6.246 22.577,6.423 22.554 C 6.829 22.499,7.268 22.343,7.568 22.146 C 7.711 22.052,10.006 20.108,12.668 17.825 C 15.348 15.528,17.582 13.639,17.673 13.594 C 17.824 13.519,17.910 13.510,18.682 13.489 C 19.565 13.465,19.766 13.432,20.216 13.239 C 20.888 12.951,21.535 12.272,21.795 11.582 C 22.012 11.004,22.055 10.288,21.906 9.735 C 21.671 8.863,21.078 8.168,20.234 7.776 C 19.683 7.520,19.588 7.510,17.725 7.525 L 16.078 7.538 15.712 7.639 C 15.276 7.758,14.633 8.063,14.297 8.311 C 14.164 8.408,13.606 8.860,13.057 9.313 C 12.509 9.767,12.046 10.143,12.029 10.149 C 12.012 10.155,11.991 9.932,11.982 9.654 C 11.967 9.215,11.950 9.103,11.853 8.808 C 11.527 7.823,10.726 7.073,9.723 6.817 C 9.343 6.720,8.633 6.722,8.251 6.822 M9.444 8.829 C 9.526 8.870,9.656 8.974,9.732 9.058 C 9.989 9.343,9.989 9.346,10.003 10.653 L 10.015 11.829 9.039 12.633 C 8.502 13.076,8.046 13.444,8.026 13.451 C 8.003 13.459,7.994 12.764,8.001 11.471 C 8.013 9.252,8.001 9.357,8.271 9.058 C 8.407 8.908,8.542 8.819,8.726 8.759 C 8.884 8.707,9.282 8.746,9.444 8.829 M19.456 9.614 C 20.069 9.937,20.174 10.765,19.660 11.228 C 19.393 11.469,19.327 11.484,18.370 11.514 C 17.629 11.537,17.472 11.552,17.252 11.622 C 16.927 11.725,16.535 11.921,16.298 12.098 C 16.198 12.174,13.947 14.094,11.296 16.366 C 7.798 19.365,6.442 20.507,6.346 20.533 C 6.268 20.555,5.538 20.570,4.539 20.570 C 2.944 20.570,2.853 20.566,2.664 20.496 C 2.422 20.405,2.168 20.150,2.073 19.900 C 2.023 19.769,2.011 19.662,2.024 19.456 C 2.051 19.037,2.250 18.753,2.640 18.577 C 2.787 18.511,2.909 18.500,3.758 18.480 C 4.672 18.458,4.724 18.453,5.005 18.356 C 5.322 18.247,5.544 18.130,5.775 17.952 C 5.856 17.889,6.862 17.053,8.012 16.094 C 10.144 14.314,14.793 10.467,15.290 10.071 C 15.441 9.950,15.682 9.796,15.824 9.728 C 16.275 9.514,16.403 9.500,17.912 9.508 L 19.268 9.515 19.456 9.614" stroke="none" fill-rule="evenodd"/></svg>