<?xml version="1.0" encoding="UTF-8" standalone="no"?>
<svg xmlns="http://www.w3.org/2000/svg" width="24" height="24"><path d="M20.693 1.459 C 20.403 1.540,2.688 8.454,2.321 8.629 C 1.708 8.921,1.389 9.390,1.389 10.000 C 1.389 10.540,1.645 10.980,2.126 11.269 C 2.244 11.340,3.987 12.038,6.000 12.821 C 8.013 13.605,9.681 14.267,9.707 14.293 C 9.733 14.319,10.369 15.924,11.121 17.860 C 11.872 19.796,12.551 21.515,12.630 21.679 C 12.921 22.291,13.386 22.608,14.000 22.610 C 14.609 22.612,15.078 22.293,15.371 21.679 C 15.580 21.238,22.474 3.549,22.547 3.264 C 22.635 2.922,22.603 2.508,22.468 2.232 C 22.333 1.957,22.042 1.666,21.766 1.531 C 21.498 1.401,21.016 1.368,20.693 1.459 M14.075 8.505 L 10.250 12.330 7.285 11.178 C 5.654 10.544,4.320 10.013,4.320 9.999 C 4.320 9.978,17.805 4.691,17.880 4.682 C 17.891 4.681,16.179 6.401,14.075 8.505 M19.267 6.250 C 19.238 6.322,18.047 9.373,16.620 13.030 C 15.193 16.687,14.014 19.680,14.000 19.680 C 13.986 19.680,13.456 18.346,12.822 16.715 L 11.670 13.750 15.485 9.935 C 17.583 7.837,19.305 6.120,19.310 6.120 C 19.316 6.120,19.297 6.179,19.267 6.250" stroke="none" fill-rule="evenodd"/></svg>