<?xml version="1.0" encoding="UTF-8" standalone="no"?>
<svg xmlns="http://www.w3.org/2000/svg" width="24" height="24"><path d="M4.117 1.054 C 3.705 1.166,3.320 1.500,3.126 1.913 L 3.020 2.140 3.020 12.001 L 3.020 21.862 3.150 22.125 C 3.306 22.442,3.592 22.723,3.911 22.873 L 4.140 22.980 12.000 22.980 L 19.860 22.980 20.089 22.873 C 20.408 22.723,20.694 22.442,20.850 22.125 L 20.980 21.862 20.980 12.000 L 20.980 2.138 20.850 1.875 C 20.694 1.558,20.408 1.277,20.089 1.127 L 19.860 1.020 12.080 1.012 C 5.999 1.007,4.260 1.016,4.117 1.054 M19.000 12.000 L 19.000 21.000 12.000 21.000 L 5.000 21.000 5.000 12.000 L 5.000 3.000 12.000 3.000 L 19.000 3.000 19.000 12.000 M6.754 4.063 C 6.483 4.146,6.184 4.431,6.082 4.703 C 6.003 4.915,6.000 5.002,6.000 7.000 C 6.000 8.976,6.004 9.087,6.080 9.290 C 6.181 9.560,6.438 9.817,6.713 9.921 C 6.916 9.998,7.039 10.000,12.000 10.000 C 16.961 10.000,17.084 9.998,17.287 9.921 C 17.562 9.817,17.819 9.560,17.920 9.290 C 17.996 9.087,18.000 8.976,18.000 7.000 C 18.000 5.002,17.997 4.915,17.918 4.703 C 17.812 4.420,17.518 4.146,17.229 4.060 C 16.932 3.972,7.041 3.974,6.754 4.063 M16.000 7.000 L 16.000 8.000 12.000 8.000 L 8.000 8.000 8.000 7.000 L 8.000 6.000 12.000 6.000 L 16.000 6.000 16.000 7.000 M13.673 13.063 C 13.312 13.174,13.000 13.609,13.000 14.000 C 13.000 14.237,13.120 14.514,13.303 14.697 C 13.600 14.994,13.644 15.000,15.500 15.000 C 17.356 15.000,17.400 14.994,17.697 14.697 C 17.880 14.514,18.000 14.237,18.000 14.000 C 18.000 13.598,17.688 13.173,17.310 13.061 C 17.018 12.974,13.956 12.976,13.673 13.063" stroke="none" fill-rule="evenodd"/></svg>