<?xml version="1.0" encoding="UTF-8" standalone="no"?>
<svg xmlns="http://www.w3.org/2000/svg" width="24" height="24"><path d="M5.298 2.075 C 5.088 2.129,4.757 2.331,4.635 2.479 C 4.154 3.060,4.197 3.840,4.738 4.382 C 5.010 4.655,5.295 4.785,5.867 4.899 C 7.191 5.163,7.808 5.538,9.175 6.913 L 9.811 7.551 8.019 9.356 C 7.034 10.349,6.235 11.165,6.244 11.171 C 6.253 11.177,6.368 11.232,6.500 11.294 C 6.632 11.357,6.903 11.504,7.101 11.623 C 7.654 11.951,7.739 11.976,8.340 11.977 C 8.923 11.978,9.043 11.944,9.535 11.643 C 10.530 11.034,11.440 10.808,12.455 10.918 C 13.209 10.999,13.615 11.138,14.350 11.568 C 14.921 11.901,15.108 11.967,15.560 11.990 C 16.058 12.016,16.347 11.941,16.842 11.659 C 17.051 11.539,17.258 11.416,17.300 11.385 C 17.372 11.332,17.134 11.083,13.678 7.600 C 11.644 5.550,9.818 3.741,9.620 3.582 C 8.819 2.937,8.170 2.589,7.293 2.335 C 6.652 2.149,5.563 2.007,5.298 2.075 M15.960 3.062 C 15.542 3.151,15.069 3.414,14.741 3.739 C 13.759 4.714,13.759 6.277,14.742 7.264 C 15.710 8.237,17.288 8.236,18.262 7.262 C 19.237 6.287,19.237 4.703,18.262 3.740 C 17.649 3.135,16.795 2.884,15.960 3.062 M5.393 14.060 C 4.993 14.136,4.701 14.249,4.019 14.590 C 3.271 14.965,3.143 15.000,2.503 15.000 C 1.846 15.001,1.727 15.021,1.473 15.175 C 0.811 15.577,0.884 16.571,1.600 16.892 C 1.964 17.056,3.197 17.026,3.825 16.838 C 3.976 16.793,4.441 16.591,4.857 16.388 L 5.615 16.020 5.977 16.020 C 6.376 16.020,6.375 16.020,7.320 16.518 C 7.801 16.772,8.226 16.910,8.660 16.951 C 9.365 17.019,9.982 16.887,10.680 16.518 C 11.616 16.025,11.628 16.020,12.000 16.020 C 12.372 16.020,12.384 16.025,13.320 16.518 C 13.801 16.772,14.226 16.910,14.660 16.951 C 15.365 17.019,15.982 16.887,16.680 16.518 C 17.625 16.020,17.624 16.020,18.023 16.020 L 18.385 16.020 19.143 16.388 C 19.995 16.803,20.282 16.901,20.833 16.966 C 21.316 17.023,22.209 16.992,22.400 16.911 C 22.779 16.751,22.977 16.446,22.979 16.019 C 22.980 15.671,22.857 15.403,22.607 15.212 C 22.369 15.031,22.219 15.001,21.560 15.000 C 21.241 15.000,20.908 14.981,20.820 14.958 C 20.732 14.935,20.327 14.755,19.920 14.558 C 18.970 14.100,18.710 14.028,18.000 14.027 C 17.293 14.027,16.999 14.115,16.035 14.611 L 15.320 14.980 15.004 14.980 L 14.689 14.980 13.914 14.590 C 12.929 14.095,12.678 14.021,11.980 14.025 C 11.294 14.029,10.984 14.122,10.035 14.611 L 9.320 14.980 9.004 14.980 L 8.689 14.980 7.914 14.591 C 7.483 14.374,7.007 14.165,6.840 14.119 C 6.443 14.010,5.796 13.983,5.393 14.060 M5.393 19.060 C 4.993 19.136,4.701 19.249,4.019 19.590 C 3.267 19.967,3.145 20.000,2.483 20.001 C 2.184 20.002,1.863 20.020,1.768 20.042 C 1.254 20.160,0.916 20.695,1.033 21.203 C 1.099 21.489,1.273 21.722,1.521 21.857 C 1.713 21.961,1.774 21.972,2.257 21.991 C 2.856 22.013,3.423 21.958,3.825 21.838 C 3.976 21.793,4.441 21.591,4.857 21.388 L 5.615 21.020 5.977 21.020 C 6.376 21.020,6.375 21.020,7.320 21.518 C 7.801 21.772,8.226 21.910,8.660 21.951 C 9.365 22.019,9.982 21.887,10.680 21.518 C 11.616 21.025,11.628 21.020,12.000 21.020 C 12.372 21.020,12.384 21.025,13.320 21.518 C 13.801 21.772,14.226 21.910,14.660 21.951 C 15.365 22.019,15.982 21.887,16.680 21.518 C 17.625 21.020,17.624 21.020,18.023 21.020 L 18.385 21.020 19.143 21.388 C 19.995 21.803,20.282 21.901,20.833 21.966 C 21.316 22.023,22.209 21.992,22.400 21.911 C 22.779 21.751,22.977 21.446,22.979 21.019 C 22.980 20.671,22.857 20.403,22.607 20.212 C 22.369 20.031,22.219 20.001,21.560 20.000 C 21.241 20.000,20.908 19.981,20.820 19.958 C 20.732 19.935,20.327 19.755,19.920 19.558 C 18.970 19.100,18.710 19.028,18.000 19.027 C 17.293 19.027,16.999 19.115,16.035 19.611 L 15.320 19.980 15.004 19.980 L 14.689 19.980 13.914 19.590 C 12.929 19.095,12.678 19.021,11.980 19.025 C 11.294 19.029,10.984 19.122,10.035 19.611 L 9.320 19.980 9.004 19.980 L 8.689 19.980 7.914 19.591 C 7.483 19.374,7.007 19.165,6.840 19.119 C 6.443 19.010,5.796 18.983,5.393 19.060" stroke="none" fill-rule="evenodd"/></svg>