<?xml version="1.0" encoding="utf-8"?>\x3c!--Generator: Adobe Illustrator 25.1.0, SVG Export Plug-In . SVG Version: 6.00 Build 0)--\x3e<svg version="1.1" id="Ebene_1" xmlns="http://www.w3.org/2000/svg" xmlns:xlink="http://www.w3.org/1999/xlink" x="0px" y="0px" viewBox="0 0 365 365" style="enable-background:new 0 0 365 365;" xml:space="preserve"><style type="text/css">.st0{fill:#4562A2;} \t.st1{fill:#2C426D;} \t.st2{fill:#FFFFFF;}</style><path class="st0" d="M330,365H35c-19.3299675,0-35-15.6700439-35-35V35C0,15.6700335,15.6700335,0,35,0h295 c19.3299561,0,35,15.6700335,35,35v295C365,349.3299561,349.3299561,365,330,365z"/><path class="st1" d="M0,258v72c0,19.3299561,15.6700439,35,35,35h295c19.3299561,0,35-15.6700439,35-35v-72H0z"/><g><polygon class="st2" points="186.2841187,71.3597336 168.9890594,89.4453278 168.9890594,71.3597336 153.1265411,71.3597336 120.0239105,104.8447266 139.3753204,104.8447266 155.5390167,86.3504562 155.5390167,104.8447266 168.8386993,104.8447266 186.0882874,86.2987061 186.0882874,104.8447266 200.915863,104.8447266 200.915863,71.3597336"/><polygon class="st2" points="256.2232971,71.3597336 238.6198883,71.3597336 223.3402863,94.5902786 223.3402863,71.3612823 209.030014,71.3612823 209.030014,104.8447266 229.6781921,104.8447266"/><path class="st2" d="M283.2809143,87.767746v8.8534546h-14.3453064c-3.4904175,0-4.0092773-1.9497604-4.0092773-3.1116638 c0-1.1522827,0.2052612-1.9902573,0.5379333-2.9699478c2.0723267-6.0839691,9.7885437-10.3336563,18.7636719-10.3336563h13.3092346 v-8.8446503H286.212738c-6.5989075,0-16.1582642,1.4826508-21.6620789,4.3196869 c-5.7775879,2.9771194-10.4203796,7.4002991-13.4269104,12.7902908c-1.8208313,3.318573-2.8649139,6.7771378-2.8649139,9.4868851 c0,4.4450226,3.0829926,6.8945694,8.6822662,6.8945694h40.5960693V87.767746H283.2809143z"/><g><path class="st2" d="M104.9019089,71.4018631c-9.6293335,3.0965042-22.8534012,8.4301071-22.8534012,14.3731842 c0,5.4537125,4.547699,10.248497,13.5164566,14.2506104c6.4946976,2.8963623,14.2275543,4.8310471,19.6358871,5.7398376 L88.7532806,132.5c-1.0051117-0.4066467-4.4422531-1.8065033-6.6001434-2.7805634 c-8.4674225-3.8270721-36.0972748-17.5158081-36.0972748-32.9828415c0-15.8565674,38.75177-24.0542603,63.3486786-26.7082672 C109.404541,70.0283279,105.6790085,71.1516037,104.9019089,71.4018631z"/></g></g><g><path class="st2" d="M109.5600586,328.5947266l-2.3842773-9.3710938h-11.090332l-2.3842773,9.3710938h-7.0976562 l10.5356445-36.9853516h9.2045898l10.5356445,36.9853516H109.5600586z M101.5751953,296.6552734l-4.2695312,17.4111328h8.5947266 L101.5751953,296.6552734z"/><path class="st2" d="M136.5073242,328.5947266l-0.4990234-3.6044922c-1.1088867,2.4951172-3.7705078,4.1035156-7.2084961,4.1035156 c-5.434082,0-7.7075195-3.8261719-7.7075195-8.5947266v-19.1855469h6.5981445v18.5205078 c0,2.4394531,0.9985352,4.3798828,3.7709961,4.3798828c3.1049805,0,4.2695312-3.0498047,4.2695312-5.8222656v-17.078125h6.5986328 v27.28125H136.5073242z"/><path class="st2" d="M157.6875,329.09375c-4.546875,0-6.7646484-2.4394531-6.7646484-7.4853516v-15.4707031h-3.8818359v-4.8242188 h3.8818359v-6.1552734l6.5981445-1.8857422v7.9853516h5.2680664v4.8798828h-5.2680664v13.9179688 c0,3.1044922,0.7763672,4.2138672,2.7172852,4.2138672c0.9980469,0,1.5527344,0,2.4951172-0.3330078l0.4438477,4.4921875 C161.6801758,328.9824219,160.0166016,329.09375,157.6875,329.09375z"/><path class="st2" d="M178.203125,329.09375c-9.1494141,0-11.7553711-6.9863281-11.7553711-14.5283203 c0-6.8203125,3.6040039-13.7509766,11.7553711-13.7509766c8.4833984-0.0556641,11.7548828,6.7089844,11.7548828,13.7509766 C189.9580078,321.8847656,187.0751953,329.09375,178.203125,329.09375z M178.203125,305.4716797 c-4.2695312,0-4.8793945,5.6005859-4.8793945,9.1494141c0,3.6044922,0.4433594,9.7597656,4.8793945,9.7597656 s4.8798828-6.0996094,4.8798828-9.7597656C183.0830078,311.0722656,182.4726562,305.4716797,178.203125,305.4716797z"/><path class="st2" d="M223.8378906,328.5947266v-18.7421875c0-2.3847656-0.9980469-4.3251953-3.4941406-4.3251953 c-2.9384766,0-3.9365234,3.1054688-3.9365234,5.8222656v17.2451172h-6.5429688v-18.7421875 c0-2.6064453-0.9980469-4.3251953-3.4931641-4.3251953c-2.8837891,0-3.9375,3.2158203-3.9375,5.9335938v17.1337891h-6.5986328 v-27.28125h5.8222656l0.4990234,3.6591797c1.109375-2.4951172,3.6601562-4.1582031,6.8759766-4.1582031 c4.3251953,0,6.0439453,2.2177734,6.9316406,4.1582031c0.9980469-2.3291016,3.3818359-4.1582031,7.0419922-4.1582031 c5.1015625,0,7.4306641,3.7705078,7.4306641,8.5390625v19.2412109H223.8378906z"/><path class="st2" d="M251.3935547,328.5947266l-0.4990234-3.2158203c-1.5527344,2.3837891-3.8261719,3.7148438-6.8759766,3.7148438 c-5.3232422,0-8.0400391-3.1054688-8.0400391-8.1513672c0-5.6552734,4.2695312-8.7050781,10.4804688-8.7050781 c1.9404297,0,3.2158203,0.2763672,4.2138672,0.4433594v-3.0498047c0-2.828125-1.71875-4.1035156-4.6025391-4.1035156 c-1.9960938,0-4.6025391,0.4433594-6.4873047,1.4414062l-1.109375-4.6025391 c2.6621094-1.2197266,6.0439453-1.5517578,8.9277344-1.5517578c6.3769531,0,9.6484375,2.9941406,9.6484375,7.7626953v14.9716797 c0,1.6630859,0.2773438,3.3828125,0.4990234,5.0458984H251.3935547z M250.6728516,316.5615234 c-0.7207031-0.2763672-1.9404297-0.4990234-3.5488281-0.4990234c-3.1054688,0-4.4912109,2.1630859-4.4912109,4.546875 c0,2.3291016,0.9980469,4.0488281,3.4375,4.0488281c2.4951172,0,4.6025391-1.8300781,4.6025391-4.2705078V316.5615234z"/><path class="st2" d="M272.4082031,329.09375c-4.546875,0-6.7646484-2.4394531-6.7646484-7.4853516v-15.4707031h-3.8818359 v-4.8242188h3.8818359v-6.1552734l6.5976562-1.8857422v7.9853516h5.2685547v4.8798828h-5.2685547v13.9179688 c0,3.1044922,0.7763672,4.2138672,2.7177734,4.2138672c0.9980469,0,1.5527344,0,2.4951172-0.3330078l0.4433594,4.4921875 C276.4003906,328.9824219,274.7373047,329.09375,272.4082031,329.09375z"/></g><g><polygon class="st2" points="123.2783203,133.5 123.2783203,157.5517578 141.6237183,157.5517578 141.6237183,152.5517578 128.2783203,152.5517578 128.2783203,138.5 236.7216797,138.5 236.7216797,152.5517578 224.2422485,152.5517578 224.2422485,157.5517578 241.7216797,157.5517578 241.7216797,133.5"/><rect x="189.8608398" y="194.3608398" class="st2" width="15.5876465" height="15.5875854"/><path class="st2" d="M213.2423096,211.6480713c0,5.2788086-4.2865601,9.5581055-9.5742188,9.5581055h-20.7351074V144h-16.4536133 v77.1505737l-13.8556519-13.8323975V144h-6v63.3181763v2.4882202l1.7609253,1.7579956l13.911377,13.8880005l1.7567749,1.7537842 h2.4822998h37.1329956c8.5876465,0,15.5742188-6.9793091,15.5742188-15.5581055V144h-6V211.6480713z"/></g></svg>