<?xml version="1.0" encoding="UTF-8" standalone="no"?>
<svg xmlns="http://www.w3.org/2000/svg" width="24" height="24"><path d="M4.394 1.062 C 4.036 1.127,3.771 1.226,3.367 1.443 C 2.415 1.954,1.607 2.958,1.237 4.090 C 0.992 4.840,1.000 4.566,1.000 11.652 C 1.000 15.840,1.015 18.260,1.041 18.512 C 1.209 20.082,1.692 21.222,2.534 22.029 C 2.916 22.396,3.235 22.600,3.681 22.763 C 4.333 23.001,4.320 23.000,8.579 23.000 C 12.291 23.000,12.481 22.996,12.769 22.923 C 14.152 22.569,15.249 21.010,15.345 19.260 L 15.369 18.820 18.838 15.340 C 20.746 13.426,22.373 11.768,22.453 11.656 C 22.642 11.390,22.859 10.928,22.949 10.600 C 23.001 10.408,23.019 10.194,23.018 9.780 C 23.017 9.274,23.006 9.189,22.906 8.900 C 22.693 8.284,22.526 8.047,21.724 7.231 C 21.320 6.818,20.904 6.427,20.801 6.361 C 20.248 6.006,19.497 5.957,18.894 6.238 L 18.649 6.352 18.760 6.106 C 19.036 5.493,19.022 4.957,18.712 4.320 C 18.608 4.106,18.472 3.948,17.943 3.425 C 17.589 3.076,17.183 2.701,17.040 2.592 C 16.737 2.361,16.321 2.153,15.980 2.062 C 15.668 1.979,14.997 1.940,14.732 1.990 C 14.537 2.026,14.517 2.022,14.432 1.931 C 14.141 1.619,13.541 1.268,13.033 1.112 L 12.740 1.022 8.720 1.014 C 5.421 1.007,4.645 1.016,4.394 1.062 M12.596 3.075 C 12.691 3.129,12.686 3.136,11.994 3.825 L 11.295 4.520 7.268 4.520 C 4.506 4.520,3.240 4.507,3.240 4.478 C 3.240 4.393,3.415 4.091,3.624 3.816 C 3.880 3.479,4.225 3.214,4.570 3.091 L 4.820 3.001 8.660 3.011 C 11.822 3.018,12.517 3.030,12.596 3.075 M15.704 4.101 C 15.891 4.210,16.920 5.179,16.920 5.245 C 16.920 5.264,16.856 5.363,16.777 5.466 C 16.215 6.203,16.155 7.156,16.626 7.866 C 17.193 8.721,18.359 8.944,19.300 8.379 C 19.432 8.299,19.586 8.190,19.643 8.136 L 19.746 8.038 20.267 8.571 C 20.553 8.864,20.839 9.193,20.904 9.302 C 21.006 9.476,21.020 9.539,21.020 9.820 C 21.020 10.099,21.005 10.168,20.901 10.360 C 20.809 10.531,20.059 11.306,17.561 13.815 C 15.790 15.594,14.162 17.209,13.945 17.403 C 13.504 17.797,13.329 17.881,12.943 17.879 C 12.564 17.878,12.420 17.788,11.778 17.155 L 11.205 16.591 11.369 16.385 C 11.763 15.889,11.932 15.188,11.798 14.604 C 11.684 14.112,11.243 13.558,10.800 13.352 C 10.088 13.020,9.250 13.130,8.607 13.638 L 8.409 13.795 7.850 13.227 C 7.543 12.915,7.258 12.597,7.217 12.520 C 7.160 12.415,7.141 12.295,7.141 12.040 C 7.140 11.611,7.188 11.510,7.621 11.027 C 8.166 10.421,14.368 4.261,14.535 4.160 C 14.802 4.000,14.963 3.958,15.247 3.974 C 15.448 3.985,15.561 4.016,15.704 4.101 M7.553 8.270 C 5.779 10.049,5.589 10.268,5.363 10.780 C 5.115 11.342,5.047 12.179,5.200 12.784 C 5.374 13.473,5.694 13.931,6.665 14.882 C 7.295 15.499,7.474 15.620,7.938 15.739 C 8.392 15.855,8.891 15.798,9.322 15.579 L 9.523 15.477 9.421 15.678 C 9.303 15.911,9.200 16.279,9.200 16.468 L 9.200 16.600 6.100 16.600 L 3.000 16.600 3.000 11.560 L 3.000 6.520 6.149 6.520 L 9.298 6.520 7.553 8.270 M10.649 18.863 C 11.393 19.565,11.938 19.825,12.772 19.874 L 13.205 19.900 13.063 20.184 C 12.891 20.526,12.646 20.815,12.435 20.923 C 12.283 21.000,12.200 21.002,8.430 20.991 L 4.580 20.980 4.345 20.885 C 3.826 20.676,3.392 20.032,3.181 19.160 C 3.126 18.929,3.080 18.709,3.080 18.670 C 3.080 18.604,3.280 18.600,6.725 18.600 L 10.370 18.600 10.649 18.863 M7.776 18.883 C 7.600 18.934,7.282 19.228,7.195 19.418 C 6.956 19.944,7.263 20.616,7.817 20.781 C 8.237 20.906,8.772 20.828,9.046 20.601 C 9.369 20.334,9.496 19.795,9.325 19.418 C 9.234 19.217,8.918 18.934,8.725 18.881 C 8.549 18.832,7.947 18.833,7.776 18.883" stroke="none" fill-rule="evenodd"/></svg>