<?xml version="1.0" encoding="UTF-8" standalone="no"?>
<svg xmlns="http://www.w3.org/2000/svg" width="24" height="24"><path d="M10.220 1.023 C 8.540 1.191,7.288 1.569,6.032 2.287 C 5.182 2.774,4.647 3.181,3.947 3.872 C 2.400 5.400,1.427 7.325,1.092 9.520 C 0.994 10.162,0.994 11.638,1.092 12.280 C 1.527 15.132,3.088 17.592,5.464 19.171 C 7.690 20.650,10.558 21.157,13.177 20.535 C 14.446 20.233,15.739 19.635,16.765 18.874 L 17.092 18.632 19.196 20.736 C 21.081 22.621,21.323 22.849,21.511 22.920 C 21.918 23.075,22.352 22.982,22.668 22.672 C 22.980 22.366,23.076 21.922,22.920 21.511 C 22.849 21.323,22.621 21.081,20.735 19.195 L 18.630 17.090 18.852 16.795 C 19.790 15.546,20.468 13.904,20.701 12.317 C 20.791 11.706,20.820 10.632,20.762 10.040 C 20.532 7.669,19.576 5.612,17.929 3.946 C 16.386 2.386,14.457 1.416,12.260 1.097 C 11.868 1.040,10.535 0.992,10.220 1.023 M11.620 3.242 C 13.551 3.424,15.367 4.342,16.653 5.788 C 17.056 6.241,17.540 6.969,17.822 7.546 C 19.003 9.965,18.811 12.876,17.324 15.131 C 15.836 17.386,13.306 18.691,10.620 18.587 C 6.756 18.439,3.632 15.499,3.242 11.646 C 2.998 9.232,3.961 6.768,5.780 5.154 C 7.376 3.737,9.500 3.042,11.620 3.242 M10.380 6.042 C 9.384 6.197,8.470 6.781,7.930 7.608 C 7.661 8.021,7.512 8.401,7.510 8.686 C 7.503 9.271,8.002 9.728,8.579 9.669 C 8.998 9.625,9.220 9.444,9.473 8.937 C 9.668 8.545,9.968 8.250,10.310 8.114 C 10.495 8.040,10.618 8.022,10.940 8.021 C 11.305 8.020,11.363 8.031,11.600 8.143 C 11.902 8.286,12.203 8.569,12.339 8.838 C 12.464 9.084,12.532 9.460,12.482 9.632 C 12.350 10.093,11.739 10.587,10.845 10.956 C 10.354 11.158,10.200 11.270,10.061 11.524 C 9.708 12.173,10.168 12.990,10.893 12.998 C 11.222 13.002,12.115 12.617,12.776 12.186 C 13.667 11.605,14.236 10.888,14.418 10.119 C 14.495 9.792,14.497 9.216,14.423 8.827 C 14.267 8.012,13.734 7.179,13.062 6.700 C 12.729 6.462,12.209 6.219,11.820 6.118 C 11.451 6.023,10.743 5.985,10.380 6.042 M10.740 14.356 C 10.179 14.501,9.855 15.059,10.014 15.604 C 10.236 16.364,11.209 16.569,11.726 15.966 C 12.029 15.612,12.038 15.088,11.749 14.709 C 11.549 14.447,11.056 14.274,10.740 14.356" stroke="none" fill-rule="evenodd"/></svg>