<?xml version="1.0" encoding="UTF-8" standalone="no"?>
<svg xmlns="http://www.w3.org/2000/svg" width="24" height="24"><path d="M3.900 2.025 C 2.998 2.104,2.416 2.352,1.884 2.884 C 1.393 3.375,1.126 3.948,1.043 4.691 C 0.985 5.211,0.984 17.546,1.042 18.220 C 1.117 19.090,1.277 19.598,1.662 20.189 C 2.165 20.960,2.953 21.554,3.780 21.786 C 4.258 21.919,4.756 21.966,5.923 21.988 C 7.296 22.014,7.405 21.997,7.701 21.701 C 8.218 21.184,8.019 20.303,7.330 20.057 C 7.223 20.019,6.930 20.003,6.300 20.002 C 5.325 20.000,4.654 19.950,4.320 19.856 C 3.724 19.687,3.201 19.101,3.075 18.460 C 3.041 18.286,3.024 16.810,3.012 13.109 L 2.996 7.997 11.108 8.012 C 17.193 8.023,19.280 8.039,19.460 8.075 C 19.819 8.146,20.109 8.308,20.401 8.599 C 20.699 8.898,20.856 9.186,20.925 9.560 C 20.957 9.737,20.980 10.768,20.996 12.800 C 21.020 15.762,21.021 15.781,21.107 15.943 C 21.439 16.562,22.250 16.685,22.711 16.186 C 23.021 15.848,23.007 16.024,22.990 12.657 C 22.976 10.045,22.965 9.611,22.905 9.280 C 22.754 8.443,22.430 7.804,21.860 7.220 C 21.329 6.676,20.684 6.306,20.009 6.160 C 19.421 6.032,18.667 6.001,16.060 6.001 L 13.619 6.000 13.066 4.890 C 12.761 4.279,12.428 3.639,12.326 3.466 C 11.926 2.791,11.272 2.299,10.500 2.090 C 10.290 2.034,9.876 2.025,7.160 2.018 C 5.455 2.014,3.988 2.018,3.900 2.025 M10.000 4.044 C 10.385 4.126,10.493 4.250,10.949 5.141 C 11.174 5.581,11.358 5.954,11.359 5.970 C 11.359 5.986,9.479 6.000,7.180 6.000 L 3.000 6.000 3.001 5.590 C 3.003 4.986,3.061 4.613,3.180 4.432 C 3.328 4.209,3.545 4.082,3.845 4.043 C 4.245 3.991,9.757 3.992,10.000 4.044 M15.629 11.041 C 15.202 11.149,14.909 11.383,14.584 11.873 C 14.260 12.363,9.346 20.431,9.221 20.679 C 8.961 21.192,8.940 21.660,9.158 22.103 C 9.376 22.546,9.751 22.840,10.225 22.940 C 10.636 23.027,21.364 23.027,21.775 22.940 C 22.114 22.868,22.327 22.747,22.574 22.482 C 23.048 21.975,23.118 21.348,22.776 20.673 C 22.649 20.421,17.745 12.372,17.416 11.873 C 17.137 11.452,16.967 11.294,16.621 11.135 C 16.369 11.020,15.892 10.975,15.629 11.041 M18.328 17.190 L 20.636 20.980 18.318 20.990 C 17.043 20.996,14.957 20.996,13.682 20.990 L 11.364 20.980 13.672 17.190 C 14.942 15.106,15.989 13.401,16.000 13.401 C 16.011 13.401,17.058 15.106,18.328 17.190 M15.664 15.063 C 15.436 15.146,15.257 15.297,15.131 15.511 C 15.023 15.695,15.020 15.718,15.007 16.404 C 14.992 17.196,15.019 17.354,15.211 17.606 C 15.570 18.076,16.280 18.122,16.700 17.702 C 16.955 17.447,17.000 17.266,17.000 16.500 C 17.000 15.734,16.955 15.553,16.701 15.299 C 16.429 15.027,16.018 14.933,15.664 15.063 M15.617 18.577 C 15.108 18.798,14.866 19.414,15.095 19.900 C 15.409 20.562,16.226 20.700,16.728 20.175 C 17.190 19.693,17.031 18.880,16.420 18.596 C 16.229 18.507,15.800 18.497,15.617 18.577" stroke="none" fill-rule="evenodd"/></svg>