<?xml version="1.0" encoding="UTF-8" standalone="no"?>
<svg xmlns="http://www.w3.org/2000/svg" width="24" height="24"><path d="M5.620 1.027 C 4.071 1.225,2.780 2.269,2.295 3.717 C 2.187 4.042,2.073 4.706,1.583 7.891 C 1.171 10.569,1.000 11.780,1.000 12.023 C 1.000 12.443,1.121 13.059,1.283 13.469 C 1.789 14.742,2.872 15.641,4.235 15.919 C 4.602 15.994,4.781 16.000,6.553 16.000 L 8.472 16.000 8.491 17.990 C 8.511 20.158,8.515 20.198,8.756 20.824 C 9.263 22.139,10.712 23.085,12.071 22.990 C 12.613 22.951,13.099 22.696,13.412 22.285 C 13.510 22.157,14.157 20.746,15.353 18.057 L 17.147 14.020 18.603 13.998 C 19.984 13.976,20.075 13.970,20.340 13.883 C 21.104 13.631,21.710 13.158,22.091 12.515 C 22.270 12.212,22.430 11.730,22.481 11.341 C 22.529 10.975,22.529 4.025,22.481 3.659 C 22.322 2.435,21.511 1.482,20.314 1.111 L 20.020 1.021 12.880 1.016 C 8.953 1.013,5.686 1.018,5.620 1.027 M15.470 7.970 L 15.459 12.940 13.660 16.971 L 11.860 21.002 11.720 20.978 C 11.290 20.904,10.815 20.535,10.628 20.130 C 10.542 19.944,10.540 19.896,10.519 17.800 C 10.498 15.725,10.494 15.652,10.408 15.394 C 10.183 14.720,9.639 14.223,8.951 14.060 C 8.748 14.012,8.329 14.001,6.752 14.001 C 5.487 14.000,4.730 13.985,4.592 13.956 C 3.927 13.817,3.371 13.330,3.126 12.669 C 2.946 12.185,2.943 12.222,3.559 8.220 C 3.875 6.172,4.159 4.446,4.201 4.327 C 4.421 3.701,5.030 3.167,5.660 3.047 C 5.779 3.024,7.814 3.007,10.670 3.004 L 15.481 3.000 15.470 7.970 M19.940 3.106 C 20.028 3.154,20.158 3.253,20.228 3.326 C 20.494 3.604,20.480 3.370,20.479 7.509 C 20.478 11.061,20.474 11.269,20.405 11.422 C 20.312 11.625,20.013 11.891,19.808 11.953 C 19.704 11.984,19.286 12.000,18.585 12.000 L 17.520 12.000 17.520 7.498 L 17.520 2.995 18.650 3.008 C 19.720 3.019,19.789 3.025,19.940 3.106" stroke="none" fill-rule="evenodd"/></svg>