<?xml version="1.0" encoding="UTF-8" standalone="no"?>
<svg width="24" height="24" viewBox="0 0 24 24" fill="none" version="1.1" xmlns="http://www.w3.org/2000/svg"><circle fill="url(#paint0_linear_3007_50381)" id="path3" cx="12" cy="12" r="12"/><path d="M12.995 8C12.995 7.44772 12.5473 7 11.995 7C11.4427 7 10.995 7.44772 10.995 8V12C10.995 12.5523 11.4427 13 11.995 13C12.5473 13 12.995 12.5523 12.995 12V8Z" fill="#1F2B47" id="path1"/><path d="M11.995 15C11.4427 15 10.995 15.4477 10.995 16C10.995 16.5523 11.4427 17 11.995 17H12.005C12.5573 17 13.005 16.5523 13.005 16C13.005 15.4477 12.5573 15 12.005 15H11.995Z" fill="#1F2B47" id="path2"/><defs><linearGradient id="paint0_linear_3007_50381" x1="23.2634" y1="1.49586" x2="-12.0871" y2="2.53132" gradientUnits="userSpaceOnUse"><stop stop-color="#FFB342"/><stop offset="1" stop-color="#FF5C00"/></linearGradient></defs></svg>