<?xml version="1.0" encoding="UTF-8" standalone="no"?>
<svg xmlns="http://www.w3.org/2000/svg" width="24" height="24"><path d="M5.245 7.101 C 3.128 7.432,1.418 9.155,1.098 11.280 C 0.961 12.186,1.079 13.135,1.430 13.960 C 2.414 16.270,4.882 17.487,7.303 16.858 C 9.178 16.371,10.643 14.770,10.944 12.881 C 10.977 12.671,11.017 12.419,11.032 12.320 C 11.059 12.144,11.065 12.139,11.260 12.087 C 11.591 11.998,12.220 11.982,12.561 12.052 C 13.086 12.161,13.064 12.140,13.093 12.547 C 13.181 13.795,13.908 15.140,14.933 15.954 C 16.615 17.290,19.014 17.398,20.799 16.217 C 21.361 15.846,21.848 15.359,22.217 14.799 C 23.120 13.432,23.287 11.656,22.657 10.128 C 21.954 8.425,20.347 7.251,18.489 7.083 C 16.428 6.897,14.474 8.006,13.553 9.885 C 13.441 10.114,13.378 10.200,13.337 10.185 C 12.887 10.012,11.659 9.965,11.028 10.096 C 10.834 10.136,10.672 10.163,10.668 10.155 C 10.663 10.147,10.585 9.987,10.494 9.800 C 9.557 7.878,7.394 6.766,5.245 7.101 M6.700 9.100 C 6.854 9.132,7.142 9.238,7.340 9.336 C 7.945 9.636,8.408 10.099,8.703 10.700 C 9.011 11.329,9.095 11.873,8.983 12.517 C 8.764 13.775,7.862 14.708,6.612 14.967 C 5.942 15.106,5.357 15.025,4.700 14.703 C 4.099 14.408,3.636 13.945,3.336 13.340 C 3.095 12.853,3.027 12.508,3.052 11.900 C 3.083 11.114,3.309 10.562,3.833 9.996 C 4.259 9.535,4.783 9.231,5.380 9.099 C 5.703 9.028,6.357 9.028,6.700 9.100 M18.862 9.158 C 19.629 9.365,20.362 9.973,20.722 10.700 C 21.462 12.196,20.862 13.992,19.380 14.723 C 17.915 15.445,16.195 14.896,15.392 13.450 C 15.155 13.023,15.063 12.629,15.064 12.040 C 15.064 11.516,15.095 11.348,15.269 10.920 C 15.628 10.036,16.482 9.304,17.362 9.125 C 17.482 9.101,17.616 9.073,17.660 9.062 C 17.849 9.019,18.556 9.075,18.862 9.158" stroke="none" fill-rule="evenodd"/></svg>