<?xml version="1.0" encoding="UTF-8" standalone="no"?>
<svg xmlns="http://www.w3.org/2000/svg" width="23" height="24"><path d="M16.736 1.036 C 15.899 1.168,15.168 1.545,14.565 2.153 C 14.092 2.631,13.730 3.277,13.541 3.979 C 13.453 4.308,13.441 4.424,13.441 4.983 C 13.440 5.429,13.457 5.686,13.499 5.853 L 13.559 6.090 11.036 7.626 C 9.648 8.471,8.502 9.162,8.488 9.162 C 8.475 9.162,8.375 9.082,8.266 8.984 C 7.837 8.598,7.242 8.272,6.689 8.120 C 6.243 7.998,5.257 7.998,4.811 8.120 C 3.920 8.364,3.099 8.965,2.592 9.743 C 2.333 10.141,2.173 10.506,2.040 11.000 C 1.953 11.323,1.942 11.440,1.942 11.998 C 1.942 12.557,1.953 12.674,2.040 12.997 C 2.246 13.763,2.595 14.376,3.119 14.893 C 3.597 15.364,4.090 15.658,4.737 15.857 C 5.055 15.954,5.127 15.962,5.750 15.962 C 6.371 15.962,6.446 15.954,6.758 15.858 C 7.322 15.684,7.849 15.388,8.274 15.006 C 8.436 14.860,8.492 14.829,8.542 14.859 C 8.577 14.880,9.720 15.574,11.082 16.402 L 13.559 17.906 13.499 18.143 C 13.457 18.311,13.440 18.567,13.441 19.013 C 13.441 19.573,13.453 19.689,13.541 20.018 C 13.734 20.734,14.097 21.374,14.590 21.868 C 15.092 22.369,15.671 22.702,16.371 22.892 C 16.836 23.017,17.664 23.017,18.129 22.892 C 18.833 22.701,19.409 22.368,19.913 21.862 C 20.412 21.360,20.767 20.734,20.958 20.018 C 21.045 19.694,21.058 19.567,21.060 19.032 C 21.063 18.386,21.034 18.183,20.863 17.672 C 20.380 16.225,19.118 15.190,17.639 15.027 C 16.614 14.914,15.523 15.264,14.792 15.940 L 14.530 16.183 12.181 14.755 C 10.889 13.970,9.744 13.271,9.636 13.203 L 9.439 13.078 9.493 12.854 C 9.584 12.486,9.602 11.765,9.530 11.356 C 9.496 11.161,9.468 10.978,9.468 10.948 C 9.468 10.918,10.594 10.209,12.000 9.353 L 14.533 7.812 14.751 8.019 C 15.491 8.721,16.617 9.097,17.628 8.978 C 19.125 8.802,20.379 7.774,20.863 6.325 C 21.034 5.814,21.063 5.610,21.060 4.964 C 21.058 4.430,21.045 4.303,20.958 3.979 C 20.497 2.255,19.078 1.079,17.384 1.016 C 17.152 1.008,16.860 1.017,16.736 1.036 M17.860 3.111 C 18.728 3.409,19.282 4.366,19.135 5.313 C 19.068 5.745,18.871 6.130,18.557 6.443 C 18.261 6.738,17.983 6.883,17.549 6.968 C 17.280 7.021,17.220 7.021,16.950 6.968 C 16.526 6.884,16.241 6.735,15.943 6.441 C 14.638 5.148,15.610 2.869,17.403 3.018 C 17.540 3.030,17.746 3.071,17.860 3.111 M6.141 10.048 C 7.184 10.270,7.861 11.381,7.607 12.456 C 7.381 13.415,6.574 14.041,5.641 13.983 C 4.133 13.888,3.329 12.135,4.202 10.842 C 4.635 10.199,5.393 9.889,6.141 10.048 M18.029 17.183 C 19.274 17.775,19.548 19.446,18.563 20.429 C 17.803 21.187,16.697 21.188,15.938 20.430 C 14.979 19.473,15.219 17.811,16.402 17.214 C 16.728 17.049,16.865 17.022,17.327 17.032 C 17.704 17.040,17.748 17.049,18.029 17.183" stroke="none" fill-rule="evenodd"/></svg>