<?xml version="1.0" encoding="UTF-8" standalone="no"?>
<svg width="24" height="24" viewBox="0 0 24 24" xmlns="http://www.w3.org/2000/svg"><path d="M11.083 2.048 C 10.317 2.133,9.440 2.433,8.812 2.823 C 8.409 3.074,7.845 3.619,7.597 3.996 C 6.845 5.141,6.803 6.617,7.487 7.832 C 7.607 8.046,7.790 8.272,8.084 8.571 L 8.508 9.003 8.084 9.431 C 7.786 9.732,7.608 9.952,7.487 10.168 C 7.043 10.957,6.896 11.874,7.076 12.740 C 7.222 13.446,7.514 13.990,8.036 14.532 C 8.547 15.062,9.150 15.438,9.887 15.684 C 10.519 15.896,10.934 15.958,11.980 15.998 C 13.240 16.046,13.721 16.143,14.232 16.450 C 14.810 16.797,15.082 17.494,14.969 18.338 C 14.884 18.975,14.590 19.389,14.037 19.651 C 13.501 19.905,12.961 19.997,11.993 19.999 C 10.935 20.001,10.350 19.870,9.812 19.509 C 9.317 19.179,9.065 18.778,9.003 18.225 C 8.945 17.709,8.726 17.398,8.325 17.261 C 8.098 17.184,7.897 17.184,7.678 17.261 C 7.129 17.455,6.914 17.937,7.038 18.703 C 7.313 20.410,8.755 21.635,10.849 21.943 C 11.422 22.028,12.903 22.005,13.460 21.903 C 15.358 21.556,16.489 20.604,16.889 19.014 C 17.017 18.502,17.017 17.498,16.889 16.986 C 16.710 16.277,16.407 15.730,15.931 15.258 L 15.670 15.000 15.936 14.734 C 16.417 14.253,16.710 13.724,16.889 13.014 C 16.965 12.714,16.978 12.557,16.976 11.980 C 16.974 11.374,16.962 11.257,16.867 10.902 C 16.498 9.524,15.470 8.571,13.960 8.208 C 13.403 8.074,13.069 8.037,12.080 7.999 C 10.897 7.954,10.437 7.852,9.925 7.520 C 8.539 6.620,8.767 4.910,10.361 4.263 C 10.850 4.064,11.177 4.020,12.160 4.021 C 12.872 4.021,13.130 4.037,13.398 4.094 C 14.028 4.228,14.454 4.456,14.701 4.793 C 14.883 5.041,14.953 5.263,14.997 5.732 C 15.026 6.036,15.057 6.163,15.138 6.300 C 15.469 6.865,16.239 6.963,16.701 6.501 C 16.995 6.207,17.063 5.811,16.940 5.106 C 16.633 3.344,15.283 2.259,13.126 2.042 C 12.634 1.992,11.556 1.996,11.083 2.048 M12.860 10.041 C 13.894 10.159,14.536 10.504,14.815 11.093 C 15.049 11.587,15.049 12.413,14.815 12.907 C 14.447 13.684,13.459 14.040,11.820 13.987 C 10.924 13.958,10.404 13.830,9.925 13.520 C 8.539 12.620,8.767 10.910,10.361 10.263 C 10.589 10.170,11.012 10.068,11.340 10.027 C 11.602 9.994,12.520 10.003,12.860 10.041" stroke="none" fill-rule="evenodd"/></svg>