<?xml version="1.0" encoding="UTF-8" standalone="no"?>
<svg width="24" height="24" viewBox="0 0 24 24" xmlns="http://www.w3.org/2000/svg"><path d="M19.5 11.9995C19.9142 11.9995 20.25 11.6637 20.25 11.2495C20.25 10.8353 19.9142 10.4995 19.5 10.4995C19.0858 10.4995 18.75 10.8353 18.75 11.2495C18.75 11.6637 19.0858 11.9995 19.5 11.9995Z"/><path fill-rule="evenodd" clip-rule="evenodd" d="M9.94104 3.99987C10.1128 3.80795 10.371 3.71757 10.6249 3.76049C12.5365 4.08358 14.3838 5.36716 15.2352 6.02623C18.2952 6.21256 20.453 7.30321 21.8621 8.5296C22.5811 9.15535 23.1034 9.8149 23.4502 10.4037C23.779 10.9619 23.9999 11.5418 23.9999 12C23.9999 12.4666 23.7819 13.0506 23.4505 13.6151C23.1026 14.2077 22.5788 14.8666 21.8579 15.4897C20.4453 16.7109 18.2833 17.7887 15.2175 17.9747C14.3592 18.6412 12.5245 19.9182 10.625 20.2395C10.3711 20.2825 10.1128 20.1921 9.94108 20.0002C9.76931 19.8083 9.70804 19.5416 9.7788 19.294L10.325 17.3822C8.38258 16.7021 6.70952 15.321 5.61653 14.4109C5.39592 14.5952 5.16917 14.7721 4.93664 14.9413C3.98577 15.6358 2.95553 16.0173 2.17772 16.2261C1.78597 16.3313 1.45076 16.3947 1.21072 16.4321C1.0905 16.4508 0.993598 16.463 0.92476 16.4708C0.890325 16.4746 0.862862 16.4774 0.842962 16.4793L0.81884 16.4814L0.811158 16.482L0.808435 16.4822L0.807357 16.4823C0.807142 16.4823 0.806467 16.4824 0.749943 15.7345C0.0175598 15.5729 0.0175966 15.5728 0.0176354 15.5726L0.0179375 15.5712L0.0185165 15.5686L0.020283 15.5608L0.0262804 15.535C0.0313844 15.5133 0.0387221 15.4829 0.0483815 15.4447C0.067689 15.3681 0.0963407 15.2599 0.135056 15.1268C0.212305 14.8614 0.330593 14.4939 0.496126 14.0815C0.749188 13.4511 1.1298 12.6716 1.67377 11.9921C1.12979 11.3128 0.749187 10.5334 0.496133 9.90295C0.330597 9.49057 0.212307 9.12316 0.135058 8.85771C0.0963419 8.72467 0.0676899 8.61639 0.0483821 8.53987C0.0387225 8.50159 0.0313847 8.47119 0.0262806 8.44953L0.0202831 8.4237L0.0185166 8.4159L0.0179375 8.4133L0.0176354 8.41194C0.0175966 8.41177 0.0175598 8.4116 0.749943 8.25C0.806467 7.50213 0.806674 7.50215 0.806888 7.50217L0.808436 7.50229L0.811158 7.5025L0.81884 7.50313L0.842962 7.50528C0.862862 7.50714 0.890325 7.50989 0.92476 7.51376C0.993598 7.5215 1.0905 7.53376 1.21072 7.55247C1.45076 7.58982 1.78597 7.6532 2.17772 7.75839C2.95552 7.96724 3.98575 8.34875 4.9366 9.04317C5.17263 9.21497 5.40275 9.39464 5.62657 9.58187C6.71829 8.6739 8.38561 7.29594 10.325 6.61757L9.7788 4.70604C9.70805 4.45841 9.7693 4.19179 9.94104 3.99987ZM0.749943 8.25L0.806888 7.50217C0.570332 7.48429 0.338843 7.57935 0.183394 7.75855C0.0279445 7.93776 -0.0334797 8.18028 0.0176354 8.41194L0.749943 8.25ZM1.8397 9.22094C1.85531 9.26145 1.87146 9.30255 1.88817 9.34416C2.18166 10.0753 2.61693 10.8931 3.20343 11.4466C3.35357 11.5882 3.43868 11.7855 3.43869 11.992C3.43871 12.1984 3.35364 12.3957 3.20353 12.5374C2.61696 13.0911 2.18167 13.9091 1.88817 14.6403C1.87146 14.6819 1.8553 14.7231 1.83968 14.7636C2.49956 14.5818 3.31805 14.2661 4.05239 13.7297L4.05349 13.7289C4.41611 13.465 4.76285 13.1799 5.09188 12.8752C5.3655 12.6218 5.78375 12.6079 6.07356 12.8427C6.22589 12.966 6.3865 13.099 6.55488 13.2383C7.81471 14.2809 9.50947 15.6834 11.4259 16.1459C11.6245 16.1939 11.795 16.3207 11.8979 16.4972C12.0008 16.6737 12.0272 16.8846 11.9711 17.081L11.5939 18.4014C12.8067 17.9092 13.9147 17.0998 14.4703 16.6536C14.5945 16.5537 14.7474 16.4961 14.9066 16.489C15.544 16.4607 16.1344 16.3902 16.6803 16.2865C16.0522 14.9484 15.7243 13.4852 15.7243 12C15.7243 10.5147 16.0523 9.0514 16.6804 7.71329C16.1396 7.60999 15.5553 7.53994 14.9249 7.51192C14.766 7.50485 14.6134 7.44744 14.4893 7.34798C13.9415 6.9091 12.8215 6.09188 11.5933 5.59668L11.9711 6.91896C12.0272 7.11548 12.0008 7.32639 11.8978 7.50293C11.7948 7.67946 11.6242 7.80632 11.4255 7.85416C9.519 8.31321 7.83864 9.70187 6.57971 10.7422C6.40562 10.8861 6.23958 11.0233 6.08212 11.1505C5.79225 11.3846 5.37447 11.3704 5.10115 11.1172C4.76918 10.8096 4.41934 10.5219 4.05344 10.2556L4.05239 10.2548C3.31806 9.71844 2.49957 9.40276 1.8397 9.22094ZM18.1568 8.10806C17.5449 9.31183 17.2243 10.6451 17.2243 12C17.2243 13.3557 17.5453 14.6899 18.158 15.8943C19.3176 15.4906 20.2109 14.9308 20.877 14.355C21.4761 13.837 21.8936 13.3043 22.1569 12.8557C22.4367 12.3791 22.4999 12.0725 22.4999 12C22.4999 11.999 22.4993 11.9762 22.4892 11.9282C22.4792 11.8806 22.462 11.8178 22.4345 11.7404C22.3795 11.5852 22.2898 11.3892 22.1578 11.165C21.8939 10.7171 21.4761 10.1822 20.8773 9.66107C20.2104 9.08061 19.3165 8.51514 18.1568 8.10806ZM0.749943 15.7345L0.0176354 15.5726C-0.0334797 15.8043 0.0279445 16.0468 0.183394 16.226C0.338842 16.4052 0.5708 16.5002 0.807357 16.4823L0.749943 15.7345ZM1.48215 8.08762C1.48212 8.08746 1.48212 8.08749 1.48215 8.08762V8.08762ZM0.691699 8.99774C0.691618 8.99773 0.691668 8.99773 0.691699 8.99774V8.99774Z"/></svg>