<?xml version="1.0" encoding="UTF-8" standalone="no"?>
<svg xmlns="http://www.w3.org/2000/svg" width="24" height="24"><path d="M10.529 2.043 C 9.983 2.096,9.462 2.272,8.946 2.578 C 7.836 3.236,7.137 4.362,7.019 5.686 L 6.991 5.992 5.306 6.012 C 3.528 6.033,3.312 6.053,2.845 6.238 C 2.113 6.527,1.414 7.268,1.183 7.997 C 1.130 8.166,1.067 8.479,1.043 8.691 C 0.984 9.223,0.984 18.777,1.043 19.309 C 1.101 19.831,1.240 20.250,1.474 20.605 C 2.001 21.407,2.726 21.849,3.691 21.957 C 4.229 22.017,19.771 22.017,20.309 21.957 C 20.831 21.899,21.250 21.760,21.605 21.526 C 22.407 20.999,22.849 20.274,22.957 19.309 C 23.016 18.777,23.016 9.223,22.957 8.691 C 22.933 8.479,22.870 8.166,22.817 7.997 C 22.586 7.268,21.887 6.527,21.155 6.238 C 20.688 6.053,20.472 6.033,18.694 6.012 L 17.007 5.992 16.980 5.706 C 16.897 4.825,16.635 4.159,16.111 3.492 C 15.741 3.021,15.280 2.666,14.665 2.380 C 14.209 2.168,13.919 2.090,13.416 2.041 C 12.950 1.995,11.005 1.997,10.529 2.043 M13.313 4.040 C 14.179 4.153,14.888 4.891,14.972 5.770 L 14.994 6.000 12.000 6.000 L 9.006 6.000 9.028 5.770 C 9.040 5.644,9.083 5.444,9.123 5.326 C 9.347 4.674,9.998 4.128,10.651 4.043 C 11.004 3.997,12.963 3.995,13.313 4.040 M7.000 14.003 L 7.000 20.006 5.370 19.993 C 3.754 19.980,3.738 19.979,3.550 19.886 C 3.335 19.781,3.142 19.568,3.070 19.360 C 3.007 19.174,2.976 9.428,3.038 8.923 C 3.085 8.535,3.188 8.342,3.435 8.178 C 3.658 8.031,3.907 8.011,5.550 8.005 L 7.000 8.000 7.000 14.003 M15.000 14.000 L 15.000 20.000 12.000 20.000 L 9.000 20.000 9.000 14.000 L 9.000 8.000 12.000 8.000 L 15.000 8.000 15.000 14.000 M20.374 8.077 C 20.584 8.144,20.862 8.430,20.928 8.646 C 21.002 8.892,21.005 19.098,20.931 19.340 C 20.863 19.562,20.675 19.776,20.450 19.886 C 20.262 19.979,20.246 19.980,18.630 19.993 L 17.000 20.006 17.000 13.999 L 17.000 7.993 18.610 8.010 C 19.729 8.022,20.267 8.043,20.374 8.077" stroke="none" fill-rule="evenodd"/></svg>