<?xml version="1.0" encoding="UTF-8" standalone="no"?>
<svg xmlns="http://www.w3.org/2000/svg" width="24" height="24"><path d="M5.580 1.025 C 4.874 1.111,4.307 1.266,3.820 1.509 C 2.391 2.221,1.411 3.502,1.090 5.078 C 1.025 5.395,1.020 5.900,1.020 12.000 C 1.020 18.100,1.025 18.605,1.090 18.922 C 1.412 20.499,2.390 21.777,3.821 22.492 C 4.141 22.652,4.766 22.852,5.180 22.928 C 5.590 23.004,18.410 23.004,18.820 22.928 C 20.949 22.537,22.537 20.949,22.928 18.820 C 23.004 18.410,23.004 5.590,22.928 5.180 C 22.549 3.116,21.093 1.600,19.020 1.108 C 18.661 1.023,18.645 1.023,12.180 1.017 C 8.616 1.014,5.646 1.017,5.580 1.025 M18.860 3.114 C 19.851 3.446,20.582 4.184,20.886 5.160 L 20.980 5.460 20.980 12.000 L 20.980 18.540 20.886 18.840 C 20.578 19.827,19.827 20.578,18.840 20.886 L 18.540 20.980 12.000 20.980 L 5.460 20.980 5.160 20.886 C 4.173 20.578,3.422 19.827,3.114 18.840 L 3.020 18.540 3.020 12.000 L 3.020 5.460 3.114 5.160 C 3.453 4.074,4.349 3.260,5.443 3.043 C 5.541 3.024,8.519 3.011,12.100 3.014 L 18.580 3.020 18.860 3.114 M16.050 8.783 C 15.405 9.104,15.398 10.046,16.037 10.370 C 16.977 10.846,17.834 9.638,17.061 8.925 C 16.773 8.660,16.401 8.608,16.050 8.783 M11.530 10.618 C 10.962 10.748,10.415 11.127,10.085 11.621 C 9.388 12.662,9.614 14.103,10.592 14.854 C 10.896 15.087,11.106 15.189,11.470 15.282 C 12.028 15.425,12.644 15.349,13.173 15.072 C 13.704 14.794,14.198 14.150,14.339 13.556 C 14.410 13.255,14.418 12.731,14.356 12.432 C 14.293 12.123,14.033 11.612,13.814 11.363 C 13.570 11.088,13.106 10.784,12.765 10.677 C 12.421 10.570,11.860 10.543,11.530 10.618 M4.962 13.109 L 5.915 15.340 6.567 15.351 L 7.220 15.362 8.149 13.191 C 8.659 11.997,9.089 10.989,9.103 10.950 C 9.127 10.885,9.081 10.880,8.494 10.880 L 7.860 10.880 7.222 12.319 C 6.872 13.110,6.578 13.751,6.569 13.742 C 6.560 13.734,6.307 13.091,6.005 12.313 L 5.457 10.900 4.733 10.889 L 4.009 10.878 4.962 13.109 M15.920 13.120 L 15.920 15.360 16.480 15.360 L 17.040 15.360 17.040 13.120 L 17.040 10.880 16.480 10.880 L 15.920 10.880 15.920 13.120 M12.540 11.790 C 12.753 11.900,12.977 12.138,13.077 12.360 C 13.142 12.504,13.158 12.623,13.158 12.960 C 13.158 13.444,13.094 13.637,12.848 13.895 C 12.409 14.355,11.712 14.361,11.250 13.909 C 11.013 13.678,10.920 13.412,10.920 12.966 C 10.920 12.533,10.992 12.306,11.208 12.061 C 11.467 11.766,11.687 11.676,12.100 11.695 C 12.285 11.703,12.434 11.736,12.540 11.790 M18.860 13.783 C 18.556 13.941,18.364 14.306,18.422 14.617 C 18.465 14.848,18.650 15.098,18.848 15.194 C 19.625 15.571,20.357 14.621,19.789 13.973 C 19.719 13.893,19.603 13.804,19.532 13.774 C 19.358 13.701,19.008 13.706,18.860 13.783" stroke="none" fill-rule="evenodd"/></svg>