<?xml version="1.0" encoding="UTF-8" standalone="no"?>
<svg width="24" height="24" xmlns="http://www.w3.org/2000/svg"><path d="M 12,2 C 6.4890047,2 2,6.4890047 2,12 c 0,5.511031 4.4890101,10 10,10 4.549213,0 8.404755,-3.04791 9.609375,-7.222656 A 1,1 0 0 0 20.925781,13.539063 1,1 0 0 0 19.6875,14.222656 C 18.725522,17.556502 15.656978,20 12,20 7.5698798,20 4,16.430159 4,12 4,7.5698852 7.5698852,4 12,4 14.216055,4 16.20915,4.8956983 17.658203,6.3457031 18.61069,7.2988798 19.144076,8.068637 19.867187,9 H 16 a 1,1 0 0 0 -1,1 1,1 0 0 0 1,1 h 6 a 1,1 0 0 0 0.287109,-0.119141 1,1 0 0 0 0.304688,-0.07422 1,1 0 0 0 0.07617,-0.08399 1,1 0 0 0 0.05859,-0.06445 1,1 0 0 0 0.25586,-0.617187 A 1,1 0 0 0 23,10 V 4 A 1,1 0 0 0 22,3 1,1 0 0 0 21,4 V 7.2421875 C 20.275209,6.325708 19.968898,5.8269681 19.074219,4.9316406 17.265475,3.1217088 14.75674,2 12,2 Z" stroke="none" fill-rule="evenodd"/></svg>