<?xml version="1.0" encoding="UTF-8" standalone="no"?>
<svg xmlns="http://www.w3.org/2000/svg" width="24" height="24"><path d="M7.362 1.043 C 5.337 1.272,3.496 2.354,2.298 4.020 C 1.988 4.451,1.528 5.357,1.359 5.870 C 1.008 6.934,0.909 8.244,1.099 9.289 C 1.632 12.220,3.859 14.481,6.770 15.048 L 7.239 15.140 7.240 16.705 L 7.240 18.270 6.690 18.288 C 6.089 18.308,5.930 18.356,5.712 18.586 C 5.278 19.044,5.492 19.842,6.097 20.021 C 6.374 20.104,9.980 20.105,10.210 20.023 C 10.904 19.775,11.044 18.881,10.454 18.467 C 10.245 18.321,10.055 18.284,9.490 18.282 L 9.040 18.280 9.040 16.707 L 9.040 15.134 9.368 15.084 C 10.110 14.970,11.009 14.647,11.730 14.235 C 12.552 13.764,13.449 12.947,14.009 12.159 C 14.345 11.686,14.756 10.871,14.937 10.320 C 16.057 6.914,14.475 3.237,11.229 1.701 C 10.655 1.430,9.999 1.219,9.407 1.117 C 8.863 1.023,7.861 0.987,7.362 1.043 M9.094 2.866 C 11.265 3.223,13.029 4.972,13.426 7.162 C 13.518 7.672,13.516 8.536,13.421 9.040 C 13.110 10.686,12.056 12.088,10.566 12.837 C 10.138 13.052,9.518 13.258,9.060 13.337 C 8.587 13.419,7.721 13.418,7.237 13.335 C 5.344 13.011,3.752 11.681,3.102 9.880 C 2.918 9.373,2.838 8.940,2.813 8.317 C 2.774 7.364,2.919 6.643,3.317 5.820 C 3.608 5.217,3.951 4.737,4.395 4.309 C 5.668 3.082,7.323 2.574,9.094 2.866 M6.017 4.617 C 5.818 4.703,5.610 4.911,5.541 5.092 C 5.485 5.241,5.479 5.586,5.489 8.167 L 5.500 11.073 5.620 11.247 C 5.765 11.456,6.099 11.640,6.333 11.640 C 6.704 11.640,7.006 11.455,7.166 11.130 C 7.255 10.949,7.261 10.892,7.274 9.970 L 7.287 9.000 8.164 9.000 L 9.040 9.000 9.040 9.930 C 9.040 10.462,9.059 10.925,9.083 11.013 C 9.106 11.097,9.192 11.239,9.273 11.329 C 9.526 11.610,9.842 11.699,10.220 11.596 C 10.427 11.539,10.724 11.237,10.791 11.015 C 10.828 10.892,10.840 10.161,10.840 8.092 C 10.840 5.024,10.846 5.100,10.572 4.826 C 10.145 4.399,9.429 4.505,9.152 5.035 L 9.040 5.249 9.040 6.225 L 9.040 7.200 8.164 7.200 L 7.287 7.200 7.272 6.230 C 7.256 5.174,7.236 5.068,7.008 4.825 C 6.781 4.583,6.317 4.486,6.017 4.617 M16.629 12.041 C 16.216 12.145,15.943 12.389,15.621 12.939 C 15.456 13.220,11.680 19.892,11.160 20.820 C 10.625 21.775,11.025 22.770,12.020 22.958 C 12.193 22.991,13.604 23.001,17.100 22.992 C 22.596 22.978,22.128 23.009,22.540 22.633 C 22.964 22.246,23.096 21.745,22.911 21.220 C 22.823 20.968,18.569 13.382,18.152 12.731 C 17.956 12.427,17.734 12.220,17.487 12.114 C 17.272 12.022,16.849 11.986,16.629 12.041 M19.007 17.711 L 21.034 21.300 16.970 21.310 C 14.736 21.316,12.899 21.313,12.890 21.303 C 12.868 21.281,16.921 14.120,16.954 14.121 C 16.968 14.122,17.892 15.738,19.007 17.711 M16.569 16.325 C 16.364 16.426,16.188 16.629,16.126 16.837 C 16.066 17.036,16.067 18.006,16.126 18.206 C 16.330 18.884,17.275 19.010,17.680 18.414 C 17.775 18.273,17.781 18.234,17.793 17.603 C 17.808 16.857,17.782 16.719,17.591 16.523 C 17.318 16.242,16.900 16.161,16.569 16.325 M16.580 19.276 C 16.064 19.515,15.924 20.136,16.286 20.575 C 16.618 20.978,17.243 20.981,17.593 20.582 C 17.759 20.393,17.800 20.285,17.800 20.040 C 17.800 19.792,17.747 19.654,17.588 19.485 C 17.328 19.211,16.909 19.124,16.580 19.276" stroke="none" fill-rule="evenodd"/></svg>