<?xml version="1.0" encoding="UTF-8" standalone="no"?>
<svg xmlns="http://www.w3.org/2000/svg" width="16" height="16" fill="none"><g clip-path="url(#a)"><path fill="#D82020" d="M13 16H3c-1.7 0-3-1.3-3-3V3c0-1.7 1.3-3 3-3h10c1.7 0 3 1.3 3 3v10c0 1.7-1.3 3-3 3"/><path fill="#fff" fill-rule="evenodd" d="M4.4 6.1v-.7H1.7v.7h.9v3.7h.8V6.1M6.4 6.5c-.1 0-.2-.1-.3-.1-.3 0-.6.1-.8.5v-.4h-.6v3.2h.8V8c0-.4.1-.8.5-.8h.2M9.1 9.7c0-.2-.1-.4-.1-.6V7.3c0-.5-.4-.9-1.1-.9-.3 0-.7.1-1.1.2l.2.5c.2-.1.5-.2.7-.2.3 0 .5.1.5.5v.3h-.4c-.7 0-1.2.3-1.2 1 0 .6.3.9.9.9.3 0 .6-.1.8-.4l.1.4m-.1-.9c0 .3-.3.5-.5.5-.3 0-.4-.2-.4-.5s.1-.5.5-.5c.2 0 .3 0 .4.1v.4M13.9 9.7V7.4c0-.5-.3-1-.9-1-.4 0-.7.2-.8.5-.1-.2-.3-.5-.8-.5-.4 0-.7.2-.8.5l-.1-.4h-.6v3.2h.7v-2c0-.3.1-.7.5-.7.3 0 .4.2.4.5v2.2h.7v-2c0-.3.1-.7.5-.7.3 0 .4.2.4.5v2.2" clip-rule="evenodd"/></g><defs><clipPath id="a"><path fill="#fff" d="M0 0h16v16H0z"/></clipPath></defs></svg>