<?xml version="1.0" encoding="UTF-8" standalone="no"?>
<svg xmlns="http://www.w3.org/2000/svg" width="24" height="24"><path d="M5.500 1.027 C 4.724 1.101,3.872 1.415,3.160 1.892 C 2.769 2.153,2.148 2.777,1.881 3.176 C 1.428 3.853,1.130 4.653,1.040 5.435 C 0.987 5.902,0.987 18.098,1.040 18.565 C 1.169 19.688,1.667 20.715,2.476 21.524 C 3.194 22.241,4.004 22.678,5.042 22.906 C 5.364 22.976,5.696 22.980,12.000 22.980 C 18.304 22.980,18.636 22.976,18.958 22.906 C 19.996 22.678,20.806 22.241,21.524 21.524 C 22.241 20.806,22.678 19.996,22.906 18.958 C 22.976 18.636,22.980 18.304,22.980 12.000 C 22.980 5.696,22.976 5.364,22.906 5.042 C 22.678 4.004,22.241 3.194,21.524 2.476 C 20.825 1.778,20.077 1.366,19.040 1.108 C 18.701 1.024,18.672 1.024,12.180 1.018 C 8.594 1.015,5.588 1.019,5.500 1.027 M17.000 5.500 L 17.000 8.000 16.506 8.000 L 16.012 8.000 15.988 7.630 C 15.959 7.189,15.851 6.815,15.628 6.380 C 15.388 5.914,14.829 5.361,14.360 5.128 C 13.903 4.901,13.486 4.800,13.002 4.800 L 12.616 4.800 12.458 4.638 C 12.246 4.420,11.930 4.214,11.650 4.112 C 11.324 3.993,10.676 3.993,10.350 4.112 C 10.070 4.214,9.754 4.420,9.542 4.638 L 9.384 4.800 8.500 4.800 L 7.616 4.800 7.458 4.638 C 7.246 4.420,6.930 4.214,6.650 4.112 C 6.471 4.046,6.327 4.028,6.000 4.028 C 5.673 4.028,5.529 4.046,5.350 4.112 C 5.070 4.214,4.754 4.420,4.542 4.638 L 4.384 4.800 3.832 4.800 C 3.449 4.800,3.280 4.786,3.280 4.755 C 3.280 4.674,3.510 4.306,3.696 4.088 C 4.050 3.675,4.502 3.351,4.960 3.184 C 5.453 3.004,5.349 3.007,11.330 3.003 L 17.000 3.000 17.000 5.500 M19.652 3.497 C 20.116 3.804,20.552 4.330,20.764 4.837 C 21.010 5.427,21.000 5.111,21.000 12.000 C 21.000 18.889,21.010 18.573,20.764 19.163 C 20.482 19.837,19.884 20.448,19.220 20.742 L 19.000 20.839 19.000 16.926 L 19.000 13.013 19.214 12.965 C 19.332 12.938,19.490 12.872,19.564 12.817 C 20.268 12.302,20.056 11.224,19.214 11.035 L 19.000 10.987 19.000 10.500 L 19.000 10.013 19.215 9.965 C 19.595 9.880,19.880 9.594,19.965 9.214 C 20.085 8.679,19.752 8.156,19.215 8.035 L 19.000 7.987 19.000 5.574 L 19.000 3.161 19.220 3.258 C 19.341 3.312,19.535 3.419,19.652 3.497 M4.275 6.998 C 4.534 7.420,4.904 7.725,5.350 7.888 C 5.676 8.007,6.324 8.007,6.650 7.888 C 7.096 7.725,7.466 7.420,7.725 6.998 L 7.847 6.800 8.500 6.800 L 9.153 6.800 9.275 6.998 C 9.534 7.420,9.904 7.725,10.350 7.888 C 10.676 8.007,11.324 8.007,11.650 7.888 C 12.096 7.725,12.466 7.420,12.725 6.998 C 12.842 6.809,12.855 6.800,13.025 6.800 C 13.520 6.800,13.940 7.216,13.989 7.755 L 14.010 7.984 13.798 8.033 C 13.386 8.128,13.125 8.385,13.036 8.783 C 12.915 9.322,13.247 9.844,13.785 9.965 L 14.000 10.013 14.000 10.500 L 14.000 10.987 13.779 11.037 C 13.020 11.207,12.751 12.144,13.303 12.697 C 13.435 12.829,13.546 12.897,13.703 12.943 C 13.822 12.977,13.920 13.016,13.920 13.028 C 13.920 13.131,13.666 13.395,13.245 13.729 C 12.828 14.059,12.727 14.122,12.642 14.103 C 12.241 14.013,12.068 13.994,11.837 14.015 C 11.217 14.072,10.681 14.389,10.340 14.903 C 10.142 15.201,10.042 15.515,10.008 15.939 L 9.980 16.298 9.100 16.988 C 8.163 17.723,7.821 18.048,7.606 18.411 C 7.268 18.981,7.160 19.453,7.160 20.362 L 7.160 21.008 6.310 20.989 C 5.355 20.968,5.184 20.936,4.660 20.678 C 4.101 20.403,3.597 19.899,3.322 19.340 C 2.997 18.678,3.024 19.253,3.010 12.670 L 2.998 6.800 3.576 6.800 L 4.153 6.800 4.275 6.998 M17.000 10.500 L 17.000 11.000 16.500 11.000 L 16.000 11.000 16.000 10.500 L 16.000 10.000 16.500 10.000 L 17.000 10.000 17.000 10.500 M17.000 17.000 L 17.000 21.000 13.077 21.000 L 9.153 21.000 9.167 20.350 C 9.187 19.427,9.128 19.513,10.434 18.486 L 11.247 17.846 11.414 17.909 C 11.671 18.007,12.356 17.996,12.650 17.888 C 12.937 17.784,13.270 17.565,13.456 17.359 C 13.806 16.971,13.961 16.588,13.981 16.060 L 13.994 15.700 14.567 15.237 C 15.178 14.744,15.468 14.417,15.680 13.984 C 15.809 13.724,15.960 13.239,15.960 13.090 C 15.960 13.001,15.967 13.000,16.480 13.000 L 17.000 13.000 17.000 17.000" stroke="none" fill-rule="evenodd"/></svg>