<?xml version="1.0" encoding="UTF-8" standalone="no"?>
<svg version="1.1" id="Ebene_1" xmlns="http://www.w3.org/2000/svg" xmlns:xlink="http://www.w3.org/1999/xlink" x="0px" y="0px" viewBox="0 0 365 365" style="enable-background:new 0 0 365 365;" xml:space="preserve"><style type="text/css">.st0{fill:#FFB800;} \t.st1{fill:#4562A2;} \t.st2{fill:#FFFFFF;} \t.st3{fill-rule:evenodd;clip-rule:evenodd;fill:#1A171B;}</style><path class="st0" d="M330,365H35c-19.3299675,0-35-15.6700439-35-35V35C0,15.6700335,15.6700335,0,35,0h295 c19.3299561,0,35,15.6700335,35,35v295C365,349.3299561,349.3299561,365,330,365z"/><path class="st1" d="M0,258v72c0,19.3299561,15.6700439,35,35,35h295c19.3299561,0,35-15.6700439,35-35v-72H0z"/><g><path class="st2" d="M39.6044922,321.9238281l-1.8530273-22.7949219l-4.3955078,22.7949219h-5.2998047l-4.6108398-22.7949219 l-1.637207,22.7949219h-5.300293l3.2319336-28.7412109h6.7651367l4.3520508,23.0537109l4.1796875-23.0537109h6.765625 l3.2744141,28.7412109H39.6044922z"/><path class="st2" d="M62.0112305,321.9238281h-6.8945312l-8.1445312-28.7412109h5.8173828l5.9462891,24.3027344 l5.9038086-24.3027344h5.5585938L62.0112305,321.9238281z"/><path class="st2" d="M85.2275391,322.3974609c-9.0058594,0-13.0566406-6.0751953-13.0566406-15.296875 c0-8.1875,5.0415039-14.3925781,14.1772461-14.3925781c3.1455078,0,5.3862305,0.3447266,7.152832,0.9912109l-0.9912109,4.1796875 c-1.7666016-0.6894531-3.7055664-1.0341797-5.9033203-1.0341797c-6.1621094,0-8.7905273,4.3095703-8.7905273,10.2128906 c0,6.0751953,1.7666016,11.2900391,8.0146484,11.2900391c1.1206055,0,2.0253906-0.2158203,2.8442383-0.5605469v-7.9716797 h-4.2231445v-4.0507812h9.394043v15.0820312C91.3896484,321.9238281,88.6748047,322.3974609,85.2275391,322.3974609z"/><path class="st2" d="M125.4726562,321.9238281l-8.6611328-14.3496094v14.3496094h-5.4726562v-28.7412109h5.4291992v12.625 l8.5322266-12.625h6.1621094l-9.3505859,13.2714844l9.7382812,15.4697266H125.4726562z"/><path class="st2" d="M146.2768555,321.9238281l-0.3876953-2.8007812c-0.8623047,1.9394531-2.9306641,3.1884766-5.6020508,3.1884766 c-4.2231445,0-5.9897461-2.9736328-5.9897461-6.6787109v-14.9101562h5.1279297v14.3925781 c0,1.8964844,0.7753906,3.4042969,2.9301758,3.4042969c2.4130859,0,3.3178711-2.3701172,3.3178711-4.5244141v-13.2724609h5.1279297 v21.2011719H146.2768555z"/><path class="st2" d="M168.2094727,321.9238281v-14.4355469c0-1.8955078-0.8183594-3.4902344-3.0161133-3.4902344 c-2.5424805,0-3.4907227,2.5419922-3.4907227,4.6542969v13.2714844h-5.1274414v-21.2011719h4.5244141l0.3876953,2.8447266 c0.9047852-1.9394531,3.0166016-3.2324219,5.730957-3.2324219c4.2231445,0,6.1191406,3.0166016,6.1191406,6.7226562v14.8662109 H168.2094727z"/><path class="st2" d="M190.9179688,321.9238281l-0.3876953-2.6289062c-1.1630859,1.9394531-2.8867188,3.0166016-5.515625,3.0166016 c-5.8173828,0-7.1098633-5.9033203-7.1098633-11.2470703c0-5.5585938,2.2836914-10.7294922,8.0581055-10.7294922 c2.0253906,0,3.8779297,0.9912109,4.5673828,2.7148438v-11.8066406h5.1279297v30.6806641H190.9179688z M190.6601562,308.953125 c0-2.4560547-1.1210938-5.0410156-3.6630859-5.0410156c-3.2314453,0-3.7490234,4.7832031-3.7490234,7.3681641 c0,3.2753906,0.3447266,7.3681641,3.6201172,7.3681641c2.3701172,0,3.7919922-2.4121094,3.7919922-4.9980469V308.953125z"/><path class="st2" d="M205.4394531,312.5732422c0,3.6191406,1.5947266,6.0322266,5.4296875,6.0322266 c1.5507812,0,3.3173828-0.3876953,4.6962891-1.0341797l0.8623047,3.6630859 c-1.9394531,0.8183594-4.6972656,1.0771484-6.765625,1.0771484c-6.7216797,0-9.4365234-5.2568359-9.4365234-11.2900391 c0-5.2138672,2.5419922-10.6425781,8.6181641-10.6425781c6.4638672,0.0429688,8.4023438,4.6962891,8.4023438,10.2978516v1.8964844 H205.4394531z M208.84375,303.7822266c-2.7148438,0-3.4042969,3.2753906-3.4042969,5.3867188h6.8085938 C212.2480469,306.9277344,211.7304688,303.7822266,208.84375,303.7822266z"/><path class="st2" d="M233.3183594,321.9238281v-14.4355469c0-1.8955078-0.8183594-3.4902344-3.0166016-3.4902344 c-2.5419922,0-3.4902344,2.5419922-3.4902344,4.6542969v13.2714844h-5.1279297v-21.2011719h4.5253906l0.3876953,2.8447266 c0.9042969-1.9394531,3.015625-3.2324219,5.7304688-3.2324219c4.2236328,0,6.1191406,3.0166016,6.1191406,6.7226562v14.8662109 H233.3183594z"/><path class="st2" d="M252.1484375,322.3115234c-7.1523438,0-9.1347656-5.6875-9.1347656-11.2900391 c0-5.5585938,3.3183594-10.6865234,9.8671875-10.6865234c1.6806641,0,3.4042969,0.2158203,4.5683594,0.6894531 l-0.9052734,3.6201172c-1.0341797-0.4306641-2.1113281-0.5175781-3.3613281-0.5175781 c-3.8349609,0-4.8261719,3.7060547-4.8261719,6.8945312c0,4.1367188,1.0341797,7.4980469,5.2578125,7.4980469 c0.9472656,0,2.1113281-0.2148438,3.015625-0.7324219l0.9052734,3.7490234 C256.1992188,322.1396484,254.0449219,322.3115234,252.1484375,322.3115234z"/><path class="st2" d="M265.6796875,312.5732422c0,3.6191406,1.5947266,6.0322266,5.4296875,6.0322266 c1.5507812,0,3.3173828-0.3876953,4.6962891-1.0341797l0.8623047,3.6630859 c-1.9394531,0.8183594-4.6972656,1.0771484-6.765625,1.0771484c-6.7216797,0-9.4365234-5.2568359-9.4365234-11.2900391 c0-5.2138672,2.5419922-10.6425781,8.6181641-10.6425781c6.4638672,0.0429688,8.4023438,4.6962891,8.4023438,10.2978516v1.8964844 H265.6796875z M269.0839844,303.7822266c-2.7148438,0-3.4042969,3.2753906-3.4042969,5.3867188h6.8085938 C272.4882812,306.9277344,271.9707031,303.7822266,269.0839844,303.7822266z"/><path class="st2" d="M293.5585938,321.9238281v-14.4355469c0-1.8955078-0.8183594-3.4902344-3.0166016-3.4902344 c-2.5419922,0-3.4902344,2.5419922-3.4902344,4.6542969v13.2714844h-5.1279297v-21.2011719h4.5253906l0.3876953,2.8447266 c0.9042969-1.9394531,3.015625-3.2324219,5.7304688-3.2324219c4.2236328,0,6.1191406,3.0166016,6.1191406,6.7226562v14.8662109 H293.5585938z"/><path class="st2" d="M310.0957031,322.3115234c-3.5332031,0-5.2568359-1.8955078-5.2568359-5.8173828v-12.0224609h-3.0166016 v-3.7490234h3.0166016v-4.7822266l5.1279297-1.4658203v6.2050781h4.09375v3.7919922h-4.09375v10.8164062 c0,2.4130859,0.6035156,3.2744141,2.1113281,3.2744141c0.7753906,0,1.2070312,0,1.9394531-0.2578125l0.3447266,3.4902344 C313.1982422,322.2255859,311.90625,322.3115234,310.0957031,322.3115234z"/><path class="st2" d="M322.1181641,312.5732422c0,3.6191406,1.5947266,6.0322266,5.4296875,6.0322266 c1.5507812,0,3.3173828-0.3876953,4.6962891-1.0341797l0.8623047,3.6630859 c-1.9394531,0.8183594-4.6972656,1.0771484-6.765625,1.0771484c-6.7216797,0-9.4365234-5.2568359-9.4365234-11.2900391 c0-5.2138672,2.5419922-10.6425781,8.6181641-10.6425781c6.4638672,0.0429688,8.4023438,4.6962891,8.4023438,10.2978516v1.8964844 H322.1181641z M325.5224609,303.7822266c-2.7148438,0-3.4042969,3.2753906-3.4042969,5.3867188h6.8085938 C328.9267578,306.9277344,328.4091797,303.7822266,325.5224609,303.7822266z"/><path class="st2" d="M348.6611328,305.1181641c-0.4736328-0.1289062-0.9482422-0.2148438-1.421875-0.2148438 c-3.0595703,0-3.7490234,2.7578125-3.7490234,5.4287109v11.5917969h-5.1279297v-21.2011719h4.6542969l0.3876953,2.8017578 c1.3359375-2.2412109,2.8867188-3.1894531,5.1279297-3.1894531c0.3876953,0,1.2060547,0.0869141,1.5947266,0.2587891 L348.6611328,305.1181641z"/></g><g><path class="st3" d="M241.7694855,40.7838249c10.007843,0,18.1235199,8.1039352,18.1235199,18.1106071 c0,10.007843-8.1156769,18.1352539-18.1235199,18.1352539c-10.0066681,0-18.122345-8.1274109-18.122345-18.1352539 C223.6471405,48.8877602,231.7628174,40.7838249,241.7694855,40.7838249"/><path class="st3" d="M268.1683044,154.1062927v-46.1046371c0-1.1456299-0.8709412-1.6961441-1.6961365-1.6961441 c-0.8369141,0-1.7078857,0.5505142-1.7078857,1.6961441l-0.0457764,124.6132889 c0,6.1329956-4.769165,11.0853882-10.6381683,11.0853882c-5.8690186,0-10.6370087-4.9523926-10.6370087-11.0853882v-69.9809723 c-0.011734-1.2947083-0.9519501-1.9485168-1.8569641-1.9027252c-0.9061737-0.0457916-1.8452148,0.608017-1.8569489,1.9027252 v69.9809723c0,6.1329956-4.7797241,11.0853882-10.6487427,11.0853882s-10.6381836-4.9523926-10.6381836-11.0853882 l-0.0575104-124.6132889c0-1.1456299-0.8474884-1.6961441-1.6844025-1.6961441 c-0.8486633,0-1.7078857,0.5505142-1.7078857,1.6961441v46.1046371c-0.3333588,4.5614014-4.1388397,8.1497192-8.7929688,8.1497192 h-0.4812469c-4.8595581,0-8.8035278-3.9428101-8.8035278-8.8035278v-51.5487366 c0-9.8587723,7.9900818-17.8476715,17.8476715-17.8476715h53.6463165c9.8470459,0,17.8371277,7.9888992,17.8371277,17.8476715 v51.5487366c0,4.8607178-3.9439697,8.8035278-8.8152771,8.8035278h-0.4812622 C272.3188782,162.256012,268.5122375,158.6676941,268.1683044,154.1062927"/><path class="st3" d="M134.5063171,144.2592621H56.1683388v14.3403473h78.3379822 C144.0669403,158.5996094,144.0669403,144.2592621,134.5063171,144.2592621"/><path class="st3" d="M150.5780334,47.2256546c0-10.0641861-8.1614532-18.2256413-18.2033386-18.2256413 c-10.0641937,0-18.2150803,8.1614552-18.2150803,18.2256413c0,10.064064,8.1508865,18.2139053,18.2150803,18.2139053 C142.4165802,65.4395599,150.5780334,57.2897186,150.5780334,47.2256546"/><path class="st3" d="M150.9559937,102.0986023l26.3765259-2.7397766c5.0086212-0.5386581,9.5136719,3.0954361,10.0407104,8.127533 c0.5282135,5.0542755-3.1058807,9.5254135-8.1156616,10.0524521l-32.4286652,3.3934631 c-3.5413666,0.6761093-7.3127899-0.7911453-9.3986359-4.0120621l-4.4944916-6.9125214l-6.2810287,26.9376068H78.5217743 l3.9428101-16.9297638l6.0873413,9.0324097c3.2209167,4.7797241,9.9033737,5.9147949,14.6607971,2.7056122 c4.7797318-3.2220764,6.0521317-9.6979523,2.8206558-14.4776764L93.3551254,98.4422073l-1.9379501,1.6386261l12.4610977,18.4674454 c2.4180374,3.598877,1.4778214,8.4819031-2.1327972,10.9011078c-3.5871429,2.4297791-8.6544571,1.6045837-11.0842285-2.0060272 L73.260788,101.6396408c-1.513031-2.2583923-1.697319-5.0086136-0.768837-7.3362656 c0.5164719-1.6163254,1.4672546-3.08358,2.8546906-4.2528076l21.263443-17.8358154 c1.2500992-1.3522263,5.1353912-4.2069168,5.4452744-4.2761688c4.7456818-2.6469269,10.4656296-3.5648422,16.1515274-2.143364 l2.5095901,0.6197662c4.5167999,1.1233292,8.379776,3.5752869,11.2567749,6.8315353 c0.4354858,0.4472198,0.8486633,0.9402161,1.1925812,1.4789886c0.5387726,0.7218933,1.0317688,1.489563,1.4672546,2.257225 L150.9559937,102.0986023"/></g></svg>