<?xml version="1.0" encoding="UTF-8" standalone="no"?>
<svg xmlns="http://www.w3.org/2000/svg" width="24" height="24"><path d="M12.399 3.122c.132.899-.495 1.743-1.394 1.876a1.657 1.657 0 0 1-1.876-1.395 1.657 1.657 0 0 1 1.394-1.875c.9-.133 1.743.495 1.876 1.394"/><path fill-rule="evenodd" d="m8.087 14.294.302-6.071-1.147.652a.404.404 0 0 0-.2.41l.252 1.707a.808.808 0 0 1-.681.917l-.038.005a.808.808 0 0 1-.916-.68l-.37-2.515a.808.808 0 0 1 .378-.807l3.414-2.08a1.773 1.773 0 0 1 2.268.368l1.01 1.187a3.903 3.903 0 0 0 1.834 1.277 5.16 5.16 0 0 1 3.495-1.357h2.26c1.662 0 3.052 1.32 3.052 3a1 1 0 1 1-2 0c0-.529-.447-1-1.051-1h-2.26c-.801 0-1.567.299-2.142.829L6.703 18.29H4.05c-.604 0-1.051.471-1.051 1 0 .528.447 1 1.051 1h2.26c.801 0 1.567-.3 2.142-.83l4.279-3.944a1 1 0 1 1 1.355 1.47L9.81 20.932a5.16 5.16 0 0 1-3.497 1.359h-2.26C2.39 22.29 1 20.97 1 19.29s1.39-3 3.051-3h1.87l2.166-1.997m3.414-3.148 1.347-1.242a5.911 5.911 0 0 1-1.241-.819l-.106 2.06" clip-rule="evenodd"/><path fill-rule="evenodd" d="M18.832 14.809a1.248 1.248 0 0 0-1.389.816 1 1 0 0 1-1.886-.664 3.248 3.248 0 0 1 6.312 1.083c0 1.28-.947 2.102-1.57 2.517-.42.28-.882.512-1.36.678h-.002a1 1 0 0 1-.635-1.896c.312-.11.614-.263.888-.446.502-.335.68-.636.68-.854v-.002a1.248 1.248 0 0 0-1.038-1.232" clip-rule="evenodd"/><path d="M19.656 21.29a1 1 0 1 1-2 0 1 1 0 0 1 2 0"/></svg>