<?xml version="1.0" encoding="UTF-8" standalone="no"?>
<svg xmlns="http://www.w3.org/2000/svg" width="24" height="24"><path d="M11.419 1.241 C 11.196 1.312,3.246 5.694,2.864 5.957 C 2.455 6.239,2.130 6.728,2.041 7.196 C 2.015 7.334,2.000 9.048,2.001 12.015 C 2.001 17.084,1.992 16.889,2.248 17.369 C 2.524 17.886,2.517 17.882,6.925 20.326 C 9.133 21.550,11.019 22.591,11.115 22.639 C 11.645 22.905,12.334 22.913,12.846 22.660 C 12.920 22.623,14.804 21.582,17.034 20.347 C 21.484 17.880,21.477 17.885,21.752 17.369 C 22.008 16.889,21.999 17.086,21.999 12.000 C 21.999 6.977,22.005 7.124,21.776 6.673 C 21.633 6.390,21.320 6.070,20.982 5.862 C 20.827 5.765,18.927 4.704,16.760 3.502 C 14.270 2.122,12.726 1.288,12.566 1.239 C 12.234 1.136,11.747 1.137,11.419 1.241 M16.004 5.370 L 19.980 7.580 19.989 12.000 L 19.999 16.420 16.036 18.620 C 13.857 19.830,12.050 20.825,12.022 20.832 C 11.978 20.842,4.181 16.538,4.050 16.431 C 4.010 16.398,4.002 15.479,4.010 11.985 L 4.020 7.580 7.996 5.370 C 10.184 4.154,11.985 3.160,12.000 3.160 C 12.015 3.160,13.816 4.154,16.004 5.370 M11.664 7.063 C 11.436 7.146,11.257 7.297,11.131 7.511 L 11.020 7.700 11.009 9.911 C 11.001 11.377,11.012 12.175,11.040 12.279 C 11.101 12.506,11.311 12.760,11.531 12.874 C 11.932 13.080,12.390 13.012,12.700 12.702 C 13.003 12.399,13.000 12.429,13.000 10.000 C 13.000 7.573,13.003 7.601,12.701 7.299 C 12.429 7.027,12.018 6.933,11.664 7.063 M11.664 15.060 C 11.433 15.148,11.256 15.299,11.131 15.511 C 11.036 15.672,11.020 15.744,11.020 16.000 C 11.020 16.256,11.036 16.328,11.131 16.489 C 11.335 16.836,11.709 17.029,12.099 16.989 C 13.109 16.884,13.337 15.564,12.427 15.093 C 12.254 15.004,11.856 14.987,11.664 15.060" stroke="none" fill-rule="evenodd"/></svg>