<?xml version="1.0" encoding="UTF-8" standalone="no"?>
<svg xmlns="http://www.w3.org/2000/svg" width="24" height="24"><path d="M11.700 1.522 C 11.020 1.640,10.618 1.966,10.094 2.821 C 9.587 3.648,1.294 17.999,1.081 18.420 C 0.827 18.919,0.760 19.161,0.760 19.576 C 0.760 20.402,1.277 21.093,2.100 21.367 L 2.380 21.460 12.000 21.460 L 21.620 21.460 21.898 21.367 C 22.272 21.242,22.472 21.119,22.708 20.869 C 23.077 20.478,23.240 20.082,23.240 19.576 C 23.240 19.161,23.173 18.919,22.919 18.420 C 22.697 17.982,14.147 3.195,13.808 2.660 C 13.324 1.898,12.850 1.571,12.140 1.508 C 12.008 1.496,11.810 1.502,11.700 1.522 M12.389 4.170 C 12.730 4.745,20.842 18.763,21.114 19.246 L 21.241 19.472 20.831 19.499 C 20.249 19.536,2.853 19.507,2.815 19.468 C 2.772 19.425,2.551 19.811,7.421 11.400 C 11.806 3.824,11.960 3.561,12.004 3.560 C 12.017 3.560,12.190 3.834,12.389 4.170 M11.673 8.063 C 11.412 8.143,11.140 8.421,11.061 8.690 C 10.970 8.994,10.970 13.006,11.061 13.310 C 11.173 13.688,11.598 14.000,12.000 14.000 C 12.237 14.000,12.514 13.880,12.697 13.697 C 13.002 13.391,13.000 13.411,13.000 11.000 C 13.000 8.589,13.002 8.609,12.697 8.303 C 12.418 8.024,12.067 7.942,11.673 8.063 M11.673 16.063 C 11.312 16.174,11.000 16.609,11.000 17.000 C 11.000 17.517,11.483 18.000,12.000 18.000 C 12.058 18.000,12.194 17.974,12.303 17.941 C 13.224 17.666,13.224 16.334,12.303 16.059 C 12.062 15.987,11.917 15.988,11.673 16.063" stroke="none" fill-rule="evenodd"/></svg>