<?xml version="1.0" encoding="UTF-8" standalone="no"?>
<svg xmlns="http://www.w3.org/2000/svg" width="24" height="24"><path d="M17.253 1.924 C 16.918 1.980,16.548 2.137,15.720 2.577 C 13.505 3.754,12.376 4.201,11.000 4.446 C 10.829 4.476,9.683 4.502,7.640 4.521 C 4.394 4.551,4.332 4.555,3.697 4.739 C 2.756 5.013,1.822 5.843,1.394 6.787 C 1.049 7.548,0.987 8.216,1.009 10.960 C 1.024 12.879,1.029 12.996,1.111 13.291 C 1.357 14.179,2.040 14.952,2.864 15.274 C 3.117 15.373,3.622 15.480,3.836 15.480 L 3.996 15.480 4.010 17.510 C 4.025 19.780,4.020 19.731,4.321 20.340 C 4.599 20.900,5.102 21.403,5.660 21.678 C 6.202 21.945,6.392 21.980,7.280 21.979 C 8.049 21.978,8.065 21.976,8.422 21.852 C 8.929 21.677,9.249 21.476,9.620 21.102 C 10.129 20.590,10.385 20.055,10.478 19.314 C 10.501 19.130,10.520 18.211,10.520 17.251 L 10.520 15.520 10.633 15.520 C 10.843 15.520,11.627 15.678,12.107 15.818 C 13.021 16.083,14.189 16.606,15.860 17.497 C 16.886 18.044,17.383 18.186,17.901 18.081 C 18.625 17.933,19.162 17.438,19.377 16.720 C 19.498 16.313,19.518 15.361,19.518 10.000 C 19.518 4.639,19.498 3.687,19.377 3.280 C 19.162 2.561,18.610 2.053,17.903 1.923 C 17.635 1.875,17.548 1.875,17.253 1.924 M17.480 10.023 L 17.480 16.087 16.890 15.776 C 14.564 14.551,13.446 14.076,12.155 13.760 C 11.410 13.579,10.892 13.520,10.026 13.520 C 9.274 13.520,9.251 13.523,9.044 13.625 C 8.777 13.758,8.584 14.014,8.524 14.315 C 8.495 14.459,8.480 15.338,8.480 16.888 C 8.480 19.464,8.488 19.371,8.239 19.655 C 8.015 19.910,7.843 19.974,7.333 19.992 C 6.766 20.013,6.543 19.948,6.294 19.692 C 5.996 19.385,6.000 19.430,6.000 16.703 L 5.999 14.300 5.905 14.100 C 5.794 13.867,5.598 13.668,5.400 13.587 C 5.308 13.549,5.015 13.520,4.540 13.502 C 4.144 13.487,3.751 13.457,3.666 13.435 C 3.457 13.381,3.181 13.117,3.092 12.887 C 3.026 12.715,3.020 12.527,3.020 10.560 C 3.021 9.015,3.035 8.337,3.071 8.120 C 3.160 7.598,3.422 7.177,3.841 6.882 C 4.339 6.533,4.475 6.520,7.653 6.519 C 9.087 6.519,10.474 6.501,10.735 6.479 C 12.361 6.345,14.092 5.721,16.660 4.346 C 17.056 4.134,17.402 3.960,17.430 3.960 C 17.470 3.960,17.480 5.199,17.480 10.023 M21.695 7.057 C 21.466 7.129,21.256 7.299,21.128 7.516 L 21.020 7.700 21.020 10.003 L 21.020 12.306 21.141 12.503 C 21.543 13.156,22.457 13.156,22.859 12.503 L 22.980 12.306 22.980 10.003 L 22.980 7.700 22.872 7.516 C 22.628 7.101,22.150 6.915,21.695 7.057" stroke="none" fill-rule="evenodd"/></svg>