<?xml version="1.0" encoding="UTF-8" standalone="no"?>
<svg xmlns="http://www.w3.org/2000/svg" width="24" height="24"><path d="M4.378 1.058 C 2.674 1.323,1.320 2.686,1.058 4.400 C 0.972 4.968,0.972 19.032,1.058 19.600 C 1.284 21.077,2.308 22.297,3.732 22.785 C 4.373 23.005,4.181 23.000,12.000 23.000 C 19.819 23.000,19.627 23.005,20.268 22.785 C 21.689 22.298,22.717 21.073,22.942 19.600 C 23.028 19.032,23.028 4.968,22.942 4.400 C 22.716 2.923,21.692 1.703,20.268 1.215 C 19.626 0.995,19.826 1.000,11.960 1.004 C 6.366 1.007,4.626 1.019,4.378 1.058 M19.492 3.060 C 19.852 3.153,20.118 3.310,20.404 3.596 C 20.690 3.882,20.847 4.148,20.940 4.508 C 21.030 4.854,21.030 19.146,20.940 19.492 C 20.847 19.852,20.690 20.118,20.404 20.404 C 20.118 20.690,19.852 20.847,19.492 20.940 C 19.146 21.030,4.854 21.030,4.508 20.940 C 4.148 20.847,3.882 20.690,3.596 20.404 C 3.310 20.118,3.153 19.852,3.060 19.492 C 2.970 19.146,2.970 4.854,3.060 4.508 C 3.153 4.148,3.310 3.882,3.596 3.596 C 3.876 3.316,4.146 3.154,4.491 3.062 C 4.815 2.974,19.158 2.972,19.492 3.060 M11.775 5.277 C 11.289 5.398,11.058 6.004,11.343 6.408 C 11.550 6.700,11.676 6.738,12.485 6.754 L 13.191 6.768 13.715 7.937 C 14.004 8.580,14.240 9.127,14.240 9.152 C 14.240 9.194,12.071 12.824,12.007 12.888 C 11.992 12.903,11.498 12.035,10.908 10.958 C 9.849 9.025,9.836 8.998,9.848 8.790 L 9.860 8.580 10.540 8.560 C 10.964 8.548,11.252 8.522,11.305 8.492 C 11.431 8.419,11.635 8.172,11.664 8.057 C 11.716 7.849,11.659 7.533,11.542 7.379 C 11.318 7.085,11.297 7.082,9.520 7.082 C 8.062 7.082,7.927 7.088,7.775 7.157 C 7.538 7.265,7.390 7.476,7.368 7.741 C 7.345 8.022,7.375 8.129,7.526 8.301 C 7.695 8.493,7.776 8.531,8.080 8.557 L 8.340 8.580 8.352 8.786 C 8.363 8.977,8.333 9.056,7.947 9.853 L 7.529 10.714 7.375 10.677 C 7.123 10.616,6.369 10.628,6.037 10.697 C 4.699 10.977,3.629 12.050,3.337 13.406 C 3.254 13.792,3.254 14.568,3.337 14.954 C 3.484 15.638,3.811 16.224,4.336 16.743 C 5.084 17.483,6.052 17.822,7.109 17.715 C 8.344 17.589,9.433 16.780,9.945 15.607 C 10.019 15.438,10.079 15.279,10.080 15.253 C 10.080 15.219,10.355 15.203,11.110 15.193 C 12.122 15.180,12.143 15.178,12.320 15.080 C 12.491 14.985,12.564 14.872,13.740 12.911 C 14.422 11.774,14.991 10.842,15.005 10.841 C 15.019 10.841,15.070 10.938,15.119 11.057 L 15.207 11.274 14.901 11.564 C 14.147 12.281,13.781 13.145,13.785 14.200 C 13.789 15.203,14.087 15.944,14.776 16.671 C 15.434 17.365,16.290 17.729,17.260 17.728 C 18.207 17.727,18.997 17.403,19.664 16.743 C 20.396 16.018,20.729 15.214,20.727 14.180 C 20.725 13.136,20.398 12.350,19.663 11.620 C 18.984 10.946,18.201 10.629,17.240 10.639 C 16.987 10.641,16.736 10.647,16.681 10.652 C 16.588 10.660,16.523 10.528,15.460 8.169 C 14.843 6.799,14.289 5.615,14.228 5.539 C 14.013 5.270,13.970 5.261,12.880 5.253 C 12.341 5.248,11.844 5.259,11.775 5.277 M9.916 12.256 C 10.336 13.024,10.680 13.658,10.680 13.666 C 10.680 13.674,10.574 13.680,10.445 13.680 L 10.210 13.680 10.127 13.324 C 9.976 12.676,9.710 12.200,9.196 11.660 L 8.892 11.340 9.011 11.088 C 9.076 10.949,9.134 10.841,9.140 10.848 C 9.147 10.855,9.496 11.488,9.916 12.256 M6.374 13.070 C 5.765 14.320,5.788 14.261,5.809 14.509 C 5.829 14.749,5.972 14.963,6.204 15.100 C 6.329 15.174,6.426 15.181,7.410 15.193 L 8.479 15.207 8.433 15.293 C 8.353 15.444,7.907 15.884,7.729 15.989 C 7.447 16.154,7.108 16.240,6.740 16.240 C 6.156 16.240,5.718 16.045,5.311 15.604 C 4.926 15.187,4.760 14.759,4.760 14.180 C 4.760 13.593,4.927 13.168,5.326 12.742 C 5.702 12.339,6.145 12.129,6.628 12.123 L 6.836 12.120 6.374 13.070 M17.782 12.182 C 18.106 12.266,18.404 12.453,18.674 12.742 C 19.073 13.168,19.240 13.593,19.240 14.180 C 19.240 14.759,19.074 15.187,18.689 15.604 C 18.282 16.045,17.844 16.240,17.260 16.240 C 16.674 16.240,16.270 16.065,15.855 15.633 C 15.448 15.209,15.280 14.784,15.280 14.180 C 15.280 13.647,15.430 13.207,15.728 12.865 L 15.863 12.709 16.318 13.725 C 16.568 14.283,16.816 14.799,16.869 14.871 C 17.060 15.130,17.329 15.222,17.655 15.139 C 17.877 15.083,18.024 14.959,18.124 14.740 C 18.258 14.452,18.231 14.338,17.814 13.404 C 17.601 12.929,17.386 12.445,17.334 12.330 L 17.241 12.120 17.392 12.120 C 17.475 12.120,17.650 12.148,17.782 12.182 M8.336 12.932 C 8.434 13.060,8.606 13.410,8.659 13.590 C 8.685 13.680,8.684 13.680,8.223 13.680 C 7.968 13.680,7.760 13.671,7.760 13.660 C 7.760 13.611,8.182 12.800,8.207 12.800 C 8.223 12.800,8.281 12.859,8.336 12.932" stroke="none" fill-rule="evenodd"/></svg>