<?xml version="1.0" encoding="utf-8"?>\x3c!--Generator: Adobe Illustrator 25.1.0, SVG Export Plug-In . SVG Version: 6.00 Build 0)--\x3e<svg version="1.1" id="Ebene_2" xmlns="http://www.w3.org/2000/svg" xmlns:xlink="http://www.w3.org/1999/xlink" x="0px" y="0px" viewBox="0 0 365 365" style="enable-background:new 0 0 365 365;" xml:space="preserve"><style type="text/css">.st0{fill:#4562A2;} \t.st1{fill:#2C426D;} \t.st2{fill:#FFFFFF;} \t.st3{fill-rule:evenodd;clip-rule:evenodd;fill:#FFFFFF;}</style><path class="st0" d="M330,365H35c-19.3299675,0-35-15.6700439-35-35V35C0,15.6700335,15.6700335,0,35,0h295 c19.3299561,0,35,15.6700335,35,35v295C365,349.3299561,349.3299561,365,330,365z"/><path class="st1" d="M0,200v130c0,19.3299561,15.6700439,35,35,35h295c19.3299561,0,35-15.6700439,35-35V200H0z"/><g><path class="st2" d="M41.3916016,264.5947266v-4.6582031l15.3598633-26.7822266H42.0571289v-5.5449219H64.847168v4.6582031 l-15.3041992,26.7265625h15.637207v5.6005859H41.3916016z"/><path class="st2" d="M74.4296875,252.5615234c0,4.6582031,2.0517578,7.7636719,6.9868164,7.7636719 c1.9960938,0,4.2695312-0.4990234,6.0439453-1.3310547l1.1088867,4.7128906 c-2.4951172,1.0537109-6.0439453,1.3867188-8.7055664,1.3867188c-8.6503906,0-12.1435547-6.7646484-12.1435547-14.5283203 c0-6.7089844,3.2714844-13.6962891,11.0898438-13.6962891c8.3178711,0.0556641,10.8129883,6.0449219,10.8129883,13.2529297 v2.4394531H74.4296875z M78.8100586,241.25c-3.4931641,0-4.3803711,4.2138672-4.3803711,6.9316406h8.7612305 C83.190918,245.2978516,82.5253906,241.25,78.8100586,241.25z"/><path class="st2" d="M108.5849609,242.96875c-0.6098633-0.1660156-1.2197266-0.2773438-1.8295898-0.2773438 c-3.9370117,0-4.8242188,3.5488281-4.8242188,6.9873047v14.9160156h-6.5986328v-27.28125h5.9882812l0.4995117,3.6035156 c1.71875-2.8828125,3.7148438-4.1025391,6.5981445-4.1025391c0.4995117,0,1.5527344,0.1103516,2.0517578,0.3320312 L108.5849609,242.96875z"/><path class="st2" d="M122.7236328,265.09375c-4.546875,0-6.7646484-2.4394531-6.7646484-7.4853516v-15.4707031h-3.8818359 v-4.8242188h3.8818359v-6.1552734l6.5981445-1.8857422v7.9853516h5.2680664v4.8798828h-5.2680664v13.9179688 c0,3.1044922,0.7763672,4.2138672,2.7172852,4.2138672c0.9980469,0,1.5527344,0,2.4951172-0.3330078l0.4438477,4.4921875 C126.7163086,264.9824219,125.0527344,265.09375,122.7236328,265.09375z"/><path class="st2" d="M134.5888672,264.5947266v-22.4570312h-3.659668v-4.8242188H141.1875v27.28125H134.5888672z M137.527832,232.5996094c-2.2734375,0-4.1030273-1.7744141-4.1030273-3.9365234c0-2.1630859,1.8295898-3.9375,4.1030273-3.9375 s4.1035156,1.7744141,4.1035156,3.9375C141.6313477,230.8251953,139.8012695,232.5996094,137.527832,232.5996094z"/><path class="st2" d="M161.5366211,230.0488281c-1.1088867-0.1660156-1.4970703-0.2216797-2.605957-0.2216797 c-1.6083984,0.0556641-2.2734375,1.4414062-2.2734375,3.2714844v4.2148438h4.6577148v4.9345703h-4.6577148v22.3466797h-6.5986328 v-22.3466797h-3.9370117v-4.9345703h3.9370117c0-0.6660156,0-3.3271484,0-4.6025391 c0-4.9355469,2.6616211-7.5966797,8.0957031-7.5966797c1.6635742,0,3.4379883,0.2773438,4.4912109,0.5546875 L161.5366211,230.0488281z"/><path class="st2" d="M167.9677734,264.5947266v-22.4570312h-3.659668v-4.8242188h10.2583008v27.28125H167.9677734z M170.9067383,232.5996094c-2.2734375,0-4.1030273-1.7744141-4.1030273-3.9365234c0-2.1630859,1.8295898-3.9375,4.1030273-3.9375 s4.1035156,1.7744141,4.1035156,3.9375C175.0102539,230.8251953,173.1801758,232.5996094,170.9067383,232.5996094z"/><path class="st2" d="M180,264.5947266v-4.3251953l11.0898438-18.0771484h-10.4248047v-4.8789062h17.8554688v4.3798828 L187.375,259.6591797h11.4228516v4.9355469H180z"/><path class="st2" d="M205.5615234,264.5947266v-22.4570312h-3.6601562v-4.8242188h10.2587891v27.28125H205.5615234z M208.5,232.5996094c-2.2734375,0-4.1025391-1.7744141-4.1025391-3.9365234c0-2.1630859,1.8291016-3.9375,4.1025391-3.9375 s4.1035156,1.7744141,4.1035156,3.9375C212.6035156,230.8251953,210.7734375,232.5996094,208.5,232.5996094z"/><path class="st2" d="M224.9121094,252.5615234c0,4.6582031,2.0517578,7.7636719,6.9873047,7.7636719 c1.9960938,0,4.2695312-0.4990234,6.0439453-1.3310547l1.1083984,4.7128906 c-2.4951172,1.0537109-6.0439453,1.3867188-8.7050781,1.3867188c-8.6503906,0-12.1435547-6.7646484-12.1435547-14.5283203 c0-6.7089844,3.2714844-13.6962891,11.0898438-13.6962891c8.3173828,0.0556641,10.8125,6.0449219,10.8125,13.2529297v2.4394531 H224.9121094z M229.2929688,241.25c-3.4931641,0-4.3808594,4.2138672-4.3808594,6.9316406h8.7617188 C233.6738281,245.2978516,233.0078125,241.25,229.2929688,241.25z"/><path class="st2" d="M259.0683594,242.96875c-0.6103516-0.1660156-1.2197266-0.2773438-1.8300781-0.2773438 c-3.9365234,0-4.8242188,3.5488281-4.8242188,6.9873047v14.9160156h-6.5986328v-27.28125h5.9882812l0.4990234,3.6035156 c1.7197266-2.8828125,3.7158203-4.1025391,6.5986328-4.1025391c0.4990234,0,1.5527344,0.1103516,2.0517578,0.3320312 L259.0683594,242.96875z"/><path class="st2" d="M273.2070312,265.09375c-4.546875,0-6.765625-2.4394531-6.765625-7.4853516v-15.4707031h-3.8808594v-4.8242188 h3.8808594v-6.1552734l6.5986328-1.8857422v7.9853516h5.2685547v4.8798828h-5.2685547v13.9179688 c0,3.1044922,0.7763672,4.2138672,2.7177734,4.2138672c0.9980469,0,1.5527344,0,2.4951172-0.3330078l0.4433594,4.4921875 C277.1992188,264.9824219,275.5361328,265.09375,273.2070312,265.09375z"/><path class="st2" d="M288.6767578,252.5615234c0,4.6582031,2.0517578,7.7636719,6.9863281,7.7636719 c1.9960938,0,4.2695312-0.4990234,6.0439453-1.3310547l1.109375,4.7128906 c-2.4951172,1.0537109-6.0439453,1.3867188-8.7060547,1.3867188c-8.6503906,0-12.1435547-6.7646484-12.1435547-14.5283203 c0-6.7089844,3.2714844-13.6962891,11.0898438-13.6962891c8.3183594,0.0556641,10.8134766,6.0449219,10.8134766,13.2529297 v2.4394531H288.6767578z M293.0566406,241.25c-3.4931641,0-4.3798828,4.2138672-4.3798828,6.9316406H297.4375 C297.4375,245.2978516,296.7724609,241.25,293.0566406,241.25z"/><path class="st2" d="M322.8320312,242.96875c-0.6103516-0.1660156-1.2197266-0.2773438-1.8300781-0.2773438 c-3.9365234,0-4.8242188,3.5488281-4.8242188,6.9873047v14.9160156h-6.5986328v-27.28125h5.9882812l0.4990234,3.6035156 c1.7197266-2.8828125,3.7158203-4.1025391,6.5986328-4.1025391c0.4990234,0,1.5527344,0.1103516,2.0517578,0.3320312 L322.8320312,242.96875z"/><path class="st2" d="M39.9086914,297.265625v31.3291016H32.921875V297.265625h-7.9848633v-5.7119141h22.956543v5.7119141 H39.9086914z"/><path class="st2" d="M53.824707,328.5947266v-22.4570312h-3.659668v-4.8242188h10.2583008v27.28125H53.824707z M56.7636719,296.5996094c-2.2734375,0-4.1030273-1.7744141-4.1030273-3.9365234c0-2.1630859,1.8295898-3.9375,4.1030273-3.9375 s4.1035156,1.7744141,4.1035156,3.9375C60.8671875,294.8251953,59.0371094,296.5996094,56.7636719,296.5996094z"/><path class="st2" d="M78.2216797,329.09375c-9.2045898,0-11.7553711-7.3193359-11.7553711-14.5283203 c0-7.1523438,4.2695312-13.7509766,12.6982422-13.7509766c2.1625977,0,4.3803711,0.2773438,5.8774414,0.8867188 l-1.1640625,4.6582031c-1.3310547-0.5546875-2.7172852-0.6660156-4.3251953-0.6660156 c-4.9350586,0-6.2104492,4.7695312-6.2104492,8.8720703c0,5.3232422,1.3305664,9.6484375,6.7646484,9.6484375 c1.2202148,0,2.7172852-0.2773438,3.8818359-0.9423828l1.1645508,4.8242188 C83.434082,328.8720703,80.6616211,329.09375,78.2216797,329.09375z"/><path class="st2" d="M103.7719727,328.5947266l-7.4301758-13.1972656v13.1972656h-6.5429688v-39.4804688h6.5429688v23.0673828 l7.2084961-10.8681641h7.1533203l-8.4287109,11.921875l8.9829102,15.359375H103.7719727z"/><path class="st2" d="M119.8398438,316.5615234c0,4.6582031,2.0517578,7.7636719,6.9868164,7.7636719 c1.9960938,0,4.2695312-0.4990234,6.0439453-1.3310547l1.1088867,4.7128906 c-2.4951172,1.0537109-6.0439453,1.3867188-8.7055664,1.3867188c-8.6503906,0-12.1435547-6.7646484-12.1435547-14.5283203 c0-6.7089844,3.2714844-13.6962891,11.0898438-13.6962891c8.3178711,0.0556641,10.8129883,6.0449219,10.8129883,13.2529297 v2.4394531H119.8398438z M124.2202148,305.25c-3.4931641,0-4.3803711,4.2138672-4.3803711,6.9316406h8.7612305 C128.6010742,309.2978516,127.9355469,305.25,124.2202148,305.25z"/><path class="st2" d="M148.671875,329.09375c-4.546875,0-6.7646484-2.4394531-6.7646484-7.4853516v-15.4707031h-3.8818359 v-4.8242188h3.8818359v-6.1552734l6.5981445-1.8857422v7.9853516h5.2680664v4.8798828h-5.2680664v13.9179688 c0,3.1044922,0.7763672,4.2138672,2.7172852,4.2138672c0.9980469,0,1.5527344,0,2.4951172-0.3330078l0.4438477,4.4921875 C152.6645508,328.9824219,151.0009766,329.09375,148.671875,329.09375z"/><path class="st2" d="M157.5429688,315.2314453v-5.3232422h13.7519531v5.3232422H157.5429688z"/><path class="st2" d="M188.7050781,314.0117188h-3.6601562v14.5830078h-7.0424805V291.609375h11.3120117 c6.9316406,0,11.7001953,4.1582031,11.7001953,11.1455078 C201.0146484,309.6308594,196.0791016,314.0117188,188.7050781,314.0117188z M188.3164062,297.1542969h-3.3271484v11.3671875 h2.9941406c3.7158203,0,5.8222656-1.8847656,5.8222656-5.7666016 C193.8056641,299.3164062,191.9208984,297.1542969,188.3164062,297.1542969z"/><path class="st2" d="M219.1337891,328.5947266l-0.4990234-3.2158203c-1.5527344,2.3837891-3.8261719,3.7148438-6.8759766,3.7148438 c-5.3232422,0-8.0400391-3.1054688-8.0400391-8.1513672c0-5.6552734,4.2695312-8.7050781,10.4804688-8.7050781 c1.9404297,0,3.2158203,0.2763672,4.2138672,0.4433594v-3.0498047c0-2.828125-1.71875-4.1035156-4.6025391-4.1035156 c-1.9960938,0-4.6025391,0.4433594-6.4873047,1.4414062l-1.109375-4.6025391 c2.6621094-1.2197266,6.0439453-1.5517578,8.9277344-1.5517578c6.3769531,0,9.6484375,2.9941406,9.6484375,7.7626953v14.9716797 c0,1.6630859,0.2773438,3.3828125,0.4990234,5.0458984H219.1337891z M218.4130859,316.5615234 c-0.7207031-0.2763672-1.9404297-0.4990234-3.5488281-0.4990234c-3.1054688,0-4.4912109,2.1630859-4.4912109,4.546875 c0,2.3291016,0.9980469,4.0488281,3.4375,4.0488281c2.4951172,0,4.6025391-1.8300781,4.6025391-4.2705078V316.5615234z"/><path class="st2" d="M245.4716797,306.96875c-0.6103516-0.1660156-1.2197266-0.2773438-1.8300781-0.2773438 c-3.9365234,0-4.8242188,3.5488281-4.8242188,6.9873047v14.9160156H232.21875v-27.28125h5.9882812l0.4990234,3.6035156 c1.7197266-2.8828125,3.7158203-4.1025391,6.5986328-4.1025391c0.4990234,0,1.5527344,0.1103516,2.0517578,0.3320312 L245.4716797,306.96875z"/><path class="st2" d="M259.6103516,329.09375c-4.546875,0-6.765625-2.4394531-6.765625-7.4853516v-15.4707031h-3.8808594v-4.8242188 h3.8808594v-6.1552734l6.5986328-1.8857422v7.9853516h5.2685547v4.8798828h-5.2685547v13.9179688 c0,3.1044922,0.7763672,4.2138672,2.7177734,4.2138672c0.9980469,0,1.5527344,0,2.4951172-0.3330078l0.4433594,4.4921875 C263.6025391,328.9824219,261.9394531,329.09375,259.6103516,329.09375z"/><path class="st2" d="M284.8945312,328.5947266v-18.5761719c0-2.4394531-1.0537109-4.4912109-3.8818359-4.4912109 c-3.2714844,0-4.4912109,3.2714844-4.4912109,5.9882812v17.0791016h-6.5986328v-27.28125h5.8222656l0.4990234,3.6591797 c1.1650391-2.4951172,3.8818359-4.1582031,7.375-4.1582031c5.4345703,0,7.8740234,3.8808594,7.8740234,8.6494141v19.1308594 H284.8945312z"/><path class="st2" d="M304.078125,316.5615234c0,4.6582031,2.0517578,7.7636719,6.9873047,7.7636719 c1.9960938,0,4.2695312-0.4990234,6.0439453-1.3310547l1.1083984,4.7128906 c-2.4951172,1.0537109-6.0439453,1.3867188-8.7050781,1.3867188c-8.6503906,0-12.1435547-6.7646484-12.1435547-14.5283203 c0-6.7089844,3.2714844-13.6962891,11.0898438-13.6962891c8.3173828,0.0556641,10.8125,6.0449219,10.8125,13.2529297v2.4394531 H304.078125z M308.4589844,305.25c-3.4931641,0-4.3808594,4.2138672-4.3808594,6.9316406h8.7617188 C312.8398438,309.2978516,312.1738281,305.25,308.4589844,305.25z"/><path class="st2" d="M338.2333984,306.96875c-0.609375-0.1660156-1.2197266-0.2773438-1.8291016-0.2773438 c-3.9375,0-4.8242188,3.5488281-4.8242188,6.9873047v14.9160156h-6.5986328v-27.28125h5.9882812l0.4990234,3.6035156 c1.71875-2.8828125,3.7148438-4.1025391,6.5986328-4.1025391c0.4990234,0,1.5527344,0.1103516,2.0517578,0.3320312 L338.2333984,306.96875z"/></g><g><path class="st3" d="M203.9816589,67.1226501H141.832901v104.8071747h62.1487579V67.1226501L203.9816589,67.1226501z M134.5181427,161.8279724L83.5681839,148.473175l30.8858948-115.4468536l74.2201157,19.9283066l-1.8042908,6.7513428h24.4984436 v119.5260162h-76.8502045V161.8279724L134.5181427,161.8279724L134.5181427,161.8279724z M92.5306473,143.3270416 L92.5306473,143.3270416L119.6132278,42.098526l60.0264969,16.1167412l-0.4106903,1.5457916h-13.8505859l-42.0972214-10.8474312 l-1.9018784,7.1095963l15.4049988,3.7378349h-2.3000336v4.788311l-14.3970261-3.6849213l-1.9057846,7.1096039l16.3028107,4.1954041 v55.8796768l-7.742836-2.1174469l-1.9057388,7.1069946l9.6485748,2.6262054v5.0064697l-10.8981781-2.9606018l-1.8975449,7.1113434 l12.795723,3.4732513l0.0338287,5.9298706L92.5306473,143.3270416L92.5306473,143.3270416z M169.732605,158.452301h29.3821869 v7.3615875H169.732605V158.452301L169.732605,158.452301L169.732605,158.452301z M146.7842865,72.2774582h52.3305054v7.3611603 l-52.3305054-0.0021667V72.2774582L146.7842865,72.2774582L146.7842865,72.2774582z M146.7842865,84.6537628h52.3305054v7.357254 h-52.3305054V84.6537628L146.7842865,84.6537628L146.7842865,84.6537628z M169.732605,146.2538147h29.3821869v7.3615875H169.732605 V146.2538147L169.732605,146.2538147z"/></g><polygon class="st3" points="252.620636,86.0062027 258.8041992,104.9389954 278.7211609,104.9693527 262.6258545,116.7008209 268.7516479,135.6523743 252.620636,123.9700241 236.489624,135.6523743 242.6154327,116.7008209 226.5201111,104.9693527 246.437088,104.9389954"/></svg>