<?xml version="1.0" encoding="UTF-8" standalone="no"?>
<svg xmlns="http://www.w3.org/2000/svg" width="24" height="24"><path d="M11.280 2.040 C 9.210 2.280,7.299 3.414,6.193 5.058 C 5.369 6.285,4.947 7.835,5.012 9.400 C 5.078 10.993,5.755 12.654,7.013 14.310 C 8.047 15.670,9.646 17.209,11.490 18.616 L 12.000 19.006 12.510 18.616 C 14.354 17.209,15.953 15.670,16.987 14.310 C 17.969 13.017,18.633 11.638,18.880 10.376 C 19.223 8.628,18.809 6.558,17.823 5.083 C 16.810 3.569,15.086 2.455,13.240 2.120 C 12.718 2.026,11.745 1.986,11.280 2.040 M13.000 4.116 C 14.542 4.463,15.789 5.395,16.445 6.692 C 16.768 7.330,16.938 8.012,16.985 8.856 C 17.064 10.261,16.459 11.753,15.134 13.420 C 14.464 14.263,12.211 16.420,12.000 16.420 C 11.783 16.420,9.566 14.291,8.856 13.400 C 7.914 12.218,7.342 11.132,7.110 10.086 C 6.999 9.586,6.992 8.646,7.094 8.082 C 7.356 6.641,8.138 5.504,9.386 4.751 C 9.947 4.412,10.736 4.135,11.409 4.040 C 11.776 3.988,12.607 4.028,13.000 4.116 M11.680 7.024 C 11.462 7.065,11.089 7.217,10.893 7.347 C 10.398 7.674,10.071 8.227,10.016 8.831 C 9.906 10.031,10.966 11.094,12.163 10.985 C 12.783 10.928,13.319 10.611,13.660 10.097 C 13.900 9.736,13.972 9.482,13.972 9.000 C 13.972 8.673,13.954 8.529,13.888 8.350 C 13.677 7.770,13.216 7.312,12.644 7.114 C 12.425 7.038,11.880 6.987,11.680 7.024 M5.667 20.065 C 5.303 20.177,5.000 20.602,5.000 21.000 C 5.000 21.402,5.312 21.827,5.690 21.939 C 5.869 21.992,6.651 22.000,12.000 22.000 C 17.349 22.000,18.131 21.992,18.310 21.939 C 18.688 21.827,19.000 21.402,19.000 21.000 C 19.000 20.598,18.688 20.173,18.310 20.061 C 18.131 20.007,17.353 20.000,11.983 20.003 C 6.689 20.005,5.834 20.014,5.667 20.065" stroke="none" fill-rule="evenodd"/></svg>