<?xml version="1.0" encoding="UTF-8" standalone="no"?>
<svg xmlns="http://www.w3.org/2000/svg" width="24" height="24"><path d="M4.162 1.041 C 3.512 1.132,3.025 1.376,2.606 1.822 C 2.300 2.148,2.111 2.447,1.971 2.830 C 1.777 3.362,1.760 3.568,1.761 5.314 C 1.761 6.759,1.770 6.981,1.838 7.311 C 2.015 8.170,2.520 8.817,3.330 9.225 C 3.680 9.401,4.019 9.479,4.440 9.479 C 4.911 9.479,5.278 9.392,5.700 9.183 C 6.307 8.881,6.652 8.536,6.941 7.940 C 7.177 7.455,7.257 7.042,7.229 6.462 C 7.174 5.298,6.541 4.399,5.520 4.034 C 5.293 3.953,5.187 3.941,4.680 3.942 C 4.219 3.942,4.068 3.957,3.945 4.011 C 3.860 4.049,3.781 4.080,3.769 4.080 C 3.758 4.080,3.759 3.925,3.772 3.736 C 3.802 3.320,3.907 3.076,4.115 2.940 C 4.339 2.794,4.498 2.783,4.922 2.884 C 5.423 3.003,5.760 3.002,6.015 2.880 C 6.433 2.680,6.638 2.062,6.424 1.648 C 6.351 1.506,6.172 1.328,6.029 1.254 C 5.675 1.071,4.723 0.962,4.162 1.041 M13.380 1.070 C 13.171 1.144,12.235 1.702,12.033 1.872 C 11.840 2.035,11.743 2.264,11.743 2.560 C 11.743 2.940,11.920 3.235,12.253 3.406 C 12.537 3.552,12.782 3.546,13.170 3.381 C 13.236 3.353,13.240 3.493,13.240 6.001 C 13.240 7.916,13.253 8.694,13.287 8.808 C 13.313 8.894,13.403 9.043,13.487 9.139 C 13.698 9.379,13.922 9.480,14.240 9.480 C 14.558 9.480,14.782 9.379,14.993 9.139 C 15.077 9.043,15.167 8.894,15.193 8.808 C 15.227 8.693,15.240 7.764,15.240 5.350 C 15.240 1.593,15.257 1.796,14.913 1.420 C 14.650 1.133,14.405 1.030,13.940 1.012 C 13.668 1.001,13.531 1.015,13.380 1.070 M18.835 1.055 C 18.602 1.138,18.419 1.269,18.307 1.430 C 18.144 1.666,15.846 6.343,15.796 6.540 C 15.725 6.823,15.765 7.306,15.879 7.539 C 16.012 7.813,16.276 8.058,16.543 8.158 C 16.749 8.235,16.848 8.240,18.076 8.240 L 19.389 8.240 19.409 8.510 C 19.420 8.670,19.462 8.845,19.511 8.940 C 19.889 9.675,20.933 9.719,21.344 9.018 C 21.414 8.897,21.462 8.736,21.489 8.528 L 21.528 8.218 21.704 8.145 C 22.011 8.018,22.238 7.658,22.238 7.300 C 22.238 6.942,22.011 6.582,21.705 6.456 L 21.531 6.384 21.511 5.753 C 21.492 5.171,21.482 5.105,21.383 4.902 C 21.050 4.221,20.130 4.120,19.642 4.710 C 19.452 4.940,19.400 5.175,19.400 5.807 L 19.400 6.360 18.820 6.360 C 18.476 6.360,18.240 6.344,18.240 6.322 C 18.240 6.300,18.676 5.409,19.209 4.341 C 20.147 2.460,20.178 2.389,20.193 2.126 C 20.205 1.909,20.190 1.812,20.119 1.645 C 19.910 1.160,19.311 0.885,18.835 1.055 M8.513 4.254 C 7.673 4.487,7.513 5.639,8.257 6.099 L 8.454 6.220 9.717 6.231 L 10.980 6.243 11.200 6.131 C 11.838 5.808,11.950 4.950,11.415 4.481 C 11.125 4.226,11.095 4.221,9.840 4.212 C 9.006 4.205,8.650 4.217,8.513 4.254 M4.820 5.765 C 5.020 5.820,5.247 6.052,5.311 6.267 C 5.373 6.471,5.374 6.866,5.314 7.044 C 5.146 7.549,4.620 7.745,4.117 7.490 C 3.773 7.315,3.612 6.994,3.651 6.557 C 3.708 5.927,4.200 5.593,4.820 5.765 M11.460 11.042 C 9.770 11.307,8.510 12.785,8.510 14.500 C 8.510 16.430,10.075 18.000,12.000 18.000 C 14.570 18.000,16.264 15.291,15.142 12.978 C 14.700 12.067,13.866 11.377,12.900 11.122 C 12.530 11.024,11.823 10.985,11.460 11.042 M12.381 13.062 C 12.808 13.173,13.131 13.437,13.350 13.851 C 13.451 14.042,13.460 14.097,13.460 14.500 C 13.460 14.925,13.455 14.948,13.323 15.193 C 13.162 15.490,12.906 15.731,12.600 15.873 C 12.413 15.961,12.324 15.976,12.000 15.976 C 11.676 15.976,11.587 15.961,11.400 15.873 C 11.076 15.722,10.825 15.480,10.671 15.169 C 10.495 14.811,10.467 14.343,10.600 13.989 C 10.714 13.683,10.894 13.453,11.162 13.271 C 11.531 13.019,11.943 12.948,12.381 13.062 M11.380 19.026 C 11.314 19.034,11.091 19.060,10.884 19.084 C 9.617 19.231,8.163 19.820,7.098 20.619 C 6.243 21.259,5.985 21.584,5.985 22.021 C 5.985 22.589,6.409 23.012,6.980 23.013 C 7.272 23.014,7.493 22.912,7.780 22.642 C 8.279 22.175,9.037 21.701,9.706 21.440 C 11.928 20.571,14.447 21.035,16.218 22.638 C 16.531 22.921,16.728 23.014,17.020 23.013 C 17.591 23.012,18.016 22.588,18.014 22.022 C 18.013 21.587,17.811 21.323,17.000 20.693 C 15.813 19.770,14.303 19.185,12.740 19.041 C 12.325 19.002,11.645 18.995,11.380 19.026" stroke="none" fill-rule="evenodd"/></svg>