<?xml version="1.0" encoding="UTF-8" standalone="no"?>
<svg xmlns="http://www.w3.org/2000/svg" width="24" height="24"><path d="M8.720 1.028 C 7.616 1.212,6.849 2.287,7.037 3.385 C 7.316 5.009,9.315 5.645,10.480 4.480 C 11.283 3.677,11.280 2.393,10.473 1.597 C 10.025 1.154,9.323 0.927,8.720 1.028 M3.725 5.040 C 3.371 5.124,3.051 5.505,3.015 5.884 C 2.999 6.059,3.173 6.986,3.934 10.780 C 4.506 13.630,4.916 15.577,4.981 15.760 C 5.516 17.250,6.736 18.426,8.233 18.896 C 8.929 19.114,9.023 19.120,11.997 19.120 L 14.744 19.120 14.952 19.016 C 15.578 18.705,15.700 17.891,15.194 17.414 C 14.884 17.123,15.094 17.142,11.960 17.120 L 9.140 17.100 8.820 16.987 C 7.869 16.653,7.190 15.991,6.876 15.091 C 6.831 14.964,6.382 12.801,5.878 10.284 C 5.279 7.296,4.932 5.647,4.877 5.533 C 4.682 5.131,4.205 4.927,3.725 5.040 M10.128 5.484 C 8.793 5.688,7.834 6.939,8.000 8.261 C 8.020 8.415,8.280 9.711,8.580 11.141 C 9.026 13.275,9.146 13.787,9.249 14.000 C 9.398 14.309,9.763 14.689,10.069 14.852 C 10.491 15.077,10.512 15.079,14.252 15.079 C 18.037 15.080,17.845 15.067,17.989 15.331 C 18.055 15.450,18.061 15.701,18.080 18.720 L 18.100 21.980 18.210 22.205 C 18.347 22.483,18.649 22.772,18.951 22.912 C 19.142 23.001,19.237 23.018,19.522 23.019 C 19.839 23.020,19.887 23.009,20.174 22.867 C 20.529 22.692,20.769 22.428,20.902 22.070 C 20.977 21.867,20.980 21.726,20.980 17.980 L 20.980 14.100 20.890 13.863 C 20.639 13.204,20.131 12.757,19.380 12.535 C 19.164 12.472,18.887 12.463,16.570 12.450 L 14.001 12.436 13.980 12.348 C 13.969 12.300,13.735 11.144,13.460 9.780 C 13.185 8.416,12.924 7.201,12.878 7.080 C 12.472 5.997,11.284 5.307,10.128 5.484" stroke="none" fill-rule="evenodd"/></svg>