<?xml version="1.0" encoding="UTF-8" standalone="no"?>
<svg xmlns="http://www.w3.org/2000/svg" width="24" height="24"><path d="M4.433 3.043 C 3.858 3.128,3.224 3.377,2.731 3.712 C 1.956 4.239,1.396 5.034,1.129 5.989 L 1.020 6.380 1.020 12.000 L 1.020 17.620 1.131 18.017 C 1.552 19.526,2.707 20.608,4.226 20.917 C 4.628 20.999,4.709 21.000,12.000 21.000 C 19.291 21.000,19.372 20.999,19.774 20.917 C 21.291 20.608,22.457 19.515,22.872 18.012 L 22.980 17.620 22.980 12.000 L 22.980 6.380 22.874 5.995 C 22.611 5.045,22.044 4.239,21.269 3.712 C 20.929 3.482,20.353 3.218,19.958 3.112 L 19.620 3.022 12.140 3.015 C 8.026 3.012,4.558 3.024,4.433 3.043 M19.383 5.043 C 20.151 5.184,20.816 5.849,20.957 6.617 C 21.017 6.949,21.017 17.051,20.957 17.383 C 20.819 18.138,20.170 18.797,19.408 18.956 C 19.108 19.018,4.892 19.018,4.592 18.956 C 3.830 18.797,3.181 18.138,3.043 17.383 C 2.983 17.051,2.983 6.949,3.043 6.617 C 3.180 5.868,3.847 5.187,4.580 5.047 C 4.875 4.991,19.076 4.987,19.383 5.043 M11.920 8.023 C 11.517 8.093,11.338 8.147,11.040 8.289 C 10.416 8.587,9.975 9.124,9.716 9.900 C 9.625 10.173,9.622 10.222,9.609 11.912 C 9.596 13.547,9.600 13.662,9.677 13.972 C 9.971 15.155,10.870 15.927,12.025 15.990 C 12.775 16.031,13.434 15.773,13.981 15.223 C 14.511 14.689,14.729 14.166,14.731 13.420 C 14.734 12.643,14.514 12.075,14.017 11.575 C 13.536 11.091,12.991 10.890,12.269 10.930 C 11.861 10.952,11.535 11.049,11.227 11.240 C 11.121 11.306,11.024 11.360,11.011 11.360 C 10.964 11.360,11.036 10.415,11.095 10.250 C 11.410 9.376,12.387 9.095,13.144 9.662 L 13.267 9.754 13.754 9.240 L 14.240 8.726 14.056 8.569 C 13.821 8.368,13.441 8.179,13.115 8.100 C 12.861 8.038,12.110 7.990,11.920 8.023 M4.280 8.840 L 4.280 9.519 5.755 9.530 L 7.231 9.540 6.256 10.380 C 5.720 10.842,5.281 11.233,5.280 11.248 C 5.280 11.282,5.832 12.286,5.876 12.331 C 5.892 12.348,5.977 12.332,6.063 12.295 C 6.298 12.195,6.738 12.203,6.945 12.310 C 7.210 12.449,7.347 12.587,7.478 12.848 C 7.584 13.061,7.600 13.134,7.599 13.416 C 7.598 13.791,7.528 13.982,7.301 14.233 C 7.088 14.469,6.802 14.600,6.499 14.600 C 6.013 14.600,5.651 14.380,5.451 13.964 L 5.340 13.732 4.670 13.916 C 3.907 14.125,3.955 14.064,4.178 14.540 C 4.346 14.898,4.579 15.187,4.892 15.424 C 5.715 16.048,6.710 16.145,7.640 15.693 C 8.019 15.509,8.557 14.986,8.753 14.613 C 9.264 13.636,9.072 12.336,8.305 11.579 C 8.105 11.383,7.933 11.256,7.730 11.159 C 7.571 11.083,7.440 11.011,7.440 11.000 C 7.440 10.988,7.773 10.647,8.180 10.240 L 8.920 9.501 8.920 8.830 L 8.920 8.160 6.600 8.160 L 4.280 8.160 4.280 8.840 M15.464 8.290 C 15.452 8.361,15.406 9.149,15.361 10.040 C 15.316 10.931,15.268 11.789,15.255 11.947 L 15.231 12.235 15.804 12.417 C 16.120 12.518,16.393 12.600,16.412 12.600 C 16.430 12.600,16.503 12.556,16.574 12.502 C 16.824 12.311,17.038 12.242,17.380 12.241 C 17.906 12.240,18.264 12.462,18.475 12.920 C 18.744 13.502,18.491 14.208,17.910 14.498 C 17.633 14.636,17.265 14.639,16.979 14.506 C 16.747 14.398,16.432 14.069,16.373 13.873 C 16.351 13.800,16.317 13.742,16.297 13.744 C 16.277 13.747,15.977 13.826,15.630 13.921 C 15.228 14.031,15.000 14.112,15.000 14.145 C 15.000 14.243,15.161 14.605,15.302 14.826 C 16.011 15.934,17.358 16.306,18.542 15.723 C 19.131 15.432,19.644 14.856,19.869 14.232 C 19.963 13.972,19.974 13.882,19.975 13.400 C 19.975 12.920,19.963 12.824,19.868 12.537 C 19.599 11.727,18.964 11.146,18.160 10.976 C 17.756 10.890,17.271 10.921,16.901 11.055 C 16.748 11.111,16.620 11.153,16.618 11.148 C 16.613 11.141,16.710 9.553,16.717 9.530 C 16.719 9.525,17.350 9.520,18.120 9.520 L 19.520 9.520 19.520 8.840 L 19.520 8.160 17.502 8.160 L 15.484 8.160 15.464 8.290 M12.648 12.324 C 12.889 12.447,13.069 12.630,13.188 12.873 C 13.339 13.179,13.348 13.643,13.209 13.925 C 12.837 14.679,11.883 14.836,11.338 14.233 C 11.117 13.988,11.031 13.760,11.031 13.420 C 11.031 12.987,11.186 12.676,11.526 12.426 C 11.841 12.194,12.311 12.152,12.648 12.324" stroke="none" fill-rule="evenodd"/></svg>