<?xml version="1.0" encoding="UTF-8" standalone="no"?>
<svg width="24" height="24" xmlns="http://www.w3.org/2000/svg"><path stroke="none" fill-rule="evenodd" d="M 3.8535156 1.015625 C 2.2584037 1.015625 0.97460938 2.2994194 0.97460938 3.8945312 L 0.97460938 9.2734375 C 0.97460938 10.526926 1.7691693 11.585348 2.8828125 11.982422 C 1.7690281 12.379419 0.97460937 13.437819 0.97460938 14.691406 L 0.97460938 20.070312 C 0.97460938 21.665425 2.2584037 22.949219 3.8535156 22.949219 L 9.2734375 22.949219 C 10.868549 22.949219 12.152344 21.665425 12.152344 20.070312 L 12.152344 19.152344 C 12.926183 21.205086 14.914048 22.675781 17.228516 22.675781 C 20.209984 22.675781 22.652344 20.235375 22.652344 17.253906 C 22.652344 14.913827 21.147487 12.907457 19.058594 12.152344 L 20.113281 12.152344 C 21.708394 12.152344 22.992188 10.868549 22.992188 9.2734375 L 22.992188 3.8945312 C 22.992188 2.2994194 21.708394 1.015625 20.113281 1.015625 L 14.693359 1.015625 C 13.439224 1.015625 12.380966 1.8112296 11.984375 2.9257812 C 11.587958 1.8109022 10.527808 1.015625 9.2734375 1.015625 L 3.8535156 1.015625 z M 4.1074219 2.9648438 L 9.0605469 2.9648438 C 9.7173577 2.9648438 10.246094 3.4935798 10.246094 4.1503906 L 10.246094 9.0605469 C 10.246094 9.7173577 9.7173577 10.246094 9.0605469 10.246094 L 4.1074219 10.246094 C 3.4506108 10.246094 2.921875 9.7173577 2.921875 9.0605469 L 2.921875 4.1503906 C 2.921875 3.4935798 3.4506108 2.9648438 4.1074219 2.9648438 z M 14.947266 2.9648438 L 19.900391 2.9648438 C 20.557202 2.9648438 21.085938 3.4935798 21.085938 4.1503906 L 21.085938 9.0605469 C 21.085938 9.7173577 20.557202 10.246094 19.900391 10.246094 L 14.947266 10.246094 C 14.290454 10.246094 13.761719 9.7173577 13.761719 9.0605469 L 13.761719 4.1503906 C 13.761719 3.4935798 14.290454 2.9648438 14.947266 2.9648438 z M 11.984375 10.242188 C 12.380966 11.356739 13.439224 12.152344 14.693359 12.152344 L 15.398438 12.152344 C 13.905319 12.692224 12.711736 13.871585 12.152344 15.355469 L 12.152344 14.691406 C 12.152344 13.437819 11.357925 12.379419 10.244141 11.982422 C 11.055057 11.693287 11.695921 11.053432 11.984375 10.242188 z M 4.1074219 13.761719 L 9.0605469 13.761719 C 9.7173577 13.761719 10.246094 14.290454 10.246094 14.947266 L 10.246094 19.857422 C 10.246094 20.514232 9.7173577 21.042969 9.0605469 21.042969 L 4.1074219 21.042969 C 3.4506108 21.042969 2.921875 20.514232 2.921875 19.857422 L 2.921875 14.947266 C 2.921875 14.290454 3.4506108 13.761719 4.1074219 13.761719 z M 17.226562 13.791016 A 3.4483809 3.4483809 0 0 1 20.673828 17.240234 A 3.4483809 3.4483809 0 0 1 17.226562 20.6875 A 3.4483809 3.4483809 0 0 1 13.777344 17.240234 A 3.4483809 3.4483809 0 0 1 17.226562 13.791016 z"/></svg>