<?xml version="1.0" encoding="UTF-8" standalone="no"?>
<svg xmlns="http://www.w3.org/2000/svg" width="24" height="24" viewBox="0 0 24 24"><g><path fill-rule="evenodd" clip-rule="evenodd" d="M11.5999 13.3143C10.4875 12.2018 10.4875 10.3983 11.5999 9.28584L15.5212 5.36452C16.6336 4.25211 18.4372 4.25211 19.5496 5.36452C20.1571 5.97194 20.0236 6.80124 19.7397 7.27401C19.7124 7.31954 19.704 7.34873 19.7012 7.36202C19.6987 7.374 19.6988 7.38231 19.7005 7.39231C19.7038 7.41077 19.7262 7.50175 19.8764 7.65196C20.0266 7.80217 20.1176 7.82462 20.1361 7.82784C20.1461 7.82958 20.1544 7.82963 20.1664 7.82715C20.1796 7.8244 20.2088 7.81596 20.2544 7.78863C20.7271 7.50481 21.5564 7.37132 22.1638 7.97873C23.2763 9.09115 23.2763 10.8947 22.1638 12.0072L18.3453 15.8257C17.2329 16.9381 15.4293 16.9381 14.3169 15.8257C13.7043 15.2131 13.8552 14.3881 14.111 13.9362C14.1116 13.9351 14.1122 13.934 14.1128 13.9329C14.0956 13.8928 14.0415 13.7952 13.8873 13.641C13.7371 13.4908 13.6461 13.4684 13.6277 13.4652C13.6177 13.4634 13.6094 13.4634 13.5974 13.4658C13.5841 13.4686 13.5549 13.477 13.5094 13.5044C13.0366 13.7882 12.2073 13.9217 11.5999 13.3143ZM12.8269 11.6174C13.1828 11.4758 13.5712 11.4251 13.9716 11.4949C14.4935 11.586 14.9396 11.8649 15.3016 12.2268C15.6213 12.5466 15.9162 12.942 16.0479 13.4206C16.1576 13.8194 16.138 14.2187 16.0025 14.594C16.3108 14.7234 16.6801 14.6625 16.9311 14.4115L20.7496 10.5929C20.9976 10.345 21.06 9.98166 20.9368 9.67564C20.5809 9.81718 20.1926 9.86794 19.7922 9.79805C19.2702 9.70696 18.8242 9.42814 18.4622 9.06617C18.1002 8.7042 17.8214 8.25814 17.7303 7.73618C17.6604 7.33577 17.7112 6.94743 17.8527 6.59154C17.5467 6.46835 17.1834 6.53075 16.9354 6.77874L13.0141 10.7001C12.7661 10.948 12.7037 11.3113 12.8269 11.6174Z"/><path fill-rule="evenodd" clip-rule="evenodd" d="M2 5C2 2.79086 3.79086 1 6 1H13.5C14.8807 1 16 2.11929 16 3.5C16 4.05228 15.5523 4.5 15 4.5C14.4477 4.5 14 4.05228 14 3.5C14 3.22386 13.7761 3 13.5 3H6C4.89543 3 4 3.89543 4 5V19C4 20.1046 4.89543 21 6 21H13C14.1045 21 15 20.1045 15 18.9998V18.5C15 17.9477 15.4477 17.5 16 17.5C16.5523 17.5 17 17.9477 17 18.5V18.9998C17 21.2089 15.2092 23 13 23H6C3.79086 23 2 21.2091 2 19V5Z"/><path fill-rule="evenodd" clip-rule="evenodd" d="M8 19.5C8 18.9477 8.44772 18.5 9 18.5H9.5C10.0523 18.5 10.5 18.9477 10.5 19.5C10.5 20.0523 10.0523 20.5 9.5 20.5H9C8.44772 20.5 8 20.0523 8 19.5Z"/></g></svg>