<?xml version="1.0" encoding="UTF-8" standalone="no"?>
<svg xmlns="http://www.w3.org/2000/svg" width="24" height="24"><path d="M6.840 1.043 C 5.964 1.103,5.334 1.305,4.712 1.724 C 4.170 2.090,3.574 2.817,3.335 3.404 C 3.194 3.751,3.090 4.232,3.042 4.760 C 2.985 5.392,2.985 18.608,3.042 19.240 C 3.121 20.099,3.281 20.604,3.662 21.189 C 3.954 21.636,4.364 22.046,4.811 22.338 C 5.402 22.723,5.910 22.883,6.780 22.958 C 7.427 23.014,16.573 23.014,17.220 22.958 C 18.090 22.883,18.598 22.723,19.189 22.338 C 19.636 22.046,20.046 21.636,20.338 21.189 C 20.736 20.578,20.888 20.080,20.961 19.144 C 20.991 18.760,21.001 16.989,20.991 13.600 C 20.978 8.652,20.977 8.618,20.891 8.300 C 20.769 7.843,20.585 7.431,20.330 7.040 C 20.146 6.759,19.697 6.290,17.724 4.316 C 16.292 2.884,15.234 1.857,15.074 1.745 C 14.749 1.517,14.144 1.227,13.820 1.145 C 13.688 1.111,13.418 1.065,13.220 1.042 C 12.800 0.994,7.545 0.995,6.840 1.043 M13.001 5.200 C 13.021 7.154,13.030 7.403,13.095 7.600 C 13.295 8.213,13.763 8.687,14.370 8.893 C 14.609 8.975,14.712 8.979,16.800 8.999 L 18.980 9.020 18.980 14.060 C 18.980 19.501,18.980 19.494,18.769 19.918 C 18.629 20.199,18.307 20.545,18.031 20.711 C 17.565 20.991,17.810 20.980,12.000 20.980 C 6.190 20.980,6.435 20.991,5.969 20.711 C 5.693 20.545,5.371 20.199,5.231 19.918 C 5.015 19.486,5.020 19.661,5.020 12.000 C 5.020 4.340,5.015 4.513,5.231 4.083 C 5.452 3.642,5.949 3.219,6.360 3.120 C 6.747 3.027,7.327 3.011,10.140 3.016 L 12.980 3.020 13.001 5.200 M16.300 5.720 L 17.580 7.000 16.290 7.000 L 15.000 7.000 15.000 5.720 C 15.000 5.016,15.005 4.440,15.010 4.440 C 15.016 4.440,15.596 5.016,16.300 5.720 M7.664 12.063 C 7.436 12.146,7.257 12.297,7.131 12.511 C 7.036 12.672,7.020 12.744,7.020 13.000 C 7.020 13.256,7.036 13.328,7.131 13.489 C 7.192 13.592,7.301 13.723,7.374 13.778 C 7.677 14.009,7.484 14.000,11.998 14.000 C 16.663 14.000,16.384 14.018,16.701 13.701 C 17.092 13.310,17.092 12.690,16.701 12.299 C 16.384 11.982,16.666 12.000,11.983 12.003 C 8.474 12.005,7.795 12.015,7.664 12.063 M7.664 16.063 C 7.436 16.146,7.257 16.297,7.131 16.511 C 7.036 16.672,7.020 16.744,7.020 17.000 C 7.020 17.256,7.036 17.328,7.131 17.489 C 7.192 17.592,7.301 17.723,7.374 17.778 C 7.672 18.006,7.578 18.000,10.998 18.000 C 14.545 18.000,14.390 18.013,14.701 17.701 C 15.092 17.310,15.092 16.690,14.701 16.299 C 14.389 15.987,14.547 16.000,10.983 16.003 C 8.342 16.005,7.794 16.015,7.664 16.063" stroke="none" fill-rule="evenodd"/></svg>