<?xml version="1.0" encoding="UTF-8" standalone="no"?>
<svg xmlns="http://www.w3.org/2000/svg" width="25" height="24"><path d="M11.800 2.046 C 8.103 2.545,5.940 6.481,7.524 9.829 C 8.315 11.503,9.873 12.661,11.708 12.939 C 13.665 13.237,15.689 12.401,16.899 10.796 C 17.229 10.358,17.628 9.567,17.772 9.063 C 18.165 7.688,18.045 6.329,17.417 5.063 C 16.660 3.535,15.273 2.462,13.614 2.122 C 13.119 2.021,12.255 1.985,11.800 2.046 M13.102 4.063 C 14.349 4.281,15.387 5.161,15.796 6.346 C 16.318 7.861,15.748 9.548,14.420 10.420 C 12.523 11.665,9.941 10.791,9.204 8.654 C 8.334 6.130,10.478 3.606,13.102 4.063 M11.438 15.048 C 8.529 15.277,5.780 16.517,3.438 18.655 C 2.696 19.332,2.500 19.613,2.500 20.000 C 2.500 20.526,2.976 21.000,3.502 21.000 C 3.805 21.000,3.992 20.893,4.433 20.469 C 5.524 19.418,6.441 18.753,7.586 18.181 C 9.211 17.369,10.673 17.025,12.500 17.025 C 14.327 17.025,15.789 17.369,17.414 18.181 C 18.559 18.753,19.476 19.418,20.567 20.469 C 21.008 20.893,21.195 21.000,21.498 21.000 C 22.024 21.000,22.500 20.526,22.500 20.000 C 22.500 19.604,22.299 19.324,21.489 18.592 C 20.877 18.039,20.486 17.728,19.887 17.319 C 17.364 15.596,14.443 14.811,11.438 15.048" stroke="none" fill-rule="evenodd"/></svg>