<?xml version="1.0" encoding="UTF-8" standalone="no"?>
<svg xmlns="http://www.w3.org/2000/svg" width="24" height="24"><path d="M7.320 2.027 C 4.947 2.262,2.914 3.759,1.801 6.089 C 0.139 9.570,1.060 13.119,4.580 16.793 C 6.221 18.505,9.155 20.686,11.250 21.751 C 11.679 21.969,11.714 21.980,12.000 21.980 C 12.287 21.980,12.320 21.970,12.760 21.745 C 14.870 20.668,17.779 18.505,19.420 16.793 C 22.621 13.453,23.659 10.269,22.593 7.060 C 21.723 4.441,19.663 2.537,17.220 2.096 C 16.615 1.987,15.487 1.995,14.891 2.113 C 14.350 2.220,13.750 2.424,13.282 2.659 C 12.903 2.849,12.264 3.263,12.144 3.396 C 12.102 3.442,12.045 3.480,12.017 3.480 C 11.990 3.480,11.799 3.353,11.594 3.198 C 11.198 2.900,10.372 2.469,9.920 2.325 C 9.102 2.064,8.102 1.949,7.320 2.027 M8.560 4.058 C 8.769 4.089,9.084 4.161,9.260 4.217 C 9.898 4.421,10.689 4.943,11.126 5.447 C 11.429 5.797,11.628 5.900,12.000 5.899 C 12.390 5.898,12.472 5.851,12.978 5.346 C 13.763 4.561,14.542 4.169,15.576 4.038 C 16.232 3.956,16.924 4.034,17.561 4.262 C 19.224 4.860,20.514 6.479,20.905 8.461 C 21.011 9.000,21.002 10.009,20.886 10.550 C 20.756 11.158,20.587 11.634,20.277 12.268 C 19.225 14.413,16.941 16.717,13.820 18.780 C 13.192 19.195,12.059 19.880,12.000 19.880 C 11.986 19.880,11.724 19.734,11.417 19.555 C 9.696 18.551,7.793 17.124,6.482 15.855 C 5.207 14.621,4.296 13.436,3.723 12.268 C 3.413 11.634,3.244 11.158,3.114 10.550 C 2.998 10.009,2.989 9.000,3.095 8.461 C 3.441 6.707,4.525 5.186,5.940 4.470 C 6.252 4.312,6.791 4.135,7.120 4.081 C 7.285 4.055,7.447 4.028,7.480 4.021 C 7.650 3.988,8.225 4.007,8.560 4.058" stroke="none" fill-rule="evenodd"/></svg>