<?xml version="1.0" encoding="UTF-8" standalone="no"?>
<svg xmlns="http://www.w3.org/2000/svg" width="24" height="24"><path d="M10.140 2.042 C 8.043 2.257,6.112 3.170,4.641 4.641 C 3.400 5.882,2.534 7.490,2.185 9.200 C 1.365 13.224,3.374 17.293,7.067 19.087 C 9.567 20.302,12.457 20.300,14.940 19.083 C 15.468 18.825,16.037 18.479,16.438 18.173 L 16.615 18.037 18.538 19.955 C 20.383 21.797,20.469 21.875,20.677 21.936 C 20.948 22.016,21.013 22.016,21.283 21.936 C 21.581 21.847,21.847 21.581,21.936 21.283 C 22.016 21.013,22.016 20.948,21.936 20.677 C 21.875 20.469,21.797 20.383,19.955 18.538 L 18.037 16.615 18.173 16.438 C 18.906 15.477,19.542 14.095,19.797 12.908 C 19.997 11.975,20.049 10.921,19.941 9.992 C 19.465 5.922,16.374 2.723,12.318 2.102 C 11.809 2.024,10.631 1.991,10.140 2.042 M11.686 4.042 C 14.694 4.345,17.165 6.525,17.817 9.450 C 18.392 12.025,17.500 14.680,15.500 16.353 C 14.150 17.482,12.454 18.063,10.725 17.988 C 8.948 17.911,7.345 17.215,6.099 15.980 C 5.405 15.292,4.940 14.610,4.553 13.714 C 3.861 12.108,3.828 10.153,4.465 8.503 C 5.604 5.552,8.559 3.726,11.686 4.042 M7.664 10.063 C 7.436 10.146,7.257 10.297,7.131 10.511 C 7.036 10.672,7.020 10.744,7.020 11.000 C 7.020 11.256,7.036 11.328,7.131 11.489 C 7.192 11.592,7.301 11.723,7.374 11.778 C 7.672 12.006,7.578 12.000,10.998 12.000 C 14.545 12.000,14.390 12.013,14.701 11.701 C 15.092 11.310,15.092 10.690,14.701 10.299 C 14.389 9.987,14.547 10.000,10.983 10.003 C 8.342 10.005,7.794 10.015,7.664 10.063" stroke="none" fill-rule="evenodd"/></svg>