<?xml version="1.0" encoding="UTF-8" standalone="no"?>
<svg xmlns="http://www.w3.org/2000/svg" width="24" height="24"><path d="M11.460 2.025 C 10.146 2.168,8.975 2.741,8.051 3.694 C 7.035 4.741,6.510 6.038,6.510 7.500 C 6.510 9.031,7.088 10.382,8.205 11.462 C 8.946 12.178,9.775 12.626,10.811 12.871 C 11.212 12.966,11.339 12.977,12.000 12.977 C 12.661 12.977,12.788 12.966,13.189 12.871 C 14.225 12.626,15.054 12.178,15.795 11.462 C 16.910 10.384,17.490 9.028,17.490 7.500 C 17.490 6.039,16.971 4.756,15.954 3.699 C 15.152 2.867,14.140 2.313,13.033 2.100 C 12.702 2.037,11.765 1.992,11.460 2.025 M12.900 4.122 C 13.934 4.394,14.818 5.170,15.233 6.171 C 15.566 6.972,15.566 8.029,15.232 8.832 C 14.786 9.906,13.841 10.688,12.700 10.924 C 11.068 11.263,9.411 10.381,8.768 8.832 C 8.434 8.029,8.434 6.972,8.767 6.171 C 9.235 5.044,10.265 4.232,11.472 4.040 C 11.822 3.985,12.534 4.025,12.900 4.122 M11.200 15.028 C 10.761 15.053,9.929 15.165,9.440 15.263 C 6.942 15.767,4.670 16.986,2.715 18.871 C 2.106 19.459,2.020 19.598,2.020 20.000 C 2.020 20.256,2.036 20.328,2.131 20.489 C 2.385 20.920,2.864 21.096,3.342 20.933 C 3.498 20.880,3.646 20.762,4.079 20.343 C 5.253 19.207,6.388 18.446,7.800 17.849 C 9.023 17.331,10.607 17.002,11.883 17.000 C 12.237 17.000,12.497 16.905,12.701 16.701 C 13.092 16.310,13.092 15.690,12.701 15.299 C 12.420 15.018,12.164 14.971,11.200 15.028 M15.643 15.069 C 15.291 15.193,15.000 15.614,15.000 16.000 C 15.000 16.080,15.030 16.234,15.066 16.343 C 15.123 16.514,15.259 16.668,16.105 17.521 L 17.079 18.502 16.138 19.441 C 15.186 20.392,15.068 20.542,15.017 20.865 C 14.923 21.461,15.539 22.077,16.135 21.983 C 16.458 21.932,16.608 21.814,17.559 20.862 L 18.498 19.921 19.479 20.897 C 20.394 21.806,20.475 21.876,20.677 21.936 C 20.948 22.016,21.012 22.016,21.283 21.936 C 21.581 21.847,21.847 21.581,21.936 21.283 C 22.016 21.012,22.016 20.948,21.936 20.677 C 21.876 20.475,21.806 20.394,20.897 19.479 L 19.921 18.498 20.862 17.559 C 21.433 16.988,21.832 16.557,21.879 16.460 C 21.999 16.212,22.018 16.001,21.943 15.743 C 21.816 15.307,21.435 15.023,20.981 15.028 C 20.578 15.031,20.450 15.124,19.421 16.156 L 18.502 17.079 17.521 16.105 C 16.668 15.259,16.514 15.123,16.343 15.066 C 16.102 14.985,15.877 14.986,15.643 15.069" stroke="none" fill-rule="evenodd"/></svg>