<?xml version="1.0" encoding="UTF-8" standalone="no"?>
<svg xmlns="http://www.w3.org/2000/svg" width="24" height="24"><path d="M3.900 3.026 C 3.521 3.058,3.122 3.135,2.889 3.223 C 2.133 3.507,1.420 4.248,1.183 4.997 C 1.037 5.460,1.000 5.946,1.000 7.388 C 1.001 8.685,1.002 8.702,1.095 8.900 C 1.207 9.136,1.401 9.331,1.611 9.419 C 1.694 9.454,1.937 9.499,2.151 9.520 C 2.589 9.562,2.799 9.617,3.125 9.778 C 3.608 10.015,3.984 10.397,4.237 10.908 C 4.562 11.563,4.563 12.435,4.239 13.088 C 4.006 13.558,3.759 13.833,3.309 14.124 C 2.991 14.329,2.658 14.433,2.108 14.497 C 1.501 14.567,1.270 14.708,1.083 15.120 C 1.007 15.289,1.002 15.379,1.001 16.612 C 1.000 18.053,1.037 18.540,1.183 19.003 C 1.432 19.791,2.209 20.568,2.997 20.817 C 3.166 20.870,3.479 20.933,3.691 20.957 C 4.229 21.017,19.771 21.017,20.309 20.957 C 20.831 20.899,21.250 20.760,21.605 20.526 C 22.396 20.006,22.840 19.287,22.956 18.340 C 23.016 17.846,23.014 15.397,22.954 15.194 C 22.928 15.109,22.847 14.969,22.773 14.883 C 22.546 14.617,22.407 14.557,21.892 14.497 C 21.184 14.414,20.761 14.240,20.310 13.843 C 19.993 13.565,19.686 13.038,19.581 12.592 C 19.315 11.464,19.861 10.276,20.875 9.778 C 21.201 9.617,21.411 9.562,21.849 9.520 C 22.063 9.499,22.306 9.454,22.389 9.419 C 22.599 9.331,22.793 9.136,22.905 8.900 C 22.998 8.702,22.999 8.685,23.000 7.388 C 23.000 5.946,22.963 5.460,22.817 4.997 C 22.586 4.268,21.887 3.527,21.155 3.238 C 20.586 3.013,21.087 3.025,12.220 3.018 C 7.732 3.015,3.988 3.018,3.900 3.026 M20.374 5.074 C 20.589 5.147,20.863 5.432,20.925 5.646 C 20.957 5.759,20.975 6.131,20.977 6.713 L 20.980 7.606 20.640 7.716 C 20.224 7.852,19.792 8.066,19.417 8.325 C 19.075 8.561,18.516 9.127,18.282 9.475 C 18.034 9.843,17.779 10.404,17.651 10.862 C 17.548 11.231,17.540 11.313,17.540 12.000 C 17.540 12.687,17.548 12.769,17.651 13.138 C 17.881 13.961,18.286 14.642,18.893 15.228 C 19.443 15.759,19.936 16.057,20.640 16.284 L 20.980 16.394 20.977 17.287 C 20.975 17.869,20.957 18.241,20.925 18.354 C 20.864 18.567,20.594 18.848,20.376 18.925 C 20.143 19.007,3.857 19.007,3.624 18.925 C 3.406 18.848,3.136 18.567,3.075 18.354 C 3.043 18.241,3.025 17.869,3.023 17.287 L 3.020 16.394 3.366 16.283 C 4.732 15.842,5.801 14.790,6.264 13.428 C 6.563 12.549,6.563 11.451,6.264 10.572 C 5.803 9.216,4.730 8.161,3.360 7.717 L 3.020 7.607 3.009 6.933 C 2.994 6.075,3.044 5.638,3.180 5.433 C 3.328 5.210,3.545 5.082,3.845 5.043 C 3.985 5.024,7.727 5.012,12.160 5.015 C 18.675 5.020,20.250 5.032,20.374 5.074 M8.592 7.037 C 8.296 7.132,8.120 7.361,8.120 7.648 C 8.120 7.829,8.043 7.711,10.619 11.462 L 10.950 11.943 9.516 14.020 C 8.728 15.162,8.062 16.146,8.037 16.207 C 7.965 16.381,8.026 16.595,8.195 16.764 C 8.385 16.954,8.603 17.013,9.040 16.992 C 9.614 16.965,9.541 17.041,10.844 15.097 C 11.469 14.165,11.993 13.402,12.010 13.401 C 12.026 13.400,12.541 14.152,13.154 15.070 C 13.767 15.989,14.306 16.773,14.352 16.814 C 14.487 16.934,14.720 16.996,15.040 16.998 C 15.437 17.000,15.628 16.942,15.806 16.764 C 15.986 16.583,16.039 16.371,15.950 16.184 C 15.917 16.114,15.264 15.149,14.501 14.038 C 13.737 12.928,13.103 11.999,13.093 11.973 C 13.083 11.948,13.690 11.030,14.442 9.933 C 15.194 8.837,15.836 7.879,15.868 7.804 C 15.952 7.607,15.904 7.414,15.725 7.236 C 15.534 7.044,15.317 6.986,14.880 7.009 C 14.289 7.041,14.378 6.947,13.116 8.855 L 12.007 10.530 10.890 8.855 C 9.604 6.928,9.709 7.034,9.080 7.014 C 8.871 7.008,8.651 7.018,8.592 7.037" stroke="none" fill-rule="evenodd"/></svg>