<?xml version="1.0" encoding="UTF-8" standalone="no"?>
<svg xmlns="http://www.w3.org/2000/svg" width="24" height="24"><path d="M12.879 1.611 C 12.046 1.895,11.508 2.636,11.508 3.500 C 11.508 4.042,11.705 4.513,12.096 4.904 C 12.487 5.295,12.958 5.492,13.500 5.492 C 14.042 5.492,14.513 5.295,14.904 4.904 C 15.655 4.152,15.695 2.977,14.994 2.183 C 14.482 1.602,13.603 1.364,12.879 1.611 M11.488 6.063 C 11.214 6.111,10.701 6.313,8.578 7.210 L 6.000 8.300 6.000 10.650 L 6.000 13.000 7.000 13.000 L 7.999 13.000 8.010 11.296 L 8.020 9.592 8.893 9.252 C 9.373 9.065,9.772 8.919,9.779 8.926 C 9.785 8.934,9.163 12.099,8.396 15.960 C 7.629 19.821,7.001 22.984,7.000 22.990 C 7.000 22.996,7.473 23.000,8.051 23.000 L 9.102 23.000 9.878 19.550 C 10.305 17.652,10.710 15.853,10.778 15.551 L 10.902 15.002 11.951 16.003 L 13.000 17.004 13.000 20.002 L 13.000 23.000 14.000 23.000 L 15.000 23.000 15.000 19.248 L 15.000 15.496 14.130 14.671 C 13.652 14.217,13.181 13.765,13.084 13.665 L 12.908 13.485 13.203 12.002 L 13.499 10.520 13.839 10.853 C 14.614 11.611,15.360 12.102,16.320 12.483 C 17.041 12.769,18.140 13.000,18.782 13.000 L 19.000 13.000 19.000 12.000 L 19.000 11.000 18.810 11.000 C 18.546 10.999,17.917 10.899,17.571 10.801 C 16.800 10.585,16.007 10.118,15.450 9.554 C 15.036 9.134,15.040 9.140,14.294 7.949 C 13.557 6.773,13.444 6.624,13.103 6.381 C 12.629 6.043,12.147 5.948,11.488 6.063" stroke="none" fill-rule="evenodd"/></svg>