<?xml version="1.0" encoding="UTF-8" standalone="no"?>
<svg id="Ebene_1" data-name="Ebene 1" xmlns="http://www.w3.org/2000/svg" viewBox="0 0 400.14 341.24"><defs><style>.cls-1{fill:#ffda44;}.cls-2{fill:#d80027;}.cls-3{fill:#f0f0f0;}.cls-4{fill:#6da544;}.cls-5{fill:#0052b4;}.cls-6{fill:none;}.cls-7{opacity:0.3;}</style></defs><path class="cls-1" d="M383.9,224.89H255.05l46-29.08a8.63,8.63,0,0,0,.81-.58h59.31l-22.7-29.65h0l22.7,29.65L383,223.74Z"/><path class="cls-2" d="M395,242.88a10.15,10.15,0,0,1-8.18,10h-.06a10,10,0,0,1-2,.2H210.42l30.34-19.14,2.06-1.3H364.1l-5.93-7.74H383.9l9,11.74A10.28,10.28,0,0,1,395,242.88Z"/><path class="cls-2" d="M361.16,195.23H301.85a10.63,10.63,0,0,0,1.26-1.16l0,0a2.22,2.22,0,0,0,.28-.33,3,3,0,0,0,.31-.39l.28-.38.13-.2c.14-.21.26-.41.38-.62l.37-.74a11.43,11.43,0,0,0,.56-1.58c.09-.33.16-.66.22-1l.09-1.32c0-.1,0-.2,0-.29a10.56,10.56,0,0,0,0-1.33c0-.11,0-.2-.05-.27l0-.12q0-.1-.06-.12L302,175.46l-3.63-9.88h40.12Z"/><polygon class="cls-2" points="364.1 232.63 242.82 232.63 255.05 224.89 358.17 224.89 364.1 232.63"/><path class="cls-2" d="M361.16,195.23H301.85a10.63,10.63,0,0,0,1.26-1.16l0,0a2.22,2.22,0,0,0,.28-.33,3,3,0,0,0,.31-.39,3.37,3.37,0,0,0,.28-.38l.13-.2c.14-.21.26-.41.38-.62s.26-.49.37-.74a9.89,9.89,0,0,0,.56-1.58c.09-.33.16-.66.22-1l.08-1.32c0-.1,0-.2,0-.29a10.56,10.56,0,0,0,0-1.33c0-.11,0-.2-.05-.27l0-.12q0-.1-.06-.12h0L302,175.46l-3.62-9.88h40.11Z"/><polygon class="cls-2" points="364.1 232.63 242.82 232.63 255.05 224.89 358.17 224.89 364.1 232.63"/><path class="cls-2" d="M338.46,165.58H298.35l-18.48-50.46L268.93,85.26l-7.72-20.6h.4l.54,1.47H327.6a9.46,9.46,0,0,1,2,.2,10.2,10.2,0,0,1,8.2,10.84l-3.16,38h.29l-3.44,41.33Z"/><polygon class="cls-3" points="338.51 165.58 298.35 165.58 279.87 115.12 335.02 115.12 331.57 156.51 338.51 165.58"/><path class="cls-2" d="M158.5,11.92h-.65V32.36h37.43ZM71.2,134.71H49.46l12,33H83.23Zm-12-33.1L58.59,100v1.57H37.42l0,.06H59.19ZM73.5,200.79h0Zm85-188.87h-.65V32.36h37.43Zm0,0h-.65V32.36h37.43Zm0,0h-.65V32.36h37.43ZM272.05,91l-1.63-4.44L268,80.16h0l-4.08-10.91-1.09-2.91-.07-.2-1.71-4.84-6.88-18.61-3-8-.48-1.32h0L249.49,30l-1.11-3-3.11-8.41a10.28,10.28,0,0,0-9.59-6.67H157.75V32.36h70.81l12.57,34,.37,1,3.3,8.93v.1c0,.46,1.37,4.45,3.58,10.57,1.47,4.08,3.32,9.11,5.38,14.69h22.17Z"/><rect class="cls-3" x="207.39" y="101.61" width="49.62" height="99.25"/><rect class="cls-4" x="157.76" y="101.61" width="49.63" height="99.25"/><path class="cls-2" d="M306.64,186.37c0,.19,0,.39,0,.59l-.09,1.31a9.91,9.91,0,0,1-.36,1.45.14.14,0,0,1,0,.06,10.11,10.11,0,0,1-2.7,4.24l0,0-.64.54c-.26.2-.52.39-.8.57l-2.49,1.57-6.5,4.11H257V101.61h18.92l4.95,13.51.29.78,18.16,49.57,0,.11,7.07,19.3A3.13,3.13,0,0,1,306.64,186.37Z"/><polygon class="cls-3" points="108.22 11.92 108.22 101.61 59.16 101.61 58.59 100.04 58.59 11.92 108.22 11.92"/><polygon class="cls-3" points="58.59 100.04 59.16 101.61 58.59 101.61 58.59 100.04"/><polygon class="cls-3" points="157.79 34.73 157.76 34.73 157.76 15.63 157.78 32.36 157.79 34.73"/><polygon class="cls-3" points="157.85 101.55 157.85 101.61 157.76 101.61 157.76 92.46 157.77 92.45 157.78 83.83 157.76 83.83 157.76 69.24 157.79 69.24 157.79 61.29 157.76 61.29 157.76 42.68 157.79 42.68 157.81 56.37 157.81 56.68 157.81 61.29 157.81 69.24 157.83 83.8 157.84 92.41 157.85 101.55"/><path class="cls-5" d="M58.59,11.92v89.69H37.42l-27.65-76a10.25,10.25,0,0,1,9.62-13.72Z"/><polygon class="cls-2" points="157.76 69.24 157.76 83.83 157.78 83.83 157.77 92.45 157.76 92.46 157.76 101.61 108.22 101.61 108.22 11.92 157.76 11.92 157.76 34.73 157.79 34.73 157.79 42.68 157.76 42.68 157.76 61.29 157.79 61.29 157.79 69.24 157.76 69.24"/><polygon class="cls-2" points="157.79 34.73 157.76 34.73 157.76 15.63 157.78 32.36 157.79 34.73"/><polygon class="cls-2" points="157.85 101.55 157.85 101.61 157.76 101.61 157.76 92.46 157.77 92.45 157.78 83.83 157.76 83.83 157.76 69.24 157.79 69.24 157.79 61.29 157.76 61.29 157.76 42.68 157.79 42.68 157.81 56.37 157.81 56.68 157.81 61.29 157.81 69.24 157.83 83.8 157.84 92.41 157.85 101.55"/><path class="cls-3" d="M275.93,101.61H157.76V83.83l0-14.59V32.36l-.07-16.73V11.92h77.93a10.28,10.28,0,0,1,9.59,6.67L248.38,27l1.11,3,1.26,3.41h0l.49,1.32,2.94,8,6.88,18.61,1.79,5,1.09,2.91L268,80.15h0l2.4,6.41L272.05,91Z"/><path class="cls-2" d="M261.06,61.29H241.5v40.32H222.89V61.29H157.76V42.68h65.13V11.92h12.79a10.25,10.25,0,0,1,5.82,1.83V42.68h12.68Z"/><polygon class="cls-5" points="268.02 80.15 248.38 69.24 263.94 69.24 268.02 80.15"/><polygon class="cls-5" points="275.93 101.61 248.38 101.61 248.38 77.86 272.05 91.01 275.93 101.61"/><polygon class="cls-3" points="268.02 80.15 248.38 69.24 263.94 69.24 268.02 80.15"/><polygon class="cls-2" points="268.02 80.15 248.38 69.24 263.94 69.24 268.02 80.15"/><polygon class="cls-5" points="184.02 69.24 157.83 83.8 157.78 83.83 157.76 83.83 157.76 69.24 184.02 69.24"/><polygon class="cls-5" points="216.01 73.36 216.01 101.61 165.17 101.61 216.01 73.36"/><polygon class="cls-2" points="216.01 69.24 157.85 101.55 157.76 101.61 157.76 92.46 157.77 92.45 157.84 92.41 199.54 69.24 216.01 69.24"/><polygon class="cls-5" points="192.13 34.73 157.76 34.73 157.76 15.63 157.85 15.68 157.85 15.69 187.88 32.36 192.13 34.73"/><line class="cls-6" x1="157.76" y1="2.36" x2="157.85" y2="2.42"/><polygon class="cls-5" points="216.01 34.73 199.54 34.73 195.29 32.36 158.5 11.92 174.97 11.92 211.76 32.36 216.01 34.73"/><polygon class="cls-5" points="216.01 11.92 216.01 26.11 190.48 11.92 216.01 11.92"/><line class="cls-6" x1="157.76" y1="2.36" x2="157.85" y2="2.42"/><polygon class="cls-3" points="216.01 34.73 199.54 34.73 195.29 32.36 158.5 11.92 174.97 11.92 211.76 32.36 216.01 34.73"/><line class="cls-6" x1="157.76" y1="2.36" x2="157.85" y2="2.42"/><polygon class="cls-2" points="216.01 34.73 199.54 34.73 195.29 32.36 158.5 11.92 174.97 11.92 211.76 32.36 216.01 34.73"/><polygon class="cls-3" points="249.49 29.99 248.38 30.61 248.38 27 249.49 29.99"/><polygon class="cls-3" points="251.24 34.73 248.38 34.73 250.75 33.41 251.24 34.73"/><polygon class="cls-2" points="157.75 200.79 157.75 200.8 73.51 200.8 73.5 200.79 157.75 200.79"/><polygon class="cls-2" points="157.76 134.71 157.76 167.75 61.48 167.75 49.46 134.71 157.76 134.71"/><polygon points="157.76 101.67 157.76 134.71 49.46 134.71 37.44 101.67 157.76 101.67"/><polygon class="cls-1" points="157.76 167.75 157.76 200.79 73.5 200.79 72.04 196.75 61.48 167.75 157.76 167.75"/><polygon points="146.33 341.22 124.88 341.22 122.88 336.06 120.23 329.23 77.69 212.3 73.51 200.8 95.25 200.8 99.43 212.3 141.35 327.5 146.33 341.22"/><path d="M122.88,336.06a10.85,10.85,0,0,1-.74-1.58l-1.91-5.25Z"/><polygon class="cls-2" points="157.75 200.79 157.75 200.8 73.51 200.8 73.5 200.79 157.75 200.79"/><polygon class="cls-2" points="205.38 212.3 183.11 212.3 178.16 200.86 200.43 200.86 205.38 212.3"/><path class="cls-2" d="M293,200.86,274.9,212.3l-18.1,11.44-14.06,8.89-30.89,19.49-1.51.95h-2.89a10.29,10.29,0,0,1-2.95-.44l-1.25-.52a11.24,11.24,0,0,1-1.68-1l-1.14-.86a9.92,9.92,0,0,1-1.71-2.17l-.7-1.28L183.11,212.3l-5-11.44h22.27l4.95,11.44,1.89,4.37,27.48-15.81Z"/><polygon class="cls-1" points="231.35 200.86 188.37 224.46 178.16 200.86 231.35 200.86"/><polygon class="cls-2" points="207.27 216.67 206.37 214.58 231.35 200.86 234.75 200.86 207.27 216.67"/><path class="cls-7" d="M293,200.87,274.9,212.31l-18.1,11.44-14.06,8.89-30.89,19.49-1.51,1h-2.89a10.29,10.29,0,0,1-2.95-.44l-1.25-.52a11.24,11.24,0,0,1-1.68-1l-1.14-.86a9.92,9.92,0,0,1-1.71-2.17l-.7-1.28-8.61-19.9-11.25-26,56.59,0v0Z"/></svg>