<?xml version="1.0" encoding="UTF-8" standalone="no"?>
<svg xmlns="http://www.w3.org/2000/svg" width="24" height="24"><path d="M2.580 4.047 C 2.117 4.135,1.589 4.500,1.322 4.917 C 1.166 5.161,1.049 5.487,1.015 5.777 L 0.989 6.000 12.000 6.000 L 23.011 6.000 22.985 5.777 C 22.884 4.919,22.216 4.196,21.383 4.043 C 21.075 3.987,2.876 3.991,2.580 4.047 M1.000 12.000 L 1.000 17.000 1.920 17.000 L 2.840 17.000 2.840 15.303 L 2.840 13.605 4.410 13.591 C 6.183 13.574,6.300 13.558,6.940 13.243 C 8.026 12.708,8.594 11.478,8.476 9.920 C 8.349 8.247,7.389 7.218,5.792 7.043 C 5.564 7.018,4.492 7.000,3.202 7.000 L 1.000 7.000 1.000 12.000 M15.360 11.997 L 15.360 17.000 16.300 17.000 L 17.240 17.000 17.240 15.299 L 17.240 13.599 18.266 13.609 L 19.292 13.620 20.095 15.310 L 20.897 17.000 21.947 17.000 L 22.997 17.000 22.824 16.630 C 22.729 16.427,22.333 15.596,21.944 14.785 C 21.555 13.974,21.242 13.306,21.248 13.302 C 21.255 13.297,21.371 13.227,21.506 13.146 C 21.813 12.963,22.155 12.624,22.337 12.324 C 22.875 11.440,23.013 10.185,22.695 9.088 C 22.542 8.558,22.350 8.228,21.981 7.858 C 21.609 7.486,21.203 7.260,20.640 7.115 C 20.311 7.029,20.218 7.026,17.830 7.010 L 15.360 6.994 15.360 11.997 M5.760 8.854 C 5.859 8.892,6.006 8.969,6.087 9.025 C 6.765 9.494,6.798 10.984,6.143 11.545 C 5.831 11.812,5.644 11.840,4.156 11.840 L 2.840 11.840 2.840 10.297 L 2.840 8.754 4.210 8.769 C 5.389 8.782,5.605 8.794,5.760 8.854 M20.175 8.876 C 20.613 9.050,20.875 9.425,20.966 10.008 C 21.055 10.584,20.871 11.220,20.528 11.523 C 20.197 11.814,20.031 11.840,18.536 11.840 L 17.240 11.840 17.240 10.297 L 17.240 8.754 18.590 8.768 C 19.891 8.783,19.949 8.787,20.175 8.876 M10.951 10.130 L 10.940 11.260 9.970 11.271 L 9.000 11.281 9.000 12.001 L 9.000 12.720 9.980 12.720 L 10.960 12.720 10.960 13.860 L 10.960 15.000 11.680 15.000 L 12.400 15.000 12.400 13.860 L 12.400 12.720 13.360 12.720 L 14.320 12.720 14.320 12.000 L 14.320 11.280 13.360 11.280 L 12.400 11.280 12.400 10.140 L 12.400 9.000 11.681 9.000 L 10.961 9.000 10.951 10.130 M1.015 18.223 C 1.115 19.069,1.765 19.783,2.592 19.956 C 2.892 20.018,21.108 20.018,21.408 19.956 C 22.235 19.783,22.885 19.069,22.985 18.223 L 23.011 18.000 12.000 18.000 L 0.989 18.000 1.015 18.223" stroke="none" fill-rule="evenodd"/></svg>