<?xml version="1.0" encoding="UTF-8" standalone="no"?>
<svg xmlns="http://www.w3.org/2000/svg" width="24" height="24"><path d="M13.289 1.059 C 13.090 1.121,12.868 1.280,12.769 1.431 C 12.731 1.489,12.607 1.771,12.493 2.058 L 12.286 2.580 11.963 2.580 L 11.640 2.580 11.399 2.062 C 11.087 1.387,10.907 1.200,10.501 1.124 C 10.160 1.061,9.298 1.288,9.039 1.510 C 8.713 1.789,8.654 2.050,8.731 2.870 C 8.753 3.106,8.749 3.200,8.717 3.200 C 8.692 3.200,8.525 3.264,8.346 3.341 L 8.021 3.482 7.670 3.105 C 7.245 2.647,7.026 2.520,6.660 2.520 C 6.364 2.520,6.171 2.609,5.676 2.976 C 5.253 3.289,5.142 3.477,5.141 3.880 C 5.140 4.112,5.164 4.192,5.365 4.626 L 5.590 5.112 5.336 5.364 L 5.082 5.616 4.531 5.347 C 4.072 5.124,3.946 5.079,3.780 5.080 C 3.332 5.081,3.135 5.211,2.723 5.780 C 2.356 6.284,2.299 6.501,2.424 6.920 C 2.479 7.107,2.550 7.198,2.962 7.619 L 3.436 8.102 3.299 8.441 L 3.163 8.780 2.491 8.780 C 1.865 8.780,1.810 8.786,1.676 8.870 C 1.316 9.093,1.211 9.282,1.080 9.937 C 0.983 10.421,0.992 10.596,1.131 10.873 C 1.257 11.125,1.436 11.246,2.041 11.489 L 2.580 11.704 2.580 12.056 L 2.580 12.409 2.085 12.621 C 1.174 13.012,1.021 13.327,1.266 14.306 C 1.381 14.763,1.508 14.981,1.758 15.150 C 1.985 15.303,2.165 15.330,2.676 15.287 C 2.931 15.266,3.151 15.260,3.165 15.274 C 3.179 15.289,3.257 15.457,3.338 15.649 L 3.487 15.999 3.133 16.381 C 2.719 16.830,2.612 16.994,2.576 17.234 C 2.529 17.549,2.614 17.787,2.924 18.202 C 3.270 18.668,3.400 18.782,3.676 18.865 C 3.985 18.957,4.187 18.916,4.695 18.656 L 5.132 18.433 5.427 18.728 L 5.722 19.023 5.543 19.407 C 5.298 19.932,5.256 20.111,5.317 20.380 C 5.385 20.684,5.547 20.882,5.949 21.152 C 6.443 21.484,6.540 21.527,6.796 21.532 C 7.171 21.538,7.298 21.470,7.761 21.015 L 8.183 20.602 8.481 20.718 L 8.780 20.834 8.786 21.455 C 8.790 22.007,8.801 22.097,8.879 22.258 C 9.053 22.617,9.292 22.751,10.107 22.945 C 10.466 23.031,10.754 22.981,11.009 22.786 C 11.220 22.626,11.283 22.517,11.514 21.910 L 11.702 21.420 12.034 21.420 L 12.367 21.420 12.604 21.939 C 12.916 22.620,13.088 22.799,13.505 22.877 C 13.840 22.939,14.704 22.710,14.961 22.490 C 15.286 22.212,15.346 21.949,15.270 21.136 L 15.239 20.813 15.517 20.704 C 15.985 20.520,16.218 20.191,16.214 19.717 C 16.211 19.193,15.781 18.763,15.257 18.761 C 15.119 18.760,14.907 18.812,14.599 18.922 C 14.090 19.104,13.526 19.257,13.210 19.299 L 13.000 19.328 13.000 17.490 L 13.000 15.653 13.170 15.602 C 13.468 15.514,13.971 15.249,14.256 15.031 C 14.408 14.915,14.552 14.805,14.576 14.787 C 14.603 14.766,14.806 14.863,15.094 15.035 C 15.621 15.348,15.799 15.397,16.122 15.320 C 16.713 15.178,17.045 14.509,16.797 13.960 C 16.680 13.701,16.554 13.586,16.070 13.294 C 15.833 13.152,15.641 13.023,15.641 13.007 C 15.642 12.992,15.669 12.872,15.701 12.740 C 15.779 12.418,15.777 11.578,15.698 11.243 C 15.665 11.102,15.652 10.973,15.669 10.956 C 15.721 10.905,18.768 9.075,18.779 9.088 C 18.810 9.126,19.005 9.662,19.079 9.915 C 19.265 10.545,19.324 10.955,19.347 11.780 C 19.380 12.938,19.265 13.634,18.863 14.708 C 18.762 14.979,18.680 15.266,18.680 15.351 C 18.680 16.027,19.367 16.523,19.996 16.302 C 20.335 16.182,20.539 15.933,20.739 15.393 L 20.808 15.207 21.494 15.213 C 22.141 15.220,22.188 15.215,22.324 15.130 C 22.507 15.017,22.671 14.853,22.744 14.712 C 22.845 14.518,23.009 13.676,22.983 13.484 C 22.951 13.241,22.809 12.974,22.639 12.839 C 22.561 12.777,22.241 12.622,21.928 12.495 L 21.360 12.263 21.360 11.939 L 21.360 11.615 21.690 11.480 C 22.600 11.111,22.840 10.873,22.840 10.340 C 22.840 9.991,22.651 9.301,22.502 9.105 C 22.220 8.736,21.980 8.657,21.304 8.714 C 21.038 8.736,20.809 8.742,20.796 8.727 C 20.765 8.691,20.520 8.070,20.520 8.026 C 20.520 8.008,20.667 7.837,20.846 7.646 C 21.245 7.222,21.388 7.004,21.424 6.770 C 21.471 6.451,21.387 6.215,21.076 5.798 C 20.730 5.333,20.600 5.218,20.326 5.136 C 19.983 5.033,19.782 5.081,19.173 5.412 L 18.847 5.589 18.560 5.300 L 18.273 5.011 18.474 4.555 C 18.712 4.014,18.744 3.868,18.680 3.602 C 18.610 3.310,18.446 3.113,18.051 2.848 C 17.534 2.500,17.458 2.468,17.160 2.468 C 16.808 2.468,16.698 2.531,16.213 3.010 L 15.807 3.412 15.513 3.293 L 15.220 3.174 15.216 2.614 C 15.211 1.929,15.190 1.814,15.039 1.605 C 14.865 1.364,14.673 1.259,14.160 1.123 C 13.654 0.988,13.542 0.980,13.289 1.059 M10.990 6.506 L 10.980 8.332 10.772 8.403 C 10.448 8.513,9.968 8.777,9.646 9.023 L 9.353 9.247 7.796 8.314 C 6.940 7.801,6.240 7.367,6.240 7.351 C 6.240 7.291,7.070 6.462,7.380 6.212 C 7.742 5.921,8.245 5.599,8.683 5.378 C 9.331 5.052,10.398 4.720,10.910 4.686 L 11.001 4.680 10.990 6.506 M13.770 4.824 C 14.809 5.084,15.792 5.569,16.600 6.219 C 17.041 6.574,17.765 7.328,17.714 7.379 C 17.705 7.389,17.005 7.813,16.160 8.323 C 15.180 8.913,14.607 9.236,14.578 9.214 C 14.553 9.195,14.408 9.085,14.256 8.969 C 13.968 8.748,13.462 8.482,13.170 8.397 L 13.000 8.347 13.000 6.509 L 13.000 4.671 13.190 4.698 C 13.295 4.713,13.555 4.770,13.770 4.824 M6.740 10.001 C 7.554 10.491,8.243 10.913,8.271 10.939 C 8.313 10.977,8.311 11.051,8.261 11.338 C 8.183 11.785,8.183 12.214,8.261 12.661 C 8.295 12.856,8.307 13.029,8.289 13.047 C 8.184 13.152,5.215 14.910,5.188 14.883 C 5.121 14.818,4.846 13.964,4.765 13.573 C 4.506 12.324,4.565 10.935,4.924 9.813 C 5.077 9.337,5.190 9.069,5.230 9.093 C 5.246 9.103,5.926 9.511,6.740 10.001 M12.740 10.374 C 13.871 10.911,14.132 12.386,13.251 13.267 C 12.365 14.153,10.935 13.903,10.368 12.762 C 10.223 12.470,10.220 12.455,10.220 12.000 C 10.220 11.546,10.223 11.530,10.368 11.238 C 10.605 10.759,10.970 10.441,11.472 10.275 C 11.648 10.216,11.784 10.203,12.067 10.214 C 12.390 10.227,12.472 10.246,12.740 10.374 M9.651 14.981 C 9.969 15.223,10.450 15.487,10.772 15.597 L 10.980 15.668 10.990 17.498 L 11.001 19.328 10.790 19.300 C 10.233 19.228,9.272 18.918,8.683 18.622 C 8.244 18.400,7.742 18.079,7.376 17.785 C 7.074 17.542,6.240 16.706,6.240 16.646 C 6.240 16.625,9.314 14.760,9.351 14.760 C 9.357 14.760,9.492 14.859,9.651 14.981 M16.673 16.063 C 16.412 16.143,16.140 16.421,16.061 16.690 C 15.984 16.949,15.984 17.053,16.064 17.322 C 16.124 17.524,16.196 17.607,17.102 18.520 L 18.076 19.500 17.102 20.480 C 16.196 21.393,16.125 21.475,16.064 21.677 C 15.984 21.947,15.984 22.051,16.061 22.310 C 16.144 22.589,16.411 22.856,16.690 22.939 C 16.949 23.016,17.053 23.016,17.323 22.936 C 17.525 22.875,17.607 22.804,18.520 21.898 L 19.500 20.924 20.480 21.898 C 21.393 22.804,21.476 22.876,21.678 22.936 C 21.947 23.016,22.051 23.016,22.310 22.939 C 22.589 22.856,22.856 22.589,22.939 22.310 C 23.016 22.051,23.016 21.947,22.936 21.678 C 22.876 21.476,22.804 21.393,21.898 20.480 L 20.924 19.500 21.898 18.520 C 22.804 17.607,22.875 17.525,22.936 17.323 C 23.016 17.053,23.016 16.949,22.939 16.690 C 22.856 16.411,22.589 16.144,22.310 16.061 C 22.051 15.984,21.947 15.984,21.678 16.064 C 21.476 16.124,21.393 16.196,20.480 17.102 L 19.500 18.076 18.520 17.102 C 17.607 16.196,17.525 16.125,17.323 16.064 C 17.062 15.987,16.921 15.987,16.673 16.063" stroke="none" fill-rule="evenodd"/></svg>