<?xml version="1.0" encoding="UTF-8" standalone="no"?>
<svg xmlns="http://www.w3.org/2000/svg" width="24" height="24"><path d="M11.091 1.059 C 10.633 1.188,10.231 1.475,10.010 1.829 C 9.945 1.934,9.094 3.814,8.120 6.007 L 6.348 9.994 4.904 10.011 C 3.302 10.029,3.288 10.031,2.704 10.312 C 1.836 10.729,1.263 11.466,1.060 12.425 C 0.970 12.847,0.972 20.148,1.062 20.581 C 1.310 21.785,2.215 22.690,3.419 22.938 C 3.858 23.029,17.568 23.032,18.085 22.941 C 19.623 22.672,20.877 21.546,21.278 20.076 C 21.322 19.913,21.613 18.133,21.925 16.120 C 22.423 12.907,22.492 12.401,22.491 11.980 C 22.489 10.958,22.117 10.018,21.424 9.289 C 20.934 8.772,20.479 8.471,19.838 8.237 C 19.259 8.026,18.943 8.000,16.872 8.000 L 15.005 8.000 14.990 5.930 C 14.976 4.131,14.966 3.830,14.907 3.633 C 14.518 2.328,13.632 1.446,12.380 1.114 C 11.988 1.011,11.357 0.983,11.091 1.059 M12.188 3.165 C 12.478 3.303,12.723 3.558,12.876 3.880 L 12.980 4.100 13.000 6.260 C 13.020 8.364,13.023 8.426,13.109 8.654 C 13.359 9.318,13.927 9.817,14.592 9.956 C 14.730 9.985,15.487 10.000,16.752 10.001 C 18.851 10.001,18.991 10.013,19.393 10.217 C 20.070 10.560,20.480 11.219,20.480 11.965 C 20.480 12.346,19.438 19.202,19.319 19.605 C 19.173 20.099,18.814 20.528,18.350 20.764 C 17.865 21.011,18.119 21.000,12.832 21.000 L 8.000 21.000 8.000 16.079 L 8.000 11.158 8.134 10.889 C 8.208 10.741,9.030 8.905,9.961 6.809 L 11.654 2.999 11.797 3.023 C 11.876 3.036,12.052 3.100,12.188 3.165 M6.000 16.500 L 6.000 21.000 4.927 21.000 C 3.692 21.000,3.577 20.979,3.299 20.701 C 2.985 20.387,3.000 20.604,3.000 16.500 C 3.000 12.395,2.984 12.613,3.300 12.298 C 3.574 12.024,3.667 12.007,4.910 12.003 L 6.000 12.000 6.000 16.500" stroke="none" fill-rule="evenodd"/></svg>