<?xml version="1.0" encoding="UTF-8" standalone="no"?>
<svg xmlns="http://www.w3.org/2000/svg" width="24" height="24"><path d="M8.340 1.046 C 7.849 1.108,7.317 1.273,6.820 1.517 C 5.568 2.131,4.668 3.162,4.246 4.465 C 4.008 5.199,4.020 4.806,4.020 12.000 C 4.020 19.199,4.008 18.800,4.247 19.539 C 4.502 20.326,4.944 21.026,5.550 21.605 C 6.122 22.152,6.727 22.515,7.465 22.754 C 8.178 22.985,8.075 22.980,12.000 22.980 C 15.925 22.980,15.822 22.985,16.535 22.754 C 18.057 22.261,19.260 21.059,19.753 19.539 C 19.992 18.800,19.980 19.203,19.980 11.960 L 19.980 5.300 19.871 4.869 C 19.610 3.843,19.147 3.047,18.409 2.353 C 17.657 1.647,16.632 1.168,15.601 1.042 C 15.183 0.990,8.746 0.994,8.340 1.046 M15.756 3.090 C 16.643 3.362,17.325 3.939,17.704 4.740 C 18.017 5.401,18.000 4.993,18.000 12.000 C 18.000 19.007,18.017 18.599,17.704 19.260 C 17.281 20.152,16.537 20.741,15.581 20.938 C 15.149 21.028,8.845 21.029,8.425 20.940 C 7.686 20.784,7.131 20.445,6.664 19.865 C 6.444 19.592,6.158 19.016,6.074 18.680 C 5.994 18.354,5.994 5.646,6.074 5.320 C 6.159 4.980,6.445 4.407,6.670 4.127 C 7.117 3.573,7.815 3.159,8.503 3.042 C 8.611 3.023,10.239 3.011,12.120 3.016 C 15.177 3.023,15.563 3.030,15.756 3.090 M11.120 4.057 C 9.657 4.362,8.388 5.390,7.836 6.716 C 7.585 7.318,7.509 7.712,7.504 8.420 C 7.499 9.160,7.561 9.527,7.787 10.100 C 8.850 12.791,12.112 13.808,14.500 12.190 C 15.864 11.266,16.622 9.634,16.441 8.006 C 16.235 6.153,14.949 4.637,13.156 4.137 C 12.831 4.046,12.685 4.030,12.080 4.017 C 11.593 4.007,11.301 4.019,11.120 4.057 M12.641 6.064 C 13.300 6.260,13.930 6.780,14.209 7.360 C 14.408 7.774,14.497 8.207,14.467 8.617 C 14.444 8.939,14.342 9.360,14.289 9.360 C 14.253 9.360,11.080 6.190,11.080 6.155 C 11.080 6.130,11.458 6.023,11.680 5.983 C 11.862 5.951,12.419 5.998,12.641 6.064 M12.849 10.807 C 12.778 10.878,12.312 10.960,11.980 10.960 C 11.270 10.960,10.724 10.732,10.217 10.224 C 9.843 9.849,9.645 9.498,9.538 9.015 C 9.455 8.646,9.476 8.041,9.581 7.745 L 9.651 7.551 11.264 9.164 C 12.152 10.052,12.865 10.791,12.849 10.807 M8.240 14.037 C 8.047 14.096,7.893 14.196,7.752 14.352 C 7.307 14.845,7.480 15.617,8.100 15.906 L 8.300 15.999 12.000 15.999 L 15.700 15.999 15.900 15.906 C 16.672 15.546,16.696 14.510,15.943 14.107 L 15.780 14.020 12.060 14.013 C 10.014 14.009,8.295 14.020,8.240 14.037 M8.240 17.037 C 8.047 17.096,7.893 17.196,7.752 17.352 C 7.307 17.845,7.480 18.617,8.100 18.906 L 8.300 18.999 12.000 18.999 L 15.700 18.999 15.900 18.906 C 16.672 18.546,16.696 17.510,15.943 17.107 L 15.780 17.020 12.060 17.013 C 10.014 17.009,8.295 17.020,8.240 17.037" stroke="none" fill-rule="evenodd"/></svg>