<?xml version="1.0" encoding="UTF-8" standalone="no"?>
<svg xmlns="http://www.w3.org/2000/svg" width="24" height="24"><path d="M11.571 1.696 C 11.171 1.827,10.919 2.042,10.671 2.468 C 10.597 2.595,10.026 3.735,9.403 5.000 C 8.780 6.265,8.259 7.312,8.245 7.327 C 8.231 7.341,7.095 7.517,5.720 7.717 C 4.345 7.918,3.076 8.110,2.900 8.145 C 2.087 8.305,1.596 8.842,1.587 9.580 C 1.583 9.936,1.641 10.133,1.839 10.429 C 1.938 10.577,2.673 11.323,3.808 12.429 C 4.805 13.399,5.688 14.263,5.770 14.349 L 5.921 14.504 5.474 17.082 C 4.959 20.046,4.934 20.316,5.126 20.727 C 5.457 21.432,6.222 21.762,6.945 21.511 C 7.101 21.456,8.294 20.851,9.597 20.166 C 10.900 19.481,11.981 18.920,12.000 18.920 C 12.019 18.920,13.100 19.481,14.403 20.166 C 15.706 20.851,16.899 21.456,17.055 21.511 C 17.778 21.762,18.543 21.432,18.874 20.727 C 19.067 20.315,19.041 20.046,18.526 17.083 L 18.078 14.505 18.249 14.329 C 18.343 14.233,19.227 13.368,20.212 12.408 C 22.010 10.658,22.265 10.376,22.368 10.026 C 22.443 9.767,22.423 9.335,22.323 9.072 C 22.162 8.650,21.722 8.283,21.240 8.168 C 21.141 8.144,19.872 7.951,18.420 7.739 C 16.968 7.527,15.769 7.341,15.755 7.327 C 15.741 7.312,15.220 6.265,14.597 5.000 C 13.974 3.735,13.402 2.594,13.327 2.464 C 13.124 2.117,12.943 1.936,12.652 1.793 C 12.436 1.687,12.337 1.663,12.066 1.653 C 11.865 1.645,11.675 1.662,11.571 1.696 M13.077 6.449 C 13.655 7.620,14.183 8.649,14.251 8.734 C 14.412 8.938,14.638 9.098,14.898 9.196 C 15.029 9.245,15.993 9.404,17.464 9.620 C 18.759 9.810,19.823 9.970,19.828 9.975 C 19.833 9.980,19.047 10.753,18.081 11.693 C 16.501 13.230,16.311 13.428,16.197 13.661 C 15.977 14.107,15.980 14.152,16.437 16.797 C 16.659 18.082,16.832 19.141,16.822 19.151 C 16.813 19.161,15.839 18.661,14.658 18.040 C 12.283 16.791,12.255 16.780,11.745 16.867 C 11.530 16.904,11.152 17.089,9.343 18.040 C 8.162 18.661,7.188 19.161,7.178 19.151 C 7.168 19.141,7.341 18.082,7.563 16.797 C 8.019 14.152,8.023 14.107,7.804 13.661 C 7.689 13.429,7.498 13.229,5.920 11.693 C 4.954 10.753,4.167 9.979,4.172 9.974 C 4.177 9.970,5.180 9.820,6.401 9.642 C 9.045 9.256,8.999 9.264,9.293 9.109 C 9.703 8.892,9.762 8.796,10.911 6.470 C 11.496 5.288,11.986 4.320,12.000 4.320 C 12.015 4.320,12.500 5.278,13.077 6.449" stroke="none" fill-rule="evenodd"/></svg>