<?xml version="1.0" encoding="UTF-8" standalone="no"?>
<svg xmlns="http://www.w3.org/2000/svg" width="24" height="24"><path d="M11.600 1.595 C 11.545 1.613,11.419 1.669,11.320 1.720 C 10.944 1.911,3.453 6.619,3.312 6.752 C 2.888 7.154,2.910 7.825,3.360 8.211 C 3.671 8.477,3.096 8.460,12.000 8.460 C 18.735 8.460,20.132 8.451,20.288 8.405 C 20.833 8.247,21.143 7.606,20.922 7.094 C 20.874 6.983,20.769 6.828,20.688 6.752 C 20.549 6.620,12.987 1.876,12.600 1.677 C 12.459 1.605,12.342 1.583,12.060 1.574 C 11.862 1.568,11.655 1.577,11.600 1.595 M14.194 5.004 C 15.396 5.755,16.406 6.394,16.439 6.424 C 16.489 6.472,15.843 6.480,12.001 6.480 C 8.577 6.480,7.515 6.469,7.551 6.433 C 7.594 6.390,11.963 3.645,11.994 3.642 C 12.002 3.641,12.992 4.254,14.194 5.004 M5.578 9.555 C 5.367 9.651,5.103 9.955,5.044 10.170 C 5.009 10.296,5.000 11.423,5.008 14.540 L 5.020 18.740 5.108 18.904 C 5.210 19.094,5.438 19.307,5.626 19.385 C 5.795 19.456,6.205 19.456,6.374 19.385 C 6.562 19.307,6.790 19.094,6.892 18.904 L 6.980 18.740 6.992 14.540 C 7.000 11.423,6.991 10.296,6.956 10.170 C 6.897 9.955,6.633 9.651,6.422 9.555 C 6.318 9.508,6.167 9.482,6.000 9.482 C 5.833 9.482,5.682 9.508,5.578 9.555 M9.578 9.555 C 9.367 9.651,9.103 9.955,9.044 10.170 C 9.009 10.296,9.000 11.423,9.008 14.540 L 9.020 18.740 9.108 18.904 C 9.210 19.094,9.438 19.307,9.626 19.385 C 9.795 19.456,10.205 19.456,10.374 19.385 C 10.562 19.307,10.790 19.094,10.892 18.904 L 10.980 18.740 10.992 14.540 C 11.000 11.423,10.991 10.296,10.956 10.170 C 10.897 9.955,10.633 9.651,10.422 9.555 C 10.318 9.508,10.167 9.482,10.000 9.482 C 9.833 9.482,9.682 9.508,9.578 9.555 M13.578 9.555 C 13.367 9.651,13.103 9.955,13.044 10.170 C 13.009 10.296,13.000 11.423,13.008 14.540 L 13.020 18.740 13.108 18.904 C 13.210 19.094,13.438 19.307,13.626 19.385 C 13.795 19.456,14.205 19.456,14.374 19.385 C 14.562 19.307,14.790 19.094,14.892 18.904 L 14.980 18.740 14.992 14.540 C 15.000 11.423,14.991 10.296,14.956 10.170 C 14.897 9.955,14.633 9.651,14.422 9.555 C 14.318 9.508,14.167 9.482,14.000 9.482 C 13.833 9.482,13.682 9.508,13.578 9.555 M17.578 9.555 C 17.367 9.651,17.103 9.955,17.044 10.170 C 17.009 10.296,17.000 11.423,17.008 14.540 L 17.020 18.740 17.108 18.904 C 17.210 19.094,17.438 19.307,17.626 19.385 C 17.795 19.456,18.205 19.456,18.374 19.385 C 18.562 19.307,18.790 19.094,18.892 18.904 L 18.980 18.740 18.992 14.540 C 19.000 11.423,18.991 10.296,18.956 10.170 C 18.897 9.955,18.633 9.651,18.422 9.555 C 18.318 9.508,18.167 9.482,18.000 9.482 C 17.833 9.482,17.682 9.508,17.578 9.555 M2.578 20.555 C 2.363 20.653,2.103 20.955,2.040 21.181 C 1.906 21.657,2.163 22.179,2.637 22.395 C 2.768 22.454,3.575 22.460,12.000 22.460 C 20.425 22.460,21.232 22.454,21.363 22.395 C 21.837 22.179,22.094 21.657,21.960 21.181 C 21.897 20.955,21.637 20.653,21.422 20.555 C 21.266 20.485,20.896 20.482,12.000 20.482 C 3.104 20.482,2.734 20.485,2.578 20.555" stroke="none" fill-rule="evenodd"/></svg>