<?xml version="1.0" encoding="UTF-8" standalone="no"?>
<svg version="1.1" id="Ebene_1" xmlns="http://www.w3.org/2000/svg" xmlns:xlink="http://www.w3.org/1999/xlink" x="0px" y="0px" viewBox="0 0 365 365" style="enable-background:new 0 0 365 365;" xml:space="preserve"><style type="text/css">.st0{fill:#FFB800;} \t.st1{fill:#4562A2;} \t.st2{fill:#FFFFFF;} \t.st3{fill-rule:evenodd;clip-rule:evenodd;} \t.st4{fill-rule:evenodd;clip-rule:evenodd;fill:#FFB800;}</style><path class="st0" d="M330,365H35c-19.3299675,0-35-15.6700439-35-35V35C0,15.6700335,15.6700335,0,35,0h295 c19.3299561,0,35,15.6700335,35,35v295C365,349.3299561,349.3299561,365,330,365z"/><path class="st1" d="M0,258v72c0,19.3299561,15.6700439,35,35,35h295c19.3299561,0,35-15.6700439,35-35v-72H0z"/><g><path class="st2" d="M50.1391602,328.5947266l-2.3842773-29.3330078l-5.6557617,29.3330078h-6.8208008l-5.9331055-29.3330078 l-2.1069336,29.3330078h-6.8203125l4.1586914-36.9853516h8.7055664l5.6005859,29.6660156l5.3789062-29.6660156h8.7055664 l4.2143555,36.9853516H50.1391602z"/><path class="st2" d="M78.9707031,328.5947266h-8.8720703L59.6186523,291.609375h7.4858398l7.6523438,31.2744141 l7.5966797-31.2744141h7.152832L78.9707031,328.5947266z"/><path class="st2" d="M108.8452148,329.2050781c-11.5893555,0-16.8012695-7.8193359-16.8012695-19.6855469 c0-10.5351562,6.4873047-18.5205078,18.2431641-18.5205078c4.0478516,0,6.9311523,0.4443359,9.2045898,1.2753906 l-1.2753906,5.3789062c-2.2734375-0.8867188-4.7685547-1.3310547-7.5966797-1.3310547 c-7.9291992,0-11.3120117,5.5449219-11.3120117,13.1416016c0,7.8193359,2.2734375,14.5283203,10.3139648,14.5283203 c1.4418945,0,2.605957-0.2773438,3.659668-0.7207031v-10.2587891h-5.434082v-5.2119141h12.0883789v19.4072266 C116.7744141,328.5947266,113.28125,329.2050781,108.8452148,329.2050781z"/><path class="st2" d="M142.4443359,328.5947266V291.609375h6.9868164v36.9853516H142.4443359z"/><path class="st2" d="M172.5532227,328.5947266v-18.5761719c0-2.4394531-1.0537109-4.4912109-3.8818359-4.4912109 c-3.2714844,0-4.4912109,3.2714844-4.4912109,5.9882812v17.0791016h-6.5986328v-27.28125h5.8222656l0.4990234,3.6591797 c1.1645508-2.4951172,3.8813477-4.1582031,7.375-4.1582031c5.434082,0,7.8735352,3.8808594,7.8735352,8.6494141v19.1308594 H172.5532227z"/><path class="st2" d="M198.65625,294.0488281c-1.1083984-0.1660156-1.4970703-0.2216797-2.6054688-0.2216797 c-1.6083984,0.0556641-2.2734375,1.4414062-2.2734375,3.2714844v4.2148438h4.6572266v4.9345703h-4.6572266v22.3466797h-6.5986328 v-22.3466797h-3.9370117v-4.9345703h3.9370117c0-0.6660156,0-3.3271484,0-4.6025391 c0-4.9355469,2.6611328-7.5966797,8.0957031-7.5966797c1.6630859,0,3.4375,0.2773438,4.4912109,0.5546875L198.65625,294.0488281z"/><path class="st2" d="M213.7382812,329.09375c-9.1494141,0-11.7558594-6.9863281-11.7558594-14.5283203 c0-6.8203125,3.6044922-13.7509766,11.7558594-13.7509766c8.4833984-0.0556641,11.7548828,6.7089844,11.7548828,13.7509766 C225.4931641,321.8847656,222.6103516,329.09375,213.7382812,329.09375z M213.7382812,305.4716797 c-4.2695312,0-4.8798828,5.6005859-4.8798828,9.1494141c0,3.6044922,0.4433594,9.7597656,4.8798828,9.7597656 c4.4355469,0,4.8798828-6.0996094,4.8798828-9.7597656C218.6181641,311.0722656,218.0078125,305.4716797,213.7382812,305.4716797z"/><path class="st2" d="M244.0683594,329.09375c-3.0498047,0-5.046875-1.4414062-6.0996094-3.4931641v13.9736328h-6.5986328 v-38.2607422h5.9326172l0.4990234,3.6591797c1.109375-2.3291016,3.6044922-4.1582031,6.9316406-4.1582031 c7.2636719-0.0556641,9.4814453,6.4873047,9.4814453,13.8066406 C254.2148438,321.8847656,251.3876953,329.09375,244.0683594,329.09375z M242.515625,305.4160156 c-3.1054688,0-4.7138672,3.1054688-4.7138672,6.4882812v6.2099609c0,3.9375,1.7744141,6.3212891,4.6025391,6.3212891 c4.4365234,0,4.9355469-5.6552734,4.9355469-9.8144531C247.3398438,310.5175781,246.8408203,305.4160156,242.515625,305.4160156z"/><path class="st2" d="M270.2939453,329.09375c-9.1494141,0-11.7548828-6.9863281-11.7548828-14.5283203 c0-6.8203125,3.6044922-13.7509766,11.7548828-13.7509766c8.484375-0.0556641,11.7558594,6.7089844,11.7558594,13.7509766 C282.0498047,321.8847656,279.1660156,329.09375,270.2939453,329.09375z M270.2939453,305.4716797 c-4.2695312,0-4.8789062,5.6005859-4.8789062,9.1494141c0,3.6044922,0.4433594,9.7597656,4.8789062,9.7597656 c4.4365234,0,4.8798828-6.0996094,4.8798828-9.7597656C275.1738281,311.0722656,274.5644531,305.4716797,270.2939453,305.4716797z"/><path class="st2" d="M289.4785156,328.5947266v-22.4570312h-3.6601562v-4.8242188h10.2587891v27.28125H289.4785156z M292.4169922,296.5996094c-2.2734375,0-4.1025391-1.7744141-4.1025391-3.9365234c0-2.1630859,1.8291016-3.9375,4.1025391-3.9375 s4.1035156,1.7744141,4.1035156,3.9375C296.5205078,294.8251953,294.6904297,296.5996094,292.4169922,296.5996094z"/><path class="st2" d="M318.6445312,328.5947266v-18.5761719c0-2.4394531-1.0537109-4.4912109-3.8818359-4.4912109 c-3.2714844,0-4.4912109,3.2714844-4.4912109,5.9882812v17.0791016h-6.5986328v-27.28125h5.8222656l0.4990234,3.6591797 c1.1650391-2.4951172,3.8818359-4.1582031,7.375-4.1582031c5.4345703,0,7.8740234,3.8808594,7.8740234,8.6494141v19.1308594 H318.6445312z"/><path class="st2" d="M339.9248047,329.09375c-4.546875,0-6.7646484-2.4394531-6.7646484-7.4853516v-15.4707031h-3.8818359 v-4.8242188h3.8818359v-6.1552734l6.5976562-1.8857422v7.9853516h5.2685547v4.8798828h-5.2685547v13.9179688 c0,3.1044922,0.7763672,4.2138672,2.7177734,4.2138672c0.9980469,0,1.5527344,0,2.4951172-0.3330078l0.4433594,4.4921875 C343.9169922,328.9824219,342.2539062,329.09375,339.9248047,329.09375z"/></g><g><circle class="st3" cx="185.5" cy="134.5" r="87.5"/><path class="st4" d="M220.3158569,195.1915588v-18.8612823h-14.2868652v-63.3095932h-50.0234833v18.8551559h14.2974396v44.4544373 h-14.2974396v18.8612823H220.3158569 M208.1719666,80.8627167c0-11.790802-9.6483917-21.4336243-21.4391937-21.4336243 c-11.7852325,0-21.433075,9.6428223-21.433075,21.4336243s9.6478424,21.4386444,21.433075,21.4386444 C198.5235748,102.3013611,208.1719666,92.6535263,208.1719666,80.8627167z"/></g></svg>