<?xml version="1.0" encoding="UTF-8" standalone="no"?><svg xmlns:dc="http://purl.org/dc/elements/1.1/" xmlns:cc="http://creativecommons.org/ns#" xmlns:rdf="http://www.w3.org/1999/02/22-rdf-syntax-ns#" xmlns:svg="http://www.w3.org/2000/svg" xmlns="http://www.w3.org/2000/svg" width="4.3179998mm" height="4.3179998mm" viewBox="0 0 15.299999 15.299999" id="svg18363" version="1.1"><defs id="defs18365"/><metadata id="metadata18368"><rdf:RDF><cc:Work rdf:about=""><dc:format>image/svg+xml</dc:format><dc:type rdf:resource="http://purl.org/dc/dcmitype/StillImage"/><dc:title/></cc:Work></rdf:RDF></metadata><g id="g8525"><path style="opacity:1;fill:#015f85;fill-opacity:1" d="m 0.63449972,0.63449972 0,14.03100028 14.03100028,0 0,-14.03100028 z" id="path8519"/><path style="opacity:1;fill:#ffffff;fill-opacity:1" d="m 1.0340997,1.0700993 13.2317903,0 0,6.7100018 -13.2317903,0 z" id="path8517"/><path style="opacity:1;fill:#015f85;fill-opacity:1" d="m 11.43153,2.1082179 c -0.30749,0.01071 -0.49938,0.071264 -0.65164,0.2053737 -0.1933,0.1702323 -0.24855,0.3777479 -0.24855,0.9322939 l 0,0.2540272 -0.43321,0 0,0.5962533 0.43321,0 0,2.5606604 0.79862,0 0,-2.5606604 0.54138,0 0,-0.5962533 -0.54138,0 0,-0.2919511 c 0,-0.3363109 0.01,-0.3931917 0.0799,-0.4667175 0.0628,-0.065959 0.12049,-0.081373 0.30927,-0.081373 0.0838,0 0.15247,-0.005 0.15247,-0.010009 l 0.14402,-0.5140098 c -0.014,-0.014013 -0.42174,-0.03303 -0.58407,-0.027625 z" id="path8515"/><path style="opacity:1;fill:#015f85;fill-opacity:1" d="M 3.546875 2.375 L 3.5546875 6.6484375 L 4.3867188 6.65625 L 4.3867188 4.8652344 L 4.5253906 4.8710938 C 4.8192306 4.8842057 4.885775 4.9612735 5.171875 5.6210938 C 5.262375 5.8297504 5.3783075 6.1092286 5.4296875 6.2421875 C 5.5241875 6.4866762 5.5967769 6.6422247 5.6230469 6.6523438 C 5.6310469 6.6553438 5.8404306 6.6562969 6.0878906 6.6542969 L 6.5371094 6.6503906 L 6.4882812 6.5683594 C 6.3957812 6.4155327 6.2964 6.2032785 6.125 5.796875 C 6.0307 5.573285 5.9254181 5.3259666 5.8925781 5.2480469 C 5.7605081 4.9347968 5.603155 4.7474063 5.421875 4.6914062 C 5.361375 4.6726893 5.3297812 4.6523438 5.3632812 4.6523438 C 5.4003812 4.6523438 5.5858963 4.5602174 5.6914062 4.4902344 C 6.0677462 4.2408213 6.1857156 4.0556004 6.2285156 3.6464844 C 6.2454156 3.4849199 6.2307062 3.2809523 6.1914062 3.1289062 C 6.1454062 2.9492255 6.0422638 2.783462 5.9023438 2.6679688 C 5.8190437 2.5993077 5.595545 2.4918783 5.453125 2.4511719 C 5.210735 2.3819099 5.1132181 2.375 4.2988281 2.375 L 3.546875 2.375 z M 4.3847656 2.9824219 L 4.6464844 2.9882812 C 4.8255944 2.9932812 4.9324613 3.0023651 4.9882812 3.0175781 C 5.1781013 3.0693241 5.3078481 3.1703087 5.3613281 3.3066406 C 5.3866281 3.3710986 5.3925781 3.4119101 5.3925781 3.5410156 C 5.3930281 3.7172732 5.3779188 3.8020236 5.3242188 3.9160156 C 5.2490188 4.0756484 5.0863062 4.1876363 4.8789062 4.2246094 C 4.8199062 4.2351184 4.684225 4.2441406 4.578125 4.2441406 L 4.3847656 4.2441406 L 4.3847656 2.9824219 z" id="path8513"/><path style="opacity:1;fill:#015f85;fill-opacity:1" d="m 7.0784797,3.4999127 0.004,1.2295097 c 0.004,1.2245754 0.004,1.2302705 0.0342,1.338237 0.0402,0.1440989 0.12311,0.3089063 0.19857,0.3945329 0.1049,0.1191266 0.2245,0.186657 0.40673,0.2293552 l 4.5e-4,0 c 0.12385,0.028926 0.47029,0.017215 0.59982,-0.020318 0.20546,-0.059453 0.37507,-0.1806116 0.46105,-0.3296449 l 0.0388,-0.06716 0.008,0.059153 c 0.004,0.032529 0.0122,0.1185861 0.0171,0.191211 l 0.009,0.1320381 0.68679,0 0,-3.1569137 -0.75822,0 0,1.0602283 c 0,1.1589967 10e-4,1.1386785 -0.0803,1.3183692 -0.0594,0.1311473 -0.11038,0.1879982 -0.21432,0.239184 -0.0829,0.040937 -0.10078,0.04474 -0.21911,0.04474 -0.10775,0 -0.1396,-0.005 -0.19332,-0.031929 -0.0801,-0.039435 -0.14964,-0.1193167 -0.18944,-0.2177147 l -0.0306,-0.075568 -0.004,-1.1685052 -0.004,-1.1687353 -0.77169,0 z" id="path8509"/><path style="opacity:1;fill:#ffffff;fill-opacity:1" d="M 1.9570312 8.9824219 L 1.9570312 9.640625 L 2.9199219 9.640625 L 2.9199219 13.345703 L 3.7597656 13.345703 L 3.7597656 9.640625 L 4.6972656 9.640625 L 4.6972656 8.9824219 L 1.9570312 8.9824219 z M 5.96875 8.9824219 L 4.7265625 13.324219 L 5.5664062 13.339844 L 5.8574219 12.236328 L 7.1777344 12.236328 L 7.4394531 13.339844 L 8.3105469 13.339844 L 7.0644531 8.9882812 L 5.96875 8.9824219 z M 8.7050781 8.9824219 L 9.7617188 11.132812 L 8.5566406 13.337891 L 8.5566406 13.339844 L 9.4277344 13.345703 L 10.212891 11.662109 L 11.033203 13.345703 L 11.931641 13.345703 L 10.708984 11.074219 L 11.783203 8.9902344 L 10.914062 8.9824219 L 10.279297 10.503906 L 9.6035156 8.9941406 L 8.7050781 8.9824219 z M 12.527344 8.9824219 L 12.527344 13.345703 L 13.341797 13.345703 L 13.341797 8.9824219 L 12.527344 8.9824219 z" id="path8507"/><path style="opacity:1;fill:#015f85;fill-opacity:1" d="m 6.5112997,9.6227593 -0.50077,2.0037127 1.01249,-0.004 0,-2.3e-4 -0.50853,-1.9984478 -0.003,-0.001 z" id="path5214-9"/></g></svg>