<?xml version="1.0" encoding="UTF-8" standalone="no"?>
<svg xmlns="http://www.w3.org/2000/svg" width="24" height="24"><path d="M7.300 1.047 C 5.888 1.207,4.847 1.931,4.351 3.096 C 4.080 3.732,3.929 4.854,4.055 5.289 C 4.171 5.687,4.587 6.000,5.000 6.000 C 5.237 6.000,5.514 5.880,5.697 5.697 C 5.911 5.483,6.000 5.233,6.000 4.849 C 6.000 4.709,6.017 4.599,6.037 4.607 C 6.057 4.614,6.254 4.780,6.475 4.975 L 6.875 5.329 6.771 5.495 C 6.379 6.114,6.126 6.850,6.043 7.608 C 5.985 8.138,5.985 15.862,6.043 16.392 C 6.126 17.150,6.379 17.886,6.770 18.505 L 6.875 18.670 6.461 19.035 C 6.234 19.236,6.037 19.400,6.024 19.400 C 6.011 19.400,6.000 19.286,6.000 19.147 C 6.000 18.767,5.910 18.516,5.697 18.303 C 5.514 18.120,5.237 18.000,5.000 18.000 C 4.587 18.000,4.171 18.313,4.055 18.711 C 3.929 19.146,4.080 20.268,4.351 20.904 C 4.684 21.687,5.312 22.316,6.092 22.648 C 6.559 22.847,7.360 23.000,7.931 23.000 C 8.402 23.000,8.819 22.715,8.939 22.310 C 9.015 22.053,9.015 21.947,8.939 21.690 C 8.814 21.268,8.404 21.001,7.883 21.000 C 7.614 20.999,7.353 20.959,7.368 20.922 C 7.390 20.871,8.289 20.080,8.326 20.080 C 8.345 20.080,8.430 20.125,8.514 20.181 C 8.868 20.415,9.637 20.684,10.232 20.782 C 10.724 20.862,13.276 20.862,13.768 20.782 C 14.363 20.684,15.132 20.415,15.486 20.181 C 15.570 20.125,15.655 20.080,15.674 20.080 C 15.711 20.080,16.610 20.871,16.632 20.922 C 16.647 20.959,16.386 20.999,16.117 21.000 C 15.596 21.001,15.186 21.268,15.061 21.690 C 14.985 21.947,14.985 22.053,15.061 22.310 C 15.181 22.715,15.598 23.000,16.069 23.000 C 16.367 23.000,17.006 22.919,17.328 22.840 C 18.400 22.576,19.233 21.882,19.649 20.904 C 19.920 20.268,20.071 19.146,19.945 18.711 C 19.829 18.313,19.413 18.000,19.000 18.000 C 18.763 18.000,18.486 18.120,18.303 18.303 C 18.089 18.517,18.000 18.767,18.000 19.151 C 18.000 19.291,17.983 19.401,17.963 19.393 C 17.943 19.386,17.746 19.220,17.525 19.025 L 17.125 18.671 17.218 18.523 C 17.619 17.888,17.874 17.153,17.957 16.392 C 18.015 15.862,18.015 8.138,17.957 7.608 C 17.874 6.847,17.619 6.112,17.218 5.477 L 17.125 5.329 17.525 4.975 C 17.746 4.780,17.943 4.614,17.963 4.607 C 17.983 4.599,18.000 4.709,18.000 4.849 C 18.000 5.233,18.089 5.483,18.303 5.697 C 18.486 5.880,18.763 6.000,19.000 6.000 C 19.413 6.000,19.829 5.687,19.945 5.289 C 20.071 4.854,19.920 3.732,19.649 3.096 C 19.316 2.313,18.688 1.684,17.908 1.352 C 17.441 1.153,16.640 1.000,16.069 1.000 C 15.598 1.000,15.181 1.285,15.061 1.690 C 14.985 1.947,14.985 2.053,15.061 2.310 C 15.186 2.732,15.596 2.999,16.117 3.000 C 16.386 3.001,16.647 3.041,16.632 3.078 C 16.610 3.129,15.711 3.920,15.674 3.920 C 15.655 3.920,15.570 3.875,15.486 3.819 C 15.132 3.585,14.363 3.316,13.768 3.218 C 13.276 3.138,10.724 3.138,10.232 3.218 C 9.637 3.316,8.868 3.585,8.514 3.819 C 8.430 3.875,8.345 3.920,8.326 3.920 C 8.289 3.920,7.390 3.129,7.368 3.078 C 7.353 3.041,7.614 3.001,7.883 3.000 C 8.235 3.000,8.489 2.905,8.697 2.697 C 8.880 2.514,9.000 2.237,9.000 2.000 C 9.000 1.763,8.880 1.486,8.697 1.303 C 8.406 1.012,8.099 0.956,7.300 1.047 M13.940 5.293 C 14.747 5.577,15.361 6.130,15.723 6.900 C 16.008 7.506,16.000 7.353,16.000 12.000 C 16.000 16.647,16.008 16.494,15.723 17.100 C 15.361 17.869,14.747 18.422,13.940 18.707 L 13.620 18.820 12.000 18.820 L 10.380 18.820 10.060 18.707 C 9.669 18.570,9.460 18.452,9.116 18.177 C 8.769 17.900,8.474 17.523,8.282 17.113 C 7.991 16.490,8.000 16.655,8.000 12.000 C 8.000 7.342,7.991 7.511,8.283 6.884 C 8.599 6.208,9.211 5.624,9.880 5.359 C 10.343 5.176,10.490 5.163,12.100 5.172 L 13.620 5.181 13.940 5.293" stroke="none" fill-rule="evenodd"/></svg>