<?xml version="1.0" encoding="UTF-8" standalone="no"?>
<svg xmlns="http://www.w3.org/2000/svg" width="24" height="24"><path d="M11.800 4.037 C 11.723 4.053,11.588 4.104,11.500 4.150 C 11.403 4.201,9.929 5.649,7.735 7.847 C 4.439 11.150,4.124 11.477,4.065 11.657 C 3.983 11.906,3.983 12.094,4.065 12.343 C 4.124 12.523,4.439 12.850,7.755 16.171 C 10.179 18.600,11.433 19.828,11.540 19.879 C 11.790 20.000,11.999 20.018,12.265 19.940 C 12.581 19.849,12.844 19.590,12.936 19.283 C 13.016 19.013,13.016 18.949,12.937 18.677 C 12.875 18.467,12.787 18.374,10.147 15.730 L 7.421 13.000 13.284 13.000 C 19.869 13.000,19.379 13.023,19.701 12.701 C 20.092 12.310,20.092 11.690,19.701 11.299 C 19.379 10.977,19.869 11.000,13.284 11.000 L 7.421 11.000 10.147 8.270 C 12.787 5.626,12.875 5.533,12.937 5.323 C 13.015 5.053,13.016 4.987,12.938 4.725 C 12.797 4.252,12.277 3.937,11.800 4.037" stroke="none" fill-rule="evenodd"/></svg>