<?xml version="1.0" encoding="UTF-8" standalone="no"?>
<svg xmlns="http://www.w3.org/2000/svg" width="24" height="24"><path d="M11.069 1.039 C 8.822 1.258,6.868 2.041,5.101 3.432 C 4.640 3.795,3.606 4.863,3.231 5.363 C 2.075 6.906,1.379 8.590,1.093 10.540 C 0.995 11.212,0.995 12.788,1.093 13.460 C 1.379 15.409,2.074 17.091,3.230 18.637 C 3.685 19.244,4.756 20.315,5.363 20.770 C 6.909 21.926,8.591 22.621,10.540 22.907 C 11.212 23.005,12.788 23.005,13.460 22.907 C 15.409 22.621,17.091 21.926,18.637 20.770 C 19.244 20.315,20.315 19.244,20.770 18.637 C 21.926 17.091,22.621 15.409,22.907 13.460 C 22.959 13.104,22.977 12.727,22.977 12.000 C 22.977 11.273,22.959 10.896,22.907 10.540 C 22.621 8.590,21.925 6.906,20.769 5.363 C 20.394 4.863,19.360 3.795,18.899 3.432 C 17.302 2.175,15.548 1.412,13.580 1.120 C 12.946 1.026,11.638 0.984,11.069 1.039 M9.680 3.340 C 9.680 3.350,9.601 3.482,9.505 3.632 C 8.472 5.245,7.657 7.319,7.281 9.299 C 7.217 9.636,7.040 10.871,7.040 10.982 C 7.040 10.992,6.149 11.000,5.060 11.000 L 3.080 11.000 3.080 10.875 C 3.080 10.704,3.255 9.855,3.377 9.435 C 3.863 7.757,4.959 6.119,6.342 5.002 C 7.107 4.385,8.175 3.796,9.100 3.483 C 9.562 3.327,9.680 3.297,9.680 3.340 M14.897 3.482 C 15.809 3.789,16.896 4.388,17.659 5.003 C 19.030 6.109,20.138 7.764,20.619 9.421 C 20.745 9.853,20.920 10.701,20.920 10.875 L 20.920 11.000 18.942 11.000 L 16.964 11.000 16.944 10.870 C 16.933 10.798,16.903 10.560,16.879 10.340 C 16.782 9.480,16.546 8.385,16.255 7.440 C 15.911 6.324,15.210 4.786,14.597 3.798 C 14.445 3.553,14.320 3.345,14.320 3.336 C 14.320 3.298,14.443 3.329,14.897 3.482 M12.146 3.734 C 13.399 5.439,14.293 7.427,14.694 9.400 C 14.809 9.966,14.920 10.689,14.920 10.875 L 14.920 11.000 12.000 11.000 L 9.080 11.000 9.080 10.875 C 9.080 10.689,9.191 9.966,9.306 9.400 C 9.691 7.505,10.512 5.637,11.688 3.973 C 11.849 3.746,11.989 3.561,12.000 3.562 C 12.011 3.563,12.077 3.640,12.146 3.734 M7.056 13.130 C 7.067 13.202,7.097 13.440,7.121 13.660 C 7.218 14.520,7.454 15.615,7.745 16.560 C 8.139 17.835,8.913 19.480,9.641 20.587 L 9.725 20.715 9.392 20.614 C 8.188 20.246,7.077 19.631,6.100 18.790 C 4.839 17.706,3.836 16.150,3.377 14.565 C 3.255 14.145,3.080 13.296,3.080 13.125 L 3.080 13.000 5.058 13.000 L 7.036 13.000 7.056 13.130 M14.920 13.125 C 14.920 13.311,14.809 14.034,14.694 14.600 C 14.335 16.366,13.594 18.122,12.551 19.677 C 12.223 20.167,12.028 20.436,12.000 20.438 C 11.989 20.439,11.849 20.254,11.688 20.027 C 10.512 18.363,9.691 16.495,9.306 14.600 C 9.191 14.034,9.080 13.311,9.080 13.125 L 9.080 13.000 12.000 13.000 L 14.920 13.000 14.920 13.125 M20.920 13.125 C 20.920 13.299,20.745 14.147,20.619 14.579 C 20.562 14.776,20.425 15.156,20.315 15.424 C 19.289 17.920,17.195 19.824,14.607 20.614 L 14.274 20.715 14.345 20.608 C 15.070 19.509,15.864 17.827,16.255 16.560 C 16.546 15.615,16.782 14.520,16.879 13.660 C 16.903 13.440,16.933 13.202,16.944 13.130 L 16.964 13.000 18.942 13.000 L 20.920 13.000 20.920 13.125" stroke="none" fill-rule="evenodd"/></svg>