<?xml version="1.0" encoding="UTF-8" standalone="no"?>
<svg xmlns="http://www.w3.org/2000/svg" width="24" height="24"><path d="M4.433 1.043 C 3.858 1.128,3.224 1.377,2.731 1.712 C 1.956 2.239,1.396 3.034,1.129 3.989 L 1.020 4.380 1.020 12.000 L 1.020 19.620 1.131 20.017 C 1.552 21.526,2.707 22.608,4.226 22.917 C 4.625 22.998,4.734 23.000,9.771 23.000 C 15.352 23.000,15.074 23.011,15.374 22.782 C 15.447 22.726,15.559 22.586,15.623 22.470 C 15.931 21.911,15.629 21.214,15.001 21.040 C 14.912 21.015,12.999 21.000,9.832 21.000 C 6.317 21.000,4.740 20.987,4.592 20.956 C 3.830 20.797,3.181 20.138,3.043 19.383 C 2.982 19.049,2.982 4.951,3.043 4.617 C 3.184 3.849,3.849 3.184,4.617 3.043 C 4.951 2.982,19.049 2.982,19.383 3.043 C 20.151 3.184,20.816 3.849,20.957 4.617 C 20.985 4.775,21.000 5.914,21.000 7.997 C 21.000 10.039,21.015 11.192,21.042 11.289 C 21.103 11.509,21.315 11.762,21.531 11.874 C 21.932 12.080,22.390 12.012,22.701 11.701 C 23.018 11.384,23.004 11.569,22.991 7.756 L 22.979 4.380 22.873 3.995 C 22.612 3.047,22.045 2.239,21.269 1.712 C 20.929 1.482,20.353 1.218,19.958 1.112 L 19.620 1.022 12.140 1.015 C 8.026 1.012,4.558 1.024,4.433 1.043 M7.549 4.817 C 6.584 5.214,6.259 6.398,6.885 7.231 C 7.183 7.627,7.626 7.843,8.140 7.843 C 8.654 7.843,9.097 7.627,9.395 7.231 C 10.028 6.389,9.678 5.170,8.699 4.803 C 8.376 4.682,7.861 4.689,7.549 4.817 M15.496 5.006 C 15.405 5.026,15.258 5.106,15.167 5.183 C 14.860 5.446,12.141 8.483,12.030 8.687 C 11.833 9.049,11.908 9.436,12.231 9.727 C 12.569 10.032,13.030 10.034,13.365 9.731 C 13.452 9.652,13.816 9.264,14.172 8.869 L 14.820 8.151 14.840 10.049 L 14.860 11.946 14.970 12.113 C 15.133 12.358,15.358 12.492,15.644 12.513 C 16.013 12.539,16.288 12.396,16.474 12.080 L 16.580 11.900 16.600 10.034 L 16.620 8.167 17.337 8.964 C 18.133 9.847,18.257 9.940,18.625 9.931 C 19.247 9.917,19.663 9.261,19.405 8.700 C 19.363 8.609,18.664 7.803,17.792 6.839 C 16.193 5.072,16.151 5.033,15.800 4.987 C 15.723 4.977,15.586 4.985,15.496 5.006 M6.889 8.644 C 6.460 8.716,5.971 9.049,5.720 9.439 C 5.446 9.867,5.440 9.920,5.441 11.954 C 5.442 13.639,5.447 13.792,5.515 13.940 C 5.643 14.220,5.878 14.406,6.171 14.461 L 6.320 14.489 6.320 16.318 C 6.320 18.266,6.329 18.372,6.518 18.637 C 6.566 18.704,6.690 18.809,6.793 18.870 L 6.980 18.980 8.143 18.980 L 9.306 18.980 9.502 18.859 C 9.623 18.784,9.744 18.663,9.819 18.542 L 9.940 18.346 9.952 16.416 L 9.964 14.486 10.120 14.460 C 10.367 14.418,10.620 14.226,10.737 13.990 L 10.840 13.784 10.840 11.956 C 10.840 10.273,10.834 10.108,10.764 9.884 C 10.567 9.251,10.020 8.765,9.364 8.641 C 9.106 8.592,7.188 8.595,6.889 8.644 M19.123 13.563 C 18.430 13.699,17.703 14.133,17.250 14.680 C 16.958 15.033,16.672 15.612,16.648 15.900 C 16.601 16.474,16.975 16.930,17.541 16.989 C 17.987 17.035,18.312 16.832,18.561 16.353 C 18.781 15.931,18.945 15.756,19.245 15.621 C 19.465 15.522,19.526 15.512,19.816 15.528 C 20.302 15.555,20.617 15.748,20.832 16.152 C 21.004 16.475,21.037 16.770,20.925 16.990 C 20.751 17.331,20.225 17.724,19.591 17.985 C 19.158 18.164,18.888 18.398,18.809 18.665 C 18.615 19.317,19.016 19.929,19.677 19.989 C 19.867 20.006,19.957 19.987,20.280 19.863 C 21.018 19.579,21.710 19.131,22.187 18.628 C 22.524 18.274,22.718 17.963,22.866 17.540 C 22.966 17.254,22.978 17.166,22.978 16.720 C 22.977 16.323,22.958 16.154,22.886 15.900 C 22.555 14.735,21.587 13.822,20.432 13.584 C 20.102 13.516,19.421 13.505,19.123 13.563 M19.520 21.035 C 19.322 21.100,19.172 21.197,19.032 21.352 C 18.699 21.721,18.700 22.280,19.035 22.652 C 19.505 23.174,20.325 23.089,20.654 22.484 C 20.850 22.124,20.835 21.797,20.608 21.439 C 20.459 21.204,20.159 21.037,19.847 21.017 C 19.722 21.009,19.575 21.017,19.520 21.035" stroke="none" fill-rule="evenodd"/></svg>