<?xml version="1.0" encoding="UTF-8" standalone="no"?>
<svg width="24" height="24" viewBox="0 0 24 24" version="1.1" id="svg1" sodipodi:docname="gen-speedometer.svg" inkscape:version="1.3.2 (091e20e, 2023-11-25)" xmlns:inkscape="http://www.inkscape.org/namespaces/inkscape" xmlns:sodipodi="http://sodipodi.sourceforge.net/DTD/sodipodi-0.dtd" xmlns="http://www.w3.org/2000/svg" xmlns:svg="http://www.w3.org/2000/svg"><path d="M11.069 1.041 C 8.448 1.283,6.083 2.389,4.236 4.236 C 2.536 5.936,1.487 8.022,1.115 10.444 C 1.043 10.912,1.026 11.197,1.025 11.960 C 1.023 12.940,1.054 13.289,1.223 14.144 C 1.777 16.962,3.496 19.512,5.940 21.142 C 7.408 22.121,8.952 22.693,10.760 22.926 C 11.427 23.012,12.851 22.991,13.549 22.885 C 15.805 22.542,17.767 21.598,19.540 20.001 C 19.694 19.862,19.865 19.673,19.921 19.580 C 19.976 19.487,20.121 19.296,20.244 19.155 C 21.363 17.875,22.235 16.255,22.637 14.706 C 22.904 13.676,23.062 12.287,22.967 11.791 C 22.941 11.653,22.901 11.333,22.879 11.080 C 22.692 8.974,21.961 7.069,20.698 5.398 C 18.956 3.093,16.280 1.535,13.460 1.184 C 12.350 1.045,12.162 1.027,11.800 1.018 C 11.591 1.013,11.262 1.023,11.069 1.041 M11.007 3.990 C 11.022 4.879,11.048 4.979,11.345 5.239 C 11.550 5.419,11.715 5.480,12.000 5.480 C 12.285 5.480,12.450 5.419,12.655 5.239 C 12.952 4.979,12.978 4.879,12.993 3.990 C 13.000 3.556,13.018 3.200,13.033 3.200 C 13.048 3.200,13.231 3.228,13.439 3.262 C 14.814 3.485,16.167 4.047,17.235 4.839 L 17.567 5.085 15.792 6.832 C 14.817 7.794,13.816 8.778,13.568 9.019 L 13.118 9.458 12.694 9.239 L 12.271 9.020 11.905 9.022 C 11.150 9.027,10.480 9.320,9.900 9.900 C 9.494 10.306,9.265 10.688,9.121 11.200 C 8.674 12.785,9.613 14.429,11.228 14.888 C 11.666 15.012,12.334 15.012,12.772 14.888 C 14.000 14.539,14.857 13.512,14.982 12.243 C 15.018 11.884,14.960 11.653,14.738 11.263 C 14.640 11.091,14.560 10.930,14.560 10.905 C 14.560 10.879,15.551 9.881,16.762 8.686 L 18.965 6.515 19.098 6.689 C 19.729 7.516,20.285 8.673,20.562 9.738 C 20.655 10.094,20.799 10.840,20.800 10.967 C 20.800 10.982,20.445 11.000,20.010 11.007 C 19.121 11.022,19.021 11.048,18.761 11.345 C 18.581 11.550,18.520 11.715,18.520 12.000 C 18.520 12.285,18.581 12.450,18.761 12.655 C 19.021 12.952,19.121 12.978,20.010 12.993 C 20.445 13.000,20.800 13.018,20.800 13.033 C 20.800 13.048,20.772 13.231,20.738 13.439 C 20.514 14.821,19.955 16.164,19.156 17.242 L 18.919 17.562 18.517 17.201 C 17.920 16.666,17.349 16.361,16.577 16.165 C 15.992 16.016,15.544 16.000,12.000 16.000 C 8.456 16.000,8.008 16.016,7.423 16.165 C 6.651 16.361,6.080 16.666,5.483 17.201 L 5.081 17.562 4.844 17.242 C 4.045 16.164,3.486 14.821,3.262 13.439 C 3.228 13.231,3.200 13.048,3.200 13.033 C 3.200 13.018,3.556 13.000,3.990 12.993 C 4.879 12.978,4.979 12.952,5.239 12.655 C 5.419 12.450,5.480 12.285,5.480 12.000 C 5.480 11.715,5.419 11.550,5.239 11.345 C 4.979 11.048,4.879 11.022,3.990 11.007 C 3.556 11.000,3.200 10.982,3.200 10.967 C 3.201 10.840,3.345 10.094,3.438 9.738 C 3.714 8.676,4.271 7.516,4.898 6.694 L 5.027 6.526 5.523 7.024 C 6.098 7.601,6.291 7.720,6.649 7.720 C 7.222 7.720,7.641 7.306,7.639 6.742 C 7.638 6.366,7.544 6.211,6.953 5.615 L 6.430 5.087 6.763 4.840 C 7.811 4.063,9.083 3.526,10.460 3.278 C 10.680 3.239,10.890 3.205,10.927 3.203 C 10.987 3.200,10.995 3.281,11.007 3.990 M12.400 11.083 C 12.642 11.193,12.791 11.340,12.905 11.580 C 13.216 12.238,12.730 12.999,12.000 12.999 C 11.446 12.999,11.002 12.555,11.002 12.000 C 11.002 11.751,11.106 11.483,11.272 11.305 C 11.541 11.018,12.039 10.920,12.400 11.083 M16.116 18.090 C 16.542 18.220,16.968 18.462,17.231 18.722 C 17.370 18.859,17.478 18.974,17.471 18.978 C 17.465 18.982,17.348 19.071,17.211 19.175 C 16.299 19.865,15.076 20.465,14.015 20.740 C 13.262 20.936,12.920 20.976,12.000 20.976 C 11.080 20.976,10.738 20.936,9.985 20.740 C 8.924 20.465,7.701 19.865,6.789 19.175 C 6.652 19.071,6.535 18.982,6.528 18.978 C 6.522 18.974,6.636 18.855,6.781 18.715 C 7.148 18.362,7.644 18.119,8.155 18.042 C 8.279 18.023,10.072 18.012,12.140 18.016 C 15.513 18.023,15.922 18.030,16.116 18.090" stroke="none" fill-rule="evenodd"/></svg>