<?xml version="1.0" encoding="UTF-8" standalone="no"?>
<svg xmlns:dc="http://purl.org/dc/elements/1.1/" xmlns:cc="http://creativecommons.org/ns#" xmlns:rdf="http://www.w3.org/1999/02/22-rdf-syntax-ns#" xmlns:svg="http://www.w3.org/2000/svg" xmlns="http://www.w3.org/2000/svg" xmlns:sodipodi="http://sodipodi.sourceforge.net/DTD/sodipodi-0.dtd" xmlns:inkscape="http://www.inkscape.org/namespaces/inkscape" version="1.1" id="Ebene_1" x="0px" y="0px" viewBox="0 0 110.80001 147.8" enable-background="new 0 0 240.9 154.5" xml:space="preserve" sodipodi:docname="icon_gray_question.svg" width="110.8" height="147.8" inkscape:version="0.92.4 (5da689c313, 2019-01-14)"><metadata id="metadata4577"><rdf:RDF><cc:Work rdf:about=""><dc:format>image/svg+xml</dc:format><dc:type rdf:resource="http://purl.org/dc/dcmitype/StillImage"/></cc:Work></rdf:RDF></metadata><defs id="defs4575"/><sodipodi:namedview pagecolor="#ffffff" bordercolor="#666666" borderopacity="1" objecttolerance="10" gridtolerance="10" guidetolerance="10" inkscape:pageopacity="0" inkscape:pageshadow="2" inkscape:window-width="1920" inkscape:window-height="1001" id="namedview4573" showgrid="false" inkscape:zoom="4" inkscape:cx="48.333511" inkscape:cy="82.790778" inkscape:window-x="-9" inkscape:window-y="-9" inkscape:window-maximized="1" inkscape:current-layer="Ebene_1"/><polyline points="96,126 145.8,126 121,150.9" id="polyline4564" style="fill:#010202" transform="translate(-65.5,-3.0999985)"/><circle cx="55.400002" cy="55.400002" r="55.400002" id="circle4566" style="fill:#aeb2b5"/><g enable-background="new" id="g4570" transform="translate(-65.5,-3.0999985)"><path d="m 113.6,77.1 c -0.3,-3.5 -0.2,-6.6 0.5,-9.2 0.6,-2.7 1.5,-5 2.5,-7 1.1,-2 2.3,-3.8 3.7,-5.4 1.4,-1.6 2.7,-3.2 3.9,-4.7 1.2,-1.5 2.2,-3.2 3.1,-5 0.8,-1.8 1.2,-3.7 1.2,-5.8 0,-2.7 -0.6,-4.8 -1.9,-6.3 -1.3,-1.5 -3.4,-2.4 -6.3,-2.4 -2,0 -4.1,0.4 -6.3,1.2 -2.2,0.8 -4.1,1.9 -5.7,3.3 l -5.4,-10.3 c 2.4,-1.8 5.2,-3.2 8.4,-4.5 3.2,-1.2 7.1,-1.8 11.7,-1.8 6.1,0 10.9,1.7 14.4,5 3.5,3.4 5.2,8 5.2,14.1 0,3.6 -0.5,6.6 -1.3,9.1 -0.8,2.5 -1.9,4.7 -3.2,6.6 -1.3,1.9 -2.7,3.6 -4.2,5.1 -1.5,1.5 -2.9,3.1 -4.1,4.8 -1.3,1.7 -2.4,3.6 -3.2,5.7 -0.9,2.1 -1.3,4.7 -1.3,7.7 -0.2,-0.2 -11.7,-0.2 -11.7,-0.2 z m -1.8,16.3 c 0,-2.8 0.8,-5 2.2,-6.4 1.5,-1.5 3.4,-2.2 5.9,-2.2 2.7,0 4.7,0.8 6.2,2.2 1.5,1.5 2.1,3.6 2.1,6.4 0,2.7 -0.8,4.9 -2.2,6.4 -1.5,1.5 -3.5,2.3 -6.1,2.3 -2.5,0 -4.5,-0.8 -6,-2.3 -1.4,-1.5 -2.1,-3.6 -2.1,-6.4 z" id="path4568" inkscape:connector-curvature="0" style="fill:#ffffff"/></g></svg>