<?xml version="1.0" encoding="UTF-8" standalone="no"?>
<svg xmlns="http://www.w3.org/2000/svg" width="24" height="24"><path d="M5.580 1.025 C 4.874 1.111,4.307 1.266,3.820 1.509 C 2.391 2.221,1.411 3.502,1.090 5.078 C 1.025 5.395,1.020 5.900,1.020 12.000 C 1.020 18.100,1.025 18.605,1.090 18.922 C 1.412 20.499,2.390 21.777,3.821 22.492 C 4.141 22.652,4.766 22.852,5.180 22.928 C 5.590 23.004,18.410 23.004,18.820 22.928 C 20.949 22.537,22.537 20.949,22.928 18.820 C 23.004 18.410,23.004 5.590,22.928 5.180 C 22.549 3.116,21.093 1.600,19.020 1.108 C 18.661 1.023,18.645 1.023,12.180 1.017 C 8.616 1.014,5.646 1.017,5.580 1.025 M18.860 3.114 C 19.851 3.446,20.582 4.184,20.886 5.160 L 20.980 5.460 20.980 12.000 L 20.980 18.540 20.886 18.840 C 20.578 19.827,19.827 20.578,18.840 20.886 L 18.540 20.980 12.000 20.980 L 5.460 20.980 5.160 20.886 C 4.173 20.578,3.422 19.827,3.114 18.840 L 3.020 18.540 3.020 12.000 L 3.020 5.460 3.114 5.160 C 3.453 4.074,4.349 3.260,5.443 3.043 C 5.541 3.024,8.519 3.011,12.100 3.014 L 18.580 3.020 18.860 3.114 M7.411 5.044 C 7.196 5.095,6.841 5.334,6.684 5.534 C 6.477 5.796,6.390 6.091,6.409 6.462 C 6.428 6.856,6.535 7.098,6.809 7.373 C 7.101 7.665,7.298 7.739,7.780 7.740 C 8.115 7.740,8.210 7.725,8.363 7.650 C 8.645 7.511,8.852 7.311,9.002 7.033 C 9.130 6.796,9.139 6.756,9.139 6.400 C 9.140 6.093,9.123 5.984,9.053 5.831 C 8.933 5.571,8.632 5.261,8.379 5.138 C 8.138 5.020,7.692 4.977,7.411 5.044 M15.190 5.054 C 15.108 5.085,15.000 5.137,14.950 5.170 C 14.721 5.323,12.288 7.429,12.194 7.556 C 11.857 8.014,11.997 8.671,12.497 8.979 C 12.671 9.086,12.729 9.100,12.997 9.100 C 13.366 9.100,13.475 9.043,14.058 8.542 C 14.276 8.354,14.470 8.200,14.488 8.200 C 14.505 8.200,14.520 9.775,14.520 11.700 C 14.520 13.625,14.513 15.200,14.504 15.200 C 14.495 15.200,14.285 15.028,14.037 14.817 C 13.471 14.336,13.339 14.266,13.000 14.265 C 12.248 14.262,11.790 15.018,12.124 15.709 C 12.191 15.848,12.483 16.116,13.574 17.045 C 14.325 17.684,14.994 18.237,15.060 18.273 C 15.226 18.364,15.775 18.364,15.940 18.273 C 16.006 18.236,16.675 17.684,17.426 17.045 C 18.880 15.808,18.929 15.755,18.984 15.358 C 19.036 14.974,18.827 14.573,18.474 14.380 C 18.299 14.285,18.213 14.264,18.000 14.265 C 17.663 14.266,17.514 14.344,16.990 14.793 C 16.764 14.986,16.558 15.158,16.530 15.174 C 16.490 15.199,16.480 14.494,16.480 11.702 C 16.480 9.776,16.495 8.200,16.512 8.200 C 16.530 8.200,16.724 8.354,16.942 8.542 C 17.525 9.043,17.634 9.100,18.003 9.100 C 18.271 9.100,18.329 9.086,18.503 8.979 C 19.003 8.671,19.143 8.014,18.806 7.556 C 18.670 7.371,16.151 5.222,15.943 5.113 C 15.743 5.009,15.387 4.981,15.190 5.054 M6.940 8.906 C 6.201 9.018,5.570 9.470,5.244 10.121 C 5.022 10.565,4.993 10.803,5.008 12.043 L 5.020 13.100 5.140 13.318 C 5.314 13.633,5.674 13.870,5.990 13.877 L 6.120 13.880 6.120 15.653 C 6.120 17.602,6.124 17.641,6.364 17.932 C 6.431 18.014,6.570 18.130,6.673 18.190 L 6.860 18.300 7.761 18.300 C 8.649 18.300,8.665 18.299,8.861 18.198 C 9.097 18.076,9.335 17.783,9.397 17.536 C 9.424 17.427,9.440 16.736,9.440 15.628 L 9.440 13.891 9.620 13.866 C 9.975 13.817,10.296 13.577,10.455 13.240 C 10.533 13.074,10.541 12.981,10.553 12.060 C 10.568 10.969,10.532 10.600,10.378 10.253 C 10.117 9.662,9.596 9.185,9.003 8.994 C 8.776 8.921,8.626 8.908,7.900 8.898 C 7.438 8.892,7.006 8.895,6.940 8.906" stroke="none" fill-rule="evenodd"/></svg>