<?xml version="1.0" encoding="UTF-8" standalone="no"?>
<svg xmlns="http://www.w3.org/2000/svg" width="24" height="24"><path d="M9.864 1.063 C 9.635 1.147,9.457 1.297,9.331 1.511 C 9.236 1.672,9.220 1.744,9.220 2.000 C 9.220 2.344,9.260 2.431,9.620 2.876 L 9.840 3.149 9.840 4.084 C 9.841 5.484,9.917 6.125,10.162 6.790 C 10.618 8.030,11.610 8.990,12.919 9.458 C 13.541 9.680,14.313 9.775,15.030 9.717 C 15.726 9.661,16.259 9.515,16.864 9.215 C 18.208 8.547,19.098 7.286,19.302 5.760 C 19.339 5.487,19.359 4.957,19.359 4.249 L 19.360 3.158 19.633 2.820 C 19.988 2.381,20.073 2.084,19.960 1.677 C 19.908 1.490,19.673 1.219,19.466 1.109 L 19.300 1.020 14.660 1.012 C 10.706 1.006,9.997 1.013,9.864 1.063 M17.350 4.710 C 17.331 5.702,17.302 5.872,17.073 6.357 C 16.895 6.733,16.369 7.247,15.960 7.445 C 15.498 7.668,15.180 7.736,14.600 7.737 C 14.009 7.737,13.735 7.676,13.241 7.434 C 12.787 7.211,12.357 6.789,12.147 6.359 C 11.903 5.859,11.871 5.682,11.850 4.690 L 11.831 3.800 14.599 3.800 L 17.368 3.800 17.350 4.710 M4.063 6.687 C 3.954 6.707,3.738 6.784,3.583 6.856 C 2.858 7.194,2.365 7.781,2.113 8.607 C 2.024 8.897,2.023 8.928,2.008 11.940 C 1.993 15.180,1.995 15.240,2.189 15.860 C 2.501 16.857,3.157 17.579,4.027 17.884 C 4.984 18.218,6.287 18.122,7.818 17.601 C 8.014 17.535,8.180 17.480,8.186 17.480 C 8.192 17.480,8.202 18.547,8.208 19.850 C 8.220 22.159,8.222 22.225,8.304 22.400 C 8.402 22.610,8.592 22.807,8.796 22.908 C 8.932 22.976,9.243 22.981,14.518 22.991 C 20.811 23.002,20.370 23.023,20.696 22.697 C 21.014 22.380,21.000 22.557,21.000 18.731 C 21.000 16.649,20.984 15.208,20.958 14.968 C 20.748 13.022,19.426 11.383,17.567 10.764 C 16.856 10.527,16.747 10.520,13.600 10.522 L 10.740 10.523 9.020 11.253 L 7.300 11.982 7.276 10.481 C 7.248 8.794,7.225 8.630,6.931 8.040 C 6.742 7.660,6.220 7.122,5.853 6.928 C 5.363 6.671,4.650 6.574,4.063 6.687 M4.920 8.700 C 4.984 8.733,5.087 8.846,5.148 8.950 L 5.260 9.140 5.280 11.480 C 5.302 14.105,5.281 13.923,5.610 14.227 C 5.831 14.430,6.018 14.494,6.334 14.472 C 6.546 14.457,6.903 14.318,8.918 13.465 L 11.257 12.475 13.858 12.490 C 16.366 12.504,16.471 12.507,16.766 12.589 C 17.096 12.681,17.573 12.904,17.553 12.956 C 17.546 12.973,15.893 14.502,13.880 16.352 L 10.220 19.716 10.200 17.708 C 10.180 15.737,10.178 15.697,10.092 15.536 C 9.908 15.191,9.496 14.968,9.125 15.012 C 9.023 15.024,8.674 15.143,8.348 15.275 C 6.220 16.144,4.864 16.320,4.372 15.793 C 4.323 15.741,4.224 15.573,4.152 15.419 L 4.020 15.140 4.020 12.140 C 4.020 9.176,4.021 9.138,4.103 8.980 C 4.264 8.673,4.627 8.548,4.920 8.700 M18.937 14.888 C 18.991 15.152,19.000 15.612,19.000 18.098 L 19.000 21.000 15.391 21.000 C 12.243 21.000,11.790 20.993,11.841 20.942 C 12.341 20.449,18.828 14.532,18.847 14.552 C 18.862 14.567,18.902 14.719,18.937 14.888" stroke="none" fill-rule="evenodd"/></svg>