<?xml version="1.0" encoding="UTF-8" standalone="no"?>
<svg xmlns="http://www.w3.org/2000/svg" width="24" height="24"><path d="M11.765 4.279 C 11.506 4.342,11.266 4.598,11.217 4.864 C 11.145 5.245,11.401 5.633,11.783 5.722 C 11.869 5.742,12.318 5.759,12.780 5.760 L 13.620 5.761 14.315 7.231 C 14.698 8.039,15.013 8.712,15.015 8.726 C 15.018 8.740,14.337 9.825,13.503 11.137 L 11.986 13.524 11.917 13.412 C 11.878 13.350,11.233 12.241,10.484 10.946 L 9.120 8.592 9.120 8.256 L 9.120 7.920 9.930 7.920 C 10.376 7.920,10.807 7.901,10.889 7.878 C 11.186 7.796,11.437 7.472,11.439 7.169 C 11.441 6.907,11.266 6.622,11.020 6.486 C 10.914 6.428,10.681 6.419,9.045 6.408 C 7.814 6.400,7.121 6.410,6.987 6.439 C 6.504 6.543,6.242 7.001,6.422 7.431 C 6.564 7.770,6.767 7.885,7.270 7.912 L 7.640 7.931 7.639 8.255 L 7.638 8.580 7.089 9.640 C 6.469 10.837,6.580 10.732,6.040 10.641 C 5.641 10.573,4.841 10.610,4.415 10.716 C 3.200 11.017,2.198 11.825,1.660 12.937 C 1.055 14.186,1.151 15.679,1.911 16.860 C 2.289 17.449,3.014 18.070,3.661 18.361 C 4.967 18.947,6.531 18.835,7.729 18.069 C 8.478 17.590,9.112 16.779,9.385 15.952 L 9.460 15.724 10.823 15.712 L 12.186 15.700 12.346 15.594 C 12.480 15.505,12.777 15.062,14.138 12.920 C 15.035 11.508,15.784 10.368,15.802 10.387 C 15.820 10.405,15.925 10.613,16.035 10.849 L 16.236 11.279 16.008 11.454 C 14.217 12.832,13.877 15.297,15.228 17.097 C 16.545 18.851,19.093 19.260,20.947 18.014 C 21.950 17.340,22.603 16.241,22.716 15.038 C 22.879 13.296,21.895 11.652,20.269 10.951 C 19.692 10.702,19.315 10.626,18.640 10.623 C 18.321 10.621,17.959 10.634,17.836 10.652 L 17.613 10.684 16.181 7.672 C 15.393 6.015,14.714 4.610,14.671 4.549 C 14.628 4.488,14.518 4.398,14.427 4.349 C 14.266 4.263,14.216 4.260,13.080 4.253 C 12.431 4.249,11.839 4.260,11.765 4.279 M9.596 12.391 C 10.170 13.383,10.640 14.205,10.640 14.218 C 10.640 14.232,10.403 14.237,10.114 14.231 L 9.588 14.220 9.518 13.880 C 9.361 13.128,9.051 12.515,8.550 11.968 C 8.387 11.790,8.096 11.523,7.965 11.432 L 7.871 11.366 8.140 10.859 L 8.408 10.353 8.480 10.471 C 8.520 10.535,9.022 11.400,9.596 12.391 M5.775 12.112 C 5.786 12.129,5.496 12.718,5.131 13.422 C 4.585 14.476,4.465 14.736,4.449 14.908 C 4.424 15.183,4.547 15.444,4.772 15.593 L 4.934 15.700 6.406 15.720 L 7.878 15.740 7.754 15.960 C 7.563 16.298,7.077 16.749,6.692 16.946 C 6.235 17.181,5.864 17.256,5.284 17.230 C 4.517 17.196,4.075 17.000,3.515 16.443 C 2.975 15.906,2.762 15.401,2.761 14.658 C 2.759 13.954,2.986 13.412,3.496 12.898 C 3.932 12.459,4.387 12.216,4.951 12.121 C 5.204 12.079,5.750 12.072,5.775 12.112 M19.380 12.201 C 19.821 12.336,20.145 12.537,20.504 12.898 C 21.014 13.412,21.241 13.954,21.239 14.658 C 21.238 15.413,21.026 15.907,20.465 16.461 C 19.917 17.002,19.476 17.196,18.716 17.230 C 17.850 17.268,17.231 17.037,16.659 16.463 C 15.631 15.430,15.623 13.901,16.640 12.890 C 16.756 12.775,16.864 12.680,16.879 12.680 C 16.894 12.680,17.173 13.242,17.499 13.930 C 17.825 14.617,18.139 15.257,18.196 15.351 C 18.331 15.573,18.647 15.740,18.875 15.710 C 19.272 15.657,19.520 15.403,19.552 15.019 C 19.569 14.807,19.554 14.768,18.945 13.484 C 18.601 12.759,18.320 12.144,18.320 12.117 C 18.320 12.041,19.044 12.099,19.380 12.201 M7.532 13.075 C 7.637 13.197,7.777 13.406,7.843 13.540 C 7.970 13.799,8.086 14.180,8.049 14.218 C 8.037 14.230,7.670 14.240,7.233 14.240 C 6.662 14.240,6.440 14.227,6.440 14.194 C 6.440 14.169,6.605 13.828,6.808 13.438 C 7.228 12.626,7.168 12.656,7.532 13.075" stroke="none" fill-rule="evenodd"/></svg>