<?xml version="1.0" encoding="utf-8"?>\x3c!--Generator: Adobe Illustrator 25.1.0, SVG Export Plug-In . SVG Version: 6.00 Build 0)--\x3e<svg version="1.1" id="Ebene_1" xmlns="http://www.w3.org/2000/svg" xmlns:xlink="http://www.w3.org/1999/xlink" x="0px" y="0px" viewBox="0 0 277 267.5" style="enable-background:new 0 0 277 267.5;" xml:space="preserve"><style type="text/css">.st0{opacity:0.18;} \t.st1{fill:#009157;} \t.st2{fill:#2C426D;} \t.st3{fill-rule:evenodd;clip-rule:evenodd;fill:#FFFFFF;stroke:#FFFFFF;stroke-width:0.1495863;stroke-miterlimit:10;} \t.st4{fill-rule:evenodd;clip-rule:evenodd;fill:#009157;}</style><polygon class="st0" points="277,165 162.8981628,165 59.25,237 183,237"/><polygon class="st0" points="82.5,267.3995056 130,245 77,245"/><path class="st1" d="M150,210H15c-8.2842712,0-15-6.7157288-15-15V15C0,6.7157288,6.7157288,0,15,0h135 c8.2842712,0,15,6.7157288,15,15v180C165,203.2842712,158.2842712,210,150,210z"/><path class="st2" d="M165,80V15c0-8.2843018-6.7157593-15-15-15H15C6.7156982,0,0,6.7156982,0,15v65H165z"/><polygon class="st2" points="112.8108902,215 82.5,267.5 52.1891098,215"/><g><path class="st3" d="M82.5374603,121.7648163c0.0500717,0,6.9807739-9.4239426,18.1998749-9.473938 c16.254837,0,23.3353348,14.1109695,23.3353348,23.1858826c-0.1494522,28.1224976-41.1862411,52.0063019-41.3854141,52.1060333 c-0.2495193,0.1494446-42.4326477-25.7787933-40.3384361-53.2527313 c0.548481-7.1302109,6.5817261-21.1914673,22.7371178-21.6902237 C78.7978821,112.2411499,82.4377365,121.7648163,82.5374603,121.7648163z"/><polygon class="st4" points="92.2605743,123.9086761 68.6757278,151.831665 82.4377365,151.7815857 72.6148376,173.471817 96.1996765,145.1998596 82.4377365,145.249939"/><polygon class="st3" points="145.3137817,95.6867218 135.1919556,95.6867218 135.1919556,85.564949 125.1198959,85.564949 125.1198959,95.6867218 114.9977875,95.6867218 114.9977875,105.808876 125.1198959,105.808876 125.1198959,115.9310303 135.1919556,115.9310303 135.1919556,105.808876 145.3137817,105.808876"/></g></svg>