<?xml version="1.0" encoding="UTF-8" standalone="no"?>
<svg xmlns="http://www.w3.org/2000/svg" width="24" height="24"><path d="M11.069 1.039 C 8.822 1.258,6.868 2.041,5.101 3.432 C 4.640 3.795,3.606 4.863,3.231 5.363 C 2.075 6.906,1.379 8.590,1.093 10.540 C 0.995 11.212,0.995 12.788,1.093 13.460 C 1.379 15.409,2.074 17.091,3.230 18.637 C 3.685 19.244,4.756 20.315,5.363 20.770 C 6.909 21.926,8.591 22.621,10.540 22.907 C 11.212 23.005,12.788 23.005,13.460 22.907 C 15.409 22.621,17.091 21.926,18.637 20.770 C 19.244 20.315,20.315 19.244,20.770 18.637 C 21.926 17.091,22.621 15.409,22.907 13.460 C 22.959 13.104,22.977 12.727,22.977 12.000 C 22.977 11.273,22.959 10.896,22.907 10.540 C 22.621 8.590,21.925 6.906,20.769 5.363 C 20.394 4.863,19.360 3.795,18.899 3.432 C 17.302 2.175,15.548 1.412,13.580 1.120 C 12.946 1.026,11.638 0.984,11.069 1.039 M13.320 3.101 C 14.269 3.244,15.066 3.494,15.944 3.923 C 18.627 5.233,20.448 7.726,20.906 10.720 C 21.003 11.354,21.003 12.646,20.906 13.280 C 20.506 15.891,19.079 18.117,16.880 19.560 C 16.071 20.090,14.874 20.589,13.908 20.797 C 9.860 21.669,5.722 19.656,3.920 15.940 C 3.280 14.621,3.023 13.493,3.023 12.000 C 3.023 10.507,3.280 9.379,3.920 8.060 C 4.794 6.256,6.247 4.803,8.060 3.918 C 9.091 3.415,10.026 3.160,11.340 3.024 C 11.662 2.991,12.911 3.039,13.320 3.101 M6.643 6.069 C 6.291 6.193,6.000 6.614,6.000 7.000 C 6.000 7.080,6.029 7.234,6.065 7.343 C 6.124 7.521,6.343 7.753,8.354 9.770 L 10.578 12.000 8.353 14.230 C 6.207 16.380,6.125 16.468,6.063 16.677 C 5.984 16.948,5.984 17.013,6.064 17.283 C 6.153 17.581,6.419 17.847,6.717 17.936 C 6.987 18.016,7.052 18.016,7.323 17.937 C 7.532 17.875,7.620 17.793,9.770 15.647 L 12.000 13.422 14.230 15.647 C 16.380 17.793,16.468 17.875,16.677 17.937 C 16.948 18.016,17.013 18.016,17.283 17.936 C 17.581 17.847,17.847 17.581,17.936 17.283 C 18.016 17.013,18.016 16.948,17.937 16.677 C 17.875 16.468,17.793 16.380,15.647 14.230 L 13.421 12.000 15.629 9.790 C 17.311 8.106,17.856 7.537,17.917 7.400 C 18.022 7.168,18.025 6.799,17.925 6.578 C 17.834 6.377,17.518 6.094,17.325 6.041 C 17.095 5.977,16.797 5.994,16.600 6.083 C 16.463 6.144,15.894 6.689,14.210 8.371 L 12.000 10.579 9.770 8.354 C 7.753 6.343,7.521 6.124,7.343 6.065 C 7.101 5.985,6.876 5.986,6.643 6.069" stroke="none" fill-rule="evenodd"/></svg>