<?xml version="1.0" encoding="UTF-8" standalone="no"?>
<svg xmlns="http://www.w3.org/2000/svg" width="24" height="24"><path d="M14.960 2.044 C 14.861 2.063,14.648 2.144,14.486 2.224 C 13.632 2.644,13.182 3.640,13.423 4.574 C 13.666 5.516,14.592 6.192,15.522 6.105 C 16.222 6.040,16.845 5.617,17.155 4.996 C 17.570 4.167,17.421 3.252,16.764 2.596 C 16.278 2.111,15.632 1.913,14.960 2.044 M11.360 5.654 C 10.915 5.751,10.809 5.833,9.766 6.895 C 7.415 9.288,7.377 9.329,7.245 9.590 C 7.006 10.063,6.945 10.562,7.062 11.077 C 7.177 11.582,7.235 11.646,9.040 13.258 C 10.094 14.199,10.726 14.792,10.770 14.880 C 10.834 15.008,10.840 15.201,10.840 17.120 L 10.841 19.220 10.935 19.422 C 11.085 19.745,11.376 19.951,11.735 19.988 C 12.157 20.031,12.537 19.823,12.730 19.443 L 12.840 19.226 12.839 16.503 C 12.838 13.943,12.834 13.770,12.764 13.618 C 12.720 13.520,12.281 13.018,11.666 12.361 L 10.641 11.267 10.827 11.063 C 10.929 10.952,11.472 10.397,12.033 9.831 L 13.054 8.802 13.778 9.511 C 14.176 9.901,14.645 10.321,14.821 10.445 C 15.733 11.088,16.685 11.488,17.726 11.664 C 18.214 11.747,18.412 11.714,18.657 11.512 C 18.894 11.317,18.979 11.113,18.979 10.740 C 18.979 10.365,18.901 10.180,18.645 9.950 C 18.425 9.750,18.317 9.701,17.837 9.579 C 17.119 9.398,16.611 9.164,16.060 8.763 C 15.906 8.651,15.204 7.987,14.500 7.287 C 13.310 6.104,13.199 6.004,12.915 5.866 C 12.407 5.619,11.863 5.545,11.360 5.654 M4.900 13.045 C 2.533 13.341,0.776 15.573,1.034 17.955 C 1.338 20.754,4.056 22.591,6.749 21.817 C 8.821 21.222,10.197 19.179,9.966 17.045 C 9.690 14.503,7.442 12.728,4.900 13.045 M17.900 13.045 C 15.533 13.341,13.776 15.573,14.034 17.955 C 14.338 20.754,17.056 22.591,19.749 21.817 C 21.821 21.222,23.197 19.179,22.966 17.045 C 22.690 14.503,20.442 12.728,17.900 13.045 M6.096 15.079 C 7.005 15.312,7.688 15.995,7.921 16.904 C 8.259 18.224,7.440 19.577,6.096 19.921 C 4.300 20.380,2.620 18.700,3.079 16.904 C 3.423 15.560,4.776 14.741,6.096 15.079 M19.096 15.079 C 20.005 15.312,20.688 15.995,20.921 16.904 C 21.259 18.224,20.440 19.577,19.096 19.921 C 17.776 20.259,16.423 19.440,16.079 18.096 C 15.620 16.300,17.300 14.620,19.096 15.079" stroke="none" fill-rule="evenodd"/></svg>