<?xml version="1.0" encoding="UTF-8" standalone="no"?>
<svg version="1.0" xmlns="http://www.w3.org/2000/svg" width="300.000000pt" height="369.000000pt" viewBox="0 0 300.000000 369.000000" preserveAspectRatio="xMidYMid meet"><g transform="translate(0.000000,369.000000) scale(0.100000,-0.100000)" fill="#000000" stroke="none"><path d="M214 2329 c-50 -4 -107 -14 -126 -23 -49 -23 -72 -80 -72 -176 0 -64 4 -82 28 -123 16 -27 35 -51 42 -54 8 -3 14 -12 14 -20 0 -11 6 -12 23 -6 26 9 1427 8 1890 -2 l328 -7 -6 -397 c-3 -218 -8 -433 -11 -478 l-6 -82 -31 -6 c-62 -11 -1677 16 -1866 31 l-83 7 8 336 c13 487 12 583 -5 589 -10 3 -12 -3 -9 -29 3 -19 1 -173 -4 -344 -5 -170 -10 -363 -11 -429 l-2 -118 -42 -2 c-24 -1 -45 -5 -49 -8 -8 -9 7 -98 17 -98 5 0 9 18 9 40 l0 40 73 -5 c39 -2 283 -8 540 -14 258 -6 472 -13 477 -16 16 -10 1030 -6 1049 4 16 9 19 6 25 -27 3 -20 6 -42 6 -48 0 -14 -1184 -8 -1253 6 -26 6 -143 10 -260 10 -117 1 -309 5 -427 10 -194 8 -249 6 -212 -7 18 -7 15 -44 -8 -97 -25 -56 -59 -206 -60 -262 0 -26 7 -47 20 -61 21 -23 105 -45 138 -36 21 5 22 2 22 -56 0 -155 146 -302 331 -333 75 -12 140 2 238 52 113 57 201 194 188 292 -5 37 -4 39 16 34 12 -3 68 -8 124 -12 l101 -7 6 -30 c3 -16 6 -42 6 -57 0 -40 47 -126 97 -176 77 -76 240 -136 323 -118 113 25 246 107 271 166 6 16 15 28 19 28 12 0 40 77 40 109 0 53 5 56 76 53 67 -4 185 19 215 41 21 16 49 71 49 96 0 20 6 20 238 18 151 -1 238 2 240 8 1 6 -86 12 -239 15 l-242 5 -13 50 c-7 28 -13 50 -14 50 0 0 98 0 218 0 119 -1 238 -5 264 -9 40 -7 49 -6 54 8 4 9 4 20 0 23 -3 3 -118 5 -255 4 -268 -2 -301 1 -301 28 0 10 -3 21 -7 25 -7 7 -33 75 -33 88 0 4 12 8 28 10 25 3 27 6 24 40 -2 20 -7 50 -11 65 -7 25 -12 28 -45 26 l-38 -3 6 358 c4 196 9 412 12 480 l6 122 74 0 c43 0 74 4 74 10 0 6 6 10 14 10 39 0 96 163 78 222 -6 18 -13 45 -16 60 -8 38 -101 88 -186 100 -77 11 -2063 18 -2196 7z m1671 -19 c220 -1 438 -6 485 -12 94 -11 184 -48 202 -82 6 -12 12 -50 12 -86 1 -72 -28 -145 -67 -169 -32 -20 -240 -25 -512 -12 -251 12 -1752 16 -1846 5 -59 -7 -52 -13 -96 76 -27 54 -29 116 -7 189 13 45 21 55 51 67 56 24 220 29 818 27 308 -1 740 -3 960 -3z m-1135 -1451 c146 0 301 -4 345 -9 103 -12 425 -19 895 -20 l375 0 12 -49 c6 -28 24 -78 38 -113 34 -83 43 -164 21 -205 -21 -41 -93 -63 -210 -63 -85 0 -86 0 -92 28 -13 62 -58 154 -83 170 -14 9 -29 22 -33 28 -12 18 -77 49 -130 62 -27 7 -68 17 -93 23 -72 18 -226 -21 -285 -73 -34 -29 -99 -128 -111 -166 l-12 -42 -91 0 c-104 0 -165 14 -173 38 -45 141 -119 210 -258 242 -28 7 -65 16 -83 22 -52 15 -179 -12 -249 -54 -39 -23 -126 -140 -142 -190 -11 -33 -16 -38 -44 -38 -55 0 -107 20 -118 44 -12 26 28 224 61 302 11 25 20 53 20 61 0 13 12 15 88 9 48 -4 206 -7 352 -7z m112 -174 c74 -19 134 -57 160 -101 11 -18 24 -34 30 -34 23 0 52 -95 52 -175 1 -76 -1 -83 -36 -135 -50 -76 -82 -104 -163 -142 -61 -29 -80 -33 -150 -33 -69 0 -89 4 -146 31 -128 61 -199 162 -202 288 -2 60 2 80 26 129 45 91 108 148 192 175 77 24 138 24 237 -3z m971 -10 c89 -19 151 -50 185 -94 14 -20 34 -43 43 -51 47 -42 72 -214 39 -271 -63 -110 -126 -163 -238 -200 -86 -29 -156 -23 -246 19 -126 59 -206 172 -206 290 1 72 16 114 68 188 46 66 78 88 161 115 69 22 106 23 194 4z"/><path d="M683 488 c-127 -75 -71 -268 78 -268 40 0 55 6 86 33 54 46 62 58 63 93 1 87 -58 146 -149 151 -33 2 -65 -2 -78 -9z m115 -29 c2 -5 12 -9 21 -9 23 0 45 -26 59 -68 14 -41 -1 -76 -47 -110 -43 -31 -82 -37 -119 -18 -90 47 -98 164 -13 211 27 15 93 11 99 -6z"/><path d="M1661 441 c-40 -40 -48 -64 -41 -125 3 -32 43 -84 78 -100 68 -33 134 -16 191 49 35 40 38 67 16 123 -23 57 -67 86 -141 90 -61 4 -62 4 -103 -37z m149 0 c3 -5 15 -11 28 -15 27 -9 52 -54 52 -94 0 -36 -62 -96 -108 -107 -52 -11 -123 41 -138 102 -8 32 12 78 49 109 26 22 37 25 71 20 22 -4 43 -11 46 -15z"/><path d="M734 1752 l-101 -3 -6 -62 c-4 -34 -9 -150 -13 -258 l-7 -196 154 -5 c85 -3 228 -2 318 1 l163 6 -3 120 c-5 210 -4 279 3 320 13 69 12 69 -209 75 -109 3 -244 4 -299 2z m478 -32 c2 -3 2 -107 0 -231 l-4 -226 -96 -6 c-53 -4 -183 -7 -288 -7 l-190 0 3 143 c4 147 18 311 28 326 5 9 541 10 547 1z"/><path d="M1456 1698 c-8 -56 -26 -459 -21 -468 8 -12 238 -19 436 -13 l194 6 -1 249 c0 206 -3 251 -15 259 -7 5 -143 9 -300 9 l-286 0 -7 -42z m559 14 c19 -2 20 -10 21 -231 l2 -228 -106 -7 c-58 -3 -188 -6 -289 -6 l-183 0 1 78 c0 113 16 365 23 382 5 13 43 15 259 14 138 0 261 -2 272 -2z"/></g></svg>