<?xml version="1.0" encoding="UTF-8" standalone="no"?>
<svg xmlns="http://www.w3.org/2000/svg" width="24" height="24"><path d="M9.800 1.292 C 9.559 1.360,9.215 1.561,8.866 1.838 C 8.211 2.358,7.722 3.073,7.404 3.976 C 7.143 4.715,6.969 5.963,7.021 6.720 L 7.048 7.100 6.674 7.662 C 5.511 9.408,4.316 12.240,2.227 18.200 C 1.930 19.047,1.585 20.019,1.460 20.360 C 1.210 21.039,1.192 21.223,1.344 21.543 C 1.635 22.156,2.461 22.301,2.938 21.825 C 3.145 21.617,3.194 21.495,4.039 19.080 C 6.326 12.543,7.692 9.394,8.752 8.220 C 8.964 7.984,9.080 7.744,9.084 7.533 C 9.085 7.449,9.074 7.038,9.059 6.620 C 9.029 5.772,9.077 5.329,9.263 4.738 C 9.363 4.422,9.600 3.940,9.657 3.940 C 9.673 3.940,10.009 4.696,10.405 5.620 C 10.801 6.544,11.175 7.363,11.236 7.440 C 11.424 7.674,11.661 7.768,12.170 7.809 C 12.999 7.878,13.949 8.195,14.547 8.604 C 14.962 8.887,15.358 9.323,15.617 9.780 C 15.680 9.890,15.778 10.031,15.835 10.094 C 15.902 10.167,16.726 10.602,18.132 11.305 L 20.324 12.402 20.132 12.648 C 19.663 13.250,18.943 13.862,18.411 14.112 C 18.181 14.220,18.176 14.220,17.300 14.216 C 15.813 14.210,14.631 14.036,13.660 13.680 C 13.249 13.529,12.840 13.628,12.561 13.945 C 12.270 14.277,12.235 14.618,12.436 15.155 C 13.368 17.640,14.140 20.399,14.235 21.586 C 14.275 22.073,14.343 22.255,14.566 22.466 C 14.847 22.730,15.168 22.810,15.524 22.706 C 15.807 22.623,16.010 22.450,16.143 22.177 C 16.248 21.963,16.251 21.940,16.228 21.468 C 16.183 20.515,15.796 18.900,15.083 16.681 C 14.974 16.341,14.889 16.058,14.894 16.052 C 14.900 16.047,15.120 16.068,15.382 16.100 C 16.612 16.248,17.985 16.284,18.477 16.181 C 19.730 15.917,21.152 14.785,22.171 13.240 C 22.622 12.557,22.737 12.306,22.738 12.000 C 22.739 11.786,22.718 11.702,22.621 11.526 C 22.552 11.402,22.436 11.266,22.342 11.201 C 22.253 11.140,21.080 10.540,19.735 9.867 L 17.290 8.645 17.059 8.312 C 16.739 7.851,16.142 7.271,15.659 6.950 C 14.926 6.463,13.990 6.079,13.194 5.938 C 12.988 5.901,12.784 5.857,12.740 5.840 C 12.681 5.817,12.438 5.289,11.800 3.797 C 11.327 2.690,10.891 1.716,10.830 1.633 C 10.624 1.348,10.157 1.193,9.800 1.292" stroke="none" fill-rule="evenodd"/></svg>