<?xml version="1.0" encoding="UTF-8" standalone="no"?>
<svg xmlns="http://www.w3.org/2000/svg" width="24" height="24"><path d="M9.900 1.025 C 9.517 1.058,9.122 1.135,8.889 1.223 C 8.133 1.507,7.420 2.248,7.183 2.997 C 7.035 3.468,7.000 3.948,7.000 5.534 L 7.000 6.992 5.310 7.012 C 3.528 7.033,3.312 7.053,2.845 7.238 C 2.113 7.527,1.414 8.268,1.183 8.997 C 1.130 9.166,1.067 9.479,1.043 9.691 C 0.984 10.223,0.984 19.777,1.043 20.309 C 1.151 21.274,1.593 21.999,2.395 22.526 C 2.750 22.760,3.169 22.899,3.691 22.957 C 4.223 23.016,13.777 23.016,14.309 22.957 C 14.521 22.933,14.834 22.870,15.003 22.817 C 15.791 22.568,16.568 21.791,16.817 21.003 C 16.965 20.532,17.000 20.052,17.000 18.462 L 17.000 17.000 18.462 17.000 C 20.052 17.000,20.532 16.965,21.003 16.817 C 21.791 16.568,22.568 15.791,22.817 15.003 C 22.870 14.834,22.933 14.521,22.957 14.309 C 23.016 13.777,23.016 4.223,22.957 3.691 C 22.899 3.169,22.760 2.750,22.526 2.395 C 22.072 1.705,21.448 1.268,20.660 1.089 C 20.413 1.033,19.768 1.025,15.220 1.019 C 12.382 1.015,9.988 1.018,9.900 1.025 M20.374 3.074 C 20.586 3.145,20.863 3.432,20.928 3.646 C 21.002 3.892,21.005 14.098,20.931 14.340 C 20.863 14.562,20.675 14.776,20.450 14.886 C 20.262 14.979,20.246 14.980,18.630 14.993 L 17.000 15.006 17.000 12.541 C 17.000 9.919,16.979 9.510,16.817 8.997 C 16.586 8.268,15.887 7.527,15.155 7.238 C 14.647 7.037,14.558 7.031,11.690 7.012 L 9.000 6.993 9.001 5.587 C 9.002 4.813,9.020 4.046,9.041 3.882 C 9.107 3.375,9.364 3.106,9.845 3.043 C 9.985 3.024,12.377 3.012,15.160 3.016 C 19.179 3.021,20.252 3.033,20.374 3.074 M14.374 9.074 C 14.586 9.145,14.863 9.432,14.928 9.646 C 15.005 9.902,15.005 20.098,14.928 20.354 C 14.863 20.567,14.591 20.849,14.376 20.925 C 14.144 21.007,3.856 21.007,3.624 20.925 C 3.422 20.854,3.140 20.571,3.074 20.374 C 3.007 20.174,2.973 10.454,3.038 9.923 C 3.105 9.374,3.348 9.108,3.845 9.043 C 3.985 9.024,6.377 9.012,9.160 9.016 C 13.179 9.021,14.252 9.033,14.374 9.074" stroke="none" fill-rule="evenodd"/></svg>