<?xml version="1.0" encoding="UTF-8" standalone="no"?>
<svg xmlns="http://www.w3.org/2000/svg" width="24" height="24"><path d="M11.069 1.039 C 8.822 1.258,6.868 2.041,5.101 3.432 C 4.640 3.795,3.606 4.863,3.231 5.363 C 2.075 6.906,1.379 8.590,1.093 10.540 C 0.995 11.212,0.995 12.788,1.093 13.460 C 1.379 15.409,2.074 17.091,3.230 18.637 C 3.685 19.244,4.756 20.315,5.363 20.770 C 6.909 21.926,8.591 22.621,10.540 22.907 C 11.212 23.005,12.788 23.005,13.460 22.907 C 15.409 22.621,17.091 21.926,18.637 20.770 C 19.244 20.315,20.315 19.244,20.770 18.637 C 21.926 17.091,22.621 15.409,22.907 13.460 C 22.959 13.104,22.977 12.727,22.977 12.000 C 22.977 11.273,22.959 10.896,22.907 10.540 C 22.621 8.590,21.925 6.906,20.769 5.363 C 20.394 4.863,19.360 3.795,18.899 3.432 C 17.302 2.175,15.548 1.412,13.580 1.120 C 12.946 1.026,11.638 0.984,11.069 1.039 M12.460 6.042 C 13.436 6.181,14.147 6.538,14.841 7.236 C 15.560 7.960,15.931 8.777,15.988 9.760 C 16.077 11.308,15.144 12.564,13.169 13.555 C 12.664 13.809,12.119 14.000,11.900 14.000 C 11.195 14.000,10.713 13.226,11.015 12.577 C 11.135 12.320,11.330 12.159,11.693 12.020 C 12.427 11.739,13.304 11.197,13.623 10.827 C 13.804 10.617,13.951 10.333,13.983 10.128 C 14.020 9.899,13.933 9.447,13.796 9.159 C 13.640 8.827,13.189 8.377,12.860 8.224 C 12.145 7.890,11.327 7.951,10.695 8.385 C 10.376 8.604,10.191 8.831,9.980 9.262 C 9.774 9.683,9.618 9.841,9.306 9.945 C 8.637 10.167,7.930 9.602,8.009 8.910 C 8.054 8.520,8.450 7.785,8.863 7.325 C 9.277 6.864,10.042 6.394,10.721 6.183 C 11.268 6.012,11.898 5.961,12.460 6.042 M12.249 16.042 C 12.477 16.105,12.723 16.316,12.848 16.555 C 13.211 17.249,12.642 18.068,11.855 17.988 C 11.154 17.916,10.751 17.183,11.070 16.559 C 11.297 16.116,11.769 15.909,12.249 16.042" stroke="none" fill-rule="evenodd"/></svg>