<?xml version="1.0" encoding="UTF-8" standalone="no"?>
<svg xmlns="http://www.w3.org/2000/svg" width="24" height="24"><path d="M5.820 1.622 C 5.509 1.691,5.061 1.888,4.770 2.085 C 4.492 2.273,2.992 3.768,2.718 4.130 C 2.319 4.658,2.059 5.323,1.958 6.080 C 1.872 6.715,1.988 7.375,2.421 8.720 C 3.905 13.332,7.043 17.269,11.258 19.808 C 12.263 20.413,13.499 21.000,14.703 21.442 C 15.424 21.708,16.658 22.061,17.077 22.122 C 17.993 22.256,19.130 21.971,19.913 21.412 C 20.224 21.190,21.274 20.177,21.729 19.660 C 22.275 19.039,22.521 18.411,22.519 17.637 C 22.518 16.995,22.392 16.561,22.049 16.023 C 21.849 15.709,20.700 14.517,20.250 14.156 C 19.704 13.719,19.120 13.517,18.397 13.516 C 17.489 13.514,16.843 13.804,16.121 14.537 C 15.957 14.703,15.794 14.840,15.760 14.840 C 15.727 14.840,15.447 14.703,15.139 14.535 C 12.706 13.210,10.780 11.264,9.511 8.849 L 9.232 8.318 9.587 7.947 C 9.782 7.744,10.009 7.474,10.093 7.348 C 10.752 6.355,10.759 5.075,10.110 4.069 C 9.926 3.783,8.763 2.588,8.326 2.235 C 7.773 1.788,7.276 1.603,6.560 1.577 C 6.240 1.566,6.015 1.580,5.820 1.622 M6.840 3.643 C 7.056 3.740,8.363 5.017,8.484 5.250 C 8.600 5.474,8.620 5.712,8.543 5.976 C 8.485 6.175,8.423 6.260,8.048 6.652 C 7.812 6.898,7.572 7.181,7.514 7.280 C 7.256 7.721,7.168 8.378,7.303 8.843 C 7.338 8.962,7.515 9.349,7.697 9.702 C 9.188 12.600,11.615 15.002,14.540 16.473 C 15.164 16.787,15.349 16.845,15.742 16.848 C 16.377 16.853,16.769 16.671,17.364 16.098 C 17.878 15.603,18.031 15.515,18.382 15.515 C 18.793 15.515,18.895 15.584,19.702 16.405 C 20.481 17.197,20.520 17.257,20.520 17.667 C 20.520 18.018,20.396 18.190,19.530 19.046 C 18.681 19.885,18.549 19.978,18.033 20.099 C 17.522 20.220,17.194 20.161,15.818 19.703 C 12.023 18.440,8.790 15.978,6.523 12.622 C 5.471 11.065,4.675 9.352,4.142 7.500 C 3.922 6.734,3.899 6.540,3.981 6.143 C 4.077 5.675,4.192 5.460,4.567 5.040 C 4.919 4.647,5.679 3.904,5.896 3.742 C 6.160 3.546,6.536 3.506,6.840 3.643" stroke="none" fill-rule="evenodd"/></svg>