<?xml version="1.0" encoding="UTF-8" standalone="no"?>
<svg xmlns="http://www.w3.org/2000/svg" width="24" height="24"><path d="M5.340 1.046 C 4.849 1.108,4.317 1.273,3.820 1.517 C 2.568 2.131,1.668 3.162,1.246 4.465 C 1.008 5.199,1.020 4.806,1.020 12.000 C 1.020 19.199,1.008 18.800,1.247 19.539 C 1.502 20.326,1.944 21.026,2.550 21.605 C 3.122 22.152,3.727 22.515,4.465 22.754 C 5.199 22.992,4.806 22.980,12.000 22.980 C 19.199 22.980,18.800 22.992,19.539 22.753 C 20.326 22.498,21.026 22.056,21.605 21.450 C 22.152 20.878,22.515 20.273,22.754 19.535 C 22.992 18.801,22.980 19.198,22.980 11.960 L 22.980 5.300 22.871 4.869 C 22.610 3.843,22.147 3.047,21.409 2.353 C 20.657 1.647,19.632 1.168,18.601 1.042 C 18.178 0.990,5.749 0.994,5.340 1.046 M18.756 3.089 C 19.647 3.365,20.325 3.940,20.704 4.740 C 21.017 5.401,21.000 4.993,21.000 12.000 C 21.000 19.007,21.017 18.599,20.704 19.260 C 20.281 20.152,19.537 20.741,18.581 20.938 C 18.145 21.029,5.850 21.030,5.425 20.940 C 4.686 20.784,4.131 20.445,3.664 19.865 C 3.444 19.592,3.158 19.016,3.074 18.680 C 2.994 18.354,2.994 5.646,3.074 5.320 C 3.159 4.980,3.445 4.407,3.670 4.127 C 4.117 3.573,4.817 3.158,5.503 3.042 C 5.611 3.024,8.589 3.012,12.120 3.015 C 18.002 3.021,18.558 3.028,18.756 3.089 M11.420 4.023 C 11.354 4.032,11.129 4.060,10.920 4.084 C 10.159 4.171,9.177 4.472,8.422 4.850 C 6.408 5.858,4.892 7.701,4.299 9.865 C 4.090 10.630,4.023 11.145,4.023 12.000 C 4.023 12.855,4.090 13.370,4.299 14.135 C 5.038 16.830,7.170 18.962,9.865 19.701 C 10.619 19.907,11.146 19.976,11.980 19.977 C 12.809 19.978,13.249 19.926,13.982 19.739 C 16.813 19.018,19.018 16.813,19.739 13.982 C 19.924 13.256,19.978 12.812,19.978 12.000 C 19.978 11.188,19.924 10.744,19.739 10.018 C 18.951 6.921,16.380 4.587,13.220 4.099 C 12.830 4.039,11.659 3.989,11.420 4.023 M13.208 6.118 C 13.956 6.278,14.679 6.580,15.300 6.991 C 16.633 7.873,17.540 9.212,17.888 10.812 C 18.016 11.399,18.015 12.593,17.887 13.188 C 17.371 15.582,15.587 17.367,13.188 17.888 C 12.597 18.016,11.403 18.016,10.812 17.888 C 8.419 17.368,6.622 15.577,6.118 13.208 C 5.999 12.645,5.971 11.746,6.056 11.169 C 6.447 8.521,8.454 6.489,11.100 6.061 C 11.613 5.978,12.691 6.007,13.208 6.118 M11.540 7.023 C 11.097 7.083,10.812 7.144,10.480 7.249 C 8.748 7.798,7.449 9.263,7.094 11.069 C 7.009 11.501,6.999 12.414,7.075 12.840 C 7.185 13.457,7.518 14.313,7.787 14.670 C 8.080 15.061,8.707 15.057,9.091 14.661 C 9.410 14.333,9.444 13.864,9.200 13.163 C 8.912 12.336,8.895 11.689,9.144 10.994 C 9.704 9.434,11.384 8.604,12.934 9.122 C 14.008 9.482,14.769 10.352,14.982 11.466 C 15.229 12.752,14.558 14.101,13.380 14.689 C 13.018 14.870,12.787 14.942,12.320 15.021 C 11.864 15.098,11.667 15.180,11.439 15.385 C 10.919 15.854,10.977 16.623,11.552 16.907 C 11.754 17.006,11.787 17.010,12.192 16.988 C 13.519 16.915,14.614 16.433,15.524 15.524 C 16.243 14.805,16.685 13.983,16.904 12.958 C 16.992 12.543,17.004 11.600,16.925 11.160 C 16.741 10.133,16.262 9.215,15.524 8.476 C 14.802 7.755,13.928 7.288,12.943 7.098 C 12.624 7.037,11.773 6.991,11.540 7.023 M11.436 10.412 C 11.028 10.584,10.745 10.851,10.566 11.235 C 10.475 11.430,10.461 11.513,10.461 11.861 C 10.460 12.234,10.469 12.280,10.592 12.529 C 11.182 13.728,12.818 13.728,13.408 12.529 C 13.531 12.280,13.540 12.234,13.539 11.861 C 13.539 11.511,13.525 11.431,13.432 11.231 C 13.284 10.913,13.003 10.626,12.685 10.470 C 12.453 10.355,12.378 10.339,12.041 10.329 C 11.716 10.320,11.627 10.332,11.436 10.412" stroke="none" fill-rule="evenodd"/></svg>