<?xml version="1.0" encoding="UTF-8" standalone="no"?>
<svg xmlns="http://www.w3.org/2000/svg" width="24" height="24"><path d="M9.340 1.046 C 7.761 1.247,6.247 2.321,5.543 3.739 C 5.383 4.062,5.168 4.662,5.104 4.963 L 5.082 5.066 3.751 5.156 C 1.865 5.284,1.715 5.301,1.532 5.394 C 1.347 5.488,1.134 5.717,1.055 5.906 C 0.988 6.067,0.984 6.397,1.046 6.606 C 1.144 6.930,1.495 7.217,1.850 7.264 C 1.943 7.276,2.671 7.239,3.466 7.183 C 4.261 7.126,4.932 7.080,4.956 7.080 C 4.987 7.080,5.000 7.441,5.000 8.316 L 5.000 9.552 4.850 9.535 C 4.768 9.525,4.077 9.465,3.317 9.401 C 1.671 9.264,1.567 9.274,1.254 9.607 C 0.994 9.883,0.912 10.214,1.015 10.566 C 1.096 10.844,1.270 11.050,1.531 11.176 C 1.724 11.270,1.854 11.287,3.200 11.399 C 4.003 11.465,4.734 11.529,4.825 11.541 L 4.990 11.563 5.011 12.892 C 5.025 13.781,5.053 14.385,5.097 14.720 C 5.416 17.146,6.268 19.050,7.638 20.400 C 8.878 21.621,10.345 22.240,12.000 22.240 C 13.655 22.240,15.122 21.621,16.362 20.400 C 17.537 19.242,18.349 17.637,18.740 15.700 C 18.926 14.782,18.968 14.294,18.989 12.830 C 19.000 12.065,19.012 11.440,19.015 11.439 C 19.018 11.439,19.744 11.386,20.629 11.321 C 22.435 11.190,22.458 11.185,22.747 10.870 C 23.185 10.393,23.046 9.629,22.469 9.342 C 22.303 9.259,22.206 9.240,21.956 9.240 C 21.673 9.240,19.702 9.369,19.210 9.419 L 19.000 9.441 19.000 8.260 C 19.000 7.611,19.006 7.080,19.013 7.080 C 19.020 7.080,19.626 7.125,20.360 7.180 C 22.251 7.322,22.329 7.317,22.642 7.049 C 23.075 6.678,23.116 6.066,22.735 5.642 C 22.459 5.336,22.417 5.327,20.680 5.197 C 19.833 5.133,19.091 5.081,19.031 5.081 C 18.944 5.080,18.917 5.057,18.898 4.970 C 18.885 4.910,18.821 4.690,18.756 4.483 C 18.182 2.645,16.531 1.278,14.601 1.042 C 14.187 0.991,9.743 0.994,9.340 1.046 M14.756 3.090 C 15.639 3.359,16.324 3.939,16.704 4.740 C 17.015 5.396,17.007 5.242,16.988 9.949 C 16.977 12.862,16.958 14.207,16.924 14.460 C 16.781 15.533,16.500 16.550,16.138 17.306 C 15.745 18.127,15.038 18.997,14.396 19.452 C 12.827 20.562,10.896 20.495,9.382 19.276 C 8.230 18.350,7.438 16.800,7.145 14.900 C 7.012 14.038,6.995 13.354,7.009 9.380 C 7.025 5.012,7.003 5.346,7.312 4.704 C 7.727 3.840,8.567 3.203,9.503 3.041 C 9.611 3.023,10.789 3.011,12.120 3.016 C 14.234 3.024,14.567 3.033,14.756 3.090 M8.667 4.625 C 8.542 4.663,8.412 4.746,8.299 4.859 C 7.985 5.173,7.993 5.073,8.011 8.348 C 8.025 10.791,8.037 11.268,8.092 11.541 C 8.441 13.272,9.546 14.498,11.109 14.889 C 11.604 15.012,12.396 15.012,12.891 14.889 C 14.454 14.498,15.559 13.272,15.908 11.541 C 16.005 11.056,16.036 5.583,15.942 5.261 C 15.858 4.972,15.595 4.705,15.310 4.621 C 15.008 4.531,8.960 4.535,8.667 4.625 M13.990 8.850 C 13.977 10.892,13.967 11.166,13.904 11.380 C 13.659 12.215,13.156 12.757,12.459 12.939 C 11.600 13.162,10.695 12.728,10.302 11.904 C 10.020 11.314,10.027 11.386,10.010 8.850 L 9.996 6.560 12.000 6.560 L 14.004 6.560 13.990 8.850 M11.660 16.136 C 11.210 16.248,10.860 16.529,10.657 16.942 C 10.551 17.157,10.540 17.219,10.540 17.581 C 10.540 17.952,10.550 18.001,10.670 18.246 C 10.824 18.559,11.075 18.805,11.393 18.953 C 11.589 19.044,11.673 19.059,12.000 19.059 C 12.326 19.059,12.411 19.044,12.600 18.955 C 12.926 18.801,13.176 18.559,13.329 18.249 C 13.451 18.000,13.460 17.953,13.460 17.581 C 13.460 17.219,13.449 17.157,13.343 16.942 C 13.134 16.517,12.757 16.224,12.288 16.125 C 12.030 16.070,11.919 16.072,11.660 16.136" stroke="none" fill-rule="evenodd"/></svg>