<?xml version="1.0" encoding="UTF-8" standalone="no"?>
<svg xmlns="http://www.w3.org/2000/svg" width="24" height="24"><path d="M11.664 2.063 C 11.436 2.146,11.257 2.297,11.131 2.511 L 11.020 2.700 11.008 3.884 L 10.996 5.067 10.577 5.155 C 8.433 5.605,6.683 6.968,5.718 8.940 C 5.320 9.752,5.114 10.507,5.033 11.450 C 4.874 13.278,5.478 15.124,6.708 16.575 C 7.662 17.699,9.080 18.531,10.579 18.845 L 11.000 18.934 11.000 20.020 C 11.000 21.300,11.021 21.414,11.303 21.697 C 11.486 21.880,11.763 22.000,12.000 22.000 C 12.237 22.000,12.514 21.880,12.697 21.697 C 12.979 21.414,13.000 21.300,13.000 20.020 L 13.000 18.934 13.421 18.845 C 15.218 18.468,16.796 17.406,17.812 15.888 C 18.095 15.465,18.479 14.695,18.623 14.260 C 19.109 12.791,19.109 11.209,18.623 9.740 C 18.479 9.305,18.095 8.534,17.813 8.113 C 16.790 6.589,15.223 5.533,13.421 5.155 L 13.000 5.066 13.000 3.960 C 13.000 2.689,12.980 2.578,12.701 2.299 C 12.429 2.027,12.018 1.933,11.664 2.063 M13.083 7.115 C 14.749 7.496,16.103 8.684,16.692 10.280 C 16.920 10.898,16.978 11.248,16.978 12.000 C 16.978 12.751,16.920 13.101,16.692 13.720 C 16.443 14.396,16.111 14.925,15.603 15.456 C 14.900 16.188,13.999 16.691,13.000 16.905 C 12.525 17.007,11.475 17.007,11.000 16.905 C 9.502 16.583,8.229 15.609,7.538 14.254 C 7.342 13.870,7.162 13.343,7.075 12.900 C 7.003 12.533,7.003 11.467,7.075 11.100 C 7.268 10.116,7.710 9.261,8.397 8.544 C 9.180 7.728,10.160 7.220,11.300 7.042 C 11.679 6.983,12.685 7.024,13.083 7.115" stroke="none" fill-rule="evenodd"/></svg>