<?xml version="1.0" encoding="UTF-8" standalone="no"?>
<svg xmlns="http://www.w3.org/2000/svg" width="24" height="24"><path d="M11.664 2.063 C 11.436 2.146,11.257 2.297,11.131 2.511 L 11.020 2.700 11.009 7.639 L 10.999 12.577 9.309 10.893 C 8.151 9.738,7.564 9.180,7.442 9.119 C 7.195 8.996,6.840 8.994,6.590 9.115 C 6.081 9.362,5.875 9.951,6.121 10.460 C 6.172 10.566,7.087 11.507,8.829 13.245 C 11.219 15.629,11.478 15.876,11.657 15.935 C 11.906 16.017,12.094 16.017,12.343 15.935 C 12.522 15.876,12.781 15.629,15.171 13.245 C 18.046 10.377,18.001 10.429,17.999 9.982 C 17.998 9.669,17.903 9.462,17.661 9.249 C 17.449 9.062,17.278 9.000,16.980 9.001 C 16.590 9.002,16.542 9.042,14.710 10.871 L 13.000 12.579 13.000 7.716 C 13.000 2.251,13.020 2.618,12.701 2.299 C 12.429 2.027,12.018 1.933,11.664 2.063 M2.664 14.063 C 2.436 14.146,2.257 14.297,2.131 14.511 L 2.020 14.700 2.008 16.180 C 1.994 17.840,2.034 18.530,2.181 19.108 C 2.411 20.016,2.988 20.799,3.831 21.350 C 4.400 21.722,4.919 21.884,5.780 21.958 C 6.432 22.014,17.568 22.014,18.220 21.958 C 19.088 21.883,19.596 21.724,20.189 21.339 C 20.867 20.899,21.480 20.136,21.723 19.430 C 21.941 18.798,21.969 18.501,21.989 16.613 C 22.011 14.636,22.007 14.605,21.702 14.300 C 21.234 13.832,20.470 13.935,20.131 14.511 L 20.020 14.700 19.994 16.440 C 19.979 17.422,19.948 18.293,19.922 18.440 C 19.835 18.939,19.486 19.437,19.031 19.711 C 18.560 19.994,18.925 19.980,12.000 19.980 C 6.242 19.980,5.758 19.975,5.483 19.911 C 4.774 19.745,4.202 19.147,4.077 18.440 C 4.050 18.285,4.024 17.509,4.013 16.520 C 3.993 14.633,3.986 14.584,3.702 14.300 C 3.429 14.027,3.018 13.933,2.664 14.063" stroke="none" fill-rule="evenodd"/></svg>