<?xml version="1.0" encoding="UTF-8" standalone="no"?>
<svg xmlns:dc="http://purl.org/dc/elements/1.1/" xmlns:cc="http://creativecommons.org/ns#" xmlns:rdf="http://www.w3.org/1999/02/22-rdf-syntax-ns#" xmlns:svg="http://www.w3.org/2000/svg" xmlns="http://www.w3.org/2000/svg" version="1.1" id="svg18363" viewBox="0 0 15.299999 15.299999" height="4.3179998mm" width="4.3179998mm"><defs id="defs18365"/><metadata id="metadata18368"><rdf:RDF><cc:Work rdf:about=""><dc:format>image/svg+xml</dc:format><dc:type rdf:resource="http://purl.org/dc/dcmitype/StillImage"/><dc:title/></cc:Work></rdf:RDF></metadata><g id="g10071"><circle style="opacity:1;fill:#000000;fill-opacity:1;fill-rule:evenodd;stroke:none;stroke-width:0.1;stroke-linecap:round;stroke-linejoin:round;stroke-miterlimit:4;stroke-dasharray:none;stroke-dashoffset:0;stroke-opacity:1" id="path9990" cx="7.6499996" cy="7.6499996" r="7.585"/><path style="opacity:1;fill:#ffffff;fill-opacity:1;fill-rule:evenodd;stroke:none;stroke-width:0.1;stroke-linecap:round;stroke-linejoin:round;stroke-miterlimit:4;stroke-dasharray:none;stroke-dashoffset:0;stroke-opacity:1" d="M 7.5292969 0.3203125 C 7.1867969 0.3315625 6.8514844 0.5346875 6.5214844 0.9296875 C 6.3827344 1.0896876 6.2670813 1.2401563 6.1757812 1.3789062 C 6.0845912 1.5176562 6.0233875 1.6605469 5.9921875 1.8105469 L 5.9921875 1.9082031 C 6.1946875 2.1107031 6.4134375 2.3538281 6.6484375 2.6425781 C 7.0334375 3.1125781 7.3375 3.4398447 7.5625 3.6210938 L 7.7695312 3.7167969 L 10.251953 3.5253906 C 10.508203 3.2153906 10.716953 2.9364063 10.876953 2.6914062 C 11.036953 2.4451563 11.179844 2.1630469 11.308594 1.8417969 C 11.276094 1.6717969 11.229716 1.5483594 11.166016 1.4746094 C 10.962266 1.2608594 10.746328 1.0932032 10.517578 0.97070312 C 10.287578 0.84820313 10.007031 0.7325 9.6757812 0.625 C 9.1520313 0.44375 8.4367969 0.3415625 7.5292969 0.3203125 z M 11.628906 2.0175781 L 11.597656 2.0351562 C 11.405156 2.2589063 11.15375 2.618125 10.84375 3.109375 L 10.556641 3.5566406 L 10.492188 3.7324219 C 10.503388 3.9574219 10.546094 4.1940625 10.621094 4.4453125 C 10.696094 4.6953125 10.807031 5.0027344 10.957031 5.3652344 C 11.138281 5.8352344 11.262472 6.1988281 11.326172 6.4550781 L 11.4375 6.6464844 C 12.195 7.0314844 12.959766 7.4553125 13.728516 7.9140625 C 13.888516 7.8065625 14.048984 7.6078125 14.208984 7.3203125 C 14.368974 7.0315625 14.543828 6.691875 14.736328 6.296875 C 14.736328 5.986875 14.68995 5.694375 14.59375 5.421875 C 14.433 4.859541 14.139392 4.2896721 13.888672 3.8769531 C 13.514922 3.3107031 13.160469 2.8625 12.824219 2.53125 C 12.487969 2.20125 12.087656 2.0288281 11.628906 2.0175781 z M 5.6074219 2.0664062 C 5.3299219 2.1089062 5.0685156 2.1954687 4.8222656 2.3242188 C 4.5772656 2.4517178 4.2663281 2.6378125 3.8925781 2.8828125 C 3.6050781 3.1178125 3.3850781 3.3867969 3.2363281 3.6855469 C 3.0863281 3.9842969 2.9271094 4.3854688 2.7558594 4.8867188 L 2.5644531 5.4453125 C 2.4781531 5.7240625 2.4355469 5.8939844 2.4355469 5.9589844 L 2.5 6.1835938 L 2.6679688 6.4160156 L 2.8515625 6.6464844 C 2.9053625 6.7002344 3.0125781 6.8159375 3.1738281 6.9921875 C 3.3338281 7.1684375 3.4914744 7.3217178 3.6464844 7.4492188 C 3.8002344 7.5779688 3.9578906 7.6725781 4.1191406 7.7363281 C 4.3216406 7.6825781 4.53125 7.6007802 4.75 7.4882812 C 4.96875 7.3770302 5.2605469 7.21375 5.6230469 7 C 6.0505469 6.74375 6.3658594 6.5676562 6.5683594 6.4726562 L 6.5839844 6.4726562 C 6.6902244 6.0126563 6.8670313 5.4678906 7.1132812 4.8378906 C 7.2407413 4.5816406 7.3066406 4.3565625 7.3066406 4.1640625 C 7.3066406 3.9190625 7.1717969 3.6464063 6.9042969 3.3476562 C 6.8617969 3.2939063 6.7511719 3.1510156 6.5761719 2.9160156 C 6.3999219 2.6810156 6.2203125 2.4807031 6.0390625 2.3144531 C 5.8578125 2.1494561 5.7149219 2.0664062 5.6074219 2.0664062 z M 2.8046875 2.4511719 C 2.6546875 2.4624199 2.5246094 2.5135156 2.4121094 2.6035156 L 2.1152344 2.9003906 L 1.9394531 3.1230469 C 1.5019531 3.7542969 1.1503125 4.3736719 0.8828125 4.9824219 C 0.5515625 5.7511719 0.38671875 6.4764063 0.38671875 7.1601562 C 0.38671875 7.4264063 0.40671875 7.6671094 0.44921875 7.8808594 L 0.67382812 7.9296875 L 2.0527344 6.3105469 C 2.2127344 5.6705469 2.3803906 5.0973448 2.5566406 4.5898438 C 2.7328906 4.0823437 2.9651563 3.600625 3.2539062 3.140625 L 2.8046875 2.4511719 z M 6.6484375 6.9199219 C 6.3709375 6.9524219 6.0136719 7.08375 5.5761719 7.3125 C 5.1374219 7.5425 4.6409375 7.8230469 4.0859375 8.1542969 C 3.9897375 8.2930469 3.9166406 8.4898438 3.8691406 8.7460938 C 3.7980906 9.2297518 3.7193219 9.7364355 3.6699219 10.236328 C 3.6699219 10.502578 3.8084375 10.742578 4.0859375 10.955078 C 4.5871875 11.457578 5.11125 11.843125 5.65625 12.109375 C 5.805 12.173125 5.9710937 12.205078 6.1523438 12.205078 C 6.4510938 12.205078 6.7864062 12.133987 7.1601562 11.990234 C 7.5339062 11.846484 7.8655469 11.666875 8.1542969 11.453125 C 8.2181169 11.346324 8.2978031 11.249066 8.3457031 11.132812 C 8.5382031 10.332812 8.6842969 9.4295313 8.7792969 8.4257812 C 8.6617969 8.2870313 8.495 8.139375 8.28125 7.984375 C 8.0675 7.830625 7.8515625 7.6836719 7.6328125 7.5449219 C 7.4140625 7.4061719 7.2683594 7.3096094 7.1933594 7.2558594 C 6.9371094 7.1071094 6.7546875 6.9949219 6.6484375 6.9199219 z M 11.197266 6.953125 C 10.813516 7.113125 10.397969 7.3525781 9.9492188 7.6738281 C 9.5004692 7.9938281 9.2051562 8.2664844 9.0664062 8.4902344 C 8.9489063 9.1202344 8.7940625 10.055469 8.6015625 11.292969 C 9.3278125 11.849218 10.028672 12.215938 10.701172 12.398438 L 10.830078 12.398438 C 11.235078 12.173438 11.711719 11.869375 12.261719 11.484375 C 12.811719 11.100625 13.178125 10.779687 13.359375 10.523438 C 13.488115 9.9259389 13.579012 9.2107031 13.632812 8.3769531 C 13.557813 8.2169531 13.197031 7.95625 12.550781 7.59375 C 11.904531 7.23 11.453516 7.016875 11.197266 6.953125 z M 0.44921875 8.1210938 C 0.42801875 8.2073438 0.41796875 8.3402344 0.41796875 8.5214844 C 0.41796875 9.0339844 0.54804688 9.6019545 0.81054688 10.220703 C 1.0711668 10.839224 1.3733637 11.38481 1.7148438 11.865234 L 1.7148438 11.341797 C 1.0410938 10.070547 0.68507813 9.0136719 0.64257812 8.1699219 L 0.44921875 8.1210938 z M 13.695312 10.796875 L 13.552734 10.820312 C 13.217964 11.057408 12.831506 11.332061 12.478516 11.580078 C 11.859766 12.050078 11.378359 12.371718 11.037109 12.542969 C 10.813359 12.692968 10.601797 12.891328 10.404297 13.142578 C 10.206797 13.392578 9.9525777 13.748984 9.6425781 14.208984 C 9.7500781 14.347734 9.9419526 14.427969 10.220703 14.449219 C 11.170703 14.085469 11.646484 13.904297 11.646484 13.904297 C 11.646484 13.904297 12.0025 13.588984 12.71875 12.958984 C 13.43375 12.328984 13.913906 11.635703 14.160156 10.876953 C 14.021406 10.824453 13.866563 10.796875 13.695312 10.796875 z M 3.4296875 10.845703 C 3.0021875 10.909453 2.5057031 11.052345 1.9394531 11.277344 C 1.9394531 11.618594 1.9434781 11.850157 1.9550781 11.972656 C 1.9650781 12.095156 2.0027063 12.213672 2.0664062 12.326172 C 2.1314062 12.438672 2.2542969 12.596328 2.4355469 12.798828 C 2.8730469 13.193828 3.2203125 13.470859 3.4765625 13.630859 C 3.7215625 13.802109 4.1127344 14.025234 4.6464844 14.302734 C 4.8389744 14.388979 5.1003906 14.449219 5.4316406 14.480469 C 5.6666406 14.491719 5.97 14.405159 6.34375 14.222656 C 6.32245 13.945157 6.2742188 13.644609 6.1992188 13.318359 C 6.1254187 12.993359 6.0439844 12.766172 5.9589844 12.638672 C 5.1477244 12.136172 4.5278125 11.689219 4.1015625 11.292969 C 4.0478625 11.261719 3.95125 11.183047 3.8125 11.060547 C 3.67375 10.938043 3.5471875 10.866953 3.4296875 10.845703 z M 7.578125 14.449219 C 6.959375 14.470465 6.4177344 14.550703 5.9589844 14.689453 C 6.4827344 14.870707 7.033125 14.960938 7.609375 14.960938 C 8.228125 14.960938 8.85875 14.870708 9.5 14.689453 L 9.2910156 14.625 C 8.6835156 14.507499 8.111875 14.449219 7.578125 14.449219 z" id="path10025"/></g></svg>