<?xml version="1.0" encoding="UTF-8" standalone="no"?>
<svg version="1.1" id="Ebene_1" xmlns="http://www.w3.org/2000/svg" xmlns:xlink="http://www.w3.org/1999/xlink" x="0px" y="0px" viewBox="0 0 365 365" style="enable-background:new 0 0 365 365;" xml:space="preserve"><style type="text/css">.st0{fill:#4562A2;} \t.st1{fill:#2C426D;} \t.st2{fill:#FFFFFF;}</style><path class="st0" d="M330,365H35c-19.3299675,0-35-15.6700439-35-35V35C0,15.6700335,15.6700335,0,35,0h295 c19.3299561,0,35,15.6700335,35,35v295C365,349.3299561,349.3299561,365,330,365z"/><path class="st1" d="M0,200v130c0,19.3299561,15.6700439,35,35,35h295c19.3299561,0,35-15.6700439,35-35V200H0z"/><g><path class="st2" d="M46.0639648,264.5947266l-1.8530273-22.7949219l-4.3950195,22.7949219h-5.300293l-4.6108398-22.7949219 l-1.6376953,22.7949219h-5.2998047l3.2314453-28.7412109h6.765625l4.3520508,23.0527344l4.1796875-23.0527344h6.7651367 l3.2753906,28.7412109H46.0639648z"/><path class="st2" d="M68.4702148,264.5947266h-6.8945312l-8.144043-28.7412109h5.8173828l5.9467773,24.3027344 l5.9033203-24.3027344h5.5585938L68.4702148,264.5947266z"/><path class="st2" d="M91.6870117,265.0683594c-9.0058594,0-13.0566406-6.0751953-13.0566406-15.296875 c0-8.1875,5.0419922-14.3925781,14.1767578-14.3925781c3.1459961,0,5.3867188,0.3447266,7.1533203,0.9912109l-0.9912109,4.1796875 c-1.7666016-0.6894531-3.7055664-1.0341797-5.9033203-1.0341797c-6.1621094,0-8.7905273,4.3095703-8.7905273,10.2128906 c0,6.0761719,1.7666016,11.2900391,8.0151367,11.2900391c1.1201172,0,2.0249023-0.2158203,2.84375-0.5605469v-7.9716797h-4.2226562 v-4.0507812h9.3935547v15.0820312C97.8491211,264.5947266,95.1342773,265.0683594,91.6870117,265.0683594z"/><path class="st2" d="M129.519043,265.0683594c-9.0058594,0-13.0566406-6.0751953-13.0566406-15.296875 c0-8.1875,5.0419922-14.3925781,14.1767578-14.3925781c3.1459961,0,5.3867188,0.3447266,7.1533203,0.9912109l-0.9912109,4.1796875 c-1.7666016-0.6894531-3.7055664-1.0341797-5.9033203-1.0341797c-6.1621094,0-8.7905273,4.3095703-8.7905273,10.2128906 c0,6.0761719,1.7666016,11.2900391,8.0151367,11.2900391c1.1201172,0,2.0249023-0.2158203,2.84375-0.5605469v-7.9716797h-4.2226562 v-4.0507812h9.3935547v15.0820312C135.6811523,264.5947266,132.9663086,265.0683594,129.519043,265.0683594z"/><path class="st2" d="M153.8217773,247.7890625c-0.4741211-0.1289062-0.9482422-0.2148438-1.4223633-0.2148438 c-3.059082,0-3.7485352,2.7578125-3.7485352,5.4287109v11.5917969h-5.1279297v-21.2001953h4.6538086l0.3876953,2.8007812 c1.3359375-2.2412109,2.887207-3.1894531,5.1279297-3.1894531c0.3876953,0,1.206543,0.0869141,1.5942383,0.2587891 L153.8217773,247.7890625z"/><path class="st2" d="M166.050293,264.9824219c-7.1103516,0-9.1352539-5.4296875-9.1352539-11.2900391 c0-5.2998047,2.8007812-10.6865234,9.1352539-10.6865234c6.5927734-0.0429688,9.1352539,5.2148438,9.1352539,10.6865234 C175.1855469,259.3808594,172.9448242,264.9824219,166.050293,264.9824219z M166.050293,246.6259766 c-3.3183594,0-3.7919922,4.3525391-3.7919922,7.1103516c0,2.8007812,0.3447266,7.5839844,3.7919922,7.5839844 s3.7919922-4.7402344,3.7919922-7.5839844C169.8422852,250.9785156,169.3681641,246.6259766,166.050293,246.6259766z"/><path class="st2" d="M190.9140625,264.9824219c-0.8183594,0-2.4560547-0.1289062-3.6630859-0.4306641v-3.5771484 c0.8193359,0.3457031,1.7675781,0.4316406,2.6289062,0.4316406c2.2412109,0,2.9306641-2.0683594,2.9306641-5.5585938 c0-3.1025391-1.078125-5.3867188-3.1464844-5.3867188h-2.1542969v-3.4472656h1.8964844 c1.9814453,0,2.84375-2.1972656,2.84375-4.7832031c0-2.5419922-0.8623047-4.7402344-3.7060547-4.7402344 c-2.5419922,0-3.7060547,1.6806641-3.7060547,3.8789062v23.2255859h-5.0844727v-23.2255859 c0-4.5683594,3.8354492-7.4550781,8.8334961-7.4550781c5.34375,0,8.5751953,3.2753906,8.5751953,7.8427734 c0,3.6621094-1.6806641,6.1621094-4.6103516,6.8515625c3.5332031,0.4306641,5.515625,3.8779297,5.515625,7.4541016 C198.0673828,261.4492188,195.7832031,264.9824219,190.9140625,264.9824219z"/><path class="st2" d="M213.9667969,264.5947266l-5.7744141-10.2558594v10.2558594h-5.0839844v-30.6806641h5.0839844v17.9257812 l5.6025391-8.4453125h5.5585938l-6.5498047,9.2636719l6.9804688,11.9365234H213.9667969z"/><path class="st2" d="M234.8662109,264.5947266l-0.3876953-2.8007812c-0.8623047,1.9384766-2.9306641,3.1884766-5.6025391,3.1884766 c-4.2226562,0-5.9892578-2.9726562-5.9892578-6.6787109v-14.9091797h5.1279297v14.3916016 c0,1.8964844,0.7753906,3.4042969,2.9296875,3.4042969c2.4130859,0,3.3183594-2.3701172,3.3183594-4.5244141v-13.2714844h5.1279297 v21.2001953H234.8662109z"/><path class="st2" d="M256.7988281,264.5947266v-14.4355469c0-1.8955078-0.8183594-3.4902344-3.0166016-3.4902344 c-2.5419922,0-3.4902344,2.5419922-3.4902344,4.6533203v13.2724609h-5.1279297v-21.2001953h4.5244141l0.3876953,2.84375 c0.9052734-1.9394531,3.0166016-3.2324219,5.7314453-3.2324219c4.2226562,0,6.1191406,3.0166016,6.1191406,6.7226562v14.8662109 H256.7988281z"/><path class="st2" d="M279.5068359,264.5947266l-0.3876953-2.6289062c-1.1630859,1.9394531-2.8867188,3.0166016-5.515625,3.0166016 c-5.8173828,0-7.109375-5.9033203-7.109375-11.2460938c0-5.5595703,2.2832031-10.7304688,8.0576172-10.7304688 c2.0253906,0,3.8779297,0.9912109,4.5673828,2.7148438v-11.8066406h5.1279297v30.6806641H279.5068359z M279.2490234,251.6240234 c0-2.4560547-1.1210938-5.0410156-3.6630859-5.0410156c-3.2314453,0-3.7490234,4.7832031-3.7490234,7.3681641 c0,3.2753906,0.3447266,7.3691406,3.6201172,7.3691406c2.3701172,0,3.7919922-2.4140625,3.7919922-4.9990234V251.6240234z"/><path class="st2" d="M294.0283203,255.2441406c0,3.6191406,1.5947266,6.0322266,5.4296875,6.0322266 c1.5517578,0,3.3183594-0.3876953,4.6972656-1.0341797l0.8613281,3.6630859 c-1.9384766,0.8183594-4.6962891,1.0771484-6.7646484,1.0771484c-6.7226562,0-9.4375-5.2568359-9.4375-11.2900391 c0-5.2138672,2.5429688-10.6435547,8.6181641-10.6435547c6.4638672,0.0439453,8.4033203,4.6972656,8.4033203,10.2988281v1.8964844 H294.0283203z M297.4326172,246.453125c-2.7148438,0-3.4042969,3.2753906-3.4042969,5.3867188h6.8085938 C300.8369141,249.5996094,300.3203125,246.453125,297.4326172,246.453125z"/><path class="st2" d="M321.9072266,264.5947266v-14.4355469c0-1.8955078-0.8183594-3.4902344-3.015625-3.4902344 c-2.5429688,0-3.4902344,2.5419922-3.4902344,4.6533203v13.2724609h-5.1279297v-21.2001953h4.5244141l0.3876953,2.84375 c0.9052734-1.9394531,3.0166016-3.2324219,5.7314453-3.2324219c4.2226562,0,6.1181641,3.0166016,6.1181641,6.7226562v14.8662109 H321.9072266z"/><path class="st2" d="M331.6884766,254.2099609v-4.1367188H342.375v4.1367188H331.6884766z"/><path class="st2" d="M125.7919922,318.5947266h-5.472168l-6.4208984-21.2001953h5.515625l3.7919922,16.3740234 l3.7490234-16.3740234h5.2568359L125.7919922,318.5947266z"/><path class="st2" d="M139.4946289,309.2441406c0,3.6191406,1.5942383,6.0322266,5.4296875,6.0322266 c1.5507812,0,3.3178711-0.3876953,4.6967773-1.0341797l0.8618164,3.6630859 c-1.9394531,0.8183594-4.6972656,1.0771484-6.765625,1.0771484c-6.7216797,0-9.4365234-5.2568359-9.4365234-11.2900391 c0-5.2138672,2.5419922-10.6435547,8.6181641-10.6435547c6.4633789,0.0439453,8.4023438,4.6972656,8.4023438,10.2988281v1.8964844 H139.4946289z M142.8989258,300.453125c-2.7148438,0-3.4042969,3.2753906-3.4042969,5.3867188h6.8085938 C146.3032227,303.5996094,145.7856445,300.453125,142.8989258,300.453125z"/><path class="st2" d="M166.0375977,301.7890625c-0.4736328-0.1289062-0.9477539-0.2148438-1.421875-0.2148438 c-3.0595703,0-3.7490234,2.7578125-3.7490234,5.4287109v11.5917969h-5.1274414v-21.2001953h4.6538086l0.3876953,2.8007812 c1.3359375-2.2412109,2.887207-3.1894531,5.1279297-3.1894531c0.3876953,0,1.206543,0.0869141,1.5942383,0.2587891 L166.0375977,301.7890625z"/><path class="st2" d="M177.0258789,318.9824219c-3.5336914,0-5.2573242-1.8955078-5.2573242-5.8173828v-12.0224609h-3.0161133 v-3.7480469h3.0161133v-4.7832031l5.1279297-1.4658203v6.2050781h4.0932617v3.7919922h-4.0932617v10.8164062 c0,2.4130859,0.6030273,3.2744141,2.1113281,3.2744141c0.7758789,0,1.206543,0,1.9389648-0.2587891l0.3447266,3.4912109 C180.128418,318.8964844,178.8354492,318.9824219,177.0258789,318.9824219z"/><path class="st2" d="M195.3398438,301.7890625c-0.4746094-0.1289062-0.9482422-0.2148438-1.4228516-0.2148438 c-3.0585938,0-3.7480469,2.7578125-3.7480469,5.4287109v11.5917969h-5.1279297v-21.2001953h4.6533203l0.3876953,2.8007812 c1.3359375-2.2412109,2.8876953-3.1894531,5.1279297-3.1894531c0.3876953,0,1.2070312,0.0869141,1.5947266,0.2587891 L195.3398438,301.7890625z"/><path class="st2" d="M201.3720703,318.5947266v-17.4521484h-2.8447266v-3.7480469H206.5v21.2001953H201.3720703z M203.6552734,293.7314453c-1.7666016,0-3.1884766-1.3789062-3.1884766-3.0595703s1.421875-3.0595703,3.1884766-3.0595703 s3.1894531,1.3789062,3.1894531,3.0595703S205.421875,293.7314453,203.6552734,293.7314453z"/><path class="st2" d="M216.4101562,309.2441406c0,3.6191406,1.5947266,6.0322266,5.4296875,6.0322266 c1.5517578,0,3.3183594-0.3876953,4.6972656-1.0341797l0.8613281,3.6630859 c-1.9384766,0.8183594-4.6962891,1.0771484-6.7646484,1.0771484c-6.7226562,0-9.4375-5.2568359-9.4375-11.2900391 c0-5.2138672,2.5429688-10.6435547,8.6181641-10.6435547c6.4638672,0.0439453,8.4033203,4.6972656,8.4033203,10.2988281v1.8964844 H216.4101562z M219.8144531,300.453125c-2.7148438,0-3.4042969,3.2753906-3.4042969,5.3867188h6.8085938 C223.21875,303.5996094,222.7021484,300.453125,219.8144531,300.453125z"/><path class="st2" d="M242.4794922,318.9824219c-2.3271484,0-4.0507812-1.25-4.9121094-2.9726562l-0.3876953,2.5849609h-4.5244141 v-30.6806641h5.1279297v12.0224609c1.0341797-1.9394531,2.9296875-2.9306641,5.2568359-2.9306641 c5.8173828,0,7.3681641,5.3007812,7.3681641,10.7304688C250.4082031,313.1650391,248.4257812,318.9824219,242.4794922,318.9824219z M241.3164062,300.6259766c-2.6289062,0-3.6630859,2.6279297-3.6630859,4.9980469v4.7402344 c0,2.7148438,1.1201172,4.9560547,3.5771484,4.9560547c3.4472656,0,3.8349609-5.0849609,3.8349609-7.5839844 C245.0654297,305.1074219,244.7636719,300.6259766,241.3164062,300.6259766z"/></g><g><path class="st2" d="M107.8271484,158.9648438H73.6845703V58.6445312h32.0366211 c16.3945312,0,29.9306641,6.4667969,30.0810547,24.6660156c0,11.8818359-7.2192383,18.3496094-18.0483398,22.5605469 c11.8818359,1.8056641,21.6582031,10.2285156,21.6582031,23.3134766 C139.4121094,147.5341797,125.7250977,158.9648438,107.8271484,158.9648438z M103.3149414,72.9326172H92.6357422V100.15625 h9.3251953c9.0244141,0,14.8901367-5.2646484,14.8901367-14.4394531 C116.8510742,77.2949219,111.8876953,72.9326172,103.3149414,72.9326172z M105.5708008,114.2939453H92.6357422v30.2314453 h12.4838867c9.9267578,0,14.8901367-6.4667969,14.8901367-15.7919922 C120.0097656,120.0097656,114.144043,114.2939453,105.5708008,114.2939453z"/><path class="st2" d="M153.3979492,158.9648438v-15.6425781l14.8901367-11.8818359 c14.1381836-11.4306641,20.1542969-16.3945312,20.1542969-23.6132812c0-6.6181641-4.5117188-11.2802734-13.2353516-11.2802734 c-6.4672852,0-13.6870117,2.8574219-17.8984375,5.4140625l-2.7070312-16.2441406 c6.918457-3.1582031,15.4916992-5.4140625,25.1176758-5.4140625c19.5522461,0,29.9311523,9.6259766,29.9311523,23.9140625 c0,11.1298828-6.9189453,20.0039062-18.9521484,29.4794922l-10.9790039,8.7236328l-0.1503906,0.1503906 c8.121582-0.6015625,19.8530273-0.6015625,32.9389648-0.6015625v16.9960938H153.3979492z"/><path class="st2" d="M265.1484375,158.9648438h-34.1425781V58.6445312h32.0371094 c16.3935547,0,29.9306641,6.4667969,30.0810547,24.6660156c0,11.8818359-7.2197266,18.3496094-18.0488281,22.5605469 c11.8818359,1.8056641,21.6582031,10.2285156,21.6582031,23.3134766 C296.7333984,147.5341797,283.046875,158.9648438,265.1484375,158.9648438z M260.6357422,72.9326172h-10.6787109V100.15625 h9.3251953c9.0244141,0,14.890625-5.2646484,14.890625-14.4394531 C274.1728516,77.2949219,269.2089844,72.9326172,260.6357422,72.9326172z M262.8925781,114.2939453h-12.9355469v30.2314453 h12.484375c9.9267578,0,14.8896484-6.4667969,14.8896484-15.7919922 C277.3310547,120.0097656,271.4648438,114.2939453,262.8925781,114.2939453z"/></g></svg>