<?xml version="1.0" encoding="UTF-8" standalone="no"?>
<svg xmlns="http://www.w3.org/2000/svg" width="24" height="24"><path d="M9.080 1.025 C 8.351 1.142,7.781 1.426,7.307 1.910 C 6.944 2.279,6.712 2.676,6.521 3.256 C 6.454 3.458,6.384 3.578,6.261 3.701 C 6.021 3.941,5.830 3.990,5.040 4.013 C 4.505 4.029,4.305 4.052,3.985 4.135 C 2.579 4.500,1.523 5.565,1.110 7.031 C 1.023 7.340,1.023 7.344,1.009 12.480 C 0.993 18.284,1.001 18.507,1.245 19.320 C 1.575 20.421,2.578 21.423,3.680 21.755 C 4.485 21.998,4.567 22.000,12.000 22.000 C 19.434 22.000,19.517 21.997,20.320 21.755 C 21.422 21.422,22.424 20.417,22.758 19.309 C 22.989 18.544,22.999 18.272,23.000 12.697 C 23.000 7.241,23.003 7.310,22.771 6.660 C 22.399 5.616,21.564 4.738,20.529 4.303 C 20.072 4.112,19.639 4.034,18.858 4.004 C 18.168 3.978,18.127 3.972,17.949 3.867 C 17.701 3.722,17.583 3.557,17.436 3.155 C 17.243 2.627,17.044 2.285,16.746 1.971 C 16.342 1.545,15.860 1.252,15.300 1.091 C 15.084 1.029,14.769 1.022,12.120 1.016 C 10.503 1.012,9.135 1.016,9.080 1.025 M14.870 3.061 C 15.174 3.151,15.405 3.393,15.520 3.743 C 15.766 4.486,16.095 4.966,16.644 5.386 C 17.222 5.827,17.637 5.954,18.640 5.998 C 19.480 6.035,19.723 6.092,20.094 6.338 C 20.518 6.620,20.794 7.009,20.922 7.506 C 20.997 7.802,21.000 7.974,20.999 12.616 C 20.998 17.422,20.978 18.259,20.858 18.673 C 20.705 19.199,20.244 19.671,19.703 19.853 C 19.281 19.996,18.771 20.005,11.680 19.989 C 4.245 19.973,4.531 19.981,4.080 19.769 C 3.812 19.643,3.376 19.216,3.248 18.952 C 3.019 18.482,3.027 18.674,3.011 13.027 C 2.996 7.939,2.997 7.828,3.076 7.518 C 3.203 7.014,3.478 6.622,3.900 6.342 C 4.288 6.084,4.489 6.036,5.340 5.999 C 6.169 5.962,6.422 5.911,6.878 5.684 C 7.626 5.313,8.114 4.732,8.444 3.821 C 8.600 3.391,8.804 3.158,9.107 3.065 C 9.399 2.975,14.569 2.971,14.870 3.061 M11.100 7.586 C 9.789 7.823,8.565 8.635,7.822 9.761 C 7.150 10.780,6.870 12.071,7.061 13.262 C 7.599 16.603,11.169 18.457,14.213 16.977 C 15.037 16.576,15.807 15.864,16.294 15.053 C 17.267 13.432,17.221 11.343,16.178 9.761 C 15.424 8.618,14.200 7.815,12.860 7.583 C 12.414 7.505,11.539 7.507,11.100 7.586 M12.677 9.579 C 13.730 9.801,14.655 10.714,14.925 11.800 C 14.996 12.086,14.996 12.914,14.925 13.200 C 14.657 14.278,13.754 15.176,12.689 15.424 C 12.340 15.506,11.660 15.506,11.311 15.424 C 10.425 15.218,9.674 14.598,9.282 13.749 C 9.070 13.291,9.021 13.056,9.021 12.500 C 9.021 11.944,9.070 11.709,9.282 11.251 C 9.671 10.409,10.443 9.769,11.293 9.582 C 11.630 9.508,12.332 9.507,12.677 9.579" stroke="none" fill-rule="evenodd"/></svg>