<?xml version="1.0" encoding="UTF-8" standalone="no"?>
<svg xmlns="http://www.w3.org/2000/svg" width="24" height="24"><path d="M7.270 1.042 C 6.780 1.110,4.690 1.593,4.529 1.676 C 4.251 1.817,4.050 2.113,4.015 2.432 C 3.999 2.578,4.327 4.274,5.476 9.991 C 6.291 14.046,6.987 17.425,7.024 17.502 C 7.112 17.688,7.397 17.935,7.592 17.993 C 7.696 18.024,8.128 18.040,8.875 18.040 L 10.000 18.040 10.000 19.496 L 10.000 20.952 9.370 20.967 C 8.674 20.984,8.542 21.020,8.301 21.261 C 7.886 21.677,7.930 22.395,8.393 22.748 C 8.486 22.819,8.629 22.895,8.711 22.918 C 8.917 22.976,19.083 22.976,19.289 22.918 C 19.512 22.856,19.763 22.644,19.878 22.421 C 20.004 22.175,20.018 21.781,19.907 21.556 C 19.814 21.366,19.623 21.174,19.422 21.068 C 19.281 20.994,19.177 20.981,18.630 20.967 L 18.000 20.952 18.000 19.496 L 18.000 18.040 19.110 18.039 C 20.140 18.038,20.233 18.032,20.400 17.957 C 20.622 17.856,20.781 17.709,20.894 17.500 C 20.976 17.347,20.980 17.285,20.992 15.989 C 21.006 14.440,20.974 14.140,20.749 13.666 C 20.593 13.337,20.238 12.929,19.973 12.774 C 19.876 12.717,19.685 12.636,19.549 12.593 C 19.312 12.519,19.113 12.514,15.530 12.491 L 11.760 12.467 11.716 12.304 C 11.692 12.214,11.412 11.186,11.093 10.020 L 10.514 7.900 10.577 7.320 C 10.698 6.211,10.725 5.775,10.727 4.960 C 10.728 3.993,10.659 3.447,10.464 2.872 C 10.291 2.362,10.121 2.081,9.780 1.739 C 9.466 1.424,9.075 1.206,8.640 1.101 C 8.315 1.022,7.626 0.993,7.270 1.042 M8.307 3.104 C 8.774 3.449,8.866 4.720,8.597 7.100 C 8.555 7.474,8.520 7.864,8.520 7.967 C 8.520 8.158,9.975 13.591,10.107 13.891 C 10.144 13.975,10.244 14.107,10.331 14.185 C 10.657 14.480,10.325 14.459,14.840 14.471 C 18.565 14.482,18.904 14.488,18.950 14.549 C 18.986 14.596,19.000 14.820,19.000 15.328 L 19.000 16.040 13.860 16.040 C 11.033 16.040,8.720 16.035,8.720 16.030 C 8.720 16.024,8.155 13.202,7.463 9.760 C 6.772 6.317,6.201 3.456,6.193 3.401 C 6.179 3.292,6.121 3.311,7.100 3.097 C 7.660 2.975,8.137 2.977,8.307 3.104 M16.000 19.500 L 16.000 20.960 14.000 20.960 L 12.000 20.960 12.000 19.500 L 12.000 18.040 14.000 18.040 L 16.000 18.040 16.000 19.500" stroke="none" fill-rule="evenodd"/></svg>