<?xml version="1.0" encoding="utf-8"?>\x3c!--Generator: Adobe Illustrator 17.1.0, SVG Export Plug-In . SVG Version: 6.00 Build 0)--\x3e<!DOCTYPE svg PUBLIC "-//W3C//DTD SVG 1.1//EN" "http://www.w3.org/Graphics/SVG/1.1/DTD/svg11.dtd"><svg version="1.1" id="Ebene_1" xmlns="http://www.w3.org/2000/svg" xmlns:xlink="http://www.w3.org/1999/xlink" x="0px" y="0px" viewBox="0 0 800 800" enable-background="new 0 0 800 800" xml:space="preserve" width="800px" height="800px"><g><g><defs><polyline id="SVGID_1_" points="0,0 0,800 800,800 800,0"/></defs><clipPath id="SVGID_2_"><use xlink:href="#SVGID_1_" overflow="visible"/></clipPath><polyline clip-path="url(#SVGID_2_)" fill="#1D1D1B" points="0,800 0,0 800,0 800,800"/><path clip-path="url(#SVGID_2_)" fill="#FABA00" d="M583.154,504.886c-29.334,79.992-74.671,134.232-89.792,131.548 c-10.657-2.664-21.332-15.102-30.226-36.435c-27.541,21.333-53.319,34.671-67.559,34.671c-14.222,0-39.981-13.338-66.651-34.671 c-8.897,21.333-20.455,33.771-31.117,36.435c-14.22,2.684-60.444-51.556-89.777-131.548H48.919v-49.774h144.005 c-1.783-9.784-3.555-19.558-5.334-30.225c-15.111-92.443,10.667-166.228,35.554-208.889l35.553-99.559l26.67,40.892 c30.22-17.777,68.447-28.443,110.21-28.443c41.8,0,80.017,10.667,111.124,28.443l25.788-40.892l35.553,99.559 c24.878,42.661,50.666,116.446,36.435,208.889c-1.773,10.667-4.437,20.441-6.22,30.225h152.899v49.774 M395.577,152.885 c-89.765,0-167.1,55.113-167.1,127.115c0,71.998,77.335,127.11,167.1,127.11c89.791,0,167.119-55.113,167.119-127.11 C562.696,207.997,485.368,152.885,395.577,152.885z M395.577,390.225c-85.323,0-150.211-51.557-150.211-110.226 c0-58.669,64.888-110.22,150.211-110.22c85.347,0,150.242,51.551,150.242,110.22C545.819,338.668,480.923,390.225,395.577,390.225 z M298.706,455.111c0-11.556-16.898-11.556-16.898,0v53.331c0,10.667,16.898,10.667,16.898,0V455.111z M325.361,209.774 c-23.11,0-42.658,18.668-42.658,42.669c0,24,19.548,42.664,42.658,42.664c24.005,0,43.564-18.664,43.564-42.664 C368.925,228.443,349.366,209.774,325.361,209.774z M325.361,280.89c-15.107,0-27.552-12.447-27.552-28.447 c0-15.107,12.445-27.551,27.552-27.551c16.004,0,28.453,12.444,28.453,27.551C353.814,268.443,341.365,280.89,325.361,280.89z M333.363,455.111c0-11.556-17.775-11.556-17.775,0v53.331c0,10.667,17.775,10.667,17.775,0V455.111z M334.259,242.669 c0-11.562-16.898-11.562-16.898,0v19.554c0,11.554,16.898,11.554,16.898,0V242.669z M367.143,455.111 c0-11.556-16.877-11.556-16.877,0v53.331c0,10.667,16.877,10.667,16.877,0V455.111z M368.035,291.556 c-13.34,12.441,27.542,72.889,27.542,72.889s40.9-60.448,28.46-72.889C401.823,269.328,389.365,269.328,368.035,291.556z M440.922,456.004c0-11.559-16.885-11.559-16.885,0v53.33c0,10.665,16.885,10.665,16.885,0V456.004z M432.913,244.441 c-10.658-0.887-12.44,16.005-0.883,16.89l53.338,3.556c11.558,0.892,12.44-16.003,0.883-16.89L432.913,244.441z M475.594,456.004 c0-11.559-16.885-11.559-16.885,0v53.33c0,10.665,16.885,10.665,16.885,0V456.004z M509.365,456.004 c0-11.559-16.886-11.559-16.886,0v53.33c0,10.665,16.886,10.665,16.886,0V456.004z"/></g></g></svg>