<?xml version="1.0" encoding="UTF-8" standalone="no"?>
<svg xmlns="http://www.w3.org/2000/svg" width="24" height="24"><path d="M11.440 1.023 C 11.363 1.032,11.129 1.059,10.920 1.084 C 9.582 1.239,8.127 1.861,7.006 2.759 C 6.067 3.510,5.323 4.445,4.800 5.529 C 3.453 8.317,3.837 11.625,5.789 14.040 C 6.075 14.394,6.761 15.067,7.100 15.326 C 7.786 15.849,8.667 16.319,9.457 16.582 C 9.896 16.729,10.714 16.920,10.900 16.920 L 11.000 16.920 11.000 18.720 L 11.000 20.520 10.379 20.520 C 9.691 20.520,9.593 20.543,9.341 20.765 C 8.893 21.158,8.897 21.838,9.348 22.245 C 9.636 22.504,9.591 22.500,12.000 22.500 C 14.409 22.500,14.364 22.504,14.652 22.245 C 15.103 21.838,15.107 21.158,14.659 20.765 C 14.407 20.543,14.309 20.520,13.621 20.520 L 13.000 20.520 13.000 18.720 L 13.000 16.920 13.100 16.920 C 13.286 16.920,14.104 16.729,14.543 16.582 C 15.333 16.319,16.214 15.849,16.900 15.326 C 17.239 15.067,17.925 14.394,18.211 14.040 C 19.356 12.623,19.999 10.811,19.999 9.000 C 19.999 6.248,18.555 3.658,16.210 2.204 C 15.309 1.645,14.270 1.261,13.218 1.099 C 12.827 1.039,11.714 0.991,11.440 1.023 M13.041 3.097 C 14.371 3.333,15.638 4.046,16.506 5.045 C 17.229 5.879,17.707 6.879,17.909 7.980 C 17.999 8.468,17.999 9.532,17.909 10.020 C 17.805 10.587,17.653 11.064,17.423 11.545 C 16.584 13.296,15.102 14.462,13.174 14.887 C 12.603 15.013,11.397 15.013,10.826 14.887 C 8.341 14.339,6.548 12.496,6.090 10.020 C 6.000 9.531,6.000 8.469,6.090 7.980 C 6.394 6.335,7.309 4.928,8.660 4.025 C 9.725 3.313,10.873 2.981,12.140 3.019 C 12.448 3.029,12.853 3.063,13.041 3.097 M9.664 5.063 C 9.436 5.146,9.257 5.297,9.131 5.511 L 9.020 5.700 9.009 8.912 C 9.002 11.065,9.012 12.176,9.040 12.281 C 9.101 12.506,9.312 12.761,9.531 12.874 C 9.932 13.080,10.390 13.012,10.700 12.702 C 10.979 12.423,11.000 12.309,11.000 11.073 L 11.000 10.000 12.000 10.000 L 13.000 10.000 13.000 11.070 C 13.000 11.684,13.018 12.204,13.042 12.289 C 13.103 12.509,13.315 12.762,13.531 12.874 C 13.932 13.080,14.390 13.012,14.700 12.702 C 15.013 12.389,15.000 12.546,15.000 9.000 C 15.000 5.454,15.013 5.611,14.700 5.298 C 14.390 4.988,13.932 4.920,13.531 5.126 C 13.315 5.238,13.103 5.491,13.042 5.711 C 13.018 5.796,13.000 6.316,13.000 6.930 L 13.000 8.000 12.000 8.000 L 11.000 8.000 11.000 6.927 C 11.000 5.692,10.979 5.577,10.701 5.299 C 10.429 5.027,10.018 4.933,9.664 5.063" stroke="none" fill-rule="evenodd"/></svg>