<?xml version="1.0" encoding="UTF-8" standalone="no"?>
<svg xmlns="http://www.w3.org/2000/svg" width="24" height="24"><path d="M5.040 3.027 C 4.614 3.050,4.072 3.127,3.795 3.204 C 2.977 3.431,2.161 4.046,1.662 4.811 C 1.281 5.396,1.121 5.901,1.042 6.760 C 0.986 7.379,0.986 16.608,1.042 17.252 C 1.164 18.645,1.736 19.634,2.831 20.350 C 3.400 20.722,3.919 20.884,4.780 20.958 C 5.435 21.014,18.565 21.014,19.220 20.958 C 20.088 20.883,20.596 20.724,21.189 20.339 C 21.867 19.899,22.480 19.136,22.723 18.430 C 22.982 17.677,22.975 17.846,22.991 12.360 C 23.005 7.310,22.992 6.710,22.857 6.051 C 22.574 4.669,21.381 3.458,20.009 3.160 C 19.805 3.115,19.382 3.061,19.069 3.040 C 18.567 3.006,5.649 2.994,5.040 3.027 M19.460 5.075 C 19.592 5.101,19.799 5.171,19.920 5.231 C 20.203 5.370,20.630 5.797,20.769 6.080 C 20.980 6.509,20.980 6.497,20.980 12.000 C 20.980 17.505,20.980 17.494,20.769 17.918 C 20.629 18.199,20.307 18.545,20.031 18.711 C 19.556 18.996,20.040 18.980,12.000 18.980 C 3.960 18.980,4.444 18.996,3.969 18.711 C 3.693 18.545,3.371 18.199,3.231 17.918 C 3.020 17.494,3.020 17.505,3.020 12.000 C 3.020 6.526,3.021 6.510,3.223 6.092 C 3.432 5.661,3.949 5.218,4.360 5.120 C 4.470 5.094,4.726 5.058,4.930 5.041 C 5.564 4.988,19.181 5.020,19.460 5.075 M7.664 6.063 C 7.436 6.146,7.257 6.297,7.131 6.511 C 7.023 6.695,7.020 6.718,7.007 7.404 C 6.992 8.196,7.019 8.354,7.211 8.606 C 7.678 9.218,8.688 9.062,8.934 8.340 C 9.028 8.062,9.028 6.938,8.934 6.660 C 8.764 6.160,8.165 5.879,7.664 6.063 M7.617 10.577 C 7.415 10.665,7.193 10.886,7.094 11.100 C 7.008 11.285,7.001 11.351,7.001 12.000 C 7.001 12.650,7.008 12.714,7.094 12.900 C 7.145 13.010,7.260 13.165,7.348 13.245 C 7.845 13.693,8.616 13.522,8.906 12.900 C 8.992 12.714,8.999 12.650,8.999 12.000 C 8.999 11.351,8.992 11.285,8.906 11.100 C 8.804 10.882,8.581 10.662,8.374 10.575 C 8.208 10.505,7.778 10.506,7.617 10.577 M7.664 15.063 C 7.436 15.146,7.257 15.297,7.131 15.511 C 7.023 15.695,7.020 15.718,7.007 16.404 C 6.992 17.196,7.019 17.354,7.211 17.606 C 7.678 18.218,8.688 18.062,8.934 17.340 C 9.028 17.062,9.028 15.938,8.934 15.660 C 8.764 15.160,8.165 14.879,7.664 15.063" stroke="none" fill-rule="evenodd"/></svg>