<?xml version="1.0" encoding="UTF-8" standalone="no"?>
<svg xmlns="http://www.w3.org/2000/svg" width="32" height="32" viewBox="0 0 32 32" fill="none"><rect x="0.695557" y="0.695312" width="30.6095" height="30.6095" rx="12.3913" fill="#005262"/><path fill-rule="evenodd" clip-rule="evenodd" d="M11.1304 0H20.8696C27.0168 0 32 4.98324 32 11.1304V20.8696C32 27.0168 27.0168 32 20.8696 32H11.1304C4.98324 32 0 27.0168 0 20.8696V11.1304C0 4.98324 4.98324 0 11.1304 0ZM30.6081 11.1297C30.602 5.75348 26.2452 1.39668 20.869 1.39062H11.1297C5.75348 1.39668 1.39668 5.75348 1.39062 11.1297V20.869C1.39668 26.2452 5.75348 30.602 11.1297 30.6081H20.869C26.2452 30.602 30.602 26.2452 30.6081 20.869V11.1297Z" fill="white"/><path d="M28 17.7956C28 14.8307 23.9345 15.837 23.9345 13.9167C23.9345 12.9507 24.6954 12.7412 25.6705 12.7412C26.2401 12.7323 26.8056 12.8258 27.3306 13.0155L27.7113 11.7488C27.0107 11.5877 26.2889 11.5044 25.5636 11.501C23.7058 11.501 22 12.2711 22 14.0339C22 17.0645 26.0048 15.9411 26.0048 17.9127C26.0048 18.9835 25.0156 19.2713 23.965 19.2713C23.2995 19.2773 22.6402 19.1615 22.0311 18.9316L22 20.251C22.727 20.4317 23.4821 20.5154 24.2388 20.499C26.1878 20.499 28 19.663 28 17.7956Z" fill="white"/><path d="M19.9696 17.1472V11.501H18.1421V17.0411C18.1421 18.1415 17.8224 19.1491 16.5025 19.1491C15.1974 19.1491 14.8629 18.1415 14.8629 17.0411V11.501H13.0359V17.1472C13 18.5 13.1989 18.9382 13.8763 19.5909C14.5537 20.2435 15.5227 20.5743 16.5025 20.4873C17.4791 20.5629 18.4404 20.2286 19.1149 19.5788C19.7894 18.929 20 18 19.9696 17.1472Z" fill="white"/><path fill-rule="evenodd" clip-rule="evenodd" d="M9.08798 15.7531C10.2359 15.8511 11.1217 16.8047 11.1352 17.9566L11.1356 17.9578C11.1505 18.7392 10.8348 19.4906 10.2662 20.0268C9.69752 20.563 8.92889 20.8341 8.14968 20.7734H4.92188V11.29H7.95028C9.49991 11.29 10.78 11.9015 10.794 13.6217C10.7813 14.6393 10.0781 15.5179 9.08798 15.7531ZM9.00323 13.8481C9.02978 14.2253 8.88839 14.595 8.61689 14.8582C8.34539 15.1214 7.97151 15.2513 7.5953 15.2131H6.71387V12.6396H7.72329C8.06279 12.5902 8.4062 12.6989 8.65557 12.9345C8.90495 13.1701 9.03318 13.5063 9.00323 13.8481ZM9.3017 17.9137C9.35066 18.3076 9.2214 18.7028 8.94915 18.9916C8.67689 19.2805 8.29001 19.4329 7.8939 19.4073H6.71387V16.5496H7.9368C8.30494 16.5277 8.66486 16.6644 8.92574 16.925C9.18662 17.1857 9.32327 17.5455 9.3017 17.9137Z" fill="white"/></svg>