<?xml version="1.0" encoding="UTF-8" standalone="no"?>
<svg xmlns="http://www.w3.org/2000/svg" width="24" height="24"><path d="M4.378 1.058 C 3.145 1.250,2.033 2.051,1.463 3.160 C 0.175 5.666,1.768 8.639,4.575 8.965 C 7.070 9.255,9.255 7.070,8.965 4.575 C 8.700 2.291,6.634 0.707,4.378 1.058 M5.492 3.060 C 5.852 3.153,6.118 3.310,6.404 3.596 C 6.807 3.999,7.000 4.454,7.000 5.000 C 7.000 5.546,6.807 6.001,6.404 6.404 C 6.001 6.807,5.546 7.000,5.000 7.000 C 4.454 7.000,3.999 6.807,3.596 6.404 C 3.193 6.001,3.000 5.546,3.000 5.000 C 3.000 4.454,3.193 3.999,3.596 3.596 C 4.000 3.191,4.429 3.008,4.982 3.003 C 5.136 3.001,5.366 3.027,5.492 3.060 M11.240 4.037 C 10.952 4.125,10.686 4.361,10.575 4.626 C 10.504 4.795,10.504 5.205,10.575 5.374 C 10.654 5.562,10.866 5.791,11.056 5.892 C 11.212 5.975,11.286 5.980,12.600 6.006 C 13.398 6.021,14.053 6.051,14.154 6.077 C 14.655 6.207,14.920 6.535,14.920 7.028 C 14.920 7.168,14.890 7.234,14.748 7.409 C 14.361 7.886,13.685 8.393,9.380 11.439 C 4.649 14.786,4.101 15.206,3.581 15.880 C 3.202 16.371,3.072 16.708,3.001 17.380 C 2.925 18.098,3.056 18.698,3.402 19.215 C 3.979 20.078,4.599 20.335,6.360 20.440 C 7.216 20.491,9.139 20.491,9.323 20.440 C 9.511 20.388,9.781 20.152,9.890 19.946 C 10.013 19.714,10.013 19.286,9.890 19.054 C 9.781 18.847,9.508 18.610,9.322 18.560 C 9.244 18.540,8.478 18.504,7.620 18.482 C 6.203 18.445,5.465 18.388,5.228 18.298 C 5.122 18.257,4.960 17.952,4.960 17.792 C 4.960 17.365,4.996 17.283,5.328 16.937 C 5.846 16.397,6.316 16.047,10.680 12.960 C 14.723 10.100,15.304 9.668,15.915 9.071 C 16.666 8.337,16.903 7.831,16.896 6.980 C 16.892 6.448,16.821 6.157,16.574 5.644 C 16.422 5.329,16.336 5.212,16.046 4.921 C 15.315 4.190,14.545 3.997,12.380 4.004 C 11.808 4.005,11.295 4.021,11.240 4.037 M16.619 12.078 C 16.351 12.166,16.098 12.361,15.925 12.614 C 15.753 12.865,11.329 20.695,11.164 21.040 C 11.035 21.310,11.021 21.372,11.024 21.660 C 11.027 22.044,11.115 22.269,11.366 22.542 C 11.576 22.770,11.829 22.902,12.164 22.960 C 12.343 22.990,13.870 23.000,17.220 22.992 L 22.020 22.980 22.258 22.884 C 22.541 22.770,22.821 22.506,22.962 22.220 C 23.044 22.053,23.060 21.961,23.060 21.660 C 23.060 21.329,23.048 21.276,22.916 21.000 C 22.711 20.573,18.344 12.867,18.152 12.593 C 17.799 12.090,17.199 11.888,16.619 12.078 M19.189 17.852 C 20.256 19.739,21.122 21.291,21.112 21.302 C 21.101 21.312,19.263 21.316,17.026 21.310 L 12.960 21.300 14.612 18.380 C 15.521 16.774,16.441 15.148,16.657 14.766 L 17.049 14.072 17.148 14.246 C 17.202 14.342,18.121 15.964,19.189 17.852 M16.720 16.301 C 16.538 16.384,16.371 16.543,16.276 16.728 C 16.211 16.856,16.200 16.964,16.201 17.508 C 16.202 18.038,16.214 18.167,16.276 18.304 C 16.564 18.937,17.457 18.969,17.800 18.358 C 17.895 18.188,17.900 18.150,17.900 17.520 C 17.900 16.890,17.895 16.852,17.800 16.682 C 17.650 16.415,17.426 16.275,17.115 16.255 C 16.938 16.243,16.817 16.257,16.720 16.301 M16.655 19.298 C 16.366 19.445,16.228 19.655,16.207 19.979 C 16.164 20.660,16.825 21.083,17.443 20.770 C 17.887 20.545,18.033 20.058,17.788 19.621 C 17.572 19.236,17.063 19.091,16.655 19.298" stroke="none" fill-rule="evenodd"/></svg>