<?xml version="1.0" encoding="UTF-8" standalone="no"?>
<svg xmlns="http://www.w3.org/2000/svg" width="24" height="24"><path d="M16.717 1.052 C 16.617 1.081,16.446 1.155,16.337 1.217 C 16.201 1.294,13.825 3.645,8.715 8.755 C 1.635 15.835,1.283 16.193,1.155 16.459 C 1.032 16.713,1.020 16.771,1.020 17.099 C 1.020 17.424,1.033 17.488,1.152 17.740 C 1.276 18.004,1.422 18.158,3.632 20.368 C 5.842 22.578,5.996 22.724,6.260 22.848 C 6.513 22.967,6.575 22.980,6.900 22.979 C 7.568 22.978,6.766 23.721,15.212 15.284 C 21.971 8.531,22.736 7.755,22.847 7.530 C 23.067 7.085,23.039 6.537,22.773 6.105 C 22.717 6.014,21.625 4.894,20.346 3.615 C 18.231 1.501,17.996 1.279,17.756 1.162 C 17.445 1.012,17.018 0.967,16.717 1.052 M13.850 13.850 L 6.900 20.800 5.050 18.950 L 3.200 17.100 4.018 16.282 L 4.837 15.463 5.589 16.205 C 6.224 16.832,6.371 16.957,6.537 17.013 C 6.917 17.142,7.257 17.081,7.539 16.833 C 7.766 16.633,7.880 16.395,7.880 16.122 C 7.880 15.692,7.849 15.645,7.024 14.809 L 6.262 14.038 7.091 13.210 L 7.919 12.381 8.689 13.145 C 9.370 13.819,9.482 13.914,9.649 13.959 C 10.109 14.083,10.554 13.914,10.786 13.528 C 10.951 13.252,10.984 13.022,10.899 12.729 C 10.837 12.514,10.788 12.455,10.097 11.759 C 9.691 11.351,9.360 11.000,9.360 10.979 C 9.360 10.928,10.928 9.360,10.978 9.360 C 11.000 9.360,11.351 9.691,11.759 10.097 C 12.455 10.788,12.514 10.837,12.729 10.899 C 13.022 10.984,13.252 10.951,13.528 10.786 C 13.914 10.554,14.083 10.109,13.959 9.649 C 13.914 9.482,13.819 9.370,13.145 8.689 L 12.381 7.919 13.210 7.091 L 14.038 6.262 14.809 7.027 C 15.516 7.728,15.598 7.797,15.797 7.856 C 16.065 7.935,16.133 7.936,16.384 7.861 C 16.797 7.738,17.086 7.342,17.086 6.898 C 17.086 6.521,16.990 6.379,16.191 5.573 L 15.463 4.838 16.281 4.019 L 17.099 3.200 18.950 5.050 L 20.800 6.900 13.850 13.850" stroke="none" fill-rule="evenodd"/></svg>