<?xml version="1.0" encoding="UTF-8" standalone="no"?>
<svg xmlns="http://www.w3.org/2000/svg" width="24" height="24"><path fill-rule="evenodd" d="M11.512 2.127a1 1 0 0 1 1.012.021l5.346 3.29c.169.104.35.215.491.322.146.109.39.31.525.64a1.5 1.5 0 0 1-.035 1.22 1.54 1.54 0 0 1-.56.61 7 7 0 0 1-.51.293l-.03.016L13 11.097V17a1 1 0 1 1-2 0V3a1 1 0 0 1 .512-.873M13 8.826l3.498-1.884L13 4.79zM8.981 13.18a1 1 0 0 1-.788 1.175c-1.682.33-3.044.862-3.958 1.479C3.298 16.466 3 17.06 3 17.5c0 .604.592 1.484 2.34 2.27C6.991 20.514 9.345 21 12 21s5.008-.486 6.66-1.23c1.748-.786 2.34-1.666 2.34-2.27 0-.44-.298-1.034-1.235-1.665-.914-.617-2.276-1.149-3.958-1.48a1 1 0 0 1 .386-1.962c1.85.364 3.488.972 4.69 1.784C22.065 14.973 23 16.095 23 17.5c0 1.881-1.646 3.251-3.519 4.094C17.515 22.479 14.87 23 12 23c-2.87 0-5.515-.521-7.481-1.406C2.646 20.75 1 19.38 1 17.5c0-1.405.936-2.527 2.116-3.323 1.203-.812 2.84-1.42 4.691-1.784a1 1 0 0 1 1.174.788" clip-rule="evenodd"/></svg>