<?xml version="1.0" encoding="UTF-8" standalone="no"?>
<svg xmlns="http://www.w3.org/2000/svg" width="24" height="24"><path d="M3.900 3.026 C 3.521 3.058,3.122 3.135,2.889 3.223 C 2.133 3.507,1.420 4.248,1.183 4.997 C 1.037 5.460,1.000 5.946,1.000 7.388 C 1.001 8.685,1.002 8.702,1.095 8.900 C 1.207 9.136,1.401 9.331,1.611 9.419 C 1.694 9.454,1.937 9.499,2.151 9.520 C 2.589 9.562,2.799 9.617,3.125 9.778 C 3.608 10.015,3.984 10.397,4.237 10.908 C 4.562 11.563,4.563 12.435,4.239 13.088 C 4.006 13.558,3.759 13.833,3.309 14.124 C 2.991 14.329,2.658 14.433,2.108 14.497 C 1.501 14.567,1.270 14.708,1.083 15.120 C 1.007 15.289,1.002 15.379,1.001 16.612 C 1.000 18.053,1.037 18.540,1.183 19.003 C 1.432 19.791,2.209 20.568,2.997 20.817 C 3.166 20.870,3.479 20.933,3.691 20.957 C 4.229 21.017,19.771 21.017,20.309 20.957 C 20.831 20.899,21.250 20.760,21.605 20.526 C 22.396 20.006,22.840 19.287,22.956 18.340 C 23.016 17.846,23.014 15.397,22.954 15.194 C 22.928 15.109,22.847 14.969,22.773 14.883 C 22.546 14.617,22.407 14.557,21.892 14.497 C 21.184 14.414,20.761 14.240,20.310 13.843 C 19.993 13.565,19.686 13.038,19.581 12.592 C 19.315 11.464,19.861 10.276,20.875 9.778 C 21.201 9.617,21.411 9.562,21.849 9.520 C 22.063 9.499,22.306 9.454,22.389 9.419 C 22.599 9.331,22.793 9.136,22.905 8.900 C 22.998 8.702,22.999 8.685,23.000 7.388 C 23.000 5.946,22.963 5.460,22.817 4.997 C 22.586 4.268,21.887 3.527,21.155 3.238 C 20.586 3.013,21.087 3.025,12.220 3.018 C 7.732 3.015,3.988 3.018,3.900 3.026 M20.374 5.074 C 20.589 5.147,20.863 5.432,20.925 5.646 C 20.957 5.759,20.975 6.131,20.977 6.713 L 20.980 7.606 20.640 7.716 C 20.224 7.852,19.792 8.066,19.417 8.325 C 19.075 8.561,18.516 9.127,18.282 9.475 C 18.034 9.843,17.779 10.404,17.651 10.862 C 17.548 11.231,17.540 11.313,17.540 12.000 C 17.540 12.687,17.548 12.769,17.651 13.138 C 17.881 13.961,18.286 14.642,18.893 15.228 C 19.443 15.759,19.936 16.057,20.640 16.284 L 20.980 16.394 20.977 17.287 C 20.975 17.869,20.957 18.241,20.925 18.354 C 20.864 18.567,20.594 18.848,20.376 18.925 C 20.143 19.007,3.857 19.007,3.624 18.925 C 3.406 18.848,3.136 18.567,3.075 18.354 C 3.043 18.241,3.025 17.869,3.023 17.287 L 3.020 16.394 3.366 16.283 C 4.732 15.842,5.801 14.790,6.264 13.428 C 6.563 12.549,6.563 11.451,6.264 10.572 C 5.803 9.216,4.730 8.161,3.360 7.717 L 3.020 7.607 3.009 6.933 C 2.994 6.075,3.044 5.638,3.180 5.433 C 3.328 5.210,3.545 5.082,3.845 5.043 C 3.985 5.024,7.727 5.012,12.160 5.015 C 18.675 5.020,20.250 5.032,20.374 5.074 M9.664 6.063 C 9.436 6.146,9.257 6.297,9.131 6.511 C 9.023 6.695,9.020 6.718,9.007 7.404 C 8.992 8.196,9.019 8.354,9.211 8.606 C 9.570 9.076,10.280 9.122,10.700 8.702 C 10.955 8.447,11.000 8.266,11.000 7.500 C 11.000 6.734,10.955 6.553,10.701 6.299 C 10.429 6.027,10.018 5.933,9.664 6.063 M9.617 10.577 C 9.415 10.665,9.193 10.886,9.094 11.100 C 9.008 11.285,9.001 11.351,9.001 12.000 C 9.001 12.650,9.008 12.714,9.094 12.900 C 9.145 13.010,9.260 13.165,9.348 13.245 C 9.845 13.693,10.616 13.522,10.906 12.900 C 10.992 12.714,10.999 12.650,10.999 12.000 C 10.999 11.351,10.992 11.285,10.906 11.100 C 10.804 10.882,10.581 10.662,10.374 10.575 C 10.208 10.505,9.778 10.506,9.617 10.577 M9.664 15.063 C 9.436 15.146,9.257 15.297,9.131 15.511 C 9.023 15.695,9.020 15.718,9.007 16.404 C 8.992 17.196,9.019 17.354,9.211 17.606 C 9.570 18.076,10.280 18.122,10.700 17.702 C 10.955 17.447,11.000 17.266,11.000 16.500 C 11.000 15.734,10.955 15.553,10.701 15.299 C 10.429 15.027,10.018 14.933,9.664 15.063" stroke="none" fill-rule="evenodd"/></svg>