<?xml version="1.0" encoding="UTF-8" standalone="no"?>
<svg xmlns="http://www.w3.org/2000/svg" width="24" height="24"><path fill-rule="evenodd" d="M2.293 1.293a1 1 0 0 1 1.023-.242l3 1A1 1 0 0 1 7 3v2.586l3.11 3.11a6.5 6.5 0 0 1 9.651-6.82 1 1 0 0 1 .205 1.572l-2.628 2.628c-.21.21-.323.325-.4.414l-.008.01.009.01c.076.09.19.205.4.414l.237.238A8 8 0 0 0 18 7.57l.01-.009c.09-.076.205-.19.414-.4l2.458-2.457a1 1 0 0 1 1.632.327 6.503 6.503 0 0 1-4.322 8.747l3.015 3.015a3.121 3.121 0 1 1-4.414 4.414L12 16.414l-4.793 4.793a3.121 3.121 0 1 1-4.414-4.414L9.086 10.5 5.586 7H3a1 1 0 0 1-.949-.684l-1-3a1 1 0 0 1 .242-1.023zM5 5V3.72l-1.73-.576-.126.126L3.721 5zm6.206 6.208-6.999 7a1.121 1.121 0 0 0 1.586 1.585l7.157-7.157.058-.058.128-.128.097-.097a2 2 0 0 1 .476-.354c.097-.053.216-.11.36-.154a2 2 0 0 1 .45-.078c.27-.022.538.005.787.073q.156.043.316.075h.001l.059.011A4.5 4.5 0 0 0 16.5 12 4.5 4.5 0 0 0 21 7.415l-1.184 1.183c-.178.179-.352.353-.511.488a2 2 0 0 1-.687.402 2 2 0 0 1-1.236 0 2 2 0 0 1-.687-.402 9 9 0 0 1-.51-.488l-.283-.282c-.179-.178-.353-.352-.488-.511a2 2 0 0 1-.402-.687 2 2 0 0 1 0-1.236c.094-.29.254-.512.402-.686.135-.16.31-.333.488-.512l1.577-1.577a4.5 4.5 0 0 0-5.394 5.27l.004.018c.045.228.084.426.109.584.023.15.051.356.03.567-.01.11-.029.24-.073.385a2 2 0 0 1-.153.36c-.144.268-.382.505-.58.701l-.058.058-.157.157zM13.414 15l4.793 4.793a1.121 1.121 0 0 0 1.586-1.586l-4.282-4.282a7 7 0 0 1-.275-.048 16 16 0 0 0-.584-.108l-.012.011a9 9 0 0 0-.267.262l-.009.008z" clip-rule="evenodd"/></svg>