<?xml version="1.0" encoding="UTF-8" standalone="no"?>
<svg xmlns="http://www.w3.org/2000/svg" width="24" height="24"><path fill-rule="evenodd" d="M12 3a9 9 0 1 0 0 18 9 9 0 0 0 0-18M1 12C1 5.925 5.925 1 12 1s11 4.925 11 11-4.925 11-11 11S1 18.075 1 12m7-2a4 4 0 1 1 6.704 2.948l.894 2.683.009.027c.051.154.108.325.144.477.04.165.085.43.01.73a1.5 1.5 0 0 1-.648.9c-.261.166-.527.206-.696.221a6 6 0 0 1-.498.014h-3.838c-.162 0-.343 0-.498-.014a1.5 1.5 0 0 1-.696-.221 1.5 1.5 0 0 1-.648-.9c-.075-.3-.03-.565.01-.73.036-.152.093-.324.144-.477l.01-.027.893-2.683-.02-.02A4 4 0 0 1 8 10m4-2a2 2 0 0 0-1.362 3.465l.013.012c.095.088.19.176.263.25a1.483 1.483 0 0 1 .414.702 1.5 1.5 0 0 1-.016.78c-.025.091-.059.194-.09.286L10.388 16h3.226l-.836-2.505c-.03-.092-.064-.195-.09-.286a1.53 1.53 0 0 1-.015-.78 1.5 1.5 0 0 1 .414-.701c.074-.075.168-.163.263-.251l.013-.012A2 2 0 0 0 12 8" clip-rule="evenodd"/></svg>