<?xml version="1.0" encoding="UTF-8" standalone="no"?>
<svg xmlns="http://www.w3.org/2000/svg" width="24" height="24"><path d="M11.069 1.039 C 8.847 1.255,6.838 2.058,5.120 3.417 C 4.733 3.723,3.723 4.733,3.417 5.120 C 0.644 8.627,0.228 13.415,2.362 17.286 C 3.226 18.855,4.423 20.160,5.890 21.135 C 6.532 21.562,6.702 21.640,6.991 21.640 C 7.270 21.640,7.460 21.570,7.661 21.394 C 8.161 20.955,8.073 20.147,7.487 19.795 C 5.944 18.866,4.775 17.634,4.002 16.120 C 3.526 15.187,3.273 14.413,3.094 13.340 C 2.991 12.726,2.991 11.286,3.094 10.660 C 3.357 9.052,4.031 7.527,5.008 6.330 C 5.833 5.319,6.848 4.513,8.020 3.938 C 8.906 3.503,9.686 3.254,10.660 3.094 C 11.279 2.992,12.721 2.992,13.340 3.094 C 14.976 3.362,16.534 4.059,17.720 5.053 C 19.227 6.316,20.270 7.969,20.738 9.837 C 20.927 10.591,20.977 11.041,20.979 11.980 C 20.980 12.976,20.926 13.422,20.698 14.307 C 20.548 14.885,20.528 15.154,20.619 15.370 C 20.750 15.685,21.076 15.939,21.407 15.984 C 21.796 16.038,22.258 15.795,22.421 15.453 C 22.514 15.255,22.698 14.568,22.795 14.047 C 22.936 13.299,22.974 12.843,22.974 11.920 C 22.974 11.192,22.957 10.909,22.885 10.440 C 22.577 8.428,21.827 6.701,20.566 5.100 C 20.282 4.739,19.261 3.718,18.900 3.434 C 17.301 2.174,15.553 1.414,13.580 1.121 C 12.946 1.026,11.639 0.984,11.069 1.039 M11.673 5.063 C 11.552 5.100,11.421 5.185,11.304 5.303 C 10.993 5.614,11.000 5.538,11.000 8.446 L 11.000 10.997 9.110 11.009 C 7.253 11.020,7.217 11.022,7.056 11.108 C 6.866 11.210,6.653 11.438,6.575 11.626 C 6.504 11.795,6.504 12.205,6.575 12.374 C 6.653 12.562,6.866 12.790,7.056 12.892 C 7.219 12.979,7.236 12.980,9.656 12.991 C 12.444 13.004,12.384 13.010,12.696 12.697 C 13.012 12.382,13.000 12.526,13.000 9.000 C 13.000 5.475,13.012 5.618,12.697 5.303 C 12.418 5.024,12.067 4.942,11.673 5.063 M15.601 11.062 C 15.113 11.198,14.848 11.441,14.404 12.156 C 13.314 13.913,9.251 20.616,9.173 20.784 C 9.023 21.112,8.979 21.403,9.036 21.709 C 9.146 22.308,9.520 22.727,10.105 22.908 C 10.327 22.976,10.648 22.980,16.000 22.980 C 21.384 22.980,21.672 22.976,21.899 22.906 C 22.854 22.612,23.251 21.639,22.791 20.718 C 22.602 20.341,17.407 11.829,17.240 11.624 C 16.832 11.123,16.181 10.899,15.601 11.062 M18.333 17.190 L 20.642 20.980 18.321 20.990 C 17.044 20.996,14.956 20.996,13.679 20.990 L 11.358 20.980 13.667 17.190 C 14.937 15.105,15.986 13.400,15.999 13.400 C 16.013 13.400,17.063 15.105,18.333 17.190 M15.673 15.063 C 15.412 15.143,15.140 15.421,15.061 15.690 C 14.976 15.974,14.976 17.026,15.061 17.310 C 15.173 17.688,15.598 18.000,16.000 18.000 C 16.402 18.000,16.827 17.688,16.939 17.310 C 17.024 17.026,17.024 15.974,16.939 15.690 C 16.856 15.411,16.589 15.144,16.310 15.061 C 16.062 14.987,15.919 14.988,15.673 15.063 M15.617 18.577 C 15.434 18.656,15.207 18.871,15.109 19.056 C 14.988 19.285,14.988 19.715,15.109 19.944 C 15.209 20.134,15.437 20.346,15.626 20.425 C 15.802 20.499,16.207 20.495,16.391 20.418 C 16.730 20.277,16.999 19.870,16.999 19.500 C 16.999 19.130,16.730 18.723,16.391 18.582 C 16.210 18.506,15.785 18.503,15.617 18.577" stroke="none" fill-rule="evenodd"/></svg>