<?xml version="1.0" encoding="UTF-8" standalone="no"?>
<svg xmlns="http://www.w3.org/2000/svg" width="24" height="24"><path d="M15.656 2.043 C 15.480 2.094,15.162 2.388,15.075 2.578 C 14.975 2.800,14.978 3.168,15.083 3.400 C 15.143 3.532,15.487 3.903,16.371 4.790 L 17.578 6.000 10.714 6.000 C 3.228 6.000,3.683 5.986,3.374 6.222 C 3.301 6.277,3.192 6.408,3.131 6.511 C 3.036 6.672,3.020 6.744,3.020 7.000 C 3.020 7.256,3.036 7.328,3.131 7.489 C 3.192 7.592,3.301 7.723,3.374 7.778 C 3.683 8.014,3.228 8.000,10.714 8.000 L 17.577 8.000 16.352 9.230 C 15.196 10.391,15.124 10.472,15.064 10.677 C 14.984 10.948,14.984 11.012,15.064 11.283 C 15.156 11.590,15.419 11.849,15.735 11.940 C 16.001 12.018,16.210 12.000,16.460 11.879 C 16.565 11.829,17.350 11.070,18.745 9.671 C 20.664 7.747,20.876 7.521,20.935 7.343 C 20.971 7.234,21.000 7.080,21.000 7.000 C 21.000 6.920,20.971 6.766,20.935 6.657 C 20.876 6.479,20.663 6.253,18.745 4.329 C 16.430 2.008,16.418 1.997,16.002 2.004 C 15.880 2.006,15.724 2.023,15.656 2.043 M7.578 12.099 C 7.427 12.174,6.870 12.709,5.255 14.329 C 3.337 16.253,3.124 16.479,3.065 16.657 C 3.029 16.766,3.000 16.920,3.000 17.000 C 3.000 17.080,3.029 17.234,3.065 17.343 C 3.124 17.521,3.336 17.747,5.255 19.671 C 6.650 21.070,7.435 21.829,7.540 21.879 C 7.790 22.000,7.999 22.018,8.265 21.940 C 8.581 21.849,8.844 21.590,8.936 21.283 C 9.016 21.012,9.016 20.948,8.936 20.677 C 8.876 20.472,8.804 20.391,7.648 19.230 L 6.423 18.000 13.284 18.000 C 20.989 18.000,20.377 18.025,20.701 17.701 C 21.092 17.310,21.092 16.690,20.701 16.299 C 20.377 15.975,20.989 16.000,13.284 16.000 L 6.422 16.000 7.629 14.790 C 8.951 13.464,8.998 13.402,8.998 12.980 C 8.998 12.669,8.903 12.462,8.661 12.249 C 8.350 11.975,7.939 11.918,7.578 12.099" stroke="none" fill-rule="evenodd"/></svg>