<?xml version="1.0" encoding="UTF-8" standalone="no"?>
<svg xmlns="http://www.w3.org/2000/svg" width="24" height="24"><path d="M11.571 1.696 C 11.171 1.827,10.919 2.042,10.671 2.468 C 10.597 2.595,10.026 3.735,9.403 5.000 C 8.780 6.265,8.259 7.312,8.245 7.327 C 8.231 7.341,7.032 7.527,5.580 7.739 C 4.128 7.951,2.859 8.144,2.760 8.168 C 2.278 8.283,1.838 8.650,1.677 9.072 C 1.577 9.335,1.557 9.767,1.632 10.026 C 1.735 10.376,1.990 10.658,3.788 12.408 C 4.773 13.368,5.657 14.232,5.750 14.329 L 5.921 14.504 5.474 17.082 C 4.959 20.046,4.934 20.316,5.126 20.727 C 5.457 21.432,6.222 21.762,6.945 21.511 C 7.101 21.456,8.294 20.851,9.597 20.166 C 10.900 19.481,11.981 18.920,12.000 18.920 C 12.019 18.920,13.100 19.481,14.403 20.166 C 15.706 20.851,16.899 21.456,17.055 21.511 C 17.778 21.762,18.543 21.432,18.874 20.727 C 19.065 20.320,19.038 20.047,18.525 17.082 L 18.079 14.504 18.250 14.329 C 18.343 14.232,19.227 13.368,20.212 12.408 C 22.010 10.658,22.265 10.376,22.368 10.026 C 22.443 9.767,22.423 9.335,22.323 9.072 C 22.162 8.650,21.722 8.283,21.240 8.168 C 21.141 8.144,19.872 7.951,18.420 7.739 C 16.968 7.527,15.768 7.341,15.754 7.327 C 15.740 7.312,15.219 6.265,14.597 5.000 C 13.975 3.735,13.403 2.594,13.327 2.464 C 13.124 2.116,12.942 1.936,12.652 1.793 C 12.436 1.687,12.337 1.663,12.066 1.653 C 11.865 1.645,11.675 1.662,11.571 1.696" stroke="none" fill-rule="evenodd"/></svg>