<?xml version="1.0" encoding="UTF-8" standalone="no"?>
<svg xmlns="http://www.w3.org/2000/svg" width="24" height="24"><path d="M13.447 3.065 C 13.148 3.175,12.988 3.371,12.698 3.983 C 12.375 4.663,12.327 4.865,12.414 5.166 C 12.511 5.500,12.698 5.686,13.152 5.903 C 13.365 6.004,13.544 6.092,13.550 6.097 C 13.555 6.102,13.330 6.591,13.051 7.183 C 12.587 8.165,12.540 8.283,12.528 8.520 C 12.516 8.743,12.531 8.812,12.627 9.000 C 12.727 9.195,12.975 9.438,13.123 9.488 C 13.152 9.497,12.687 10.521,11.908 12.162 C 9.308 17.643,8.526 19.250,8.396 19.384 C 8.063 19.728,7.488 19.800,6.526 19.620 C 5.868 19.497,5.751 19.507,5.445 19.712 C 4.834 20.123,4.877 21.072,5.522 21.401 C 5.605 21.443,5.904 21.527,6.187 21.586 C 6.628 21.678,6.795 21.693,7.380 21.693 C 7.954 21.693,8.110 21.680,8.380 21.606 C 9.197 21.383,9.774 20.964,10.216 20.270 C 10.346 20.066,11.977 16.676,14.195 12.000 L 14.963 10.380 15.295 10.380 C 15.594 10.380,15.645 10.368,15.822 10.259 C 15.930 10.192,16.066 10.066,16.123 9.979 C 16.181 9.891,16.440 9.367,16.700 8.813 L 17.173 7.807 17.396 7.909 C 17.814 8.099,18.012 8.139,18.260 8.083 C 18.636 7.999,18.783 7.853,19.071 7.280 C 19.428 6.568,19.492 6.382,19.467 6.135 C 19.443 5.890,19.318 5.630,19.150 5.477 C 19.081 5.414,17.943 4.854,16.555 4.199 C 14.368 3.167,14.055 3.031,13.851 3.017 C 13.703 3.007,13.558 3.024,13.447 3.065" stroke="none" fill-rule="evenodd"/></svg>