<?xml version="1.0" encoding="UTF-8" standalone="no"?>
<svg xmlns="http://www.w3.org/2000/svg" width="24" height="24"><path d="M6.300 1.046 C 6.124 1.065,5.791 1.128,5.560 1.185 C 3.111 1.791,1.309 3.858,1.041 6.368 C 0.985 6.898,0.985 17.102,1.041 17.632 C 1.341 20.438,3.562 22.659,6.368 22.959 C 6.898 23.015,17.102 23.015,17.632 22.959 C 20.438 22.659,22.659 20.438,22.959 17.632 C 22.985 17.384,23.000 15.340,23.000 12.000 C 23.000 8.660,22.985 6.616,22.959 6.368 C 22.659 3.562,20.438 1.341,17.632 1.041 C 17.151 0.990,6.767 0.994,6.300 1.046 M17.971 3.109 C 18.717 3.321,19.302 3.659,19.821 4.179 C 20.342 4.699,20.682 5.287,20.890 6.029 C 20.976 6.333,20.978 6.402,20.991 9.170 L 21.004 12.000 12.002 12.000 L 3.000 12.000 3.000 9.325 C 3.000 6.388,3.007 6.276,3.241 5.630 C 3.635 4.541,4.542 3.634,5.633 3.240 C 6.303 2.997,6.066 3.006,12.120 3.013 L 17.660 3.020 17.971 3.109 M11.586 4.064 C 10.577 4.246,9.668 4.919,9.186 5.839 C 8.856 6.468,8.725 7.134,8.799 7.794 C 8.959 9.200,9.863 10.293,11.240 10.744 C 11.551 10.846,11.632 10.856,12.200 10.857 C 12.931 10.859,13.138 10.814,13.740 10.521 C 14.852 9.980,15.570 8.907,15.663 7.647 C 15.695 7.223,15.614 6.709,15.441 6.237 C 14.877 4.690,13.237 3.766,11.586 4.064 M13.060 4.920 C 13.360 5.016,13.720 5.186,13.967 5.350 L 14.120 5.451 14.120 5.893 L 14.120 6.336 13.990 6.214 C 13.787 6.023,13.441 5.779,13.206 5.662 C 12.716 5.416,12.017 5.330,11.700 5.475 C 11.446 5.592,11.380 5.692,11.380 5.962 C 11.380 6.166,11.395 6.210,11.500 6.321 C 11.685 6.516,11.877 6.594,12.637 6.785 C 13.435 6.986,13.837 7.157,14.080 7.400 C 14.348 7.668,14.420 7.868,14.419 8.340 C 14.419 8.712,14.410 8.758,14.286 9.005 C 14.145 9.287,13.855 9.605,13.560 9.802 C 12.785 10.317,11.470 10.223,10.477 9.581 L 10.200 9.402 10.200 8.874 L 10.200 8.346 10.510 8.645 C 11.050 9.165,11.533 9.396,12.151 9.431 C 12.589 9.456,12.803 9.394,13.032 9.175 C 13.206 9.008,13.210 8.998,13.191 8.801 C 13.156 8.431,12.944 8.297,11.961 8.020 C 11.152 7.793,10.860 7.661,10.585 7.401 C 10.279 7.111,10.183 6.879,10.183 6.420 C 10.182 6.108,10.197 6.027,10.296 5.812 C 10.500 5.366,10.978 4.997,11.540 4.853 C 11.857 4.772,12.713 4.809,13.060 4.920 M9.220 13.419 C 9.593 13.521,10.165 13.821,10.464 14.072 C 10.810 14.362,11.080 14.692,11.080 14.823 C 11.080 15.133,10.741 15.338,10.467 15.194 C 10.419 15.169,10.245 15.021,10.080 14.864 C 9.580 14.390,9.010 14.159,8.344 14.161 C 6.128 14.165,5.013 16.841,6.573 18.412 C 7.349 19.194,8.467 19.372,9.480 18.874 C 9.756 18.739,9.885 18.641,10.162 18.359 C 10.523 17.993,10.621 17.920,10.759 17.920 C 10.908 17.920,11.084 18.040,11.144 18.183 C 11.217 18.358,11.167 18.487,10.904 18.810 C 10.518 19.282,9.861 19.702,9.217 19.888 C 8.803 20.008,7.929 20.016,7.520 19.905 C 6.576 19.647,5.778 18.996,5.360 18.140 C 5.078 17.563,5.024 17.328,5.022 16.660 C 5.021 16.194,5.035 16.048,5.111 15.788 C 5.283 15.191,5.571 14.702,5.999 14.278 C 6.443 13.838,7.020 13.525,7.660 13.377 C 7.976 13.304,8.888 13.328,9.220 13.419 M8.822 14.621 C 9.827 14.878,10.498 15.780,10.428 16.783 C 10.354 17.840,9.560 18.636,8.475 18.743 C 8.211 18.769,8.201 18.767,8.082 18.648 C 7.934 18.500,7.919 18.303,8.043 18.145 C 8.154 18.005,8.244 17.961,8.551 17.896 C 8.982 17.806,9.281 17.581,9.489 17.189 C 9.564 17.050,9.579 16.957,9.579 16.660 C 9.579 16.348,9.565 16.273,9.473 16.097 C 9.352 15.868,9.125 15.647,8.872 15.512 C 8.729 15.436,8.638 15.421,8.340 15.421 C 8.042 15.421,7.951 15.436,7.808 15.512 C 7.238 15.816,6.966 16.422,7.142 17.000 C 7.298 17.515,7.254 17.748,6.979 17.863 C 6.734 17.965,6.556 17.825,6.398 17.407 C 6.258 17.036,6.220 16.716,6.274 16.366 C 6.393 15.599,6.935 14.941,7.660 14.687 C 8.060 14.546,8.445 14.525,8.822 14.621 M12.121 15.240 C 12.163 15.263,12.369 15.528,12.581 15.830 C 12.792 16.133,12.981 16.380,13.000 16.380 C 13.019 16.380,13.208 16.133,13.419 15.830 C 13.631 15.528,13.837 15.263,13.879 15.240 C 14.003 15.174,14.118 15.194,14.223 15.300 L 14.323 15.400 14.312 16.678 C 14.301 17.830,14.293 17.964,14.231 18.027 C 14.127 18.130,13.887 18.118,13.795 18.004 C 13.728 17.921,13.720 17.835,13.720 17.170 L 13.720 16.429 13.470 16.783 C 13.332 16.978,13.170 17.165,13.110 17.199 C 13.011 17.254,12.989 17.254,12.890 17.199 C 12.830 17.165,12.668 16.978,12.530 16.783 L 12.280 16.429 12.280 17.170 C 12.280 17.835,12.272 17.921,12.205 18.004 C 12.101 18.132,11.859 18.132,11.755 18.004 C 11.685 17.918,11.680 17.823,11.680 16.654 L 11.680 15.396 11.778 15.298 C 11.883 15.194,11.997 15.174,12.121 15.240 M14.933 15.290 C 14.982 15.340,15.183 15.753,15.381 16.210 C 15.578 16.667,15.749 17.040,15.762 17.040 C 15.774 17.040,15.954 16.651,16.161 16.177 C 16.377 15.679,16.571 15.289,16.617 15.257 C 16.661 15.225,16.740 15.200,16.791 15.200 C 16.899 15.200,17.080 15.366,17.080 15.465 C 17.080 15.600,16.037 17.938,15.935 18.030 C 15.670 18.269,15.581 18.149,14.964 16.731 C 14.409 15.456,14.391 15.387,14.573 15.259 C 14.694 15.174,14.830 15.186,14.933 15.290 M17.692 15.290 C 17.748 15.342,17.940 15.732,18.145 16.209 C 18.340 16.665,18.511 17.038,18.524 17.039 C 18.538 17.040,18.714 16.657,18.917 16.190 C 19.120 15.723,19.323 15.308,19.367 15.270 C 19.412 15.232,19.493 15.200,19.546 15.200 C 19.662 15.200,19.840 15.365,19.840 15.472 C 19.840 15.615,18.803 17.935,18.696 18.030 C 18.575 18.138,18.478 18.144,18.364 18.050 C 18.233 17.942,17.193 15.540,17.224 15.417 C 17.278 15.205,17.528 15.137,17.692 15.290 M8.645 16.024 C 9.110 16.258,9.105 16.940,8.637 17.181 C 8.575 17.214,8.436 17.240,8.328 17.240 C 8.077 17.240,7.892 17.121,7.767 16.880 C 7.478 16.318,8.075 15.737,8.645 16.024" stroke="none" fill-rule="evenodd"/></svg>