<?xml version="1.0" encoding="UTF-8" standalone="no"?>
<svg xmlns="http://www.w3.org/2000/svg" width="24" height="24"><path d="M13.020 1.047 C 11.989 1.163,11.185 1.518,10.513 2.154 C 9.867 2.767,9.513 3.443,9.272 4.529 C 9.198 4.860,9.187 5.073,9.171 6.510 L 9.152 8.120 8.076 8.120 L 7.000 8.120 7.000 10.060 L 7.000 12.000 8.080 12.000 L 9.160 12.000 9.160 17.500 L 9.160 23.000 11.460 23.000 L 13.760 23.000 13.760 17.500 L 13.760 12.000 15.300 12.000 C 16.630 12.000,16.840 11.992,16.840 11.941 C 16.840 11.851,17.197 8.355,17.219 8.230 L 17.238 8.120 15.499 8.120 L 13.760 8.120 13.760 6.810 C 13.761 5.514,13.762 5.498,13.856 5.295 C 13.957 5.078,14.133 4.920,14.356 4.846 C 14.447 4.815,14.935 4.800,15.826 4.800 L 17.160 4.800 17.160 2.900 L 17.160 1.000 15.250 1.005 C 14.200 1.008,13.196 1.027,13.020 1.047" stroke="none" fill-rule="evenodd"/></svg>