<?xml version="1.0" encoding="UTF-8" standalone="no"?>
<svg xmlns="http://www.w3.org/2000/svg" width="32" height="32" viewBox="0 0 32 32" fill="none"><rect x="0.695557" y="0.695312" width="30.6095" height="30.6095" rx="12.3913" fill="#408335"/><path fill-rule="evenodd" clip-rule="evenodd" d="M11.1304 0H20.8696C27.0168 0 32 4.98324 32 11.1304V20.8696C32 27.0168 27.0168 32 20.8696 32H11.1304C4.98324 32 0 27.0168 0 20.8696V11.1304C0 4.98324 4.98324 0 11.1304 0ZM30.6081 11.1297C30.602 5.75348 26.2452 1.39668 20.869 1.39062H11.1297C5.75348 1.39668 1.39668 5.75348 1.39062 11.1297V20.869C1.39668 26.2452 5.75348 30.602 11.1297 30.6081H20.869C26.2452 30.602 30.602 26.2452 30.6081 20.869V11.1297Z" fill="white"/><path d="M23.9131 19.288C23.9131 22.3367 20.9586 25.887 15.9783 25.887C13.1607 25.8319 10.4415 24.8416 8.24844 23.0718V19.1143C10.0209 21.6562 12.8818 23.2208 15.9783 23.3416C17.8436 23.3416 19.3389 22.2684 19.3389 21.1392C19.3389 16.8375 8.08691 19.4939 8.08691 12.086C8.08691 8.19481 11.8858 6.11316 15.2953 6.11316C17.9763 6.09209 20.587 6.97022 22.7103 8.60726V11.9084C20.8118 9.7433 18.1035 8.45825 15.2256 8.35706C13.4792 8.35706 12.4796 9.29015 12.4796 10.3785C12.4796 14.9782 23.9123 11.7461 23.9123 19.288" fill="white"/></svg>