<?xml version="1.0" encoding="UTF-8" standalone="no"?>
<svg xmlns="http://www.w3.org/2000/svg" width="24" height="24"><path d="M3.440 1.060 C 2.809 1.190,2.369 1.429,1.897 1.899 C 1.589 2.204,1.505 2.318,1.347 2.640 C 0.988 3.371,1.020 2.449,1.020 12.000 C 1.020 21.551,0.988 20.629,1.347 21.360 C 1.504 21.680,1.590 21.797,1.897 22.103 C 2.203 22.410,2.320 22.496,2.640 22.653 C 3.371 23.012,2.449 22.980,12.000 22.980 C 21.551 22.980,20.629 23.012,21.360 22.653 C 21.680 22.496,21.797 22.410,22.103 22.103 C 22.410 21.797,22.496 21.680,22.653 21.360 C 23.012 20.629,22.980 21.551,22.980 12.000 C 22.980 2.449,23.012 3.371,22.653 2.640 C 22.496 2.320,22.410 2.203,22.103 1.897 C 21.797 1.590,21.680 1.504,21.360 1.347 C 20.626 0.987,21.577 1.021,12.100 1.014 C 5.231 1.008,3.653 1.017,3.440 1.060 M20.330 3.057 C 20.551 3.136,20.744 3.298,20.869 3.511 L 20.980 3.700 20.980 12.000 L 20.980 20.300 20.869 20.489 C 20.744 20.702,20.551 20.864,20.330 20.943 C 20.107 21.022,3.893 21.022,3.670 20.943 C 3.449 20.864,3.256 20.702,3.131 20.489 L 3.020 20.300 3.020 12.000 L 3.020 3.700 3.131 3.511 C 3.256 3.298,3.449 3.136,3.670 3.057 C 3.893 2.978,20.107 2.978,20.330 3.057 M7.173 5.035 C 6.609 5.244,6.253 5.682,6.156 6.284 C 6.051 6.936,6.406 7.601,7.021 7.902 C 7.239 8.010,7.296 8.020,7.680 8.020 C 8.064 8.020,8.121 8.010,8.339 7.902 C 8.660 7.745,8.935 7.462,9.091 7.130 C 9.204 6.889,9.218 6.821,9.218 6.500 C 9.218 6.179,9.204 6.111,9.091 5.870 C 8.935 5.539,8.659 5.255,8.342 5.099 C 8.027 4.945,7.494 4.916,7.173 5.035 M15.560 4.999 C 15.228 5.062,15.290 5.002,13.384 7.117 C 12.118 8.521,11.993 8.672,11.935 8.870 C 11.793 9.359,12.084 9.832,12.606 9.962 C 12.759 9.999,12.832 9.996,13.011 9.944 C 13.266 9.870,13.302 9.837,14.191 8.851 L 14.820 8.153 14.830 10.077 C 14.836 11.134,14.836 12.865,14.830 13.923 L 14.820 15.846 14.123 15.073 C 13.740 14.648,13.371 14.259,13.304 14.209 C 12.922 13.925,12.346 14.030,12.079 14.434 C 11.887 14.724,11.873 15.075,12.042 15.354 C 12.148 15.527,15.082 18.768,15.228 18.871 C 15.482 19.053,15.820 19.070,16.124 18.917 C 16.302 18.827,19.349 15.467,19.449 15.250 C 19.581 14.963,19.521 14.576,19.308 14.333 C 19.141 14.142,18.913 14.042,18.643 14.041 C 18.268 14.039,18.160 14.121,17.352 15.017 L 16.620 15.829 16.610 13.914 C 16.604 12.861,16.604 11.137,16.610 10.082 L 16.620 8.165 17.320 8.944 C 18.087 9.797,18.249 9.921,18.598 9.919 C 19.050 9.917,19.480 9.489,19.480 9.042 C 19.480 8.727,19.403 8.626,17.804 6.857 C 16.207 5.089,16.151 5.036,15.820 4.989 C 15.754 4.980,15.637 4.984,15.560 4.999 M6.287 8.862 C 5.691 9.023,5.173 9.577,5.044 10.192 C 4.988 10.461,4.983 13.722,5.039 13.916 C 5.128 14.225,5.381 14.460,5.699 14.528 L 5.880 14.566 5.880 16.366 C 5.880 17.530,5.895 18.226,5.924 18.337 C 5.978 18.554,6.158 18.776,6.374 18.891 C 6.534 18.977,6.579 18.980,7.660 18.980 C 8.741 18.980,8.786 18.977,8.946 18.891 C 9.162 18.776,9.342 18.554,9.396 18.337 C 9.425 18.226,9.440 17.530,9.440 16.366 L 9.440 14.566 9.621 14.528 C 9.939 14.460,10.192 14.225,10.281 13.916 C 10.337 13.722,10.332 10.461,10.276 10.192 C 10.145 9.568,9.626 9.020,9.015 8.860 C 8.692 8.776,6.602 8.778,6.287 8.862" stroke="none" fill-rule="evenodd"/></svg>