<?xml version="1.0" encoding="UTF-8" standalone="no"?>
<svg width="24" height="24" viewBox="0 0 24 24" fill="none" xmlns="http://www.w3.org/2000/svg"><rect x="0.25" y="0.25" width="23.5" height="23.5" rx="2.75" fill="white"/><rect x="0.25" y="0.25" width="23.5" height="23.5" rx="2.75" stroke="#2D2B29" stroke-width="0.5"/><path fill-rule="evenodd" clip-rule="evenodd" d="M12.982 2.07098C14.65 2.07098 15.532 2.24498 16.425 2.72298C17.2439 3.15723 17.9137 3.82709 18.348 4.64598C18.796 5.48398 18.977 6.31098 18.998 7.78598L19 16.053C19 17.721 18.826 18.603 18.348 19.496C17.9137 20.3149 17.2439 20.9847 16.425 21.419C15.972 21.661 15.386 21.882 14.971 21.929C14.79 21.449 14.244 21.079 13.758 21.201C13.216 21.384 12.696 21.421 12.002 21.421C11.308 21.421 10.789 21.366 10.464 21.271C9.804 21.023 9.284 21.247 9.03 21.928C8.52225 21.8316 8.03181 21.6597 7.575 21.418C6.75625 20.984 6.08641 20.3145 5.652 19.496C5.204 18.658 5.023 17.831 5.002 16.356L5 8.08898C5 6.42098 5.174 5.53898 5.652 4.64598C6.08625 3.82709 6.7561 3.15723 7.575 2.72298C8.413 2.27498 9.24 2.09398 10.715 2.07298L12.982 2.07098ZM8.883 18.078C8.63995 18.1069 8.41594 18.2239 8.25341 18.4069C8.09088 18.59 8.00111 18.8262 8.00111 19.071C8.00111 19.3157 8.09088 19.552 8.25341 19.735C8.41594 19.918 8.63995 20.0351 8.883 20.064H10.117C10.36 20.0351 10.5841 19.918 10.7466 19.735C10.9091 19.552 10.9989 19.3157 10.9989 19.071C10.9989 18.8262 10.9091 18.59 10.7466 18.4069C10.5841 18.2239 10.36 18.1069 10.117 18.078H8.883ZM14 18.071C13.7451 18.0713 13.5 18.1689 13.3146 18.3438C13.1293 18.5188 13.0178 18.7579 13.0028 19.0124C12.9879 19.2668 13.0707 19.5174 13.2343 19.7128C13.3979 19.9083 13.6299 20.0339 13.883 20.064L15 20.071C15.2549 20.0707 15.5 19.9731 15.6854 19.7981C15.8707 19.6232 15.9822 19.384 15.9972 19.1296C16.0121 18.8751 15.9293 18.6246 15.7657 18.4292C15.6021 18.2337 15.3701 18.1081 15.117 18.078L14 18.071ZM14.783 4.07098L9.095 4.07498C8.59113 4.10573 8.11753 4.32588 7.76922 4.69126C7.4209 5.05664 7.22363 5.54022 7.217 6.04498L7.678 13.643C7.723 14.37 8.016 15.117 8.016 15.117C8.196 15.424 8.45 15.663 8.768 15.825C9.007 15.945 9.242 16.024 9.708 16.055H14.292C14.758 16.024 14.993 15.945 15.232 15.825C15.55 15.663 15.804 15.425 15.984 15.117C16.165 14.809 16.262 14.43 16.309 13.832C16.625 8.68498 16.783 6.09798 16.783 6.07098C16.783 5.54055 16.5723 5.03184 16.1972 4.65677C15.8221 4.2817 15.3134 4.07098 14.783 4.07098Z" fill="#282D37"/></svg>