<?xml version="1.0" encoding="UTF-8" standalone="no"?>
<svg xmlns="http://www.w3.org/2000/svg" width="24" height="24"><path d="M1.312 1.110 C 1.354 1.171,3.212 3.875,5.440 7.120 C 7.668 10.365,9.524 13.067,9.565 13.125 L 9.639 13.231 5.535 18.005 C 3.277 20.631,1.384 22.830,1.328 22.890 L 1.225 23.000 2.183 23.000 L 3.140 22.999 6.800 18.740 C 8.813 16.398,10.469 14.482,10.480 14.481 C 10.491 14.481,11.814 16.397,13.420 18.738 L 16.340 22.996 19.553 22.998 L 22.765 23.000 22.688 22.890 C 21.776 21.586,14.080 10.349,14.080 10.320 C 14.080 10.297,15.872 8.196,18.063 5.649 L 22.046 1.020 21.118 1.009 C 20.540 1.003,20.172 1.014,20.142 1.039 C 20.115 1.061,18.547 2.877,16.657 5.075 C 14.767 7.273,13.210 9.065,13.197 9.058 C 13.185 9.050,11.934 7.235,10.417 5.024 L 7.660 1.004 4.447 1.002 L 1.235 1.000 1.312 1.110 M8.665 5.190 C 9.723 6.703,12.708 10.973,15.299 14.680 C 17.891 18.387,20.046 21.470,20.088 21.530 L 20.165 21.640 18.709 21.640 L 17.252 21.640 14.658 17.930 C 13.231 15.889,10.225 11.589,7.977 8.374 C 5.729 5.158,3.877 2.508,3.862 2.484 C 3.843 2.452,4.250 2.440,5.288 2.440 L 6.742 2.440 8.665 5.190" stroke="none" fill-rule="evenodd"/></svg>