<?xml version="1.0" encoding="UTF-8" standalone="no"?>
<svg id="Ebene_1" data-name="Ebene 1" xmlns="http://www.w3.org/2000/svg" viewBox="0 0 23 23"><defs><style>.cls-1{fill:#ff8c00;}.cls-2{isolation:isolate;}.cls-3{fill:#fff;}</style></defs><circle id="circle828" class="cls-1" cx="11.5" cy="11.5" r="11.5"/><g id="g832" class="cls-2"><path id="path830" class="cls-3" d="M10.07,18.78a1.8,1.8,0,0,1,.47-1.37A1.72,1.72,0,0,1,11.81,17a1.85,1.85,0,0,1,1.33.45,1.87,1.87,0,0,1,.45,1.37,1.65,1.65,0,0,1-1.78,1.85,1.74,1.74,0,0,1-1.27-.48A1.93,1.93,0,0,1,10.07,18.78Zm.27-15.46h3v8l-.57,4H10.94l-.6-4Z"/></g></svg>