<?xml version="1.0" encoding="UTF-8" standalone="no"?>
<svg width="24" height="24" xmlns="http://www.w3.org/2000/svg"><path stroke="none" fill-rule="evenodd" d="M 7.8007812,2 C 6.1206229,2 5.1398706,1.9482961 4.1835937,2.4355469 3.4310548,2.8189819 2.8189819,3.4310548 2.4355469,4.1835937 1.9482961,5.1398706 2,6.1206229 2,7.8007812 v 8.3984378 c 0,1.680198 -0.051647,2.660918 0.4355469,3.617187 0.3834431,0.752568 0.9955197,1.364645 1.7480468,1.748047 C 5.139878,22.051737 6.1206229,22 7.8007812,22 h 8.3984378 c 1.680198,0 2.66091,0.05168 3.617187,-0.435547 0.752557,-0.38341 1.364637,-0.99549 1.748047,-1.748047 C 22.051681,18.860129 22,17.879417 22,16.199219 V 7.8007812 C 22,6.1206229 22.051737,5.139878 21.564453,4.1835937 21.181051,3.4310666 20.568974,2.81899 19.816406,2.4355469 18.860137,1.948353 17.879417,2 16.199219,2 Z m 0,2 h 8.3984378 c 1.680198,0 2.381655,0.051984 2.708984,0.21875 0.376431,0.1917963 0.68125,0.4965952 0.873047,0.8730469 C 19.947965,5.4189714 20,6.1206229 20,7.8007812 v 8.3984378 c 0,1.680198 -0.05198,2.381662 -0.21875,2.708984 -0.191789,0.376443 -0.496604,0.681258 -0.873047,0.873047 C 18.580881,19.948022 17.879417,20 16.199219,20 H 7.8007812 C 6.1206229,20 5.4189714,19.947965 5.0917969,19.78125 4.7153452,19.589453 4.4105463,19.284634 4.21875,18.908203 4.0519845,18.580874 4,17.879417 4,16.199219 V 7.8007812 C 4,6.1206229 4.0520414,5.4189787 4.21875,5.0917969 4.4105544,4.7153569 4.7153569,4.4105544 5.0917969,4.21875 5.4189787,4.0520414 6.1206229,4 7.8007812,4 Z M 12,7 a 1,1 0 0 0 -1,1 v 4 a 1,1 0 0 0 1,1 1,1 0 0 0 1,-1 V 8 A 1,1 0 0 0 12,7 Z m 0,8 a 1,1 0 0 0 -1,1 1,1 0 0 0 1,1 h 0.0098 a 1,1 0 0 0 1,-1 1,1 0 0 0 -1,-1 z"/></svg>