<?xml version="1.0" encoding="UTF-8" standalone="no"?>
<svg xmlns="http://www.w3.org/2000/svg" width="24" height="24"><path d="M5.195 1.044 C 4.292 1.102,3.697 1.266,3.080 1.630 C 2.220 2.137,1.522 2.999,1.242 3.900 C 1.025 4.601,1.029 4.501,1.011 9.960 C 0.999 13.492,1.008 15.151,1.039 15.453 C 1.137 16.413,1.554 17.281,2.253 17.978 C 2.641 18.365,2.957 18.587,3.464 18.827 C 3.935 19.050,4.500 19.195,5.029 19.227 L 5.440 19.252 5.441 20.376 C 5.441 21.573,5.474 21.875,5.640 22.200 C 5.768 22.451,6.051 22.711,6.352 22.853 C 6.591 22.965,6.659 22.979,6.982 22.979 C 7.319 22.980,7.364 22.970,7.642 22.832 C 7.847 22.731,8.442 22.294,9.540 21.437 C 11.670 19.776,11.868 19.628,12.111 19.505 C 12.587 19.264,12.498 19.270,15.940 19.240 C 19.315 19.211,19.427 19.204,20.102 18.997 C 21.259 18.642,22.340 17.595,22.715 16.464 C 22.987 15.641,22.980 15.816,22.980 10.180 C 22.980 4.729,22.978 4.667,22.776 3.968 C 22.504 3.030,21.810 2.156,20.920 1.631 C 20.278 1.252,19.734 1.107,18.698 1.041 C 17.939 0.993,5.957 0.995,5.195 1.044 M19.218 3.091 C 20.124 3.276,20.786 3.964,20.925 4.866 C 20.969 5.151,20.980 6.181,20.979 10.180 C 20.978 15.643,20.983 15.532,20.732 16.034 C 20.576 16.347,20.124 16.798,19.805 16.958 C 19.301 17.211,19.336 17.209,15.840 17.240 C 12.445 17.271,12.414 17.273,11.783 17.484 C 11.069 17.722,10.949 17.803,8.780 19.496 L 7.460 20.527 7.440 19.230 L 7.420 17.933 7.299 17.737 C 7.153 17.501,6.849 17.303,6.576 17.266 C 6.473 17.252,6.081 17.240,5.704 17.239 C 5.234 17.239,4.939 17.220,4.762 17.178 C 4.011 17.001,3.396 16.447,3.124 15.704 L 3.020 15.420 3.020 10.320 C 3.020 6.205,3.031 5.152,3.075 4.866 C 3.147 4.397,3.331 4.030,3.655 3.705 C 4.099 3.260,4.478 3.103,5.253 3.042 C 5.477 3.024,8.639 3.013,12.280 3.018 C 18.210 3.025,18.933 3.033,19.218 3.091 M11.553 4.838 C 10.608 5.011,9.755 5.551,9.237 6.304 C 9.168 6.404,9.039 6.642,8.949 6.833 C 8.813 7.122,8.786 7.220,8.788 7.420 C 8.795 8.273,9.731 8.708,10.423 8.181 C 10.498 8.123,10.625 7.938,10.734 7.728 C 10.945 7.319,11.171 7.087,11.513 6.927 C 11.711 6.834,11.791 6.820,12.140 6.820 C 12.496 6.820,12.565 6.832,12.765 6.930 C 13.230 7.159,13.523 7.530,13.605 7.993 C 13.665 8.331,13.606 8.505,13.337 8.796 C 13.057 9.098,12.589 9.399,12.045 9.627 C 11.542 9.837,11.317 10.028,11.216 10.332 C 10.999 10.986,11.479 11.657,12.160 11.651 C 12.426 11.649,12.764 11.525,13.402 11.195 C 14.624 10.565,15.372 9.716,15.583 8.721 C 15.779 7.800,15.400 6.613,14.676 5.876 C 14.233 5.424,13.630 5.067,13.054 4.916 C 12.703 4.824,11.867 4.781,11.553 4.838 M11.810 12.984 C 11.412 13.131,11.118 13.614,11.175 14.029 C 11.293 14.891,12.351 15.222,12.919 14.575 C 13.097 14.372,13.164 14.195,13.165 13.923 C 13.167 13.532,12.971 13.212,12.621 13.031 C 12.413 12.924,12.033 12.902,11.810 12.984" stroke="none" fill-rule="evenodd"/></svg>