<?xml version="1.0" encoding="UTF-8" standalone="no"?>
<svg xmlns="http://www.w3.org/2000/svg" width="24" height="24"><path d="M6.720 1.804 C 5.775 1.950,5.080 2.157,4.462 2.476 C 3.338 3.056,2.546 3.751,1.884 4.740 C 1.201 5.761,0.830 6.893,0.773 8.127 C 0.744 8.753,0.790 9.178,0.962 9.880 C 1.341 11.429,2.258 13.360,3.516 15.260 C 3.705 15.546,3.866 15.793,3.873 15.810 C 3.881 15.826,3.785 15.961,3.661 16.110 C 3.537 16.258,3.372 16.508,3.295 16.664 L 3.154 16.948 3.167 17.484 C 3.179 17.980,3.188 18.037,3.294 18.245 C 3.863 19.367,5.138 19.737,6.159 19.078 L 6.411 18.914 6.596 19.090 C 8.138 20.558,9.749 21.347,11.651 21.565 C 12.129 21.620,12.560 21.587,13.285 21.439 C 14.751 21.140,16.108 20.397,17.371 19.202 L 17.715 18.876 17.872 18.980 C 18.285 19.253,18.953 19.357,19.422 19.222 C 19.983 19.060,20.402 18.731,20.647 18.260 C 21.006 17.571,20.937 16.781,20.458 16.077 C 20.338 15.901,20.240 15.750,20.240 15.742 C 20.240 15.733,20.400 15.478,20.595 15.173 C 21.354 13.993,22.136 12.491,22.578 11.369 C 23.111 10.016,23.329 8.730,23.203 7.693 C 22.924 5.407,21.740 3.638,19.760 2.551 C 19.022 2.146,17.859 1.827,16.920 1.773 C 15.354 1.684,13.618 2.251,12.370 3.262 L 12.000 3.562 11.672 3.278 C 10.672 2.414,9.559 1.946,8.160 1.801 C 7.711 1.754,7.029 1.756,6.720 1.804 M8.423 3.262 C 9.302 3.398,10.132 3.790,10.773 4.371 L 11.005 4.582 10.551 5.058 L 10.096 5.535 9.938 5.393 C 9.212 4.744,8.339 4.471,7.200 4.537 C 6.429 4.582,5.904 4.749,5.289 5.146 C 4.235 5.826,3.595 6.923,3.535 8.154 C 3.504 8.788,3.571 9.199,3.816 9.895 C 4.190 10.955,4.702 11.989,5.470 13.235 L 5.849 13.850 5.368 14.332 L 4.887 14.813 4.670 14.477 C 3.462 12.604,2.613 10.793,2.297 9.414 C 1.928 7.801,2.468 5.989,3.682 4.770 C 4.246 4.204,4.799 3.837,5.507 3.559 C 6.469 3.183,7.341 3.093,8.423 3.262 M17.506 3.263 C 18.511 3.416,19.497 3.908,20.246 4.630 C 20.699 5.067,20.938 5.385,21.218 5.923 C 21.575 6.611,21.743 7.223,21.820 8.123 C 21.901 9.077,21.527 10.410,20.703 12.100 C 20.211 13.109,19.301 14.681,19.210 14.680 C 19.194 14.679,18.978 14.465,18.731 14.203 L 18.281 13.728 18.682 13.054 C 19.458 11.751,20.051 10.456,20.322 9.474 C 20.916 7.319,19.757 5.226,17.651 4.654 C 17.301 4.559,17.188 4.548,16.580 4.546 C 15.991 4.544,15.857 4.556,15.581 4.634 C 14.875 4.834,14.336 5.158,13.702 5.764 C 13.052 6.386,12.894 6.659,12.999 6.978 C 13.101 7.285,13.362 7.480,13.671 7.480 C 13.820 7.480,13.829 7.488,13.932 7.710 C 14.086 8.040,14.140 8.414,14.082 8.750 C 13.993 9.267,13.941 9.337,12.729 10.587 C 11.066 12.300,5.514 17.820,5.356 17.916 C 5.127 18.056,4.844 18.003,4.640 17.782 C 4.560 17.695,4.540 17.632,4.540 17.463 C 4.540 17.274,4.557 17.233,4.696 17.076 C 4.960 16.777,7.345 14.306,10.057 11.520 C 11.481 10.057,12.726 8.756,12.822 8.628 C 13.020 8.365,13.071 8.181,13.005 7.962 C 12.910 7.645,12.679 7.471,12.352 7.471 C 12.073 7.471,11.925 7.582,11.154 8.371 L 10.487 9.053 10.421 8.837 C 10.384 8.717,10.344 8.476,10.332 8.300 C 10.295 7.761,10.457 7.299,10.859 6.800 C 11.176 6.405,13.182 4.405,13.500 4.166 C 13.984 3.802,14.892 3.406,15.528 3.280 C 16.137 3.160,16.794 3.154,17.506 3.263 M8.311 6.041 C 8.535 6.119,8.793 6.284,9.133 6.567 L 9.246 6.661 9.149 6.921 C 8.952 7.450,8.908 7.723,8.931 8.293 C 8.956 8.902,9.028 9.191,9.295 9.743 L 9.470 10.106 8.160 11.443 C 7.439 12.178,6.840 12.771,6.828 12.760 C 6.753 12.689,6.125 11.577,5.801 10.940 C 5.216 9.789,4.920 8.915,4.920 8.338 C 4.920 7.696,5.264 6.978,5.790 6.522 C 6.035 6.309,6.638 6.010,6.920 5.962 C 7.284 5.899,8.021 5.941,8.311 6.041 M17.140 5.981 C 18.397 6.247,19.209 7.384,19.049 8.656 C 18.952 9.421,18.474 10.567,17.629 12.056 L 17.268 12.693 17.086 12.496 C 16.985 12.388,16.475 11.855,15.952 11.311 C 15.428 10.767,15.000 10.304,15.000 10.282 C 15.000 10.260,15.062 10.130,15.138 9.991 C 15.213 9.853,15.324 9.578,15.384 9.380 C 15.478 9.067,15.492 8.950,15.493 8.480 C 15.494 7.818,15.411 7.480,15.113 6.921 L 14.911 6.542 15.042 6.432 C 15.238 6.269,15.720 6.044,16.007 5.981 C 16.344 5.908,16.796 5.908,17.140 5.981 M15.569 12.950 C 16.413 13.825,17.447 14.900,17.866 15.340 C 19.408 16.959,19.477 17.047,19.479 17.375 C 19.480 17.506,19.452 17.558,19.305 17.705 C 19.155 17.856,19.107 17.880,18.963 17.880 C 18.871 17.880,18.747 17.854,18.688 17.823 C 18.596 17.774,15.913 15.099,13.740 12.890 L 13.101 12.240 13.540 11.800 C 13.781 11.558,13.991 11.360,14.007 11.360 C 14.022 11.360,14.725 12.075,15.569 12.950 M13.440 14.622 L 14.780 15.963 14.540 16.182 C 13.922 16.745,13.376 17.095,12.804 17.293 C 12.324 17.459,11.807 17.463,11.340 17.304 C 10.753 17.104,10.265 16.801,9.667 16.266 L 9.354 15.986 10.707 14.633 C 11.451 13.889,12.069 13.280,12.080 13.280 C 12.091 13.280,12.703 13.884,13.440 14.622 M8.751 17.344 C 9.436 17.948,10.148 18.382,10.860 18.628 L 11.300 18.780 12.060 18.779 C 12.814 18.778,12.823 18.776,13.200 18.646 C 13.967 18.381,14.685 17.939,15.417 17.282 C 15.591 17.126,15.747 17.003,15.765 17.009 C 15.782 17.015,15.995 17.216,16.239 17.457 L 16.681 17.893 16.591 17.992 C 16.361 18.242,15.666 18.830,15.342 19.047 C 14.591 19.551,13.595 19.965,12.800 20.103 C 12.268 20.196,11.487 20.163,10.930 20.024 C 9.762 19.732,8.735 19.143,7.660 18.148 L 7.420 17.926 7.879 17.463 C 8.132 17.208,8.344 17.000,8.350 17.000 C 8.356 17.000,8.537 17.155,8.751 17.344" stroke="none" fill-rule="evenodd"/></svg>