<?xml version="1.0" encoding="UTF-8" standalone="no"?>
<svg xmlns="http://www.w3.org/2000/svg" width="24" height="24"><path d="M17.547 4.044 C 16.044 4.202,14.704 5.273,14.224 6.700 L 14.130 6.980 8.434 7.000 L 2.738 7.020 2.539 7.122 C 1.767 7.520,1.853 8.648,2.678 8.939 C 2.829 8.992,3.546 9.000,8.486 9.000 C 13.819 9.000,14.124 9.004,14.144 9.070 C 14.357 9.768,14.694 10.338,15.178 10.822 C 15.712 11.355,16.279 11.680,17.041 11.887 C 17.512 12.015,18.502 12.016,18.967 11.889 C 19.711 11.685,20.303 11.345,20.821 10.823 C 21.538 10.103,21.932 9.228,21.988 8.237 C 22.107 6.105,20.557 4.283,18.420 4.041 C 18.022 3.996,17.995 3.996,17.547 4.044 M18.383 6.043 C 19.185 6.190,19.839 6.872,19.967 7.695 C 20.153 8.894,19.209 10.000,18.000 10.000 C 17.032 10.000,16.183 9.268,16.033 8.305 C 15.933 7.663,16.132 7.061,16.596 6.596 C 17.085 6.108,17.698 5.918,18.383 6.043 M5.500 12.025 C 4.288 12.207,3.295 12.834,2.642 13.829 C 2.002 14.804,1.833 16.052,2.188 17.179 C 2.611 18.518,3.651 19.502,5.032 19.869 C 5.364 19.957,5.504 19.972,6.000 19.972 C 6.500 19.972,6.635 19.957,6.980 19.866 C 8.290 19.519,9.360 18.531,9.782 17.280 L 9.870 17.020 15.565 17.000 L 21.260 16.980 21.450 16.886 C 21.677 16.774,21.855 16.570,21.939 16.325 C 22.101 15.849,21.892 15.331,21.450 15.114 L 21.260 15.020 15.565 15.000 L 9.870 14.980 9.776 14.701 C 9.346 13.424,8.274 12.447,6.940 12.115 C 6.628 12.037,5.772 11.984,5.500 12.025 M6.383 14.043 C 7.185 14.190,7.839 14.872,7.967 15.695 C 8.153 16.894,7.209 18.000,6.000 18.000 C 5.032 18.000,4.183 17.268,4.033 16.305 C 3.933 15.663,4.132 15.061,4.596 14.596 C 5.085 14.108,5.698 13.918,6.383 14.043" stroke="none" fill-rule="evenodd"/></svg>