<?xml version="1.0" encoding="UTF-8" standalone="no"?>
<svg xmlns="http://www.w3.org/2000/svg" width="16" height="16" fill="none" version="1.1"><g fill-rule="evenodd" clip-path="url(#a)" clip-rule="evenodd" id="g2"><circle style="fill:#008d4f;fill-opacity:1" id="path4" cx="8" cy="8" r="8"/><path fill="#fff" d="M13.3 10.1c0 1.9-1.9 4.2-5.1 4.2-1.7 0-3.8-.8-4.9-1.8V10c1.1 1.5 3 2.7 4.9 2.7 1.2 0 2.1-.7 2.1-1.4 0-2.7-7.1-1.1-7.1-5.7 0-2.5 2.4-3.8 4.6-3.8 1.8 0 3.4.6 4.7 1.6v2.1c-1.1-1.2-2.8-2.3-4.7-2.3-1.2 0-1.8.5-1.8 1.3 0 2.9 7.3.8 7.3 5.6" id="path2"/></g><defs id="defs3"><clipPath id="a"><path fill="#fff" d="M0 0h16v16H0z" id="path3"/></clipPath></defs></svg>