<?xml version="1.0" encoding="UTF-8" standalone="no"?>
<svg xmlns="http://www.w3.org/2000/svg" width="24" height="24"><path d="M1.664 1.063 C 1.436 1.146,1.257 1.297,1.131 1.511 C 1.036 1.672,1.020 1.744,1.020 2.000 C 1.020 2.256,1.036 2.328,1.131 2.489 C 1.376 2.906,1.625 3.000,2.484 3.000 C 3.109 3.000,3.119 3.001,3.139 3.090 C 3.175 3.254,3.631 6.520,4.200 10.699 C 4.509 12.965,4.796 14.964,4.838 15.141 C 4.996 15.807,5.237 16.237,5.693 16.666 C 6.144 17.090,6.595 17.320,7.220 17.443 C 7.538 17.506,17.456 17.543,18.337 17.485 C 19.005 17.440,19.331 17.361,19.760 17.136 C 20.527 16.736,21.017 16.081,21.255 15.139 C 21.310 14.920,21.700 12.931,22.121 10.720 C 22.986 6.178,22.969 6.319,22.729 5.831 C 22.521 5.409,22.150 5.129,21.683 5.041 C 21.543 5.014,18.709 5.000,13.455 5.000 C 9.047 5.000,5.440 4.993,5.440 4.984 C 5.440 4.828,5.024 2.158,4.977 2.013 C 4.836 1.579,4.401 1.179,3.942 1.061 C 3.612 0.977,1.895 0.978,1.664 1.063 M20.776 7.070 C 20.767 7.109,20.454 8.742,20.082 10.700 C 19.710 12.658,19.375 14.395,19.338 14.560 C 19.223 15.067,19.100 15.242,18.740 15.408 L 18.540 15.500 13.420 15.512 C 10.422 15.519,8.114 15.508,7.850 15.486 C 7.485 15.455,7.368 15.429,7.227 15.346 C 6.992 15.208,6.850 14.990,6.781 14.657 C 6.749 14.505,6.506 12.778,6.241 10.820 C 5.975 8.862,5.747 7.202,5.734 7.130 L 5.711 7.000 13.252 7.000 C 20.413 7.000,20.792 7.004,20.776 7.070 M8.580 19.047 C 7.859 19.185,7.199 19.848,7.044 20.592 C 6.789 21.816,7.751 23.000,9.000 23.000 C 10.080 23.000,11.000 22.080,11.000 21.000 C 11.000 20.477,10.790 19.983,10.404 19.596 C 9.913 19.106,9.277 18.914,8.580 19.047 M16.580 19.047 C 15.859 19.185,15.199 19.848,15.044 20.592 C 14.789 21.816,15.751 23.000,17.000 23.000 C 18.080 23.000,19.000 22.080,19.000 21.000 C 19.000 20.477,18.790 19.983,18.404 19.596 C 17.913 19.106,17.277 18.914,16.580 19.047" stroke="none" fill-rule="evenodd"/></svg>