<?xml version="1.0" encoding="UTF-8" standalone="no"?>
<svg xmlns="http://www.w3.org/2000/svg" width="24" height="24"><path d="M11.553 1.123 C 11.258 1.192,4.978 3.570,4.638 3.741 C 3.842 4.141,3.290 4.832,3.091 5.676 C 3.026 5.955,3.020 6.258,3.020 9.420 C 3.020 12.808,3.021 12.867,3.109 13.321 C 3.397 14.820,4.019 16.192,5.006 17.507 C 5.982 18.807,7.439 20.193,9.020 21.326 C 9.986 22.018,11.004 22.635,11.394 22.765 C 11.759 22.886,12.241 22.886,12.606 22.765 C 13.230 22.557,15.092 21.316,16.340 20.275 C 16.865 19.837,17.920 18.803,18.355 18.300 C 19.743 16.693,20.569 15.067,20.892 13.300 C 20.978 12.830,20.980 12.751,20.980 9.380 C 20.980 5.555,20.990 5.718,20.706 5.107 C 20.407 4.466,19.961 4.030,19.260 3.696 C 18.795 3.475,12.884 1.242,12.493 1.140 C 12.245 1.075,11.789 1.067,11.553 1.123 M15.184 4.264 C 16.919 4.915,18.402 5.481,18.480 5.520 C 18.647 5.606,18.803 5.768,18.905 5.960 C 18.976 6.093,18.980 6.256,18.980 9.380 C 18.980 12.634,18.979 12.664,18.889 13.109 C 18.399 15.525,16.400 17.993,13.220 20.106 C 12.615 20.508,12.064 20.840,12.000 20.840 C 11.936 20.840,11.385 20.508,10.780 20.106 C 7.597 17.991,5.601 15.527,5.111 13.109 C 5.021 12.664,5.020 12.634,5.020 9.380 L 5.020 6.100 5.106 5.940 C 5.223 5.725,5.380 5.582,5.620 5.475 C 5.888 5.355,11.928 3.084,11.984 3.082 C 12.008 3.081,13.448 3.613,15.184 4.264 M15.180 8.059 C 15.092 8.092,15.011 8.119,15.001 8.119 C 14.990 8.120,14.086 9.015,12.991 10.110 L 11.000 12.099 10.270 11.373 C 9.868 10.974,9.486 10.621,9.419 10.588 C 8.944 10.351,8.321 10.571,8.095 11.057 C 7.983 11.298,7.969 11.647,8.062 11.871 C 8.103 11.969,8.517 12.415,9.272 13.175 C 10.505 14.414,10.602 14.490,10.979 14.493 C 11.408 14.497,11.310 14.580,13.914 11.986 C 15.720 10.186,16.349 9.536,16.409 9.405 C 16.569 9.053,16.493 8.603,16.228 8.326 C 15.960 8.047,15.514 7.933,15.180 8.059" stroke="none" fill-rule="evenodd"/></svg>