<?xml version="1.0" encoding="UTF-8" standalone="no"?>
<svg xmlns="http://www.w3.org/2000/svg" width="24" height="24"><path d="M6.631 1.044 C 3.781 1.325,1.713 3.147,1.163 5.861 C 1.004 6.648,0.995 7.017,1.010 12.300 C 1.022 16.932,1.030 17.414,1.093 17.760 C 1.365 19.236,1.904 20.311,2.826 21.222 C 3.834 22.217,5.172 22.811,6.740 22.958 C 7.337 23.015,16.663 23.015,17.260 22.958 C 20.519 22.651,22.654 20.531,22.958 17.300 C 23.015 16.704,23.015 7.297,22.959 6.700 C 22.746 4.437,21.560 2.643,19.644 1.682 C 19.198 1.458,18.478 1.221,17.917 1.113 C 17.463 1.026,17.429 1.026,12.220 1.017 C 9.338 1.013,6.823 1.025,6.631 1.044 M17.471 3.103 C 19.388 3.387,20.639 4.625,20.978 6.575 C 21.071 7.109,21.071 16.889,20.978 17.425 C 20.886 17.956,20.778 18.282,20.536 18.754 C 19.957 19.889,18.902 20.634,17.520 20.885 C 17.079 20.966,6.923 20.966,6.480 20.886 C 4.533 20.533,3.323 19.249,3.082 17.281 C 3.055 17.063,3.040 15.164,3.040 11.966 C 3.040 6.499,3.039 6.518,3.281 5.791 C 3.791 4.263,4.893 3.366,6.584 3.103 C 6.872 3.058,7.903 3.047,11.995 3.044 C 16.386 3.041,17.105 3.048,17.471 3.103 M17.468 4.935 C 16.849 5.165,16.497 5.816,16.655 6.434 C 16.775 6.902,17.074 7.226,17.513 7.361 C 17.833 7.460,17.967 7.460,18.287 7.361 C 18.726 7.226,19.025 6.902,19.145 6.434 C 19.291 5.865,19.002 5.268,18.440 4.978 C 18.254 4.882,17.680 4.857,17.468 4.935 M11.460 6.306 C 10.110 6.468,9.010 6.978,8.065 7.878 C 6.089 9.762,5.760 12.827,7.287 15.127 C 7.587 15.578,8.328 16.332,8.765 16.630 C 9.377 17.047,10.123 17.362,10.892 17.527 C 11.430 17.642,12.479 17.652,13.014 17.546 C 14.178 17.316,15.178 16.785,16.002 15.962 C 16.809 15.154,17.323 14.204,17.567 13.068 C 17.694 12.474,17.694 11.433,17.565 10.840 C 17.043 8.428,15.079 6.619,12.660 6.324 C 12.322 6.283,11.729 6.274,11.460 6.306 M12.888 8.436 C 13.947 8.709,14.841 9.459,15.305 10.463 C 15.787 11.506,15.711 12.842,15.115 13.816 C 14.370 15.032,12.963 15.738,11.621 15.568 C 10.331 15.405,9.267 14.646,8.720 13.499 C 8.273 12.564,8.264 11.396,8.695 10.463 C 9.212 9.344,10.255 8.552,11.462 8.362 C 11.812 8.307,12.530 8.344,12.888 8.436" stroke="none" fill-rule="evenodd"/></svg>