<?xml version="1.0" encoding="UTF-8" standalone="no"?>
<svg xmlns="http://www.w3.org/2000/svg" width="24" height="24"><path d="M13.643 4.069 C 13.407 4.152,13.149 4.416,13.066 4.660 C 13.009 4.828,13.000 5.068,13.000 6.426 L 13.000 7.998 8.070 8.009 L 3.140 8.020 2.880 8.145 C 2.548 8.304,2.302 8.551,2.144 8.880 L 2.020 9.140 2.020 12.000 L 2.020 14.860 2.133 15.104 C 2.276 15.413,2.585 15.721,2.900 15.868 L 3.140 15.980 8.070 15.991 L 13.000 16.002 13.000 17.574 C 13.000 19.363,13.006 19.408,13.300 19.702 C 13.602 20.005,14.053 20.078,14.444 19.887 C 14.571 19.826,15.621 18.800,18.245 16.171 C 21.693 12.718,21.874 12.529,21.940 12.326 C 22.024 12.065,22.006 11.800,21.887 11.556 C 21.826 11.429,20.800 10.380,18.171 7.755 C 14.850 4.439,14.523 4.124,14.343 4.065 C 14.101 3.985,13.876 3.987,13.643 4.069 M17.290 14.290 L 15.000 16.580 15.000 15.717 C 15.000 14.714,14.969 14.567,14.701 14.299 C 14.381 13.979,14.774 14.000,9.073 14.000 L 4.000 14.000 4.000 12.000 L 4.000 10.000 9.073 10.000 C 14.774 10.000,14.381 10.021,14.701 9.701 C 14.969 9.433,15.000 9.286,15.000 8.283 L 15.000 7.420 17.290 9.710 L 19.580 12.000 17.290 14.290" stroke="none" fill-rule="evenodd"/></svg>