<?xml version="1.0" encoding="UTF-8" standalone="no"?>
<svg version="1.1" id="Ebene_1" xmlns="http://www.w3.org/2000/svg" xmlns:xlink="http://www.w3.org/1999/xlink" x="0px" y="0px" viewBox="0 0 277 267.5" style="enable-background:new 0 0 277 267.5;" xml:space="preserve"><style type="text/css">.st0{opacity:0.18;} \t.st1{fill:#4562A2;} \t.st2{fill:#2C426D;} \t.st3{fill:#FFFFFF;}</style><g><polygon class="st0" points="277,165 162.8981628,165 59.25,237 183,237"/><polygon class="st0" points="82.5,267.3995056 130,245 77,245"/><path class="st1" d="M150,210H15c-8.2842712,0-15-6.7157288-15-15V15C0,6.7157288,6.7157288,0,15,0h135 c8.2842712,0,15,6.7157288,15,15v180C165,203.2842712,158.2842712,210,150,210z"/><path class="st2" d="M165,80V15c0-8.2843018-6.7157593-15-15-15H15C6.7156982,0,0,6.7156982,0,15v65H165z"/><polygon class="st2" points="112.8108902,215 82.5,267.5 52.1891098,215"/><g><path class="st3" d="M40.3310547,165.9667969H21.2387695v-56.0991211h17.9145508 c9.1679688,0,16.7373047,3.6162109,16.8212891,13.7929688c0,6.6445312-4.0371094,10.2607422-10.0927734,12.6166992 c6.6445312,1.0078125,12.1113281,5.71875,12.1113281,13.0351562 C57.9931641,159.5742188,50.3398438,165.9667969,40.3310547,165.9667969z M37.8076172,117.8569336h-5.9716797v15.2236328 h5.2148438c5.0463867,0,8.3266602-2.9433594,8.3266602-8.0742188 C45.3774414,120.2963867,42.6015625,117.8569336,37.8076172,117.8569336z M39.0693359,140.9863281h-7.2333984v16.90625h6.980957 c5.5512695,0,8.3266602-3.6171875,8.3266602-8.8320312C47.1435547,144.1835938,43.8632812,140.9863281,39.0693359,140.9863281z"/><path class="st3" d="M65.8178711,165.9667969V157.21875l8.3266602-6.6445312 c7.90625-6.390625,11.2705078-9.1660156,11.2705078-13.203125c0-3.7016602-2.5234375-6.309082-7.4013672-6.309082 c-3.6166992,0-7.6538086,1.5976562-10.0087891,3.0283203l-1.5141602-9.0839844 c3.8691406-1.7666016,8.6630859-3.0273438,14.0458984-3.0273438c10.934082,0,16.7373047,5.3828125,16.7373047,13.3725586 c0,6.2246094-3.8691406,11.1855469-10.5976562,16.484375l-6.1396484,4.8789062l-0.0839844,0.0839844 c4.5415039-0.3359375,11.1020508-0.3359375,18.4194336-0.3359375v9.5039062H65.8178711z"/><path class="st3" d="M128.3115234,165.9667969h-19.0922852v-56.0991211h17.9145508 c9.1679688,0,16.7373047,3.6162109,16.8212891,13.7929688c0,6.6445312-4.0371094,10.2607422-10.0927734,12.6166992 c6.6445312,1.0078125,12.1113281,5.71875,12.1113281,13.0351562 C145.9736328,159.5742188,138.3203125,165.9667969,128.3115234,165.9667969z M125.7880859,117.8569336h-5.9716797v15.2236328 h5.2148438c5.0463867,0,8.3266602-2.9433594,8.3266602-8.0742188 C133.3579102,120.2963867,130.5820312,117.8569336,125.7880859,117.8569336z M127.0498047,140.9863281h-7.2333984v16.90625 h6.980957c5.5512695,0,8.3266602-3.6171875,8.3266602-8.8320312 C135.1240234,144.1835938,131.84375,140.9863281,127.0498047,140.9863281z"/></g></g></svg>