<?xml version="1.0" encoding="UTF-8" standalone="no"?>
<svg xmlns="http://www.w3.org/2000/svg" width="24" height="24"><path d="M9.856 2.040 C 8.634 2.141,7.775 2.443,6.949 3.064 C 5.937 3.823,5.316 4.915,5.091 6.329 C 5.026 6.745,5.020 7.183,5.020 12.000 C 5.020 16.817,5.026 17.255,5.091 17.671 C 5.280 18.858,5.722 19.769,6.477 20.523 C 7.231 21.278,8.142 21.720,9.329 21.909 C 9.723 21.971,10.063 21.980,12.000 21.980 C 13.937 21.980,14.277 21.971,14.671 21.909 C 15.858 21.720,16.769 21.278,17.523 20.523 C 18.278 19.769,18.720 18.858,18.909 17.671 C 18.974 17.255,18.980 16.817,18.980 12.000 C 18.980 6.270,18.984 6.389,18.736 5.529 C 18.284 3.965,17.037 2.718,15.471 2.264 C 14.757 2.057,14.424 2.032,12.260 2.019 C 11.160 2.013,10.078 2.022,9.856 2.040 M14.050 4.042 C 15.001 4.126,15.563 4.360,16.101 4.899 C 16.640 5.437,16.874 5.999,16.958 6.950 C 17.012 7.567,17.013 16.367,16.959 17.019 C 16.908 17.640,16.833 17.936,16.613 18.395 C 16.465 18.704,16.375 18.828,16.107 19.100 C 15.834 19.374,15.714 19.461,15.384 19.624 C 15.012 19.808,14.986 19.815,14.944 19.745 C 14.595 19.160,14.230 19.017,13.539 19.194 C 12.693 19.412,11.540 19.413,10.542 19.197 C 9.922 19.063,9.639 19.103,9.339 19.366 C 9.260 19.436,9.159 19.563,9.116 19.648 C 9.022 19.832,9.018 19.831,8.540 19.588 C 8.302 19.467,8.138 19.343,7.899 19.103 C 7.359 18.560,7.125 18.000,7.042 17.050 C 6.987 16.417,6.987 7.583,7.042 6.950 C 7.125 6.000,7.359 5.439,7.899 4.897 C 8.419 4.375,9.013 4.122,9.905 4.043 C 10.439 3.995,13.513 3.995,14.050 4.042 M9.640 5.044 C 9.049 5.158,8.435 5.684,8.202 6.276 C 8.037 6.695,8.037 6.766,8.223 10.040 C 8.401 13.150,8.421 13.389,8.539 13.718 C 8.687 14.134,9.089 14.581,9.491 14.777 C 9.906 14.981,10.111 14.999,12.000 14.999 C 13.890 14.999,14.094 14.981,14.511 14.776 C 14.784 14.643,15.144 14.307,15.309 14.033 C 15.570 13.600,15.584 13.481,15.777 10.043 C 15.909 7.699,15.944 6.839,15.916 6.660 C 15.799 5.906,15.110 5.205,14.328 5.044 C 14.072 4.991,9.912 4.991,9.640 5.044 M13.920 7.159 C 13.920 7.247,13.848 8.564,13.760 10.085 C 13.672 11.606,13.600 12.885,13.600 12.926 C 13.600 12.997,13.534 13.000,12.000 13.000 C 10.503 13.000,10.400 12.995,10.400 12.930 C 10.400 12.892,10.328 11.618,10.240 10.100 C 10.152 8.582,10.080 7.264,10.080 7.170 L 10.080 7.000 12.000 7.000 L 13.920 7.000 13.920 7.159 M9.000 16.037 C 8.551 16.174,8.263 16.549,8.262 17.000 C 8.261 17.436,8.515 17.797,8.924 17.942 C 9.120 18.011,10.331 18.024,10.563 17.960 C 10.920 17.861,11.240 17.407,11.240 16.999 C 11.240 16.577,10.924 16.152,10.529 16.042 C 10.359 15.995,9.152 15.991,9.000 16.037 M13.440 16.060 C 12.535 16.349,12.547 17.670,13.457 17.941 C 13.703 18.015,14.815 18.023,15.048 17.953 C 15.247 17.893,15.538 17.639,15.650 17.425 C 15.770 17.198,15.770 16.803,15.652 16.580 C 15.552 16.392,15.356 16.199,15.160 16.095 C 15.041 16.031,14.914 16.019,14.320 16.011 C 13.801 16.005,13.573 16.017,13.440 16.060" stroke="none" fill-rule="evenodd"/></svg>