<?xml version="1.0" encoding="UTF-8" standalone="no"?>
<svg xmlns="http://www.w3.org/2000/svg" width="24" height="24"><path d="M11.640 8.068 C 11.484 8.121,11.037 8.551,8.329 11.255 C 6.244 13.336,5.172 14.433,5.121 14.540 C 5.000 14.790,4.982 14.999,5.060 15.265 C 5.151 15.581,5.410 15.844,5.717 15.936 C 5.987 16.016,6.051 16.016,6.323 15.937 C 6.533 15.875,6.626 15.787,9.270 13.147 L 12.000 10.421 14.730 13.147 C 17.374 15.787,17.467 15.875,17.677 15.937 C 17.949 16.016,18.013 16.016,18.283 15.936 C 18.590 15.844,18.849 15.581,18.940 15.265 C 19.018 14.999,19.000 14.790,18.879 14.540 C 18.828 14.433,17.756 13.336,15.671 11.255 C 12.816 8.405,12.523 8.124,12.343 8.065 C 12.102 7.986,11.878 7.986,11.640 8.068" stroke="none" fill-rule="evenodd"/></svg>