<?xml version="1.0" encoding="UTF-8" standalone="no"?>
<svg xmlns:dc="http://purl.org/dc/elements/1.1/" xmlns:cc="http://creativecommons.org/ns#" xmlns:rdf="http://www.w3.org/1999/02/22-rdf-syntax-ns#" xmlns:svg="http://www.w3.org/2000/svg" xmlns="http://www.w3.org/2000/svg" xmlns:sodipodi="http://sodipodi.sourceforge.net/DTD/sodipodi-0.dtd" xmlns:inkscape="http://www.inkscape.org/namespaces/inkscape" width="225.7847mm" height="225.77777mm" viewBox="0 0 800.02452 799.99997" id="svg4164" version="1.1" inkscape:version="0.91 r13725" sodipodi:docname="product_icon_z.svg"><defs id="defs4166"/><sodipodi:namedview id="base" pagecolor="#ffffff" bordercolor="#666666" borderopacity="1.0" inkscape:pageopacity="0.0" inkscape:pageshadow="2" inkscape:zoom="0.35" inkscape:cx="-550.57057" inkscape:cy="-397.00053" inkscape:document-units="px" inkscape:current-layer="layer1" showgrid="false" fit-margin-top="0" fit-margin-left="0" fit-margin-right="0" fit-margin-bottom="0" inkscape:window-width="2560" inkscape:window-height="1378" inkscape:window-x="-8" inkscape:window-y="-8" inkscape:window-maximized="1"/><metadata id="metadata4169"><rdf:RDF><cc:Work rdf:about=""><dc:format>image/svg+xml</dc:format><dc:type rdf:resource="http://purl.org/dc/dcmitype/StillImage"/><dc:title/></cc:Work></rdf:RDF></metadata><g inkscape:label="Layer 1" inkscape:groupmode="layer" id="layer1" transform="translate(-231.28486,664.63832)"><g id="g7099" transform="matrix(17.391308,0,0,17.391308,-18565.173,-17547.729)"><path inkscape:connector-curvature="0" id="path5311-04" style="fill:#ffffff;fill-opacity:1;fill-rule:nonzero;stroke:none" d="m 1080.7961,1016.7775 46.0014,0 0,-45.99999 -46.0014,0 0,45.99999 z"/><path inkscape:connector-curvature="0" id="path5313-4" style="fill:#231f20;fill-opacity:1;fill-rule:nonzero;stroke:none" d="m 1125.0124,1014.9917 -42.4326,0 0,-42.4291 42.4326,0 0,42.4291 z m 1.7851,-44.21419 -46.0014,0 0,45.99999 46.0014,0 0,-45.99999 z"/><path d="m 1100.1475,976.45607 c 0.184,-0.071 0.5227,-0.13794 0.7175,-0.13794 l 2.3774,0 0,1.40238 0.9764,0 0,-1.40238 2.6452,0 c 0.1852,0 0.524,0.0717 0.6944,0.14808 l 2.7426,1.2232 0.3996,-0.88985 -2.7453,-1.22657 c -0.2962,-0.13118 -0.7668,-0.23193 -1.0913,-0.23193 l -5.999,0 c -0.3212,0 -0.7871,0.0913 -1.0839,0.21029 l -3.011,1.2259 0.3678,0.90337 3.0096,-1.22455 z" style="fill:#231f20;fill-opacity:1;fill-rule:nonzero;stroke:none" id="path5325-2" inkscape:connector-curvature="0"/><path d="m 1114.9018,1002.9562 0,-0.015 0,-0.014 c 0.6903,-8.50697 -0.4903,-18.49606 -0.5031,-18.59411 -0.4341,-2.63977 -2.0948,-4.17468 -2.111,-4.18888 l -0.016,-0.0162 c -1.6404,-1.69584 -3.5073,-1.7141 -3.5262,-1.7141 l -9.9019,0 c -0.019,0 -1.898,0.0284 -3.5255,1.7141 l -0.016,0.0162 c -0.018,0.0142 -1.6748,1.54911 -2.1123,4.20444 -0.012,0.0825 -1.1921,10.07429 -0.5024,18.57855 l 0,0.014 0,0.015 c 0,0.1319 0.052,3.2605 4.7048,5.1322 0.5632,0.012 4.7386,0.1027 6.4013,0.1595 1.6654,-0.057 5.8415,-0.1474 6.4027,-0.1595 4.6798,-1.8832 4.7034,-5.0984 4.7034,-5.1322" style="fill:#231f20;fill-opacity:1;fill-rule:nonzero;stroke:none" id="path5329-85" inkscape:connector-curvature="0"/><path d="m 1097.3171,1008.7776 -0.062,0 -0.059,-0.024 c -0.097,-0.039 -0.1886,-0.079 -0.2819,-0.119 l 0,3.4755 1.2198,0 0,-3.3146 c -0.4896,-0.01 -0.806,-0.017 -0.8175,-0.018" style="fill:#231f20;fill-opacity:1;fill-rule:nonzero;stroke:none" id="path5333-83" inkscape:connector-curvature="0"/><path d="m 1110.3962,1008.7539 -0.057,0.024 -0.064,0 c -0.01,0 -0.3232,0.01 -0.8148,0.018 l 0,3.3146 1.2205,0 0,-3.4755 c -0.095,0.04 -0.1873,0.081 -0.2853,0.119" style="fill:#231f20;fill-opacity:1;fill-rule:nonzero;stroke:none" id="path5337-0" inkscape:connector-curvature="0"/><path d="m 1097.5247,1000.2304 c -0.808,0 -1.4639,-0.65789 -1.4639,-1.46727 0,-0.80803 0.6559,-1.4673 1.4639,-1.4673 0.8081,0 1.464,0.65927 1.464,1.4673 0,0.80938 -0.6559,1.46727 -1.464,1.46727" style="fill:#ffffff;fill-opacity:1;fill-rule:nonzero;stroke:none" id="path5341-6" inkscape:connector-curvature="0"/><path d="m 1110.9178,1000.2304 c -0.8101,0 -1.466,-0.65789 -1.466,-1.46727 0,-0.80803 0.6559,-1.4673 1.466,-1.4673 0.808,0 1.4659,0.65927 1.4659,1.4673 0,0.80938 -0.6579,1.46727 -1.4659,1.46727" style="fill:#ffffff;fill-opacity:1;fill-rule:nonzero;stroke:none" id="path5345-98" inkscape:connector-curvature="0"/><path d="m 1103.7308,982.40956 c -0.8101,0 -1.4673,-0.65791 -1.4673,-1.46594 0,-0.80802 0.6572,-1.46594 1.4673,-1.46594 0.808,0 1.4673,0.65792 1.4673,1.46594 0,0.80803 -0.6593,1.46594 -1.4673,1.46594" style="fill:#ffffff;fill-opacity:1;fill-rule:nonzero;stroke:none" id="path5349-5" inkscape:connector-curvature="0"/><path d="m 1103.7117,983.55459 7.8172,0 c 0,0 1.2157,5.01382 1.1529,6.3878 l -17.9004,0 c -0.063,-1.37398 1.3598,-6.3878 1.3598,-6.3878 l 7.5705,0 z" style="fill:#ffffff;fill-opacity:1;fill-rule:nonzero;stroke:none" id="path5353-7" inkscape:connector-curvature="0"/></g></g></svg>