<?xml version="1.0" encoding="UTF-8" standalone="no"?>
<svg xmlns="http://www.w3.org/2000/svg" width="24" height="24"><path d="M16.000 1.948 C 15.601 2.014,15.103 2.290,14.836 2.593 C 14.663 2.790,14.445 3.222,14.062 4.124 L 13.832 4.669 12.020 6.480 L 10.208 8.292 9.788 8.245 C 9.218 8.180,8.263 8.187,7.797 8.258 C 6.609 8.439,5.395 9.099,4.225 10.200 C 3.843 10.559,3.753 10.714,3.729 11.049 C 3.692 11.555,3.642 11.490,5.605 13.460 L 7.358 15.220 4.821 17.760 C 2.047 20.537,2.105 20.469,2.109 20.925 C 2.113 21.313,2.308 21.627,2.659 21.813 C 2.885 21.931,3.277 21.930,3.520 21.810 C 3.649 21.747,4.416 21.005,6.239 19.181 L 8.779 16.641 10.519 18.376 C 11.719 19.572,12.316 20.139,12.440 20.202 C 12.690 20.327,13.072 20.326,13.320 20.200 C 13.620 20.047,14.315 19.272,14.806 18.542 C 15.262 17.865,15.563 17.159,15.725 16.388 C 15.831 15.887,15.850 14.798,15.764 14.186 L 15.709 13.792 17.502 11.998 L 19.295 10.205 20.179 9.821 C 21.289 9.339,21.565 9.142,21.837 8.637 C 22.076 8.194,22.147 7.603,22.016 7.157 C 21.859 6.623,21.821 6.578,19.782 4.527 C 18.725 3.463,17.749 2.504,17.614 2.396 C 17.138 2.016,16.558 1.854,16.000 1.948 M20.049 7.687 C 20.033 7.703,19.663 7.870,19.228 8.058 C 18.792 8.247,18.369 8.435,18.288 8.478 C 18.104 8.573,13.832 12.852,13.743 13.029 C 13.630 13.256,13.625 13.477,13.724 14.004 C 13.853 14.694,13.855 15.750,13.729 16.208 C 13.590 16.713,13.282 17.305,12.922 17.760 L 12.843 17.860 9.503 14.522 C 6.771 11.791,6.172 11.174,6.211 11.127 C 6.285 11.038,6.796 10.703,7.068 10.566 C 7.876 10.158,8.725 10.075,9.954 10.283 C 10.527 10.380,10.734 10.379,10.960 10.277 C 11.098 10.215,11.656 9.680,13.324 8.008 L 15.508 5.820 15.800 5.140 C 15.960 4.766,16.146 4.337,16.212 4.187 L 16.333 3.914 18.206 5.786 C 19.236 6.815,20.065 7.671,20.049 7.687" stroke="none" fill-rule="evenodd"/></svg>