<?xml version="1.0" encoding="UTF-8" standalone="no"?>
<svg xmlns="http://www.w3.org/2000/svg" width="24" height="24"><g fill-rule="evenodd" clip-rule="evenodd"><path d="M18.364 5.636A9 9 0 1 0 5.636 18.364 9 9 0 0 0 18.364 5.636M4.222 4.222c4.296-4.296 11.26-4.296 15.556 0s4.296 11.26 0 15.556-11.26 4.296-15.556 0-4.296-11.26 0-15.556"/><path d="M8.126 11.2a5.8 5.8 0 0 0 0 1.6h3.231a1 1 0 1 1 0 2h-2.54c.8 1.35 2.156 2.2 3.612 2.2 1.08 0 2.084-.453 2.863-1.234a1 1 0 0 1 1.416 1.412C15.592 18.299 14.092 19 12.428 19c-2.666 0-4.858-1.765-5.825-4.2H6a1 1 0 1 1 0-2h.113a7.7 7.7 0 0 1 0-1.6H6a1 1 0 1 1 0-2h.603C7.57 6.766 9.762 5 12.43 5c1.663 0 3.163.703 4.279 1.822a1 1 0 0 1-1.416 1.412C14.512 7.453 13.509 7 12.429 7c-1.456 0-2.811.85-3.612 2.2h2.54a1 1 0 1 1 0 2z"/></g></svg>