<?xml version="1.0" encoding="UTF-8" standalone="no"?>
<svg xmlns="http://www.w3.org/2000/svg" width="24" height="24"><path d="M11.069 1.039 C 8.822 1.258,6.868 2.041,5.101 3.432 C 4.640 3.795,3.606 4.863,3.231 5.363 C 2.075 6.906,1.379 8.590,1.093 10.540 C 0.995 11.212,0.995 12.788,1.093 13.460 C 1.379 15.409,2.074 17.091,3.230 18.637 C 3.685 19.244,4.756 20.315,5.363 20.770 C 6.909 21.926,8.591 22.621,10.540 22.907 C 11.212 23.005,12.788 23.005,13.460 22.907 C 15.409 22.621,17.091 21.926,18.637 20.770 C 19.244 20.315,20.315 19.244,20.770 18.637 C 21.926 17.091,22.621 15.409,22.907 13.460 C 22.959 13.104,22.977 12.727,22.977 12.000 C 22.977 11.273,22.959 10.896,22.907 10.540 C 22.621 8.590,21.925 6.906,20.769 5.363 C 20.394 4.863,19.360 3.795,18.899 3.432 C 17.302 2.175,15.548 1.412,13.580 1.120 C 12.946 1.026,11.638 0.984,11.069 1.039 M13.320 3.101 C 14.269 3.244,15.066 3.494,15.944 3.923 C 18.627 5.233,20.448 7.726,20.906 10.720 C 21.003 11.354,21.003 12.646,20.906 13.280 C 20.506 15.891,19.079 18.117,16.880 19.560 C 16.071 20.090,14.874 20.589,13.908 20.797 C 9.860 21.669,5.722 19.656,3.920 15.940 C 3.280 14.621,3.023 13.493,3.023 12.000 C 3.023 10.507,3.280 9.379,3.920 8.060 C 4.794 6.256,6.247 4.803,8.060 3.918 C 9.091 3.415,10.026 3.160,11.340 3.024 C 11.662 2.991,12.911 3.039,13.320 3.101 M8.493 7.592 C 7.831 7.828,7.409 8.538,7.521 9.228 C 7.718 10.436,9.190 10.915,10.053 10.053 C 10.782 9.323,10.575 8.106,9.644 7.650 C 9.352 7.507,8.807 7.480,8.493 7.592 M14.493 7.592 C 13.831 7.828,13.409 8.538,13.521 9.228 C 13.718 10.436,15.190 10.915,16.053 10.053 C 16.782 9.323,16.575 8.106,15.644 7.650 C 15.352 7.507,14.807 7.480,14.493 7.592 M7.664 13.063 C 7.436 13.146,7.257 13.297,7.131 13.511 C 7.036 13.672,7.020 13.744,7.020 14.000 C 7.020 14.389,7.112 14.550,7.633 15.075 C 8.471 15.918,9.380 16.467,10.460 16.780 C 12.513 17.375,14.725 16.736,16.368 15.074 C 16.890 14.545,16.980 14.388,16.980 14.000 C 16.980 13.743,16.964 13.673,16.867 13.508 C 16.662 13.158,16.295 12.971,15.895 13.012 C 15.594 13.043,15.487 13.114,14.990 13.614 C 14.330 14.276,13.772 14.622,12.971 14.867 C 12.655 14.963,12.558 14.974,12.000 14.974 C 11.442 14.974,11.345 14.963,11.029 14.867 C 10.222 14.621,9.674 14.278,8.989 13.594 C 8.584 13.188,8.490 13.114,8.312 13.061 C 8.061 12.987,7.870 12.987,7.664 13.063" stroke="none" fill-rule="evenodd"/></svg>