<?xml version="1.0" standalone="no"?><!DOCTYPE svg PUBLIC "-//W3C//DTD SVG 20010904//EN"  "http://www.w3.org/TR/2001/REC-SVG-20010904/DTD/svg10.dtd"><svg version="1.0" xmlns="http://www.w3.org/2000/svg" width="300.000000pt" height="369.000000pt" viewBox="0 0 300.000000 369.000000" preserveAspectRatio="xMidYMid meet"><g transform="translate(0.000000,369.000000) scale(0.100000,-0.100000)" fill="#000000" stroke="none"><path d="M200 2320 c-41 -4 -87 -13 -102 -19 -36 -14 -66 -78 -74 -158 -6 -58 -4 -68 26 -129 17 -36 38 -68 46 -71 8 -3 14 -12 14 -20 0 -9 6 -13 14 -10 37 15 538 18 1335 8 486 -5 885 -12 888 -14 7 -8 -13 -946 -21 -954 -14 -15 -1523 5 -1860 23 l-119 7 9 301 c12 398 12 621 -1 621 -5 0 -10 -41 -11 -95 -1 -52 -5 -258 -9 -457 l-8 -363 -33 -1 c-66 -3 -67 -4 -59 -63 9 -59 25 -59 25 0 0 30 4 43 11 38 13 -7 66 -10 459 -18 162 -4 340 -9 395 -11 240 -11 1206 -16 1247 -8 l44 10 10 -43 c8 -35 7 -44 -4 -49 -8 -3 -17 -3 -22 0 -4 3 -257 5 -562 5 -318 0 -591 5 -639 11 -46 6 -154 10 -239 10 -85 -1 -274 3 -420 8 -146 5 -267 8 -269 6 -2 -2 4 -11 13 -20 14 -15 14 -19 0 -53 -31 -73 -36 -88 -55 -176 -23 -109 -24 -145 -3 -174 21 -30 56 -43 116 -44 l48 0 0 -57 c0 -154 154 -306 336 -332 60 -9 77 -7 137 12 96 31 164 75 214 139 50 65 76 136 71 191 l-4 40 36 -5 c19 -3 74 -8 122 -12 95 -7 98 -9 98 -82 0 -45 46 -136 93 -182 95 -96 253 -145 362 -112 107 31 223 109 239 160 4 12 11 22 15 22 14 0 33 54 40 110 l6 55 70 -3 c71 -4 185 18 216 41 21 16 49 71 49 96 0 20 5 21 242 19 174 -1 243 2 246 10 3 9 -64 12 -244 14 l-247 3 -13 50 c-7 28 -13 50 -14 50 0 0 91 1 203 3 111 1 226 -2 255 -8 57 -10 82 -5 82 16 0 17 12 17 -269 15 -129 -1 -246 1 -260 4 -20 4 -30 17 -44 58 -32 89 -32 85 0 89 30 3 30 1 18 90 l-6 47 -40 -5 -41 -5 6 268 c4 147 9 364 12 481 l6 212 63 0 c76 0 111 16 139 67 39 68 50 124 36 185 -17 74 -20 78 -77 110 -94 53 -143 55 -1258 56 -556 0 -1044 -4 -1085 -8z m1748 -20 c405 -2 505 -10 578 -48 61 -31 67 -43 68 -130 0 -62 -4 -85 -23 -119 -13 -24 -29 -43 -37 -43 -8 0 -14 -4 -14 -9 0 -17 -170 -22 -434 -11 -290 11 -1854 16 -1927 5 -39 -5 -45 -4 -55 17 -6 13 -22 43 -34 68 -42 84 -10 234 55 252 79 23 375 25 1823 18z m-1018 -1455 c85 -1 297 -7 470 -13 173 -6 464 -11 646 -11 l331 -1 6 -34 c3 -18 20 -69 37 -112 52 -130 51 -225 -3 -252 -42 -21 -103 -32 -180 -32 -71 0 -78 2 -86 23 -5 12 -20 51 -32 86 -38 102 -126 163 -280 197 -45 9 -93 13 -122 9 -58 -7 -153 -41 -185 -65 -37 -30 -110 -135 -123 -180 l-13 -43 -110 6 c-61 3 -118 8 -127 11 -9 4 -29 39 -44 77 -22 54 -39 79 -76 110 -140 117 -374 135 -509 39 -35 -25 -116 -137 -125 -173 -11 -41 -28 -50 -85 -42 -49 7 -90 34 -90 59 0 29 53 241 70 282 11 25 20 52 20 60 0 12 36 13 228 8 125 -3 297 -7 382 -9z m-36 -176 c68 -20 146 -77 146 -105 0 -8 7 -14 15 -14 28 0 57 -89 59 -180 1 -82 0 -87 -36 -140 -51 -77 -83 -104 -162 -140 -120 -54 -211 -51 -324 12 -113 63 -172 155 -175 271 -2 61 2 81 26 130 86 174 241 231 451 166z m1001 -14 c66 -20 114 -51 140 -92 11 -18 25 -32 31 -33 17 0 43 -66 56 -139 12 -72 -1 -153 -27 -169 -7 -4 -20 -21 -29 -39 -20 -40 -64 -74 -147 -113 -86 -40 -149 -47 -225 -26 -201 58 -317 240 -259 406 17 49 80 140 116 168 14 11 52 30 85 41 68 24 167 22 259 -4z"/><path d="M684 471 c-35 -21 -64 -75 -64 -118 0 -72 72 -144 144 -142 54 1 67 7 116 52 32 31 40 46 40 73 0 89 -66 154 -155 154 -31 0 -62 -7 -81 -19z m124 -21 c2 -5 12 -10 21 -10 22 0 46 -26 61 -64 14 -39 -1 -77 -46 -111 -44 -34 -84 -41 -122 -21 -89 46 -97 165 -13 212 28 15 93 12 99 -6z"/><path d="M1717 465 c-21 -7 -40 -15 -41 -17 -37 -51 -46 -71 -46 -108 0 -110 102 -179 203 -136 45 18 97 80 97 115 0 104 -113 182 -213 146z m101 -34 c2 -6 12 -11 23 -11 25 0 59 -56 59 -96 0 -24 -10 -40 -40 -68 -33 -30 -48 -36 -84 -36 -55 0 -101 35 -117 90 -10 33 -9 43 11 78 12 22 32 45 44 51 25 13 99 7 104 -8z"/><path d="M842 1801 c-78 -20 -201 -133 -225 -206 -20 -61 -28 -358 -10 -376 12 -12 597 -16 633 -4 27 8 34 70 27 237 -6 156 -11 170 -94 249 -79 76 -135 102 -223 105 -41 2 -90 -1 -108 -5z m205 -43 c62 -29 130 -84 161 -131 26 -41 27 -46 30 -213 l4 -172 -174 -7 c-95 -3 -234 -5 -308 -3 l-135 3 -3 137 c-3 183 10 234 82 302 80 76 119 98 189 106 73 8 98 5 154 -22z"/><path d="M1668 1796 c-49 -18 -150 -93 -178 -134 -47 -67 -59 -126 -60 -282 0 -80 4 -151 8 -158 13 -19 630 -18 650 1 10 11 14 54 14 179 2 192 -8 223 -92 302 -73 69 -159 106 -240 106 -36 -1 -81 -7 -102 -14z m227 -43 c56 -28 126 -91 157 -142 19 -30 22 -53 25 -190 2 -86 0 -162 -5 -169 -6 -9 -84 -14 -310 -19 l-302 -6 0 155 c0 186 11 227 77 292 74 73 114 96 184 105 80 11 111 6 174 -26z"/></g></svg>