<?xml version="1.0" encoding="UTF-8" standalone="no"?>
<svg xmlns="http://www.w3.org/2000/svg" width="24" height="24"><path d="M7.900 1.025 C 7.515 1.059,7.122 1.136,6.889 1.223 C 6.133 1.507,5.420 2.248,5.183 2.997 C 5.045 3.436,5.000 3.938,5.000 5.053 L 5.000 6.028 4.671 6.056 C 3.382 6.163,2.340 6.771,1.662 7.811 C 1.396 8.220,1.267 8.517,1.160 8.973 C 1.017 9.583,0.993 10.210,1.009 12.980 C 1.024 15.555,1.026 15.628,1.112 15.940 C 1.359 16.835,1.796 17.538,2.429 18.060 C 3.071 18.590,3.736 18.869,4.586 18.964 L 5.000 19.011 5.000 19.467 C 5.000 20.749,5.241 21.468,5.886 22.114 C 6.384 22.611,6.946 22.874,7.690 22.957 C 8.219 23.016,15.780 23.016,16.309 22.957 C 17.274 22.849,17.999 22.407,18.526 21.605 C 18.860 21.097,19.000 20.464,19.000 19.466 L 19.000 19.008 19.290 18.981 C 21.089 18.810,22.427 17.679,22.889 15.940 C 22.971 15.633,22.975 15.516,22.990 13.020 C 23.014 9.203,22.959 8.765,22.338 7.811 C 21.660 6.771,20.618 6.163,19.329 6.056 L 19.000 6.028 19.000 5.053 C 19.000 3.938,18.955 3.436,18.817 2.997 C 18.586 2.268,17.887 1.527,17.155 1.238 C 16.613 1.023,16.704 1.027,12.220 1.019 C 9.932 1.015,7.988 1.018,7.900 1.025 M16.374 3.075 C 16.574 3.141,16.861 3.430,16.922 3.626 C 16.951 3.722,16.977 4.199,16.989 4.890 L 17.009 6.000 12.005 6.000 L 7.000 6.000 7.001 5.090 C 7.003 3.997,7.041 3.643,7.180 3.432 C 7.327 3.210,7.545 3.082,7.845 3.042 C 7.985 3.024,9.927 3.012,12.160 3.016 C 15.346 3.022,16.253 3.034,16.374 3.075 M19.460 8.075 C 19.819 8.146,20.109 8.308,20.401 8.599 C 20.694 8.892,20.856 9.184,20.922 9.540 C 20.985 9.875,21.022 14.790,20.965 15.256 C 20.853 16.173,20.154 16.867,19.230 16.981 L 19.000 17.009 19.000 16.543 C 19.000 15.535,18.861 14.904,18.526 14.395 C 18.052 13.674,17.384 13.225,16.560 13.075 C 16.122 12.995,7.883 12.994,7.440 13.074 C 6.622 13.222,5.899 13.713,5.459 14.420 C 5.132 14.946,5.000 15.555,5.000 16.538 C 5.000 17.064,5.029 17.032,4.617 16.957 C 3.929 16.831,3.334 16.300,3.095 15.600 C 3.025 15.393,3.020 15.215,3.020 12.640 C 3.020 9.671,3.031 9.482,3.231 9.083 C 3.446 8.652,3.937 8.232,4.353 8.121 C 4.449 8.096,4.701 8.060,4.913 8.042 C 5.556 7.988,19.176 8.018,19.460 8.075 M14.617 9.577 C 14.271 9.727,14.001 10.133,14.001 10.500 C 14.001 10.886,14.304 11.318,14.665 11.445 C 14.787 11.488,15.179 11.500,16.500 11.500 C 17.821 11.500,18.213 11.488,18.335 11.445 C 18.696 11.318,18.999 10.886,18.999 10.500 C 18.999 10.128,18.725 9.721,18.374 9.575 C 18.184 9.496,14.799 9.497,14.617 9.577 M16.374 15.075 C 16.585 15.145,16.862 15.431,16.928 15.646 C 16.968 15.781,16.980 16.316,16.980 18.000 C 16.980 19.684,16.968 20.219,16.928 20.354 C 16.863 20.567,16.591 20.849,16.376 20.925 C 16.144 21.007,7.856 21.007,7.624 20.925 C 7.421 20.853,7.140 20.570,7.076 20.374 C 7.009 20.167,6.976 16.429,7.036 15.932 C 7.105 15.373,7.345 15.109,7.845 15.042 C 7.985 15.024,9.927 15.012,12.160 15.016 C 15.346 15.022,16.253 15.034,16.374 15.075" stroke="none" fill-rule="evenodd"/></svg>