<?xml version="1.0" encoding="UTF-8" standalone="no"?>
<svg xmlns="http://www.w3.org/2000/svg" width="24" height="24"><path d="M11.640 4.068 C 11.484 4.121,10.980 4.609,7.829 7.755 C 5.200 10.379,4.174 11.429,4.113 11.556 C 3.922 11.947,3.995 12.398,4.298 12.700 C 4.577 12.979,4.953 13.064,5.343 12.935 C 5.522 12.876,5.788 12.623,8.270 10.146 L 11.000 7.421 11.000 13.281 C 11.000 17.194,11.014 19.189,11.042 19.289 C 11.103 19.509,11.315 19.762,11.531 19.874 C 11.932 20.080,12.390 20.012,12.700 19.702 C 13.023 19.379,13.000 19.870,13.000 13.284 L 13.000 7.421 15.730 10.147 C 18.374 12.787,18.467 12.875,18.677 12.937 C 18.949 13.016,19.013 13.016,19.283 12.936 C 19.590 12.844,19.849 12.581,19.940 12.265 C 20.018 11.999,20.000 11.790,19.879 11.540 C 19.828 11.433,18.600 10.179,16.171 7.755 C 12.850 4.439,12.523 4.124,12.343 4.065 C 12.102 3.986,11.878 3.987,11.640 4.068" stroke="none" fill-rule="evenodd"/></svg>