<?xml version="1.0" encoding="UTF-8" standalone="no"?>
<svg xmlns="http://www.w3.org/2000/svg" width="24" height="24"><path d="M14.180 1.105 C 13.396 1.226,12.699 1.724,12.365 2.402 C 11.994 3.155,11.994 3.845,12.364 4.597 C 12.748 5.375,13.627 5.919,14.500 5.919 C 15.371 5.919,16.254 5.370,16.638 4.591 C 17.006 3.845,17.005 3.153,16.635 2.402 C 16.351 1.827,15.800 1.371,15.161 1.183 C 14.934 1.117,14.389 1.073,14.180 1.105 M14.703 3.155 C 14.847 3.243,14.940 3.437,14.904 3.577 C 14.891 3.632,14.836 3.727,14.783 3.788 C 14.703 3.881,14.655 3.900,14.500 3.900 C 14.345 3.900,14.297 3.881,14.217 3.788 C 14.089 3.640,14.060 3.505,14.122 3.354 C 14.178 3.221,14.371 3.080,14.500 3.080 C 14.544 3.080,14.635 3.114,14.703 3.155 M9.640 4.821 C 9.328 4.906,8.899 5.126,8.629 5.340 C 8.348 5.562,8.032 5.979,7.912 6.286 L 7.824 6.512 7.502 6.580 C 7.037 6.679,6.188 6.965,5.840 7.139 C 5.209 7.455,4.774 7.849,4.546 8.310 L 4.423 8.560 4.120 8.560 C 3.120 8.560,2.309 9.227,2.151 10.180 C 2.100 10.489,2.156 10.880,2.385 11.816 C 2.927 14.026,3.928 15.993,5.226 17.400 L 5.540 17.740 5.735 19.180 C 5.841 19.972,5.954 20.755,5.984 20.920 C 6.115 21.630,6.579 22.192,7.242 22.444 C 7.503 22.544,8.832 22.770,9.840 22.886 C 10.881 23.006,12.867 23.017,13.880 22.907 C 15.275 22.756,16.532 22.542,16.860 22.401 C 17.312 22.206,17.710 21.796,17.899 21.330 C 17.997 21.088,18.046 20.786,18.364 18.463 L 18.495 17.505 18.772 17.203 C 20.031 15.826,21.022 13.873,21.624 11.580 C 21.852 10.712,21.885 10.324,21.766 9.931 C 21.512 9.096,20.761 8.560,19.844 8.560 L 19.571 8.560 19.446 8.307 C 19.196 7.799,18.623 7.347,17.806 7.015 C 16.813 6.612,15.087 6.292,13.520 6.220 C 12.601 6.178,12.621 6.182,12.495 5.967 C 12.233 5.519,11.660 5.063,11.120 4.876 C 10.784 4.758,9.980 4.729,9.640 4.821 M10.600 6.826 C 10.745 6.912,10.880 7.153,10.880 7.326 C 10.880 7.663,10.533 7.956,10.200 7.900 C 9.635 7.804,9.516 7.085,10.020 6.807 C 10.141 6.740,10.472 6.751,10.600 6.826 M14.420 8.302 C 15.222 8.392,15.857 8.506,16.425 8.662 C 16.974 8.813,17.541 9.054,17.500 9.119 C 17.416 9.255,16.540 9.561,15.787 9.716 C 14.649 9.952,13.530 10.050,12.000 10.050 C 10.022 10.050,8.346 9.841,7.233 9.456 C 6.822 9.314,6.480 9.145,6.480 9.085 C 6.480 9.030,7.082 8.769,7.440 8.667 C 8.019 8.503,7.967 8.501,8.094 8.701 C 8.495 9.334,9.164 9.763,9.937 9.880 C 10.322 9.938,10.672 9.906,11.080 9.776 C 11.468 9.653,11.734 9.497,12.039 9.214 C 12.313 8.961,12.469 8.752,12.639 8.409 L 12.753 8.179 13.306 8.209 C 13.611 8.226,14.112 8.267,14.420 8.302 M4.560 10.590 C 4.560 10.607,4.633 11.149,4.722 11.795 C 4.811 12.441,4.877 12.977,4.867 12.986 C 4.841 13.012,4.584 12.271,4.446 11.775 C 4.339 11.391,4.160 10.642,4.160 10.580 C 4.160 10.569,4.250 10.560,4.360 10.560 C 4.470 10.560,4.560 10.573,4.560 10.590 M19.800 10.603 C 19.800 10.777,19.216 12.710,19.176 12.669 C 19.168 12.661,19.224 12.201,19.301 11.645 C 19.377 11.090,19.440 10.619,19.440 10.598 C 19.440 10.577,19.521 10.560,19.620 10.560 C 19.721 10.560,19.800 10.579,19.800 10.603 M6.913 11.458 C 7.357 11.614,8.591 11.841,9.528 11.939 C 12.076 12.204,15.317 12.003,17.026 11.475 C 17.170 11.431,17.293 11.400,17.299 11.407 C 17.304 11.414,17.151 12.563,16.957 13.960 C 16.763 15.357,16.603 16.513,16.602 16.529 C 16.599 16.581,15.871 17.104,15.540 17.293 C 14.546 17.859,13.447 18.147,12.120 18.188 C 10.432 18.241,8.932 17.823,7.742 16.968 L 7.424 16.740 7.075 14.200 C 6.884 12.803,6.718 11.602,6.706 11.530 C 6.682 11.382,6.690 11.379,6.913 11.458 M16.145 19.871 C 16.096 20.228,16.038 20.537,16.018 20.557 C 15.976 20.597,14.986 20.760,14.200 20.856 C 12.641 21.047,11.276 21.048,9.740 20.857 C 9.241 20.795,7.990 20.598,7.966 20.578 C 7.949 20.562,7.802 19.529,7.801 19.415 C 7.800 19.333,7.820 19.337,8.230 19.507 C 9.438 20.006,10.779 20.235,12.220 20.189 C 13.576 20.145,14.771 19.873,15.921 19.346 C 16.086 19.271,16.223 19.212,16.227 19.215 C 16.231 19.219,16.194 19.514,16.145 19.871" stroke="none" fill-rule="evenodd"/></svg>