<?xml version="1.0" encoding="UTF-8" standalone="no"?>
<svg xmlns="http://www.w3.org/2000/svg" width="24" height="24"><path d="M8.660 1.044 C 7.026 1.222,5.428 1.884,4.160 2.908 C 3.755 3.235,3.039 3.981,2.715 4.413 C 1.112 6.552,0.608 9.392,1.381 11.939 C 2.307 14.995,4.852 17.280,7.979 17.861 C 8.615 17.980,8.917 17.932,9.195 17.668 C 9.593 17.290,9.625 16.701,9.268 16.296 C 9.056 16.055,8.959 16.012,8.369 15.899 C 6.230 15.488,4.531 14.191,3.625 12.278 C 3.234 11.452,3.052 10.713,3.013 9.800 C 2.954 8.381,3.302 7.096,4.059 5.940 C 4.336 5.518,4.460 5.365,4.852 4.966 C 6.226 3.566,8.102 2.862,10.007 3.032 C 10.649 3.089,11.006 3.161,11.554 3.343 C 12.539 3.670,13.322 4.158,14.082 4.918 C 15.040 5.876,15.610 6.941,15.877 8.276 C 15.977 8.775,16.040 8.915,16.249 9.103 C 16.456 9.290,16.628 9.360,16.884 9.360 C 17.170 9.360,17.373 9.291,17.562 9.129 C 17.887 8.851,17.964 8.552,17.860 7.971 C 17.454 5.710,16.113 3.685,14.180 2.417 C 13.141 1.735,11.981 1.286,10.780 1.101 C 10.277 1.023,9.134 0.993,8.660 1.044 M8.780 4.804 C 8.101 4.902,7.260 5.252,6.697 5.670 C 6.253 6.000,5.702 6.597,5.460 7.009 L 5.260 7.351 4.973 7.378 C 4.275 7.446,3.860 8.018,4.041 8.663 C 4.105 8.892,4.386 9.210,4.600 9.295 C 4.744 9.353,4.760 9.373,4.760 9.499 C 4.760 9.626,4.743 9.648,4.579 9.725 C 4.357 9.829,4.110 10.102,4.047 10.312 C 3.848 10.976,4.286 11.571,5.016 11.630 C 5.244 11.648,5.277 11.662,5.320 11.755 C 5.517 12.189,6.165 12.932,6.681 13.317 C 8.333 14.549,10.659 14.549,12.320 13.318 C 12.834 12.937,13.002 12.678,12.998 12.275 C 12.995 11.903,12.811 11.604,12.475 11.421 C 12.299 11.325,12.213 11.304,12.000 11.305 C 11.702 11.305,11.589 11.354,11.207 11.647 C 10.504 12.186,9.646 12.371,8.824 12.161 C 8.524 12.084,8.081 11.878,7.880 11.720 L 7.780 11.642 8.303 11.641 C 8.976 11.640,9.191 11.581,9.446 11.325 C 9.912 10.859,9.825 10.129,9.262 9.781 L 9.066 9.660 7.913 9.648 L 6.760 9.637 6.760 9.498 L 6.760 9.360 7.870 9.360 C 8.952 9.359,8.985 9.357,9.183 9.265 C 9.430 9.150,9.623 8.926,9.701 8.663 C 9.775 8.415,9.775 8.344,9.698 8.085 C 9.622 7.829,9.420 7.596,9.170 7.475 C 9.012 7.398,8.895 7.382,8.383 7.363 L 7.781 7.340 7.981 7.212 C 8.463 6.904,8.942 6.761,9.500 6.761 C 10.129 6.761,10.689 6.955,11.201 7.348 C 11.345 7.459,11.520 7.579,11.591 7.615 C 12.170 7.915,12.919 7.490,12.988 6.823 C 13.025 6.467,12.945 6.260,12.663 5.979 C 12.076 5.395,11.094 4.930,10.183 4.803 C 9.827 4.753,9.129 4.754,8.780 4.804 M15.609 10.059 C 15.193 10.177,14.918 10.392,14.647 10.812 C 14.440 11.134,9.389 20.251,9.213 20.623 C 9.025 21.017,8.973 21.326,9.036 21.669 C 9.166 22.378,9.663 22.854,10.381 22.958 C 10.765 23.014,21.287 23.014,21.640 22.959 C 22.345 22.848,22.835 22.363,22.969 21.642 C 23.027 21.329,22.970 21.005,22.787 20.623 C 22.619 20.269,17.577 11.169,17.356 10.819 C 17.145 10.485,16.854 10.226,16.568 10.119 C 16.271 10.008,15.880 9.983,15.609 10.059 M18.360 16.706 C 19.647 19.030,20.706 20.947,20.713 20.966 C 20.721 20.985,18.622 21.000,16.000 21.000 C 13.335 21.000,11.279 20.985,11.287 20.965 C 11.324 20.867,15.983 12.481,16.000 12.481 C 16.011 12.481,17.073 14.382,18.360 16.706 M15.667 15.065 C 15.399 15.147,15.145 15.408,15.063 15.684 C 14.989 15.932,14.974 17.086,15.042 17.329 C 15.105 17.557,15.316 17.803,15.555 17.928 C 16.087 18.206,16.743 17.939,16.939 17.365 C 17.025 17.114,17.025 15.978,16.939 15.690 C 16.856 15.411,16.589 15.144,16.310 15.061 C 16.061 14.987,15.919 14.988,15.667 15.065 M15.578 18.595 C 15.375 18.688,15.109 18.987,15.047 19.192 C 14.942 19.545,15.013 19.873,15.255 20.148 C 15.464 20.385,15.670 20.478,15.991 20.479 C 16.284 20.480,16.448 20.421,16.655 20.239 C 16.888 20.034,16.978 19.829,16.978 19.500 C 16.978 19.290,16.956 19.179,16.891 19.056 C 16.791 18.866,16.563 18.654,16.374 18.575 C 16.185 18.496,15.774 18.507,15.578 18.595" stroke="none" fill-rule="evenodd"/></svg>