<?xml version="1.0" encoding="UTF-8" standalone="no"?>
<svg xmlns="http://www.w3.org/2000/svg" width="24" height="24"><path d="M11.041 1.042 C 7.711 1.363,4.741 3.110,2.907 5.827 C 2.328 6.685,1.915 7.509,1.606 8.420 C 0.471 11.767,0.960 15.337,2.952 18.240 C 4.530 20.541,6.976 22.172,9.720 22.755 C 10.538 22.928,11.023 22.975,12.000 22.975 C 12.977 22.975,13.462 22.928,14.280 22.755 C 18.526 21.853,21.853 18.526,22.755 14.280 C 22.928 13.462,22.975 12.977,22.975 12.000 C 22.975 11.023,22.928 10.538,22.755 9.720 C 21.853 5.474,18.525 2.146,14.280 1.246 C 13.332 1.044,11.929 0.956,11.041 1.042 M12.886 3.042 C 15.584 3.314,18.000 4.780,19.532 7.073 C 19.848 7.546,20.324 8.521,20.516 9.086 C 21.295 11.381,21.124 13.879,20.042 16.020 C 19.564 16.966,19.084 17.632,18.358 18.358 C 17.632 19.084,16.966 19.564,16.020 20.042 C 13.495 21.318,10.505 21.318,7.980 20.042 C 7.038 19.566,6.357 19.076,5.640 18.360 C 4.924 17.643,4.434 16.962,3.958 16.020 C 2.682 13.495,2.682 10.505,3.958 7.980 C 4.434 7.038,4.924 6.357,5.640 5.640 C 6.357 4.924,7.038 4.434,7.980 3.958 C 8.913 3.486,10.041 3.150,11.042 3.046 C 11.528 2.995,12.405 2.993,12.886 3.042 M11.433 8.040 C 10.843 8.134,10.221 8.380,9.731 8.712 C 8.955 9.240,8.394 10.037,8.130 10.989 C 8.034 11.337,8.022 11.449,8.022 12.000 C 8.022 12.553,8.034 12.663,8.132 13.017 C 8.475 14.256,9.357 15.252,10.520 15.715 C 12.334 16.437,14.462 15.710,15.444 14.033 C 16.503 12.224,15.985 9.878,14.269 8.712 C 13.917 8.473,13.343 8.214,12.958 8.120 C 12.572 8.026,11.783 7.984,11.433 8.040" stroke="none" fill-rule="evenodd"/></svg>