<?xml version="1.0" encoding="UTF-8" standalone="no"?>
<svg xmlns="http://www.w3.org/2000/svg" width="24" height="24" viewBox="0 0 24 24"><path d="M19.5508 5.41005C18.6338 4.48416 17.5418 3.75002 16.3383 3.25042C15.1348 2.75081 13.8439 2.49574 12.5408 2.50005C7.08078 2.50005 2.63078 6.95005 2.63078 12.4101C2.63078 14.1601 3.09078 15.8601 3.95078 17.3601L2.55078 22.5001L7.80078 21.1201C9.25078 21.9101 10.8808 22.3301 12.5408 22.3301C18.0008 22.3301 22.4508 17.8801 22.4508 12.4201C22.4508 9.77005 21.4208 7.28005 19.5508 5.41005ZM12.5408 20.6501C11.0608 20.6501 9.61078 20.2501 8.34078 19.5001L8.04078 19.3201L4.92078 20.1401L5.75078 17.1001L5.55078 16.7901C4.72833 15.4771 4.29171 13.9593 4.29078 12.4101C4.29078 7.87005 7.99078 4.17005 12.5308 4.17005C14.7308 4.17005 16.8008 5.03005 18.3508 6.59005C19.1184 7.35392 19.7267 8.2626 20.1404 9.26338C20.5541 10.2642 20.765 11.3371 20.7608 12.4201C20.7808 16.9601 17.0808 20.6501 12.5408 20.6501ZM17.0608 14.4901C16.8108 14.3701 15.5908 13.7701 15.3708 13.6801C15.1408 13.6001 14.9808 13.5601 14.8108 13.8001C14.6408 14.0501 14.1708 14.6101 14.0308 14.7701C13.8908 14.9401 13.7408 14.9601 13.4908 14.8301C13.2408 14.7101 12.4408 14.4401 11.5008 13.6001C10.7608 12.9401 10.2708 12.1301 10.1208 11.8801C9.98078 11.6301 10.1008 11.5001 10.2308 11.3701C10.3408 11.2601 10.4808 11.0801 10.6008 10.9401C10.7208 10.8001 10.7708 10.6901 10.8508 10.5301C10.9308 10.3601 10.8908 10.2201 10.8308 10.1001C10.7708 9.98005 10.2708 8.76005 10.0708 8.26005C9.87078 7.78005 9.66078 7.84005 9.51078 7.83005H9.03078C8.86078 7.83005 8.60078 7.89005 8.37078 8.14005C8.15078 8.39005 7.51078 8.99005 7.51078 10.2101C7.51078 11.4301 8.40078 12.6101 8.52078 12.7701C8.64078 12.9401 10.2708 15.4401 12.7508 16.5101C13.3408 16.7701 13.8008 16.9201 14.1608 17.0301C14.7508 17.2201 15.2908 17.1901 15.7208 17.1301C16.2008 17.0601 17.1908 16.5301 17.3908 15.9501C17.6008 15.3701 17.6008 14.8801 17.5308 14.7701C17.4608 14.6601 17.3108 14.6101 17.0608 14.4901Z" stroke="none" fill-rule="evenodd"/></svg>