<?xml version="1.0" encoding="UTF-8" standalone="no"?>
<svg width="24" height="24" viewBox="0 0 24 24" fill="none" xmlns="http://www.w3.org/2000/svg"><rect x="0.25" y="0.25" width="23.5" height="23.5" rx="2.75" fill="white" stroke="#2D2B29" stroke-width="0.5"/><path fill-rule="evenodd" clip-rule="evenodd" d="M17.93 17.82C17.7229 18.4668 17.414 19.0764 17.015 19.626C16.711 20.049 16.361 20.392 15.928 20.628C15.9851 20.7704 16.0086 20.9241 15.9968 21.0771C15.9849 21.2301 15.938 21.3784 15.8597 21.5103C15.7814 21.6423 15.6738 21.7545 15.5452 21.8382C15.4165 21.9219 15.2704 21.9749 15.118 21.993L8.99898 22C8.83418 22.0001 8.67192 21.9594 8.52662 21.8817C8.38132 21.8039 8.25749 21.6915 8.16615 21.5543C8.0748 21.4171 8.01877 21.2595 8.00304 21.0955C7.98731 20.9314 8.01236 20.766 8.07598 20.614C7.71198 20.414 7.34798 20.097 7.00398 19.632C6.59019 19.0872 6.27478 18.4743 6.07198 17.821C6.65598 18.296 7.34798 18.788 8.20798 19.341C8.79598 19.719 9.59098 20.004 11.999 20.004C14.407 20.004 15.159 19.746 15.789 19.341C16.53 18.8742 17.2455 18.3664 17.93 17.82ZM13.01 2C15.02 2 16.45 2.756 17.417 4.04C18.302 5.218 18.897 6.826 18.937 8.403L18.994 10.702C19.021 11.7865 18.9568 12.8713 18.802 13.945L18.279 14.643C17.468 15.67 16.544 16.479 14.709 17.659C14.659 17.691 14.184 18.003 12.939 18.003H11.091C9.77998 18.003 9.36598 17.707 9.29098 17.659C7.45598 16.479 6.53198 15.669 5.72098 14.643L5.19298 13.937C5.06898 13.072 4.99998 11.913 5.00598 10.745C5.00998 9.967 5.02898 9.186 5.06398 8.403C5.10388 6.82616 5.63529 5.30116 6.58398 4.041C7.50198 2.821 8.85198 2.077 10.702 2.006L13.01 2ZM14.094 13.574L13.551 15.184C13.4689 15.4265 13.483 15.6912 13.5903 15.9236C13.6976 16.156 13.8899 16.3384 14.1277 16.4333C14.3655 16.5281 14.6306 16.5282 14.8684 16.4335C15.1062 16.3387 15.2986 16.1564 15.406 15.924L15.949 14.314C16.031 14.0715 16.0169 13.8068 15.9096 13.5744C15.8023 13.342 15.61 13.1596 15.3722 13.0647C15.1345 12.9699 14.8694 12.9698 14.6316 13.0645C14.3938 13.1593 14.2014 13.3416 14.094 13.574ZM9.89098 13.568C9.78525 13.3473 9.60226 13.173 9.37666 13.0782C9.15106 12.9833 8.89851 12.9745 8.66684 13.0534C8.43517 13.1322 8.24047 13.2933 8.11959 13.5061C7.99872 13.7189 7.96008 13.9686 8.01098 14.208L8.59698 15.931C8.7027 16.1517 8.88569 16.326 9.11129 16.4208C9.33689 16.5157 9.58944 16.5245 9.82111 16.4456C10.0528 16.3668 10.2475 16.2057 10.3684 15.9929C10.4892 15.7801 10.5279 15.5304 10.477 15.291L9.89098 13.568ZM12.001 4C11.283 4 10.532 4 9.20298 4.374C7.87398 4.75 6.97498 6.262 7.18498 7.6C7.37098 8.42 7.48898 8.916 7.53998 9.087C7.64893 9.451 7.85249 9.77958 8.12988 10.0392C8.40728 10.2989 8.74858 10.4803 9.11898 10.565C10.232 10.757 11.192 10.855 12.001 10.859C12.811 10.863 13.718 10.775 14.723 10.595C15.1266 10.5351 15.5048 10.3614 15.8133 10.0943C16.1218 9.82727 16.3478 9.47786 16.465 9.087C16.539 8.837 16.758 7.962 16.789 7.773C17.119 6.314 16.148 4.753 14.803 4.377C13.46 4 12.717 4 12 4H12.001Z" fill="#EC0016"/></svg>