<?xml version="1.0" encoding="UTF-8" standalone="no"?>
<svg xmlns="http://www.w3.org/2000/svg" width="18" height="18" viewBox="0 0 18 18" fill="none"><path fill-rule="evenodd" clip-rule="evenodd" d="M5.25 1.5C5.25 1.08579 5.58579 0.75 6 0.75H12C12.4142 0.75 12.75 1.08579 12.75 1.5C12.75 1.91421 12.4142 2.25 12 2.25H9.75V3L11.431 3C12.0347 2.99999 12.533 2.99998 12.9389 3.03315C13.3604 3.06759 13.748 3.14151 14.112 3.32698C14.6765 3.6146 15.1354 4.07354 15.423 4.63803C15.6085 5.00203 15.6824 5.38956 15.7169 5.81113C15.75 6.21702 15.75 6.71529 15.75 7.31901V10.681C15.75 11.2847 15.75 11.783 15.7169 12.1889C15.6824 12.6104 15.6085 12.998 15.423 13.362C15.1354 13.9265 14.6765 14.3854 14.112 14.673C14.0279 14.7159 13.9425 14.7528 13.8558 14.7846L14.5458 16.1646C14.7311 16.5351 14.5809 16.9856 14.2104 17.1708C13.8399 17.3561 13.3894 17.2059 13.2042 16.8354L12.2842 14.9954C12.0267 15 11.7429 15 11.431 15H6.56901C6.25705 15 5.97325 15 5.71581 14.9954L4.79582 16.8354C4.61058 17.2059 4.16007 17.3561 3.78959 17.1708C3.41911 16.9856 3.26894 16.5351 3.45418 16.1646L4.14418 14.7846C4.05746 14.7528 3.97212 14.7159 3.88803 14.673C3.32354 14.3854 2.8646 13.9265 2.57698 13.362C2.39151 12.998 2.31759 12.6104 2.28315 12.1889C2.24998 11.783 2.24999 11.2847 2.25 10.681V7.31903C2.24999 6.7153 2.24998 6.21703 2.28315 5.81113C2.31759 5.38956 2.39151 5.00203 2.57698 4.63803C2.8646 4.07354 3.32354 3.6146 3.88803 3.32698C4.25203 3.14151 4.63956 3.06759 5.06113 3.03315C5.46703 2.99998 5.9653 2.99999 6.56903 3L8.25 3V2.25H6C5.58579 2.25 5.25 1.91421 5.25 1.5ZM6.6 4.5C5.95757 4.5 5.52085 4.50058 5.18328 4.52816C4.85447 4.55503 4.68631 4.60372 4.56902 4.66349C4.28677 4.8073 4.0573 5.03677 3.91349 5.31901C3.85372 5.43631 3.80503 5.60447 3.77816 5.93328C3.75058 6.27085 3.75 6.70757 3.75 7.35V8.25H14.25V7.35C14.25 6.70757 14.2494 6.27085 14.2218 5.93328C14.195 5.60447 14.1463 5.43631 14.0865 5.31901C13.9427 5.03677 13.7132 4.8073 13.431 4.66349C13.3137 4.60372 13.1455 4.55503 12.8167 4.52816C12.4792 4.50058 12.0424 4.5 11.4 4.5H6.6ZM14.25 9.75H3.75V10.65C3.75 11.2924 3.75058 11.7292 3.77816 12.0667C3.80503 12.3955 3.85372 12.5637 3.91349 12.681C4.0573 12.9632 4.28677 13.1927 4.56902 13.3365C4.68631 13.3963 4.85447 13.445 5.18328 13.4718C5.52085 13.4994 5.95757 13.5 6.6 13.5H11.4C12.0424 13.5 12.4792 13.4994 12.8167 13.4718C13.1455 13.445 13.3137 13.3963 13.431 13.3365C13.7132 13.1927 13.9427 12.9632 14.0865 12.681C14.1463 12.5637 14.195 12.3955 14.2218 12.0667C14.2494 11.7292 14.25 11.2924 14.25 10.65V9.75ZM5.25 11.625C5.25 11.0037 5.75368 10.5 6.375 10.5C6.99632 10.5 7.5 11.0037 7.5 11.625C7.5 12.2463 6.99632 12.75 6.375 12.75C5.75368 12.75 5.25 12.2463 5.25 11.625ZM10.5 11.625C10.5 11.0037 11.0037 10.5 11.625 10.5C12.2463 10.5 12.75 11.0037 12.75 11.625C12.75 12.2463 12.2463 12.75 11.625 12.75C11.0037 12.75 10.5 12.2463 10.5 11.625ZM6.375 16.5C6.375 16.0858 6.71079 15.75 7.125 15.75H10.875C11.2892 15.75 11.625 16.0858 11.625 16.5C11.625 16.9142 11.2892 17.25 10.875 17.25H7.125C6.71079 17.25 6.375 16.9142 6.375 16.5Z" fill="#2D2B29"/></svg>