<?xml version="1.0" encoding="UTF-8" standalone="no"?>
<svg xmlns="http://www.w3.org/2000/svg" width="24" height="24"><path d="M3.732 3.042 C 3.270 3.088,2.959 3.175,2.602 3.362 C 1.934 3.709,1.393 4.333,1.183 4.999 C 1.037 5.460,1.000 5.947,1.000 7.388 C 1.001 8.685,1.002 8.702,1.095 8.900 C 1.207 9.136,1.401 9.331,1.611 9.419 C 1.694 9.454,1.937 9.499,2.151 9.520 C 2.589 9.562,2.799 9.617,3.125 9.778 C 3.608 10.015,3.984 10.397,4.237 10.908 C 4.562 11.563,4.563 12.435,4.239 13.088 C 4.006 13.558,3.759 13.833,3.309 14.124 C 2.991 14.329,2.658 14.433,2.108 14.497 C 1.501 14.567,1.270 14.708,1.083 15.120 C 1.007 15.289,1.002 15.379,1.001 16.612 C 1.000 18.053,1.037 18.540,1.183 19.003 C 1.432 19.791,2.209 20.568,2.997 20.817 C 3.166 20.870,3.479 20.933,3.691 20.957 C 4.229 21.017,19.771 21.017,20.309 20.957 C 20.831 20.899,21.250 20.760,21.605 20.526 C 22.396 20.006,22.840 19.287,22.956 18.340 C 23.016 17.846,23.014 15.397,22.954 15.194 C 22.928 15.109,22.847 14.969,22.773 14.883 C 22.546 14.617,22.407 14.557,21.892 14.497 C 21.184 14.414,20.761 14.240,20.310 13.843 C 19.993 13.565,19.686 13.038,19.581 12.592 C 19.315 11.464,19.861 10.276,20.875 9.778 C 21.201 9.617,21.411 9.562,21.849 9.520 C 22.063 9.499,22.306 9.454,22.389 9.419 C 22.599 9.331,22.793 9.136,22.905 8.900 C 22.998 8.702,22.999 8.685,23.000 7.388 C 23.000 5.946,22.963 5.460,22.817 4.997 C 22.586 4.268,21.887 3.527,21.155 3.238 C 20.587 3.013,21.086 3.025,12.220 3.017 C 7.732 3.013,3.912 3.024,3.732 3.042 M20.374 5.074 C 20.589 5.147,20.863 5.432,20.925 5.646 C 20.957 5.759,20.975 6.131,20.977 6.713 L 20.980 7.606 20.640 7.716 C 19.056 8.231,17.888 9.550,17.580 11.170 C 17.547 11.345,17.519 11.572,17.517 11.674 C 17.512 12.012,17.455 12.040,17.428 11.718 C 17.373 11.074,17.068 10.174,16.693 9.552 C 16.280 8.866,15.658 8.228,14.971 7.784 C 14.503 7.482,14.297 7.401,14.000 7.401 C 13.670 7.402,13.466 7.492,13.255 7.732 C 12.788 8.263,12.975 8.983,13.672 9.336 C 14.275 9.642,14.860 10.272,15.166 10.946 C 15.544 11.781,15.544 12.900,15.164 13.737 C 14.578 15.030,13.263 15.831,11.862 15.747 C 9.593 15.612,8.109 13.404,8.827 11.232 C 8.988 10.747,9.390 10.124,9.717 9.856 L 9.820 9.772 9.826 9.983 C 9.845 10.626,10.488 11.065,11.128 10.873 C 11.325 10.814,11.608 10.568,11.699 10.377 C 11.737 10.297,11.894 9.761,12.048 9.186 C 12.362 8.018,12.376 7.848,12.201 7.389 C 12.094 7.107,11.767 6.740,11.493 6.592 C 11.203 6.436,9.357 5.946,9.059 5.946 C 8.347 5.945,7.871 6.696,8.175 7.340 C 8.292 7.586,8.440 7.729,8.698 7.843 L 8.896 7.931 8.738 8.052 C 8.444 8.277,7.781 8.978,7.592 9.263 C 7.142 9.941,6.831 10.717,6.703 11.477 C 6.481 12.804,6.800 14.219,7.592 15.420 C 8.022 16.072,8.939 16.856,9.698 17.220 C 11.419 18.046,13.493 17.898,15.066 16.836 C 16.505 15.865,17.332 14.390,17.475 12.540 C 17.494 12.293,17.511 12.190,17.514 12.306 C 17.522 12.587,17.622 13.092,17.735 13.426 C 18.200 14.793,19.264 15.841,20.634 16.283 L 20.980 16.394 20.977 17.287 C 20.975 17.869,20.957 18.241,20.925 18.354 C 20.864 18.567,20.594 18.848,20.376 18.925 C 20.143 19.007,3.857 19.007,3.624 18.925 C 3.406 18.848,3.136 18.567,3.075 18.354 C 3.043 18.241,3.025 17.869,3.023 17.287 L 3.020 16.394 3.366 16.283 C 4.732 15.842,5.801 14.790,6.264 13.428 C 6.563 12.549,6.563 11.451,6.264 10.572 C 5.803 9.216,4.730 8.161,3.360 7.717 L 3.020 7.607 3.009 6.933 C 2.994 6.075,3.044 5.638,3.180 5.433 C 3.328 5.210,3.545 5.082,3.845 5.043 C 3.985 5.024,7.727 5.012,12.160 5.015 C 18.675 5.020,20.250 5.032,20.374 5.074" stroke="none" fill-rule="evenodd"/></svg>