<?xml version="1.0" encoding="UTF-8" standalone="no"?>
<svg xmlns="http://www.w3.org/2000/svg" width="24" height="24"><path d="M6.664 1.063 C 6.436 1.146,6.257 1.297,6.131 1.511 C 6.036 1.672,6.020 1.744,6.020 2.000 C 6.020 2.256,6.036 2.328,6.131 2.489 C 6.260 2.709,6.437 2.854,6.678 2.939 C 6.931 3.029,8.073 3.025,8.340 2.934 C 8.709 2.808,9.000 2.396,9.000 2.000 C 9.000 1.604,8.709 1.192,8.340 1.066 C 8.081 0.978,6.902 0.976,6.664 1.063 M1.670 4.217 C 0.982 4.463,0.782 5.344,1.298 5.860 C 1.616 6.178,1.334 6.160,6.010 6.160 C 8.296 6.160,10.161 6.175,10.153 6.193 C 10.146 6.211,9.930 6.557,9.672 6.963 C 9.226 7.667,9.167 7.740,8.358 8.592 C 7.527 9.466,7.509 9.482,7.431 9.412 C 7.387 9.372,6.963 8.931,6.490 8.431 C 5.519 7.406,5.433 7.343,5.000 7.345 C 4.548 7.346,4.185 7.622,4.057 8.063 C 3.919 8.539,4.021 8.737,4.855 9.613 C 5.210 9.986,5.639 10.439,5.808 10.620 L 6.117 10.949 4.655 12.484 C 3.594 13.599,3.167 14.075,3.097 14.220 C 2.855 14.723,3.068 15.308,3.580 15.546 C 3.898 15.694,4.319 15.652,4.581 15.446 C 4.634 15.405,5.246 14.770,5.943 14.036 C 6.639 13.301,7.275 12.633,7.355 12.550 L 7.501 12.400 8.457 13.405 C 9.506 14.508,9.592 14.573,10.000 14.573 C 10.719 14.573,11.212 13.798,10.904 13.153 C 10.865 13.072,10.394 12.541,9.856 11.974 L 8.878 10.944 9.112 10.702 C 9.241 10.569,9.678 10.109,10.083 9.680 L 10.821 8.900 11.681 7.532 L 12.540 6.163 13.343 6.162 C 14.281 6.160,14.437 6.125,14.702 5.860 C 15.218 5.344,15.018 4.463,14.330 4.217 C 14.108 4.138,1.892 4.138,1.670 4.217 M16.011 9.676 C 15.667 9.804,15.400 10.040,15.187 10.405 C 14.980 10.762,10.071 21.627,10.030 21.820 C 9.945 22.225,10.170 22.658,10.568 22.856 C 10.826 22.985,11.178 22.996,11.420 22.884 C 11.757 22.727,11.822 22.616,12.710 20.660 L 13.545 18.820 16.500 18.820 L 19.455 18.820 20.288 20.660 C 21.067 22.379,21.135 22.512,21.315 22.682 C 21.596 22.947,21.973 23.030,22.324 22.905 C 22.779 22.743,23.079 22.203,22.960 21.761 C 22.899 21.535,17.905 10.548,17.759 10.320 C 17.597 10.066,17.376 9.863,17.120 9.735 C 16.824 9.586,16.324 9.560,16.011 9.676 M17.515 14.552 C 18.068 15.769,18.520 16.773,18.520 16.782 C 18.520 16.792,17.609 16.800,16.496 16.800 C 14.893 16.800,14.475 16.790,14.491 16.750 C 14.547 16.604,16.497 12.324,16.503 12.331 C 16.507 12.336,16.963 13.336,17.515 14.552" stroke="none" fill-rule="evenodd"/></svg>