<?xml version="1.0" encoding="UTF-8" standalone="no"?>
<svg xmlns="http://www.w3.org/2000/svg" width="32" height="32" viewBox="0 0 32 32" fill="none"><rect x="0.695557" y="0.695312" width="30.6095" height="30.6095" rx="12.3913" fill="#0065AD"/><path fill-rule="evenodd" clip-rule="evenodd" d="M11.1304 0H20.8696C27.0168 0 32 4.98324 32 11.1304V20.8696C32 27.0168 27.0168 32 20.8696 32H11.1304C4.98324 32 0 27.0168 0 20.8696V11.1304C0 4.98324 4.98324 0 11.1304 0ZM30.6081 11.1297C30.602 5.75348 26.2452 1.39668 20.869 1.39062H11.1297C5.75348 1.39668 1.39668 5.75348 1.39062 11.1297V20.869C1.39668 26.2452 5.75348 30.602 11.1297 30.6081H20.869C26.2452 30.602 30.602 26.2452 30.6081 20.869V11.1297Z" fill="white"/><path d="M23.2279 18.4444V6.4668H18.6721V18.1634C18.6721 20.4151 18.0252 22.1565 16.0014 22.1565C13.8632 22.1565 13.3286 20.4441 13.3286 18.1634V6.4668H8.77209V18.4444C8.77209 22.972 11.4447 25.5331 16.0014 25.5331C20.4446 25.5331 23.2275 22.972 23.2275 18.4444" fill="white"/></svg>