<?xml version="1.0" encoding="UTF-8" standalone="no"?>
<svg xmlns="http://www.w3.org/2000/svg" width="24" height="24"><path d="M6.739 1.041 C 6.155 1.100,5.784 1.222,5.360 1.499 C 5.028 1.715,4.714 2.029,4.495 2.365 C 4.284 2.690,4.185 2.934,4.092 3.367 C 4.024 3.681,4.020 4.163,4.020 12.000 C 4.020 19.837,4.024 20.319,4.092 20.633 C 4.185 21.066,4.284 21.310,4.495 21.635 C 4.809 22.116,5.341 22.563,5.829 22.756 C 6.405 22.983,6.185 22.974,11.660 22.990 C 16.779 23.005,17.342 22.992,17.860 22.857 C 18.853 22.596,19.686 21.694,19.908 20.640 C 19.976 20.319,19.980 19.825,19.980 12.000 C 19.980 4.107,19.976 3.683,19.907 3.360 C 19.818 2.946,19.718 2.701,19.499 2.360 C 19.196 1.888,18.659 1.437,18.171 1.244 C 17.592 1.016,17.833 1.025,12.220 1.017 C 9.382 1.013,6.915 1.024,6.739 1.041 M9.000 3.053 C 9.000 3.240,9.137 3.531,9.303 3.697 C 9.609 4.002,9.589 4.000,12.000 4.000 C 14.411 4.000,14.391 4.002,14.697 3.697 C 14.864 3.529,15.000 3.240,15.000 3.049 C 15.000 2.962,17.199 2.996,17.400 3.085 C 17.616 3.182,17.785 3.343,17.887 3.551 L 17.980 3.740 17.980 12.000 C 17.980 19.483,17.974 20.273,17.916 20.400 C 17.817 20.617,17.656 20.785,17.449 20.887 L 17.260 20.980 12.000 20.980 L 6.740 20.980 6.551 20.887 C 6.344 20.785,6.183 20.617,6.084 20.400 C 6.026 20.273,6.019 19.483,6.009 12.180 C 6.002 7.034,6.012 4.007,6.037 3.845 C 6.104 3.407,6.382 3.110,6.786 3.042 C 6.893 3.024,7.435 3.007,7.990 3.005 C 8.802 3.001,9.000 3.010,9.000 3.053 M11.664 8.063 C 11.291 8.199,11.047 8.518,11.011 8.914 C 10.991 9.140,10.985 9.149,10.845 9.199 C 10.765 9.227,10.629 9.284,10.542 9.325 C 10.338 9.422,10.312 9.420,10.197 9.295 C 10.044 9.128,9.775 9.026,9.495 9.028 C 8.650 9.034,8.207 10.022,8.765 10.656 L 8.915 10.827 8.768 11.173 L 8.621 11.520 8.449 11.520 C 7.936 11.520,7.507 11.966,7.506 12.500 C 7.506 13.009,7.859 13.399,8.409 13.499 L 8.643 13.541 8.781 13.859 L 8.919 14.177 8.784 14.319 C 8.511 14.604,8.428 14.923,8.534 15.284 C 8.694 15.829,9.248 16.121,9.808 15.953 C 9.894 15.927,10.044 15.836,10.141 15.751 L 10.317 15.596 10.654 15.728 L 10.990 15.860 11.011 16.090 C 11.089 16.931,12.104 17.298,12.701 16.701 C 12.879 16.523,12.999 16.243,13.001 16.003 C 13.002 15.861,13.004 15.859,13.342 15.726 L 13.682 15.592 13.839 15.734 C 14.034 15.910,14.375 16.019,14.618 15.982 C 14.712 15.968,14.885 15.899,15.003 15.828 C 15.530 15.512,15.641 14.805,15.236 14.345 L 15.083 14.172 15.220 13.856 L 15.357 13.541 15.596 13.498 C 16.054 13.415,16.428 13.061,16.494 12.650 C 16.580 12.109,16.151 11.568,15.605 11.528 L 15.376 11.512 15.230 11.169 L 15.085 10.827 15.235 10.656 C 15.793 10.022,15.350 9.034,14.505 9.028 C 14.225 9.026,13.956 9.128,13.803 9.295 C 13.688 9.420,13.662 9.422,13.458 9.325 C 13.371 9.284,13.232 9.226,13.150 9.197 C 13.014 9.149,13.000 9.130,13.000 8.999 C 13.000 8.326,12.294 7.832,11.664 8.063 M12.520 11.099 C 12.917 11.239,13.243 11.570,13.402 11.994 C 13.533 12.343,13.503 12.814,13.329 13.169 C 13.175 13.480,12.924 13.722,12.600 13.873 C 12.413 13.961,12.324 13.976,12.000 13.976 C 11.676 13.976,11.587 13.961,11.400 13.873 C 11.076 13.722,10.825 13.480,10.671 13.169 C 10.495 12.811,10.467 12.343,10.600 11.989 C 10.834 11.364,11.429 10.973,12.080 11.018 C 12.223 11.028,12.421 11.064,12.520 11.099" stroke="none" fill-rule="evenodd"/></svg>