<?xml version="1.0" encoding="UTF-8" standalone="no"?>
<svg xmlns="http://www.w3.org/2000/svg" width="24" height="24"><path d="M8.643 5.069 C 8.291 5.193,8.000 5.614,8.000 6.000 C 8.000 6.080,8.029 6.234,8.065 6.343 C 8.124 6.522,8.377 6.788,10.854 9.270 L 13.579 12.000 10.853 14.730 C 8.213 17.374,8.125 17.467,8.063 17.677 C 7.984 17.949,7.984 18.013,8.064 18.283 C 8.156 18.590,8.419 18.849,8.735 18.940 C 9.001 19.018,9.210 19.000,9.460 18.879 C 9.567 18.828,10.664 17.756,12.745 15.671 C 15.710 12.701,15.874 12.529,15.940 12.326 C 16.024 12.065,16.006 11.800,15.887 11.556 C 15.826 11.429,14.929 10.509,12.671 8.255 C 9.816 5.405,9.523 5.124,9.343 5.065 C 9.101 4.985,8.876 4.987,8.643 5.069" stroke="none" fill-rule="evenodd"/></svg>