<?xml version="1.0" encoding="UTF-8" standalone="no"?>
<svg xmlns="http://www.w3.org/2000/svg" width="24" height="24"><g><path fill-rule="evenodd" d="M12 3a9 9 0 1 0 0 18 9 9 0 0 0 0-18M1 12C1 5.925 5.925 1 12 1s11 4.925 11 11-4.925 11-11 11S1 18.075 1 12m6.5-3a1.5 1.5 0 1 1 3 0 1.5 1.5 0 0 1-3 0m6 0a1.5 1.5 0 1 1 3 0 1.5 1.5 0 0 1-3 0" clip-rule="evenodd"/><path d="M12 13c-1.525 0-2.728.61-3.526 1.191a7 7 0 0 0-1.17 1.08q-.045.053-.07.086l-.022.027-.007.01-.003.003-.002.003a1 1 0 0 0 1.597 1.204l.005-.006.033-.041q.05-.061.16-.178c.148-.153.37-.362.656-.57.577-.42 1.374-.809 2.349-.809s1.772.39 2.35.809a5 5 0 0 1 .815.748l.034.041.004.006A1 1 0 0 0 16.8 15.4l-.033-.043-.07-.086a6.944 6.944 0 0 0-1.17-1.08c-.8-.58-2.002-1.191-3.527-1.191"/></g></svg>