<?xml version="1.0" encoding="UTF-8" standalone="no"?>
<svg xmlns="http://www.w3.org/2000/svg" width="24" height="24"><path d="M16.000 1.026 C 15.519 1.072,14.515 1.282,10.107 2.259 C 4.003 3.611,4.126 3.581,3.509 3.842 C 2.489 4.275,1.676 5.231,1.413 6.308 C 1.326 6.667,1.328 7.344,1.418 7.880 C 1.478 8.241,2.841 14.454,3.325 16.578 C 3.704 18.240,3.987 18.825,4.706 19.438 C 4.995 19.685,5.273 19.852,5.707 20.039 L 6.059 20.190 6.268 21.122 C 6.390 21.666,6.520 22.141,6.580 22.263 C 6.774 22.659,7.224 22.952,7.694 22.989 C 8.031 23.015,10.412 22.498,10.787 22.317 C 11.252 22.093,11.561 21.618,11.559 21.128 C 11.559 21.003,11.490 20.589,11.406 20.209 L 11.253 19.518 11.347 19.495 C 11.580 19.436,15.861 18.489,15.867 18.494 C 15.871 18.498,15.946 18.822,16.035 19.215 C 16.217 20.017,16.292 20.202,16.533 20.444 C 16.912 20.826,17.489 20.944,18.100 20.766 C 18.188 20.740,18.708 20.621,19.255 20.500 C 19.802 20.380,20.345 20.238,20.462 20.184 C 20.923 19.973,21.232 19.545,21.268 19.070 C 21.283 18.869,21.246 18.638,21.083 17.900 C 20.971 17.395,20.880 16.953,20.880 16.919 C 20.880 16.885,20.971 16.768,21.083 16.658 C 21.700 16.056,22.081 15.146,22.079 14.284 C 22.077 13.679,22.000 13.282,21.002 8.780 C 19.977 4.151,19.925 3.932,19.720 3.351 C 19.527 2.803,19.373 2.543,19.020 2.167 C 18.359 1.465,17.507 1.068,16.571 1.026 C 16.356 1.017,16.099 1.017,16.000 1.026 M16.635 2.839 C 16.926 2.894,17.242 3.054,17.476 3.264 C 17.700 3.465,17.868 3.710,17.815 3.757 C 17.796 3.773,14.540 4.504,10.580 5.381 C 6.620 6.257,3.346 6.983,3.304 6.993 C 3.234 7.011,3.229 6.995,3.250 6.791 C 3.300 6.308,3.712 5.743,4.175 5.522 C 4.553 5.342,5.137 5.202,10.280 4.064 C 15.514 2.905,15.763 2.853,16.345 2.807 C 16.391 2.803,16.522 2.818,16.635 2.839 M18.772 7.494 C 19.011 8.568,19.200 9.451,19.193 9.457 C 19.158 9.483,4.435 12.728,4.420 12.713 C 4.399 12.692,3.560 8.902,3.560 8.828 C 3.560 8.793,5.818 8.275,10.870 7.152 C 14.891 6.259,18.216 5.530,18.259 5.534 C 18.330 5.539,18.382 5.739,18.772 7.494 M19.795 12.121 C 20.204 13.966,20.254 14.354,20.130 14.744 C 20.029 15.061,19.795 15.411,19.557 15.599 C 19.301 15.801,18.973 15.925,18.195 16.116 C 17.275 16.342,8.222 18.342,7.760 18.421 C 6.863 18.576,6.341 18.453,5.866 17.975 C 5.551 17.658,5.425 17.285,5.023 15.481 C 4.903 14.943,4.808 14.499,4.812 14.495 C 4.824 14.484,19.579 11.211,19.588 11.217 C 19.592 11.220,19.686 11.627,19.795 12.121 M16.780 13.216 C 16.384 13.308,16.006 13.413,15.939 13.448 C 15.494 13.685,15.322 14.194,15.542 14.622 C 15.705 14.940,15.990 15.115,16.351 15.118 C 16.606 15.121,18.105 14.776,18.262 14.679 C 18.856 14.311,18.854 13.478,18.259 13.151 C 17.972 12.994,17.678 13.006,16.780 13.216 M8.100 15.140 C 7.183 15.349,7.167 15.355,6.940 15.564 C 6.728 15.760,6.616 16.060,6.660 16.318 C 6.723 16.693,7.077 17.021,7.466 17.065 C 7.696 17.091,9.176 16.775,9.427 16.646 C 9.820 16.444,9.987 16.066,9.893 15.595 C 9.852 15.392,9.509 15.067,9.272 15.007 C 9.006 14.940,8.947 14.947,8.100 15.140 M19.200 18.182 C 19.255 18.432,19.278 18.617,19.256 18.637 C 19.218 18.672,17.949 18.961,17.927 18.940 C 17.905 18.919,17.726 18.101,17.740 18.087 C 17.758 18.069,18.967 17.770,19.044 17.764 C 19.093 17.761,19.129 17.855,19.200 18.182 M9.419 20.010 C 9.554 20.595,9.592 20.781,9.581 20.793 C 9.559 20.815,8.354 21.080,8.277 21.080 C 8.221 21.080,8.189 21.002,8.121 20.690 C 8.073 20.476,8.028 20.280,8.021 20.256 C 8.010 20.223,8.956 19.990,9.369 19.925 C 9.385 19.922,9.408 19.960,9.419 20.010" stroke="none" fill-rule="evenodd"/></svg>