<?xml version="1.0" encoding="UTF-8" standalone="no"?>
<svg xmlns="http://www.w3.org/2000/svg" width="16" height="16" fill="none"><path fill="#C1D100" stroke="#00355B" stroke-miterlimit="10" d="M8 15A7 7 0 1 0 8 1a7 7 0 0 0 0 14Z"/><path fill="#00355B" d="M1.994 9.54V6.528c0-.226.164-.39.39-.39h1.755c.203 0 .35.147.35.345a.34.34 0 0 1-.35.344H2.756v.931h1.078a.34.34 0 0 1 .35.345.343.343 0 0 1-.35.344H2.756v1.095c0 .22-.158.39-.378.39a.379.379 0 0 1-.384-.39M5.009 9.473V6.459c0-.203.158-.39.383-.39.226 0 .379.17.379.39v2.715h1.326a.34.34 0 0 1 .35.344.34.34 0 0 1-.35.344H5.398a.376.376 0 0 1-.39-.389M7.96 9.484V6.515c0-.214.164-.378.379-.378h1.823c.203 0 .35.147.35.345a.34.34 0 0 1-.35.344h-1.44v.756h.988c.192 0 .333.141.333.328 0 .186-.14.321-.333.321h-.988v.943h1.507a.34.34 0 0 1 .35.344.343.343 0 0 1-.35.345H8.34a.371.371 0 0 1-.379-.379M14.006 9.563c0 .198-.17.367-.379.367a.38.38 0 0 1-.304-.163l-.825-1.168-.83 1.168a.375.375 0 0 1-.31.163.376.376 0 0 1-.372-.372c0-.085.034-.17.107-.277l.942-1.315-.863-1.247a.522.522 0 0 1-.107-.294.37.37 0 0 1 .373-.355c.135 0 .236.056.316.169l.745 1.095.761-1.09a.383.383 0 0 1 .316-.174c.21 0 .373.163.373.36a.525.525 0 0 1-.113.306l-.874 1.23.942 1.332c.073.107.102.186.102.265"/></svg>