<?xml version="1.0" encoding="UTF-8" standalone="no"?>
<svg width="24" height="24" viewBox="0 0 24 24" fill="none" xmlns="http://www.w3.org/2000/svg"><g clip-path="url(#clip0_3791_955)"><rect x="0.25" y="0.25" width="23.5" height="23.5" rx="2.75" fill="white" stroke="#2D2B29" stroke-width="0.5"/><path fill-rule="evenodd" clip-rule="evenodd" d="M18.546 18.654C18.2223 19.4102 17.7341 20.0846 17.1168 20.6283C16.4996 21.172 15.769 21.5713 14.978 21.797C14.9512 21.6679 14.8992 21.5454 14.825 21.4365C14.7507 21.3276 14.6556 21.2344 14.5452 21.1624C14.4348 21.0904 14.3112 21.0409 14.1816 21.0168C14.052 20.9927 13.9189 20.9945 13.79 21.022C13.077 21.175 12.478 21.25 12 21.25C11.522 21.25 10.923 21.175 10.21 21.022C9.708 20.915 9.133 21.212 9.02 21.797C8.22967 21.571 7.49962 21.1718 6.88294 20.6283C6.26627 20.0848 5.77846 19.4107 5.455 18.655C6.455 19.105 8.287 19.742 9.135 19.893C9.713 19.989 10.577 19.999 11.999 20C13.422 20.001 14.242 19.986 14.845 19.898C15.559 19.748 16.562 19.465 18.546 18.654ZM13.74 2C16.575 2 18.882 4.267 18.996 7.1V16.135C17.65 17.087 14.916 17.846 14.544 17.923C13.907 18.012 13.357 18 11.999 18C10.642 18 9.903 18.028 9.234 17.878C7.489 17.383 5.951 16.798 5.001 16.135L5 7.32C5 4.458 7.236 2.12 10.043 2.004L13.74 2ZM8.298 14.001C8.05286 13.9886 7.81174 14.0669 7.62054 14.2208C7.42934 14.3747 7.30143 14.5935 7.26116 14.8357C7.22089 15.0778 7.27107 15.3263 7.40215 15.5338C7.53323 15.7413 7.73606 15.8934 7.972 15.961L9.702 16.249C9.94714 16.2614 10.1883 16.1831 10.3795 16.0292C10.5707 15.8753 10.6986 15.6565 10.7388 15.4143C10.7791 15.1722 10.7289 14.9237 10.5978 14.7162C10.4668 14.5087 10.2639 14.3566 10.028 14.289L8.298 14.001ZM16.736 14.836C16.6961 14.5941 16.5687 14.3754 16.3781 14.2212C16.1875 14.0671 15.9469 13.9884 15.702 14L13.972 14.288C13.7361 14.3556 13.5332 14.5077 13.4022 14.7152C13.2711 14.9227 13.2209 15.1712 13.2612 15.4133C13.3014 15.6555 13.4293 15.8743 13.6205 16.0282C13.8117 16.1821 14.0529 16.2604 14.298 16.248L16.028 15.96C16.2633 15.8918 16.4655 15.7395 16.596 15.5322C16.7265 15.3248 16.7763 15.0767 16.736 14.835V14.836ZM9.607 3.062C8.97003 3.14372 8.38893 3.46743 7.98417 3.96601C7.57942 4.4646 7.38206 5.09983 7.433 5.74L7.869 11.201C7.90213 11.6169 8.08277 12.0073 8.37835 12.3018C8.67392 12.5962 9.06497 12.7754 9.481 12.807C10.521 12.894 11.362 12.937 12.002 12.937C12.642 12.937 13.481 12.894 14.519 12.807C14.935 12.7754 15.3261 12.5962 15.6217 12.3018C15.9172 12.0073 16.0979 11.6169 16.131 11.201L16.567 5.74C16.6185 5.0995 16.4214 4.46377 16.0166 3.96474C15.6118 3.46572 15.0303 3.14172 14.393 3.06C14.233 3.04 13.79 3 12 2.999C10.21 2.999 9.769 3.04 9.607 3.062Z" fill="#EC0016"/></g><defs><clipPath id="clip0_3791_955"><rect width="24" height="24" fill="white"/></clipPath></defs></svg>