<?xml version="1.0" encoding="UTF-8" standalone="no"?>
<svg xmlns="http://www.w3.org/2000/svg" width="24" height="24"><path d="M3.559 2.039 C 2.894 2.126,2.172 2.530,1.708 3.075 C 1.372 3.471,1.175 3.882,1.057 4.440 C 0.977 4.814,0.980 6.188,1.062 6.581 C 1.188 7.195,1.464 7.697,1.916 8.140 C 2.179 8.397,2.696 8.740,2.885 8.781 L 3.000 8.806 3.000 13.293 C 3.001 16.052,3.017 17.962,3.042 18.252 C 3.124 19.189,3.379 19.870,3.878 20.491 C 4.503 21.269,5.261 21.716,6.280 21.908 C 6.633 21.975,7.037 21.980,12.000 21.980 C 17.904 21.980,17.655 21.990,18.430 21.723 C 19.136 21.480,19.899 20.867,20.339 20.189 C 20.724 19.596,20.883 19.088,20.958 18.220 C 20.983 17.927,20.999 16.011,21.000 13.294 L 21.000 8.848 21.330 8.684 C 22.084 8.308,22.669 7.600,22.902 6.780 C 22.990 6.473,23.031 4.932,22.963 4.540 C 22.790 3.547,22.216 2.768,21.340 2.338 C 20.631 1.989,21.554 2.021,12.140 2.015 C 7.542 2.012,3.681 2.023,3.559 2.039 M20.340 4.066 C 20.593 4.153,20.847 4.407,20.934 4.660 C 20.985 4.809,21.000 5.004,21.000 5.500 C 21.000 6.266,20.955 6.447,20.701 6.701 C 20.376 7.026,21.144 7.000,12.000 7.000 C 2.856 7.000,3.624 7.026,3.299 6.701 C 3.045 6.447,3.000 6.266,3.000 5.500 C 3.000 4.734,3.045 4.553,3.300 4.298 C 3.617 3.981,2.858 4.007,11.983 4.003 C 19.481 4.000,20.162 4.005,20.340 4.066 M18.988 13.610 C 18.976 16.901,18.958 18.289,18.924 18.460 C 18.829 18.948,18.475 19.444,18.031 19.711 C 17.565 19.991,17.810 19.980,12.000 19.980 C 7.190 19.980,6.757 19.975,6.483 19.911 C 5.785 19.748,5.212 19.157,5.076 18.460 C 5.042 18.288,5.024 16.912,5.012 13.610 L 4.996 9.000 12.000 9.000 L 19.005 9.000 18.988 13.610 M9.664 12.063 C 9.436 12.146,9.257 12.297,9.131 12.511 C 9.036 12.672,9.020 12.744,9.020 13.000 C 9.020 13.256,9.036 13.328,9.131 13.489 C 9.192 13.592,9.301 13.723,9.374 13.778 C 9.664 14.000,9.670 14.000,11.998 14.000 C 14.428 14.000,14.399 14.003,14.701 13.701 C 15.092 13.310,15.092 12.690,14.701 12.299 C 14.398 11.996,14.430 12.000,11.983 12.003 C 10.210 12.005,9.792 12.016,9.664 12.063" stroke="none" fill-rule="evenodd"/></svg>