<?xml version="1.0" encoding="UTF-8" standalone="no"?>
<svg xmlns="http://www.w3.org/2000/svg" width="24" height="24"><path d="M20.591 5.819 C 20.363 5.905,20.108 6.096,19.989 6.267 C 19.747 6.617,19.760 6.298,19.760 11.838 C 19.760 17.538,19.737 17.112,20.069 17.482 C 20.169 17.593,20.343 17.733,20.456 17.792 C 20.631 17.884,20.709 17.899,21.000 17.899 C 21.291 17.899,21.369 17.884,21.544 17.792 C 21.657 17.733,21.831 17.593,21.931 17.482 C 22.263 17.112,22.240 17.538,22.240 11.834 C 22.240 6.811,22.239 6.761,22.158 6.543 C 22.058 6.276,21.813 6.012,21.539 5.879 C 21.296 5.760,20.824 5.730,20.591 5.819 M2.700 10.758 C 2.341 10.845,1.940 11.207,1.824 11.547 C 1.685 11.955,1.782 12.465,2.062 12.791 C 2.272 13.037,2.641 13.206,2.971 13.207 C 3.366 13.210,3.617 13.109,3.883 12.843 C 4.286 12.440,4.372 11.912,4.117 11.412 C 3.848 10.884,3.271 10.618,2.700 10.758 M8.700 10.758 C 8.341 10.845,7.940 11.207,7.824 11.547 C 7.685 11.955,7.782 12.465,8.062 12.791 C 8.272 13.037,8.641 13.206,8.971 13.207 C 9.366 13.210,9.617 13.109,9.883 12.843 C 10.286 12.440,10.372 11.912,10.117 11.412 C 9.848 10.884,9.271 10.618,8.700 10.758 M14.700 10.758 C 14.341 10.845,13.940 11.207,13.824 11.547 C 13.685 11.955,13.782 12.465,14.062 12.791 C 14.272 13.037,14.641 13.206,14.971 13.207 C 15.366 13.210,15.617 13.109,15.883 12.843 C 16.286 12.440,16.372 11.912,16.117 11.412 C 15.848 10.884,15.271 10.618,14.700 10.758" stroke="none" fill-rule="evenodd"/></svg>