<?xml version="1.0" encoding="UTF-8" standalone="no"?>
<svg width="24" height="24" xmlns="http://www.w3.org/2000/svg"><path stroke="none" fill-rule="evenodd" d="M 8.3066406,3 C 7.4772615,3 6.9449576,2.9725224 6.34375,3.2089844 5.8763949,3.3927826 5.4627912,3.6909193 5.140625,4.0761719 4.726176,4.5717591 4.584543,5.0842818 4.3222656,5.8710937 l -0.90625,2.7187501 -0.96875,-0.484375 A 1,1 0 0 0 1.1054687,8.5527344 1,1 0 0 0 1.5527344,9.8945313 l 0.78125,0.3906247 C 2.028075,10.585751 1.6326238,10.796799 1.4355469,11.183594 0.94835303,12.139863 1,13.120583 1,14.800781 V 17.5 c 0,0.4647 -0.009759,0.742307 0.058594,1.085937 0.2361527,1.187273 1.1682007,2.12128 2.3554688,2.357422 C 3.7576015,21.01164 4.0353405,21 4.5,21 H 5 c 1.4506789,0 2.5218187,-1.122824 2.7910156,-2.5 H 16.208984 C 16.478179,19.877167 17.549308,21 19,21 h 0.5 c 0.4647,0 0.742411,0.01164 1.085937,-0.05664 1.187282,-0.236139 2.121283,-1.17014 2.357422,-2.357422 C 23.011638,18.242411 23,17.9647 23,17.5 v -2.699219 c 0,-1.680198 0.05168,-2.66091 -0.435547,-3.617187 -0.19706,-0.386789 -0.592535,-0.597835 -0.898437,-0.898438 l 0.78125,-0.3906247 A 1,1 0 0 0 22.894531,8.5527344 1,1 0 0 0 21.552734,8.1054688 l -0.96875,0.484375 -0.90625,-2.7187501 C 19.415423,5.0842384 19.273683,4.5716723 18.859375,4.0761719 18.537247,3.6909827 18.123645,3.3927925 17.65625,3.2089844 17.055102,2.9725796 16.522759,3 15.693359,3 Z m 0,2 h 7.3867184 c 0.8294,0 1.125817,0.029158 1.230469,0.070312 0.155804,0.061272 0.294873,0.1605522 0.402344,0.2890625 0.07209,0.086219 0.19279,0.3577482 0.455078,1.1445312 l 0.839844,2.5195313 C 18.183489,9.0118648 17.77348,9 17.199219,9 H 6.8007812 C 6.226534,9 5.8165121,9.0118682 5.3789062,9.0234375 L 6.21875,6.5039062 C 6.4810321,5.7170798 6.6017976,5.4455072 6.6738281,5.359375 6.7812415,5.230928 6.9203476,5.131594 7.0761719,5.0703125 7.1806635,5.0292147 7.4772615,5 8.3066406,5 Z M 6.8007812,11 H 17.199219 c 1.680198,0 2.381662,0.05198 2.708984,0.21875 0.376443,0.191789 0.681258,0.496604 0.873047,0.873047 C 20.948022,12.419119 21,13.120583 21,14.800781 V 17.5 c 0,0.4647 -0.01101,0.652439 -0.01953,0.695312 -0.07946,0.399517 -0.38564,0.705697 -0.785157,0.785157 C 20.152439,18.98899 19.9647,19 19.5,19 H 19 c -0.564193,0 -1,-0.435807 -1,-1 0,-0.816725 -0.683275,-1.5 -1.5,-1.5 h -9 C 6.6833138,16.5 6,17.183372 6,18 6,18.564175 5.564148,19 5,19 H 4.5 C 4.0353405,19 3.8475481,18.988988 3.8046875,18.980469 3.4051972,18.901012 3.0989983,18.594838 3.0195313,18.195312 3.0110238,18.152543 3,17.9647 3,17.5 V 14.800781 C 3,13.120583 3.0519845,12.419126 3.21875,12.091797 3.4105463,11.715366 3.7153452,11.410547 4.0917969,11.21875 4.4189714,11.052035 5.1206229,11 6.8007812,11 Z M 5,12 a 1,1 0 0 0 -1,1 1,1 0 0 0 1,1 H 8 A 1,1 0 0 0 9,13 1,1 0 0 0 8,12 Z m 11,0 a 1,1 0 0 0 -1,1 1,1 0 0 0 1,1 h 3 a 1,1 0 0 0 1,-1 1,1 0 0 0 -1,-1 z"/></svg>