<?xml version="1.0" encoding="UTF-8" standalone="no"?>
<svg xmlns="http://www.w3.org/2000/svg" width="24" height="24" fill="none"><g clip-path="url(#a)"><mask id="b" width="20" height="24" x="2" y="0" maskUnits="userSpaceOnUse" style="mask-type:luminance"><path fill="#fff" d="M21.8 0H2.2v24h19.6z"/></mask><g mask="url(#b)"><path fill="#fff" d="M2.4 14.4c0 2.5 1 4.9 2.8 6.6 1.8 1.7 4.3 2.7 6.8 2.7s5-1 6.8-2.7c1.8-1.7 2.8-4.2 2.8-6.6V.2H2.4v14.2Z"/><path fill="#000" d="M12 24c-2.6 0-5.1-1-6.9-2.8-1.8-1.8-2.9-4.3-2.9-6.8V0h19.6v14.4c0 2.5-1 5-2.9 6.8C17.1 23 14.6 24 12 24M2.6.4v14c0 2.4 1 4.8 2.7 6.5 1.7 1.7 4.2 2.7 6.6 2.7 2.5 0 4.9-1 6.6-2.7 1.7-1.7 2.7-4.1 2.7-6.5V.4H2.6Z"/><path fill="#ED1C24" d="m19 4.5.9 1.7-1.2.6-.8-1.7z"/><path fill="#000" d="M17.3 7.1h.7l.6-.3-.4-.8.6-.4-.1-.2-.7.5M5.5 5.4l-.7-.6-.2.4 1 .4m.9.7-.8-1.5-.1.6.9 1.7m-.7-1.5h-.4c-.1.3-.3.5-.4.7l.8.1"/><path fill="#FD0" d="M10.7 3c-.1.1.3 0 .4.2 0 .1.4 2.5.4 2.5l-.2.2v.6h1V3.2c-.5-.1-.8-.4-1.6-.2"/><path fill="#FBC2A6" d="M10.8 3.1c-.8.3-.4.9-.6 1.9h.2c0 .2 0 .3.1.6.6.1 1 0 1 0 .2.1.4.6.4.6s.1-2.2 0-2.4c-.1-.3-.4-.5-.6-.7-.2 0-.4-.1-.5 0m-6 1.7-.1.1c.4.3.6.4.7.5v.1c-.2 0-.7-.3-.8-.4v.1c.4.2.7.4.8.5.2.1.4.1.5.2V6c-.4 0-.6-.2-.7-.1V6c.2 0 .5.2.5.2v.1c-.3 0-.3-.1-.6-.1l-.1.2 2.1 1.1V6.4c-.1 0-.1-.1-.2-.1-.3-.2-.1-.6-.2-.7 0 0-.7-.6-1-.8-.2.4.3.6.4.7.2.2 0 .6.4.9v.2c-.6-.2-.4-.8-.6-1l-.3-.3c-.3-.2-.5-.4-.8-.5m13.8.4-.6.3-.4.2c-.2.1.2.5-.1.6-.1.1-.3.1-.4.1v1.2l1.3-.8-.2-.4c-.1.3-.3.4-.6.5v-.2c.2-.1.4-.1.5-.4 0-.2-.1-.3 0-.4 0 0 .3-.3.6-.4.1 0 .1-.1.2-.1-.2-.1-.2-.2-.3-.2"/><path fill="#000" d="M11.3 3c.5.2.6.3.8.6.1.2.1.4.1 1.4 0 .6-.1 1.2 0 1.2l-.6.2c-.1 0-.2-.3-.3-.4-.6.6-1.4.8-2.1.8-.4 0-1.7-.3-2.1-.5v11.3c.7 0 1.2-.2 1.6-.8.1-.1.2-.3.2-1.4v-5.1c0-.3.2-.6.4-.8.2-.2.4-.3.7-.3v8.4h4.4V9c.2.1.5.3.7.5.1.2.3.4.4.8.1.5.1 5 .1 5.1 0 .7-.1 1.3.2 1.7.3.4 1 .6 1.4.6V6.5c-.9.3-1.9.4-2.6.2-.7-.1-1.1-.6-1.2-.7-.3-.7 1.3-.5 2-.5-.1-.5-.2-.6-.4-1-.4-.6-.7-.9-1.3-1.2-.6-.3-1.8-.3-2.4-.3"/><path fill="#FD0" d="M12.3 8.2c.8 0 1.4-.3 1.7-.6.2-.2.4-.3.4-.6l-.3-.1c0 .1-.1.2-.3.3-.3.3-1 .6-1.7.6-.6 0-1.2-.2-1.5-.4-.3-.2-.4-.3-.5-.6l-.4.1c.1.3.3.6.7.8.4.3.8.4 1.5.5v3.2h-1.8v.4h1.8v5.7h.4v-5.7h1.8v-.4h-1.8V8.2"/><path fill="#ED1C24" d="M10.6 17.9c-.1 0-.2.4-.3.6-.2.2-1 .7-1 1.6.5-.3.8-.5 1.3-.9.4-.3.6-.3.7-.4v-.9zm2.2 0c0 .6 0 .8.1.9.1.1.3.2.8.5.4.3.7.5 1.1.8-.1-1-.3-1-.7-1.4-.2-.2-.5-.8-.5-.8z"/><path fill="#231F20" d="M11.6 3.8c0-.2 0-.2-.2-.4-.1.2-.1.3.2.4m-.3 0c0-.2 0-.3-.2-.4 0 .2 0 .3.2.4m-.3 0c0-.2.1-.2-.2-.4 0 .2 0 .3.2.4m-.3 0c.1-.2.1-.3-.2-.4 0 .2.1.3.2.4m0 .5c.3.2.3.2.6 0-.1-.2-.3-.3-.5-.2 0 0-.1.1-.1.2"/></g></g><defs><clipPath id="a"><path fill="#fff" d="M0 0h24v24H0z"/></clipPath></defs></svg>