<?xml version="1.0" encoding="UTF-8" standalone="no"?>
<svg xmlns="http://www.w3.org/2000/svg" width="24" height="24"><path d="M7.664 1.063 C 7.436 1.146,7.257 1.297,7.131 1.511 C 7.024 1.693,7.020 1.724,7.007 2.344 L 6.993 2.988 6.347 3.016 C 5.259 3.064,4.754 3.161,4.228 3.426 C 3.566 3.759,3.051 4.215,2.662 4.811 C 2.281 5.396,2.121 5.901,2.042 6.760 C 1.985 7.383,1.985 18.604,2.042 19.252 C 2.164 20.645,2.736 21.634,3.831 22.350 C 4.400 22.722,4.919 22.884,5.780 22.958 C 6.432 23.014,17.568 23.014,18.220 22.958 C 19.088 22.883,19.596 22.724,20.189 22.339 C 20.867 21.899,21.480 21.136,21.723 20.430 C 21.986 19.665,21.975 19.955,21.991 13.380 C 22.001 9.262,21.992 7.246,21.961 6.856 C 21.888 5.920,21.736 5.422,21.338 4.811 C 20.799 3.984,19.927 3.363,19.020 3.160 C 18.793 3.109,18.353 3.061,17.830 3.031 L 17.000 2.984 17.000 2.419 C 17.000 1.741,16.948 1.546,16.700 1.298 C 16.281 0.879,15.570 0.924,15.212 1.393 C 15.031 1.630,15.000 1.781,15.000 2.430 L 15.000 3.000 12.000 3.000 L 9.000 3.000 9.000 2.427 C 9.000 1.741,8.948 1.546,8.701 1.299 C 8.429 1.027,8.018 0.933,7.664 1.063 M7.000 5.570 C 7.000 6.219,7.031 6.370,7.212 6.607 C 7.570 7.076,8.281 7.121,8.700 6.702 C 8.949 6.454,9.000 6.260,9.000 5.573 L 9.000 5.000 12.000 5.000 L 15.000 5.000 15.000 5.570 C 15.000 6.219,15.031 6.370,15.212 6.607 C 15.570 7.076,16.281 7.121,16.700 6.702 C 16.949 6.453,17.000 6.260,17.000 5.567 L 17.000 4.988 17.590 5.016 C 18.689 5.068,18.954 5.153,19.401 5.599 C 19.701 5.900,19.858 6.190,19.921 6.560 C 19.945 6.703,19.975 7.310,19.988 7.910 L 20.012 9.000 12.000 9.000 L 3.988 9.000 4.012 7.910 C 4.038 6.695,4.073 6.400,4.231 6.083 C 4.446 5.652,4.937 5.232,5.356 5.121 C 5.553 5.068,6.168 5.014,6.670 5.006 L 7.000 5.000 7.000 5.570 M19.988 15.110 C 19.976 18.002,19.957 19.291,19.924 19.460 C 19.829 19.947,19.475 20.443,19.031 20.711 C 18.560 20.994,18.925 20.980,12.000 20.980 C 6.242 20.980,5.758 20.975,5.483 20.911 C 4.785 20.748,4.211 20.156,4.076 19.460 C 4.043 19.290,4.024 18.013,4.012 15.110 L 3.995 11.000 12.000 11.000 L 20.005 11.000 19.988 15.110 M7.240 12.780 L 7.240 13.479 8.830 13.490 L 10.419 13.500 9.370 14.373 C 8.792 14.853,8.320 15.256,8.320 15.268 C 8.320 15.280,8.467 15.546,8.646 15.860 L 8.971 16.431 9.153 16.350 C 9.557 16.171,10.108 16.276,10.432 16.594 C 10.707 16.862,10.814 17.109,10.817 17.480 C 10.819 17.852,10.718 18.096,10.449 18.370 C 10.129 18.696,9.603 18.812,9.147 18.656 C 8.892 18.569,8.591 18.290,8.484 18.041 C 8.437 17.931,8.385 17.840,8.369 17.840 C 8.319 17.840,6.986 18.201,6.967 18.220 C 6.957 18.229,6.990 18.338,7.040 18.461 C 7.352 19.229,8.112 19.870,8.940 20.063 C 9.373 20.163,10.121 20.124,10.534 19.980 C 11.186 19.752,11.796 19.215,12.080 18.620 C 12.266 18.232,12.328 17.944,12.326 17.481 C 12.320 16.349,11.674 15.405,10.673 15.067 C 10.621 15.050,10.750 14.902,11.213 14.449 C 11.547 14.121,11.905 13.776,12.010 13.681 L 12.200 13.510 12.200 12.795 L 12.200 12.080 9.720 12.080 L 7.240 12.080 7.240 12.780 M14.410 12.524 L 13.680 12.965 13.680 13.786 L 13.680 14.607 13.830 14.515 C 13.912 14.465,14.237 14.266,14.551 14.072 C 14.865 13.878,15.130 13.720,15.141 13.720 C 15.151 13.720,15.160 15.133,15.160 16.860 L 15.160 20.000 15.920 20.000 L 16.680 20.000 16.680 16.040 L 16.680 12.080 15.910 12.081 L 15.140 12.083 14.410 12.524" stroke="none" fill-rule="evenodd"/></svg>