<?xml version="1.0" encoding="UTF-8" standalone="no"?>
<svg xmlns="http://www.w3.org/2000/svg" width="24" height="24"><path d="M6.040 2.027 C 5.614 2.050,5.072 2.127,4.795 2.204 C 3.977 2.431,3.161 3.046,2.662 3.811 C 2.281 4.396,2.121 4.901,2.042 5.760 C 1.985 6.383,1.985 17.604,2.042 18.252 C 2.164 19.645,2.736 20.634,3.831 21.350 C 4.400 21.722,4.919 21.884,5.780 21.958 C 6.432 22.014,17.568 22.014,18.220 21.958 C 19.088 21.883,19.596 21.724,20.189 21.339 C 20.867 20.899,21.480 20.136,21.723 19.430 C 21.986 18.665,21.975 18.955,21.991 12.380 C 22.001 8.262,21.992 6.246,21.961 5.856 C 21.888 4.920,21.736 4.422,21.338 3.811 C 20.795 2.979,19.920 2.358,19.009 2.160 C 18.805 2.115,18.382 2.061,18.069 2.040 C 17.568 2.006,6.645 1.994,6.040 2.027 M18.460 4.075 C 18.592 4.101,18.799 4.171,18.920 4.231 C 19.203 4.370,19.630 4.797,19.769 5.080 C 19.983 5.514,19.980 5.420,19.980 12.000 C 19.980 18.583,19.983 18.489,19.769 18.918 C 19.629 19.199,19.307 19.545,19.031 19.711 C 18.560 19.994,18.925 19.980,12.000 19.980 C 5.075 19.980,5.440 19.994,4.969 19.711 C 4.693 19.545,4.371 19.199,4.231 18.918 C 4.017 18.489,4.020 18.583,4.020 12.000 C 4.020 5.453,4.018 5.515,4.223 5.092 C 4.432 4.661,4.949 4.218,5.360 4.120 C 5.470 4.094,5.726 4.058,5.930 4.041 C 6.556 3.988,18.180 4.020,18.460 4.075 M7.664 11.063 C 7.436 11.146,7.257 11.297,7.131 11.511 C 7.036 11.672,7.020 11.744,7.020 12.000 C 7.020 12.256,7.036 12.328,7.131 12.489 C 7.192 12.592,7.301 12.723,7.374 12.778 C 7.677 13.009,7.484 13.000,11.998 13.000 C 16.663 13.000,16.384 13.018,16.701 12.701 C 17.092 12.310,17.092 11.690,16.701 11.299 C 16.384 10.982,16.666 11.000,11.983 11.003 C 8.474 11.005,7.795 11.015,7.664 11.063" stroke="none" fill-rule="evenodd"/></svg>