<?xml version="1.0" encoding="UTF-8" standalone="no"?>
<svg version="1.1" id="Ebene_1" xmlns="http://www.w3.org/2000/svg" xmlns:xlink="http://www.w3.org/1999/xlink" x="0px" y="0px" viewBox="0 0 277 267.5" style="enable-background:new 0 0 277 267.5;" xml:space="preserve"><style type="text/css">.st0{opacity:0.18;} \t.st1{fill:#FFB800;} \t.st2{fill:#4562A2;} \t.st3{fill:#2C426D;} \t.st4{fill-rule:evenodd;clip-rule:evenodd;} \t.st5{fill-rule:evenodd;clip-rule:evenodd;fill:#FFB800;}</style><g><polygon class="st0" points="277,165 162.8981628,165 59.25,237 183,237"/><polygon class="st0" points="82.5,267.3995056 130,245 77,245"/><path class="st1" d="M150,210H15c-8.2842712,0-15-6.7157288-15-15V15C0,6.7157288,6.7157288,0,15,0h135 c8.2842712,0,15,6.7157288,15,15v180C165,203.2842712,158.2842712,210,150,210z"/><path class="st2" d="M165,80V15c0-8.2843018-6.7157593-15-15-15H15C6.7156982,0,0,6.7156982,0,15v65H165z"/><polygon class="st3" points="112.8108902,215 82.5,267.5 52.1891098,215"/><circle class="st4" cx="82.5" cy="142.3955231" r="47.1354523"/><path class="st5" d="M101.254982,175.0895081v-10.1604004h-7.6961975v-34.1042938h-26.947197v10.1570892h7.7018967v23.9472046 h-7.7018967v10.1604004H101.254982 M94.7131805,113.5016098c0-6.3516006-5.1974945-11.5460968-11.5490952-11.5460968 c-6.3486023,0-11.5457993,5.1944962-11.5457993,11.5460968s5.197197,11.5487976,11.5457993,11.5487976 C89.515686,125.0504074,94.7131805,119.8532104,94.7131805,113.5016098z"/></g></svg>