<?xml version="1.0" encoding="UTF-8" standalone="no"?>
<svg width="24" height="24" viewBox="0 0 24 24" fill="none" xmlns="http://www.w3.org/2000/svg"><g clip-path="url(#clip0_3742_1676)"><path d="M3.27273 0H20.7273C22.5347 0 24 1.46525 24 3.27273V20.7273C24 22.5347 22.5347 24 20.7273 24H3.27273C1.46525 24 0 22.5347 0 20.7273V3.27273C0 1.46525 1.46525 0 3.27273 0Z" fill="#00355B"/><path d="M12.394 14.4V15.84C12.394 16.0233 12.394 16.1149 12.3576 16.185C12.3257 16.2465 12.2747 16.2966 12.212 16.328C12.1407 16.3636 12.0473 16.3636 11.8606 16.3636H10.594C10.4073 16.3636 10.3139 16.3636 10.2426 16.328C10.1799 16.2966 10.1289 16.2465 10.097 16.185C10.0606 16.1149 10.0606 16.0233 10.0606 15.84V14.4M19.394 14.4V15.84C19.394 16.0233 19.394 16.1149 19.3576 16.185C19.3257 16.2465 19.2747 16.2966 19.212 16.328C19.1407 16.3636 19.0473 16.3636 18.8606 16.3636H17.594C17.4073 16.3636 17.3139 16.3636 17.2426 16.328C17.1799 16.2966 17.1289 16.2465 17.097 16.185C17.0606 16.1149 17.0606 16.0233 17.0606 15.84V14.4M8.72729 9.81819H20.7273M8.72729 5.56364H20.7273M11.0606 12.1091H12.0606M17.394 12.1091H18.394M11.9273 14.4H17.5273C18.6474 14.4 19.2075 14.4 19.6353 14.186C20.0116 13.9977 20.3176 13.6973 20.5093 13.3278C20.7273 12.9078 20.7273 12.3579 20.7273 11.2582V6.41455C20.7273 5.31481 20.7273 4.76494 20.5093 4.3449C20.3176 3.97542 20.0116 3.67502 19.6353 3.48676C19.2075 3.27274 18.6474 3.27274 17.5273 3.27274H11.9273C10.8072 3.27274 10.2471 3.27274 9.81931 3.48676C9.44299 3.67502 9.13703 3.97542 8.94528 4.3449C8.72729 4.76494 8.72729 5.31481 8.72729 6.41455V11.2582C8.72729 12.3579 8.72729 12.9078 8.94528 13.3278C9.13703 13.6973 9.44299 13.9977 9.81931 14.186C10.2471 14.4 10.8072 14.4 11.9273 14.4Z" stroke="white" stroke-width="1.09091" stroke-linecap="round" stroke-linejoin="round"/><path d="M5.02378 15.3693C5.3609 16.0714 5.82045 16.7295 6.40245 17.3115C6.98445 17.8935 7.64252 18.3531 8.34466 18.6902C8.56761 18.7972 8.83154 18.7423 9.00642 18.5674C9.48535 18.0885 10.2619 18.0885 10.7408 18.5674L10.8352 18.6618C11.3662 19.1928 11.3662 20.0539 10.8352 20.5849L10.7588 20.6613C10.2612 21.1589 9.55057 21.4054 8.87355 21.2132C7.40429 20.7962 6.01787 20.0094 4.86122 18.8527C3.70458 17.6961 2.91774 16.3097 2.50072 14.8404C2.30856 14.1634 2.55504 13.4528 3.05268 12.9551L3.12904 12.8788C3.6601 12.3477 4.52112 12.3477 5.05218 12.8788L5.14657 12.9732C5.6255 13.4521 5.6255 14.2286 5.14657 14.7075C4.97169 14.8824 4.91674 15.1464 5.02378 15.3693Z" stroke="white" stroke-width="1.09091" stroke-linecap="round" stroke-linejoin="round"/></g><defs><clipPath id="clip0_3742_1676"><rect width="24" height="24" fill="white"/></clipPath></defs></svg>