<?xml version="1.0" encoding="UTF-8" standalone="no"?>
<svg xmlns="http://www.w3.org/2000/svg" width="24" height="24"><path d="M17.540 1.024 C 15.676 1.300,14.319 2.624,14.037 4.440 C 13.980 4.801,14.012 5.571,14.095 5.871 C 14.152 6.076,14.151 6.084,14.067 6.137 C 13.808 6.300,8.882 9.160,8.859 9.160 C 8.845 9.160,8.740 9.082,8.626 8.986 C 8.143 8.580,7.520 8.258,6.938 8.113 C 6.429 7.987,5.571 7.987,5.062 8.113 C 4.364 8.287,3.677 8.678,3.159 9.198 C 1.535 10.826,1.642 13.531,3.390 15.022 C 4.337 15.830,5.580 16.160,6.765 15.919 C 7.459 15.777,7.990 15.526,8.549 15.074 C 8.709 14.945,8.848 14.840,8.860 14.840 C 8.879 14.840,13.854 17.728,14.063 17.860 L 14.146 17.913 14.071 18.266 C 13.976 18.714,13.996 19.461,14.115 19.940 C 14.425 21.182,15.307 22.207,16.482 22.694 C 17.971 23.310,19.699 22.957,20.838 21.804 C 22.336 20.288,22.382 17.880,20.943 16.291 C 20.486 15.785,19.655 15.298,18.940 15.115 C 18.433 14.986,17.579 14.985,17.062 15.113 C 16.480 15.258,15.857 15.580,15.374 15.986 C 15.260 16.082,15.157 16.160,15.144 16.160 C 15.124 16.160,10.173 13.288,9.937 13.140 C 9.854 13.087,9.854 13.087,9.926 12.734 C 10.018 12.283,10.019 11.717,9.927 11.267 L 9.854 10.915 10.317 10.643 C 11.789 9.778,15.122 7.840,15.138 7.840 C 15.148 7.840,15.309 7.963,15.496 8.112 C 16.648 9.037,18.208 9.251,19.576 8.671 C 20.207 8.404,20.899 7.842,21.270 7.295 C 22.232 5.877,22.238 4.166,21.285 2.720 C 21.090 2.423,20.597 1.932,20.285 1.722 C 19.914 1.472,19.346 1.215,18.958 1.120 C 18.630 1.040,17.809 0.984,17.540 1.024 M18.383 3.043 C 19.185 3.190,19.839 3.872,19.967 4.695 C 20.153 5.894,19.209 7.000,18.000 7.000 C 17.032 7.000,16.183 6.268,16.033 5.305 C 15.933 4.663,16.132 4.061,16.596 3.596 C 17.085 3.108,17.698 2.918,18.383 3.043 M6.455 10.060 C 7.136 10.238,7.623 10.666,7.860 11.297 C 8.142 12.044,7.968 12.842,7.404 13.401 C 6.988 13.812,6.547 14.000,6.000 14.000 C 5.454 14.000,4.998 13.807,4.597 13.404 C 3.807 12.613,3.807 11.385,4.596 10.597 C 5.104 10.091,5.800 9.890,6.455 10.060 M18.408 17.044 C 18.979 17.163,19.546 17.606,19.793 18.125 C 20.164 18.905,20.012 19.788,19.401 20.403 C 18.362 21.449,16.661 21.064,16.119 19.660 C 16.043 19.464,16.026 19.343,16.026 19.000 C 16.026 18.657,16.043 18.536,16.119 18.340 C 16.491 17.377,17.436 16.842,18.408 17.044" stroke="none" fill-rule="evenodd"/></svg>