<?xml version="1.0" encoding="utf-8"?>\x3c!--Generator: Adobe Illustrator 25.1.0, SVG Export Plug-In . SVG Version: 6.00 Build 0)--\x3e<svg version="1.1" id="Ebene_1" xmlns="http://www.w3.org/2000/svg" xmlns:xlink="http://www.w3.org/1999/xlink" x="0px" y="0px" viewBox="0 0 365 365" style="enable-background:new 0 0 365 365;" xml:space="preserve"><style type="text/css">.st0{fill:#FFB800;} \t.st1{fill:#4562A2;} \t.st2{fill:#FFFFFF;} \t.st3{fill-rule:evenodd;clip-rule:evenodd;} \t.st4{fill-rule:evenodd;clip-rule:evenodd;fill:#FFB800;}</style><path class="st0" d="M330,365H35c-19.3299675,0-35-15.6700439-35-35V35C0,15.6700335,15.6700335,0,35,0h295 c19.3299561,0,35,15.6700335,35,35v295C365,349.3299561,349.3299561,365,330,365z"/><path class="st1" d="M0,200v130c0,19.3299561,15.6700439,35,35,35h295c19.3299561,0,35-15.6700439,35-35V200H0z"/><g><path class="st2" d="M42.3618164,240.2480469v24.3466797h-5.4291992v-24.3466797h-6.2050781v-4.4375h17.8393555v4.4375H42.3618164z"/><path class="st2" d="M53.1772461,264.5947266v-17.4521484h-2.8442383v-3.7480469h7.972168v21.2001953H53.1772461z M55.4609375,239.7314453c-1.7666016,0-3.1889648-1.3789062-3.1889648-3.0595703s1.4223633-3.0595703,3.1889648-3.0595703 s3.1889648,1.3789062,3.1889648,3.0595703S57.2275391,239.7314453,55.4609375,239.7314453z"/><path class="st2" d="M72.137207,264.9824219c-7.1533203,0-9.1352539-5.6875-9.1352539-11.2900391 c0-5.5585938,3.3178711-10.6865234,9.8676758-10.6865234c1.6806641,0,3.4042969,0.2158203,4.5673828,0.6894531 l-0.9047852,3.6201172c-1.0341797-0.4306641-2.1113281-0.5175781-3.3608398-0.5175781 c-3.8349609,0-4.8261719,3.7060547-4.8261719,6.8945312c0,4.1367188,1.0341797,7.4980469,5.2568359,7.4980469 c0.9482422,0,2.1113281-0.2158203,3.0166016-0.7324219l0.9047852,3.7490234 C76.1875,264.8105469,74.0332031,264.9824219,72.137207,264.9824219z"/><path class="st2" d="M91.9926758,264.5947266l-5.7744141-10.2558594v10.2558594h-5.0844727v-30.6806641h5.0844727v17.9257812 l5.6020508-8.4453125h5.5585938l-6.5498047,9.2636719l6.980957,11.9365234H91.9926758z"/><path class="st2" d="M104.4799805,255.2441406c0,3.6191406,1.5942383,6.0322266,5.4296875,6.0322266 c1.5507812,0,3.3178711-0.3876953,4.6967773-1.0341797l0.8618164,3.6630859 c-1.9394531,0.8183594-4.6972656,1.0771484-6.765625,1.0771484c-6.7216797,0-9.4365234-5.2568359-9.4365234-11.2900391 c0-5.2138672,2.5419922-10.6435547,8.6181641-10.6435547c6.4633789,0.0439453,8.4023438,4.6972656,8.4023438,10.2988281v1.8964844 H104.4799805z M107.8842773,246.453125c-2.7148438,0-3.4042969,3.2753906-3.4042969,5.3867188h6.8085938 C111.2885742,249.5996094,110.7709961,246.453125,107.8842773,246.453125z"/><path class="st2" d="M126.8862305,264.9824219c-3.5332031,0-5.2568359-1.8955078-5.2568359-5.8173828v-12.0224609h-3.0166016 v-3.7480469h3.0166016v-4.7832031l5.1279297-1.4658203v6.2050781h4.09375v3.7919922h-4.09375v10.8164062 c0,2.4130859,0.6030273,3.2744141,2.1113281,3.2744141c0.7753906,0,1.206543,0,1.9389648-0.2587891l0.3447266,3.4912109 C129.9887695,264.8964844,128.6962891,264.9824219,126.8862305,264.9824219z"/><path class="st2" d="M133.7807617,254.2099609v-4.1367188h10.6865234v4.1367188H133.7807617z"/><path class="st2" d="M172.5615234,264.5947266l-0.3881836-2.8007812c-0.8613281,1.9384766-2.9296875,3.1884766-5.6015625,3.1884766 c-4.2226562,0-5.9897461-2.9726562-5.9897461-6.6787109v-14.9091797h5.1279297v14.3916016 c0,1.8964844,0.7758789,3.4042969,2.9301758,3.4042969c2.4130859,0,3.3178711-2.3701172,3.3178711-4.5244141v-13.2714844h5.1279297 v21.2001953H172.5615234z"/><path class="st2" d="M194.4941406,264.5947266v-14.4355469c0-1.8955078-0.8183594-3.4902344-3.015625-3.4902344 c-2.5429688,0-3.4902344,2.5419922-3.4902344,4.6533203v13.2724609h-5.128418v-21.2001953h4.5249023l0.3876953,2.84375 c0.9052734-1.9394531,3.0166016-3.2324219,5.7314453-3.2324219c4.2226562,0,6.1181641,3.0166016,6.1181641,6.7226562v14.8662109 H194.4941406z"/><path class="st2" d="M217.203125,264.5947266l-0.3876953-2.6289062c-1.1640625,1.9394531-2.8876953,3.0166016-5.515625,3.0166016 c-5.8173828,0-7.1103516-5.9033203-7.1103516-11.2460938c0-5.5595703,2.2841797-10.7304688,8.0585938-10.7304688 c2.0244141,0,3.8779297,0.9912109,4.5673828,2.7148438v-11.8066406h5.1279297v30.6806641H217.203125z M216.9443359,251.6240234 c0-2.4560547-1.1201172-5.0410156-3.6621094-5.0410156c-3.2324219,0-3.7490234,4.7832031-3.7490234,7.3681641 c0,3.2753906,0.3447266,7.3691406,3.6191406,7.3691406c2.3701172,0,3.7919922-2.4140625,3.7919922-4.9990234V251.6240234z"/><path class="st2" d="M239.8242188,264.5947266v-28.7412109h5.4296875v28.7412109H239.8242188z"/><path class="st2" d="M263.2226562,264.5947266v-14.4355469c0-1.8955078-0.8183594-3.4902344-3.0166016-3.4902344 c-2.5419922,0-3.4902344,2.5419922-3.4902344,4.6533203v13.2724609h-5.1279297v-21.2001953h4.5244141l0.3876953,2.84375 c0.9052734-1.9394531,3.0166016-3.2324219,5.7314453-3.2324219c4.2226562,0,6.1191406,3.0166016,6.1191406,6.7226562v14.8662109 H263.2226562z"/><path class="st2" d="M283.5087891,237.7490234c-0.8613281-0.1289062-1.1630859-0.171875-2.0244141-0.171875 c-1.25,0.0429688-1.7675781,1.1201172-1.7675781,2.5419922v3.2753906h3.6201172v3.8349609h-3.6201172v17.3652344h-5.1269531 v-17.3652344h-3.0595703v-3.8349609h3.0595703c0-0.5175781,0-2.5859375,0-3.5771484 c0-3.8349609,2.0683594-5.9033203,6.2910156-5.9033203c1.2929688,0,2.671875,0.2158203,3.4902344,0.4306641 L283.5087891,237.7490234z"/><path class="st2" d="M295.2294922,264.9824219c-7.109375,0-9.1347656-5.4296875-9.1347656-11.2900391 c0-5.2998047,2.8007812-10.6865234,9.1347656-10.6865234c6.5927734-0.0429688,9.1357422,5.2148438,9.1357422,10.6865234 C304.3652344,259.3808594,302.1240234,264.9824219,295.2294922,264.9824219z M295.2294922,246.6259766 c-3.3173828,0-3.7919922,4.3525391-3.7919922,7.1103516c0,2.8007812,0.3447266,7.5839844,3.7919922,7.5839844 s3.7919922-4.7402344,3.7919922-7.5839844C299.0214844,250.9785156,298.5478516,246.6259766,295.2294922,246.6259766z"/><path class="st2" d="M319.2314453,247.7890625c-0.4746094-0.1289062-0.9482422-0.2148438-1.4228516-0.2148438 c-3.0585938,0-3.7480469,2.7578125-3.7480469,5.4287109v11.5917969h-5.1279297v-21.2001953h4.6533203l0.3876953,2.8007812 c1.3359375-2.2412109,2.8876953-3.1894531,5.1279297-3.1894531c0.3876953,0,1.2070312,0.0869141,1.5947266,0.2587891 L319.2314453,247.7890625z"/><path class="st2" d="M322.9365234,254.2099609v-4.1367188h10.6865234v4.1367188H322.9365234z"/><path class="st2" d="M67.840332,318.5947266v-14.5644531c0-1.8535156-0.7753906-3.3613281-2.7148438-3.3613281 c-2.2836914,0-3.0595703,2.4130859-3.0595703,4.5244141v13.4013672h-5.0844727v-14.5644531 c0-2.0253906-0.7758789-3.3613281-2.7148438-3.3613281c-2.2407227,0-3.059082,2.4990234-3.059082,4.6103516v13.3154297h-5.1279297 v-21.2001953h4.5244141l0.3876953,2.84375c0.8618164-1.9394531,2.8442383-3.2324219,5.3432617-3.2324219 c3.3613281,0,4.6967773,1.7236328,5.3862305,3.2324219c0.7758789-1.8105469,2.6289062-3.2324219,5.4726562-3.2324219 c3.9643555,0,5.7744141,2.9306641,5.7744141,6.6367188v14.9521484H67.840332z"/><path class="st2" d="M89.2563477,318.5947266l-0.3876953-2.4990234c-1.2070312,1.8525391-2.9736328,2.8867188-5.34375,2.8867188 c-4.1367188,0-6.2480469-2.4130859-6.2480469-6.3339844c0-4.3955078,3.3183594-6.765625,8.1445312-6.765625 c1.5078125,0,2.4990234,0.2158203,3.2744141,0.3447266v-2.3701172c0-2.1972656-1.3354492-3.1884766-3.5761719-3.1884766 c-1.5512695,0-3.5766602,0.3447266-5.0419922,1.1201172l-0.8613281-3.5761719 c2.0683594-0.9482422,4.6967773-1.2070312,6.9375-1.2070312c4.9550781,0,7.4975586,2.3271484,7.4975586,6.0332031v11.6347656 c0,1.2919922,0.215332,2.6279297,0.3881836,3.9208984H89.2563477z M88.6958008,309.2441406 c-0.5600586-0.2158203-1.5078125-0.3876953-2.7578125-0.3876953c-2.4130859,0-3.4902344,1.6806641-3.4902344,3.5332031 c0,1.8095703,0.7758789,3.1455078,2.671875,3.1455078c1.9389648,0,3.5761719-1.421875,3.5761719-3.3183594V309.2441406z"/><path class="st2" d="M105.5874023,318.9824219c-3.5336914,0-5.2573242-1.8955078-5.2573242-5.8173828v-12.0224609h-3.0161133 v-3.7480469h3.0161133v-4.7832031l5.1279297-1.4658203v6.2050781h4.0932617v3.7919922h-4.0932617v10.8164062 c0,2.4130859,0.6030273,3.2744141,2.1113281,3.2744141c0.7758789,0,1.206543,0,1.9389648-0.2587891l0.3447266,3.4912109 C108.6899414,318.8964844,107.3969727,318.9824219,105.5874023,318.9824219z"/><path class="st2" d="M114.8085938,318.5947266v-17.4521484h-2.8442383v-3.7480469h7.9716797v21.2001953H114.8085938z M117.0922852,293.7314453c-1.7666016,0-3.1884766-1.3789062-3.1884766-3.0595703s1.421875-3.0595703,3.1884766-3.0595703 s3.1884766,1.3789062,3.1884766,3.0595703S118.8588867,293.7314453,117.0922852,293.7314453z"/><path class="st2" d="M133.7680664,318.9824219c-7.1103516,0-9.1352539-5.4296875-9.1352539-11.2900391 c0-5.2998047,2.8007812-10.6865234,9.1352539-10.6865234c6.5927734-0.0429688,9.1352539,5.2148438,9.1352539,10.6865234 C142.9033203,313.3808594,140.6625977,318.9824219,133.7680664,318.9824219z M133.7680664,300.6259766 c-3.3183594,0-3.7919922,4.3525391-3.7919922,7.1103516c0,2.8007812,0.3447266,7.5839844,3.7919922,7.5839844 s3.7919922-4.7402344,3.7919922-7.5839844C137.5600586,304.9785156,137.0859375,300.6259766,133.7680664,300.6259766z"/><path class="st2" d="M159.1049805,318.5947266v-14.4355469c0-1.8955078-0.8183594-3.4902344-3.0161133-3.4902344 c-2.5424805,0-3.4907227,2.5419922-3.4907227,4.6533203v13.2724609h-5.1274414v-21.2001953h4.5244141l0.3876953,2.84375 c0.9047852-1.9394531,3.0166016-3.2324219,5.730957-3.2324219c4.2231445,0,6.1191406,3.0166016,6.1191406,6.7226562v14.8662109 H159.1049805z"/><path class="st2" d="M173.9282227,318.9824219c-1.8100586,0-3.6201172-0.2148438-5.34375-0.8183594l0.9912109-3.7490234 c1.3359375,0.7753906,2.9301758,0.9482422,4.4814453,0.9482422c1.9394531,0,3.1025391-0.9052734,3.1025391-2.9306641 c0-4.1367188-8.144043-2.1542969-8.144043-9.0917969c0-4.7832031,3.6625977-6.3349609,7.8857422-6.3349609 c1.7236328,0,3.3178711,0.1298828,4.9555664,0.6894531l-0.9912109,3.5771484 c-1.206543-0.5175781-2.5854492-0.6894531-3.9213867-0.6894531c-1.5942383,0-2.887207,0.7324219-2.887207,2.4560547 c0,4.0078125,8.2734375,2.4130859,8.2734375,8.9628906C182.3305664,317.1298828,178.4956055,318.9824219,173.9282227,318.9824219z"/><path class="st2" d="M190.6044922,318.9824219c-1.8105469,0-3.6201172-0.2148438-5.34375-0.8183594l0.9912109-3.7490234 c1.3359375,0.7753906,2.9296875,0.9482422,4.4814453,0.9482422c1.9394531,0,3.1025391-0.9052734,3.1025391-2.9306641 c0-4.1367188-8.1445312-2.1542969-8.1445312-9.0917969c0-4.7832031,3.6630859-6.3349609,7.8857422-6.3349609 c1.7236328,0,3.3183594,0.1298828,4.9560547,0.6894531l-0.9912109,3.5771484 c-1.2070312-0.5175781-2.5859375-0.6894531-3.921875-0.6894531c-1.59375,0-2.8867188,0.7324219-2.8867188,2.4560547 c0,4.0078125,8.2734375,2.4130859,8.2734375,8.9628906C199.0068359,317.1298828,195.171875,318.9824219,190.6044922,318.9824219z"/><path class="st2" d="M211.2871094,318.9824219c-7.1533203,0-9.1347656-5.6875-9.1347656-11.2900391 c0-5.5585938,3.3173828-10.6865234,9.8671875-10.6865234c1.6806641,0,3.4042969,0.2158203,4.5683594,0.6894531 l-0.9052734,3.6201172c-1.0341797-0.4306641-2.1113281-0.5175781-3.3613281-0.5175781 c-3.8349609,0-4.8261719,3.7060547-4.8261719,6.8945312c0,4.1367188,1.0341797,7.4980469,5.2568359,7.4980469 c0.9482422,0,2.1123047-0.2158203,3.0166016-0.7324219l0.9052734,3.7490234 C215.3378906,318.8105469,213.1835938,318.9824219,211.2871094,318.9824219z"/><path class="st2" d="M231.9619141,318.5947266v-14.4355469c0-1.8955078-0.8613281-3.4472656-3.1025391-3.4472656 c-2.5419922,0-3.4472656,2.4990234-3.4472656,4.6103516v13.2724609h-5.1279297v-30.6806641h5.1279297v12.2382812 c0.9912109-1.9394531,2.84375-3.1464844,5.515625-3.1464844c4.2226562,0,6.1191406,3.0166016,6.1191406,6.7226562v14.8662109 H231.9619141z"/><path class="st2" d="M253.3349609,318.5947266l-0.3876953-2.4990234c-1.2070312,1.8525391-2.9736328,2.8867188-5.34375,2.8867188 c-4.1367188,0-6.2480469-2.4130859-6.2480469-6.3339844c0-4.3955078,3.3183594-6.765625,8.1445312-6.765625 c1.5078125,0,2.4990234,0.2158203,3.2744141,0.3447266v-2.3701172c0-2.1972656-1.3359375-3.1884766-3.5761719-3.1884766 c-1.5517578,0-3.5771484,0.3447266-5.0419922,1.1201172l-0.8613281-3.5761719 c2.0683594-0.9482422,4.6962891-1.2070312,6.9375-1.2070312c4.9550781,0,7.4970703,2.3271484,7.4970703,6.0332031v11.6347656 c0,1.2919922,0.2158203,2.6279297,0.3886719,3.9208984H253.3349609z M252.7744141,309.2441406 c-0.5605469-0.2158203-1.5078125-0.3876953-2.7578125-0.3876953c-2.4130859,0-3.4902344,1.6806641-3.4902344,3.5332031 c0,1.8095703,0.7753906,3.1455078,2.671875,3.1455078c1.9384766,0,3.5761719-1.421875,3.5761719-3.3183594V309.2441406z"/><path class="st2" d="M269.3212891,318.9824219c-4.5253906,0-5.8173828-1.8525391-5.8173828-5.9462891v-25.1220703h5.1279297 v24.0449219c0,2.3261719,0.3447266,3.3173828,1.4648438,3.3173828c0.5166016,0,1.1201172-0.1289062,1.4648438-0.2578125 l0.5605469,3.4472656C271.6474609,318.7675781,270.0107422,318.9824219,269.3212891,318.9824219z"/><path class="st2" d="M281.9033203,318.9824219c-3.5332031,0-5.2568359-1.8955078-5.2568359-5.8173828v-12.0224609h-3.0166016 v-3.7480469h3.0166016v-4.7832031l5.1279297-1.4658203v6.2050781h4.09375v3.7919922h-4.09375v10.8164062 c0,2.4130859,0.6025391,3.2744141,2.1113281,3.2744141c0.7753906,0,1.2060547,0,1.9384766-0.2587891l0.3447266,3.4912109 C285.0058594,318.8964844,283.7128906,318.9824219,281.9033203,318.9824219z"/><path class="st2" d="M293.9248047,309.2441406c0,3.6191406,1.5947266,6.0322266,5.4296875,6.0322266 c1.5517578,0,3.3183594-0.3876953,4.6972656-1.0341797l0.8613281,3.6630859 c-1.9384766,0.8183594-4.6962891,1.0771484-6.7646484,1.0771484c-6.7226562,0-9.4375-5.2568359-9.4375-11.2900391 c0-5.2138672,2.5429688-10.6435547,8.6181641-10.6435547c6.4638672,0.0439453,8.4033203,4.6972656,8.4033203,10.2988281v1.8964844 H293.9248047z M297.3291016,300.453125c-2.7148438,0-3.4042969,3.2753906-3.4042969,5.3867188h6.8085938 C300.7333984,303.5996094,300.2167969,300.453125,297.3291016,300.453125z"/><path class="st2" d="M320.46875,301.7890625c-0.4746094-0.1289062-0.9482422-0.2148438-1.4228516-0.2148438 c-3.0585938,0-3.7480469,2.7578125-3.7480469,5.4287109v11.5917969h-5.1279297v-21.2001953h4.6533203l0.3876953,2.8007812 c1.3359375-2.2412109,2.8876953-3.1894531,5.1279297-3.1894531c0.3876953,0,1.2070312,0.0869141,1.5947266,0.2587891 L320.46875,301.7890625z"/></g><g><circle class="st3" cx="226.0713959" cy="103.3955231" r="69.6189117"/><circle class="st3" cx="138.9286041" cy="103.3955231" r="69.6189117"/><path class="st4" d="M253.7724457,151.684433v-15.0068817h-11.3672485v-50.371933h-39.8009338v15.0019989H213.97995v35.3699341 h-11.3756866v15.0068817H253.7724457 M244.1102295,60.7193069c0-9.3812904-7.6766815-17.0535507-17.0579834-17.0535507 c-9.3768616,0-17.0531006,7.6722603-17.0531006,17.0535507s7.676239,17.0575409,17.0531006,17.0575409 C236.433548,77.7768478,244.1102295,70.1006012,244.1102295,60.7193069z"/><g><path class="st4" d="M172.9922485,72.2985001h-41.5270996v70.0309677h41.5270996V72.2985001L172.9922485,72.2985001z M126.5775146,135.5795288l-34.0441895-8.9235229l20.6376114-77.1402893l49.5930405,13.3158684l-1.2056122,4.5111732h16.3695984 v79.8659363h-51.3504486V135.5795288L126.5775146,135.5795288L126.5775146,135.5795288z M98.5219498,123.2174149 L98.5219498,123.2174149l18.0962677-67.6397552l40.1090317,10.7690201l-0.2744141,1.0328827h-9.2548065l-28.128891-7.2481346 l-1.270813,4.7505531l10.2934418,2.4975815h-1.5368576v3.1994934l-9.6199265-2.4622192l-1.2734222,4.7505493l10.8933487,2.8033295 v37.3381577l-5.1736755-1.4148483l-1.2733841,4.7488174l6.4470596,1.7547989v3.3452682l-7.2820358-1.978241l-1.2679138,4.7517166 l8.5499496,2.3207932l0.0226059,3.9622726L98.5219498,123.2174149L98.5219498,123.2174149z M150.1074219,133.3239441h19.632843 v4.9189301h-19.632843V133.3239441L150.1074219,133.3239441L150.1074219,133.3239441z M134.7736206,75.7428818h34.9666443 v4.9186478L134.7736206,80.66008V75.7428818L134.7736206,75.7428818L134.7736206,75.7428818z M134.7736206,84.0125961h34.9666443 v4.9160309h-34.9666443V84.0125961L134.7736206,84.0125961L134.7736206,84.0125961z M150.1074219,125.1730499h19.632843v4.9189301 h-19.632843V125.1730499L150.1074219,125.1730499z"/></g></g></svg>