<?xml version="1.0" encoding="UTF-8" standalone="no"?>
<svg xmlns="http://www.w3.org/2000/svg" width="24" height="24"><path d="M4.433 1.040 C 3.843 1.134,3.221 1.380,2.731 1.712 C 1.955 2.240,1.394 3.037,1.130 3.989 C 1.034 4.337,1.022 4.449,1.022 5.000 C 1.022 5.553,1.034 5.663,1.132 6.017 C 1.475 7.256,2.357 8.252,3.520 8.715 C 5.334 9.437,7.462 8.710,8.444 7.033 C 9.503 5.224,8.985 2.878,7.269 1.712 C 6.917 1.473,6.343 1.214,5.958 1.120 C 5.572 1.026,4.783 0.984,4.433 1.040 M5.383 3.043 C 6.185 3.190,6.839 3.872,6.967 4.695 C 7.153 5.894,6.209 7.000,5.000 7.000 C 4.032 7.000,3.183 6.268,3.033 5.305 C 2.933 4.663,3.132 4.061,3.596 3.596 C 4.085 3.108,4.698 2.918,5.383 3.043 M11.240 4.037 C 11.048 4.096,10.893 4.196,10.752 4.352 C 10.307 4.845,10.480 5.617,11.100 5.906 C 11.297 5.998,11.321 5.999,12.640 6.000 C 14.745 6.002,16.037 6.089,16.338 6.249 C 16.495 6.333,16.655 6.608,16.694 6.863 C 16.783 7.443,16.590 7.603,11.220 11.402 C 9.438 12.662,7.746 13.864,7.460 14.073 C 5.865 15.236,5.160 15.956,4.912 16.672 C 4.832 16.906,4.820 17.013,4.823 17.520 C 4.825 18.043,4.836 18.131,4.935 18.420 C 5.092 18.878,5.328 19.255,5.677 19.602 C 6.315 20.236,7.010 20.412,9.140 20.481 C 10.473 20.523,12.429 20.531,12.651 20.494 C 13.165 20.409,13.575 19.852,13.494 19.349 C 13.454 19.104,13.245 18.798,13.023 18.661 L 12.826 18.540 10.783 18.512 C 7.955 18.474,7.284 18.409,7.039 18.147 C 6.894 17.992,6.800 17.728,6.800 17.478 C 6.800 17.318,6.824 17.261,6.964 17.089 C 7.125 16.891,7.522 16.539,8.040 16.135 C 8.446 15.818,9.233 15.255,12.480 12.960 C 16.720 9.963,17.243 9.569,17.901 8.872 C 18.495 8.242,18.697 7.766,18.696 7.000 C 18.694 6.169,18.427 5.508,17.861 4.935 C 17.247 4.314,16.600 4.124,14.815 4.041 C 13.841 3.995,11.386 3.993,11.240 4.037 M18.433 15.040 C 17.843 15.134,17.221 15.380,16.731 15.712 C 15.955 16.240,15.394 17.037,15.130 17.989 C 15.034 18.337,15.022 18.449,15.022 19.000 C 15.022 19.553,15.034 19.663,15.132 20.017 C 15.475 21.256,16.357 22.252,17.520 22.715 C 19.334 23.437,21.462 22.710,22.444 21.033 C 23.503 19.224,22.985 16.878,21.269 15.712 C 20.917 15.473,20.343 15.214,19.958 15.120 C 19.572 15.026,18.783 14.984,18.433 15.040 M19.383 17.043 C 20.185 17.190,20.839 17.872,20.967 18.695 C 21.153 19.894,20.209 21.000,19.000 21.000 C 18.032 21.000,17.183 20.268,17.033 19.305 C 16.933 18.663,17.132 18.061,17.596 17.596 C 18.085 17.108,18.698 16.918,19.383 17.043" stroke="none" fill-rule="evenodd"/></svg>