<?xml version="1.0" encoding="UTF-8" standalone="no"?>
<svg xmlns="http://www.w3.org/2000/svg" width="24" height="24"><g fill-rule="evenodd" clip-rule="evenodd"><path d="M3.568 12.937h.064c.253 0 .498 0 .707.017.228.019.498.063.77.201a2 2 0 0 1 .873.874c.093.182.144.364.172.533L8.6 13.9l.011-.005.228-.097c.19-.08.455-.187.755-.294.553-.198 1.379-.458 2.054-.458q.721 0 1.422.17l2.385.58c1.093.265 1.9 1.208 1.955 2.334l1.483-1.081a2.61 2.61 0 0 1 3.347.233 2.503 2.503 0 0 1 0 3.603l-2.157 2.098a5.2 5.2 0 0 1-2.634 1.373l-3.05.593a5.3 5.3 0 0 1-2.253-.052l-2.758-.67-.002-.001a3.2 3.2 0 0 0-.77-.093q-.034 0-.069-.002l-2.55-.174-.014.027a2 2 0 0 1-.874.874 2 2 0 0 1-.77.201c-.208.017-.453.017-.706.017h-.064c-.252 0-.498 0-.706-.017a2 2 0 0 1-.77-.2 2 2 0 0 1-.874-.875C.995 21.547 1 21.052 1 20.92v-5.414000000000001c0-.252 0-.498.017-.706.019-.229.063-.498.201-.77a2 2 0 0 1 .874-.874 2 2 0 0 1 .77-.201c.208-.017.454-.017.706-.017M6.2 19.966l2.45.167q.613.005 1.21.15h.001l2.756.67c.458.112.936.123 1.4.033l3.049-.593a3.2 3.2 0 0 0 1.621-.843l2.158-2.1a.504.504 0 0 0 0-.734.61.61 0 0 0-.774-.052l-2.514 1.834c-.534.39-1.18.598-1.84.598H13.29a1 1 0 0 1 0-2h1.545c.345 0 .577-.265.577-.534v-.307c0-.225-.16-.45-.43-.515l-2.385-.58a4 4 0 0 0-.95-.114c-.289 0-.818.14-1.38.34a14 14 0 0 0-.851.34l-.05.022-.012.005-.002.001a1 1 0 0 1-.155.056l-2.997.812zm-3.188-5.018-.001.014c-.01.116-.01.279-.01.575V20.9c0 .067 0 .117.005.165l.019.001c.117.01.279.01.575.01.297 0 .46 0 .576-.01l.018-.002c.006-.047.006-.097.006-.164v-5.363a8 8 0 0 0-.011-.589h-.013a8 8 0 0 0-.576-.011 8 8 0 0 0-.588.011M8.498 1h8.003c.24 0 .48 0 .683.018.226.02.497.066.768.212.372.2.665.515.845.89.129.267.17.532.187.758.016.208.016.454.016.711V4.5a1 1 0 0 1-1 1c-.256 0-.385.075-.456.15-.077.081-.218.304-.218.85 0 .248.1.53.27.741.171.213.327.259.404.259a1 1 0 0 1 1 1v.91c0 .258 0 .504-.016.712a2.1 2.1 0 0 1-.187.759c-.18.374-.472.688-.845.889a1.9 1.9 0 0 1-.768.213c-.204.017-.443.017-.682.017H8.498c-.24 0-.478 0-.682-.018a1.9 1.9 0 0 1-.768-.212 2 2 0 0 1-.845-.889 2.1 2.1 0 0 1-.187-.759A10 10 0 0 1 6 9.411V8.5a1 1 0 0 1 1-1c.077 0 .233-.046.404-.259.17-.211.27-.493.27-.741 0-.546-.141-.769-.218-.85-.071-.075-.2-.15-.456-.15a1 1 0 0 1-1-1v-.91c0-.258 0-.504.016-.712.017-.226.058-.491.187-.759.18-.374.472-.688.845-.889.271-.146.542-.193.768-.212C8.02 1 8.26 1 8.498 1m-.486 2.008-.002.024C8 3.153 8 3.321 8 3.62v.054c.33.124.643.32.912.604.529.562.762 1.34.762 2.222 0 .731-.274 1.449-.71 1.993-.247.307-.573.59-.964.777v.11a9 9 0 0 0 .012.612c.105.007.254.008.519.008h7.938c.265 0 .414 0 .519-.008l.002-.024c.01-.121.01-.289.01-.588v-.11a2.8 2.8 0 0 1-.964-.777 3.24 3.24 0 0 1-.71-1.993c0-.882.233-1.66.762-2.222.27-.285.582-.48.912-.604V3.62a9 9 0 0 0-.012-.612A9 9 0 0 0 16.469 3H8.531c-.265 0-.414 0-.519.008"/></g></svg>