<?xml version="1.0" encoding="UTF-8" standalone="no"?>
<svg xmlns="http://www.w3.org/2000/svg" width="24" height="24"><path d="M1.577 4.655 C 0.814 5.010,0.828 6.096,1.600 6.456 C 1.767 6.533,1.862 6.541,2.890 6.553 L 4.000 6.567 4.000 8.275 L 4.000 9.984 3.650 10.029 C 2.899 10.126,2.450 10.349,1.900 10.900 C 1.374 11.425,1.145 11.866,1.038 12.558 C 1.011 12.728,1.001 13.775,1.009 15.442 L 1.021 18.060 1.115 18.340 C 1.447 19.329,2.130 20.034,3.069 20.354 L 3.380 20.460 12.000 20.460 L 20.620 20.460 20.931 20.354 C 21.870 20.034,22.554 19.328,22.884 18.340 L 22.978 18.060 22.991 15.444 C 23.000 13.766,22.989 12.732,22.963 12.560 C 22.855 11.866,22.626 11.425,22.100 10.900 C 21.550 10.349,21.101 10.126,20.350 10.029 L 20.000 9.984 20.000 8.275 L 20.000 6.567 21.110 6.553 C 22.138 6.541,22.233 6.533,22.400 6.456 C 23.170 6.097,23.183 5.009,22.423 4.655 L 22.220 4.561 12.000 4.561 L 1.780 4.561 1.577 4.655 M18.000 8.280 L 18.000 10.000 12.000 10.000 L 6.000 10.000 6.000 8.280 L 6.000 6.560 12.000 6.560 L 18.000 6.560 18.000 8.280 M12.510 15.250 L 12.500 18.500 8.160 18.500 C 3.259 18.500,3.599 18.522,3.289 18.186 C 2.986 17.856,2.996 17.964,3.009 15.180 L 3.020 12.700 3.131 12.511 C 3.256 12.298,3.449 12.136,3.670 12.057 C 3.792 12.014,4.641 12.003,8.170 12.002 L 12.520 12.000 12.510 15.250 M20.330 12.057 C 20.551 12.136,20.744 12.298,20.869 12.511 L 20.980 12.700 20.991 15.180 C 21.004 17.964,21.014 17.856,20.711 18.186 C 20.408 18.513,20.552 18.500,17.340 18.500 L 14.500 18.500 14.490 15.250 L 14.480 12.000 17.330 12.002 C 19.606 12.003,20.210 12.014,20.330 12.057 M17.208 12.641 C 16.361 12.863,15.641 13.594,15.421 14.458 C 15.342 14.766,15.342 15.432,15.420 15.742 C 15.642 16.618,16.393 17.363,17.279 17.584 C 17.645 17.676,18.404 17.644,18.749 17.522 C 19.039 17.419,19.403 17.192,19.661 16.955 C 19.916 16.720,20.222 16.245,20.324 15.928 C 20.442 15.561,20.471 14.878,20.385 14.511 C 20.171 13.598,19.412 12.833,18.512 12.621 C 18.160 12.538,17.567 12.547,17.208 12.641 M4.240 13.037 C 3.951 13.126,3.686 13.361,3.575 13.626 C 3.504 13.795,3.504 14.205,3.575 14.374 C 3.653 14.562,3.866 14.790,4.056 14.892 L 4.220 14.980 7.500 14.980 L 10.780 14.980 10.946 14.891 C 11.510 14.590,11.662 13.841,11.256 13.366 C 11.176 13.273,11.037 13.157,10.946 13.109 L 10.780 13.020 7.560 13.013 C 5.789 13.009,4.295 13.020,4.240 13.037 M18.290 14.712 C 18.581 15.003,18.452 15.511,18.053 15.642 C 17.666 15.770,17.237 15.353,17.354 14.963 C 17.478 14.551,17.992 14.413,18.290 14.712 M4.046 15.625 C 3.680 15.807,3.499 16.140,3.527 16.580 C 3.548 16.907,3.704 17.169,3.978 17.339 L 4.174 17.460 7.500 17.460 L 10.826 17.460 11.022 17.339 C 11.143 17.264,11.264 17.143,11.339 17.022 C 11.448 16.846,11.460 16.793,11.460 16.500 C 11.460 16.207,11.448 16.154,11.339 15.978 C 11.264 15.857,11.143 15.736,11.022 15.661 L 10.826 15.540 7.542 15.529 L 4.258 15.519 4.046 15.625" stroke="none" fill-rule="evenodd"/></svg>