<?xml version="1.0" encoding="UTF-8" standalone="no"?>
<svg xmlns="http://www.w3.org/2000/svg" width="32" height="32" viewBox="0 0 32 32" fill="none"><rect x="0.695557" y="0.695312" width="30.6095" height="30.6095" rx="12.3913" fill="#CC0000"/><path fill-rule="evenodd" clip-rule="evenodd" d="M11.1304 0H20.8696C27.0168 0 32 4.98324 32 11.1304V20.8696C32 27.0168 27.0168 32 20.8696 32H11.1304C4.98324 32 0 27.0168 0 20.8696V11.1304C0 4.98324 4.98324 0 11.1304 0ZM30.6081 11.1297C30.602 5.75348 26.2452 1.39668 20.869 1.39062H11.1297C5.75348 1.39668 1.39668 5.75348 1.39062 11.1297V20.869C1.39668 26.2452 5.75348 30.602 11.1297 30.6081H20.869C26.2452 30.602 30.602 26.2452 30.6081 20.869V11.1297Z" fill="white"/><path fill-rule="evenodd" clip-rule="evenodd" d="M4.22168 11.4336V12.7196H6.0238V19.7912H7.59887V12.7196H9.40172V11.4336H4.22168ZM12.7396 13.5213C12.1039 13.5089 11.5204 13.8718 11.2505 14.4475L11.1401 13.6352H9.78633V19.7912H11.2755V16.4247C11.2755 15.6479 11.4775 14.8464 12.3656 14.8464C12.5055 14.8495 12.6445 14.871 12.7788 14.9106L13.2028 13.596C13.0532 13.5472 12.897 13.5219 12.7396 13.5213ZM14.1611 13.8704C14.8022 13.6173 15.4885 13.4984 16.1775 13.5213C17.6161 13.5213 18.3542 14.1978 18.355 15.274V18.6518C18.3669 19.0337 18.4038 19.4145 18.4653 19.7917H17.0795L16.9655 19.065C16.6355 19.6028 16.0424 19.9223 15.4118 19.9022C14.9122 19.9542 14.4161 19.7764 14.0634 19.4188C13.7107 19.0612 13.5396 18.5627 13.5985 18.0639C13.5985 16.7876 14.5625 16.101 15.9641 16.101C16.2836 16.1038 16.6021 16.1371 16.9152 16.2006V15.513C16.9152 14.8749 16.5252 14.5869 15.8745 14.5869C15.3683 14.5837 14.8678 14.6945 14.4103 14.9111L14.1611 13.8704ZM23.0069 13.5213C22.3477 13.4924 21.7354 13.8617 21.4532 14.4582L21.3394 13.6352H20.0283V19.7913H21.5174V15.9225C21.5174 15.3093 21.7545 14.5864 22.4045 14.5864C22.9684 14.5864 23.1918 14.9747 23.1918 15.5626V19.7913H24.6702V15.9011C24.6702 15.2874 24.8949 14.5864 25.5573 14.5864C26.1203 14.5864 26.3447 15.0244 26.3447 15.5626V19.7913H27.8339V15.448C27.8339 14.3717 27.3109 13.5207 26.1594 13.5207C25.4858 13.4733 24.8527 13.8458 24.5669 14.4576C24.3083 13.8373 23.6759 13.4578 23.0069 13.5213ZM16.9153 17.0765C16.6566 16.9929 16.3855 16.9543 16.1137 16.9625C15.8377 16.9444 15.5674 17.0472 15.3731 17.2441C15.1788 17.4411 15.0797 17.7127 15.1016 17.9885C15.1016 18.5144 15.3238 18.9005 15.8746 18.9005C16.1405 18.9121 16.3999 18.817 16.5954 18.6364C16.7908 18.4558 16.906 18.2046 16.9153 17.9387V17.0765Z" fill="white"/></svg>