<?xml version="1.0" encoding="UTF-8" standalone="no"?>
<svg version="1.1" id="Ebene_1" xmlns="http://www.w3.org/2000/svg" xmlns:xlink="http://www.w3.org/1999/xlink" x="0px" y="0px" viewBox="0 0 277 267.5" style="enable-background:new 0 0 277 267.5;" xml:space="preserve"><style type="text/css">.st0{opacity:0.18;enable-background:new    ;} \t.st1{fill:#4562A2;} \t.st2{fill:#2C426D;} \t.st3{fill:#FFFFFF;}</style><g><polygon class="st0" points="277,165 162.8981628,165 59.25,237 183,237"/><polygon class="st0" points="82.5,267.3995056 130,245 77,245"/><path class="st1" d="M150,210H15c-8.2842712,0-15-6.7157288-15-15V15C0,6.7157288,6.7157288,0,15,0h135 c8.2842712,0,15,6.7157288,15,15v180C165,203.2842712,158.2842712,210,150,210z"/><polygon class="st2" points="112.8108902,215 82.5,267.5 52.1891098,215"/><g><rect x="71.7935028" y="149.8020325" class="st3" width="21.9855652" height="15.3956146"/><path class="st3" d="M125.5208359,133.5563507V165.08992h2.7414017h23.3654327h1.3724213v-31.5335693H125.5208359z M142.1885834,136.2592316h6.3067017v9.4600677h-6.3067017V136.2592316z M148.495285,152.026001v9.0095978h-6.3067017v-9.0095978 H148.495285z M130.4761047,136.2592316h5.4057617v9.4600677h-5.4057617V136.2592316z M135.8818665,152.026001v9.0095978 h-5.4057617v-9.0095978H135.8818665z"/><path class="st3" d="M12,133.5563507V165.08992h2.3378534h23.3654289h1.7759705v-31.5335693H12z M28.2172623,136.2592316 h6.3067131v9.4600677h-6.3067131V136.2592316z M34.5239754,152.026001v9.0095978h-6.3067131v-9.0095978H34.5239754z M16.5047951,136.2592316h5.4057541v9.4600677h-5.4057541V136.2592316z M21.9105492,152.026001v9.0095978h-5.4057541v-9.0095978 H21.9105492z"/><path class="st3" d="M82.7252808,110.2391434l-40.0926743,13.739624V165.08992H69.661377v-17.1182251h26.1278152V165.08992 h27.0287704v-41.1111526L82.7252808,110.2391434z M57.0479507,128.0644684 c3.6038361,0.4333801,5.3843193,2.7890015,5.8878288,5.4918823h-5.8878288V128.0644684z M55.2460327,161.0355988h-6.3067131 v-9.0095978h6.3067131V161.0355988z M55.2460327,145.7192993h-6.3067131v-10.3610382h6.3067131V145.7192993z M55.2460327,133.5563507h-6.4153671c0.5229378-2.7028809,3.7124901-5.2463226,6.4153671-5.5376282V133.5563507z M63.3546638,161.0355988h-6.3067131v-9.0095978h6.3067131V161.0355988z M63.3546638,145.7192993h-6.3067131v-10.3610382 h6.3067131V145.7192993z M88.5815201,124.1991119c3.1533508,1.8674545,5.9442596,5.3029175,6.4319763,9.3572388h-6.4319763 V124.1991119z M76.8690491,145.7192993h-6.7571945v-10.3610382h6.7571945V145.7192993z M76.8690491,133.5563507h-6.8750534 c0.4877167-4.0543213,3.7216949-7.4897842,6.8750534-9.3572388V133.5563507z M86.7796021,145.7192993h-8.2413864h0.1327515 v-10.3610382h3.5270462h4.5815887V145.7192993z M86.7796021,133.5563507h-8.1086349v-10.076828 c1.3514404-0.4166794,2.3971634-0.7346802,3.7860947-0.7346802h0.0466843h0.0466843 c1.3889313,0,2.8777313,0.3180008,4.2291718,0.7346802V133.5563507z M95.338707,145.7192993h-6.7571869v-10.3610382h6.7571869 V145.7192993z M110.2045364,128.0187225c2.7028732,0.2913055,5.4493561,2.8347473,5.97229,5.5376282h-5.97229V128.0187225z M108.4026184,161.0355988h-6.3067169v-9.0095978h6.3067169V161.0355988z M108.4026184,145.7192993h-6.3067169v-10.3610382 h6.3067169V145.7192993z M108.4026184,133.5563507h-6.3309021c0.5035095-2.7028809,3.1775436-5.0585022,6.3309021-5.4918823 V133.5563507z M116.5112457,161.0355988h-6.3067093v-9.0095978h6.3067093V161.0355988z M116.5112457,145.7192993h-6.3067093 v-10.3610382h6.3067093V145.7192993z"/></g><path class="st2" d="M165,80V15c0-8.2843018-6.7157593-15-15-15H15C6.7156982,0,0,6.7156982,0,15v65H165z"/></g></svg>