<?xml version="1.0" encoding="UTF-8" standalone="no"?>
<svg xmlns="http://www.w3.org/2000/svg" width="24" height="24"><path d="M6.643 6.069 C 6.291 6.193,6.000 6.614,6.000 7.000 C 6.000 7.080,6.029 7.234,6.065 7.343 C 6.124 7.521,6.343 7.753,8.354 9.770 L 10.578 12.000 8.353 14.230 C 6.207 16.380,6.125 16.468,6.063 16.677 C 5.984 16.948,5.984 17.013,6.064 17.283 C 6.153 17.581,6.419 17.847,6.717 17.936 C 6.987 18.016,7.052 18.016,7.323 17.937 C 7.532 17.875,7.620 17.793,9.770 15.647 L 12.000 13.422 14.230 15.647 C 16.380 17.793,16.468 17.875,16.677 17.937 C 16.948 18.016,17.013 18.016,17.283 17.936 C 17.581 17.847,17.847 17.581,17.936 17.283 C 18.016 17.013,18.016 16.948,17.937 16.677 C 17.875 16.468,17.793 16.380,15.647 14.230 L 13.421 12.000 15.629 9.790 C 17.311 8.106,17.856 7.537,17.917 7.400 C 18.022 7.168,18.025 6.799,17.925 6.578 C 17.834 6.377,17.518 6.094,17.325 6.041 C 17.095 5.977,16.797 5.994,16.600 6.083 C 16.463 6.144,15.894 6.689,14.210 8.371 L 12.000 10.579 9.770 8.354 C 7.753 6.343,7.521 6.124,7.343 6.065 C 7.101 5.985,6.876 5.986,6.643 6.069" stroke="none" fill-rule="evenodd"/></svg>