<?xml version="1.0" encoding="UTF-8" standalone="no"?>
<svg xmlns="http://www.w3.org/2000/svg" width="24" height="24"><path d="M6.040 2.027 C 5.614 2.050,5.072 2.127,4.795 2.204 C 3.977 2.431,3.161 3.046,2.662 3.811 C 2.281 4.396,2.121 4.901,2.042 5.760 C 1.985 6.383,1.985 17.604,2.042 18.252 C 2.164 19.645,2.736 20.634,3.831 21.350 C 4.400 21.722,4.919 21.884,5.780 21.958 C 6.432 22.014,17.568 22.014,18.220 21.958 C 19.088 21.883,19.596 21.724,20.189 21.339 C 20.867 20.899,21.480 20.136,21.723 19.430 C 21.986 18.665,21.975 18.955,21.991 12.380 C 22.001 8.262,21.992 6.246,21.961 5.856 C 21.888 4.920,21.736 4.422,21.338 3.811 C 20.795 2.979,19.920 2.358,19.009 2.160 C 18.805 2.115,18.382 2.061,18.069 2.040 C 17.568 2.006,6.645 1.994,6.040 2.027 M18.460 4.075 C 18.592 4.101,18.799 4.171,18.920 4.231 C 19.203 4.370,19.630 4.797,19.769 5.080 C 19.983 5.514,19.980 5.420,19.980 12.000 C 19.980 18.583,19.983 18.489,19.769 18.918 C 19.629 19.199,19.307 19.545,19.031 19.711 C 18.560 19.994,18.925 19.980,12.000 19.980 C 5.075 19.980,5.440 19.994,4.969 19.711 C 4.693 19.545,4.371 19.199,4.231 18.918 C 4.017 18.489,4.020 18.583,4.020 12.000 C 4.020 5.453,4.018 5.515,4.223 5.092 C 4.432 4.661,4.949 4.218,5.360 4.120 C 5.470 4.094,5.726 4.058,5.930 4.041 C 6.556 3.988,18.180 4.020,18.460 4.075 M11.664 7.063 C 11.436 7.146,11.257 7.297,11.131 7.511 L 11.020 7.700 11.008 9.350 L 10.997 11.000 9.423 11.000 C 7.721 11.000,7.656 11.007,7.374 11.222 C 7.301 11.277,7.192 11.408,7.131 11.511 C 7.036 11.672,7.020 11.744,7.020 12.000 C 7.020 12.256,7.036 12.328,7.131 12.489 C 7.192 12.592,7.301 12.723,7.374 12.778 C 7.656 12.993,7.721 13.000,9.425 13.000 L 11.000 13.000 11.000 14.570 C 11.000 15.528,11.017 16.198,11.042 16.289 C 11.103 16.509,11.315 16.762,11.531 16.874 C 11.932 17.080,12.390 17.012,12.700 16.702 C 12.994 16.408,13.000 16.363,13.000 14.573 L 13.000 13.000 14.573 13.000 C 16.362 13.000,16.409 12.994,16.701 12.701 C 17.092 12.310,17.092 11.690,16.701 11.299 C 16.409 11.006,16.362 11.000,14.573 11.000 L 13.000 11.000 13.000 9.427 C 13.000 7.638,12.994 7.591,12.701 7.299 C 12.429 7.027,12.018 6.933,11.664 7.063" stroke="none" fill-rule="evenodd"/></svg>