<?xml version="1.0" encoding="UTF-8" standalone="no"?>
<svg xmlns="http://www.w3.org/2000/svg" width="24" height="24"><path d="M11.664 1.063 C 11.436 1.146,11.257 1.297,11.131 1.511 C 11.023 1.694,11.020 1.720,11.007 2.382 L 10.994 3.064 10.623 3.113 C 9.182 3.307,7.588 4.010,6.360 4.993 C 4.723 6.304,3.557 8.238,3.175 10.275 C 3.118 10.575,3.065 10.861,3.055 10.910 C 3.039 10.999,3.029 11.000,2.444 11.000 C 1.629 11.000,1.373 11.100,1.131 11.511 C 1.036 11.672,1.020 11.744,1.020 12.000 C 1.020 12.256,1.036 12.328,1.131 12.489 C 1.373 12.900,1.629 13.000,2.444 13.000 C 3.029 13.000,3.039 13.001,3.055 13.090 C 3.065 13.139,3.119 13.428,3.176 13.730 C 3.554 15.744,4.731 17.702,6.341 18.997 C 7.561 19.978,9.151 20.681,10.635 20.894 L 10.980 20.944 11.000 21.622 C 11.019 22.273,11.024 22.307,11.131 22.489 C 11.536 23.178,12.539 23.156,12.886 22.450 C 12.970 22.281,12.982 22.187,13.000 21.602 L 13.020 20.944 13.365 20.894 C 14.849 20.681,16.439 19.978,17.659 18.997 C 19.364 17.626,20.587 15.496,20.894 13.365 L 20.944 13.020 21.602 13.000 C 22.348 12.977,22.535 12.921,22.759 12.649 C 23.171 12.149,23.019 11.394,22.450 11.114 C 22.281 11.030,22.187 11.018,21.602 11.000 L 20.944 10.980 20.894 10.635 C 20.773 9.790,20.498 8.922,20.081 8.060 C 19.207 6.257,17.787 4.831,15.980 3.941 C 15.111 3.512,14.204 3.224,13.374 3.113 L 13.000 3.063 13.000 2.459 C 13.000 1.738,12.951 1.549,12.701 1.299 C 12.429 1.027,12.018 0.933,11.664 1.063 M11.000 5.610 C 11.000 6.219,11.033 6.372,11.212 6.607 C 11.570 7.076,12.281 7.121,12.700 6.702 C 12.945 6.457,13.000 6.257,13.000 5.609 L 13.000 5.073 13.170 5.100 C 13.503 5.153,14.145 5.328,14.480 5.458 C 16.376 6.190,17.810 7.624,18.542 9.520 C 18.672 9.855,18.847 10.497,18.900 10.830 L 18.927 11.000 18.389 11.000 C 17.634 11.000,17.368 11.108,17.131 11.511 C 17.036 11.672,17.020 11.744,17.020 12.000 C 17.020 12.256,17.036 12.328,17.131 12.489 C 17.368 12.892,17.634 13.000,18.389 13.000 L 18.927 13.000 18.900 13.170 C 18.885 13.263,18.828 13.520,18.773 13.740 C 18.145 16.263,16.065 18.272,13.494 18.840 C 12.952 18.960,13.000 19.004,13.000 18.387 C 13.000 17.744,12.945 17.542,12.700 17.298 C 12.281 16.879,11.570 16.924,11.212 17.393 C 11.033 17.628,11.000 17.781,11.000 18.390 C 11.000 19.004,11.048 18.960,10.506 18.840 C 7.932 18.271,5.856 16.266,5.227 13.740 C 5.172 13.520,5.115 13.263,5.100 13.170 L 5.073 13.000 5.609 13.000 C 6.256 13.000,6.457 12.945,6.701 12.701 C 6.881 12.521,7.000 12.242,7.000 12.000 C 7.000 11.758,6.881 11.479,6.701 11.299 C 6.457 11.055,6.256 11.000,5.609 11.000 L 5.073 11.000 5.100 10.830 C 5.154 10.492,5.329 9.853,5.464 9.503 C 6.188 7.631,7.637 6.185,9.520 5.458 C 9.915 5.305,10.671 5.106,10.930 5.085 C 10.993 5.081,11.000 5.130,11.000 5.610 M11.433 8.040 C 10.843 8.134,10.221 8.380,9.731 8.712 C 8.955 9.240,8.394 10.037,8.130 10.989 C 8.034 11.337,8.022 11.449,8.022 12.000 C 8.022 12.553,8.034 12.663,8.132 13.017 C 8.475 14.256,9.357 15.252,10.520 15.715 C 12.334 16.437,14.462 15.710,15.444 14.033 C 16.503 12.224,15.985 9.878,14.269 8.712 C 13.917 8.473,13.343 8.214,12.958 8.120 C 12.572 8.026,11.783 7.984,11.433 8.040 M12.383 10.043 C 13.185 10.190,13.839 10.872,13.967 11.695 C 14.153 12.894,13.209 14.000,12.000 14.000 C 11.032 14.000,10.183 13.268,10.033 12.305 C 9.933 11.663,10.132 11.061,10.596 10.596 C 11.085 10.108,11.698 9.918,12.383 10.043" stroke="none" fill-rule="evenodd"/></svg>