<?xml version="1.0" encoding="utf-8"?>\x3c!--Generator: Adobe Illustrator 25.1.0, SVG Export Plug-In . SVG Version: 6.00 Build 0)--\x3e<svg version="1.1" id="Ebene_1" xmlns="http://www.w3.org/2000/svg" xmlns:xlink="http://www.w3.org/1999/xlink" x="0px" y="0px" viewBox="0 0 277 267.5" style="enable-background:new 0 0 277 267.5;" xml:space="preserve"><style type="text/css">.st0{opacity:0.18;enable-background:new    ;} \t.st1{fill:#4562A2;} \t.st2{fill:#2C426D;} \t.st3{fill:#FFFFFF;}</style><polygon class="st0" points="277,165 162.8981628,165 59.25,237 183,237"/><polygon class="st0" points="82.5,267.3995056 130,245 77,245"/><path class="st1" d="M150,210H15c-8.2842712,0-15-6.7157288-15-15V15C0,6.7157288,6.7157288,0,15,0h135 c8.2842712,0,15,6.7157288,15,15v180C165,203.2842712,158.2842712,210,150,210z"/><path class="st2" d="M165,80V15c0-8.2843018-6.7157593-15-15-15H15C6.7156982,0,0,6.7156982,0,15v65H165z"/><polygon class="st2" points="112.8108902,215 82.5,267.5 52.1891098,215"/><g><polygon class="st3" points="29.1704388,100.6297989 29.1704388,122.2885818 45.6906052,122.2885818 45.6906052,117.7860489 33.6729774,117.7860489 33.6729774,105.1323318 131.3270264,105.1323318 131.3270264,117.7860489 120.0892029,117.7860489 120.0892029,122.2885818 135.8295593,122.2885818 135.8295593,100.6297989"/><rect x="89.1284943" y="155.4354401" class="st3" width="14.0367908" height="14.0367365"/><path class="st3" d="M110.1836777,171.0027161c0,4.7536011-3.8600769,8.6071472-8.6216583,8.6071472H82.8899078v-69.5247421 H68.0733032v69.4746628l-12.4771156-12.4561768v-57.018486h-5.4030457v57.018486v2.2406616l1.5857277,1.5830841 l12.527298,12.5062561l1.5819855,1.5792999h2.2353287h33.4385376c7.7332458,0,14.024704-6.2849274,14.024704-14.0101929 v-60.9175949h-5.4030457V171.0027161z"/></g></svg>