<?xml version="1.0" encoding="UTF-8" standalone="no"?>
<svg version="1.1" id="Ebene_1" xmlns="http://www.w3.org/2000/svg" xmlns:xlink="http://www.w3.org/1999/xlink" x="0px" y="0px" viewBox="0 0 365 365" style="enable-background:new 0 0 365 365;" xml:space="preserve"><style type="text/css">.st0{fill:#009157;} \t.st1{fill:#2C426D;} \t.st2{fill:#FFFFFF;} \t.st3{fill-rule:evenodd;clip-rule:evenodd;fill:#FFFFFF;stroke:#FFFFFF;stroke-width:0.2609955;stroke-miterlimit:10;} \t.st4{fill-rule:evenodd;clip-rule:evenodd;fill:#009157;}</style><path class="st0" d="M330,365H35c-19.3299675,0-35-15.6700439-35-35V35C0,15.6700335,15.6700335,0,35,0h295 c19.3299561,0,35,15.6700335,35,35v295C365,349.3299561,349.3299561,365,330,365z"/><path class="st1" d="M0,258v72c0,19.3299561,15.6700439,35,35,35h295c19.3299561,0,35-15.6700439,35-35v-72H0z"/><g><path class="st2" d="M58.1606445,328.5947266h-11.921875V291.609375H57.828125 c10.7016602,0,15.6367188,7.1533203,15.6367188,17.9101562C73.4648438,320.1660156,68.7514648,328.5947266,58.1606445,328.5947266z M57.3291016,297.1542969h-4.1035156v25.8955078h4.4360352c6.4321289,0,8.5395508-7.0976562,8.5395508-13.5302734h0.0551758 C66.2563477,303.3095703,64.09375,297.1542969,57.3291016,297.1542969z"/><path class="st2" d="M85.0522461,316.5615234c0,4.6582031,2.0517578,7.7636719,6.9868164,7.7636719 c1.9960938,0,4.2695312-0.4990234,6.0439453-1.3310547l1.1088867,4.7128906 c-2.4951172,1.0537109-6.0439453,1.3867188-8.7055664,1.3867188c-8.6503906,0-12.1435547-6.7646484-12.1435547-14.5283203 c0-6.7089844,3.2714844-13.6962891,11.0898438-13.6962891c8.3178711,0.0556641,10.8129883,6.0449219,10.8129883,13.2529297 v2.4394531H85.0522461z M89.4326172,305.25c-3.4931641,0-4.3803711,4.2138672-4.3803711,6.9316406h8.7612305 C93.8134766,309.2978516,93.1479492,305.25,89.4326172,305.25z"/><path class="st2" d="M118.7084961,294.0488281c-1.1088867-0.1660156-1.4970703-0.2216797-2.605957-0.2216797 c-1.6083984,0.0556641-2.2734375,1.4414062-2.2734375,3.2714844v4.2148438h4.6577148v4.9345703h-4.6577148v22.3466797h-6.5986328 v-22.3466797h-3.9370117v-4.9345703h3.9370117c0-0.6660156,0-3.3271484,0-4.6025391 c0-4.9355469,2.6616211-7.5966797,8.0957031-7.5966797c1.6635742,0,3.4379883,0.2773438,4.4912109,0.5546875 L118.7084961,294.0488281z"/><path class="st2" d="M125.1391602,328.5947266v-22.4570312h-3.659668v-4.8242188h10.2583008v27.28125H125.1391602z M128.078125,296.5996094c-2.2734375,0-4.1030273-1.7744141-4.1030273-3.9365234c0-2.1630859,1.8295898-3.9375,4.1030273-3.9375 s4.1035156,1.7744141,4.1035156,3.9375C132.1816406,294.8251953,130.3515625,296.5996094,128.078125,296.5996094z"/><path class="st2" d="M151.9765625,329.09375c-2.9941406,0-5.2124023-1.6083984-6.3212891-3.8261719l-0.4990234,3.3271484 h-5.8222656v-39.4804688h6.5986328v15.4707031c1.3305664-2.4951172,3.7705078-3.7705078,6.7646484-3.7705078 c7.4858398,0,9.4819336,6.8203125,9.4819336,13.8066406C162.1791992,321.6083984,159.6289062,329.09375,151.9765625,329.09375z M150.4794922,305.4716797c-3.3828125,0-4.7133789,3.3828125-4.7133789,6.4326172v6.0996094 c0,3.4931641,1.4418945,6.3769531,4.6025391,6.3769531c4.4360352,0,4.9350586-6.5439453,4.9350586-9.7597656 C155.3037109,311.2382812,154.9155273,305.4716797,150.4794922,305.4716797z"/><path class="st2" d="M181.3076172,306.96875c-0.6098633-0.1660156-1.2197266-0.2773438-1.8295898-0.2773438 c-3.9370117,0-4.8242188,3.5488281-4.8242188,6.9873047v14.9160156h-6.5986328v-27.28125h5.9882812l0.4995117,3.6035156 c1.71875-2.8828125,3.7148438-4.1025391,6.5981445-4.1025391c0.4995117,0,1.5527344,0.1103516,2.0517578,0.3320312 L181.3076172,306.96875z"/><path class="st2" d="M189.0693359,328.5947266v-22.4570312h-3.6591797v-4.8242188h10.2578125v27.28125H189.0693359z M192.0087891,296.5996094c-2.2734375,0-4.1035156-1.7744141-4.1035156-3.9365234c0-2.1630859,1.8300781-3.9375,4.1035156-3.9375 s4.1035156,1.7744141,4.1035156,3.9375C196.1123047,294.8251953,194.2822266,296.5996094,192.0087891,296.5996094z"/><path class="st2" d="M210.75,329.09375c-5.8222656,0-7.4853516-2.3847656-7.4853516-7.6523438v-32.3271484h6.5986328v30.9414062 c0,2.9941406,0.4433594,4.2695312,1.8847656,4.2695312c0.6660156,0,1.4414062-0.1669922,1.8857422-0.3330078l0.7207031,4.4365234 C213.7441406,328.8164062,211.6376953,329.09375,210.75,329.09375z"/><path class="st2" d="M226.4970703,329.09375c-5.8222656,0-7.4863281-2.3847656-7.4863281-7.6523438v-32.3271484h6.5986328 v30.9414062c0,2.9941406,0.4433594,4.2695312,1.8857422,4.2695312c0.6650391,0,1.4414062-0.1669922,1.8847656-0.3330078 l0.7207031,4.4365234C229.4912109,328.8164062,227.3837891,329.09375,226.4970703,329.09375z"/><path class="st2" d="M248.2880859,328.5947266l-0.4990234-3.2158203c-1.5527344,2.3837891-3.8261719,3.7148438-6.8759766,3.7148438 c-5.3232422,0-8.0400391-3.1054688-8.0400391-8.1513672c0-5.6552734,4.2695312-8.7050781,10.4794922-8.7050781 c1.9414062,0,3.2167969,0.2763672,4.2148438,0.4433594v-3.0498047c0-2.828125-1.7197266-4.1035156-4.6025391-4.1035156 c-1.9960938,0-4.6025391,0.4433594-6.4882812,1.4414062l-1.1083984-4.6025391 c2.6611328-1.2197266,6.0439453-1.5517578,8.9267578-1.5517578c6.3769531,0,9.6484375,2.9941406,9.6484375,7.7626953v14.9716797 c0,1.6630859,0.2773438,3.3828125,0.4990234,5.0458984H248.2880859z M247.5673828,316.5615234 c-0.7216797-0.2763672-1.9414062-0.4990234-3.5488281-0.4990234c-3.1054688,0-4.4921875,2.1630859-4.4921875,4.546875 c0,2.3291016,0.9980469,4.0488281,3.4384766,4.0488281c2.4951172,0,4.6025391-1.8300781,4.6025391-4.2705078V316.5615234z"/><path class="st2" d="M269.3017578,329.09375c-4.546875,0-6.7646484-2.4394531-6.7646484-7.4853516v-15.4707031h-3.8818359 v-4.8242188h3.8818359v-6.1552734l6.5986328-1.8857422v7.9853516h5.2675781v4.8798828h-5.2675781v13.9179688 c0,3.1044922,0.7763672,4.2138672,2.7167969,4.2138672c0.9980469,0,1.5527344,0,2.4951172-0.3330078l0.4443359,4.4921875 C273.2949219,328.9824219,271.6308594,329.09375,269.3017578,329.09375z"/><path class="st2" d="M289.8173828,329.09375c-9.1494141,0-11.7548828-6.9863281-11.7548828-14.5283203 c0-6.8203125,3.6044922-13.7509766,11.7548828-13.7509766c8.484375-0.0556641,11.7558594,6.7089844,11.7558594,13.7509766 C301.5732422,321.8847656,298.6894531,329.09375,289.8173828,329.09375z M289.8173828,305.4716797 c-4.2695312,0-4.8789062,5.6005859-4.8789062,9.1494141c0,3.6044922,0.4433594,9.7597656,4.8789062,9.7597656 c4.4365234,0,4.8798828-6.0996094,4.8798828-9.7597656C294.6972656,311.0722656,294.0878906,305.4716797,289.8173828,305.4716797z"/><path class="st2" d="M320.7021484,306.96875c-0.6103516-0.1660156-1.2197266-0.2773438-1.8300781-0.2773438 c-3.9365234,0-4.8242188,3.5488281-4.8242188,6.9873047v14.9160156h-6.5986328v-27.28125H313.4375l0.5,3.6035156 c1.71875-2.8828125,3.7148438-4.1025391,6.5976562-4.1025391c0.5,0,1.5527344,0.1103516,2.0517578,0.3320312L320.7021484,306.96875 z"/></g><g><path class="st3" d="M178.4000244,108.1608658c0.0873566,0,12.1799164-16.4427109,31.7548065-16.529953 c28.361145,0,40.7150574,24.620575,40.7150574,40.4542923c-0.2607574,49.0676422-71.8610077,90.7396698-72.2085114,90.9136658 c-0.4353485,0.2607574-74.0357132-44.9783478-70.3817825-92.9143829 c0.9569855-12.4406662,11.4836807-36.9744949,39.6713181-37.8447037 C171.8752594,91.5441589,178.2260284,108.1608658,178.4000244,108.1608658z"/><polygon class="st4" points="195.3647308,111.9014435 154.214325,160.6209564 178.2260284,160.5335999 161.087204,198.3783112 202.2376099,149.0499115 178.2260284,149.1372833"/><polygon class="st3" points="287.9309998,62.6602859 270.2706299,62.6602859 270.2706299,45 252.6970825,45 252.6970825,62.6602859 235.0362091,62.6602859 235.0362091,80.3212357 252.6970825,80.3212357 252.6970825,97.9821854 270.2706299,97.9821854 270.2706299,80.3212357 287.9309998,80.3212357"/></g></svg>