<?xml version="1.0" encoding="UTF-8" standalone="no"?>
<svg id="Ebene_1" xmlns="http://www.w3.org/2000/svg" version="1.1" viewBox="0 0 24 24">\x3c!--Generator: Adobe Illustrator 29.1.0, SVG Export Plug-In . SVG Version: 2.1.0 Build 142)--\x3e<defs><style>.st0 {         fill-rule: evenodd;       }</style></defs><path class="st0" d="M16.4,1.1c-.1,0-.3.1-.4.2-.2.2-14.6,14.6-14.7,14.8-.2.4-.3.9,0,1.4.1.2.3.4,2.4,2.6,2,2,2.3,2.3,2.5,2.4.4.2.9.2,1.3,0,.2,0,1.4-1.3,7.6-7.5,6-6,7.4-7.4,7.5-7.6,0-.2,0-.3,0-.6,0-.7.1-.5-2.5-3.2-2.1-2.1-2.3-2.3-2.6-2.4-.3-.2-.7-.2-1.1,0M19.6,7.6l-.8.8-1.8-1.8-1.8-1.8.8-.8.8-.8,1.8,1.8,1.8,1.8-.8.8M16.6,10.6l-.8.8-1.8-1.8-1.8-1.8.8-.8.8-.8,1.8,1.8,1.8,1.8-.8.8M13.6,13.6l-.8.8-1.8-1.8-1.8-1.8.8-.8.8-.8,1.8,1.8,1.8,1.8-.8.8M10.6,16.6l-.8.8-1.8-1.8-1.8-1.8.8-.8.8-.8,1.8,1.8,1.8,1.8-.8.8M7.6,19.6l-.8.8-1.8-1.8-1.8-1.8.8-.8.8-.8,1.8,1.8,1.8,1.8-.8.8"/></svg>