<?xml version="1.0" encoding="UTF-8" standalone="no"?>
<svg xmlns:dc="http://purl.org/dc/elements/1.1/" xmlns:cc="http://creativecommons.org/ns#" xmlns:rdf="http://www.w3.org/1999/02/22-rdf-syntax-ns#" xmlns:svg="http://www.w3.org/2000/svg" xmlns="http://www.w3.org/2000/svg" xmlns:sodipodi="http://sodipodi.sourceforge.net/DTD/sodipodi-0.dtd" xmlns:inkscape="http://www.inkscape.org/namespaces/inkscape" version="1.1" id="Ebene_1" x="0px" y="0px" viewBox="0 0 299.15599 299.16499" enable-background="new 0 0 325.982 325.938" xml:space="preserve" inkscape:version="0.48.0 r9654" width="100%" height="100%" sodipodi:docname="xbus.svg"><metadata id="metadata45"><rdf:RDF><cc:Work rdf:about=""><dc:format>image/svg+xml</dc:format><dc:type rdf:resource="http://purl.org/dc/dcmitype/StillImage"/></cc:Work></rdf:RDF></metadata><defs id="defs43"/><sodipodi:namedview pagecolor="#ffffff" bordercolor="#666666" borderopacity="1" objecttolerance="10" gridtolerance="10" guidetolerance="10" inkscape:pageopacity="0" inkscape:pageshadow="2" inkscape:window-width="1680" inkscape:window-height="988" id="namedview41" showgrid="false" fit-margin-top="0" fit-margin-left="0" fit-margin-right="0" fit-margin-bottom="0" inkscape:zoom="0.80076579" inkscape:cx="398.09111" inkscape:cy="151.65699" inkscape:window-x="-8" inkscape:window-y="-8" inkscape:window-maximized="1" inkscape:current-layer="Ebene_1"/><path clip-rule="evenodd" d="M 299.156,149.578 C 299.156,67.096 232.064,0 149.576,0 67.091997,0 -3.1746192e-6,67.096 -3.1746192e-6,149.58 -3.1746192e-6,232.066 67.091997,299.165 149.576,299.165 c 82.488,0 149.58,-67.099 149.58,-149.587 l 0,0 z" id="path5" inkscape:connector-curvature="0" style="fill:#4E7E6C;fill-rule:evenodd"/><polygon clip-rule="evenodd" points="229.579,241.231 224.2,225.735 224.2,225.735 159.302,228.57 161.094,238.175" id="polygon7" style="fill:#ffffff;fill-rule:evenodd" transform="translate(-13.412003,-15.461)"/><polygon clip-rule="evenodd" points="218.446,209.201 156.196,211.917 156.196,211.917 157.871,220.904 223.535,223.83" id="polygon9" style="fill:#ffffff;fill-rule:evenodd" transform="translate(-13.412003,-15.461)"/><polygon clip-rule="evenodd" points="154.545,203.044 154.658,203.634 217.478,206.428 212.698,192.665 97,197.711 97,197.711 94.335,200.953 154.152,203.605" id="polygon11" style="fill:#ffffff;fill-rule:evenodd" transform="translate(-13.412003,-15.461)"/><polygon clip-rule="evenodd" points="131.425,236.854 136.411,229.564 136.411,229.564 68.394,232.524 67.183,234.001" id="polygon13" style="fill:#ffffff;fill-rule:evenodd" transform="translate(-13.412003,-15.461)"/><polygon clip-rule="evenodd" points="142.791,220.237 148.245,212.263 148.245,212.263 82.697,215.118 80.756,217.48" id="polygon15" style="fill:#ffffff;fill-rule:evenodd" transform="translate(-13.412003,-15.461)"/><polygon clip-rule="evenodd" points="169.915,118.677 168.498,110.663 168.498,110.663 106.813,113.354 107.744,115.918" id="polygon17" style="fill:#ffffff;fill-rule:evenodd" transform="translate(-13.412003,-15.461)"/><polygon clip-rule="evenodd" points="165.565,94.009 100.812,96.827 100.812,96.827 101.421,98.506 166.871,101.415" id="polygon19" style="fill:#ffffff;fill-rule:evenodd" transform="translate(-13.412003,-15.461)"/><polygon clip-rule="evenodd" points="206.94,176.136 111.304,180.298 111.304,180.298 107.912,184.431 211.43,189.031" id="polygon21" style="fill:#ffffff;fill-rule:evenodd" transform="translate(-13.412003,-15.461)"/><polygon clip-rule="evenodd" points="261.394,89.835 194.195,92.76 194.195,92.76 188.11,102.36 249.233,105.078" id="polygon23" style="fill:#ffffff;fill-rule:evenodd" transform="translate(-13.412003,-15.461)"/><polygon clip-rule="evenodd" points="121.486,167.905 205.382,171.636 202.576,163.565 205.906,159.391 205.906,159.391 124.816,162.927 125.05,163.565" id="polygon25" style="fill:#ffffff;fill-rule:evenodd" transform="translate(-13.412003,-15.461)"/><polygon clip-rule="evenodd" points="198.67,85.705 262.431,88.539 262.431,88.539 268.587,80.812 201.772,80.812" id="polygon27" style="fill:#ffffff;fill-rule:evenodd" transform="translate(-13.412003,-15.461)"/><polygon clip-rule="evenodd" points="95.097,81.098 163.83,84.154 163.83,84.154 163.245,80.812 94.994,80.812" id="polygon29" style="fill:#ffffff;fill-rule:evenodd" transform="translate(-13.412003,-15.461)"/><polygon clip-rule="evenodd" points="124.582,246.865 54.086,249.943 54.086,249.943 53.539,250.602 122.029,250.602" id="polygon31" style="fill:#ffffff;fill-rule:evenodd" transform="translate(-13.412003,-15.461)"/><polygon clip-rule="evenodd" points="229.949,242.273 162.403,245.22 162.403,245.22 163.404,250.602 232.838,250.602" id="polygon33" style="fill:#ffffff;fill-rule:evenodd" transform="translate(-13.412003,-15.461)"/><polygon clip-rule="evenodd" points="219.775,142.003 118.815,146.4 118.815,146.4 120.387,150.729 209.648,154.699" id="polygon35" style="fill:#ffffff;fill-rule:evenodd" transform="translate(-13.412003,-15.461)"/><polygon clip-rule="evenodd" points="112.814,129.877 114.063,133.322 222.848,138.156 233.647,124.613 172.31,127.286 172.31,127.286 171.628,128.371 171.435,127.323" id="polygon37" style="fill:#ffffff;fill-rule:evenodd" transform="translate(-13.412003,-15.461)"/><polygon clip-rule="evenodd" points="247.525,107.222 183.254,110.024 183.254,110.024 177.557,119.019 236.033,121.617" id="polygon39" style="fill:#ffffff;fill-rule:evenodd" transform="translate(-13.412003,-15.461)"/></svg>